%TF.GenerationSoftware,KiCad,Pcbnew,8.0.3-8.0.3-0~ubuntu22.04.1*%
%TF.CreationDate,2024-07-06T17:26:29-06:00*%
%TF.ProjectId,stm32g070 and DRV8311 single motor board - V1 Alpha,73746d33-3267-4303-9730-20616e642044,rev?*%
%TF.SameCoordinates,Original*%
%TF.FileFunction,Copper,L1,Top*%
%TF.FilePolarity,Positive*%
%FSLAX46Y46*%
G04 Gerber Fmt 4.6, Leading zero omitted, Abs format (unit mm)*
G04 Created by KiCad (PCBNEW 8.0.3-8.0.3-0~ubuntu22.04.1) date 2024-07-06 17:26:29*
%MOMM*%
%LPD*%
G01*
G04 APERTURE LIST*
G04 Aperture macros list*
%AMRoundRect*
0 Rectangle with rounded corners*
0 $1 Rounding radius*
0 $2 $3 $4 $5 $6 $7 $8 $9 X,Y pos of 4 corners*
0 Add a 4 corners polygon primitive as box body*
4,1,4,$2,$3,$4,$5,$6,$7,$8,$9,$2,$3,0*
0 Add four circle primitives for the rounded corners*
1,1,$1+$1,$2,$3*
1,1,$1+$1,$4,$5*
1,1,$1+$1,$6,$7*
1,1,$1+$1,$8,$9*
0 Add four rect primitives between the rounded corners*
20,1,$1+$1,$2,$3,$4,$5,0*
20,1,$1+$1,$4,$5,$6,$7,0*
20,1,$1+$1,$6,$7,$8,$9,0*
20,1,$1+$1,$8,$9,$2,$3,0*%
%AMRotRect*
0 Rectangle, with rotation*
0 The origin of the aperture is its center*
0 $1 length*
0 $2 width*
0 $3 Rotation angle, in degrees counterclockwise*
0 Add horizontal line*
21,1,$1,$2,0,0,$3*%
%AMFreePoly0*
4,1,9,2.100000,-2.000000,2.350000,-2.000000,2.350000,-3.500000,-2.350000,-3.500000,-2.350000,-2.000000,-2.100000,-2.000000,-2.100000,1.100000,2.100000,1.100000,2.100000,-2.000000,2.100000,-2.000000,$1*%
G04 Aperture macros list end*
%TA.AperFunction,Conductor*%
%ADD10C,0.900000*%
%TD*%
%TA.AperFunction,SMDPad,CuDef*%
%ADD11RoundRect,0.237500X-0.250000X-0.237500X0.250000X-0.237500X0.250000X0.237500X-0.250000X0.237500X0*%
%TD*%
%TA.AperFunction,SMDPad,CuDef*%
%ADD12RoundRect,0.237500X-0.300000X-0.237500X0.300000X-0.237500X0.300000X0.237500X-0.300000X0.237500X0*%
%TD*%
%TA.AperFunction,SMDPad,CuDef*%
%ADD13RotRect,1.400000X1.200000X52.000000*%
%TD*%
%TA.AperFunction,SMDPad,CuDef*%
%ADD14C,1.500000*%
%TD*%
%TA.AperFunction,SMDPad,CuDef*%
%ADD15RoundRect,0.075000X-0.662500X-0.075000X0.662500X-0.075000X0.662500X0.075000X-0.662500X0.075000X0*%
%TD*%
%TA.AperFunction,SMDPad,CuDef*%
%ADD16RoundRect,0.075000X-0.075000X-0.662500X0.075000X-0.662500X0.075000X0.662500X-0.075000X0.662500X0*%
%TD*%
%TA.AperFunction,SMDPad,CuDef*%
%ADD17RoundRect,0.237500X0.237500X-0.300000X0.237500X0.300000X-0.237500X0.300000X-0.237500X-0.300000X0*%
%TD*%
%TA.AperFunction,SMDPad,CuDef*%
%ADD18RoundRect,0.237500X-0.237500X0.300000X-0.237500X-0.300000X0.237500X-0.300000X0.237500X0.300000X0*%
%TD*%
%TA.AperFunction,SMDPad,CuDef*%
%ADD19RoundRect,0.150000X0.150000X0.625000X-0.150000X0.625000X-0.150000X-0.625000X0.150000X-0.625000X0*%
%TD*%
%TA.AperFunction,SMDPad,CuDef*%
%ADD20RoundRect,0.250000X0.350000X0.650000X-0.350000X0.650000X-0.350000X-0.650000X0.350000X-0.650000X0*%
%TD*%
%TA.AperFunction,ComponentPad*%
%ADD21RoundRect,0.200000X0.450000X-0.200000X0.450000X0.200000X-0.450000X0.200000X-0.450000X-0.200000X0*%
%TD*%
%TA.AperFunction,ComponentPad*%
%ADD22O,1.300000X0.800000*%
%TD*%
%TA.AperFunction,ComponentPad*%
%ADD23C,1.200000*%
%TD*%
%TA.AperFunction,SMDPad,CuDef*%
%ADD24RoundRect,0.237500X0.287500X0.237500X-0.287500X0.237500X-0.287500X-0.237500X0.287500X-0.237500X0*%
%TD*%
%TA.AperFunction,SMDPad,CuDef*%
%ADD25RoundRect,0.062500X-0.187500X-0.062500X0.187500X-0.062500X0.187500X0.062500X-0.187500X0.062500X0*%
%TD*%
%TA.AperFunction,ComponentPad*%
%ADD26C,0.600000*%
%TD*%
%TA.AperFunction,SMDPad,CuDef*%
%ADD27R,0.840000X2.400000*%
%TD*%
%TA.AperFunction,ComponentPad*%
%ADD28R,1.700000X1.700000*%
%TD*%
%TA.AperFunction,ComponentPad*%
%ADD29O,1.700000X1.700000*%
%TD*%
%TA.AperFunction,SMDPad,CuDef*%
%ADD30R,0.200000X0.469999*%
%TD*%
%TA.AperFunction,SMDPad,CuDef*%
%ADD31R,0.469999X0.200000*%
%TD*%
%TA.AperFunction,SMDPad,CuDef*%
%ADD32R,1.899999X1.899999*%
%TD*%
%TA.AperFunction,SMDPad,CuDef*%
%ADD33RoundRect,0.237500X0.250000X0.237500X-0.250000X0.237500X-0.250000X-0.237500X0.250000X-0.237500X0*%
%TD*%
%TA.AperFunction,SMDPad,CuDef*%
%ADD34RoundRect,0.175000X0.400000X-0.175000X0.400000X0.175000X-0.400000X0.175000X-0.400000X-0.175000X0*%
%TD*%
%TA.AperFunction,SMDPad,CuDef*%
%ADD35FreePoly0,90.000000*%
%TD*%
%TA.AperFunction,SMDPad,CuDef*%
%ADD36RoundRect,0.175000X-0.175000X-0.400000X0.175000X-0.400000X0.175000X0.400000X-0.175000X0.400000X0*%
%TD*%
%TA.AperFunction,SMDPad,CuDef*%
%ADD37FreePoly0,0.000000*%
%TD*%
%TA.AperFunction,SMDPad,CuDef*%
%ADD38R,4.000000X4.000000*%
%TD*%
%TA.AperFunction,SMDPad,CuDef*%
%ADD39RoundRect,0.237500X0.300000X0.237500X-0.300000X0.237500X-0.300000X-0.237500X0.300000X-0.237500X0*%
%TD*%
%TA.AperFunction,SMDPad,CuDef*%
%ADD40R,0.900000X1.000000*%
%TD*%
%TA.AperFunction,SMDPad,CuDef*%
%ADD41RoundRect,0.237500X-0.237500X0.250000X-0.237500X-0.250000X0.237500X-0.250000X0.237500X0.250000X0*%
%TD*%
%TA.AperFunction,SMDPad,CuDef*%
%ADD42RoundRect,0.200000X-0.200000X-0.275000X0.200000X-0.275000X0.200000X0.275000X-0.200000X0.275000X0*%
%TD*%
%TA.AperFunction,SMDPad,CuDef*%
%ADD43RoundRect,0.250000X-0.650000X0.412500X-0.650000X-0.412500X0.650000X-0.412500X0.650000X0.412500X0*%
%TD*%
%TA.AperFunction,SMDPad,CuDef*%
%ADD44RoundRect,0.200000X0.200000X0.275000X-0.200000X0.275000X-0.200000X-0.275000X0.200000X-0.275000X0*%
%TD*%
%TA.AperFunction,ViaPad*%
%ADD45C,0.600000*%
%TD*%
%TA.AperFunction,Conductor*%
%ADD46C,0.200000*%
%TD*%
%TA.AperFunction,Conductor*%
%ADD47C,2.814000*%
%TD*%
%TA.AperFunction,Conductor*%
%ADD48C,1.000000*%
%TD*%
%TA.AperFunction,Conductor*%
%ADD49C,0.280000*%
%TD*%
G04 APERTURE END LIST*
D10*
%TO.N,Net-(J3-Pin_2)*%
X156400000Y-95650000D02*
X153700000Y-96075000D01*
%TO.N,Net-(J3-Pin_1)*%
X156400000Y-96900000D02*
X153800000Y-97200000D01*
%TO.N,Net-(J3-Pin_3)*%
X156400000Y-94400000D02*
X153400000Y-95000000D01*
%TD*%
D11*
%TO.P,R12,1*%
%TO.N,GND*%
X128100000Y-125900000D03*
%TO.P,R12,2*%
%TO.N,Net-(U4-ISET)*%
X129925000Y-125900000D03*
%TD*%
D12*
%TO.P,C3,1*%
%TO.N,Net-(U1-PF0)*%
X127237500Y-101400000D03*
%TO.P,C3,2*%
%TO.N,GND*%
X128962500Y-101400000D03*
%TD*%
D13*
%TO.P,Y1,1,1*%
%TO.N,Net-(U1-PF1)*%
X127292582Y-106290124D03*
%TO.P,Y1,2,2*%
%TO.N,GND*%
X128647036Y-104556501D03*
%TO.P,Y1,3,3*%
%TO.N,Net-(U1-PF0)*%
X127307418Y-103509876D03*
%TO.P,Y1,4,4*%
%TO.N,GND*%
X125952964Y-105243499D03*
%TD*%
D14*
%TO.P,TP12,1,1*%
%TO.N,/1CSA-C*%
X138400000Y-112400000D03*
%TD*%
%TO.P,TP11,1,1*%
%TO.N,/1CSA-B*%
X135800000Y-112400000D03*
%TD*%
D15*
%TO.P,U1,1,PC13*%
%TO.N,/CS2*%
X131137500Y-101136000D03*
%TO.P,U1,2,PC14*%
%TO.N,/CS3*%
X131137500Y-101636000D03*
%TO.P,U1,3,PC15*%
%TO.N,/CS4*%
X131137500Y-102136000D03*
%TO.P,U1,4,VBAT*%
%TO.N,VDD*%
X131137500Y-102636000D03*
%TO.P,U1,5,VREF+*%
%TO.N,Net-(U1-VREF+)*%
X131137500Y-103136000D03*
%TO.P,U1,6,VDD*%
%TO.N,VDD*%
X131137500Y-103636000D03*
%TO.P,U1,7,VSS*%
%TO.N,GND*%
X131137500Y-104136000D03*
%TO.P,U1,8,PF0*%
%TO.N,Net-(U1-PF0)*%
X131137500Y-104636000D03*
%TO.P,U1,9,PF1*%
%TO.N,Net-(U1-PF1)*%
X131137500Y-105136000D03*
%TO.P,U1,10,NRST*%
%TO.N,/NRST*%
X131137500Y-105636000D03*
%TO.P,U1,11,PA0*%
%TO.N,/1CSA-A*%
X131137500Y-106136000D03*
%TO.P,U1,12,PA1*%
X131137500Y-106636000D03*
D16*
%TO.P,U1,13,PA2*%
X132550000Y-108048500D03*
%TO.P,U1,14,PA3*%
%TO.N,/1CSA-B*%
X133050000Y-108048500D03*
%TO.P,U1,15,PA4*%
X133550000Y-108048500D03*
%TO.P,U1,16,PA5*%
X134050000Y-108048500D03*
%TO.P,U1,17,PA6*%
%TO.N,/1CSA-C*%
X134550000Y-108048500D03*
%TO.P,U1,18,PA7*%
X135050000Y-108048500D03*
%TO.P,U1,19,PB0*%
X135550000Y-108048500D03*
%TO.P,U1,20,PB1*%
%TO.N,/1A*%
X136050000Y-108048500D03*
%TO.P,U1,21,PB2*%
%TO.N,/ADC10{slash}VBATT*%
X136550000Y-108048500D03*
%TO.P,U1,22,PB10*%
%TO.N,/ADC11*%
X137050000Y-108048500D03*
%TO.P,U1,23,PB11*%
%TO.N,/MOSI2*%
X137550000Y-108048500D03*
%TO.P,U1,24,PB12*%
%TO.N,/LED*%
X138050000Y-108048500D03*
D15*
%TO.P,U1,25,PB13*%
%TO.N,/SCL2*%
X139462500Y-106636000D03*
%TO.P,U1,26,PB14*%
%TO.N,/1A*%
X139462500Y-106136000D03*
%TO.P,U1,27,PB15*%
X139462500Y-105636000D03*
%TO.P,U1,28,PA8*%
%TO.N,/1B*%
X139462500Y-105136000D03*
%TO.P,U1,29,PA9/NC*%
X139462500Y-104636000D03*
%TO.P,U1,30,PC6*%
X139462500Y-104136000D03*
%TO.P,U1,31,PC7*%
%TO.N,/1C*%
X139462500Y-103636000D03*
%TO.P,U1,32,PA10/NC*%
X139462500Y-103136000D03*
%TO.P,U1,33,PA11/PA9*%
X139462500Y-102636000D03*
%TO.P,U1,34,PA12/PA10*%
%TO.N,/SDA2*%
X139462500Y-102136000D03*
%TO.P,U1,35,PA13*%
%TO.N,/SWD*%
X139462500Y-101636000D03*
%TO.P,U1,36,PA14*%
%TO.N,/SWC*%
X139462500Y-101136000D03*
D16*
%TO.P,U1,37,PA15*%
%TO.N,unconnected-(U1-PA15-Pad37)*%
X138050000Y-99723500D03*
%TO.P,U1,38,PD0*%
%TO.N,unconnected-(U1-PD0-Pad38)*%
X137550000Y-99723500D03*
%TO.P,U1,39,PD1*%
%TO.N,/SCK2*%
X137050000Y-99723500D03*
%TO.P,U1,40,PD2*%
%TO.N,/CS1*%
X136550000Y-99723500D03*
%TO.P,U1,41,PD3*%
%TO.N,/MISO2*%
X136050000Y-99723500D03*
%TO.P,U1,42,PB3*%
%TO.N,/SCK1*%
X135550000Y-99723500D03*
%TO.P,U1,43,PB4*%
%TO.N,/MISO1*%
X135050000Y-99723500D03*
%TO.P,U1,44,PB5*%
%TO.N,/MOSI1*%
X134550000Y-99723500D03*
%TO.P,U1,45,PB6*%
%TO.N,/USART1_TX*%
X134050000Y-99723500D03*
%TO.P,U1,46,PB7*%
%TO.N,/USART1_RX*%
X133550000Y-99723500D03*
%TO.P,U1,47,PB8*%
%TO.N,/SCL1*%
X133050000Y-99723500D03*
%TO.P,U1,48,PB9*%
%TO.N,/SDA1*%
X132550000Y-99723500D03*
%TD*%
D17*
%TO.P,C10,1*%
%TO.N,GND*%
X146400000Y-101262501D03*
%TO.P,C10,2*%
%TO.N,VDD*%
X146400000Y-99537499D03*
%TD*%
D18*
%TO.P,C7,1*%
%TO.N,/MOTORPWR*%
X152900000Y-99937499D03*
%TO.P,C7,2*%
%TO.N,GND*%
X152900000Y-101662501D03*
%TD*%
D19*
%TO.P,J1,1,Pin_1*%
%TO.N,GND*%
X128800000Y-93600000D03*
%TO.P,J1,2,Pin_2*%
%TO.N,Net-(J1-Pin_2)*%
X127800000Y-93600000D03*
%TO.P,J1,3,Pin_3*%
%TO.N,/SDA1*%
X126800000Y-93600000D03*
%TO.P,J1,4,Pin_4*%
%TO.N,/SCL1*%
X125800000Y-93600000D03*
D20*
%TO.P,J1,MP,MountPin*%
%TO.N,GND*%
X130100000Y-89725000D03*
X124500000Y-89725000D03*
%TD*%
D21*
%TO.P,J3,1,Pin_1*%
%TO.N,Net-(J3-Pin_1)*%
X156400000Y-96900000D03*
D22*
%TO.P,J3,2,Pin_2*%
%TO.N,Net-(J3-Pin_2)*%
X156400000Y-95650000D03*
%TO.P,J3,3,Pin_3*%
%TO.N,Net-(J3-Pin_3)*%
X156400000Y-94400000D03*
%TD*%
D23*
%TO.P,C15,1*%
%TO.N,/MOTORPWR*%
X152800000Y-110900000D03*
%TO.P,C15,2*%
%TO.N,GNDPWR*%
X150800000Y-110900000D03*
%TD*%
D12*
%TO.P,C17,1*%
%TO.N,GND*%
X128150000Y-127400000D03*
%TO.P,C17,2*%
%TO.N,/PSU/LDO 4.9v*%
X129875000Y-127400000D03*
%TD*%
D11*
%TO.P,R4,1*%
%TO.N,/PSU/Pack+*%
X143687500Y-129200000D03*
%TO.P,R4,2*%
%TO.N,Net-(U3-PACK)*%
X145512500Y-129200000D03*
%TD*%
D24*
%TO.P,D1,1,K*%
%TO.N,/PSU/~{CHG}*%
X126050000Y-116400000D03*
%TO.P,D1,2,A*%
%TO.N,Net-(D1-A)*%
X124300000Y-116400000D03*
%TD*%
D25*
%TO.P,U4,1,IN*%
%TO.N,/PSU/IN*%
X131312500Y-124687500D03*
%TO.P,U4,2,ISET*%
%TO.N,Net-(U4-ISET)*%
X131312500Y-125187500D03*
%TO.P,U4,3,VSS*%
%TO.N,GNDPWR*%
X131312500Y-125687500D03*
%TO.P,U4,4,LDO*%
%TO.N,/PSU/LDO 4.9v*%
X131312500Y-126187500D03*
%TO.P,U4,5,TS*%
%TO.N,Net-(U4-TS)*%
X131312500Y-126687500D03*
%TO.P,U4,6,BAT*%
%TO.N,/PSU/Pack+*%
X133212500Y-126687500D03*
%TO.P,U4,7,EN*%
%TO.N,GND*%
X133212500Y-126187500D03*
%TO.P,U4,8,~{CHG}*%
%TO.N,/PSU/~{CHG}*%
X133212500Y-125687500D03*
%TO.P,U4,9,BGATE*%
%TO.N,Net-(Q3-G)*%
X133212500Y-125187500D03*
%TO.P,U4,10,OUT*%
%TO.N,/MOTORPWR*%
X133212500Y-124687500D03*
D26*
%TO.P,U4,11,VSS*%
%TO.N,GNDPWR*%
X132262500Y-124737500D03*
X132262500Y-125687500D03*
D27*
X132262500Y-125687500D03*
D26*
X132262500Y-126637500D03*
%TD*%
D28*
%TO.P,J4,1,Pin_1*%
%TO.N,/USART1_TX*%
X144525000Y-90000000D03*
D29*
%TO.P,J4,2,Pin_2*%
%TO.N,/USART1_RX*%
X147065000Y-90000000D03*
%TD*%
D24*
%TO.P,D3,1,K*%
%TO.N,GND*%
X146075000Y-111900000D03*
%TO.P,D3,2,A*%
%TO.N,Net-(D3-A)*%
X144325000Y-111900000D03*
%TD*%
D30*
%TO.P,U2,1,FAULT_N*%
%TO.N,/DRV8311/FAULT*%
X148662499Y-98865001D03*
%TO.P,U2,2,CSAREF*%
%TO.N,VDD*%
X149062498Y-98865001D03*
%TO.P,U2,3,SOC*%
%TO.N,/1CSA-C*%
X149462500Y-98865001D03*
%TO.P,U2,4,SOB*%
%TO.N,/1CSA-B*%
X149862499Y-98865001D03*
%TO.P,U2,5,SOA*%
%TO.N,/1CSA-A*%
X150262498Y-98865001D03*
%TO.P,U2,6,CP*%
%TO.N,Net-(U2-CP)*%
X150662500Y-98865001D03*
%TO.P,U2,7,VIN_AVDD*%
%TO.N,/MOTORPWR*%
X151062499Y-98865001D03*
D31*
%TO.P,U2,8,VM*%
X151327500Y-98070001D03*
%TO.P,U2,9,PGND*%
%TO.N,GNDPWR*%
X151327500Y-97669999D03*
%TO.P,U2,10,OUTA*%
%TO.N,Net-(J3-Pin_1)*%
X151327500Y-97270000D03*
%TO.P,U2,11,OUTB*%
%TO.N,Net-(J3-Pin_2)*%
X151327500Y-96870001D03*
%TO.P,U2,12,OUTC*%
%TO.N,Net-(J3-Pin_3)*%
X151327500Y-96469999D03*
D30*
%TO.P,U2,13,INHC*%
%TO.N,/1C*%
X151062499Y-95934999D03*
%TO.P,U2,14,INHB*%
%TO.N,/1B*%
X150662500Y-95934999D03*
%TO.P,U2,15,INHA*%
%TO.N,/1A*%
X150262498Y-95934999D03*
%TO.P,U2,16,AGND*%
%TO.N,GND*%
X149862499Y-95934999D03*
%TO.P,U2,17,AVDD*%
%TO.N,VDD*%
X149462500Y-95934999D03*
%TO.P,U2,18,INLA*%
X149062498Y-95934999D03*
%TO.P,U2,19,INLB*%
X148662499Y-95934999D03*
D31*
%TO.P,U2,20,INLC*%
X148397498Y-96469999D03*
%TO.P,U2,21,GAIN*%
%TO.N,Net-(U2-GAIN)*%
X148397498Y-96870001D03*
%TO.P,U2,22,SLEW*%
%TO.N,unconnected-(U2-SLEW-Pad22)*%
X148397498Y-97270000D03*
%TO.P,U2,23,MODE*%
%TO.N,VDD*%
X148397498Y-97669999D03*
%TO.P,U2,24,SLEEP_N*%
%TO.N,Net-(U2-SLEEP_N)*%
X148397498Y-98070001D03*
D26*
%TO.P,U2,25,PowerPAD*%
%TO.N,GNDPWR*%
X149162498Y-98100001D03*
X150562500Y-98100001D03*
D32*
X149862499Y-97400000D03*
D26*
X149862499Y-97374600D03*
X149162498Y-96699999D03*
X150562500Y-96699999D03*
%TD*%
D18*
%TO.P,C9,1*%
%TO.N,/MOTORPWR*%
X154400000Y-99937500D03*
%TO.P,C9,2*%
%TO.N,GNDPWR*%
X154400000Y-101662500D03*
%TD*%
D33*
%TO.P,R13,1*%
%TO.N,/PSU/~{CHG}*%
X126112500Y-118300000D03*
%TO.P,R13,2*%
%TO.N,/PSU/LDO 4.9v*%
X124287500Y-118300000D03*
%TD*%
D14*
%TO.P,TP8,1,1*%
%TO.N,/1B*%
X142700000Y-105000000D03*
%TD*%
D34*
%TO.P,Q2,1,S*%
%TO.N,/PSU/Pack+*%
X149925000Y-124995000D03*
%TO.P,Q2,2,S*%
X149925000Y-126265000D03*
%TO.P,Q2,3,S*%
X149925000Y-127535000D03*
%TO.P,Q2,4,G*%
%TO.N,Net-(Q1-G)*%
X149925000Y-128805000D03*
D35*
%TO.P,Q2,5,D*%
%TO.N,/PSU/BATT+*%
X152650000Y-126900000D03*
%TD*%
D14*
%TO.P,TP9,1,1*%
%TO.N,/1C*%
X142600000Y-102100000D03*
%TD*%
D36*
%TO.P,Q4,1,S*%
%TO.N,/MOTORPWR*%
X146530000Y-119025000D03*
%TO.P,Q4,2,S*%
X145260000Y-119025000D03*
%TO.P,Q4,3,S*%
X143990000Y-119025000D03*
%TO.P,Q4,4,G*%
%TO.N,Net-(Q3-G)*%
X142720000Y-119025000D03*
D37*
%TO.P,Q4,5,D*%
%TO.N,/PSU/Pack+*%
X144625000Y-121750000D03*
%TD*%
D33*
%TO.P,R11,1*%
%TO.N,Net-(U4-TS)*%
X126625000Y-128900000D03*
%TO.P,R11,2*%
%TO.N,GND*%
X124800000Y-128900000D03*
%TD*%
D38*
%TO.P,H1,1,1*%
%TO.N,/PSU/BATT+*%
X158900000Y-124400000D03*
%TD*%
D39*
%TO.P,C5,1*%
%TO.N,GND*%
X149562500Y-94400000D03*
%TO.P,C5,2*%
%TO.N,VDD*%
X147837500Y-94400000D03*
%TD*%
D14*
%TO.P,TP10,1,1*%
%TO.N,/1CSA-A*%
X133200000Y-112400000D03*
%TD*%
D19*
%TO.P,J2,1,Pin_1*%
%TO.N,GND*%
X140100000Y-93600000D03*
%TO.P,J2,2,Pin_2*%
%TO.N,Net-(J2-Pin_2)*%
X139100000Y-93600000D03*
%TO.P,J2,3,Pin_3*%
%TO.N,/SCK1*%
X138100000Y-93600000D03*
%TO.P,J2,4,Pin_4*%
%TO.N,/MISO1*%
X137100000Y-93600000D03*
%TO.P,J2,5,Pin_5*%
%TO.N,/MOSI1*%
X136100000Y-93600000D03*
%TO.P,J2,6,Pin_6*%
%TO.N,/CS1*%
X135100000Y-93600000D03*
D20*
%TO.P,J2,MP,MountPin*%
%TO.N,GND*%
X141400000Y-89725000D03*
X133800000Y-89725000D03*
%TD*%
D40*
%TO.P,SW1,1,1*%
%TO.N,GND*%
X128950000Y-112800000D03*
X124850000Y-112800000D03*
%TO.P,SW1,2,2*%
%TO.N,/NRST*%
X128950000Y-111200000D03*
X124850000Y-111200000D03*
%TD*%
D38*
%TO.P,H3,1,1*%
%TO.N,/PSU/IN*%
X125212500Y-122100000D03*
%TD*%
D17*
%TO.P,C16,1*%
%TO.N,GNDPWR*%
X135400000Y-128462500D03*
%TO.P,C16,2*%
%TO.N,/PSU/Pack+*%
X135400000Y-126737500D03*
%TD*%
D41*
%TO.P,R2,1*%
%TO.N,GND*%
X146400000Y-96187500D03*
%TO.P,R2,2*%
%TO.N,Net-(U2-GAIN)*%
X146400000Y-98012500D03*
%TD*%
D33*
%TO.P,R10,1*%
%TO.N,/PSU/LDO 4.9v*%
X129925000Y-128900000D03*
%TO.P,R10,2*%
%TO.N,Net-(U4-TS)*%
X128100000Y-128900000D03*
%TD*%
D39*
%TO.P,C14,1*%
%TO.N,/MOTORPWR*%
X134462500Y-122200000D03*
%TO.P,C14,2*%
%TO.N,GNDPWR*%
X132737500Y-122200000D03*
%TD*%
D12*
%TO.P,C4,1*%
%TO.N,Net-(U1-PF1)*%
X127237500Y-108400000D03*
%TO.P,C4,2*%
%TO.N,GND*%
X128962500Y-108400000D03*
%TD*%
D18*
%TO.P,C6,1*%
%TO.N,Net-(U2-CP)*%
X151300000Y-100337499D03*
%TO.P,C6,2*%
%TO.N,/MOTORPWR*%
X151300000Y-102062501D03*
%TD*%
D42*
%TO.P,R16,1*%
%TO.N,VDD*%
X131975000Y-95700000D03*
%TO.P,R16,2*%
%TO.N,/CS1*%
X133625000Y-95700000D03*
%TD*%
D34*
%TO.P,Q1,1,S*%
%TO.N,/PSU/Pack+*%
X149925000Y-119160000D03*
%TO.P,Q1,2,S*%
X149925000Y-120430000D03*
%TO.P,Q1,3,S*%
X149925000Y-121700000D03*
%TO.P,Q1,4,G*%
%TO.N,Net-(Q1-G)*%
X149925000Y-122970000D03*
D35*
%TO.P,Q1,5,D*%
%TO.N,/PSU/BATT+*%
X152650000Y-121065000D03*
%TD*%
D43*
%TO.P,C8,1*%
%TO.N,/MOTORPWR*%
X156500000Y-99837500D03*
%TO.P,C8,2*%
%TO.N,GNDPWR*%
X156500000Y-102962500D03*
%TD*%
D36*
%TO.P,Q3,1,S*%
%TO.N,/MOTORPWR*%
X140700000Y-119025000D03*
%TO.P,Q3,2,S*%
X139430000Y-119025000D03*
%TO.P,Q3,3,S*%
X138160000Y-119025000D03*
%TO.P,Q3,4,G*%
%TO.N,Net-(Q3-G)*%
X136890000Y-119025000D03*
D37*
%TO.P,Q3,5,D*%
%TO.N,/PSU/Pack+*%
X138795000Y-121750000D03*
%TD*%
D39*
%TO.P,C13,1*%
%TO.N,/PSU/IN*%
X126075000Y-125500000D03*
%TO.P,C13,2*%
%TO.N,GNDPWR*%
X124350000Y-125500000D03*
%TD*%
D44*
%TO.P,R15,1*%
%TO.N,VDD*%
X129525000Y-95700000D03*
%TO.P,R15,2*%
%TO.N,/SCL1*%
X127875000Y-95700000D03*
%TD*%
D14*
%TO.P,TP7,1,1*%
%TO.N,/1A*%
X142700000Y-107800000D03*
%TD*%
D45*
%TO.N,/MOTORPWR*%
X143200000Y-98300000D03*
X151700000Y-99200000D03*
%TO.N,VDD*%
X129600000Y-102636000D03*
X147213896Y-95473287D03*
X131000000Y-94700000D03*
%TO.N,GND*%
X124000000Y-99300000D03*
X123800000Y-108900000D03*
X146000000Y-103400000D03*
X131800000Y-91800000D03*
X126600000Y-127100000D03*
X135000000Y-125600000D03*
X132900000Y-104500000D03*
X136800000Y-89700000D03*
X141000000Y-98600000D03*
X131600000Y-112200000D03*
%TO.N,/MOTORPWR*%
X158600000Y-103400000D03*
X158600000Y-105300000D03*
X142600000Y-115200000D03*
X159600000Y-103400000D03*
X142600000Y-117200000D03*
X143500000Y-115200000D03*
X141700000Y-115200000D03*
X158600000Y-104400000D03*
X141700000Y-116200000D03*
X141700000Y-117200000D03*
X159600000Y-105300000D03*
X160600000Y-104400000D03*
X140800000Y-117200000D03*
X143500000Y-116200000D03*
X160600000Y-103400000D03*
X160600000Y-105300000D03*
X142600000Y-116200000D03*
X140800000Y-116200000D03*
X159600000Y-104400000D03*
X140800000Y-115200000D03*
X143500000Y-117200000D03*
%TO.N,GNDPWR*%
X158900000Y-116500000D03*
X131400000Y-119000000D03*
X124350000Y-126300000D03*
X152800000Y-90800000D03*
X132400000Y-118100000D03*
X153500000Y-106800000D03*
X124350000Y-127150000D03*
X154800000Y-90800000D03*
X157900000Y-117400000D03*
X130400000Y-117100000D03*
X159900000Y-116500000D03*
X132400000Y-117100000D03*
X153800000Y-89800000D03*
X132400000Y-119000000D03*
X154800000Y-89800000D03*
X157900000Y-115500000D03*
X159900000Y-117400000D03*
X153500000Y-104900000D03*
X152500000Y-106800000D03*
X152800000Y-89800000D03*
X131400000Y-118100000D03*
X159900000Y-115500000D03*
X152500000Y-105900000D03*
X153500000Y-105900000D03*
X158900000Y-115500000D03*
X153800000Y-90800000D03*
X152800000Y-91700000D03*
X151500000Y-105900000D03*
X154800000Y-91700000D03*
X151500000Y-104900000D03*
X130400000Y-118100000D03*
X151500000Y-106800000D03*
X131400000Y-117100000D03*
X157900000Y-116500000D03*
X158900000Y-117400000D03*
X153800000Y-91700000D03*
X152500000Y-104900000D03*
X130400000Y-119000000D03*
%TO.N,/SWC*%
X137500000Y-101100000D03*
%TO.N,/SWD*%
X138000000Y-101900000D03*
%TO.N,Net-(U2-SLEEP_N)*%
X148100000Y-99400000D03*
%TO.N,/PSU/LDO 4.9v*%
X127912500Y-124700000D03*
X124000000Y-118700000D03*
%TO.N,/1CSA-B*%
X147600000Y-101200000D03*
X134000000Y-110000000D03*
%TO.N,/1CSA-A*%
X132700000Y-110000000D03*
X148200000Y-101900000D03*
%TO.N,/1CSA-C*%
X135300000Y-109800000D03*
X147200000Y-100400000D03*
%TO.N,/CS1*%
X133049998Y-92649998D03*
X137800000Y-96300000D03*
%TO.N,/PSU/BATT+*%
X142100000Y-129000000D03*
X159900000Y-120500000D03*
%TO.N,Net-(D1-A)*%
X124000000Y-115300000D03*
%TO.N,/PSU/~{CHG}*%
X135321200Y-124421200D03*
X127824265Y-117575735D03*
%TO.N,/SDA1*%
X128125000Y-98300000D03*
X126500000Y-96500000D03*
%TO.N,/PSU/BATT-*%
X151000000Y-126200000D03*
X160500000Y-128600000D03*
%TO.N,Net-(Q1-G)*%
X159400000Y-129300000D03*
X148000000Y-128800000D03*
X151100000Y-124000000D03*
%TO.N,/NRST*%
X126900000Y-111200000D03*
X132780603Y-105480603D03*
%TO.N,Net-(U3-PACK)*%
X146600000Y-129000000D03*
X158600000Y-128700000D03*
%TO.N,Net-(J1-Pin_2)*%
X127700000Y-91900000D03*
%TO.N,Net-(J2-Pin_2)*%
X139200000Y-91600000D03*
%TO.N,/USART1_TX*%
X133800000Y-97200000D03*
%TO.N,/USART1_RX*%
X132800000Y-97300000D03*
%TO.N,/ADC11*%
X136500000Y-106000000D03*
%TO.N,/ADC10{slash}VBATT*%
X137400000Y-109500000D03*
%TO.N,Net-(D3-A)*%
X143000000Y-112300000D03*
%TO.N,/LED*%
X137600000Y-105600000D03*
X146200000Y-109800000D03*
%TO.N,Net-(U1-VREF+)*%
X132400000Y-103100000D03*
%TD*%
D46*
%TO.N,VDD*%
X148397498Y-97669999D02*
X147630001Y-97669999D01*
X147630001Y-97669999D02*
X147175000Y-98125000D01*
X147175000Y-98125000D02*
X147175000Y-98491722D01*
X146866722Y-98800000D02*
X146500000Y-98800000D01*
X147175000Y-98491722D02*
X146866722Y-98800000D01*
X146500000Y-98800000D02*
X146400000Y-98900000D01*
X146400000Y-98900000D02*
X146400000Y-99537499D01*
%TO.N,Net-(U2-SLEEP_N)*%
X148100000Y-99400000D02*
X148100000Y-98962499D01*
X148100000Y-98962499D02*
X148262499Y-98800000D01*
X148262499Y-98800000D02*
X148262499Y-98205000D01*
X148262499Y-98205000D02*
X148397498Y-98070001D01*
%TO.N,/MOTORPWR*%
X151700000Y-99200000D02*
X152437500Y-99937500D01*
X152437500Y-99937500D02*
X154400000Y-99937500D01*
X151700000Y-99200000D02*
X151397498Y-99200000D01*
X151397498Y-99200000D02*
X151062499Y-98865001D01*
%TO.N,VDD*%
X149462500Y-95934999D02*
X148662499Y-95934999D01*
X148397498Y-96469999D02*
X148397498Y-96200000D01*
X148397498Y-96200000D02*
X148662499Y-95934999D01*
X148362498Y-100000000D02*
X149062498Y-99300000D01*
X147648530Y-100000000D02*
X148362498Y-100000000D01*
X130336000Y-103636000D02*
X131137500Y-103636000D01*
X147213896Y-95473287D02*
X147175000Y-95512183D01*
X149462500Y-95400002D02*
X149262498Y-95200000D01*
X129600000Y-102636000D02*
X131137500Y-102636000D01*
X131000000Y-94700000D02*
X130000000Y-95700000D01*
X147175000Y-95512183D02*
X147175000Y-96666722D01*
X146400000Y-99537499D02*
X147186029Y-99537499D01*
X149062498Y-99300000D02*
X149062498Y-98865001D01*
X147213896Y-95023604D02*
X147837500Y-94400000D01*
X147175000Y-96666722D02*
X146616722Y-97225000D01*
X149462500Y-95934999D02*
X149462500Y-95400002D01*
X147213896Y-95473287D02*
X147213896Y-95023604D01*
X148637500Y-95200000D02*
X147837500Y-94400000D01*
X146616722Y-97225000D02*
X145933278Y-97225000D01*
X130000000Y-95700000D02*
X129484448Y-95700000D01*
X145625000Y-98762499D02*
X146400000Y-99537499D01*
X129600000Y-102636000D02*
X129600000Y-102900000D01*
X145933278Y-97225000D02*
X145625000Y-97533278D01*
X129600000Y-102900000D02*
X130336000Y-103636000D01*
X147186029Y-99537499D02*
X147648530Y-100000000D01*
X131975000Y-95675000D02*
X131000000Y-94700000D01*
X145625000Y-97533278D02*
X145625000Y-98762499D01*
X131975000Y-95700000D02*
X131975000Y-95675000D01*
X149262498Y-95200000D02*
X148637500Y-95200000D01*
%TO.N,GND*%
X127850000Y-127700000D02*
X128150000Y-127400000D01*
X126000000Y-127700000D02*
X124800000Y-128900000D01*
X126600000Y-127100000D02*
X126600000Y-127700000D01*
X126600000Y-127700000D02*
X126400000Y-127700000D01*
X128150000Y-125950000D02*
X128150000Y-127400000D01*
X147308278Y-93625000D02*
X146400000Y-94533278D01*
X135000000Y-125600000D02*
X134800000Y-125600000D01*
X134212500Y-126187500D02*
X133212500Y-126187500D01*
X152900000Y-101766723D02*
X152900000Y-101662501D01*
X146400000Y-101262501D02*
X146400000Y-101400000D01*
X148787500Y-93625000D02*
X147308278Y-93625000D01*
X145225000Y-99325000D02*
X145225000Y-100087501D01*
X151766722Y-102900001D02*
X152900000Y-101766723D01*
X149862499Y-94699999D02*
X149562500Y-94400000D01*
X132500000Y-104500000D02*
X132136000Y-104136000D01*
X128949499Y-93600000D02*
X128809350Y-93459851D01*
X126600000Y-127700000D02*
X127850000Y-127700000D01*
X146400000Y-101400000D02*
X147900001Y-102900001D01*
X123800000Y-108900000D02*
X123475000Y-109225000D01*
X145225000Y-97362500D02*
X146400000Y-96187500D01*
X128148344Y-105055193D02*
X126141270Y-105055193D01*
X145225000Y-100087501D02*
X146400000Y-101262501D01*
X132136000Y-104136000D02*
X131137500Y-104136000D01*
X134800000Y-125600000D02*
X134212500Y-126187500D01*
X126400000Y-127700000D02*
X126000000Y-127700000D01*
X149862499Y-95934999D02*
X149862499Y-94699999D01*
X147900001Y-102900001D02*
X151766722Y-102900001D01*
X145225000Y-99325000D02*
X145225000Y-97362500D01*
X126141270Y-105055193D02*
X125952964Y-105243499D01*
X149562500Y-94400000D02*
X148787500Y-93625000D01*
X128647036Y-104556501D02*
X128148344Y-105055193D01*
X128100000Y-125900000D02*
X128150000Y-125950000D01*
X132900000Y-104500000D02*
X132500000Y-104500000D01*
X146400000Y-94533278D02*
X146400000Y-96187500D01*
%TO.N,/MOTORPWR*%
X152125000Y-101237501D02*
X151300000Y-102062501D01*
X152900000Y-99937499D02*
X152125000Y-100712499D01*
D47*
X159600000Y-99975000D02*
X158862500Y-99237500D01*
X159600000Y-109000000D02*
X159600000Y-99975000D01*
X153900000Y-111300000D02*
X157300000Y-111300000D01*
D46*
X154400000Y-99937500D02*
X156400000Y-99937500D01*
D47*
X158862500Y-99237500D02*
X156200000Y-99237500D01*
D48*
X134800000Y-117200000D02*
X134400000Y-117600000D01*
D46*
X152900000Y-100296016D02*
X152900000Y-99937499D01*
D48*
X134400000Y-117600000D02*
X134400000Y-123300000D01*
X134400000Y-123300000D02*
X133900000Y-123800000D01*
D46*
X156400000Y-99937500D02*
X156500000Y-99837500D01*
D47*
X149000000Y-116200000D02*
X153900000Y-111300000D01*
X157300000Y-111300000D02*
X159600000Y-109000000D01*
D46*
X152125000Y-100712499D02*
X152125000Y-101237501D01*
D47*
X136700000Y-116200000D02*
X149000000Y-116200000D01*
D49*
%TO.N,GNDPWR*%
X131312500Y-125687500D02*
X132262500Y-125687500D01*
D46*
X151327500Y-97669999D02*
X150910315Y-97669999D01*
D48*
X124350000Y-127150000D02*
X124350000Y-125500000D01*
D46*
X150640316Y-97400000D02*
X150412498Y-97400000D01*
X150910315Y-97669999D02*
X150640316Y-97400000D01*
%TO.N,Net-(U2-CP)*%
X151300000Y-100337499D02*
X150662500Y-99699999D01*
X150662500Y-99699999D02*
X150662500Y-98865001D01*
%TO.N,/SWC*%
X139426500Y-101100000D02*
X139462500Y-101136000D01*
X137500000Y-101100000D02*
X139426500Y-101100000D01*
%TO.N,/SWD*%
X139412500Y-101686000D02*
X139462500Y-101636000D01*
X138214000Y-101686000D02*
X139412500Y-101686000D01*
X138000000Y-101900000D02*
X138214000Y-101686000D01*
%TO.N,Net-(U1-PF0)*%
X128742774Y-103011184D02*
X127806111Y-103011184D01*
X130367590Y-104636000D02*
X128742774Y-103011184D01*
X127307419Y-103407419D02*
X127237500Y-103337500D01*
X127307418Y-103509876D02*
X127307418Y-101469918D01*
X130367590Y-104636000D02*
X131137500Y-104636000D01*
X127806111Y-103011184D02*
X127307419Y-103509876D01*
X127307418Y-101469918D02*
X127237500Y-101400000D01*
X127307419Y-103509876D02*
X127307419Y-103407419D01*
%TO.N,Net-(U1-PF1)*%
X128703590Y-106800000D02*
X127802457Y-106800000D01*
X127802457Y-106800000D02*
X127292581Y-106290124D01*
X131137500Y-105136000D02*
X130367590Y-105136000D01*
X130367590Y-105136000D02*
X128703590Y-106800000D01*
X127237500Y-106345206D02*
X127292582Y-106290124D01*
X127237500Y-108400000D02*
X127237500Y-106345206D01*
%TO.N,/PSU/LDO 4.9v*%
X131048114Y-126187500D02*
X131312500Y-126187500D01*
X127912500Y-124700000D02*
X128212500Y-124700000D01*
X124287500Y-118412500D02*
X124287500Y-118300000D01*
X129875000Y-127400000D02*
X129875000Y-127360614D01*
X129925000Y-128900000D02*
X129925000Y-127450000D01*
X129012500Y-125500000D02*
X129012500Y-126537500D01*
X124000000Y-118700000D02*
X124287500Y-118412500D01*
X129012500Y-126537500D02*
X129875000Y-127400000D01*
X129875000Y-127360614D02*
X131048114Y-126187500D01*
X128212500Y-124700000D02*
X129012500Y-125500000D01*
X129925000Y-127450000D02*
X129875000Y-127400000D01*
%TO.N,Net-(U2-GAIN)*%
X147542499Y-96870001D02*
X146400000Y-98012500D01*
X148397498Y-96870001D02*
X147542499Y-96870001D01*
%TO.N,/1CSA-B*%
X147600000Y-101200000D02*
X148293869Y-101200000D01*
X149862500Y-99631369D02*
X149862499Y-98865001D01*
X133050000Y-108048500D02*
X133550000Y-108048500D01*
X134000000Y-110000000D02*
X133550000Y-109550000D01*
X148293869Y-101200000D02*
X149862500Y-99631369D01*
X134000000Y-110000000D02*
X134000000Y-110600000D01*
X133550000Y-109550000D02*
X133550000Y-108048500D01*
X134050000Y-108048500D02*
X133550000Y-108048500D01*
X134000000Y-110600000D02*
X135800000Y-112400000D01*
%TO.N,/1A*%
X147075000Y-93225000D02*
X149825000Y-93225000D01*
X137000000Y-110200000D02*
X140200000Y-110200000D01*
X136050000Y-109250000D02*
X137000000Y-110200000D01*
X136050000Y-108048500D02*
X136050000Y-109250000D01*
X150262498Y-95257844D02*
X150262498Y-95934999D01*
X149825000Y-93225000D02*
X150500000Y-93900000D01*
X150500000Y-95020342D02*
X150262498Y-95257844D01*
X144800000Y-105600000D02*
X144800000Y-95500000D01*
X150500000Y-93900000D02*
X150500000Y-95020342D01*
X139462500Y-106136000D02*
X139462500Y-105636000D01*
X144800000Y-95500000D02*
X147075000Y-93225000D01*
X139462500Y-106136000D02*
X144264000Y-106136000D01*
X140200000Y-110200000D02*
X144800000Y-105600000D01*
%TO.N,/1CSA-A*%
X132700000Y-110000000D02*
X132700000Y-109400000D01*
X131137500Y-106136000D02*
X131137500Y-106636000D01*
X148300000Y-101900000D02*
X150262498Y-99937502D01*
X131137500Y-106636000D02*
X132550000Y-108048500D01*
X150262498Y-99937502D02*
X150262498Y-98865001D01*
X132700000Y-110000000D02*
X133200000Y-110500000D01*
X133200000Y-110500000D02*
X133200000Y-112400000D01*
X132550000Y-109250000D02*
X132550000Y-108048500D01*
X132700000Y-109400000D02*
X132550000Y-109250000D01*
X148200000Y-101900000D02*
X148300000Y-101900000D01*
%TO.N,/1CSA-C*%
X147200000Y-100400000D02*
X148528184Y-100400000D01*
X134550000Y-108048500D02*
X135050000Y-108048500D01*
X135050000Y-108048500D02*
X135550000Y-108048500D01*
X135300000Y-109900000D02*
X137800000Y-112400000D01*
X149462500Y-99465684D02*
X149462500Y-98865001D01*
X137800000Y-112400000D02*
X138400000Y-112400000D01*
X135300000Y-109800000D02*
X135300000Y-109900000D01*
X135300000Y-109800000D02*
X135050000Y-109550000D01*
X148528184Y-100400000D02*
X149462500Y-99465684D01*
X135050000Y-109550000D02*
X135050000Y-108048500D01*
%TO.N,/1C*%
X144000000Y-101500000D02*
X142364000Y-103136000D01*
X144000000Y-95168628D02*
X144000000Y-96800000D01*
X139462500Y-103636000D02*
X139462500Y-102636000D01*
X151300000Y-95697498D02*
X151300000Y-93568628D01*
X142364000Y-103136000D02*
X139462500Y-103136000D01*
X151300000Y-93568628D02*
X150156372Y-92425000D01*
X151062499Y-95934999D02*
X151300000Y-95697498D01*
X144000000Y-96800000D02*
X144000000Y-101500000D01*
X146743628Y-92425000D02*
X144000000Y-95168628D01*
X150156372Y-92425000D02*
X146743628Y-92425000D01*
%TO.N,/CS1*%
X136550000Y-97550000D02*
X136550000Y-99723500D01*
X135100000Y-93600000D02*
X135100000Y-93700000D01*
X134149998Y-92649998D02*
X135100000Y-93600000D01*
X133625000Y-95175000D02*
X133625000Y-95700000D01*
X135100000Y-93700000D02*
X133625000Y-95175000D01*
X137800000Y-96300000D02*
X136550000Y-97550000D01*
X133049998Y-92649998D02*
X134149998Y-92649998D01*
%TO.N,/1B*%
X144400000Y-95334314D02*
X144400000Y-104100000D01*
X150900000Y-95186028D02*
X150900000Y-93734314D01*
X150662500Y-95423528D02*
X150900000Y-95186028D01*
X146909314Y-92825000D02*
X144400000Y-95334314D01*
X143364000Y-105136000D02*
X139462500Y-105136000D01*
X139462500Y-105136000D02*
X139462500Y-104136000D01*
X149990686Y-92825000D02*
X146909314Y-92825000D01*
X150662500Y-95934999D02*
X150662500Y-95423528D01*
X150900000Y-93734314D02*
X149990686Y-92825000D01*
X144400000Y-104100000D02*
X143364000Y-105136000D01*
%TO.N,/PSU/BATT+*%
X159900000Y-120500000D02*
X158900000Y-121500000D01*
X158900000Y-121500000D02*
X158900000Y-124400000D01*
D48*
%TO.N,/PSU/IN*%
X126112500Y-123000000D02*
X125212500Y-122100000D01*
X130400000Y-123900000D02*
X128600000Y-122100000D01*
X128600000Y-122100000D02*
X125212500Y-122100000D01*
X126112500Y-125437500D02*
X126112500Y-123000000D01*
D46*
%TO.N,Net-(D1-A)*%
X124000000Y-116100000D02*
X124300000Y-116400000D01*
X124000000Y-115300000D02*
X124000000Y-116100000D01*
%TO.N,/PSU/~{CHG}*%
X126100000Y-116450000D02*
X126050000Y-116400000D01*
X134054900Y-125687500D02*
X133212500Y-125687500D01*
X127100000Y-118300000D02*
X126112500Y-118300000D01*
X126112500Y-118300000D02*
X126100000Y-118287500D01*
X135321200Y-124421200D02*
X134054900Y-125687500D01*
X126100000Y-118287500D02*
X126100000Y-116450000D01*
X127824265Y-117575735D02*
X127100000Y-118300000D01*
%TO.N,/SDA1*%
X126500000Y-96500000D02*
X126600000Y-96500000D01*
X132100000Y-98300000D02*
X132550000Y-98750000D01*
X132550000Y-98750000D02*
X132550000Y-99723500D01*
X128125000Y-98300000D02*
X132100000Y-98300000D01*
X126600000Y-96500000D02*
X126800000Y-96300000D01*
X126800000Y-96300000D02*
X126800000Y-93469202D01*
X126800000Y-93469202D02*
X126809351Y-93459851D01*
%TO.N,/SCL1*%
X133050000Y-98650000D02*
X133050000Y-99723500D01*
X131700000Y-97300000D02*
X133050000Y-98650000D01*
X127700000Y-97300000D02*
X131700000Y-97300000D01*
X126300000Y-97300000D02*
X127700000Y-97300000D01*
X125809350Y-93459851D02*
X125809350Y-96809350D01*
X125809350Y-96809350D02*
X126300000Y-97300000D01*
X127875000Y-95700000D02*
X127875000Y-97125000D01*
X127875000Y-97125000D02*
X127700000Y-97300000D01*
%TO.N,Net-(Q1-G)*%
X148005000Y-128805000D02*
X149925000Y-128805000D01*
X151100000Y-124000000D02*
X150955000Y-124000000D01*
X148000000Y-128800000D02*
X148005000Y-128805000D01*
X150955000Y-124000000D02*
X149925000Y-122970000D01*
D48*
%TO.N,/PSU/Pack+*%
X137187500Y-127012500D02*
X134500000Y-127012500D01*
D46*
%TO.N,/NRST*%
X132664000Y-105636000D02*
X131137500Y-105636000D01*
X132780603Y-105519397D02*
X132664000Y-105636000D01*
X126900000Y-111200000D02*
X128950000Y-111200000D01*
X132780603Y-105480603D02*
X132780603Y-105519397D01*
X124850000Y-111200000D02*
X128950000Y-111200000D01*
%TO.N,/MOSI1*%
X134550000Y-99723500D02*
X134550000Y-96750000D01*
X134550000Y-96750000D02*
X136100000Y-95200000D01*
X136100000Y-95200000D02*
X136100000Y-93600000D01*
%TO.N,/MISO1*%
X135050000Y-99723500D02*
X135050000Y-96950000D01*
X135050000Y-96950000D02*
X137100000Y-94900000D01*
X137100000Y-94900000D02*
X137100000Y-93600000D01*
%TO.N,/SCK1*%
X135550000Y-97250000D02*
X138100000Y-94700000D01*
X135550000Y-99723500D02*
X135550000Y-97250000D01*
X138100000Y-94700000D02*
X138100000Y-93600000D01*
%TO.N,Net-(Q3-G)*%
X141645000Y-120100000D02*
X142720000Y-119025000D01*
X136890000Y-119390000D02*
X137600000Y-120100000D01*
X135700000Y-123193870D02*
X135700000Y-120215000D01*
X137600000Y-120100000D02*
X141645000Y-120100000D01*
X135700000Y-120215000D02*
X136890000Y-119025000D01*
X136890000Y-119025000D02*
X136890000Y-119390000D01*
X133706370Y-125187500D02*
X135700000Y-123193870D01*
X133212500Y-125187500D02*
X133706370Y-125187500D01*
%TO.N,Net-(U3-PACK)*%
X146600000Y-129000000D02*
X146400000Y-129200000D01*
X146400000Y-129200000D02*
X145512500Y-129200000D01*
%TO.N,Net-(U4-TS)*%
X128100000Y-128900000D02*
X128875000Y-129675000D01*
X131312500Y-128766722D02*
X131312500Y-126687500D01*
X126625000Y-128900000D02*
X128100000Y-128900000D01*
X130404222Y-129675000D02*
X131312500Y-128766722D01*
X128875000Y-129675000D02*
X130404222Y-129675000D01*
%TO.N,Net-(U4-ISET)*%
X129925000Y-125900000D02*
X130637500Y-125187500D01*
X130637500Y-125187500D02*
X131312500Y-125187500D01*
%TO.N,Net-(J1-Pin_2)*%
X127700000Y-91900000D02*
X127700000Y-93500000D01*
X127700000Y-93500000D02*
X127800000Y-93600000D01*
%TO.N,Net-(J2-Pin_2)*%
X139200000Y-91600000D02*
X139100000Y-91700000D01*
X139100000Y-91700000D02*
X139100000Y-93600000D01*
%TO.N,/USART1_TX*%
X133800000Y-97200000D02*
X134050000Y-97450000D01*
X134050000Y-97450000D02*
X134050000Y-99723500D01*
%TO.N,/USART1_RX*%
X132800000Y-97300000D02*
X133550000Y-98050000D01*
X133550000Y-98050000D02*
X133550000Y-99723500D01*
%TO.N,/ADC11*%
X136500000Y-106000000D02*
X137050000Y-106550000D01*
X137050000Y-106550000D02*
X137050000Y-108048500D01*
%TO.N,/ADC10{slash}VBATT*%
X136550000Y-108818410D02*
X136550000Y-108048500D01*
X137400000Y-109500000D02*
X137231590Y-109500000D01*
X137231590Y-109500000D02*
X136550000Y-108818410D01*
%TO.N,Net-(D3-A)*%
X143000000Y-112300000D02*
X143925000Y-112300000D01*
X143925000Y-112300000D02*
X144325000Y-111900000D01*
%TO.N,/LED*%
X138050000Y-106050000D02*
X137600000Y-105600000D01*
X138050000Y-108048500D02*
X138050000Y-106050000D01*
%TO.N,Net-(U1-VREF+)*%
X132364000Y-103136000D02*
X131137500Y-103136000D01*
X132400000Y-103100000D02*
X132364000Y-103136000D01*
%TD*%
%TA.AperFunction,Conductor*%
%TO.N,Net-(J3-Pin_2)*%
G36*
X153511152Y-95682352D02*
G01*
X153512185Y-95684524D01*
X153795629Y-96487618D01*
X153795160Y-96496407D01*
X153788612Y-96502289D01*
X153787149Y-96502699D01*
X151566056Y-96969254D01*
X151563692Y-96969500D01*
X151339000Y-96969500D01*
X151330868Y-96966132D01*
X151327500Y-96958000D01*
X151327500Y-96786501D01*
X151330868Y-96778369D01*
X151339000Y-96775001D01*
X151560462Y-96775001D01*
X151560468Y-96775001D01*
X151611395Y-96768591D01*
X151616915Y-96767179D01*
X151634253Y-96760340D01*
X151636227Y-96759761D01*
X151640731Y-96758866D01*
X151643648Y-96756916D01*
X151645816Y-96755782D01*
X151664648Y-96748356D01*
X151664648Y-96748355D01*
X151664658Y-96748352D01*
X152026555Y-96550262D01*
X152026555Y-96550261D01*
X153275695Y-95866520D01*
X153312715Y-95840590D01*
X153316490Y-95837271D01*
X153346936Y-95803889D01*
X153365374Y-95778560D01*
X153366856Y-95776897D01*
X153429630Y-95718979D01*
X153431411Y-95717634D01*
X153495344Y-95678539D01*
X153504036Y-95677171D01*
X153511152Y-95682352D01*
G37*
%TD.AperFunction*%
%TD*%
%TA.AperFunction,Conductor*%
%TO.N,/PSU/Pack+*%
G36*
X134500000Y-126987500D02*
G01*
X134425002Y-126987500D01*
X134425001Y-126987501D01*
X134425001Y-127086654D01*
X134435317Y-127187646D01*
X134435319Y-127187652D01*
X134489543Y-127351295D01*
X134489546Y-127351301D01*
X134498288Y-127365473D01*
X134500000Y-127371510D01*
X134500000Y-127488500D01*
X134496632Y-127496632D01*
X134488500Y-127500000D01*
X134304116Y-127500000D01*
X134296819Y-127497389D01*
X134285991Y-127488500D01*
X133462500Y-126812500D01*
X133462499Y-126812500D01*
X132974000Y-126812500D01*
X132965868Y-126809132D01*
X132962500Y-126801000D01*
X132962500Y-126574000D01*
X132965868Y-126565868D01*
X132974000Y-126562500D01*
X133462510Y-126562500D01*
X133941410Y-126533650D01*
X134500000Y-126500000D01*
X134500000Y-126987500D01*
G37*
%TD.AperFunction*%
%TD*%
%TA.AperFunction,Conductor*%
%TO.N,Net-(J3-Pin_1)*%
G36*
X154188211Y-96705522D02*
G01*
X154192954Y-96712936D01*
X154192309Y-96719225D01*
X153803372Y-97691569D01*
X153797225Y-97697868D01*
X153791017Y-97698675D01*
X151643657Y-97381968D01*
X151640943Y-97381219D01*
X151640735Y-97381133D01*
X151640731Y-97381132D01*
X151582248Y-97369499D01*
X151582246Y-97369499D01*
X151104000Y-97369499D01*
X151095868Y-97366131D01*
X151092500Y-97357999D01*
X151092500Y-97182001D01*
X151095868Y-97173869D01*
X151104000Y-97170501D01*
X151315248Y-97170501D01*
X151317491Y-97170722D01*
X151339000Y-97175000D01*
X151339001Y-97175000D01*
X151563678Y-97175000D01*
X151563692Y-97175000D01*
X151584962Y-97173896D01*
X151584979Y-97173894D01*
X151584982Y-97173894D01*
X151585307Y-97173860D01*
X151587326Y-97173650D01*
X151608301Y-97170365D01*
X151608320Y-97170360D01*
X151608326Y-97170360D01*
X151646238Y-97162396D01*
X151875913Y-97114151D01*
X151876014Y-97114131D01*
X154179615Y-96703632D01*
X154188211Y-96705522D01*
G37*
%TD.AperFunction*%
%TD*%
%TA.AperFunction,Conductor*%
%TO.N,/PSU/IN*%
G36*
X130807135Y-123609128D02*
G01*
X130808011Y-123610112D01*
X131560014Y-124559362D01*
X131562500Y-124566502D01*
X131562500Y-124801000D01*
X131559132Y-124809132D01*
X131551000Y-124812500D01*
X131065372Y-124812500D01*
X131059967Y-124811151D01*
X130592988Y-124562500D01*
X130113708Y-124307299D01*
X130108115Y-124300505D01*
X130108963Y-124291744D01*
X130110979Y-124289020D01*
X130790872Y-123609127D01*
X130799003Y-123605760D01*
X130807135Y-123609128D01*
G37*
%TD.AperFunction*%
%TD*%
%TA.AperFunction,Conductor*%
%TO.N,/MOTORPWR*%
G36*
X135787398Y-115267078D02*
G01*
X135798310Y-115270255D01*
X135834430Y-115280771D01*
X135861290Y-115292166D01*
X135953848Y-115345056D01*
X136588652Y-115707801D01*
X136564948Y-117604123D01*
X136338750Y-117630735D01*
X136338749Y-117630735D01*
X134991145Y-117789276D01*
X134967609Y-117789794D01*
X134927808Y-117786882D01*
X134882548Y-117774687D01*
X134846665Y-117757206D01*
X134826578Y-117744933D01*
X134590060Y-117567545D01*
X134275038Y-117331278D01*
X134256800Y-117314503D01*
X134228918Y-117283161D01*
X134204120Y-117240524D01*
X134194742Y-117212831D01*
X134188530Y-117163899D01*
X134190691Y-117134742D01*
X134204049Y-117087260D01*
X134223215Y-117049944D01*
X134236682Y-117029146D01*
X135583959Y-115345051D01*
X135604728Y-115324582D01*
X135643430Y-115294533D01*
X135696236Y-115270678D01*
X135729510Y-115264332D01*
X135787398Y-115267078D01*
G37*
%TD.AperFunction*%
%TD*%
%TA.AperFunction,Conductor*%
%TO.N,/PSU/Pack+*%
G36*
X150311971Y-118812381D02*
G01*
X150352346Y-118820412D01*
X150397043Y-118838927D01*
X150420913Y-118854877D01*
X150455122Y-118889086D01*
X150471072Y-118912956D01*
X150489588Y-118957655D01*
X150497617Y-118998022D01*
X150500000Y-119022210D01*
X150500000Y-121895722D01*
X150480315Y-121962761D01*
X150427511Y-122008516D01*
X150372031Y-122018970D01*
X150372031Y-122019500D01*
X150369224Y-122019500D01*
X150369075Y-122019528D01*
X150368574Y-122019500D01*
X150368552Y-122019500D01*
X149481448Y-122019500D01*
X149481441Y-122019500D01*
X149351351Y-122034157D01*
X149351341Y-122034159D01*
X149186395Y-122091877D01*
X149038423Y-122184853D01*
X148914853Y-122308423D01*
X148821877Y-122456395D01*
X148764159Y-122621341D01*
X148764157Y-122621351D01*
X148749500Y-122751441D01*
X148749500Y-123188558D01*
X148764157Y-123318648D01*
X148764159Y-123318658D01*
X148821877Y-123483604D01*
X148821878Y-123483606D01*
X148914853Y-123631576D01*
X149038424Y-123755147D01*
X149186394Y-123848122D01*
X149351343Y-123905841D01*
X149351349Y-123905841D01*
X149351351Y-123905842D01*
X149392750Y-123910506D01*
X149481442Y-123920499D01*
X149481445Y-123920500D01*
X149481448Y-123920500D01*
X149833481Y-123920500D01*
X149900520Y-123940185D01*
X149921162Y-123956819D01*
X150222984Y-124258641D01*
X150253234Y-124308003D01*
X150272819Y-124368280D01*
X150272821Y-124368284D01*
X150367467Y-124532216D01*
X150468150Y-124644035D01*
X150498380Y-124707026D01*
X150500000Y-124727007D01*
X150500000Y-125387010D01*
X150480315Y-125454049D01*
X150448887Y-125487327D01*
X150394128Y-125527112D01*
X150394123Y-125527116D01*
X150267466Y-125667785D01*
X150172821Y-125831715D01*
X150172818Y-125831722D01*
X150114327Y-126011740D01*
X150114326Y-126011744D01*
X150094540Y-126200000D01*
X150114326Y-126388256D01*
X150114327Y-126388259D01*
X150172818Y-126568277D01*
X150172821Y-126568284D01*
X150267467Y-126732216D01*
X150394129Y-126872888D01*
X150448885Y-126912670D01*
X150491551Y-126967999D01*
X150500000Y-127012988D01*
X150500000Y-127730722D01*
X150480315Y-127797761D01*
X150427511Y-127843516D01*
X150372031Y-127853970D01*
X150372031Y-127854500D01*
X150369224Y-127854500D01*
X150369075Y-127854528D01*
X150368574Y-127854500D01*
X150368552Y-127854500D01*
X149481448Y-127854500D01*
X149481441Y-127854500D01*
X149351351Y-127869157D01*
X149351341Y-127869159D01*
X149186395Y-127926877D01*
X149038423Y-128019853D01*
X148990096Y-128068181D01*
X148928773Y-128101666D01*
X148902415Y-128104500D01*
X148615038Y-128104500D01*
X148547999Y-128084815D01*
X148542153Y-128080818D01*
X148452734Y-128015851D01*
X148452729Y-128015848D01*
X148279807Y-127938857D01*
X148279802Y-127938855D01*
X148134001Y-127907865D01*
X148094646Y-127899500D01*
X147905354Y-127899500D01*
X147872897Y-127906398D01*
X147720197Y-127938855D01*
X147720192Y-127938857D01*
X147547270Y-128015848D01*
X147547265Y-128015851D01*
X147394132Y-128127109D01*
X147394129Y-128127111D01*
X147394129Y-128127112D01*
X147354372Y-128171267D01*
X147285522Y-128247732D01*
X147226035Y-128284380D01*
X147156178Y-128283049D01*
X147120488Y-128265078D01*
X147052730Y-128215849D01*
X147052729Y-128215848D01*
X146879807Y-128138857D01*
X146879802Y-128138855D01*
X146704836Y-128101666D01*
X146694646Y-128099500D01*
X146505354Y-128099500D01*
X146495164Y-128101666D01*
X146320197Y-128138855D01*
X146198340Y-128193110D01*
X146129090Y-128202394D01*
X146092812Y-128190919D01*
X146087473Y-128188271D01*
X146053185Y-128171266D01*
X145876299Y-128127276D01*
X145876303Y-128127276D01*
X145849006Y-128125425D01*
X145835361Y-128124500D01*
X145835358Y-128124500D01*
X145189640Y-128124500D01*
X145189636Y-128124501D01*
X145148705Y-128127275D01*
X145148704Y-128127275D01*
X144971813Y-128171266D01*
X144971812Y-128171267D01*
X144808522Y-128252250D01*
X144808520Y-128252252D01*
X144666451Y-128366450D01*
X144666449Y-128366452D01*
X144627371Y-128415067D01*
X144570027Y-128454986D01*
X144500205Y-128457564D01*
X144443045Y-128425061D01*
X144398038Y-128380055D01*
X144398034Y-128380052D01*
X144251311Y-128289551D01*
X144251300Y-128289546D01*
X144087652Y-128235319D01*
X143986654Y-128225000D01*
X143937500Y-128225000D01*
X143937500Y-129326000D01*
X143917815Y-129393039D01*
X143865011Y-129438794D01*
X143813500Y-129450000D01*
X143561500Y-129450000D01*
X143494461Y-129430315D01*
X143448706Y-129377511D01*
X143437500Y-129326000D01*
X143437500Y-128225000D01*
X143437499Y-128224999D01*
X143388361Y-128225000D01*
X143388343Y-128225001D01*
X143287347Y-128235319D01*
X143123699Y-128289546D01*
X143123688Y-128289551D01*
X142976965Y-128380052D01*
X142951792Y-128405225D01*
X142890468Y-128438709D01*
X142820777Y-128433723D01*
X142771963Y-128400515D01*
X142705871Y-128327112D01*
X142705870Y-128327111D01*
X142552734Y-128215851D01*
X142552729Y-128215848D01*
X142379807Y-128138857D01*
X142379802Y-128138855D01*
X142204836Y-128101666D01*
X142194646Y-128099500D01*
X142005354Y-128099500D01*
X141995164Y-128101666D01*
X141820197Y-128138855D01*
X141820192Y-128138857D01*
X141647270Y-128215848D01*
X141647265Y-128215851D01*
X141494129Y-128327111D01*
X141367466Y-128467785D01*
X141272821Y-128631715D01*
X141272818Y-128631722D01*
X141214327Y-128811740D01*
X141214326Y-128811744D01*
X141194540Y-129000000D01*
X141214326Y-129188256D01*
X141214327Y-129188259D01*
X141272818Y-129368277D01*
X141272821Y-129368284D01*
X141367467Y-129532216D01*
X141480118Y-129657327D01*
X141494128Y-129672887D01*
X141497976Y-129675683D01*
X141540641Y-129731014D01*
X141546619Y-129800628D01*
X141514012Y-129862422D01*
X141453172Y-129896778D01*
X141425089Y-129900000D01*
X136614233Y-129900000D01*
X136589898Y-129897588D01*
X136557644Y-129891132D01*
X136549296Y-129889461D01*
X136504374Y-129870726D01*
X136480425Y-129854597D01*
X136446179Y-129820019D01*
X136430280Y-129795911D01*
X136411982Y-129750812D01*
X136404247Y-129710127D01*
X136402072Y-129685784D01*
X136407510Y-129123844D01*
X136420416Y-129069955D01*
X136428734Y-129053185D01*
X136472724Y-128876297D01*
X136475500Y-128835361D01*
X136475499Y-128089640D01*
X136472724Y-128048703D01*
X136428734Y-127871815D01*
X136428733Y-127871812D01*
X136427683Y-127868955D01*
X136420080Y-127824993D01*
X136444825Y-125267957D01*
X136444963Y-125263221D01*
X136445370Y-125254846D01*
X136446207Y-125245292D01*
X136447263Y-125236972D01*
X136447946Y-125232319D01*
X136692279Y-123766327D01*
X136692279Y-123766323D01*
X136695000Y-123750000D01*
X136695000Y-120862210D01*
X136697381Y-120838029D01*
X136705412Y-120797651D01*
X136723927Y-120752956D01*
X136739877Y-120729086D01*
X136774086Y-120694877D01*
X136797956Y-120678927D01*
X136842653Y-120660412D01*
X136883027Y-120652381D01*
X136907211Y-120650000D01*
X137124652Y-120650000D01*
X137191691Y-120669685D01*
X137193509Y-120670875D01*
X137268189Y-120720775D01*
X137268190Y-120720775D01*
X137268191Y-120720776D01*
X137345881Y-120752956D01*
X137395672Y-120773580D01*
X137395676Y-120773580D01*
X137395677Y-120773581D01*
X137531003Y-120800500D01*
X137531006Y-120800500D01*
X141713996Y-120800500D01*
X141805040Y-120782389D01*
X141849328Y-120773580D01*
X141976811Y-120720775D01*
X142051458Y-120670897D01*
X142118135Y-120650020D01*
X142120348Y-120650000D01*
X146661883Y-120650000D01*
X146661885Y-120650000D01*
X146725000Y-120650000D01*
X149173864Y-118933463D01*
X149290549Y-118851672D01*
X149306813Y-118842033D01*
X149335806Y-118827722D01*
X149371798Y-118816364D01*
X149403739Y-118811444D01*
X149422607Y-118810000D01*
X150287789Y-118810000D01*
X150311971Y-118812381D01*
G37*
%TD.AperFunction*%
%TD*%
%TA.AperFunction,Conductor*%
%TO.N,/PSU/BATT+*%
G36*
X156091625Y-118716683D02*
G01*
X156115108Y-118720591D01*
X156125944Y-118722395D01*
X156164473Y-118735588D01*
X156195091Y-118752111D01*
X156212209Y-118763261D01*
X160811387Y-122331255D01*
X160831546Y-122350947D01*
X160861465Y-122387701D01*
X160886097Y-122437984D01*
X160896798Y-122484156D01*
X160900000Y-122512151D01*
X160900000Y-126270700D01*
X160895908Y-126302291D01*
X160882360Y-126353715D01*
X160851232Y-126408693D01*
X160814110Y-126446763D01*
X160789130Y-126466521D01*
X158596949Y-127781830D01*
X158533156Y-127799500D01*
X158505354Y-127799500D01*
X158472897Y-127806398D01*
X158320197Y-127838855D01*
X158320192Y-127838857D01*
X158147270Y-127915848D01*
X158147265Y-127915851D01*
X157994129Y-128027111D01*
X157867469Y-128167781D01*
X157867465Y-128167786D01*
X157837820Y-128219132D01*
X157794232Y-128263459D01*
X156204692Y-129217184D01*
X156189790Y-129224807D01*
X156163479Y-129236096D01*
X156131289Y-129245013D01*
X156102914Y-129248870D01*
X156086214Y-129250000D01*
X154659307Y-129250000D01*
X154656817Y-129249975D01*
X154654439Y-129249927D01*
X154652496Y-129249888D01*
X154647509Y-129249686D01*
X154643197Y-129249425D01*
X154640721Y-129249251D01*
X153815184Y-129182675D01*
X151749347Y-129016076D01*
X151719271Y-129009832D01*
X151670617Y-128993228D01*
X151619529Y-128959957D01*
X151595500Y-128933912D01*
X151566443Y-128880315D01*
X151553804Y-128830480D01*
X151550000Y-128800002D01*
X151550000Y-126976661D01*
X151569685Y-126909622D01*
X151601117Y-126876341D01*
X151605871Y-126872888D01*
X151732533Y-126732216D01*
X151827179Y-126568284D01*
X151885674Y-126388256D01*
X151905460Y-126200000D01*
X151885674Y-126011744D01*
X151827179Y-125831716D01*
X151732533Y-125667784D01*
X151682922Y-125612686D01*
X151605876Y-125527116D01*
X151605869Y-125527110D01*
X151601112Y-125523654D01*
X151558448Y-125468323D01*
X151550000Y-125423338D01*
X151550000Y-124849315D01*
X151569685Y-124782276D01*
X151601113Y-124748998D01*
X151705871Y-124672888D01*
X151832533Y-124532216D01*
X151927179Y-124368284D01*
X151985674Y-124188256D01*
X152005460Y-124000000D01*
X151985674Y-123811744D01*
X151927179Y-123631716D01*
X151832533Y-123467784D01*
X151705871Y-123327112D01*
X151705870Y-123327111D01*
X151601115Y-123251002D01*
X151558449Y-123195672D01*
X151550000Y-123150684D01*
X151550000Y-119164997D01*
X151553804Y-119134520D01*
X151566444Y-119084682D01*
X151595498Y-119031089D01*
X151619531Y-119005040D01*
X151670617Y-118971771D01*
X151719271Y-118955167D01*
X151749347Y-118948922D01*
X154051557Y-118763261D01*
X154640721Y-118715748D01*
X154643197Y-118715574D01*
X154647509Y-118715313D01*
X154652510Y-118715111D01*
X154654256Y-118715076D01*
X154656831Y-118715025D01*
X154659307Y-118715000D01*
X156071266Y-118715000D01*
X156091625Y-118716683D01*
G37*
%TD.AperFunction*%
%TD*%
%TA.AperFunction,Conductor*%
%TO.N,/MOTORPWR*%
G36*
X148262237Y-114802865D02*
G01*
X148306158Y-114812476D01*
X148354324Y-114834614D01*
X148379264Y-114853426D01*
X148413782Y-114893655D01*
X148435091Y-114933250D01*
X148445126Y-114957941D01*
X149039677Y-117038870D01*
X149161634Y-117465719D01*
X149165918Y-117488800D01*
X149169444Y-117528448D01*
X149164734Y-117574954D01*
X149156772Y-117601583D01*
X149135184Y-117643037D01*
X149110478Y-117674239D01*
X149094228Y-117691182D01*
X146944654Y-119544263D01*
X146926761Y-119557105D01*
X146894541Y-119576140D01*
X146853407Y-119591423D01*
X146816574Y-119598044D01*
X146794636Y-119600000D01*
X143794277Y-119600000D01*
X143727238Y-119580315D01*
X143681483Y-119527511D01*
X143671035Y-119472031D01*
X143670500Y-119472031D01*
X143670500Y-119469192D01*
X143670472Y-119469044D01*
X143670500Y-119468545D01*
X143670500Y-118581445D01*
X143670499Y-118581441D01*
X143655842Y-118451351D01*
X143655841Y-118451349D01*
X143655841Y-118451343D01*
X143598122Y-118286394D01*
X143505147Y-118138424D01*
X143381576Y-118014853D01*
X143233606Y-117921878D01*
X143233605Y-117921877D01*
X143233604Y-117921877D01*
X143068658Y-117864159D01*
X143068648Y-117864157D01*
X142938558Y-117849500D01*
X142938552Y-117849500D01*
X142501448Y-117849500D01*
X142501441Y-117849500D01*
X142371351Y-117864157D01*
X142371341Y-117864159D01*
X142206395Y-117921877D01*
X142058423Y-118014853D01*
X141934853Y-118138423D01*
X141841877Y-118286395D01*
X141784159Y-118451341D01*
X141784157Y-118451351D01*
X141769500Y-118581441D01*
X141769500Y-118933481D01*
X141749815Y-119000520D01*
X141733181Y-119021162D01*
X141391162Y-119363181D01*
X141329839Y-119396666D01*
X141303481Y-119399500D01*
X137964500Y-119399500D01*
X137897461Y-119379815D01*
X137851706Y-119327011D01*
X137840500Y-119275500D01*
X137840500Y-118581445D01*
X137840499Y-118581441D01*
X137825842Y-118451351D01*
X137825841Y-118451349D01*
X137825841Y-118451343D01*
X137768122Y-118286394D01*
X137675147Y-118138424D01*
X137551576Y-118014853D01*
X137403606Y-117921878D01*
X137403605Y-117921877D01*
X137403604Y-117921877D01*
X137238658Y-117864159D01*
X137238648Y-117864157D01*
X137108558Y-117849500D01*
X137108552Y-117849500D01*
X136671448Y-117849500D01*
X136667969Y-117849500D01*
X136667969Y-117847962D01*
X136605904Y-117833416D01*
X136562640Y-117788742D01*
X136597328Y-115013689D01*
X136601883Y-114981907D01*
X136616291Y-114930292D01*
X136648593Y-114875408D01*
X136654307Y-114869765D01*
X136674795Y-114849530D01*
X136730079Y-114817919D01*
X136781870Y-114804157D01*
X136813708Y-114800000D01*
X148235733Y-114800000D01*
X148262237Y-114802865D01*
G37*
%TD.AperFunction*%
%TD*%
%TA.AperFunction,Conductor*%
%TO.N,Net-(J3-Pin_3)*%
G36*
X153107483Y-94708749D02*
G01*
X153107844Y-94709151D01*
X153690772Y-95389234D01*
X153693507Y-95397600D01*
X153689525Y-95405449D01*
X153687563Y-95406806D01*
X153659467Y-95422185D01*
X153655733Y-95423457D01*
X153535562Y-95442374D01*
X153535559Y-95442374D01*
X153415301Y-95486611D01*
X153305984Y-95553458D01*
X153305982Y-95553459D01*
X153211807Y-95640348D01*
X153180800Y-95682939D01*
X153177025Y-95686258D01*
X151927885Y-96369999D01*
X151565988Y-96568089D01*
X151560468Y-96569501D01*
X151339000Y-96569501D01*
X151330868Y-96566133D01*
X151327500Y-96558001D01*
X151327500Y-96374963D01*
X151330868Y-96366831D01*
X151331074Y-96366630D01*
X153091228Y-94708264D01*
X153099455Y-94705140D01*
X153107483Y-94708749D01*
G37*
%TD.AperFunction*%
%TD*%
%TA.AperFunction,Conductor*%
%TO.N,/MOTORPWR*%
G36*
X156196508Y-97903421D02*
G01*
X156199999Y-97911501D01*
X156200000Y-97911675D01*
X156200000Y-100594982D01*
X156196632Y-100603114D01*
X156188500Y-100606482D01*
X156183758Y-100605459D01*
X151097030Y-98303092D01*
X151091011Y-98296670D01*
X151090273Y-98292500D01*
X151092500Y-98070059D01*
X151092500Y-97981999D01*
X151095868Y-97973867D01*
X151104000Y-97970499D01*
X151582243Y-97970499D01*
X151582248Y-97970499D01*
X151585562Y-97969839D01*
X151587613Y-97969621D01*
X156188326Y-97900176D01*
X156196508Y-97903421D01*
G37*
%TD.AperFunction*%
%TD*%
%TA.AperFunction,Conductor*%
%TO.N,/MOTORPWR*%
G36*
X133508285Y-123509096D02*
G01*
X133511226Y-123511226D01*
X134191080Y-124191080D01*
X134194448Y-124199212D01*
X134191080Y-124207344D01*
X134190295Y-124208059D01*
X133465694Y-124809847D01*
X133458347Y-124812500D01*
X132974000Y-124812500D01*
X132965868Y-124809132D01*
X132962500Y-124801000D01*
X132962500Y-124565243D01*
X132963738Y-124560052D01*
X133141805Y-124208059D01*
X133492834Y-123514165D01*
X133499509Y-123508431D01*
X133508285Y-123509096D01*
G37*
%TD.AperFunction*%
%TD*%
%TA.AperFunction,Conductor*%
%TO.N,GNDPWR*%
G36*
X125283018Y-113919685D02*
G01*
X125323017Y-113961400D01*
X125361712Y-114027563D01*
X125361717Y-114027571D01*
X125407473Y-114080376D01*
X125407483Y-114080387D01*
X125452199Y-114122548D01*
X125452201Y-114122549D01*
X125452205Y-114122553D01*
X125552281Y-114173439D01*
X125619320Y-114193124D01*
X125705392Y-114205500D01*
X125705395Y-114205500D01*
X128094609Y-114205500D01*
X128096649Y-114205390D01*
X128127268Y-114203749D01*
X128153625Y-114200915D01*
X128160625Y-114200081D01*
X128267373Y-114165299D01*
X128328696Y-114131815D01*
X128379420Y-114097069D01*
X128450417Y-114010096D01*
X128475275Y-113964572D01*
X128524681Y-113915168D01*
X128584107Y-113900000D01*
X129315979Y-113900000D01*
X129383018Y-113919685D01*
X129423017Y-113961400D01*
X129461712Y-114027563D01*
X129461717Y-114027571D01*
X129507473Y-114080376D01*
X129507483Y-114080387D01*
X129552199Y-114122548D01*
X129552201Y-114122549D01*
X129552205Y-114122553D01*
X129652281Y-114173439D01*
X129719320Y-114193124D01*
X129805392Y-114205500D01*
X136163188Y-114205500D01*
X136230227Y-114225185D01*
X136275982Y-114277989D01*
X136285926Y-114347147D01*
X136256901Y-114410703D01*
X136250324Y-114417723D01*
X136228822Y-114438960D01*
X136228819Y-114438963D01*
X136223128Y-114444583D01*
X136124289Y-114571461D01*
X136123177Y-114570595D01*
X136073760Y-114611204D01*
X136072668Y-114611662D01*
X135943178Y-114665301D01*
X135943165Y-114665307D01*
X135749328Y-114777218D01*
X135571753Y-114913476D01*
X135413474Y-115071756D01*
X135379712Y-115115754D01*
X135370682Y-115126019D01*
X135370794Y-115126126D01*
X135369521Y-115127456D01*
X135345419Y-115154188D01*
X135345406Y-115154204D01*
X133998136Y-116838290D01*
X133998120Y-116838310D01*
X133980248Y-116863098D01*
X133966787Y-116883885D01*
X133966774Y-116883906D01*
X133951242Y-116910748D01*
X133931600Y-116936320D01*
X133897869Y-116970053D01*
X133889711Y-116978211D01*
X133846422Y-117021500D01*
X133778209Y-117089712D01*
X133690609Y-117220814D01*
X133690602Y-117220827D01*
X133630264Y-117366498D01*
X133630261Y-117366510D01*
X133599500Y-117521153D01*
X133599500Y-122917059D01*
X133579815Y-122984098D01*
X133563181Y-123004740D01*
X133278213Y-123289707D01*
X133223616Y-123371417D01*
X133220798Y-123375355D01*
X133218808Y-123378523D01*
X133216917Y-123381441D01*
X133190606Y-123420819D01*
X133160399Y-123493746D01*
X133156485Y-123502266D01*
X132869202Y-124070153D01*
X132869202Y-124070154D01*
X132691138Y-124422139D01*
X132691137Y-124422141D01*
X132666571Y-124489183D01*
X132665333Y-124494375D01*
X132657000Y-124565246D01*
X132657000Y-124800985D01*
X132657081Y-124808041D01*
X132657081Y-124808046D01*
X132680250Y-124917898D01*
X132681946Y-124923377D01*
X132679386Y-124924169D01*
X132685491Y-124982479D01*
X132674925Y-125014580D01*
X132672280Y-125019991D01*
X132662000Y-125090551D01*
X132662000Y-125090555D01*
X132662000Y-125090556D01*
X132662000Y-125284450D01*
X132672279Y-125355007D01*
X132672279Y-125355008D01*
X132685984Y-125383043D01*
X132697741Y-125451916D01*
X132685984Y-125491957D01*
X132681247Y-125501648D01*
X132672280Y-125519991D01*
X132662000Y-125590551D01*
X132662000Y-125590555D01*
X132662000Y-125590556D01*
X132662000Y-125784450D01*
X132672279Y-125855007D01*
X132672279Y-125855008D01*
X132685984Y-125883043D01*
X132697741Y-125951916D01*
X132685984Y-125991957D01*
X132672281Y-126019988D01*
X132672280Y-126019991D01*
X132662000Y-126090551D01*
X132662000Y-126090555D01*
X132662000Y-126090556D01*
X132662000Y-126284450D01*
X132672279Y-126355007D01*
X132672279Y-126355008D01*
X132674958Y-126360487D01*
X132686716Y-126429360D01*
X132678667Y-126461051D01*
X132677630Y-126463639D01*
X132657000Y-126574001D01*
X132657000Y-126800985D01*
X132657081Y-126808041D01*
X132657081Y-126808046D01*
X132680250Y-126917898D01*
X132680251Y-126917902D01*
X132683607Y-126926006D01*
X132689328Y-126938961D01*
X132689329Y-126938963D01*
X132754901Y-127030092D01*
X132754902Y-127030092D01*
X132754903Y-127030094D01*
X132848970Y-127091382D01*
X132857102Y-127094750D01*
X132863641Y-127097370D01*
X132974000Y-127118000D01*
X133308790Y-127118000D01*
X133375829Y-127137685D01*
X133387467Y-127146157D01*
X134123276Y-127750179D01*
X134145481Y-127757598D01*
X134193893Y-127785028D01*
X134193893Y-127785029D01*
X134193896Y-127785030D01*
X134201193Y-127787641D01*
X134230599Y-127792743D01*
X134304111Y-127805500D01*
X134304116Y-127805500D01*
X134332141Y-127805500D01*
X134399180Y-127825185D01*
X134444935Y-127877989D01*
X134454879Y-127947147D01*
X134449847Y-127968503D01*
X134435319Y-128012345D01*
X134435319Y-128012346D01*
X134425000Y-128113345D01*
X134425000Y-128212500D01*
X135526000Y-128212500D01*
X135593039Y-128232185D01*
X135638794Y-128284989D01*
X135650000Y-128336500D01*
X135650000Y-129499999D01*
X135673135Y-129499999D01*
X135740174Y-129519684D01*
X135785929Y-129572488D01*
X135797129Y-129625198D01*
X135796599Y-129679917D01*
X135796600Y-129679929D01*
X135798975Y-129739667D01*
X135798975Y-129739679D01*
X135801148Y-129763998D01*
X135801149Y-129764011D01*
X135801150Y-129764013D01*
X135803553Y-129781251D01*
X135809404Y-129823232D01*
X135817135Y-129863896D01*
X135817487Y-129865349D01*
X135817471Y-129865664D01*
X135817709Y-129866912D01*
X135817408Y-129866969D01*
X135814114Y-129935137D01*
X135773547Y-129992023D01*
X135708664Y-130017947D01*
X135696962Y-130018500D01*
X131635752Y-130018500D01*
X131568713Y-129998815D01*
X131522958Y-129946011D01*
X131511752Y-129894804D01*
X131510759Y-129489680D01*
X131510017Y-129187261D01*
X131529537Y-129120176D01*
X131546337Y-129099277D01*
X131583719Y-129061896D01*
X131632980Y-129012635D01*
X131685707Y-128921310D01*
X131713000Y-128819449D01*
X131713000Y-128811654D01*
X134425001Y-128811654D01*
X134435319Y-128912652D01*
X134489546Y-129076300D01*
X134489551Y-129076311D01*
X134580052Y-129223034D01*
X134580055Y-129223038D01*
X134701961Y-129344944D01*
X134701965Y-129344947D01*
X134848688Y-129435448D01*
X134848699Y-129435453D01*
X135012347Y-129489680D01*
X135113352Y-129499999D01*
X135150000Y-129499999D01*
X135150000Y-128712500D01*
X134425001Y-128712500D01*
X134425001Y-128811654D01*
X131713000Y-128811654D01*
X131713000Y-128713995D01*
X131713000Y-127101721D01*
X131732685Y-127034682D01*
X131749320Y-127014039D01*
X131799511Y-126963848D01*
X131799512Y-126963847D01*
X131852720Y-126855009D01*
X131863000Y-126784449D01*
X131862999Y-126590552D01*
X131852720Y-126519991D01*
X131839016Y-126491960D01*
X131827256Y-126423091D01*
X131839015Y-126383040D01*
X131852720Y-126355009D01*
X131863000Y-126284449D01*
X131862999Y-126090552D01*
X131852720Y-126019991D01*
X131799512Y-125911153D01*
X131799510Y-125911151D01*
X131799510Y-125911150D01*
X131713849Y-125825489D01*
X131659460Y-125798899D01*
X131607879Y-125751770D01*
X131589965Y-125684236D01*
X131611407Y-125617738D01*
X131659460Y-125576100D01*
X131713847Y-125549512D01*
X131799512Y-125463847D01*
X131852720Y-125355009D01*
X131863000Y-125284449D01*
X131862999Y-125090552D01*
X131852720Y-125019991D01*
X131850041Y-125014512D01*
X131838282Y-124945642D01*
X131846339Y-124913931D01*
X131847370Y-124911359D01*
X131868000Y-124801000D01*
X131868000Y-124566502D01*
X131862337Y-124533017D01*
X131851014Y-124466056D01*
X131851011Y-124466046D01*
X131848529Y-124458916D01*
X131848526Y-124458909D01*
X131848526Y-124458908D01*
X131799477Y-124369658D01*
X131769200Y-124331440D01*
X131047478Y-123420413D01*
X131047474Y-123420408D01*
X131036191Y-123406976D01*
X131035315Y-123405992D01*
X131034459Y-123405106D01*
X131033819Y-123404312D01*
X131033635Y-123404105D01*
X131033645Y-123404095D01*
X131025772Y-123394330D01*
X131025658Y-123394425D01*
X131021788Y-123389710D01*
X129110292Y-121478213D01*
X129110288Y-121478210D01*
X128979185Y-121390609D01*
X128979172Y-121390602D01*
X128833501Y-121330264D01*
X128833489Y-121330261D01*
X128678845Y-121299500D01*
X128678842Y-121299500D01*
X127636999Y-121299500D01*
X127569960Y-121279815D01*
X127524205Y-121227011D01*
X127512999Y-121175500D01*
X127512999Y-120055143D01*
X127512999Y-120055136D01*
X127512997Y-120055117D01*
X127510086Y-120030012D01*
X127510085Y-120030010D01*
X127510085Y-120030009D01*
X127464706Y-119927235D01*
X127385265Y-119847794D01*
X127368415Y-119840354D01*
X127282492Y-119802415D01*
X127257365Y-119799500D01*
X123167643Y-119799500D01*
X123167617Y-119799502D01*
X123142513Y-119802413D01*
X123111692Y-119816021D01*
X123056584Y-119840354D01*
X122987307Y-119849425D01*
X122924123Y-119819601D01*
X122887092Y-119760352D01*
X122882500Y-119726919D01*
X122882500Y-118699998D01*
X123394318Y-118699998D01*
X123394318Y-118700001D01*
X123414955Y-118856760D01*
X123414956Y-118856762D01*
X123475464Y-119002841D01*
X123571718Y-119128282D01*
X123697159Y-119224536D01*
X123843238Y-119285044D01*
X123921619Y-119295363D01*
X123999999Y-119305682D01*
X124000000Y-119305682D01*
X124000001Y-119305682D01*
X124052254Y-119298802D01*
X124156762Y-119285044D01*
X124302841Y-119224536D01*
X124428282Y-119128282D01*
X124430967Y-119124783D01*
X124431559Y-119124012D01*
X124487987Y-119082810D01*
X124529933Y-119075500D01*
X124579619Y-119075500D01*
X124601232Y-119072904D01*
X124666077Y-119065117D01*
X124803658Y-119010862D01*
X124921500Y-118921500D01*
X125010862Y-118803658D01*
X125065117Y-118666077D01*
X125075500Y-118579618D01*
X125075500Y-118020382D01*
X125065117Y-117933923D01*
X125010862Y-117796342D01*
X124994707Y-117775038D01*
X124921500Y-117678499D01*
X124803660Y-117589139D01*
X124803658Y-117589138D01*
X124666077Y-117534883D01*
X124666076Y-117534882D01*
X124666074Y-117534882D01*
X124579619Y-117524500D01*
X124579618Y-117524500D01*
X123995382Y-117524500D01*
X123995381Y-117524500D01*
X123908925Y-117534882D01*
X123908924Y-117534882D01*
X123771339Y-117589139D01*
X123653499Y-117678499D01*
X123564139Y-117796339D01*
X123509882Y-117933924D01*
X123509882Y-117933925D01*
X123499500Y-118020381D01*
X123499500Y-118323742D01*
X123479815Y-118390781D01*
X123476073Y-118396103D01*
X123475465Y-118397156D01*
X123414956Y-118543237D01*
X123414955Y-118543239D01*
X123394318Y-118699998D01*
X122882500Y-118699998D01*
X122882500Y-115299998D01*
X123394318Y-115299998D01*
X123394318Y-115300001D01*
X123414955Y-115456760D01*
X123414956Y-115456762D01*
X123475464Y-115602842D01*
X123561847Y-115715419D01*
X123587041Y-115780588D01*
X123573002Y-115849033D01*
X123562276Y-115865829D01*
X123539139Y-115896340D01*
X123484882Y-116033924D01*
X123484882Y-116033925D01*
X123474500Y-116120381D01*
X123474500Y-116679618D01*
X123484882Y-116766074D01*
X123484882Y-116766075D01*
X123484883Y-116766077D01*
X123538418Y-116901833D01*
X123539139Y-116903660D01*
X123628499Y-117021500D01*
X123718450Y-117089711D01*
X123746342Y-117110862D01*
X123883923Y-117165117D01*
X123941562Y-117172039D01*
X123970381Y-117175500D01*
X123970382Y-117175500D01*
X124629619Y-117175500D01*
X124651232Y-117172904D01*
X124716077Y-117165117D01*
X124853658Y-117110862D01*
X124971500Y-117021500D01*
X125060862Y-116903658D01*
X125060864Y-116903652D01*
X125065018Y-116896266D01*
X125066952Y-116897353D01*
X125102547Y-116851601D01*
X125168454Y-116828405D01*
X125236439Y-116844523D01*
X125284918Y-116894838D01*
X125288112Y-116901833D01*
X125289139Y-116903660D01*
X125378499Y-117021500D01*
X125468450Y-117089711D01*
X125496342Y-117110862D01*
X125620992Y-117160017D01*
X125676134Y-117202922D01*
X125699327Y-117268830D01*
X125699500Y-117275371D01*
X125699500Y-117464063D01*
X125679815Y-117531102D01*
X125627011Y-117576857D01*
X125620991Y-117579417D01*
X125596342Y-117589137D01*
X125478499Y-117678499D01*
X125389139Y-117796339D01*
X125334882Y-117933924D01*
X125334882Y-117933925D01*
X125324500Y-118020381D01*
X125324500Y-118579618D01*
X125334882Y-118666074D01*
X125334882Y-118666075D01*
X125348261Y-118700001D01*
X125379418Y-118779011D01*
X125389139Y-118803660D01*
X125478499Y-118921500D01*
X125596339Y-119010860D01*
X125596342Y-119010862D01*
X125733923Y-119065117D01*
X125791562Y-119072039D01*
X125820381Y-119075500D01*
X125820382Y-119075500D01*
X126404619Y-119075500D01*
X126426232Y-119072904D01*
X126491077Y-119065117D01*
X126628658Y-119010862D01*
X126746500Y-118921500D01*
X126835862Y-118803658D01*
X126845581Y-118779009D01*
X126888486Y-118723867D01*
X126954394Y-118700673D01*
X126960936Y-118700500D01*
X127152725Y-118700500D01*
X127152727Y-118700500D01*
X127254588Y-118673207D01*
X127345913Y-118620480D01*
X127749256Y-118217135D01*
X127810577Y-118183652D01*
X127820750Y-118181879D01*
X127824262Y-118181416D01*
X127824265Y-118181417D01*
X127981027Y-118160779D01*
X128127106Y-118100271D01*
X128252547Y-118004017D01*
X128348801Y-117878576D01*
X128409309Y-117732497D01*
X128428182Y-117589139D01*
X128429947Y-117575736D01*
X128429947Y-117575733D01*
X128409309Y-117418974D01*
X128409309Y-117418973D01*
X128348801Y-117272894D01*
X128252547Y-117147453D01*
X128127106Y-117051199D01*
X128055406Y-117021500D01*
X127981027Y-116990691D01*
X127981025Y-116990690D01*
X127824266Y-116970053D01*
X127824264Y-116970053D01*
X127667504Y-116990690D01*
X127667502Y-116990691D01*
X127521425Y-117051198D01*
X127395983Y-117147453D01*
X127299728Y-117272895D01*
X127239221Y-117418972D01*
X127239221Y-117418973D01*
X127218120Y-117579248D01*
X127189853Y-117643144D01*
X127182863Y-117650743D01*
X127085198Y-117748409D01*
X127023280Y-117810327D01*
X126961956Y-117843812D01*
X126892265Y-117838828D01*
X126836794Y-117797571D01*
X126746500Y-117678499D01*
X126628657Y-117589137D01*
X126579009Y-117569558D01*
X126523865Y-117526652D01*
X126500673Y-117460744D01*
X126500500Y-117454204D01*
X126500500Y-117235936D01*
X126520185Y-117168897D01*
X126572989Y-117123142D01*
X126578996Y-117120587D01*
X126603658Y-117110862D01*
X126721500Y-117021500D01*
X126810862Y-116903658D01*
X126865117Y-116766077D01*
X126875500Y-116679618D01*
X126875500Y-116120382D01*
X126865117Y-116033923D01*
X126810862Y-115896342D01*
X126810860Y-115896339D01*
X126721500Y-115778499D01*
X126603660Y-115689139D01*
X126603658Y-115689138D01*
X126466077Y-115634883D01*
X126466076Y-115634882D01*
X126466074Y-115634882D01*
X126379619Y-115624500D01*
X126379618Y-115624500D01*
X125720382Y-115624500D01*
X125720381Y-115624500D01*
X125633925Y-115634882D01*
X125633924Y-115634882D01*
X125496339Y-115689139D01*
X125378499Y-115778499D01*
X125289139Y-115896339D01*
X125284982Y-115903734D01*
X125283048Y-115902647D01*
X125247446Y-115948403D01*
X125181537Y-115971595D01*
X125113553Y-115955472D01*
X125065078Y-115905154D01*
X125061886Y-115898163D01*
X125060860Y-115896339D01*
X124971500Y-115778499D01*
X124853660Y-115689139D01*
X124853658Y-115689138D01*
X124784867Y-115662010D01*
X124716075Y-115634882D01*
X124683319Y-115630949D01*
X124619105Y-115603412D01*
X124579973Y-115545529D01*
X124578347Y-115475678D01*
X124583541Y-115460389D01*
X124585044Y-115456762D01*
X124605682Y-115300000D01*
X124585044Y-115143238D01*
X124524536Y-114997159D01*
X124428282Y-114871718D01*
X124302841Y-114775464D01*
X124156762Y-114714956D01*
X124156760Y-114714955D01*
X124000001Y-114694318D01*
X123999999Y-114694318D01*
X123843239Y-114714955D01*
X123843237Y-114714956D01*
X123697160Y-114775463D01*
X123571718Y-114871718D01*
X123475463Y-114997160D01*
X123414956Y-115143237D01*
X123414955Y-115143239D01*
X123394318Y-115299998D01*
X122882500Y-115299998D01*
X122882500Y-114329500D01*
X122902185Y-114262461D01*
X122954989Y-114216706D01*
X123006500Y-114205500D01*
X123994609Y-114205500D01*
X123996649Y-114205390D01*
X124027268Y-114203749D01*
X124053625Y-114200915D01*
X124060625Y-114200081D01*
X124167373Y-114165299D01*
X124228696Y-114131815D01*
X124279420Y-114097069D01*
X124350417Y-114010096D01*
X124375275Y-113964572D01*
X124424681Y-113915168D01*
X124484107Y-113900000D01*
X125215979Y-113900000D01*
X125283018Y-113919685D01*
G37*
%TD.AperFunction*%
%TA.AperFunction,Conductor*%
G36*
X161323500Y-121709063D02*
G01*
X161303815Y-121776102D01*
X161251011Y-121821857D01*
X161181853Y-121831801D01*
X161123493Y-121807037D01*
X160508923Y-121330261D01*
X160285581Y-121156995D01*
X160244679Y-121100351D01*
X160240894Y-121030583D01*
X160275429Y-120969845D01*
X160286090Y-120960656D01*
X160328282Y-120928282D01*
X160424536Y-120802841D01*
X160485044Y-120656762D01*
X160505682Y-120500000D01*
X160485044Y-120343238D01*
X160424536Y-120197159D01*
X160328282Y-120071718D01*
X160202841Y-119975464D01*
X160189432Y-119969910D01*
X160056762Y-119914956D01*
X160056760Y-119914955D01*
X159900001Y-119894318D01*
X159899999Y-119894318D01*
X159743239Y-119914955D01*
X159743237Y-119914956D01*
X159597160Y-119975463D01*
X159567589Y-119998154D01*
X159471718Y-120071718D01*
X159392101Y-120175478D01*
X159375462Y-120197162D01*
X159358091Y-120239098D01*
X159314250Y-120293501D01*
X159247955Y-120315565D01*
X159180256Y-120298285D01*
X159167529Y-120289621D01*
X157692649Y-119145425D01*
X156583363Y-118284852D01*
X156542688Y-118255901D01*
X156540767Y-118254650D01*
X156525567Y-118244749D01*
X156482649Y-118219250D01*
X156482646Y-118219248D01*
X156482637Y-118219243D01*
X156452057Y-118202739D01*
X156452036Y-118202729D01*
X156360626Y-118162740D01*
X156322112Y-118149551D01*
X156322099Y-118149547D01*
X156322097Y-118149547D01*
X156225380Y-118125116D01*
X156225374Y-118125115D01*
X156215856Y-118123530D01*
X156215840Y-118123527D01*
X156215828Y-118123525D01*
X156214514Y-118123306D01*
X156214507Y-118123305D01*
X156191024Y-118119397D01*
X156141509Y-118113241D01*
X156126239Y-118111978D01*
X156121151Y-118111558D01*
X156116615Y-118111370D01*
X156071266Y-118109500D01*
X154659307Y-118109500D01*
X154659223Y-118109500D01*
X154653321Y-118109529D01*
X154650643Y-118109556D01*
X154644926Y-118109642D01*
X154642269Y-118109694D01*
X154642142Y-118109697D01*
X154642121Y-118109698D01*
X154640979Y-118109720D01*
X154640364Y-118109733D01*
X154628061Y-118110104D01*
X154623030Y-118110307D01*
X154610998Y-118110915D01*
X154610961Y-118110917D01*
X154610926Y-118110919D01*
X154608580Y-118111060D01*
X154606427Y-118111191D01*
X154600881Y-118111554D01*
X154598314Y-118111735D01*
X154592034Y-118112208D01*
X154002885Y-118159720D01*
X151700681Y-118345380D01*
X151626249Y-118356066D01*
X151626224Y-118356071D01*
X151596174Y-118362310D01*
X151596159Y-118362314D01*
X151523713Y-118382116D01*
X151475059Y-118398719D01*
X151475050Y-118398723D01*
X151340179Y-118464383D01*
X151289104Y-118497645D01*
X151174504Y-118594453D01*
X151174498Y-118594459D01*
X151172107Y-118597051D01*
X151112178Y-118632972D01*
X151042342Y-118630790D01*
X150984772Y-118591199D01*
X150976255Y-118579049D01*
X150976211Y-118579080D01*
X150974865Y-118577066D01*
X150974615Y-118576709D01*
X150974534Y-118576576D01*
X150974521Y-118576550D01*
X150958571Y-118552680D01*
X150958569Y-118552677D01*
X150958566Y-118552673D01*
X150883271Y-118460928D01*
X150849070Y-118426727D01*
X150757325Y-118351432D01*
X150733443Y-118335474D01*
X150628774Y-118279526D01*
X150628767Y-118279522D01*
X150628761Y-118279519D01*
X150628758Y-118279518D01*
X150584070Y-118261007D01*
X150470481Y-118226548D01*
X150470463Y-118226544D01*
X150430093Y-118218514D01*
X150371309Y-118209795D01*
X150347144Y-118207416D01*
X150347112Y-118207413D01*
X150318255Y-118205996D01*
X150287789Y-118204500D01*
X150287777Y-118204500D01*
X149717742Y-118204500D01*
X149650703Y-118184815D01*
X149604948Y-118132011D01*
X149595004Y-118062853D01*
X149613676Y-118013073D01*
X149628472Y-117990237D01*
X149672224Y-117922712D01*
X149693812Y-117881258D01*
X149736155Y-117776864D01*
X149779592Y-117722141D01*
X149789042Y-117716098D01*
X149927836Y-117635965D01*
X149950672Y-117622781D01*
X150128249Y-117486521D01*
X150286521Y-117328249D01*
X150286521Y-117328248D01*
X153714769Y-113900000D01*
X161323500Y-113900000D01*
X161323500Y-121709063D01*
G37*
%TD.AperFunction*%
%TA.AperFunction,Conductor*%
G36*
X148586254Y-114198974D02*
G01*
X148524931Y-114232459D01*
X148459203Y-114228877D01*
X148435589Y-114220970D01*
X148402869Y-114213810D01*
X148341588Y-114180249D01*
X148308179Y-114118884D01*
X148313250Y-114049199D01*
X148318847Y-114036474D01*
X148322551Y-114029188D01*
X148322553Y-114029187D01*
X148373439Y-113929111D01*
X148381987Y-113900000D01*
X148885229Y-113900000D01*
X148586254Y-114198974D01*
G37*
%TD.AperFunction*%
%TD*%
%TA.AperFunction,Conductor*%
%TO.N,GNDPWR*%
G36*
X155397605Y-100745888D02*
G01*
X155443168Y-100772194D01*
X155443178Y-100772199D01*
X155509070Y-100799492D01*
X155649964Y-100857853D01*
X155866168Y-100915784D01*
X156088085Y-100945000D01*
X157768500Y-100945000D01*
X157835539Y-100964685D01*
X157881294Y-101017489D01*
X157892500Y-101069000D01*
X157892500Y-101932477D01*
X157872815Y-101999516D01*
X157820011Y-102045271D01*
X157750853Y-102055215D01*
X157687297Y-102026190D01*
X157680819Y-102020158D01*
X157618345Y-101957684D01*
X157469124Y-101865643D01*
X157469119Y-101865641D01*
X157302697Y-101810494D01*
X157302690Y-101810493D01*
X157199986Y-101800000D01*
X157000000Y-101800000D01*
X157000000Y-104124999D01*
X157199972Y-104124999D01*
X157199986Y-104124998D01*
X157302697Y-104114505D01*
X157469119Y-104059358D01*
X157469124Y-104059356D01*
X157618345Y-103967315D01*
X157680819Y-103904842D01*
X157742142Y-103871357D01*
X157811834Y-103876341D01*
X157867767Y-103918213D01*
X157892184Y-103983677D01*
X157892500Y-103992523D01*
X157892500Y-108241368D01*
X157872815Y-108308407D01*
X157856181Y-108329049D01*
X156629049Y-109556181D01*
X156567726Y-109589666D01*
X156541368Y-109592500D01*
X153788076Y-109592500D01*
X153691649Y-109605196D01*
X153679595Y-109606783D01*
X153566178Y-109621714D01*
X153566171Y-109621715D01*
X153566168Y-109621716D01*
X153449003Y-109653110D01*
X153349964Y-109679647D01*
X153349954Y-109679650D01*
X153203739Y-109740215D01*
X153143174Y-109765302D01*
X153143167Y-109765306D01*
X153131074Y-109772288D01*
X153058675Y-109814088D01*
X153030841Y-109830158D01*
X152949326Y-109877219D01*
X152823362Y-109973876D01*
X152758193Y-109999070D01*
X152747876Y-109999500D01*
X152705354Y-109999500D01*
X152672897Y-110006398D01*
X152520197Y-110038855D01*
X152520192Y-110038857D01*
X152347270Y-110115848D01*
X152347265Y-110115851D01*
X152194129Y-110227111D01*
X152067465Y-110367785D01*
X152019887Y-110450194D01*
X151969320Y-110498410D01*
X151900713Y-110511632D01*
X151835848Y-110485664D01*
X151801500Y-110443466D01*
X151739249Y-110318449D01*
X151739247Y-110318447D01*
X151737465Y-110316087D01*
X151094855Y-110958697D01*
X151100000Y-110939496D01*
X151100000Y-110860504D01*
X151079556Y-110784204D01*
X151040060Y-110715795D01*
X150984205Y-110659940D01*
X150915796Y-110620444D01*
X150839496Y-110600000D01*
X150760504Y-110600000D01*
X150684204Y-110620444D01*
X150615795Y-110659940D01*
X150559940Y-110715795D01*
X150520444Y-110784204D01*
X150500000Y-110860504D01*
X150500000Y-110939496D01*
X150520444Y-111015796D01*
X150559940Y-111084205D01*
X150615795Y-111140060D01*
X150684204Y-111179556D01*
X150760504Y-111200000D01*
X150839496Y-111200000D01*
X150858697Y-111194854D01*
X150800000Y-111253553D01*
X150219311Y-111834240D01*
X150307585Y-111888897D01*
X150497678Y-111962540D01*
X150540262Y-111970500D01*
X150602543Y-112002168D01*
X150637817Y-112062480D01*
X150634884Y-112132288D01*
X150605159Y-112180070D01*
X148885230Y-113900000D01*
X148381987Y-113900000D01*
X148393124Y-113862072D01*
X148405500Y-113776000D01*
X148405500Y-110899999D01*
X149695287Y-110899999D01*
X149695287Y-110900000D01*
X149714096Y-111102989D01*
X149714097Y-111102992D01*
X149769883Y-111299063D01*
X149769886Y-111299069D01*
X149860751Y-111481551D01*
X149862533Y-111483911D01*
X150446446Y-110900000D01*
X150446446Y-110899999D01*
X149862533Y-110316087D01*
X149860755Y-110318442D01*
X149860754Y-110318443D01*
X149769886Y-110500930D01*
X149769883Y-110500936D01*
X149714097Y-110697007D01*
X149714096Y-110697010D01*
X149695287Y-110899999D01*
X148405500Y-110899999D01*
X148405500Y-109965758D01*
X150219311Y-109965758D01*
X150800000Y-110546446D01*
X150800001Y-110546446D01*
X151380687Y-109965758D01*
X151292413Y-109911101D01*
X151292411Y-109911100D01*
X151102321Y-109837460D01*
X150901928Y-109800000D01*
X150698072Y-109800000D01*
X150497678Y-109837460D01*
X150307588Y-109911100D01*
X150307581Y-109911104D01*
X150219312Y-109965757D01*
X150219311Y-109965758D01*
X148405500Y-109965758D01*
X148405500Y-103462500D01*
X155103834Y-103462500D01*
X155110494Y-103527697D01*
X155165641Y-103694119D01*
X155165643Y-103694124D01*
X155257684Y-103843345D01*
X155381654Y-103967315D01*
X155530875Y-104059356D01*
X155530880Y-104059358D01*
X155697302Y-104114505D01*
X155697309Y-104114506D01*
X155800019Y-104124999D01*
X155999999Y-104124999D01*
X156000000Y-104124998D01*
X156000000Y-103462500D01*
X155103834Y-103462500D01*
X148405500Y-103462500D01*
X148405500Y-103424501D01*
X148425185Y-103357462D01*
X148477989Y-103311707D01*
X148529500Y-103300501D01*
X151819447Y-103300501D01*
X151819449Y-103300501D01*
X151921310Y-103273208D01*
X152012635Y-103220481D01*
X152696296Y-102536820D01*
X152757619Y-102503335D01*
X152783977Y-102500501D01*
X153179619Y-102500501D01*
X153201232Y-102497905D01*
X153266077Y-102490118D01*
X153403658Y-102435863D01*
X153425120Y-102419587D01*
X153490428Y-102394764D01*
X153558792Y-102409190D01*
X153587726Y-102430709D01*
X153701965Y-102544947D01*
X153848688Y-102635448D01*
X153848699Y-102635453D01*
X154012347Y-102689680D01*
X154113352Y-102699999D01*
X154150000Y-102699999D01*
X154150000Y-101912500D01*
X154650000Y-101912500D01*
X154650000Y-102699999D01*
X154686640Y-102699999D01*
X154686654Y-102699998D01*
X154787652Y-102689680D01*
X154951306Y-102635451D01*
X155057000Y-102570256D01*
X155067064Y-102552224D01*
X155076685Y-102519461D01*
X155129489Y-102473706D01*
X155181000Y-102462500D01*
X156000000Y-102462500D01*
X156000000Y-101800000D01*
X155800029Y-101800000D01*
X155800012Y-101800001D01*
X155697302Y-101810494D01*
X155530880Y-101865641D01*
X155530875Y-101865643D01*
X155484840Y-101894039D01*
X155419743Y-101912500D01*
X154650000Y-101912500D01*
X154150000Y-101912500D01*
X154150000Y-101536500D01*
X154169685Y-101469461D01*
X154222489Y-101423706D01*
X154274000Y-101412500D01*
X155374999Y-101412500D01*
X155374999Y-101313360D01*
X155374998Y-101313345D01*
X155364680Y-101212347D01*
X155310453Y-101048699D01*
X155310450Y-101048692D01*
X155230067Y-100918373D01*
X155211626Y-100850980D01*
X155232548Y-100784317D01*
X155286190Y-100739547D01*
X155355520Y-100730885D01*
X155397605Y-100745888D01*
G37*
%TD.AperFunction*%
%TA.AperFunction,Conductor*%
G36*
X161276151Y-109795115D02*
G01*
X161316680Y-109852029D01*
X161323500Y-109892586D01*
X161323500Y-113900000D01*
X153714769Y-113900000D01*
X154570950Y-113043819D01*
X154632273Y-113010334D01*
X154658631Y-113007500D01*
X157411916Y-113007500D01*
X157485887Y-112997761D01*
X157633831Y-112978285D01*
X157725210Y-112953799D01*
X157850036Y-112920353D01*
X157953432Y-112877524D01*
X158056828Y-112834697D01*
X158179719Y-112763744D01*
X158250672Y-112722781D01*
X158428249Y-112586521D01*
X158586521Y-112428249D01*
X160886521Y-110128249D01*
X160904361Y-110105000D01*
X160907881Y-110100413D01*
X160985644Y-109999070D01*
X161022781Y-109950672D01*
X161065189Y-109877219D01*
X161092113Y-109830586D01*
X161142680Y-109782371D01*
X161211287Y-109769147D01*
X161276151Y-109795115D01*
G37*
%TD.AperFunction*%
%TA.AperFunction,Conductor*%
G36*
X161266539Y-88358185D02*
G01*
X161312294Y-88410989D01*
X161323500Y-88462500D01*
X161323500Y-99082414D01*
X161303815Y-99149453D01*
X161251011Y-99195208D01*
X161181853Y-99205152D01*
X161118297Y-99176127D01*
X161092113Y-99144415D01*
X161046369Y-99065184D01*
X161022781Y-99024328D01*
X161022780Y-99024326D01*
X160886523Y-98846753D01*
X160823289Y-98783519D01*
X160728249Y-98688479D01*
X160369271Y-98329501D01*
X159990754Y-97950983D01*
X159990752Y-97950981D01*
X159986538Y-97947748D01*
X159980044Y-97942765D01*
X159980044Y-97942764D01*
X159813169Y-97814716D01*
X159813167Y-97814715D01*
X159700246Y-97749521D01*
X159700245Y-97749520D01*
X159700245Y-97749521D01*
X159619328Y-97702803D01*
X159619319Y-97702798D01*
X159502397Y-97654369D01*
X159412536Y-97617147D01*
X159287710Y-97583700D01*
X159287710Y-97583699D01*
X159196329Y-97559214D01*
X158974416Y-97530000D01*
X158974415Y-97530000D01*
X157400312Y-97530000D01*
X157333273Y-97510315D01*
X157287518Y-97457511D01*
X157277574Y-97388353D01*
X157291481Y-97346571D01*
X157293793Y-97342333D01*
X157293796Y-97342331D01*
X157344091Y-97207483D01*
X157350500Y-97147873D01*
X157350499Y-96652128D01*
X157344091Y-96592517D01*
X157336354Y-96571774D01*
X157293797Y-96457671D01*
X157293793Y-96457664D01*
X157207548Y-96342456D01*
X157207546Y-96342455D01*
X157207546Y-96342454D01*
X157173787Y-96317182D01*
X157131918Y-96261248D01*
X157126935Y-96191556D01*
X157160421Y-96130235D01*
X157194111Y-96096545D01*
X157194114Y-96096542D01*
X157270775Y-95981811D01*
X157323580Y-95854328D01*
X157350500Y-95718993D01*
X157350500Y-95581007D01*
X157350500Y-95581004D01*
X157323581Y-95445677D01*
X157323580Y-95445676D01*
X157323580Y-95445672D01*
X157318551Y-95433531D01*
X157270778Y-95318195D01*
X157270771Y-95318182D01*
X157194114Y-95203458D01*
X157194111Y-95203454D01*
X157103338Y-95112681D01*
X157069853Y-95051358D01*
X157074837Y-94981666D01*
X157103338Y-94937319D01*
X157194111Y-94846545D01*
X157194114Y-94846542D01*
X157270775Y-94731811D01*
X157323580Y-94604328D01*
X157336170Y-94541036D01*
X157350500Y-94468995D01*
X157350500Y-94331004D01*
X157323581Y-94195677D01*
X157323580Y-94195676D01*
X157323580Y-94195672D01*
X157323578Y-94195667D01*
X157270778Y-94068195D01*
X157270771Y-94068182D01*
X157194114Y-93953458D01*
X157194111Y-93953454D01*
X157096545Y-93855888D01*
X157096541Y-93855885D01*
X156981817Y-93779228D01*
X156981804Y-93779221D01*
X156854332Y-93726421D01*
X156854322Y-93726418D01*
X156718995Y-93699500D01*
X156718993Y-93699500D01*
X156694542Y-93699500D01*
X156647210Y-93690111D01*
X156629374Y-93682745D01*
X156618158Y-93678113D01*
X156618156Y-93678112D01*
X156618155Y-93678112D01*
X156473133Y-93649424D01*
X156325297Y-93649577D01*
X153180330Y-94278571D01*
X153043810Y-94335287D01*
X152920973Y-94417551D01*
X152816548Y-94522194D01*
X152779347Y-94577996D01*
X152761206Y-94599464D01*
X151909533Y-95401886D01*
X151847240Y-95433531D01*
X151777728Y-95426475D01*
X151723065Y-95382957D01*
X151700607Y-95316795D01*
X151700500Y-95311634D01*
X151700500Y-93515901D01*
X151696105Y-93499501D01*
X151696104Y-93499496D01*
X151673208Y-93414041D01*
X151653315Y-93379587D01*
X151620480Y-93322715D01*
X150402285Y-92104520D01*
X150356622Y-92078156D01*
X150310961Y-92051793D01*
X150245939Y-92034371D01*
X150209099Y-92024500D01*
X150209098Y-92024500D01*
X148529500Y-92024500D01*
X148462461Y-92004815D01*
X148416706Y-91952011D01*
X148405500Y-91900500D01*
X148405500Y-90894197D01*
X148405500Y-90894120D01*
X148405476Y-90890308D01*
X148405437Y-90887183D01*
X148390824Y-90797565D01*
X148369456Y-90731043D01*
X148344857Y-90674694D01*
X148272770Y-90588623D01*
X148272769Y-90588622D01*
X148272765Y-90588618D01*
X148218841Y-90544223D01*
X148218829Y-90544213D01*
X148199483Y-90531315D01*
X148154623Y-90477753D01*
X148145842Y-90408438D01*
X148148996Y-90394222D01*
X148200756Y-90212310D01*
X148220429Y-90000000D01*
X148200756Y-89787690D01*
X148148402Y-89603687D01*
X148148988Y-89533821D01*
X148187255Y-89475362D01*
X148205068Y-89462715D01*
X148211164Y-89459149D01*
X148227571Y-89449554D01*
X148280375Y-89403799D01*
X148280382Y-89403791D01*
X148280387Y-89403787D01*
X148322548Y-89359071D01*
X148322553Y-89359066D01*
X148373439Y-89258990D01*
X148393124Y-89191951D01*
X148405500Y-89105879D01*
X148405500Y-88462500D01*
X148425185Y-88395461D01*
X148477989Y-88349706D01*
X148529500Y-88338500D01*
X161199500Y-88338500D01*
X161266539Y-88358185D01*
G37*
%TD.AperFunction*%
%TD*%
%TA.AperFunction,Conductor*%
%TO.N,GND*%
G36*
X123593516Y-88358185D02*
G01*
X123639271Y-88410989D01*
X123649215Y-88480147D01*
X123620190Y-88543703D01*
X123614158Y-88550181D01*
X123557684Y-88606654D01*
X123465643Y-88755875D01*
X123465641Y-88755880D01*
X123410494Y-88922302D01*
X123410493Y-88922309D01*
X123400000Y-89025013D01*
X123400000Y-89475000D01*
X125599999Y-89475000D01*
X125599999Y-89025028D01*
X125599998Y-89025013D01*
X125589505Y-88922302D01*
X125534358Y-88755880D01*
X125534356Y-88755875D01*
X125442315Y-88606654D01*
X125385842Y-88550181D01*
X125352357Y-88488858D01*
X125357341Y-88419166D01*
X125399213Y-88363233D01*
X125464677Y-88338816D01*
X125473523Y-88338500D01*
X129126477Y-88338500D01*
X129193516Y-88358185D01*
X129239271Y-88410989D01*
X129249215Y-88480147D01*
X129220190Y-88543703D01*
X129214158Y-88550181D01*
X129157684Y-88606654D01*
X129065643Y-88755875D01*
X129065641Y-88755880D01*
X129010494Y-88922302D01*
X129010493Y-88922309D01*
X129000000Y-89025013D01*
X129000000Y-89475000D01*
X131199999Y-89475000D01*
X131199999Y-89025028D01*
X131199998Y-89025013D01*
X131189505Y-88922302D01*
X131134358Y-88755880D01*
X131134356Y-88755875D01*
X131042315Y-88606654D01*
X130985842Y-88550181D01*
X130952357Y-88488858D01*
X130957341Y-88419166D01*
X130999213Y-88363233D01*
X131064677Y-88338816D01*
X131073523Y-88338500D01*
X132826477Y-88338500D01*
X132893516Y-88358185D01*
X132939271Y-88410989D01*
X132949215Y-88480147D01*
X132920190Y-88543703D01*
X132914158Y-88550181D01*
X132857684Y-88606654D01*
X132765643Y-88755875D01*
X132765641Y-88755880D01*
X132710494Y-88922302D01*
X132710493Y-88922309D01*
X132700000Y-89025013D01*
X132700000Y-89475000D01*
X134899999Y-89475000D01*
X134899999Y-89025028D01*
X134899998Y-89025013D01*
X134889505Y-88922302D01*
X134834358Y-88755880D01*
X134834356Y-88755875D01*
X134742315Y-88606654D01*
X134685842Y-88550181D01*
X134652357Y-88488858D01*
X134657341Y-88419166D01*
X134699213Y-88363233D01*
X134764677Y-88338816D01*
X134773523Y-88338500D01*
X140426477Y-88338500D01*
X140493516Y-88358185D01*
X140539271Y-88410989D01*
X140549215Y-88480147D01*
X140520190Y-88543703D01*
X140514158Y-88550181D01*
X140457684Y-88606654D01*
X140365643Y-88755875D01*
X140365641Y-88755880D01*
X140310494Y-88922302D01*
X140310493Y-88922309D01*
X140300000Y-89025013D01*
X140300000Y-89475000D01*
X142499999Y-89475000D01*
X142499999Y-89025028D01*
X142499998Y-89025013D01*
X142489505Y-88922302D01*
X142434358Y-88755880D01*
X142434356Y-88755875D01*
X142342315Y-88606654D01*
X142285842Y-88550181D01*
X142252357Y-88488858D01*
X142257341Y-88419166D01*
X142299213Y-88363233D01*
X142364677Y-88338816D01*
X142373523Y-88338500D01*
X147976000Y-88338500D01*
X148043039Y-88358185D01*
X148088794Y-88410989D01*
X148100000Y-88462500D01*
X148100000Y-89105879D01*
X148080315Y-89172918D01*
X148027511Y-89218673D01*
X147958353Y-89228617D01*
X147894797Y-89199592D01*
X147892462Y-89197516D01*
X147763562Y-89080008D01*
X147761302Y-89077948D01*
X147580019Y-88965702D01*
X147580017Y-88965701D01*
X147467990Y-88922302D01*
X147381198Y-88888679D01*
X147171610Y-88849500D01*
X146958390Y-88849500D01*
X146748802Y-88888679D01*
X146748799Y-88888679D01*
X146748799Y-88888680D01*
X146549982Y-88965701D01*
X146549980Y-88965702D01*
X146368699Y-89077947D01*
X146211127Y-89221593D01*
X146082632Y-89391746D01*
X145987596Y-89582605D01*
X145987596Y-89582607D01*
X145929244Y-89787689D01*
X145922970Y-89855394D01*
X145897183Y-89920331D01*
X145840383Y-89961018D01*
X145770602Y-89964538D01*
X145709995Y-89929772D01*
X145677806Y-89867759D01*
X145675499Y-89843952D01*
X145675499Y-89105143D01*
X145675499Y-89105136D01*
X145675497Y-89105117D01*
X145672586Y-89080012D01*
X145672585Y-89080010D01*
X145672585Y-89080009D01*
X145627206Y-88977235D01*
X145547765Y-88897794D01*
X145527124Y-88888680D01*
X145444992Y-88852415D01*
X145419865Y-88849500D01*
X143630143Y-88849500D01*
X143630117Y-88849502D01*
X143605012Y-88852413D01*
X143605008Y-88852415D01*
X143502235Y-88897793D01*
X143422794Y-88977234D01*
X143377415Y-89080006D01*
X143377415Y-89080008D01*
X143374500Y-89105131D01*
X143374500Y-90894856D01*
X143374502Y-90894882D01*
X143377413Y-90919987D01*
X143377415Y-90919991D01*
X143422793Y-91022764D01*
X143422794Y-91022765D01*
X143502235Y-91102206D01*
X143605009Y-91147585D01*
X143630135Y-91150500D01*
X145419864Y-91150499D01*
X145419879Y-91150497D01*
X145419882Y-91150497D01*
X145444987Y-91147586D01*
X145444988Y-91147585D01*
X145444991Y-91147585D01*
X145547765Y-91102206D01*
X145627206Y-91022765D01*
X145672585Y-90919991D01*
X145675500Y-90894865D01*
X145675499Y-90156046D01*
X145695183Y-90089009D01*
X145747987Y-90043254D01*
X145817146Y-90033310D01*
X145880702Y-90062335D01*
X145918476Y-90121113D01*
X145922970Y-90144606D01*
X145929244Y-90212310D01*
X145987596Y-90417392D01*
X145987596Y-90417394D01*
X146082632Y-90608253D01*
X146206188Y-90771866D01*
X146211128Y-90778407D01*
X146368698Y-90922052D01*
X146549981Y-91034298D01*
X146748802Y-91111321D01*
X146958390Y-91150500D01*
X146958392Y-91150500D01*
X147171608Y-91150500D01*
X147171610Y-91150500D01*
X147381198Y-91111321D01*
X147580019Y-91034298D01*
X147761302Y-90922052D01*
X147892463Y-90802481D01*
X147955265Y-90771866D01*
X148024652Y-90780063D01*
X148078593Y-90824473D01*
X148099961Y-90890995D01*
X148100000Y-90894120D01*
X148100000Y-91900500D01*
X148080315Y-91967539D01*
X148027511Y-92013294D01*
X147976000Y-92024500D01*
X146690901Y-92024500D01*
X146589038Y-92051793D01*
X146497715Y-92104520D01*
X146497712Y-92104522D01*
X143679522Y-94922712D01*
X143679520Y-94922715D01*
X143626791Y-95014041D01*
X143603896Y-95099496D01*
X143603895Y-95099501D01*
X143599500Y-95115901D01*
X143599500Y-97629922D01*
X143579815Y-97696961D01*
X143527011Y-97742716D01*
X143457853Y-97752660D01*
X143428048Y-97744483D01*
X143356765Y-97714957D01*
X143356760Y-97714955D01*
X143200001Y-97694318D01*
X143199999Y-97694318D01*
X143043239Y-97714955D01*
X143043237Y-97714956D01*
X142897160Y-97775463D01*
X142771718Y-97871718D01*
X142675463Y-97997160D01*
X142614956Y-98143237D01*
X142614955Y-98143239D01*
X142594318Y-98299998D01*
X142594318Y-98300001D01*
X142614955Y-98456760D01*
X142614956Y-98456762D01*
X142675464Y-98602841D01*
X142771718Y-98728282D01*
X142897159Y-98824536D01*
X143043238Y-98885044D01*
X143121619Y-98895363D01*
X143199999Y-98905682D01*
X143200000Y-98905682D01*
X143200001Y-98905682D01*
X143252254Y-98898802D01*
X143356762Y-98885044D01*
X143428049Y-98855515D01*
X143497516Y-98848047D01*
X143559995Y-98879322D01*
X143595648Y-98939410D01*
X143599500Y-98970077D01*
X143599500Y-101282743D01*
X143579815Y-101349782D01*
X143563181Y-101370424D01*
X143548450Y-101385155D01*
X143487127Y-101418640D01*
X143417435Y-101413656D01*
X143364916Y-101376139D01*
X143346410Y-101353590D01*
X143228424Y-101256762D01*
X143186450Y-101222315D01*
X143003954Y-101124768D01*
X142805934Y-101064700D01*
X142805932Y-101064699D01*
X142805934Y-101064699D01*
X142600000Y-101044417D01*
X142394067Y-101064699D01*
X142196043Y-101124769D01*
X142085898Y-101183643D01*
X142013550Y-101222315D01*
X142013548Y-101222316D01*
X142013547Y-101222317D01*
X141853589Y-101353589D01*
X141722317Y-101513547D01*
X141722315Y-101513550D01*
X141715998Y-101525369D01*
X141624769Y-101696043D01*
X141564699Y-101894067D01*
X141544417Y-102100000D01*
X141564699Y-102305932D01*
X141583219Y-102366984D01*
X141624768Y-102503954D01*
X141651009Y-102553048D01*
X141665251Y-102621448D01*
X141640252Y-102686692D01*
X141583947Y-102728063D01*
X141541651Y-102735500D01*
X140624500Y-102735500D01*
X140557461Y-102715815D01*
X140511706Y-102663011D01*
X140500500Y-102611500D01*
X140500500Y-102525369D01*
X140500500Y-102525364D01*
X140489866Y-102452375D01*
X140484041Y-102440460D01*
X140472281Y-102371592D01*
X140484040Y-102331541D01*
X140489866Y-102319625D01*
X140500500Y-102246636D01*
X140500500Y-102025364D01*
X140489866Y-101952375D01*
X140484041Y-101940460D01*
X140472281Y-101871592D01*
X140484040Y-101831541D01*
X140489866Y-101819625D01*
X140500500Y-101746636D01*
X140500500Y-101525364D01*
X140489866Y-101452375D01*
X140484041Y-101440460D01*
X140472281Y-101371592D01*
X140484040Y-101331541D01*
X140489866Y-101319625D01*
X140500500Y-101246636D01*
X140500500Y-101025364D01*
X140489866Y-100952375D01*
X140465700Y-100902942D01*
X140434827Y-100839789D01*
X140346210Y-100751172D01*
X140233628Y-100696135D01*
X140233626Y-100696134D01*
X140233625Y-100696134D01*
X140160636Y-100685500D01*
X138764364Y-100685500D01*
X138691375Y-100696134D01*
X138691373Y-100696134D01*
X138681845Y-100697523D01*
X138681694Y-100696490D01*
X138661761Y-100699500D01*
X138588353Y-100699500D01*
X138521314Y-100679815D01*
X138475559Y-100627011D01*
X138465615Y-100557853D01*
X138476953Y-100521039D01*
X138489865Y-100494627D01*
X138489864Y-100494627D01*
X138489866Y-100494625D01*
X138500500Y-100421636D01*
X138500500Y-99025364D01*
X138489866Y-98952375D01*
X138483528Y-98939410D01*
X138434827Y-98839789D01*
X138346210Y-98751172D01*
X138233628Y-98696135D01*
X138233626Y-98696134D01*
X138233625Y-98696134D01*
X138160636Y-98685500D01*
X137939364Y-98685500D01*
X137876802Y-98694614D01*
X137866374Y-98696134D01*
X137858699Y-98699886D01*
X137854457Y-98701960D01*
X137785584Y-98713717D01*
X137745543Y-98701960D01*
X137733625Y-98696134D01*
X137660636Y-98685500D01*
X137439364Y-98685500D01*
X137376802Y-98694614D01*
X137366374Y-98696134D01*
X137358699Y-98699886D01*
X137354457Y-98701960D01*
X137285584Y-98713717D01*
X137245543Y-98701960D01*
X137233625Y-98696134D01*
X137160636Y-98685500D01*
X137160630Y-98685500D01*
X137074500Y-98685500D01*
X137007461Y-98665815D01*
X136961706Y-98613011D01*
X136950500Y-98561500D01*
X136950500Y-97767254D01*
X136970185Y-97700215D01*
X136986815Y-97679577D01*
X137724991Y-96941400D01*
X137786312Y-96907917D01*
X137796485Y-96906144D01*
X137799997Y-96905681D01*
X137800000Y-96905682D01*
X137956762Y-96885044D01*
X138102841Y-96824536D01*
X138228282Y-96728282D01*
X138324536Y-96602841D01*
X138385044Y-96456762D01*
X138405682Y-96300000D01*
X138398740Y-96247273D01*
X138385044Y-96143239D01*
X138385044Y-96143238D01*
X138324536Y-95997159D01*
X138228282Y-95871718D01*
X138102841Y-95775464D01*
X137956762Y-95714956D01*
X137936247Y-95712255D01*
X137872352Y-95683986D01*
X137833882Y-95625661D01*
X137833053Y-95555796D01*
X137864752Y-95501639D01*
X138335703Y-95030687D01*
X138335708Y-95030684D01*
X138345911Y-95020480D01*
X138345913Y-95020480D01*
X138420480Y-94945913D01*
X138473207Y-94854587D01*
X138475167Y-94847273D01*
X138500501Y-94752727D01*
X138500501Y-94698791D01*
X138520186Y-94631753D01*
X138572990Y-94585998D01*
X138642148Y-94576054D01*
X138698133Y-94599021D01*
X138737118Y-94627793D01*
X138772304Y-94640105D01*
X138865299Y-94672646D01*
X138895730Y-94675500D01*
X138895734Y-94675500D01*
X139304270Y-94675500D01*
X139324554Y-94673597D01*
X139334699Y-94672646D01*
X139367613Y-94661128D01*
X139437390Y-94657566D01*
X139496249Y-94690489D01*
X139548438Y-94742678D01*
X139548447Y-94742685D01*
X139689801Y-94826281D01*
X139847514Y-94872100D01*
X139847511Y-94872100D01*
X139849998Y-94872295D01*
X139850000Y-94872295D01*
X140350000Y-94872295D01*
X140350001Y-94872295D01*
X140352486Y-94872100D01*
X140510198Y-94826281D01*
X140651552Y-94742685D01*
X140651561Y-94742678D01*
X140767678Y-94626561D01*
X140767685Y-94626552D01*
X140851282Y-94485196D01*
X140851283Y-94485193D01*
X140897099Y-94327495D01*
X140897100Y-94327489D01*
X140899999Y-94290649D01*
X140900000Y-94290634D01*
X140900000Y-93850000D01*
X140350000Y-93850000D01*
X140350000Y-94872295D01*
X139850000Y-94872295D01*
X139850000Y-93350000D01*
X140350000Y-93350000D01*
X140900000Y-93350000D01*
X140900000Y-92909365D01*
X140899999Y-92909350D01*
X140897100Y-92872510D01*
X140897099Y-92872504D01*
X140851283Y-92714806D01*
X140851282Y-92714803D01*
X140767685Y-92573447D01*
X140767678Y-92573438D01*
X140651561Y-92457321D01*
X140651552Y-92457314D01*
X140510196Y-92373717D01*
X140510193Y-92373716D01*
X140352494Y-92327900D01*
X140352497Y-92327900D01*
X140350000Y-92327703D01*
X140350000Y-93350000D01*
X139850000Y-93350000D01*
X139850000Y-92327703D01*
X139847503Y-92327900D01*
X139689806Y-92373716D01*
X139689799Y-92373719D01*
X139687620Y-92375008D01*
X139685689Y-92375497D01*
X139682646Y-92376815D01*
X139682433Y-92376323D01*
X139619896Y-92392191D01*
X139553634Y-92370031D01*
X139509871Y-92315564D01*
X139500500Y-92268276D01*
X139500500Y-92187482D01*
X139520185Y-92120443D01*
X139549014Y-92089106D01*
X139628282Y-92028282D01*
X139724536Y-91902841D01*
X139785044Y-91756762D01*
X139805682Y-91600000D01*
X139785044Y-91443238D01*
X139724536Y-91297159D01*
X139628282Y-91171718D01*
X139502841Y-91075464D01*
X139356762Y-91014956D01*
X139356760Y-91014955D01*
X139200001Y-90994318D01*
X139199999Y-90994318D01*
X139043239Y-91014955D01*
X139043237Y-91014956D01*
X138897160Y-91075463D01*
X138771718Y-91171718D01*
X138675463Y-91297160D01*
X138614956Y-91443237D01*
X138614955Y-91443239D01*
X138594318Y-91599998D01*
X138594318Y-91600001D01*
X138614955Y-91756760D01*
X138614957Y-91756765D01*
X138675461Y-91902836D01*
X138679526Y-91909876D01*
X138677783Y-91910882D01*
X138699069Y-91965932D01*
X138699500Y-91976257D01*
X138699500Y-92501208D01*
X138679815Y-92568247D01*
X138627011Y-92614002D01*
X138557853Y-92623946D01*
X138501867Y-92600979D01*
X138462882Y-92572207D01*
X138462880Y-92572206D01*
X138334700Y-92527353D01*
X138304270Y-92524500D01*
X138304266Y-92524500D01*
X137895734Y-92524500D01*
X137895730Y-92524500D01*
X137865300Y-92527353D01*
X137865298Y-92527353D01*
X137737119Y-92572206D01*
X137737118Y-92572207D01*
X137680488Y-92614002D01*
X137673633Y-92619061D01*
X137608004Y-92643031D01*
X137539834Y-92627715D01*
X137526367Y-92619061D01*
X137519565Y-92614041D01*
X137462882Y-92572207D01*
X137462880Y-92572206D01*
X137334700Y-92527353D01*
X137304270Y-92524500D01*
X137304266Y-92524500D01*
X136895734Y-92524500D01*
X136895730Y-92524500D01*
X136865300Y-92527353D01*
X136865298Y-92527353D01*
X136737119Y-92572206D01*
X136737118Y-92572207D01*
X136680488Y-92614002D01*
X136673633Y-92619061D01*
X136608004Y-92643031D01*
X136539834Y-92627715D01*
X136526367Y-92619061D01*
X136519565Y-92614041D01*
X136462882Y-92572207D01*
X136462880Y-92572206D01*
X136334700Y-92527353D01*
X136304270Y-92524500D01*
X136304266Y-92524500D01*
X135895734Y-92524500D01*
X135895730Y-92524500D01*
X135865300Y-92527353D01*
X135865298Y-92527353D01*
X135737119Y-92572206D01*
X135737118Y-92572207D01*
X135680488Y-92614002D01*
X135673633Y-92619061D01*
X135608004Y-92643031D01*
X135539834Y-92627715D01*
X135526367Y-92619061D01*
X135519565Y-92614041D01*
X135462882Y-92572207D01*
X135462880Y-92572206D01*
X135334700Y-92527353D01*
X135304270Y-92524500D01*
X135304266Y-92524500D01*
X134895734Y-92524500D01*
X134895730Y-92524500D01*
X134865301Y-92527353D01*
X134737677Y-92572010D01*
X134667898Y-92575571D01*
X134609042Y-92542649D01*
X134395913Y-92329520D01*
X134395911Y-92329518D01*
X134350248Y-92303154D01*
X134304587Y-92276791D01*
X134253655Y-92263144D01*
X134202725Y-92249498D01*
X134202724Y-92249498D01*
X133556578Y-92249498D01*
X133489539Y-92229813D01*
X133481091Y-92223874D01*
X133478281Y-92221718D01*
X133478280Y-92221716D01*
X133352839Y-92125462D01*
X133350603Y-92124536D01*
X133206760Y-92064954D01*
X133206758Y-92064953D01*
X133049999Y-92044316D01*
X133049997Y-92044316D01*
X132893237Y-92064953D01*
X132893235Y-92064954D01*
X132747158Y-92125461D01*
X132621716Y-92221716D01*
X132525461Y-92347158D01*
X132464954Y-92493235D01*
X132464953Y-92493237D01*
X132444316Y-92649996D01*
X132444316Y-92649999D01*
X132464953Y-92806758D01*
X132464954Y-92806760D01*
X132494349Y-92877727D01*
X132525462Y-92952839D01*
X132621716Y-93078280D01*
X132747157Y-93174534D01*
X132893236Y-93235042D01*
X132971617Y-93245361D01*
X133049997Y-93255680D01*
X133049998Y-93255680D01*
X133049999Y-93255680D01*
X133102252Y-93248800D01*
X133206760Y-93235042D01*
X133352839Y-93174534D01*
X133478280Y-93078280D01*
X133478281Y-93078277D01*
X133481091Y-93076122D01*
X133546261Y-93050928D01*
X133556578Y-93050498D01*
X133932743Y-93050498D01*
X133999782Y-93070183D01*
X134020424Y-93086817D01*
X134463181Y-93529573D01*
X134496666Y-93590896D01*
X134499500Y-93617254D01*
X134499500Y-93682745D01*
X134479815Y-93749784D01*
X134463181Y-93770426D01*
X133312959Y-94920647D01*
X133268613Y-94949147D01*
X133182671Y-94981202D01*
X133182663Y-94981207D01*
X133067455Y-95067452D01*
X133067452Y-95067455D01*
X132981206Y-95182664D01*
X132981202Y-95182671D01*
X132935323Y-95305682D01*
X132930909Y-95317517D01*
X132924500Y-95377127D01*
X132924500Y-95377134D01*
X132924500Y-95377135D01*
X132924500Y-96022870D01*
X132924501Y-96022876D01*
X132930908Y-96082483D01*
X132981202Y-96217328D01*
X132981206Y-96217335D01*
X133067452Y-96332544D01*
X133067455Y-96332547D01*
X133182664Y-96418793D01*
X133182671Y-96418797D01*
X133224497Y-96434397D01*
X133317517Y-96469091D01*
X133377127Y-96475500D01*
X133392460Y-96475499D01*
X133459498Y-96495180D01*
X133505256Y-96547981D01*
X133515203Y-96617139D01*
X133486181Y-96680697D01*
X133467952Y-96697874D01*
X133371716Y-96771719D01*
X133345751Y-96805558D01*
X133289323Y-96846761D01*
X133219577Y-96850915D01*
X133171891Y-96828448D01*
X133102841Y-96775464D01*
X133093797Y-96771718D01*
X132956762Y-96714956D01*
X132956760Y-96714955D01*
X132800001Y-96694318D01*
X132799999Y-96694318D01*
X132643239Y-96714955D01*
X132643237Y-96714956D01*
X132497160Y-96775463D01*
X132371718Y-96871718D01*
X132275463Y-96997160D01*
X132255125Y-97046262D01*
X132211284Y-97100665D01*
X132144990Y-97122730D01*
X132077291Y-97105451D01*
X132052883Y-97086490D01*
X131945915Y-96979522D01*
X131945913Y-96979520D01*
X131900250Y-96953156D01*
X131854589Y-96926793D01*
X131777523Y-96906144D01*
X131752727Y-96899500D01*
X131752726Y-96899500D01*
X128399500Y-96899500D01*
X128332461Y-96879815D01*
X128286706Y-96827011D01*
X128275500Y-96775500D01*
X128275500Y-96512180D01*
X128295185Y-96445141D01*
X128325187Y-96412914D01*
X128432546Y-96332546D01*
X128518796Y-96217331D01*
X128569091Y-96082483D01*
X128575500Y-96022873D01*
X128575499Y-95377128D01*
X128575499Y-95377127D01*
X128824500Y-95377127D01*
X128824500Y-95377134D01*
X128824500Y-95377135D01*
X128824500Y-96022870D01*
X128824501Y-96022876D01*
X128830908Y-96082483D01*
X128881202Y-96217328D01*
X128881206Y-96217335D01*
X128967452Y-96332544D01*
X128967455Y-96332547D01*
X129082664Y-96418793D01*
X129082671Y-96418797D01*
X129124497Y-96434397D01*
X129217517Y-96469091D01*
X129277127Y-96475500D01*
X129772872Y-96475499D01*
X129832483Y-96469091D01*
X129967331Y-96418796D01*
X130082546Y-96332546D01*
X130168796Y-96217331D01*
X130219091Y-96082483D01*
X130219092Y-96082472D01*
X130220873Y-96074939D01*
X130223234Y-96075496D01*
X130245388Y-96022009D01*
X130254252Y-96012140D01*
X130912320Y-95354071D01*
X130973641Y-95320588D01*
X131043332Y-95325572D01*
X131087680Y-95354073D01*
X131238181Y-95504574D01*
X131271666Y-95565897D01*
X131274500Y-95592255D01*
X131274500Y-96022870D01*
X131274501Y-96022876D01*
X131280908Y-96082483D01*
X131331202Y-96217328D01*
X131331206Y-96217335D01*
X131417452Y-96332544D01*
X131417455Y-96332547D01*
X131532664Y-96418793D01*
X131532671Y-96418797D01*
X131574497Y-96434397D01*
X131667517Y-96469091D01*
X131727127Y-96475500D01*
X132222872Y-96475499D01*
X132282483Y-96469091D01*
X132417331Y-96418796D01*
X132532546Y-96332546D01*
X132618796Y-96217331D01*
X132669091Y-96082483D01*
X132675500Y-96022873D01*
X132675499Y-95377128D01*
X132669091Y-95317517D01*
X132618796Y-95182669D01*
X132618795Y-95182668D01*
X132618793Y-95182664D01*
X132532547Y-95067455D01*
X132532544Y-95067452D01*
X132417335Y-94981206D01*
X132417328Y-94981202D01*
X132282482Y-94930908D01*
X132282483Y-94930908D01*
X132222883Y-94924501D01*
X132222881Y-94924500D01*
X132222873Y-94924500D01*
X132222865Y-94924500D01*
X131842255Y-94924500D01*
X131775216Y-94904815D01*
X131754574Y-94888181D01*
X131641402Y-94775009D01*
X131607917Y-94713686D01*
X131606144Y-94703513D01*
X131605522Y-94698792D01*
X131585044Y-94543238D01*
X131524536Y-94397159D01*
X131428282Y-94271718D01*
X131302841Y-94175464D01*
X131156762Y-94114956D01*
X131156760Y-94114955D01*
X131000001Y-94094318D01*
X130999999Y-94094318D01*
X130843239Y-94114955D01*
X130843237Y-94114956D01*
X130697160Y-94175463D01*
X130571718Y-94271718D01*
X130475463Y-94397160D01*
X130414956Y-94543237D01*
X130414956Y-94543238D01*
X130393855Y-94703513D01*
X130365588Y-94767409D01*
X130358597Y-94775008D01*
X130149147Y-94984458D01*
X130087824Y-95017943D01*
X130018132Y-95012959D01*
X129987156Y-94996044D01*
X129967335Y-94981206D01*
X129967328Y-94981202D01*
X129832486Y-94930910D01*
X129832485Y-94930909D01*
X129832483Y-94930909D01*
X129772873Y-94924500D01*
X129772864Y-94924500D01*
X129469101Y-94924500D01*
X129402062Y-94904815D01*
X129356307Y-94852011D01*
X129346363Y-94782853D01*
X129375388Y-94719297D01*
X129381420Y-94712818D01*
X129467681Y-94626557D01*
X129467685Y-94626552D01*
X129551282Y-94485196D01*
X129551283Y-94485193D01*
X129597099Y-94327495D01*
X129597100Y-94327489D01*
X129599999Y-94290649D01*
X129600000Y-94290634D01*
X129600000Y-93850000D01*
X129050000Y-93850000D01*
X129050000Y-94894441D01*
X129056233Y-94904862D01*
X129053989Y-94974696D01*
X129014346Y-95032231D01*
X129010507Y-95035224D01*
X128967452Y-95067455D01*
X128881206Y-95182664D01*
X128881202Y-95182671D01*
X128835323Y-95305682D01*
X128830909Y-95317517D01*
X128824500Y-95377127D01*
X128575499Y-95377127D01*
X128569091Y-95317517D01*
X128518796Y-95182669D01*
X128518795Y-95182668D01*
X128518793Y-95182664D01*
X128434221Y-95069691D01*
X128409803Y-95004227D01*
X128424654Y-94935954D01*
X128474059Y-94886548D01*
X128542332Y-94871696D01*
X128543213Y-94871762D01*
X128549999Y-94872295D01*
X128550000Y-94872295D01*
X128550000Y-93350000D01*
X129050000Y-93350000D01*
X129600000Y-93350000D01*
X129600000Y-92909365D01*
X129599999Y-92909350D01*
X129597100Y-92872510D01*
X129597099Y-92872504D01*
X129551283Y-92714806D01*
X129551282Y-92714803D01*
X129467685Y-92573447D01*
X129467678Y-92573438D01*
X129351561Y-92457321D01*
X129351552Y-92457314D01*
X129210196Y-92373717D01*
X129210193Y-92373716D01*
X129052494Y-92327900D01*
X129052497Y-92327900D01*
X129050000Y-92327703D01*
X129050000Y-93350000D01*
X128550000Y-93350000D01*
X128550000Y-92327703D01*
X128547503Y-92327900D01*
X128389806Y-92373716D01*
X128382646Y-92376815D01*
X128381356Y-92373834D01*
X128327994Y-92387298D01*
X128261761Y-92365052D01*
X128218069Y-92310528D01*
X128210791Y-92241039D01*
X128221993Y-92210583D01*
X128221426Y-92210349D01*
X128234375Y-92179087D01*
X128285044Y-92056762D01*
X128305682Y-91900000D01*
X128285044Y-91743238D01*
X128224536Y-91597159D01*
X128128282Y-91471718D01*
X128002841Y-91375464D01*
X127856762Y-91314956D01*
X127856760Y-91314955D01*
X127700001Y-91294318D01*
X127699999Y-91294318D01*
X127543239Y-91314955D01*
X127543237Y-91314956D01*
X127397160Y-91375463D01*
X127271718Y-91471718D01*
X127175463Y-91597160D01*
X127114956Y-91743237D01*
X127114955Y-91743239D01*
X127094318Y-91899998D01*
X127094318Y-91900001D01*
X127114955Y-92056760D01*
X127114956Y-92056762D01*
X127143412Y-92125462D01*
X127175464Y-92202841D01*
X127271718Y-92328282D01*
X127271720Y-92328283D01*
X127273876Y-92331093D01*
X127299070Y-92396263D01*
X127299500Y-92406580D01*
X127299500Y-92445250D01*
X127279815Y-92512289D01*
X127227011Y-92558044D01*
X127157853Y-92567988D01*
X127134545Y-92562291D01*
X127034701Y-92527354D01*
X127034699Y-92527353D01*
X127004270Y-92524500D01*
X127004266Y-92524500D01*
X126595734Y-92524500D01*
X126595730Y-92524500D01*
X126565300Y-92527353D01*
X126565298Y-92527353D01*
X126437119Y-92572206D01*
X126437118Y-92572207D01*
X126380488Y-92614002D01*
X126373633Y-92619061D01*
X126308004Y-92643031D01*
X126239834Y-92627715D01*
X126226367Y-92619061D01*
X126219565Y-92614041D01*
X126162882Y-92572207D01*
X126162880Y-92572206D01*
X126034700Y-92527353D01*
X126004270Y-92524500D01*
X126004266Y-92524500D01*
X125595734Y-92524500D01*
X125595730Y-92524500D01*
X125565300Y-92527353D01*
X125565298Y-92527353D01*
X125437119Y-92572206D01*
X125437117Y-92572207D01*
X125327850Y-92652850D01*
X125247207Y-92762117D01*
X125247206Y-92762119D01*
X125202353Y-92890298D01*
X125202353Y-92890300D01*
X125199500Y-92920730D01*
X125199500Y-94279269D01*
X125202353Y-94309699D01*
X125202353Y-94309701D01*
X125247206Y-94437880D01*
X125247207Y-94437882D01*
X125327850Y-94547150D01*
X125358484Y-94569759D01*
X125400734Y-94625405D01*
X125408850Y-94669528D01*
X125408850Y-96756623D01*
X125408850Y-96862077D01*
X125421133Y-96907917D01*
X125436143Y-96963939D01*
X125455323Y-96997159D01*
X125488870Y-97055263D01*
X126054087Y-97620480D01*
X126145412Y-97673207D01*
X126247273Y-97700500D01*
X126352727Y-97700500D01*
X127576651Y-97700500D01*
X127643690Y-97720185D01*
X127689445Y-97772989D01*
X127699389Y-97842147D01*
X127675027Y-97899986D01*
X127600464Y-97997157D01*
X127539956Y-98143237D01*
X127539955Y-98143239D01*
X127519318Y-98299998D01*
X127519318Y-98300001D01*
X127539955Y-98456760D01*
X127539956Y-98456762D01*
X127600464Y-98602841D01*
X127696718Y-98728282D01*
X127822159Y-98824536D01*
X127968238Y-98885044D01*
X128046619Y-98895363D01*
X128124999Y-98905682D01*
X128125000Y-98905682D01*
X128125001Y-98905682D01*
X128177254Y-98898802D01*
X128281762Y-98885044D01*
X128427841Y-98824536D01*
X128553282Y-98728282D01*
X128553283Y-98728279D01*
X128556093Y-98726124D01*
X128621263Y-98700930D01*
X128631580Y-98700500D01*
X131882745Y-98700500D01*
X131949784Y-98720185D01*
X131970426Y-98736819D01*
X132075786Y-98842179D01*
X132109271Y-98903502D01*
X132110810Y-98947736D01*
X132110134Y-98952374D01*
X132110134Y-98952375D01*
X132099500Y-99025364D01*
X132099500Y-100421636D01*
X132110134Y-100494625D01*
X132110134Y-100494626D01*
X132110135Y-100494628D01*
X132144229Y-100564369D01*
X132155989Y-100633242D01*
X132128645Y-100697539D01*
X132070881Y-100736846D01*
X132001036Y-100738684D01*
X131978369Y-100730229D01*
X131908628Y-100696135D01*
X131908626Y-100696134D01*
X131908625Y-100696134D01*
X131835636Y-100685500D01*
X130439364Y-100685500D01*
X130366375Y-100696134D01*
X130366373Y-100696134D01*
X130366371Y-100696135D01*
X130253789Y-100751172D01*
X130165173Y-100839788D01*
X130159516Y-100851361D01*
X130112387Y-100902942D01*
X130044853Y-100920855D01*
X129978355Y-100899413D01*
X129940035Y-100854356D01*
X129939245Y-100854844D01*
X129936063Y-100849685D01*
X129935731Y-100849295D01*
X129935448Y-100848688D01*
X129844947Y-100701965D01*
X129844944Y-100701961D01*
X129723038Y-100580055D01*
X129723034Y-100580052D01*
X129576311Y-100489551D01*
X129576300Y-100489546D01*
X129412652Y-100435319D01*
X129311654Y-100425000D01*
X129212500Y-100425000D01*
X129212500Y-102115573D01*
X129192815Y-102182612D01*
X129176181Y-102203254D01*
X129171718Y-102207716D01*
X129075464Y-102333157D01*
X129014956Y-102479237D01*
X129014956Y-102479238D01*
X129009218Y-102522820D01*
X128980950Y-102586716D01*
X128922626Y-102625186D01*
X128854187Y-102626408D01*
X128795502Y-102610684D01*
X128795501Y-102610684D01*
X128776177Y-102610684D01*
X128709138Y-102590999D01*
X128663383Y-102538195D01*
X128653439Y-102469037D01*
X128682464Y-102405481D01*
X128688496Y-102399003D01*
X128712500Y-102374999D01*
X128712500Y-100424999D01*
X128613360Y-100425000D01*
X128613344Y-100425001D01*
X128512347Y-100435319D01*
X128348699Y-100489546D01*
X128348688Y-100489551D01*
X128201965Y-100580052D01*
X128201961Y-100580055D01*
X128080055Y-100701961D01*
X128080050Y-100701967D01*
X128069034Y-100719827D01*
X128017085Y-100766550D01*
X127948122Y-100777770D01*
X127888573Y-100753531D01*
X127803659Y-100689139D01*
X127803660Y-100689139D01*
X127803658Y-100689138D01*
X127666077Y-100634883D01*
X127666076Y-100634882D01*
X127666074Y-100634882D01*
X127579619Y-100624500D01*
X127579618Y-100624500D01*
X126895382Y-100624500D01*
X126895381Y-100624500D01*
X126808925Y-100634882D01*
X126808924Y-100634882D01*
X126671339Y-100689139D01*
X126553499Y-100778499D01*
X126464139Y-100896339D01*
X126409882Y-101033924D01*
X126409882Y-101033925D01*
X126399500Y-101120381D01*
X126399500Y-101679618D01*
X126409882Y-101766074D01*
X126409882Y-101766075D01*
X126409883Y-101766077D01*
X126462695Y-101900000D01*
X126464139Y-101903660D01*
X126553499Y-102021500D01*
X126657018Y-102100000D01*
X126671342Y-102110862D01*
X126808923Y-102165117D01*
X126808934Y-102165118D01*
X126813299Y-102166222D01*
X126873472Y-102201732D01*
X126904895Y-102264137D01*
X126906918Y-102286443D01*
X126906918Y-102517141D01*
X126887233Y-102584180D01*
X126880631Y-102593483D01*
X126139235Y-103542428D01*
X126126057Y-103564030D01*
X126098543Y-103672951D01*
X126098542Y-103672957D01*
X126099973Y-103684610D01*
X126088603Y-103753548D01*
X126041767Y-103805395D01*
X125974340Y-103823691D01*
X125849561Y-103821117D01*
X125710797Y-103858771D01*
X125588265Y-103933993D01*
X125588262Y-103933995D01*
X125546567Y-103976967D01*
X125546555Y-103976981D01*
X125240067Y-104369267D01*
X125240067Y-104369268D01*
X125926208Y-104905341D01*
X125926230Y-104905357D01*
X126206169Y-105124070D01*
X126246878Y-105180855D01*
X126250424Y-105250635D01*
X126227540Y-105298125D01*
X125411173Y-106343026D01*
X125411173Y-106343027D01*
X125724662Y-106587952D01*
X125775528Y-106619568D01*
X125775535Y-106619572D01*
X125912620Y-106662914D01*
X126056367Y-106665880D01*
X126064797Y-106663592D01*
X126134652Y-106665028D01*
X126173621Y-106685549D01*
X126476669Y-106922315D01*
X126789342Y-107166602D01*
X126830051Y-107223386D01*
X126837000Y-107264314D01*
X126837000Y-107539416D01*
X126817315Y-107606455D01*
X126764511Y-107652210D01*
X126758491Y-107654770D01*
X126671343Y-107689137D01*
X126671339Y-107689139D01*
X126553499Y-107778499D01*
X126464139Y-107896339D01*
X126409882Y-108033924D01*
X126409882Y-108033925D01*
X126399500Y-108120381D01*
X126399500Y-108679618D01*
X126409882Y-108766074D01*
X126409882Y-108766075D01*
X126464139Y-108903660D01*
X126553499Y-109021500D01*
X126665174Y-109106185D01*
X126671342Y-109110862D01*
X126808923Y-109165117D01*
X126866562Y-109172039D01*
X126895381Y-109175500D01*
X126895382Y-109175500D01*
X127579619Y-109175500D01*
X127601232Y-109172904D01*
X127666077Y-109165117D01*
X127803658Y-109110862D01*
X127888574Y-109046468D01*
X127953883Y-109021645D01*
X128022247Y-109036072D01*
X128069036Y-109080174D01*
X128080054Y-109098037D01*
X128201961Y-109219944D01*
X128201965Y-109219947D01*
X128348688Y-109310448D01*
X128348699Y-109310453D01*
X128512347Y-109364680D01*
X128613351Y-109374999D01*
X129212500Y-109374999D01*
X129311640Y-109374999D01*
X129311654Y-109374998D01*
X129412652Y-109364680D01*
X129576300Y-109310453D01*
X129576311Y-109310448D01*
X129723034Y-109219947D01*
X129723038Y-109219944D01*
X129844944Y-109098038D01*
X129844947Y-109098034D01*
X129935448Y-108951311D01*
X129935453Y-108951300D01*
X129989680Y-108787652D01*
X129999999Y-108686654D01*
X130000000Y-108686641D01*
X130000000Y-108650000D01*
X129212500Y-108650000D01*
X129212500Y-109374999D01*
X128613351Y-109374999D01*
X128712500Y-109374998D01*
X128712500Y-108150000D01*
X129212500Y-108150000D01*
X129999999Y-108150000D01*
X129999999Y-108113360D01*
X129999998Y-108113345D01*
X129989680Y-108012347D01*
X129935453Y-107848699D01*
X129935448Y-107848688D01*
X129844947Y-107701965D01*
X129844944Y-107701961D01*
X129723038Y-107580055D01*
X129723034Y-107580052D01*
X129576311Y-107489551D01*
X129576300Y-107489546D01*
X129412652Y-107435319D01*
X129311654Y-107425000D01*
X129212500Y-107425000D01*
X129212500Y-108150000D01*
X128712500Y-108150000D01*
X128712500Y-107424999D01*
X128696570Y-107409069D01*
X128663085Y-107347746D01*
X128668069Y-107278054D01*
X128709941Y-107222121D01*
X128752159Y-107201613D01*
X128756313Y-107200500D01*
X128756317Y-107200500D01*
X128858178Y-107173207D01*
X128949503Y-107120480D01*
X129889628Y-106180353D01*
X129950951Y-106146869D01*
X130020642Y-106151853D01*
X130076576Y-106193725D01*
X130100012Y-106250154D01*
X130110134Y-106319625D01*
X130111628Y-106322682D01*
X130115960Y-106331542D01*
X130127717Y-106400416D01*
X130115960Y-106440458D01*
X130110134Y-106452374D01*
X130108361Y-106464539D01*
X130099500Y-106525364D01*
X130099500Y-106746636D01*
X130110134Y-106819625D01*
X130110134Y-106819626D01*
X130110135Y-106819628D01*
X130165172Y-106932210D01*
X130253789Y-107020827D01*
X130361572Y-107073518D01*
X130366375Y-107075866D01*
X130439364Y-107086500D01*
X130970245Y-107086500D01*
X131037284Y-107106185D01*
X131057926Y-107122819D01*
X132063181Y-108128073D01*
X132096666Y-108189396D01*
X132099500Y-108215754D01*
X132099500Y-108746636D01*
X132105476Y-108787652D01*
X132110134Y-108819627D01*
X132136900Y-108874375D01*
X132149500Y-108928836D01*
X132149500Y-109302726D01*
X132176794Y-109404591D01*
X132231185Y-109498798D01*
X132247658Y-109566698D01*
X132224806Y-109632725D01*
X132222174Y-109636284D01*
X132175464Y-109697157D01*
X132114956Y-109843237D01*
X132114955Y-109843239D01*
X132094318Y-109999998D01*
X132094318Y-110000001D01*
X132114955Y-110156760D01*
X132114956Y-110156762D01*
X132175464Y-110302841D01*
X132271718Y-110428282D01*
X132397159Y-110524536D01*
X132543238Y-110585044D01*
X132691686Y-110604587D01*
X132755582Y-110632853D01*
X132794053Y-110691178D01*
X132799500Y-110727526D01*
X132799500Y-111348599D01*
X132779815Y-111415638D01*
X132733953Y-111457957D01*
X132613550Y-111522315D01*
X132613548Y-111522316D01*
X132613547Y-111522317D01*
X132453589Y-111653589D01*
X132322317Y-111813547D01*
X132224769Y-111996043D01*
X132164699Y-112194067D01*
X132144417Y-112400000D01*
X132164699Y-112605932D01*
X132164700Y-112605934D01*
X132224768Y-112803954D01*
X132322315Y-112986450D01*
X132322317Y-112986452D01*
X132453589Y-113146410D01*
X132550209Y-113225702D01*
X132613550Y-113277685D01*
X132796046Y-113375232D01*
X132994066Y-113435300D01*
X132994065Y-113435300D01*
X133012529Y-113437118D01*
X133200000Y-113455583D01*
X133405934Y-113435300D01*
X133603954Y-113375232D01*
X133786450Y-113277685D01*
X133946410Y-113146410D01*
X134077685Y-112986450D01*
X134175232Y-112803954D01*
X134235300Y-112605934D01*
X134255583Y-112400000D01*
X134235300Y-112194066D01*
X134175232Y-111996046D01*
X134077685Y-111813550D01*
X134021331Y-111744882D01*
X133946410Y-111653589D01*
X133800597Y-111533925D01*
X133786450Y-111522315D01*
X133666046Y-111457957D01*
X133616202Y-111408994D01*
X133600500Y-111348599D01*
X133600500Y-111066255D01*
X133620185Y-110999216D01*
X133672989Y-110953461D01*
X133742147Y-110943517D01*
X133805703Y-110972542D01*
X133812181Y-110978574D01*
X134773351Y-111939744D01*
X134806836Y-112001067D01*
X134804331Y-112063420D01*
X134764699Y-112194067D01*
X134744417Y-112400000D01*
X134764699Y-112605932D01*
X134764700Y-112605934D01*
X134824768Y-112803954D01*
X134922315Y-112986450D01*
X134922317Y-112986452D01*
X135053589Y-113146410D01*
X135150209Y-113225702D01*
X135213550Y-113277685D01*
X135396046Y-113375232D01*
X135594066Y-113435300D01*
X135594065Y-113435300D01*
X135612529Y-113437118D01*
X135800000Y-113455583D01*
X136005934Y-113435300D01*
X136203954Y-113375232D01*
X136386450Y-113277685D01*
X136546410Y-113146410D01*
X136677685Y-112986450D01*
X136775232Y-112803954D01*
X136835300Y-112605934D01*
X136855583Y-112400000D01*
X136848251Y-112325561D01*
X136861269Y-112256918D01*
X136909334Y-112206207D01*
X136977185Y-112189532D01*
X137043280Y-112212188D01*
X137059335Y-112225728D01*
X137325149Y-112491542D01*
X137358634Y-112552865D01*
X137360871Y-112567066D01*
X137364699Y-112605933D01*
X137393386Y-112700500D01*
X137424768Y-112803954D01*
X137522315Y-112986450D01*
X137522317Y-112986452D01*
X137653589Y-113146410D01*
X137750209Y-113225702D01*
X137813550Y-113277685D01*
X137996046Y-113375232D01*
X138194066Y-113435300D01*
X138194065Y-113435300D01*
X138212529Y-113437118D01*
X138400000Y-113455583D01*
X138605934Y-113435300D01*
X138803954Y-113375232D01*
X138986450Y-113277685D01*
X139146410Y-113146410D01*
X139277685Y-112986450D01*
X139375232Y-112803954D01*
X139435300Y-112605934D01*
X139455583Y-112400000D01*
X139445734Y-112299998D01*
X142394318Y-112299998D01*
X142394318Y-112300001D01*
X142414955Y-112456760D01*
X142414956Y-112456762D01*
X142473474Y-112598038D01*
X142475464Y-112602841D01*
X142571718Y-112728282D01*
X142697159Y-112824536D01*
X142843238Y-112885044D01*
X142921619Y-112895363D01*
X142999999Y-112905682D01*
X143000000Y-112905682D01*
X143000001Y-112905682D01*
X143052254Y-112898802D01*
X143156762Y-112885044D01*
X143302841Y-112824536D01*
X143428282Y-112728282D01*
X143428283Y-112728279D01*
X143431093Y-112726124D01*
X143496263Y-112700930D01*
X143506580Y-112700500D01*
X143977725Y-112700500D01*
X143977727Y-112700500D01*
X144031505Y-112686090D01*
X144055263Y-112679725D01*
X144087355Y-112675500D01*
X144654619Y-112675500D01*
X144676232Y-112672904D01*
X144741077Y-112665117D01*
X144878658Y-112610862D01*
X144996500Y-112521500D01*
X144996500Y-112521499D01*
X144997639Y-112520636D01*
X145062950Y-112495813D01*
X145131314Y-112510241D01*
X145178102Y-112554341D01*
X145205056Y-112598039D01*
X145326961Y-112719944D01*
X145326965Y-112719947D01*
X145473688Y-112810448D01*
X145473699Y-112810453D01*
X145637347Y-112864680D01*
X145738351Y-112874999D01*
X146325000Y-112874999D01*
X146411640Y-112874999D01*
X146411654Y-112874998D01*
X146512652Y-112864680D01*
X146676300Y-112810453D01*
X146676311Y-112810448D01*
X146823034Y-112719947D01*
X146823038Y-112719944D01*
X146944944Y-112598038D01*
X146944947Y-112598034D01*
X147035448Y-112451311D01*
X147035453Y-112451300D01*
X147089680Y-112287652D01*
X147099999Y-112186654D01*
X147100000Y-112186641D01*
X147100000Y-112150000D01*
X146325000Y-112150000D01*
X146325000Y-112874999D01*
X145738351Y-112874999D01*
X145825000Y-112874998D01*
X145825000Y-111650000D01*
X146325000Y-111650000D01*
X147099999Y-111650000D01*
X147099999Y-111613360D01*
X147099998Y-111613345D01*
X147089680Y-111512347D01*
X147035453Y-111348699D01*
X147035448Y-111348688D01*
X146944947Y-111201965D01*
X146944944Y-111201961D01*
X146823038Y-111080055D01*
X146823034Y-111080052D01*
X146676311Y-110989551D01*
X146676300Y-110989546D01*
X146512652Y-110935319D01*
X146411654Y-110925000D01*
X146325000Y-110925000D01*
X146325000Y-111650000D01*
X145825000Y-111650000D01*
X145825000Y-110925000D01*
X145824999Y-110924999D01*
X145738360Y-110925000D01*
X145738343Y-110925001D01*
X145637347Y-110935319D01*
X145473699Y-110989546D01*
X145473688Y-110989551D01*
X145326965Y-111080052D01*
X145326961Y-111080055D01*
X145205055Y-111201961D01*
X145178101Y-111245659D01*
X145126152Y-111292382D01*
X145057189Y-111303602D01*
X144997639Y-111279363D01*
X144878660Y-111189139D01*
X144878658Y-111189138D01*
X144741077Y-111134883D01*
X144741076Y-111134882D01*
X144741074Y-111134882D01*
X144654619Y-111124500D01*
X144654618Y-111124500D01*
X143995382Y-111124500D01*
X143995381Y-111124500D01*
X143908925Y-111134882D01*
X143908924Y-111134882D01*
X143771339Y-111189139D01*
X143653499Y-111278499D01*
X143564139Y-111396339D01*
X143509882Y-111533924D01*
X143509882Y-111533925D01*
X143499500Y-111620381D01*
X143499500Y-111674918D01*
X143479815Y-111741957D01*
X143427011Y-111787712D01*
X143357853Y-111797656D01*
X143310845Y-111777858D01*
X143309881Y-111779528D01*
X143302843Y-111775465D01*
X143302838Y-111775463D01*
X143156762Y-111714956D01*
X143156760Y-111714955D01*
X143000001Y-111694318D01*
X142999999Y-111694318D01*
X142843239Y-111714955D01*
X142843237Y-111714956D01*
X142697160Y-111775463D01*
X142571718Y-111871718D01*
X142475463Y-111997160D01*
X142414956Y-112143237D01*
X142414955Y-112143239D01*
X142394318Y-112299998D01*
X139445734Y-112299998D01*
X139435300Y-112194066D01*
X139375232Y-111996046D01*
X139277685Y-111813550D01*
X139221331Y-111744882D01*
X139146410Y-111653589D01*
X139000597Y-111533925D01*
X138986450Y-111522315D01*
X138803954Y-111424768D01*
X138605934Y-111364700D01*
X138605932Y-111364699D01*
X138605934Y-111364699D01*
X138400000Y-111344417D01*
X138194067Y-111364699D01*
X137996043Y-111424769D01*
X137813546Y-111522317D01*
X137722006Y-111597441D01*
X137657695Y-111624753D01*
X137588828Y-111612961D01*
X137555661Y-111589268D01*
X136754894Y-110788501D01*
X136721409Y-110727178D01*
X136726393Y-110657486D01*
X136768265Y-110601553D01*
X136833729Y-110577136D01*
X136874661Y-110581044D01*
X136947273Y-110600500D01*
X136947276Y-110600500D01*
X140252725Y-110600500D01*
X140252727Y-110600500D01*
X140354588Y-110573207D01*
X140445913Y-110520480D01*
X141166394Y-109799998D01*
X145594318Y-109799998D01*
X145594318Y-109800001D01*
X145614955Y-109956760D01*
X145614956Y-109956762D01*
X145675464Y-110102841D01*
X145771718Y-110228282D01*
X145897159Y-110324536D01*
X146043238Y-110385044D01*
X146105015Y-110393177D01*
X146199999Y-110405682D01*
X146200000Y-110405682D01*
X146200001Y-110405682D01*
X146294985Y-110393177D01*
X146356762Y-110385044D01*
X146502841Y-110324536D01*
X146628282Y-110228282D01*
X146724536Y-110102841D01*
X146785044Y-109956762D01*
X146805682Y-109800000D01*
X146785044Y-109643238D01*
X146724536Y-109497159D01*
X146628282Y-109371718D01*
X146502841Y-109275464D01*
X146460563Y-109257952D01*
X146356762Y-109214956D01*
X146356760Y-109214955D01*
X146200001Y-109194318D01*
X146199999Y-109194318D01*
X146043239Y-109214955D01*
X146043237Y-109214956D01*
X145897160Y-109275463D01*
X145771718Y-109371718D01*
X145675463Y-109497160D01*
X145614956Y-109643237D01*
X145614955Y-109643239D01*
X145594318Y-109799998D01*
X141166394Y-109799998D01*
X142163295Y-108803096D01*
X142224616Y-108769613D01*
X142289966Y-108774286D01*
X142290216Y-108773463D01*
X142293845Y-108774563D01*
X142294307Y-108774597D01*
X142295492Y-108775063D01*
X142296041Y-108775229D01*
X142296046Y-108775232D01*
X142494066Y-108835300D01*
X142494065Y-108835300D01*
X142512529Y-108837118D01*
X142700000Y-108855583D01*
X142905934Y-108835300D01*
X143103954Y-108775232D01*
X143286450Y-108677685D01*
X143446410Y-108546410D01*
X143577685Y-108386450D01*
X143675232Y-108203954D01*
X143735300Y-108005934D01*
X143755583Y-107800000D01*
X143735300Y-107594066D01*
X143675232Y-107396046D01*
X143675230Y-107396043D01*
X143673463Y-107390216D01*
X143675276Y-107389665D01*
X143668749Y-107328959D01*
X143700023Y-107266479D01*
X143703069Y-107263322D01*
X145120480Y-105845913D01*
X145167016Y-105765310D01*
X145173207Y-105754587D01*
X145200500Y-105652727D01*
X145200500Y-102424000D01*
X145220185Y-102356961D01*
X145272989Y-102311206D01*
X145324500Y-102300000D01*
X147433637Y-102300000D01*
X147500676Y-102319685D01*
X147536811Y-102355217D01*
X147890667Y-102886000D01*
X147900001Y-102900001D01*
X147980591Y-102902985D01*
X148046854Y-102925137D01*
X148090623Y-102979598D01*
X148100000Y-103026900D01*
X148100000Y-113776000D01*
X148080315Y-113843039D01*
X148027511Y-113888794D01*
X147976000Y-113900000D01*
X129805392Y-113900000D01*
X129738353Y-113880315D01*
X129692598Y-113827511D01*
X129682654Y-113758353D01*
X129711679Y-113694797D01*
X129731081Y-113676734D01*
X129757187Y-113657190D01*
X129757190Y-113657187D01*
X129843350Y-113542093D01*
X129843354Y-113542086D01*
X129893596Y-113407379D01*
X129893598Y-113407372D01*
X129899999Y-113347844D01*
X129900000Y-113347827D01*
X129900000Y-113050000D01*
X128000000Y-113050000D01*
X128000000Y-113347844D01*
X128006401Y-113407372D01*
X128006403Y-113407379D01*
X128056645Y-113542086D01*
X128056649Y-113542093D01*
X128142809Y-113657187D01*
X128142812Y-113657190D01*
X128168919Y-113676734D01*
X128210790Y-113732668D01*
X128215774Y-113802359D01*
X128182288Y-113863682D01*
X128120965Y-113897166D01*
X128094608Y-113900000D01*
X125705392Y-113900000D01*
X125638353Y-113880315D01*
X125592598Y-113827511D01*
X125582654Y-113758353D01*
X125611679Y-113694797D01*
X125631081Y-113676734D01*
X125657187Y-113657190D01*
X125657190Y-113657187D01*
X125743350Y-113542093D01*
X125743354Y-113542086D01*
X125793596Y-113407379D01*
X125793598Y-113407372D01*
X125799999Y-113347844D01*
X125800000Y-113347827D01*
X125800000Y-113050000D01*
X123900000Y-113050000D01*
X123900000Y-113347844D01*
X123906401Y-113407372D01*
X123906403Y-113407379D01*
X123956645Y-113542086D01*
X123956649Y-113542093D01*
X124042809Y-113657187D01*
X124042812Y-113657190D01*
X124068919Y-113676734D01*
X124110790Y-113732668D01*
X124115774Y-113802359D01*
X124082288Y-113863682D01*
X124020965Y-113897166D01*
X123994608Y-113900000D01*
X123006500Y-113900000D01*
X122939461Y-113880315D01*
X122893706Y-113827511D01*
X122882500Y-113776000D01*
X122882500Y-112252155D01*
X123900000Y-112252155D01*
X123900000Y-112550000D01*
X125800000Y-112550000D01*
X125800000Y-112252172D01*
X125799999Y-112252155D01*
X125793598Y-112192627D01*
X125793596Y-112192620D01*
X125743354Y-112057913D01*
X125743350Y-112057906D01*
X125657190Y-111942812D01*
X125634007Y-111925457D01*
X125592137Y-111869523D01*
X125587153Y-111799831D01*
X125594885Y-111776105D01*
X125597585Y-111769991D01*
X125600500Y-111744865D01*
X125600500Y-111724500D01*
X125620185Y-111657461D01*
X125672989Y-111611706D01*
X125724500Y-111600500D01*
X126393420Y-111600500D01*
X126460459Y-111620185D01*
X126468907Y-111626124D01*
X126471716Y-111628279D01*
X126471718Y-111628282D01*
X126597159Y-111724536D01*
X126743238Y-111785044D01*
X126763504Y-111787712D01*
X126899999Y-111805682D01*
X126900000Y-111805682D01*
X126900001Y-111805682D01*
X126960964Y-111797656D01*
X127056762Y-111785044D01*
X127202841Y-111724536D01*
X127328282Y-111628282D01*
X127328283Y-111628279D01*
X127331093Y-111626124D01*
X127396263Y-111600930D01*
X127406580Y-111600500D01*
X128075501Y-111600500D01*
X128142540Y-111620185D01*
X128188295Y-111672989D01*
X128199501Y-111724500D01*
X128199501Y-111744856D01*
X128199502Y-111744882D01*
X128202413Y-111769985D01*
X128202414Y-111769986D01*
X128202415Y-111769991D01*
X128205117Y-111776111D01*
X128214185Y-111845388D01*
X128184359Y-111908572D01*
X128165992Y-111925457D01*
X128142814Y-111942807D01*
X128142808Y-111942814D01*
X128056649Y-112057906D01*
X128056645Y-112057913D01*
X128006403Y-112192620D01*
X128006401Y-112192627D01*
X128000000Y-112252155D01*
X128000000Y-112550000D01*
X129900000Y-112550000D01*
X129900000Y-112252172D01*
X129899999Y-112252155D01*
X129893598Y-112192627D01*
X129893596Y-112192620D01*
X129843354Y-112057913D01*
X129843350Y-112057906D01*
X129757190Y-111942812D01*
X129734007Y-111925457D01*
X129692137Y-111869523D01*
X129687153Y-111799831D01*
X129694885Y-111776105D01*
X129697585Y-111769991D01*
X129700500Y-111744865D01*
X129700499Y-110655136D01*
X129697915Y-110632853D01*
X129697586Y-110630012D01*
X129697585Y-110630010D01*
X129697585Y-110630009D01*
X129652206Y-110527235D01*
X129572765Y-110447794D01*
X129561620Y-110442873D01*
X129469992Y-110402415D01*
X129444865Y-110399500D01*
X128455143Y-110399500D01*
X128455117Y-110399502D01*
X128430012Y-110402413D01*
X128430008Y-110402415D01*
X128327235Y-110447793D01*
X128247794Y-110527234D01*
X128202415Y-110630006D01*
X128202415Y-110630008D01*
X128199500Y-110655131D01*
X128199500Y-110675500D01*
X128179815Y-110742539D01*
X128127011Y-110788294D01*
X128075500Y-110799500D01*
X127406580Y-110799500D01*
X127339541Y-110779815D01*
X127331093Y-110773876D01*
X127328283Y-110771720D01*
X127328282Y-110771718D01*
X127202841Y-110675464D01*
X127179732Y-110665892D01*
X127056762Y-110614956D01*
X127056760Y-110614955D01*
X126900001Y-110594318D01*
X126899999Y-110594318D01*
X126743239Y-110614955D01*
X126743237Y-110614956D01*
X126597160Y-110675463D01*
X126597159Y-110675464D01*
X126471718Y-110771718D01*
X126471716Y-110771720D01*
X126468907Y-110773876D01*
X126403737Y-110799070D01*
X126393420Y-110799500D01*
X125724499Y-110799500D01*
X125657460Y-110779815D01*
X125611705Y-110727011D01*
X125600499Y-110675500D01*
X125600499Y-110655143D01*
X125600499Y-110655136D01*
X125597915Y-110632853D01*
X125597586Y-110630012D01*
X125597585Y-110630010D01*
X125597585Y-110630009D01*
X125552206Y-110527235D01*
X125472765Y-110447794D01*
X125461620Y-110442873D01*
X125369992Y-110402415D01*
X125344865Y-110399500D01*
X124355143Y-110399500D01*
X124355117Y-110399502D01*
X124330012Y-110402413D01*
X124330008Y-110402415D01*
X124227235Y-110447793D01*
X124147794Y-110527234D01*
X124102415Y-110630006D01*
X124102415Y-110630008D01*
X124099500Y-110655131D01*
X124099500Y-111744856D01*
X124099502Y-111744882D01*
X124102413Y-111769985D01*
X124102414Y-111769986D01*
X124102415Y-111769991D01*
X124105117Y-111776111D01*
X124114185Y-111845388D01*
X124084359Y-111908572D01*
X124065992Y-111925457D01*
X124042814Y-111942807D01*
X124042808Y-111942814D01*
X123956649Y-112057906D01*
X123956645Y-112057913D01*
X123906403Y-112192620D01*
X123906401Y-112192627D01*
X123900000Y-112252155D01*
X122882500Y-112252155D01*
X122882500Y-105487269D01*
X124547817Y-105487269D01*
X124585471Y-105626035D01*
X124660691Y-105748561D01*
X124660695Y-105748567D01*
X124703667Y-105790262D01*
X124703681Y-105790274D01*
X125017166Y-106035195D01*
X125017167Y-106035195D01*
X125602045Y-105286586D01*
X125602045Y-105286585D01*
X124932236Y-104763274D01*
X124932234Y-104763274D01*
X124625745Y-105155564D01*
X124594129Y-105206430D01*
X124594125Y-105206437D01*
X124550783Y-105343520D01*
X124550783Y-105343524D01*
X124547817Y-105487269D01*
X122882500Y-105487269D01*
X122882500Y-90424986D01*
X123400001Y-90424986D01*
X123410494Y-90527697D01*
X123465641Y-90694119D01*
X123465643Y-90694124D01*
X123557684Y-90843345D01*
X123681654Y-90967315D01*
X123830875Y-91059356D01*
X123830880Y-91059358D01*
X123997302Y-91114505D01*
X123997309Y-91114506D01*
X124100019Y-91124999D01*
X124249999Y-91124999D01*
X124750000Y-91124999D01*
X124899972Y-91124999D01*
X124899986Y-91124998D01*
X125002697Y-91114505D01*
X125169119Y-91059358D01*
X125169124Y-91059356D01*
X125318345Y-90967315D01*
X125442315Y-90843345D01*
X125534356Y-90694124D01*
X125534358Y-90694119D01*
X125589505Y-90527697D01*
X125589506Y-90527690D01*
X125599999Y-90424986D01*
X129000001Y-90424986D01*
X129010494Y-90527697D01*
X129065641Y-90694119D01*
X129065643Y-90694124D01*
X129157684Y-90843345D01*
X129281654Y-90967315D01*
X129430875Y-91059356D01*
X129430880Y-91059358D01*
X129597302Y-91114505D01*
X129597309Y-91114506D01*
X129700019Y-91124999D01*
X129849999Y-91124999D01*
X130350000Y-91124999D01*
X130499972Y-91124999D01*
X130499986Y-91124998D01*
X130602697Y-91114505D01*
X130769119Y-91059358D01*
X130769124Y-91059356D01*
X130918345Y-90967315D01*
X131042315Y-90843345D01*
X131134356Y-90694124D01*
X131134358Y-90694119D01*
X131189505Y-90527697D01*
X131189506Y-90527690D01*
X131199999Y-90424986D01*
X132700001Y-90424986D01*
X132710494Y-90527697D01*
X132765641Y-90694119D01*
X132765643Y-90694124D01*
X132857684Y-90843345D01*
X132981654Y-90967315D01*
X133130875Y-91059356D01*
X133130880Y-91059358D01*
X133297302Y-91114505D01*
X133297309Y-91114506D01*
X133400019Y-91124999D01*
X133549999Y-91124999D01*
X134050000Y-91124999D01*
X134199972Y-91124999D01*
X134199986Y-91124998D01*
X134302697Y-91114505D01*
X134469119Y-91059358D01*
X134469124Y-91059356D01*
X134618345Y-90967315D01*
X134742315Y-90843345D01*
X134834356Y-90694124D01*
X134834358Y-90694119D01*
X134889505Y-90527697D01*
X134889506Y-90527690D01*
X134899999Y-90424986D01*
X140300001Y-90424986D01*
X140310494Y-90527697D01*
X140365641Y-90694119D01*
X140365643Y-90694124D01*
X140457684Y-90843345D01*
X140581654Y-90967315D01*
X140730875Y-91059356D01*
X140730880Y-91059358D01*
X140897302Y-91114505D01*
X140897309Y-91114506D01*
X141000019Y-91124999D01*
X141149999Y-91124999D01*
X141650000Y-91124999D01*
X141799972Y-91124999D01*
X141799986Y-91124998D01*
X141902697Y-91114505D01*
X142069119Y-91059358D01*
X142069124Y-91059356D01*
X142218345Y-90967315D01*
X142342315Y-90843345D01*
X142434356Y-90694124D01*
X142434358Y-90694119D01*
X142489505Y-90527697D01*
X142489506Y-90527690D01*
X142499999Y-90424986D01*
X142500000Y-90424973D01*
X142500000Y-89975000D01*
X141650000Y-89975000D01*
X141650000Y-91124999D01*
X141149999Y-91124999D01*
X141150000Y-91124998D01*
X141150000Y-89975000D01*
X140300001Y-89975000D01*
X140300001Y-90424986D01*
X134899999Y-90424986D01*
X134900000Y-90424973D01*
X134900000Y-89975000D01*
X134050000Y-89975000D01*
X134050000Y-91124999D01*
X133549999Y-91124999D01*
X133550000Y-91124998D01*
X133550000Y-89975000D01*
X132700001Y-89975000D01*
X132700001Y-90424986D01*
X131199999Y-90424986D01*
X131200000Y-90424973D01*
X131200000Y-89975000D01*
X130350000Y-89975000D01*
X130350000Y-91124999D01*
X129849999Y-91124999D01*
X129850000Y-91124998D01*
X129850000Y-89975000D01*
X129000001Y-89975000D01*
X129000001Y-90424986D01*
X125599999Y-90424986D01*
X125600000Y-90424973D01*
X125600000Y-89975000D01*
X124750000Y-89975000D01*
X124750000Y-91124999D01*
X124249999Y-91124999D01*
X124250000Y-91124998D01*
X124250000Y-89975000D01*
X123400001Y-89975000D01*
X123400001Y-90424986D01*
X122882500Y-90424986D01*
X122882500Y-88462500D01*
X122902185Y-88395461D01*
X122954989Y-88349706D01*
X123006500Y-88338500D01*
X123526477Y-88338500D01*
X123593516Y-88358185D01*
G37*
%TD.AperFunction*%
%TA.AperFunction,Conductor*%
G36*
X132296631Y-100716770D02*
G01*
X132366372Y-100750865D01*
X132366373Y-100750865D01*
X132366375Y-100750866D01*
X132439364Y-100761500D01*
X132439370Y-100761500D01*
X132660630Y-100761500D01*
X132660636Y-100761500D01*
X132733625Y-100750866D01*
X132745539Y-100745041D01*
X132814408Y-100733281D01*
X132854458Y-100745040D01*
X132866375Y-100750866D01*
X132939364Y-100761500D01*
X132939370Y-100761500D01*
X133160630Y-100761500D01*
X133160636Y-100761500D01*
X133233625Y-100750866D01*
X133245539Y-100745041D01*
X133314408Y-100733281D01*
X133354458Y-100745040D01*
X133366375Y-100750866D01*
X133439364Y-100761500D01*
X133439370Y-100761500D01*
X133660630Y-100761500D01*
X133660636Y-100761500D01*
X133733625Y-100750866D01*
X133745539Y-100745041D01*
X133814408Y-100733281D01*
X133854458Y-100745040D01*
X133866375Y-100750866D01*
X133939364Y-100761500D01*
X133939370Y-100761500D01*
X134160630Y-100761500D01*
X134160636Y-100761500D01*
X134233625Y-100750866D01*
X134245539Y-100745041D01*
X134314408Y-100733281D01*
X134354458Y-100745040D01*
X134366375Y-100750866D01*
X134439364Y-100761500D01*
X134439370Y-100761500D01*
X134660630Y-100761500D01*
X134660636Y-100761500D01*
X134733625Y-100750866D01*
X134745539Y-100745041D01*
X134814408Y-100733281D01*
X134854458Y-100745040D01*
X134866375Y-100750866D01*
X134939364Y-100761500D01*
X134939370Y-100761500D01*
X135160630Y-100761500D01*
X135160636Y-100761500D01*
X135233625Y-100750866D01*
X135245539Y-100745041D01*
X135314408Y-100733281D01*
X135354458Y-100745040D01*
X135366375Y-100750866D01*
X135439364Y-100761500D01*
X135439370Y-100761500D01*
X135660630Y-100761500D01*
X135660636Y-100761500D01*
X135733625Y-100750866D01*
X135745539Y-100745041D01*
X135814408Y-100733281D01*
X135854458Y-100745040D01*
X135866375Y-100750866D01*
X135939364Y-100761500D01*
X135939370Y-100761500D01*
X136160630Y-100761500D01*
X136160636Y-100761500D01*
X136233625Y-100750866D01*
X136245539Y-100745041D01*
X136314408Y-100733281D01*
X136354458Y-100745040D01*
X136366375Y-100750866D01*
X136439364Y-100761500D01*
X136439370Y-100761500D01*
X136660630Y-100761500D01*
X136660636Y-100761500D01*
X136733625Y-100750866D01*
X136745539Y-100745041D01*
X136814408Y-100733281D01*
X136854460Y-100745041D01*
X136866373Y-100750865D01*
X136868343Y-100751828D01*
X136919924Y-100798957D01*
X136937837Y-100866492D01*
X136928442Y-100910677D01*
X136914957Y-100943234D01*
X136914955Y-100943239D01*
X136894318Y-101099998D01*
X136894318Y-101100001D01*
X136914955Y-101256760D01*
X136914956Y-101256762D01*
X136955063Y-101353590D01*
X136975464Y-101402841D01*
X137071718Y-101528282D01*
X137197159Y-101624536D01*
X137330607Y-101679812D01*
X137385010Y-101723651D01*
X137407075Y-101789945D01*
X137406093Y-101810557D01*
X137394318Y-101899998D01*
X137394318Y-101900001D01*
X137414955Y-102056760D01*
X137414956Y-102056762D01*
X137475004Y-102201732D01*
X137475464Y-102202841D01*
X137571718Y-102328282D01*
X137697159Y-102424536D01*
X137843238Y-102485044D01*
X137913681Y-102494318D01*
X137999999Y-102505682D01*
X138000000Y-102505682D01*
X138000001Y-102505682D01*
X138054864Y-102498459D01*
X138156762Y-102485044D01*
X138253048Y-102445160D01*
X138322516Y-102437692D01*
X138384996Y-102468967D01*
X138420648Y-102529056D01*
X138424500Y-102559722D01*
X138424500Y-102746636D01*
X138431861Y-102797159D01*
X138435134Y-102819625D01*
X138440960Y-102831542D01*
X138452717Y-102900416D01*
X138440960Y-102940456D01*
X138435134Y-102952375D01*
X138424500Y-103025364D01*
X138424500Y-103246636D01*
X138435134Y-103319625D01*
X138440960Y-103331542D01*
X138452717Y-103400416D01*
X138440960Y-103440456D01*
X138435134Y-103452375D01*
X138424500Y-103525364D01*
X138424500Y-103746636D01*
X138432434Y-103801091D01*
X138435134Y-103819625D01*
X138440960Y-103831542D01*
X138452717Y-103900416D01*
X138440960Y-103940456D01*
X138435134Y-103952375D01*
X138424500Y-104025364D01*
X138424500Y-104246636D01*
X138435134Y-104319625D01*
X138440960Y-104331542D01*
X138452717Y-104400416D01*
X138440960Y-104440456D01*
X138435134Y-104452375D01*
X138424500Y-104525364D01*
X138424500Y-104746636D01*
X138435134Y-104819625D01*
X138440960Y-104831542D01*
X138452717Y-104900416D01*
X138440960Y-104940456D01*
X138435134Y-104952375D01*
X138424500Y-105025364D01*
X138424500Y-105246636D01*
X138431861Y-105297159D01*
X138435134Y-105319625D01*
X138440960Y-105331542D01*
X138452717Y-105400416D01*
X138440960Y-105440456D01*
X138439601Y-105443237D01*
X138435134Y-105452375D01*
X138435133Y-105452379D01*
X138433312Y-105464877D01*
X138404167Y-105528378D01*
X138345317Y-105566040D01*
X138275447Y-105565908D01*
X138216741Y-105528022D01*
X138187837Y-105464411D01*
X138187669Y-105463180D01*
X138185905Y-105449784D01*
X138185044Y-105443238D01*
X138124536Y-105297159D01*
X138028282Y-105171718D01*
X137902841Y-105075464D01*
X137885183Y-105068150D01*
X137756762Y-105014956D01*
X137756760Y-105014955D01*
X137600001Y-104994318D01*
X137599999Y-104994318D01*
X137443239Y-105014955D01*
X137443237Y-105014956D01*
X137297160Y-105075463D01*
X137171718Y-105171718D01*
X137075463Y-105297160D01*
X137015510Y-105441899D01*
X136971669Y-105496302D01*
X136905374Y-105518367D01*
X136837675Y-105501087D01*
X136825463Y-105492822D01*
X136802842Y-105475464D01*
X136656762Y-105414956D01*
X136656760Y-105414955D01*
X136500001Y-105394318D01*
X136499999Y-105394318D01*
X136343239Y-105414955D01*
X136343237Y-105414956D01*
X136197160Y-105475463D01*
X136071718Y-105571718D01*
X135975463Y-105697160D01*
X135914956Y-105843237D01*
X135914955Y-105843239D01*
X135894318Y-105999998D01*
X135894318Y-106000001D01*
X135914955Y-106156760D01*
X135914956Y-106156762D01*
X135952180Y-106246630D01*
X135975464Y-106302841D01*
X136071718Y-106428282D01*
X136197159Y-106524536D01*
X136343238Y-106585044D01*
X136500000Y-106605682D01*
X136500001Y-106605681D01*
X136503513Y-106606144D01*
X136567410Y-106634410D01*
X136575009Y-106641402D01*
X136613181Y-106679574D01*
X136646666Y-106740897D01*
X136649500Y-106767255D01*
X136649500Y-106886500D01*
X136629815Y-106953539D01*
X136577011Y-106999294D01*
X136525500Y-107010500D01*
X136439364Y-107010500D01*
X136376802Y-107019614D01*
X136366374Y-107021134D01*
X136358699Y-107024886D01*
X136354457Y-107026960D01*
X136285584Y-107038717D01*
X136245543Y-107026960D01*
X136233625Y-107021134D01*
X136160636Y-107010500D01*
X135939364Y-107010500D01*
X135876802Y-107019614D01*
X135866374Y-107021134D01*
X135858699Y-107024886D01*
X135854457Y-107026960D01*
X135785584Y-107038717D01*
X135745543Y-107026960D01*
X135733625Y-107021134D01*
X135660636Y-107010500D01*
X135439364Y-107010500D01*
X135376802Y-107019614D01*
X135366374Y-107021134D01*
X135358699Y-107024886D01*
X135354457Y-107026960D01*
X135285584Y-107038717D01*
X135245543Y-107026960D01*
X135233625Y-107021134D01*
X135160636Y-107010500D01*
X134939364Y-107010500D01*
X134876802Y-107019614D01*
X134866374Y-107021134D01*
X134858699Y-107024886D01*
X134854457Y-107026960D01*
X134785584Y-107038717D01*
X134745543Y-107026960D01*
X134733625Y-107021134D01*
X134660636Y-107010500D01*
X134439364Y-107010500D01*
X134376802Y-107019614D01*
X134366374Y-107021134D01*
X134358699Y-107024886D01*
X134354457Y-107026960D01*
X134285584Y-107038717D01*
X134245543Y-107026960D01*
X134233625Y-107021134D01*
X134160636Y-107010500D01*
X133939364Y-107010500D01*
X133876802Y-107019614D01*
X133866374Y-107021134D01*
X133858699Y-107024886D01*
X133854457Y-107026960D01*
X133785584Y-107038717D01*
X133745543Y-107026960D01*
X133733625Y-107021134D01*
X133660636Y-107010500D01*
X133439364Y-107010500D01*
X133376802Y-107019614D01*
X133366374Y-107021134D01*
X133358699Y-107024886D01*
X133354457Y-107026960D01*
X133285584Y-107038717D01*
X133245543Y-107026960D01*
X133233625Y-107021134D01*
X133160636Y-107010500D01*
X132939364Y-107010500D01*
X132876802Y-107019614D01*
X132866374Y-107021134D01*
X132858699Y-107024886D01*
X132854457Y-107026960D01*
X132785584Y-107038717D01*
X132745543Y-107026960D01*
X132733625Y-107021134D01*
X132660636Y-107010500D01*
X132439364Y-107010500D01*
X132390704Y-107017589D01*
X132366372Y-107021134D01*
X132296630Y-107055229D01*
X132227757Y-107066987D01*
X132163460Y-107039644D01*
X132124154Y-106981879D01*
X132122316Y-106912033D01*
X132130771Y-106889367D01*
X132164865Y-106819627D01*
X132164864Y-106819627D01*
X132164866Y-106819625D01*
X132175500Y-106746636D01*
X132175500Y-106525364D01*
X132164866Y-106452375D01*
X132159041Y-106440460D01*
X132147281Y-106371592D01*
X132159040Y-106331541D01*
X132164866Y-106319625D01*
X132175500Y-106246636D01*
X132175500Y-106160500D01*
X132195185Y-106093461D01*
X132247989Y-106047706D01*
X132299500Y-106036500D01*
X132528809Y-106036500D01*
X132576261Y-106045939D01*
X132598628Y-106055203D01*
X132623841Y-106065647D01*
X132702222Y-106075966D01*
X132780602Y-106086285D01*
X132780603Y-106086285D01*
X132780604Y-106086285D01*
X132832857Y-106079405D01*
X132937365Y-106065647D01*
X133083444Y-106005139D01*
X133208885Y-105908885D01*
X133305139Y-105783444D01*
X133365647Y-105637365D01*
X133384676Y-105492822D01*
X133386285Y-105480604D01*
X133386285Y-105480601D01*
X133365647Y-105323842D01*
X133365647Y-105323841D01*
X133305139Y-105177762D01*
X133208885Y-105052321D01*
X133083444Y-104956067D01*
X133074528Y-104952374D01*
X132937365Y-104895559D01*
X132937363Y-104895558D01*
X132780604Y-104874921D01*
X132780602Y-104874921D01*
X132623842Y-104895558D01*
X132623840Y-104895559D01*
X132477760Y-104956067D01*
X132364525Y-105042956D01*
X132299356Y-105068150D01*
X132230911Y-105054111D01*
X132180922Y-105005297D01*
X132166335Y-104962458D01*
X132164866Y-104952375D01*
X132159041Y-104940460D01*
X132147281Y-104871592D01*
X132159040Y-104831541D01*
X132164866Y-104819625D01*
X132175500Y-104746636D01*
X132175500Y-104707052D01*
X132195185Y-104640013D01*
X132205200Y-104627585D01*
X132205147Y-104627544D01*
X132302261Y-104500981D01*
X132302263Y-104500979D01*
X132360198Y-104361108D01*
X132360199Y-104361103D01*
X132370088Y-104286000D01*
X132107400Y-104286000D01*
X132040361Y-104266315D01*
X132024368Y-104253428D01*
X132021213Y-104251175D01*
X132013493Y-104247401D01*
X131961910Y-104200274D01*
X131943995Y-104132741D01*
X131965435Y-104066242D01*
X132013493Y-104024599D01*
X132021211Y-104020826D01*
X132021213Y-104020824D01*
X132029575Y-104014855D01*
X132030644Y-104016353D01*
X132081042Y-103988834D01*
X132107400Y-103986000D01*
X132370088Y-103986000D01*
X132370088Y-103985999D01*
X132360199Y-103910896D01*
X132360198Y-103910891D01*
X132343493Y-103870560D01*
X132336024Y-103801091D01*
X132367299Y-103738612D01*
X132427388Y-103702960D01*
X132441857Y-103700171D01*
X132556762Y-103685044D01*
X132702841Y-103624536D01*
X132828282Y-103528282D01*
X132924536Y-103402841D01*
X132985044Y-103256762D01*
X133005682Y-103100000D01*
X133002799Y-103078104D01*
X132985044Y-102943239D01*
X132985044Y-102943238D01*
X132924536Y-102797159D01*
X132828282Y-102671718D01*
X132702841Y-102575464D01*
X132556762Y-102514956D01*
X132556760Y-102514955D01*
X132400001Y-102494318D01*
X132399999Y-102494318D01*
X132286766Y-102509225D01*
X132217731Y-102498459D01*
X132165475Y-102452079D01*
X132159209Y-102440804D01*
X132159069Y-102440518D01*
X132147274Y-102371651D01*
X132159040Y-102331541D01*
X132164866Y-102319625D01*
X132175500Y-102246636D01*
X132175500Y-102025364D01*
X132164866Y-101952375D01*
X132159041Y-101940460D01*
X132147281Y-101871592D01*
X132159040Y-101831541D01*
X132164866Y-101819625D01*
X132175500Y-101746636D01*
X132175500Y-101525364D01*
X132164866Y-101452375D01*
X132159041Y-101440460D01*
X132147281Y-101371592D01*
X132159040Y-101331541D01*
X132164866Y-101319625D01*
X132175500Y-101246636D01*
X132175500Y-101025364D01*
X132164866Y-100952375D01*
X132164864Y-100952371D01*
X132130770Y-100882631D01*
X132119010Y-100813758D01*
X132146353Y-100749461D01*
X132204117Y-100710153D01*
X132273963Y-100708315D01*
X132296631Y-100716770D01*
G37*
%TD.AperFunction*%
%TD*%
M02*
