%TF.GenerationSoftware,KiCad,Pcbnew,8.0.3-8.0.3-0~ubuntu22.04.1*%
%TF.CreationDate,2024-07-04T17:08:58-06:00*%
%TF.ProjectId,stm32g070 and DRV8311 single motor board - V1 Alpha,73746d33-3267-4303-9730-20616e642044,rev?*%
%TF.SameCoordinates,Original*%
%TF.FileFunction,Legend,Bot*%
%TF.FilePolarity,Positive*%
%FSLAX46Y46*%
G04 Gerber Fmt 4.6, Leading zero omitted, Abs format (unit mm)*
G04 Created by KiCad (PCBNEW 8.0.3-8.0.3-0~ubuntu22.04.1) date 2024-07-04 17:08:58*
%MOMM*%
%LPD*%
G01*
G04 APERTURE LIST*
G04 Aperture macros list*
%AMRoundRect*
0 Rectangle with rounded corners*
0 $1 Rounding radius*
0 $2 $3 $4 $5 $6 $7 $8 $9 X,Y pos of 4 corners*
0 Add a 4 corners polygon primitive as box body*
4,1,4,$2,$3,$4,$5,$6,$7,$8,$9,$2,$3,0*
0 Add four circle primitives for the rounded corners*
1,1,$1+$1,$2,$3*
1,1,$1+$1,$4,$5*
1,1,$1+$1,$6,$7*
1,1,$1+$1,$8,$9*
0 Add four rect primitives between the rounded corners*
20,1,$1+$1,$2,$3,$4,$5,0*
20,1,$1+$1,$4,$5,$6,$7,0*
20,1,$1+$1,$6,$7,$8,$9,0*
20,1,$1+$1,$8,$9,$2,$3,0*%
G04 Aperture macros list end*
%ADD10C,0.150000*%
%ADD11C,0.152400*%
%ADD12C,0.120000*%
%ADD13C,0.000000*%
%ADD14RoundRect,0.200000X0.450000X-0.200000X0.450000X0.200000X-0.450000X0.200000X-0.450000X-0.200000X0*%
%ADD15O,1.300000X0.800000*%
%ADD16C,1.200000*%
%ADD17R,1.700000X1.700000*%
%ADD18O,1.700000X1.700000*%
%ADD19C,0.600000*%
%ADD20R,1.800000X3.400000*%
%ADD21C,1.500000*%
%ADD22R,1.500000X1.000000*%
%ADD23RoundRect,0.200000X-0.200000X-0.275000X0.200000X-0.275000X0.200000X0.275000X-0.200000X0.275000X0*%
%ADD24RoundRect,0.225000X0.225000X0.250000X-0.225000X0.250000X-0.225000X-0.250000X0.225000X-0.250000X0*%
%ADD25R,1.000000X1.500000*%
%ADD26RoundRect,0.200000X0.200000X0.275000X-0.200000X0.275000X-0.200000X-0.275000X0.200000X-0.275000X0*%
%ADD27RoundRect,0.200000X-0.275000X0.200000X-0.275000X-0.200000X0.275000X-0.200000X0.275000X0.200000X0*%
%ADD28RoundRect,0.237500X0.044194X0.380070X-0.380070X-0.044194X-0.044194X-0.380070X0.380070X0.044194X0*%
%ADD29R,4.000000X4.000000*%
%ADD30RoundRect,0.218750X-0.218750X-0.256250X0.218750X-0.256250X0.218750X0.256250X-0.218750X0.256250X0*%
%ADD31RoundRect,0.225000X-0.225000X-0.250000X0.225000X-0.250000X0.225000X0.250000X-0.225000X0.250000X0*%
%ADD32R,0.580000X0.300000*%
%ADD33R,0.579882X0.249936*%
%ADD34R,0.350000X0.630000*%
G04 APERTURE END LIST*
D10*
X137269819Y-88736779D02*
X136269819Y-88736779D01*
X136269819Y-88736779D02*
X136984104Y-89070112D01*
X136984104Y-89070112D02*
X136269819Y-89403445D01*
X136269819Y-89403445D02*
X137269819Y-89403445D01*
X136269819Y-90070112D02*
X136269819Y-90260588D01*
X136269819Y-90260588D02*
X136317438Y-90355826D01*
X136317438Y-90355826D02*
X136412676Y-90451064D01*
X136412676Y-90451064D02*
X136603152Y-90498683D01*
X136603152Y-90498683D02*
X136936485Y-90498683D01*
X136936485Y-90498683D02*
X137126961Y-90451064D01*
X137126961Y-90451064D02*
X137222200Y-90355826D01*
X137222200Y-90355826D02*
X137269819Y-90260588D01*
X137269819Y-90260588D02*
X137269819Y-90070112D01*
X137269819Y-90070112D02*
X137222200Y-89974874D01*
X137222200Y-89974874D02*
X137126961Y-89879636D01*
X137126961Y-89879636D02*
X136936485Y-89832017D01*
X136936485Y-89832017D02*
X136603152Y-89832017D01*
X136603152Y-89832017D02*
X136412676Y-89879636D01*
X136412676Y-89879636D02*
X136317438Y-89974874D01*
X136317438Y-89974874D02*
X136269819Y-90070112D01*
X137222200Y-90879636D02*
X137269819Y-91022493D01*
X137269819Y-91022493D02*
X137269819Y-91260588D01*
X137269819Y-91260588D02*
X137222200Y-91355826D01*
X137222200Y-91355826D02*
X137174580Y-91403445D01*
X137174580Y-91403445D02*
X137079342Y-91451064D01*
X137079342Y-91451064D02*
X136984104Y-91451064D01*
X136984104Y-91451064D02*
X136888866Y-91403445D01*
X136888866Y-91403445D02*
X136841247Y-91355826D01*
X136841247Y-91355826D02*
X136793628Y-91260588D01*
X136793628Y-91260588D02*
X136746009Y-91070112D01*
X136746009Y-91070112D02*
X136698390Y-90974874D01*
X136698390Y-90974874D02*
X136650771Y-90927255D01*
X136650771Y-90927255D02*
X136555533Y-90879636D01*
X136555533Y-90879636D02*
X136460295Y-90879636D01*
X136460295Y-90879636D02*
X136365057Y-90927255D01*
X136365057Y-90927255D02*
X136317438Y-90974874D01*
X136317438Y-90974874D02*
X136269819Y-91070112D01*
X136269819Y-91070112D02*
X136269819Y-91308207D01*
X136269819Y-91308207D02*
X136317438Y-91451064D01*
X137269819Y-91879636D02*
X136269819Y-91879636D01*
X137810839Y-109984104D02*
X137334649Y-109984104D01*
X137906077Y-110269819D02*
X137572744Y-109269819D01*
X137572744Y-109269819D02*
X137239411Y-110269819D01*
X136906077Y-110269819D02*
X136906077Y-109269819D01*
X136906077Y-109269819D02*
X136667982Y-109269819D01*
X136667982Y-109269819D02*
X136525125Y-109317438D01*
X136525125Y-109317438D02*
X136429887Y-109412676D01*
X136429887Y-109412676D02*
X136382268Y-109507914D01*
X136382268Y-109507914D02*
X136334649Y-109698390D01*
X136334649Y-109698390D02*
X136334649Y-109841247D01*
X136334649Y-109841247D02*
X136382268Y-110031723D01*
X136382268Y-110031723D02*
X136429887Y-110126961D01*
X136429887Y-110126961D02*
X136525125Y-110222200D01*
X136525125Y-110222200D02*
X136667982Y-110269819D01*
X136667982Y-110269819D02*
X136906077Y-110269819D01*
X135334649Y-110174580D02*
X135382268Y-110222200D01*
X135382268Y-110222200D02*
X135525125Y-110269819D01*
X135525125Y-110269819D02*
X135620363Y-110269819D01*
X135620363Y-110269819D02*
X135763220Y-110222200D01*
X135763220Y-110222200D02*
X135858458Y-110126961D01*
X135858458Y-110126961D02*
X135906077Y-110031723D01*
X135906077Y-110031723D02*
X135953696Y-109841247D01*
X135953696Y-109841247D02*
X135953696Y-109698390D01*
X135953696Y-109698390D02*
X135906077Y-109507914D01*
X135906077Y-109507914D02*
X135858458Y-109412676D01*
X135858458Y-109412676D02*
X135763220Y-109317438D01*
X135763220Y-109317438D02*
X135620363Y-109269819D01*
X135620363Y-109269819D02*
X135525125Y-109269819D01*
X135525125Y-109269819D02*
X135382268Y-109317438D01*
X135382268Y-109317438D02*
X135334649Y-109365057D01*
X134382268Y-110269819D02*
X134953696Y-110269819D01*
X134667982Y-110269819D02*
X134667982Y-109269819D01*
X134667982Y-109269819D02*
X134763220Y-109412676D01*
X134763220Y-109412676D02*
X134858458Y-109507914D01*
X134858458Y-109507914D02*
X134953696Y-109555533D01*
X133429887Y-110269819D02*
X134001315Y-110269819D01*
X133715601Y-110269819D02*
X133715601Y-109269819D01*
X133715601Y-109269819D02*
X133810839Y-109412676D01*
X133810839Y-109412676D02*
X133906077Y-109507914D01*
X133906077Y-109507914D02*
X134001315Y-109555533D01*
X124682561Y-107039411D02*
X124730180Y-107134649D01*
X124730180Y-107134649D02*
X124730180Y-107277506D01*
X124730180Y-107277506D02*
X124682561Y-107420363D01*
X124682561Y-107420363D02*
X124587323Y-107515601D01*
X124587323Y-107515601D02*
X124492085Y-107563220D01*
X124492085Y-107563220D02*
X124301609Y-107610839D01*
X124301609Y-107610839D02*
X124158752Y-107610839D01*
X124158752Y-107610839D02*
X123968276Y-107563220D01*
X123968276Y-107563220D02*
X123873038Y-107515601D01*
X123873038Y-107515601D02*
X123777800Y-107420363D01*
X123777800Y-107420363D02*
X123730180Y-107277506D01*
X123730180Y-107277506D02*
X123730180Y-107182268D01*
X123730180Y-107182268D02*
X123777800Y-107039411D01*
X123777800Y-107039411D02*
X123825419Y-106991792D01*
X123825419Y-106991792D02*
X124158752Y-106991792D01*
X124158752Y-106991792D02*
X124158752Y-107182268D01*
X123730180Y-106563220D02*
X124730180Y-106563220D01*
X124730180Y-106563220D02*
X123730180Y-105991792D01*
X123730180Y-105991792D02*
X124730180Y-105991792D01*
X123730180Y-105515601D02*
X124730180Y-105515601D01*
X124730180Y-105515601D02*
X124730180Y-105277506D01*
X124730180Y-105277506D02*
X124682561Y-105134649D01*
X124682561Y-105134649D02*
X124587323Y-105039411D01*
X124587323Y-105039411D02*
X124492085Y-104991792D01*
X124492085Y-104991792D02*
X124301609Y-104944173D01*
X124301609Y-104944173D02*
X124158752Y-104944173D01*
X124158752Y-104944173D02*
X123968276Y-104991792D01*
X123968276Y-104991792D02*
X123873038Y-105039411D01*
X123873038Y-105039411D02*
X123777800Y-105134649D01*
X123777800Y-105134649D02*
X123730180Y-105277506D01*
X123730180Y-105277506D02*
X123730180Y-105515601D01*
X154874580Y-94708207D02*
X154922200Y-94660588D01*
X154922200Y-94660588D02*
X154969819Y-94517731D01*
X154969819Y-94517731D02*
X154969819Y-94422493D01*
X154969819Y-94422493D02*
X154922200Y-94279636D01*
X154922200Y-94279636D02*
X154826961Y-94184398D01*
X154826961Y-94184398D02*
X154731723Y-94136779D01*
X154731723Y-94136779D02*
X154541247Y-94089160D01*
X154541247Y-94089160D02*
X154398390Y-94089160D01*
X154398390Y-94089160D02*
X154207914Y-94136779D01*
X154207914Y-94136779D02*
X154112676Y-94184398D01*
X154112676Y-94184398D02*
X154017438Y-94279636D01*
X154017438Y-94279636D02*
X153969819Y-94422493D01*
X153969819Y-94422493D02*
X153969819Y-94517731D01*
X153969819Y-94517731D02*
X154017438Y-94660588D01*
X154017438Y-94660588D02*
X154065057Y-94708207D01*
X144810839Y-104122200D02*
X144667982Y-104169819D01*
X144667982Y-104169819D02*
X144429887Y-104169819D01*
X144429887Y-104169819D02*
X144334649Y-104122200D01*
X144334649Y-104122200D02*
X144287030Y-104074580D01*
X144287030Y-104074580D02*
X144239411Y-103979342D01*
X144239411Y-103979342D02*
X144239411Y-103884104D01*
X144239411Y-103884104D02*
X144287030Y-103788866D01*
X144287030Y-103788866D02*
X144334649Y-103741247D01*
X144334649Y-103741247D02*
X144429887Y-103693628D01*
X144429887Y-103693628D02*
X144620363Y-103646009D01*
X144620363Y-103646009D02*
X144715601Y-103598390D01*
X144715601Y-103598390D02*
X144763220Y-103550771D01*
X144763220Y-103550771D02*
X144810839Y-103455533D01*
X144810839Y-103455533D02*
X144810839Y-103360295D01*
X144810839Y-103360295D02*
X144763220Y-103265057D01*
X144763220Y-103265057D02*
X144715601Y-103217438D01*
X144715601Y-103217438D02*
X144620363Y-103169819D01*
X144620363Y-103169819D02*
X144382268Y-103169819D01*
X144382268Y-103169819D02*
X144239411Y-103217438D01*
X143906077Y-103169819D02*
X143667982Y-104169819D01*
X143667982Y-104169819D02*
X143477506Y-103455533D01*
X143477506Y-103455533D02*
X143287030Y-104169819D01*
X143287030Y-104169819D02*
X143048935Y-103169819D01*
X142667982Y-104169819D02*
X142667982Y-103169819D01*
X142667982Y-103169819D02*
X142429887Y-103169819D01*
X142429887Y-103169819D02*
X142287030Y-103217438D01*
X142287030Y-103217438D02*
X142191792Y-103312676D01*
X142191792Y-103312676D02*
X142144173Y-103407914D01*
X142144173Y-103407914D02*
X142096554Y-103598390D01*
X142096554Y-103598390D02*
X142096554Y-103741247D01*
X142096554Y-103741247D02*
X142144173Y-103931723D01*
X142144173Y-103931723D02*
X142191792Y-104026961D01*
X142191792Y-104026961D02*
X142287030Y-104122200D01*
X142287030Y-104122200D02*
X142429887Y-104169819D01*
X142429887Y-104169819D02*
X142667982Y-104169819D01*
X138922200Y-88889160D02*
X138969819Y-89032017D01*
X138969819Y-89032017D02*
X138969819Y-89270112D01*
X138969819Y-89270112D02*
X138922200Y-89365350D01*
X138922200Y-89365350D02*
X138874580Y-89412969D01*
X138874580Y-89412969D02*
X138779342Y-89460588D01*
X138779342Y-89460588D02*
X138684104Y-89460588D01*
X138684104Y-89460588D02*
X138588866Y-89412969D01*
X138588866Y-89412969D02*
X138541247Y-89365350D01*
X138541247Y-89365350D02*
X138493628Y-89270112D01*
X138493628Y-89270112D02*
X138446009Y-89079636D01*
X138446009Y-89079636D02*
X138398390Y-88984398D01*
X138398390Y-88984398D02*
X138350771Y-88936779D01*
X138350771Y-88936779D02*
X138255533Y-88889160D01*
X138255533Y-88889160D02*
X138160295Y-88889160D01*
X138160295Y-88889160D02*
X138065057Y-88936779D01*
X138065057Y-88936779D02*
X138017438Y-88984398D01*
X138017438Y-88984398D02*
X137969819Y-89079636D01*
X137969819Y-89079636D02*
X137969819Y-89317731D01*
X137969819Y-89317731D02*
X138017438Y-89460588D01*
X138874580Y-90460588D02*
X138922200Y-90412969D01*
X138922200Y-90412969D02*
X138969819Y-90270112D01*
X138969819Y-90270112D02*
X138969819Y-90174874D01*
X138969819Y-90174874D02*
X138922200Y-90032017D01*
X138922200Y-90032017D02*
X138826961Y-89936779D01*
X138826961Y-89936779D02*
X138731723Y-89889160D01*
X138731723Y-89889160D02*
X138541247Y-89841541D01*
X138541247Y-89841541D02*
X138398390Y-89841541D01*
X138398390Y-89841541D02*
X138207914Y-89889160D01*
X138207914Y-89889160D02*
X138112676Y-89936779D01*
X138112676Y-89936779D02*
X138017438Y-90032017D01*
X138017438Y-90032017D02*
X137969819Y-90174874D01*
X137969819Y-90174874D02*
X137969819Y-90270112D01*
X137969819Y-90270112D02*
X138017438Y-90412969D01*
X138017438Y-90412969D02*
X138065057Y-90460588D01*
X138969819Y-90889160D02*
X137969819Y-90889160D01*
X138969819Y-91460588D02*
X138398390Y-91032017D01*
X137969819Y-91460588D02*
X138541247Y-90889160D01*
X147291792Y-92769819D02*
X147625125Y-92293628D01*
X147863220Y-92769819D02*
X147863220Y-91769819D01*
X147863220Y-91769819D02*
X147482268Y-91769819D01*
X147482268Y-91769819D02*
X147387030Y-91817438D01*
X147387030Y-91817438D02*
X147339411Y-91865057D01*
X147339411Y-91865057D02*
X147291792Y-91960295D01*
X147291792Y-91960295D02*
X147291792Y-92103152D01*
X147291792Y-92103152D02*
X147339411Y-92198390D01*
X147339411Y-92198390D02*
X147387030Y-92246009D01*
X147387030Y-92246009D02*
X147482268Y-92293628D01*
X147482268Y-92293628D02*
X147863220Y-92293628D01*
X146958458Y-91769819D02*
X146291792Y-92769819D01*
X146291792Y-91769819D02*
X146958458Y-92769819D01*
X129617438Y-89460588D02*
X129569819Y-89365350D01*
X129569819Y-89365350D02*
X129569819Y-89222493D01*
X129569819Y-89222493D02*
X129617438Y-89079636D01*
X129617438Y-89079636D02*
X129712676Y-88984398D01*
X129712676Y-88984398D02*
X129807914Y-88936779D01*
X129807914Y-88936779D02*
X129998390Y-88889160D01*
X129998390Y-88889160D02*
X130141247Y-88889160D01*
X130141247Y-88889160D02*
X130331723Y-88936779D01*
X130331723Y-88936779D02*
X130426961Y-88984398D01*
X130426961Y-88984398D02*
X130522200Y-89079636D01*
X130522200Y-89079636D02*
X130569819Y-89222493D01*
X130569819Y-89222493D02*
X130569819Y-89317731D01*
X130569819Y-89317731D02*
X130522200Y-89460588D01*
X130522200Y-89460588D02*
X130474580Y-89508207D01*
X130474580Y-89508207D02*
X130141247Y-89508207D01*
X130141247Y-89508207D02*
X130141247Y-89317731D01*
X130569819Y-89936779D02*
X129569819Y-89936779D01*
X129569819Y-89936779D02*
X130569819Y-90508207D01*
X130569819Y-90508207D02*
X129569819Y-90508207D01*
X130569819Y-90984398D02*
X129569819Y-90984398D01*
X129569819Y-90984398D02*
X129569819Y-91222493D01*
X129569819Y-91222493D02*
X129617438Y-91365350D01*
X129617438Y-91365350D02*
X129712676Y-91460588D01*
X129712676Y-91460588D02*
X129807914Y-91508207D01*
X129807914Y-91508207D02*
X129998390Y-91555826D01*
X129998390Y-91555826D02*
X130141247Y-91555826D01*
X130141247Y-91555826D02*
X130331723Y-91508207D01*
X130331723Y-91508207D02*
X130426961Y-91460588D01*
X130426961Y-91460588D02*
X130522200Y-91365350D01*
X130522200Y-91365350D02*
X130569819Y-91222493D01*
X130569819Y-91222493D02*
X130569819Y-90984398D01*
X158930180Y-117406077D02*
X157930180Y-117072744D01*
X157930180Y-117072744D02*
X158930180Y-116739411D01*
X157930180Y-115882268D02*
X157930180Y-116453696D01*
X157930180Y-116167982D02*
X158930180Y-116167982D01*
X158930180Y-116167982D02*
X158787323Y-116263220D01*
X158787323Y-116263220D02*
X158692085Y-116358458D01*
X158692085Y-116358458D02*
X158644466Y-116453696D01*
X158215895Y-114739410D02*
X158215895Y-114263220D01*
X157930180Y-114834648D02*
X158930180Y-114501315D01*
X158930180Y-114501315D02*
X157930180Y-114167982D01*
X157930180Y-113691791D02*
X157977800Y-113787029D01*
X157977800Y-113787029D02*
X158073038Y-113834648D01*
X158073038Y-113834648D02*
X158930180Y-113834648D01*
X158596847Y-113310838D02*
X157596847Y-113310838D01*
X158549228Y-113310838D02*
X158596847Y-113215600D01*
X158596847Y-113215600D02*
X158596847Y-113025124D01*
X158596847Y-113025124D02*
X158549228Y-112929886D01*
X158549228Y-112929886D02*
X158501609Y-112882267D01*
X158501609Y-112882267D02*
X158406371Y-112834648D01*
X158406371Y-112834648D02*
X158120657Y-112834648D01*
X158120657Y-112834648D02*
X158025419Y-112882267D01*
X158025419Y-112882267D02*
X157977800Y-112929886D01*
X157977800Y-112929886D02*
X157930180Y-113025124D01*
X157930180Y-113025124D02*
X157930180Y-113215600D01*
X157930180Y-113215600D02*
X157977800Y-113310838D01*
X157930180Y-112406076D02*
X158930180Y-112406076D01*
X157930180Y-111977505D02*
X158453990Y-111977505D01*
X158453990Y-111977505D02*
X158549228Y-112025124D01*
X158549228Y-112025124D02*
X158596847Y-112120362D01*
X158596847Y-112120362D02*
X158596847Y-112263219D01*
X158596847Y-112263219D02*
X158549228Y-112358457D01*
X158549228Y-112358457D02*
X158501609Y-112406076D01*
X157930180Y-111072743D02*
X158453990Y-111072743D01*
X158453990Y-111072743D02*
X158549228Y-111120362D01*
X158549228Y-111120362D02*
X158596847Y-111215600D01*
X158596847Y-111215600D02*
X158596847Y-111406076D01*
X158596847Y-111406076D02*
X158549228Y-111501314D01*
X157977800Y-111072743D02*
X157930180Y-111167981D01*
X157930180Y-111167981D02*
X157930180Y-111406076D01*
X157930180Y-111406076D02*
X157977800Y-111501314D01*
X157977800Y-111501314D02*
X158073038Y-111548933D01*
X158073038Y-111548933D02*
X158168276Y-111548933D01*
X158168276Y-111548933D02*
X158263514Y-111501314D01*
X158263514Y-111501314D02*
X158311133Y-111406076D01*
X158311133Y-111406076D02*
X158311133Y-111167981D01*
X158311133Y-111167981D02*
X158358752Y-111072743D01*
X157977800Y-109882266D02*
X157930180Y-109787028D01*
X157930180Y-109787028D02*
X157930180Y-109596552D01*
X157930180Y-109596552D02*
X157977800Y-109501314D01*
X157977800Y-109501314D02*
X158073038Y-109453695D01*
X158073038Y-109453695D02*
X158120657Y-109453695D01*
X158120657Y-109453695D02*
X158215895Y-109501314D01*
X158215895Y-109501314D02*
X158263514Y-109596552D01*
X158263514Y-109596552D02*
X158263514Y-109739409D01*
X158263514Y-109739409D02*
X158311133Y-109834647D01*
X158311133Y-109834647D02*
X158406371Y-109882266D01*
X158406371Y-109882266D02*
X158453990Y-109882266D01*
X158453990Y-109882266D02*
X158549228Y-109834647D01*
X158549228Y-109834647D02*
X158596847Y-109739409D01*
X158596847Y-109739409D02*
X158596847Y-109596552D01*
X158596847Y-109596552D02*
X158549228Y-109501314D01*
X157930180Y-109025123D02*
X158596847Y-109025123D01*
X158930180Y-109025123D02*
X158882561Y-109072742D01*
X158882561Y-109072742D02*
X158834942Y-109025123D01*
X158834942Y-109025123D02*
X158882561Y-108977504D01*
X158882561Y-108977504D02*
X158930180Y-109025123D01*
X158930180Y-109025123D02*
X158834942Y-109025123D01*
X158596847Y-108548933D02*
X157930180Y-108548933D01*
X158501609Y-108548933D02*
X158549228Y-108501314D01*
X158549228Y-108501314D02*
X158596847Y-108406076D01*
X158596847Y-108406076D02*
X158596847Y-108263219D01*
X158596847Y-108263219D02*
X158549228Y-108167981D01*
X158549228Y-108167981D02*
X158453990Y-108120362D01*
X158453990Y-108120362D02*
X157930180Y-108120362D01*
X158596847Y-107215600D02*
X157787323Y-107215600D01*
X157787323Y-107215600D02*
X157692085Y-107263219D01*
X157692085Y-107263219D02*
X157644466Y-107310838D01*
X157644466Y-107310838D02*
X157596847Y-107406076D01*
X157596847Y-107406076D02*
X157596847Y-107548933D01*
X157596847Y-107548933D02*
X157644466Y-107644171D01*
X157977800Y-107215600D02*
X157930180Y-107310838D01*
X157930180Y-107310838D02*
X157930180Y-107501314D01*
X157930180Y-107501314D02*
X157977800Y-107596552D01*
X157977800Y-107596552D02*
X158025419Y-107644171D01*
X158025419Y-107644171D02*
X158120657Y-107691790D01*
X158120657Y-107691790D02*
X158406371Y-107691790D01*
X158406371Y-107691790D02*
X158501609Y-107644171D01*
X158501609Y-107644171D02*
X158549228Y-107596552D01*
X158549228Y-107596552D02*
X158596847Y-107501314D01*
X158596847Y-107501314D02*
X158596847Y-107310838D01*
X158596847Y-107310838D02*
X158549228Y-107215600D01*
X157930180Y-106596552D02*
X157977800Y-106691790D01*
X157977800Y-106691790D02*
X158073038Y-106739409D01*
X158073038Y-106739409D02*
X158930180Y-106739409D01*
X157977800Y-105834647D02*
X157930180Y-105929885D01*
X157930180Y-105929885D02*
X157930180Y-106120361D01*
X157930180Y-106120361D02*
X157977800Y-106215599D01*
X157977800Y-106215599D02*
X158073038Y-106263218D01*
X158073038Y-106263218D02*
X158453990Y-106263218D01*
X158453990Y-106263218D02*
X158549228Y-106215599D01*
X158549228Y-106215599D02*
X158596847Y-106120361D01*
X158596847Y-106120361D02*
X158596847Y-105929885D01*
X158596847Y-105929885D02*
X158549228Y-105834647D01*
X158549228Y-105834647D02*
X158453990Y-105787028D01*
X158453990Y-105787028D02*
X158358752Y-105787028D01*
X158358752Y-105787028D02*
X158263514Y-106263218D01*
X157930180Y-104596551D02*
X158930180Y-104596551D01*
X158549228Y-104596551D02*
X158596847Y-104501313D01*
X158596847Y-104501313D02*
X158596847Y-104310837D01*
X158596847Y-104310837D02*
X158549228Y-104215599D01*
X158549228Y-104215599D02*
X158501609Y-104167980D01*
X158501609Y-104167980D02*
X158406371Y-104120361D01*
X158406371Y-104120361D02*
X158120657Y-104120361D01*
X158120657Y-104120361D02*
X158025419Y-104167980D01*
X158025419Y-104167980D02*
X157977800Y-104215599D01*
X157977800Y-104215599D02*
X157930180Y-104310837D01*
X157930180Y-104310837D02*
X157930180Y-104501313D01*
X157930180Y-104501313D02*
X157977800Y-104596551D01*
X157930180Y-103691789D02*
X158596847Y-103691789D01*
X158406371Y-103691789D02*
X158501609Y-103644170D01*
X158501609Y-103644170D02*
X158549228Y-103596551D01*
X158549228Y-103596551D02*
X158596847Y-103501313D01*
X158596847Y-103501313D02*
X158596847Y-103406075D01*
X158596847Y-102644170D02*
X157930180Y-102644170D01*
X158596847Y-103072741D02*
X158073038Y-103072741D01*
X158073038Y-103072741D02*
X157977800Y-103025122D01*
X157977800Y-103025122D02*
X157930180Y-102929884D01*
X157930180Y-102929884D02*
X157930180Y-102787027D01*
X157930180Y-102787027D02*
X157977800Y-102691789D01*
X157977800Y-102691789D02*
X158025419Y-102644170D01*
X157977800Y-102215598D02*
X157930180Y-102120360D01*
X157930180Y-102120360D02*
X157930180Y-101929884D01*
X157930180Y-101929884D02*
X157977800Y-101834646D01*
X157977800Y-101834646D02*
X158073038Y-101787027D01*
X158073038Y-101787027D02*
X158120657Y-101787027D01*
X158120657Y-101787027D02*
X158215895Y-101834646D01*
X158215895Y-101834646D02*
X158263514Y-101929884D01*
X158263514Y-101929884D02*
X158263514Y-102072741D01*
X158263514Y-102072741D02*
X158311133Y-102167979D01*
X158311133Y-102167979D02*
X158406371Y-102215598D01*
X158406371Y-102215598D02*
X158453990Y-102215598D01*
X158453990Y-102215598D02*
X158549228Y-102167979D01*
X158549228Y-102167979D02*
X158596847Y-102072741D01*
X158596847Y-102072741D02*
X158596847Y-101929884D01*
X158596847Y-101929884D02*
X158549228Y-101834646D01*
X157930180Y-101358455D02*
X158930180Y-101358455D01*
X157930180Y-100929884D02*
X158453990Y-100929884D01*
X158453990Y-100929884D02*
X158549228Y-100977503D01*
X158549228Y-100977503D02*
X158596847Y-101072741D01*
X158596847Y-101072741D02*
X158596847Y-101215598D01*
X158596847Y-101215598D02*
X158549228Y-101310836D01*
X158549228Y-101310836D02*
X158501609Y-101358455D01*
X157930180Y-100310836D02*
X157977800Y-100406074D01*
X157977800Y-100406074D02*
X158073038Y-100453693D01*
X158073038Y-100453693D02*
X158930180Y-100453693D01*
X157977800Y-99548931D02*
X157930180Y-99644169D01*
X157930180Y-99644169D02*
X157930180Y-99834645D01*
X157930180Y-99834645D02*
X157977800Y-99929883D01*
X157977800Y-99929883D02*
X158073038Y-99977502D01*
X158073038Y-99977502D02*
X158453990Y-99977502D01*
X158453990Y-99977502D02*
X158549228Y-99929883D01*
X158549228Y-99929883D02*
X158596847Y-99834645D01*
X158596847Y-99834645D02*
X158596847Y-99644169D01*
X158596847Y-99644169D02*
X158549228Y-99548931D01*
X158549228Y-99548931D02*
X158453990Y-99501312D01*
X158453990Y-99501312D02*
X158358752Y-99501312D01*
X158358752Y-99501312D02*
X158263514Y-99977502D01*
X157977800Y-99120359D02*
X157930180Y-99025121D01*
X157930180Y-99025121D02*
X157930180Y-98834645D01*
X157930180Y-98834645D02*
X157977800Y-98739407D01*
X157977800Y-98739407D02*
X158073038Y-98691788D01*
X158073038Y-98691788D02*
X158120657Y-98691788D01*
X158120657Y-98691788D02*
X158215895Y-98739407D01*
X158215895Y-98739407D02*
X158263514Y-98834645D01*
X158263514Y-98834645D02*
X158263514Y-98977502D01*
X158263514Y-98977502D02*
X158311133Y-99072740D01*
X158311133Y-99072740D02*
X158406371Y-99120359D01*
X158406371Y-99120359D02*
X158453990Y-99120359D01*
X158453990Y-99120359D02*
X158549228Y-99072740D01*
X158549228Y-99072740D02*
X158596847Y-98977502D01*
X158596847Y-98977502D02*
X158596847Y-98834645D01*
X158596847Y-98834645D02*
X158549228Y-98739407D01*
X157977800Y-98310835D02*
X157930180Y-98215597D01*
X157930180Y-98215597D02*
X157930180Y-98025121D01*
X157930180Y-98025121D02*
X157977800Y-97929883D01*
X157977800Y-97929883D02*
X158073038Y-97882264D01*
X158073038Y-97882264D02*
X158120657Y-97882264D01*
X158120657Y-97882264D02*
X158215895Y-97929883D01*
X158215895Y-97929883D02*
X158263514Y-98025121D01*
X158263514Y-98025121D02*
X158263514Y-98167978D01*
X158263514Y-98167978D02*
X158311133Y-98263216D01*
X158311133Y-98263216D02*
X158406371Y-98310835D01*
X158406371Y-98310835D02*
X158453990Y-98310835D01*
X158453990Y-98310835D02*
X158549228Y-98263216D01*
X158549228Y-98263216D02*
X158596847Y-98167978D01*
X158596847Y-98167978D02*
X158596847Y-98025121D01*
X158596847Y-98025121D02*
X158549228Y-97929883D01*
X157930180Y-96691787D02*
X158930180Y-96691787D01*
X158930180Y-96691787D02*
X158930180Y-96310835D01*
X158930180Y-96310835D02*
X158882561Y-96215597D01*
X158882561Y-96215597D02*
X158834942Y-96167978D01*
X158834942Y-96167978D02*
X158739704Y-96120359D01*
X158739704Y-96120359D02*
X158596847Y-96120359D01*
X158596847Y-96120359D02*
X158501609Y-96167978D01*
X158501609Y-96167978D02*
X158453990Y-96215597D01*
X158453990Y-96215597D02*
X158406371Y-96310835D01*
X158406371Y-96310835D02*
X158406371Y-96691787D01*
X158025419Y-95120359D02*
X157977800Y-95167978D01*
X157977800Y-95167978D02*
X157930180Y-95310835D01*
X157930180Y-95310835D02*
X157930180Y-95406073D01*
X157930180Y-95406073D02*
X157977800Y-95548930D01*
X157977800Y-95548930D02*
X158073038Y-95644168D01*
X158073038Y-95644168D02*
X158168276Y-95691787D01*
X158168276Y-95691787D02*
X158358752Y-95739406D01*
X158358752Y-95739406D02*
X158501609Y-95739406D01*
X158501609Y-95739406D02*
X158692085Y-95691787D01*
X158692085Y-95691787D02*
X158787323Y-95644168D01*
X158787323Y-95644168D02*
X158882561Y-95548930D01*
X158882561Y-95548930D02*
X158930180Y-95406073D01*
X158930180Y-95406073D02*
X158930180Y-95310835D01*
X158930180Y-95310835D02*
X158882561Y-95167978D01*
X158882561Y-95167978D02*
X158834942Y-95120359D01*
X158453990Y-94358454D02*
X158406371Y-94215597D01*
X158406371Y-94215597D02*
X158358752Y-94167978D01*
X158358752Y-94167978D02*
X158263514Y-94120359D01*
X158263514Y-94120359D02*
X158120657Y-94120359D01*
X158120657Y-94120359D02*
X158025419Y-94167978D01*
X158025419Y-94167978D02*
X157977800Y-94215597D01*
X157977800Y-94215597D02*
X157930180Y-94310835D01*
X157930180Y-94310835D02*
X157930180Y-94691787D01*
X157930180Y-94691787D02*
X158930180Y-94691787D01*
X158930180Y-94691787D02*
X158930180Y-94358454D01*
X158930180Y-94358454D02*
X158882561Y-94263216D01*
X158882561Y-94263216D02*
X158834942Y-94215597D01*
X158834942Y-94215597D02*
X158739704Y-94167978D01*
X158739704Y-94167978D02*
X158644466Y-94167978D01*
X158644466Y-94167978D02*
X158549228Y-94215597D01*
X158549228Y-94215597D02*
X158501609Y-94263216D01*
X158501609Y-94263216D02*
X158453990Y-94358454D01*
X158453990Y-94358454D02*
X158453990Y-94691787D01*
X132058458Y-94269819D02*
X131439411Y-94269819D01*
X131439411Y-94269819D02*
X131772744Y-94650771D01*
X131772744Y-94650771D02*
X131629887Y-94650771D01*
X131629887Y-94650771D02*
X131534649Y-94698390D01*
X131534649Y-94698390D02*
X131487030Y-94746009D01*
X131487030Y-94746009D02*
X131439411Y-94841247D01*
X131439411Y-94841247D02*
X131439411Y-95079342D01*
X131439411Y-95079342D02*
X131487030Y-95174580D01*
X131487030Y-95174580D02*
X131534649Y-95222200D01*
X131534649Y-95222200D02*
X131629887Y-95269819D01*
X131629887Y-95269819D02*
X131915601Y-95269819D01*
X131915601Y-95269819D02*
X132010839Y-95222200D01*
X132010839Y-95222200D02*
X132058458Y-95174580D01*
X131010839Y-95174580D02*
X130963220Y-95222200D01*
X130963220Y-95222200D02*
X131010839Y-95269819D01*
X131010839Y-95269819D02*
X131058458Y-95222200D01*
X131058458Y-95222200D02*
X131010839Y-95174580D01*
X131010839Y-95174580D02*
X131010839Y-95269819D01*
X130629887Y-94269819D02*
X130010840Y-94269819D01*
X130010840Y-94269819D02*
X130344173Y-94650771D01*
X130344173Y-94650771D02*
X130201316Y-94650771D01*
X130201316Y-94650771D02*
X130106078Y-94698390D01*
X130106078Y-94698390D02*
X130058459Y-94746009D01*
X130058459Y-94746009D02*
X130010840Y-94841247D01*
X130010840Y-94841247D02*
X130010840Y-95079342D01*
X130010840Y-95079342D02*
X130058459Y-95174580D01*
X130058459Y-95174580D02*
X130106078Y-95222200D01*
X130106078Y-95222200D02*
X130201316Y-95269819D01*
X130201316Y-95269819D02*
X130487030Y-95269819D01*
X130487030Y-95269819D02*
X130582268Y-95222200D01*
X130582268Y-95222200D02*
X130629887Y-95174580D01*
X129677506Y-94603152D02*
X129439411Y-95269819D01*
X129439411Y-95269819D02*
X129201316Y-94603152D01*
X139669819Y-88841541D02*
X139669819Y-89460588D01*
X139669819Y-89460588D02*
X140050771Y-89127255D01*
X140050771Y-89127255D02*
X140050771Y-89270112D01*
X140050771Y-89270112D02*
X140098390Y-89365350D01*
X140098390Y-89365350D02*
X140146009Y-89412969D01*
X140146009Y-89412969D02*
X140241247Y-89460588D01*
X140241247Y-89460588D02*
X140479342Y-89460588D01*
X140479342Y-89460588D02*
X140574580Y-89412969D01*
X140574580Y-89412969D02*
X140622200Y-89365350D01*
X140622200Y-89365350D02*
X140669819Y-89270112D01*
X140669819Y-89270112D02*
X140669819Y-88984398D01*
X140669819Y-88984398D02*
X140622200Y-88889160D01*
X140622200Y-88889160D02*
X140574580Y-88841541D01*
X140574580Y-89889160D02*
X140622200Y-89936779D01*
X140622200Y-89936779D02*
X140669819Y-89889160D01*
X140669819Y-89889160D02*
X140622200Y-89841541D01*
X140622200Y-89841541D02*
X140574580Y-89889160D01*
X140574580Y-89889160D02*
X140669819Y-89889160D01*
X139669819Y-90270112D02*
X139669819Y-90889159D01*
X139669819Y-90889159D02*
X140050771Y-90555826D01*
X140050771Y-90555826D02*
X140050771Y-90698683D01*
X140050771Y-90698683D02*
X140098390Y-90793921D01*
X140098390Y-90793921D02*
X140146009Y-90841540D01*
X140146009Y-90841540D02*
X140241247Y-90889159D01*
X140241247Y-90889159D02*
X140479342Y-90889159D01*
X140479342Y-90889159D02*
X140574580Y-90841540D01*
X140574580Y-90841540D02*
X140622200Y-90793921D01*
X140622200Y-90793921D02*
X140669819Y-90698683D01*
X140669819Y-90698683D02*
X140669819Y-90412969D01*
X140669819Y-90412969D02*
X140622200Y-90317731D01*
X140622200Y-90317731D02*
X140574580Y-90270112D01*
X140003152Y-91222493D02*
X140669819Y-91460588D01*
X140669819Y-91460588D02*
X140003152Y-91698683D01*
X126822200Y-88989160D02*
X126869819Y-89132017D01*
X126869819Y-89132017D02*
X126869819Y-89370112D01*
X126869819Y-89370112D02*
X126822200Y-89465350D01*
X126822200Y-89465350D02*
X126774580Y-89512969D01*
X126774580Y-89512969D02*
X126679342Y-89560588D01*
X126679342Y-89560588D02*
X126584104Y-89560588D01*
X126584104Y-89560588D02*
X126488866Y-89512969D01*
X126488866Y-89512969D02*
X126441247Y-89465350D01*
X126441247Y-89465350D02*
X126393628Y-89370112D01*
X126393628Y-89370112D02*
X126346009Y-89179636D01*
X126346009Y-89179636D02*
X126298390Y-89084398D01*
X126298390Y-89084398D02*
X126250771Y-89036779D01*
X126250771Y-89036779D02*
X126155533Y-88989160D01*
X126155533Y-88989160D02*
X126060295Y-88989160D01*
X126060295Y-88989160D02*
X125965057Y-89036779D01*
X125965057Y-89036779D02*
X125917438Y-89084398D01*
X125917438Y-89084398D02*
X125869819Y-89179636D01*
X125869819Y-89179636D02*
X125869819Y-89417731D01*
X125869819Y-89417731D02*
X125917438Y-89560588D01*
X126869819Y-89989160D02*
X125869819Y-89989160D01*
X125869819Y-89989160D02*
X125869819Y-90227255D01*
X125869819Y-90227255D02*
X125917438Y-90370112D01*
X125917438Y-90370112D02*
X126012676Y-90465350D01*
X126012676Y-90465350D02*
X126107914Y-90512969D01*
X126107914Y-90512969D02*
X126298390Y-90560588D01*
X126298390Y-90560588D02*
X126441247Y-90560588D01*
X126441247Y-90560588D02*
X126631723Y-90512969D01*
X126631723Y-90512969D02*
X126726961Y-90465350D01*
X126726961Y-90465350D02*
X126822200Y-90370112D01*
X126822200Y-90370112D02*
X126869819Y-90227255D01*
X126869819Y-90227255D02*
X126869819Y-89989160D01*
X126584104Y-90941541D02*
X126584104Y-91417731D01*
X126869819Y-90846303D02*
X125869819Y-91179636D01*
X125869819Y-91179636D02*
X126869819Y-91512969D01*
X154346009Y-95770112D02*
X154393628Y-95912969D01*
X154393628Y-95912969D02*
X154441247Y-95960588D01*
X154441247Y-95960588D02*
X154536485Y-96008207D01*
X154536485Y-96008207D02*
X154679342Y-96008207D01*
X154679342Y-96008207D02*
X154774580Y-95960588D01*
X154774580Y-95960588D02*
X154822200Y-95912969D01*
X154822200Y-95912969D02*
X154869819Y-95817731D01*
X154869819Y-95817731D02*
X154869819Y-95436779D01*
X154869819Y-95436779D02*
X153869819Y-95436779D01*
X153869819Y-95436779D02*
X153869819Y-95770112D01*
X153869819Y-95770112D02*
X153917438Y-95865350D01*
X153917438Y-95865350D02*
X153965057Y-95912969D01*
X153965057Y-95912969D02*
X154060295Y-95960588D01*
X154060295Y-95960588D02*
X154155533Y-95960588D01*
X154155533Y-95960588D02*
X154250771Y-95912969D01*
X154250771Y-95912969D02*
X154298390Y-95865350D01*
X154298390Y-95865350D02*
X154346009Y-95770112D01*
X154346009Y-95770112D02*
X154346009Y-95436779D01*
X123730180Y-110191792D02*
X124206371Y-110525125D01*
X123730180Y-110763220D02*
X124730180Y-110763220D01*
X124730180Y-110763220D02*
X124730180Y-110382268D01*
X124730180Y-110382268D02*
X124682561Y-110287030D01*
X124682561Y-110287030D02*
X124634942Y-110239411D01*
X124634942Y-110239411D02*
X124539704Y-110191792D01*
X124539704Y-110191792D02*
X124396847Y-110191792D01*
X124396847Y-110191792D02*
X124301609Y-110239411D01*
X124301609Y-110239411D02*
X124253990Y-110287030D01*
X124253990Y-110287030D02*
X124206371Y-110382268D01*
X124206371Y-110382268D02*
X124206371Y-110763220D01*
X123777800Y-109810839D02*
X123730180Y-109667982D01*
X123730180Y-109667982D02*
X123730180Y-109429887D01*
X123730180Y-109429887D02*
X123777800Y-109334649D01*
X123777800Y-109334649D02*
X123825419Y-109287030D01*
X123825419Y-109287030D02*
X123920657Y-109239411D01*
X123920657Y-109239411D02*
X124015895Y-109239411D01*
X124015895Y-109239411D02*
X124111133Y-109287030D01*
X124111133Y-109287030D02*
X124158752Y-109334649D01*
X124158752Y-109334649D02*
X124206371Y-109429887D01*
X124206371Y-109429887D02*
X124253990Y-109620363D01*
X124253990Y-109620363D02*
X124301609Y-109715601D01*
X124301609Y-109715601D02*
X124349228Y-109763220D01*
X124349228Y-109763220D02*
X124444466Y-109810839D01*
X124444466Y-109810839D02*
X124539704Y-109810839D01*
X124539704Y-109810839D02*
X124634942Y-109763220D01*
X124634942Y-109763220D02*
X124682561Y-109715601D01*
X124682561Y-109715601D02*
X124730180Y-109620363D01*
X124730180Y-109620363D02*
X124730180Y-109382268D01*
X124730180Y-109382268D02*
X124682561Y-109239411D01*
X124730180Y-108953696D02*
X124730180Y-108382268D01*
X123730180Y-108667982D02*
X124730180Y-108667982D01*
X154584104Y-96789160D02*
X154584104Y-97265350D01*
X154869819Y-96693922D02*
X153869819Y-97027255D01*
X153869819Y-97027255D02*
X154869819Y-97360588D01*
X133139411Y-121717438D02*
X133234649Y-121669819D01*
X133234649Y-121669819D02*
X133377506Y-121669819D01*
X133377506Y-121669819D02*
X133520363Y-121717438D01*
X133520363Y-121717438D02*
X133615601Y-121812676D01*
X133615601Y-121812676D02*
X133663220Y-121907914D01*
X133663220Y-121907914D02*
X133710839Y-122098390D01*
X133710839Y-122098390D02*
X133710839Y-122241247D01*
X133710839Y-122241247D02*
X133663220Y-122431723D01*
X133663220Y-122431723D02*
X133615601Y-122526961D01*
X133615601Y-122526961D02*
X133520363Y-122622200D01*
X133520363Y-122622200D02*
X133377506Y-122669819D01*
X133377506Y-122669819D02*
X133282268Y-122669819D01*
X133282268Y-122669819D02*
X133139411Y-122622200D01*
X133139411Y-122622200D02*
X133091792Y-122574580D01*
X133091792Y-122574580D02*
X133091792Y-122241247D01*
X133091792Y-122241247D02*
X133282268Y-122241247D01*
X132663220Y-122669819D02*
X132663220Y-121669819D01*
X132663220Y-121669819D02*
X132091792Y-122669819D01*
X132091792Y-122669819D02*
X132091792Y-121669819D01*
X131615601Y-122669819D02*
X131615601Y-121669819D01*
X131615601Y-121669819D02*
X131377506Y-121669819D01*
X131377506Y-121669819D02*
X131234649Y-121717438D01*
X131234649Y-121717438D02*
X131139411Y-121812676D01*
X131139411Y-121812676D02*
X131091792Y-121907914D01*
X131091792Y-121907914D02*
X131044173Y-122098390D01*
X131044173Y-122098390D02*
X131044173Y-122241247D01*
X131044173Y-122241247D02*
X131091792Y-122431723D01*
X131091792Y-122431723D02*
X131139411Y-122526961D01*
X131139411Y-122526961D02*
X131234649Y-122622200D01*
X131234649Y-122622200D02*
X131377506Y-122669819D01*
X131377506Y-122669819D02*
X131615601Y-122669819D01*
X130615601Y-122669819D02*
X130615601Y-121669819D01*
X130615601Y-121669819D02*
X130234649Y-121669819D01*
X130234649Y-121669819D02*
X130139411Y-121717438D01*
X130139411Y-121717438D02*
X130091792Y-121765057D01*
X130091792Y-121765057D02*
X130044173Y-121860295D01*
X130044173Y-121860295D02*
X130044173Y-122003152D01*
X130044173Y-122003152D02*
X130091792Y-122098390D01*
X130091792Y-122098390D02*
X130139411Y-122146009D01*
X130139411Y-122146009D02*
X130234649Y-122193628D01*
X130234649Y-122193628D02*
X130615601Y-122193628D01*
X129710839Y-121669819D02*
X129472744Y-122669819D01*
X129472744Y-122669819D02*
X129282268Y-121955533D01*
X129282268Y-121955533D02*
X129091792Y-122669819D01*
X129091792Y-122669819D02*
X128853697Y-121669819D01*
X127901316Y-122669819D02*
X128234649Y-122193628D01*
X128472744Y-122669819D02*
X128472744Y-121669819D01*
X128472744Y-121669819D02*
X128091792Y-121669819D01*
X128091792Y-121669819D02*
X127996554Y-121717438D01*
X127996554Y-121717438D02*
X127948935Y-121765057D01*
X127948935Y-121765057D02*
X127901316Y-121860295D01*
X127901316Y-121860295D02*
X127901316Y-122003152D01*
X127901316Y-122003152D02*
X127948935Y-122098390D01*
X127948935Y-122098390D02*
X127996554Y-122146009D01*
X127996554Y-122146009D02*
X128091792Y-122193628D01*
X128091792Y-122193628D02*
X128472744Y-122193628D01*
X160692085Y-116853696D02*
X160739704Y-116948935D01*
X160739704Y-116948935D02*
X160739704Y-117139411D01*
X160739704Y-117139411D02*
X160692085Y-117234649D01*
X160692085Y-117234649D02*
X160596847Y-117329887D01*
X160596847Y-117329887D02*
X160501609Y-117377506D01*
X160501609Y-117377506D02*
X160311133Y-117377506D01*
X160311133Y-117377506D02*
X160215895Y-117329887D01*
X160215895Y-117329887D02*
X160120657Y-117234649D01*
X160120657Y-117234649D02*
X160073038Y-117139411D01*
X160073038Y-117139411D02*
X160073038Y-116948935D01*
X160073038Y-116948935D02*
X160120657Y-116853696D01*
X161073038Y-117044173D02*
X161025419Y-117282268D01*
X161025419Y-117282268D02*
X160882561Y-117520363D01*
X160882561Y-117520363D02*
X160644466Y-117663220D01*
X160644466Y-117663220D02*
X160406371Y-117710839D01*
X160406371Y-117710839D02*
X160168276Y-117663220D01*
X160168276Y-117663220D02*
X159930180Y-117520363D01*
X159930180Y-117520363D02*
X159787323Y-117282268D01*
X159787323Y-117282268D02*
X159739704Y-117044173D01*
X159739704Y-117044173D02*
X159787323Y-116806077D01*
X159787323Y-116806077D02*
X159930180Y-116567982D01*
X159930180Y-116567982D02*
X160168276Y-116425125D01*
X160168276Y-116425125D02*
X160406371Y-116377506D01*
X160406371Y-116377506D02*
X160644466Y-116425125D01*
X160644466Y-116425125D02*
X160882561Y-116567982D01*
X160882561Y-116567982D02*
X161025419Y-116806077D01*
X161025419Y-116806077D02*
X161073038Y-117044173D01*
X160834942Y-115234648D02*
X160882561Y-115187029D01*
X160882561Y-115187029D02*
X160930180Y-115091791D01*
X160930180Y-115091791D02*
X160930180Y-114853696D01*
X160930180Y-114853696D02*
X160882561Y-114758458D01*
X160882561Y-114758458D02*
X160834942Y-114710839D01*
X160834942Y-114710839D02*
X160739704Y-114663220D01*
X160739704Y-114663220D02*
X160644466Y-114663220D01*
X160644466Y-114663220D02*
X160501609Y-114710839D01*
X160501609Y-114710839D02*
X159930180Y-115282267D01*
X159930180Y-115282267D02*
X159930180Y-114663220D01*
X160930180Y-114044172D02*
X160930180Y-113948934D01*
X160930180Y-113948934D02*
X160882561Y-113853696D01*
X160882561Y-113853696D02*
X160834942Y-113806077D01*
X160834942Y-113806077D02*
X160739704Y-113758458D01*
X160739704Y-113758458D02*
X160549228Y-113710839D01*
X160549228Y-113710839D02*
X160311133Y-113710839D01*
X160311133Y-113710839D02*
X160120657Y-113758458D01*
X160120657Y-113758458D02*
X160025419Y-113806077D01*
X160025419Y-113806077D02*
X159977800Y-113853696D01*
X159977800Y-113853696D02*
X159930180Y-113948934D01*
X159930180Y-113948934D02*
X159930180Y-114044172D01*
X159930180Y-114044172D02*
X159977800Y-114139410D01*
X159977800Y-114139410D02*
X160025419Y-114187029D01*
X160025419Y-114187029D02*
X160120657Y-114234648D01*
X160120657Y-114234648D02*
X160311133Y-114282267D01*
X160311133Y-114282267D02*
X160549228Y-114282267D01*
X160549228Y-114282267D02*
X160739704Y-114234648D01*
X160739704Y-114234648D02*
X160834942Y-114187029D01*
X160834942Y-114187029D02*
X160882561Y-114139410D01*
X160882561Y-114139410D02*
X160930180Y-114044172D01*
X160834942Y-113329886D02*
X160882561Y-113282267D01*
X160882561Y-113282267D02*
X160930180Y-113187029D01*
X160930180Y-113187029D02*
X160930180Y-112948934D01*
X160930180Y-112948934D02*
X160882561Y-112853696D01*
X160882561Y-112853696D02*
X160834942Y-112806077D01*
X160834942Y-112806077D02*
X160739704Y-112758458D01*
X160739704Y-112758458D02*
X160644466Y-112758458D01*
X160644466Y-112758458D02*
X160501609Y-112806077D01*
X160501609Y-112806077D02*
X159930180Y-113377505D01*
X159930180Y-113377505D02*
X159930180Y-112758458D01*
X160596847Y-111901315D02*
X159930180Y-111901315D01*
X160977800Y-112139410D02*
X160263514Y-112377505D01*
X160263514Y-112377505D02*
X160263514Y-111758458D01*
X160215895Y-110663219D02*
X160215895Y-110187029D01*
X159930180Y-110758457D02*
X160930180Y-110425124D01*
X160930180Y-110425124D02*
X159930180Y-110091791D01*
X159977800Y-109806076D02*
X159930180Y-109710838D01*
X159930180Y-109710838D02*
X159930180Y-109520362D01*
X159930180Y-109520362D02*
X159977800Y-109425124D01*
X159977800Y-109425124D02*
X160073038Y-109377505D01*
X160073038Y-109377505D02*
X160120657Y-109377505D01*
X160120657Y-109377505D02*
X160215895Y-109425124D01*
X160215895Y-109425124D02*
X160263514Y-109520362D01*
X160263514Y-109520362D02*
X160263514Y-109663219D01*
X160263514Y-109663219D02*
X160311133Y-109758457D01*
X160311133Y-109758457D02*
X160406371Y-109806076D01*
X160406371Y-109806076D02*
X160453990Y-109806076D01*
X160453990Y-109806076D02*
X160549228Y-109758457D01*
X160549228Y-109758457D02*
X160596847Y-109663219D01*
X160596847Y-109663219D02*
X160596847Y-109520362D01*
X160596847Y-109520362D02*
X160549228Y-109425124D01*
X159930180Y-108948933D02*
X160930180Y-108948933D01*
X159930180Y-108520362D02*
X160453990Y-108520362D01*
X160453990Y-108520362D02*
X160549228Y-108567981D01*
X160549228Y-108567981D02*
X160596847Y-108663219D01*
X160596847Y-108663219D02*
X160596847Y-108806076D01*
X160596847Y-108806076D02*
X160549228Y-108901314D01*
X160549228Y-108901314D02*
X160501609Y-108948933D01*
X159977800Y-107663219D02*
X159930180Y-107758457D01*
X159930180Y-107758457D02*
X159930180Y-107948933D01*
X159930180Y-107948933D02*
X159977800Y-108044171D01*
X159977800Y-108044171D02*
X160073038Y-108091790D01*
X160073038Y-108091790D02*
X160453990Y-108091790D01*
X160453990Y-108091790D02*
X160549228Y-108044171D01*
X160549228Y-108044171D02*
X160596847Y-107948933D01*
X160596847Y-107948933D02*
X160596847Y-107758457D01*
X160596847Y-107758457D02*
X160549228Y-107663219D01*
X160549228Y-107663219D02*
X160453990Y-107615600D01*
X160453990Y-107615600D02*
X160358752Y-107615600D01*
X160358752Y-107615600D02*
X160263514Y-108091790D01*
X159930180Y-107187028D02*
X160596847Y-107187028D01*
X160406371Y-107187028D02*
X160501609Y-107139409D01*
X160501609Y-107139409D02*
X160549228Y-107091790D01*
X160549228Y-107091790D02*
X160596847Y-106996552D01*
X160596847Y-106996552D02*
X160596847Y-106901314D01*
X160930180Y-105520361D02*
X160215895Y-105520361D01*
X160215895Y-105520361D02*
X160073038Y-105567980D01*
X160073038Y-105567980D02*
X159977800Y-105663218D01*
X159977800Y-105663218D02*
X159930180Y-105806075D01*
X159930180Y-105806075D02*
X159930180Y-105901313D01*
X159930180Y-104615599D02*
X160453990Y-104615599D01*
X160453990Y-104615599D02*
X160549228Y-104663218D01*
X160549228Y-104663218D02*
X160596847Y-104758456D01*
X160596847Y-104758456D02*
X160596847Y-104948932D01*
X160596847Y-104948932D02*
X160549228Y-105044170D01*
X159977800Y-104615599D02*
X159930180Y-104710837D01*
X159930180Y-104710837D02*
X159930180Y-104948932D01*
X159930180Y-104948932D02*
X159977800Y-105044170D01*
X159977800Y-105044170D02*
X160073038Y-105091789D01*
X160073038Y-105091789D02*
X160168276Y-105091789D01*
X160168276Y-105091789D02*
X160263514Y-105044170D01*
X160263514Y-105044170D02*
X160311133Y-104948932D01*
X160311133Y-104948932D02*
X160311133Y-104710837D01*
X160311133Y-104710837D02*
X160358752Y-104615599D01*
X159930180Y-104139408D02*
X160596847Y-104139408D01*
X160501609Y-104139408D02*
X160549228Y-104091789D01*
X160549228Y-104091789D02*
X160596847Y-103996551D01*
X160596847Y-103996551D02*
X160596847Y-103853694D01*
X160596847Y-103853694D02*
X160549228Y-103758456D01*
X160549228Y-103758456D02*
X160453990Y-103710837D01*
X160453990Y-103710837D02*
X159930180Y-103710837D01*
X160453990Y-103710837D02*
X160549228Y-103663218D01*
X160549228Y-103663218D02*
X160596847Y-103567980D01*
X160596847Y-103567980D02*
X160596847Y-103425123D01*
X160596847Y-103425123D02*
X160549228Y-103329884D01*
X160549228Y-103329884D02*
X160453990Y-103282265D01*
X160453990Y-103282265D02*
X159930180Y-103282265D01*
X159977800Y-102425123D02*
X159930180Y-102520361D01*
X159930180Y-102520361D02*
X159930180Y-102710837D01*
X159930180Y-102710837D02*
X159977800Y-102806075D01*
X159977800Y-102806075D02*
X160073038Y-102853694D01*
X160073038Y-102853694D02*
X160453990Y-102853694D01*
X160453990Y-102853694D02*
X160549228Y-102806075D01*
X160549228Y-102806075D02*
X160596847Y-102710837D01*
X160596847Y-102710837D02*
X160596847Y-102520361D01*
X160596847Y-102520361D02*
X160549228Y-102425123D01*
X160549228Y-102425123D02*
X160453990Y-102377504D01*
X160453990Y-102377504D02*
X160358752Y-102377504D01*
X160358752Y-102377504D02*
X160263514Y-102853694D01*
X159977800Y-101996551D02*
X159930180Y-101901313D01*
X159930180Y-101901313D02*
X159930180Y-101710837D01*
X159930180Y-101710837D02*
X159977800Y-101615599D01*
X159977800Y-101615599D02*
X160073038Y-101567980D01*
X160073038Y-101567980D02*
X160120657Y-101567980D01*
X160120657Y-101567980D02*
X160215895Y-101615599D01*
X160215895Y-101615599D02*
X160263514Y-101710837D01*
X160263514Y-101710837D02*
X160263514Y-101853694D01*
X160263514Y-101853694D02*
X160311133Y-101948932D01*
X160311133Y-101948932D02*
X160406371Y-101996551D01*
X160406371Y-101996551D02*
X160453990Y-101996551D01*
X160453990Y-101996551D02*
X160549228Y-101948932D01*
X160549228Y-101948932D02*
X160596847Y-101853694D01*
X160596847Y-101853694D02*
X160596847Y-101710837D01*
X160596847Y-101710837D02*
X160549228Y-101615599D01*
X160453990Y-100377503D02*
X160453990Y-100044170D01*
X159930180Y-99901313D02*
X159930180Y-100377503D01*
X159930180Y-100377503D02*
X160930180Y-100377503D01*
X160930180Y-100377503D02*
X160930180Y-99901313D01*
X159930180Y-99044170D02*
X160930180Y-99044170D01*
X159977800Y-99044170D02*
X159930180Y-99139408D01*
X159930180Y-99139408D02*
X159930180Y-99329884D01*
X159930180Y-99329884D02*
X159977800Y-99425122D01*
X159977800Y-99425122D02*
X160025419Y-99472741D01*
X160025419Y-99472741D02*
X160120657Y-99520360D01*
X160120657Y-99520360D02*
X160406371Y-99520360D01*
X160406371Y-99520360D02*
X160501609Y-99472741D01*
X160501609Y-99472741D02*
X160549228Y-99425122D01*
X160549228Y-99425122D02*
X160596847Y-99329884D01*
X160596847Y-99329884D02*
X160596847Y-99139408D01*
X160596847Y-99139408D02*
X160549228Y-99044170D01*
X160596847Y-98663217D02*
X159930180Y-98472741D01*
X159930180Y-98472741D02*
X160406371Y-98282265D01*
X160406371Y-98282265D02*
X159930180Y-98091789D01*
X159930180Y-98091789D02*
X160596847Y-97901313D01*
X159930180Y-97091789D02*
X160453990Y-97091789D01*
X160453990Y-97091789D02*
X160549228Y-97139408D01*
X160549228Y-97139408D02*
X160596847Y-97234646D01*
X160596847Y-97234646D02*
X160596847Y-97425122D01*
X160596847Y-97425122D02*
X160549228Y-97520360D01*
X159977800Y-97091789D02*
X159930180Y-97187027D01*
X159930180Y-97187027D02*
X159930180Y-97425122D01*
X159930180Y-97425122D02*
X159977800Y-97520360D01*
X159977800Y-97520360D02*
X160073038Y-97567979D01*
X160073038Y-97567979D02*
X160168276Y-97567979D01*
X160168276Y-97567979D02*
X160263514Y-97520360D01*
X160263514Y-97520360D02*
X160311133Y-97425122D01*
X160311133Y-97425122D02*
X160311133Y-97187027D01*
X160311133Y-97187027D02*
X160358752Y-97091789D01*
X159930180Y-96615598D02*
X160596847Y-96615598D01*
X160406371Y-96615598D02*
X160501609Y-96567979D01*
X160501609Y-96567979D02*
X160549228Y-96520360D01*
X160549228Y-96520360D02*
X160596847Y-96425122D01*
X160596847Y-96425122D02*
X160596847Y-96329884D01*
X159930180Y-95567979D02*
X160930180Y-95567979D01*
X159977800Y-95567979D02*
X159930180Y-95663217D01*
X159930180Y-95663217D02*
X159930180Y-95853693D01*
X159930180Y-95853693D02*
X159977800Y-95948931D01*
X159977800Y-95948931D02*
X160025419Y-95996550D01*
X160025419Y-95996550D02*
X160120657Y-96044169D01*
X160120657Y-96044169D02*
X160406371Y-96044169D01*
X160406371Y-96044169D02*
X160501609Y-95996550D01*
X160501609Y-95996550D02*
X160549228Y-95948931D01*
X160549228Y-95948931D02*
X160596847Y-95853693D01*
X160596847Y-95853693D02*
X160596847Y-95663217D01*
X160596847Y-95663217D02*
X160549228Y-95567979D01*
X159977800Y-95139407D02*
X159930180Y-95044169D01*
X159930180Y-95044169D02*
X159930180Y-94853693D01*
X159930180Y-94853693D02*
X159977800Y-94758455D01*
X159977800Y-94758455D02*
X160073038Y-94710836D01*
X160073038Y-94710836D02*
X160120657Y-94710836D01*
X160120657Y-94710836D02*
X160215895Y-94758455D01*
X160215895Y-94758455D02*
X160263514Y-94853693D01*
X160263514Y-94853693D02*
X160263514Y-94996550D01*
X160263514Y-94996550D02*
X160311133Y-95091788D01*
X160311133Y-95091788D02*
X160406371Y-95139407D01*
X160406371Y-95139407D02*
X160453990Y-95139407D01*
X160453990Y-95139407D02*
X160549228Y-95091788D01*
X160549228Y-95091788D02*
X160596847Y-94996550D01*
X160596847Y-94996550D02*
X160596847Y-94853693D01*
X160596847Y-94853693D02*
X160549228Y-94758455D01*
X124730180Y-101458458D02*
X124730180Y-100839411D01*
X124730180Y-100839411D02*
X124349228Y-101172744D01*
X124349228Y-101172744D02*
X124349228Y-101029887D01*
X124349228Y-101029887D02*
X124301609Y-100934649D01*
X124301609Y-100934649D02*
X124253990Y-100887030D01*
X124253990Y-100887030D02*
X124158752Y-100839411D01*
X124158752Y-100839411D02*
X123920657Y-100839411D01*
X123920657Y-100839411D02*
X123825419Y-100887030D01*
X123825419Y-100887030D02*
X123777800Y-100934649D01*
X123777800Y-100934649D02*
X123730180Y-101029887D01*
X123730180Y-101029887D02*
X123730180Y-101315601D01*
X123730180Y-101315601D02*
X123777800Y-101410839D01*
X123777800Y-101410839D02*
X123825419Y-101458458D01*
X123825419Y-100410839D02*
X123777800Y-100363220D01*
X123777800Y-100363220D02*
X123730180Y-100410839D01*
X123730180Y-100410839D02*
X123777800Y-100458458D01*
X123777800Y-100458458D02*
X123825419Y-100410839D01*
X123825419Y-100410839D02*
X123730180Y-100410839D01*
X124730180Y-100029887D02*
X124730180Y-99410840D01*
X124730180Y-99410840D02*
X124349228Y-99744173D01*
X124349228Y-99744173D02*
X124349228Y-99601316D01*
X124349228Y-99601316D02*
X124301609Y-99506078D01*
X124301609Y-99506078D02*
X124253990Y-99458459D01*
X124253990Y-99458459D02*
X124158752Y-99410840D01*
X124158752Y-99410840D02*
X123920657Y-99410840D01*
X123920657Y-99410840D02*
X123825419Y-99458459D01*
X123825419Y-99458459D02*
X123777800Y-99506078D01*
X123777800Y-99506078D02*
X123730180Y-99601316D01*
X123730180Y-99601316D02*
X123730180Y-99887030D01*
X123730180Y-99887030D02*
X123777800Y-99982268D01*
X123777800Y-99982268D02*
X123825419Y-100029887D01*
X124396847Y-99077506D02*
X123730180Y-98839411D01*
X123730180Y-98839411D02*
X124396847Y-98601316D01*
X144810839Y-101022200D02*
X144667982Y-101069819D01*
X144667982Y-101069819D02*
X144429887Y-101069819D01*
X144429887Y-101069819D02*
X144334649Y-101022200D01*
X144334649Y-101022200D02*
X144287030Y-100974580D01*
X144287030Y-100974580D02*
X144239411Y-100879342D01*
X144239411Y-100879342D02*
X144239411Y-100784104D01*
X144239411Y-100784104D02*
X144287030Y-100688866D01*
X144287030Y-100688866D02*
X144334649Y-100641247D01*
X144334649Y-100641247D02*
X144429887Y-100593628D01*
X144429887Y-100593628D02*
X144620363Y-100546009D01*
X144620363Y-100546009D02*
X144715601Y-100498390D01*
X144715601Y-100498390D02*
X144763220Y-100450771D01*
X144763220Y-100450771D02*
X144810839Y-100355533D01*
X144810839Y-100355533D02*
X144810839Y-100260295D01*
X144810839Y-100260295D02*
X144763220Y-100165057D01*
X144763220Y-100165057D02*
X144715601Y-100117438D01*
X144715601Y-100117438D02*
X144620363Y-100069819D01*
X144620363Y-100069819D02*
X144382268Y-100069819D01*
X144382268Y-100069819D02*
X144239411Y-100117438D01*
X143906077Y-100069819D02*
X143667982Y-101069819D01*
X143667982Y-101069819D02*
X143477506Y-100355533D01*
X143477506Y-100355533D02*
X143287030Y-101069819D01*
X143287030Y-101069819D02*
X143048935Y-100069819D01*
X142096554Y-100974580D02*
X142144173Y-101022200D01*
X142144173Y-101022200D02*
X142287030Y-101069819D01*
X142287030Y-101069819D02*
X142382268Y-101069819D01*
X142382268Y-101069819D02*
X142525125Y-101022200D01*
X142525125Y-101022200D02*
X142620363Y-100926961D01*
X142620363Y-100926961D02*
X142667982Y-100831723D01*
X142667982Y-100831723D02*
X142715601Y-100641247D01*
X142715601Y-100641247D02*
X142715601Y-100498390D01*
X142715601Y-100498390D02*
X142667982Y-100307914D01*
X142667982Y-100307914D02*
X142620363Y-100212676D01*
X142620363Y-100212676D02*
X142525125Y-100117438D01*
X142525125Y-100117438D02*
X142382268Y-100069819D01*
X142382268Y-100069819D02*
X142287030Y-100069819D01*
X142287030Y-100069819D02*
X142144173Y-100117438D01*
X142144173Y-100117438D02*
X142096554Y-100165057D01*
X127769819Y-88941541D02*
X127769819Y-89560588D01*
X127769819Y-89560588D02*
X128150771Y-89227255D01*
X128150771Y-89227255D02*
X128150771Y-89370112D01*
X128150771Y-89370112D02*
X128198390Y-89465350D01*
X128198390Y-89465350D02*
X128246009Y-89512969D01*
X128246009Y-89512969D02*
X128341247Y-89560588D01*
X128341247Y-89560588D02*
X128579342Y-89560588D01*
X128579342Y-89560588D02*
X128674580Y-89512969D01*
X128674580Y-89512969D02*
X128722200Y-89465350D01*
X128722200Y-89465350D02*
X128769819Y-89370112D01*
X128769819Y-89370112D02*
X128769819Y-89084398D01*
X128769819Y-89084398D02*
X128722200Y-88989160D01*
X128722200Y-88989160D02*
X128674580Y-88941541D01*
X128674580Y-89989160D02*
X128722200Y-90036779D01*
X128722200Y-90036779D02*
X128769819Y-89989160D01*
X128769819Y-89989160D02*
X128722200Y-89941541D01*
X128722200Y-89941541D02*
X128674580Y-89989160D01*
X128674580Y-89989160D02*
X128769819Y-89989160D01*
X127769819Y-90370112D02*
X127769819Y-90989159D01*
X127769819Y-90989159D02*
X128150771Y-90655826D01*
X128150771Y-90655826D02*
X128150771Y-90798683D01*
X128150771Y-90798683D02*
X128198390Y-90893921D01*
X128198390Y-90893921D02*
X128246009Y-90941540D01*
X128246009Y-90941540D02*
X128341247Y-90989159D01*
X128341247Y-90989159D02*
X128579342Y-90989159D01*
X128579342Y-90989159D02*
X128674580Y-90941540D01*
X128674580Y-90941540D02*
X128722200Y-90893921D01*
X128722200Y-90893921D02*
X128769819Y-90798683D01*
X128769819Y-90798683D02*
X128769819Y-90512969D01*
X128769819Y-90512969D02*
X128722200Y-90417731D01*
X128722200Y-90417731D02*
X128674580Y-90370112D01*
X128103152Y-91322493D02*
X128769819Y-91560588D01*
X128769819Y-91560588D02*
X128103152Y-91798683D01*
X145206077Y-91769819D02*
X144634649Y-91769819D01*
X144920363Y-92769819D02*
X144920363Y-91769819D01*
X144396553Y-91769819D02*
X143729887Y-92769819D01*
X143729887Y-91769819D02*
X144396553Y-92769819D01*
X135669819Y-88736779D02*
X134669819Y-88736779D01*
X134669819Y-88736779D02*
X135384104Y-89070112D01*
X135384104Y-89070112D02*
X134669819Y-89403445D01*
X134669819Y-89403445D02*
X135669819Y-89403445D01*
X135669819Y-89879636D02*
X134669819Y-89879636D01*
X135622200Y-90308207D02*
X135669819Y-90451064D01*
X135669819Y-90451064D02*
X135669819Y-90689159D01*
X135669819Y-90689159D02*
X135622200Y-90784397D01*
X135622200Y-90784397D02*
X135574580Y-90832016D01*
X135574580Y-90832016D02*
X135479342Y-90879635D01*
X135479342Y-90879635D02*
X135384104Y-90879635D01*
X135384104Y-90879635D02*
X135288866Y-90832016D01*
X135288866Y-90832016D02*
X135241247Y-90784397D01*
X135241247Y-90784397D02*
X135193628Y-90689159D01*
X135193628Y-90689159D02*
X135146009Y-90498683D01*
X135146009Y-90498683D02*
X135098390Y-90403445D01*
X135098390Y-90403445D02*
X135050771Y-90355826D01*
X135050771Y-90355826D02*
X134955533Y-90308207D01*
X134955533Y-90308207D02*
X134860295Y-90308207D01*
X134860295Y-90308207D02*
X134765057Y-90355826D01*
X134765057Y-90355826D02*
X134717438Y-90403445D01*
X134717438Y-90403445D02*
X134669819Y-90498683D01*
X134669819Y-90498683D02*
X134669819Y-90736778D01*
X134669819Y-90736778D02*
X134717438Y-90879635D01*
X134669819Y-91498683D02*
X134669819Y-91689159D01*
X134669819Y-91689159D02*
X134717438Y-91784397D01*
X134717438Y-91784397D02*
X134812676Y-91879635D01*
X134812676Y-91879635D02*
X135003152Y-91927254D01*
X135003152Y-91927254D02*
X135336485Y-91927254D01*
X135336485Y-91927254D02*
X135526961Y-91879635D01*
X135526961Y-91879635D02*
X135622200Y-91784397D01*
X135622200Y-91784397D02*
X135669819Y-91689159D01*
X135669819Y-91689159D02*
X135669819Y-91498683D01*
X135669819Y-91498683D02*
X135622200Y-91403445D01*
X135622200Y-91403445D02*
X135526961Y-91308207D01*
X135526961Y-91308207D02*
X135336485Y-91260588D01*
X135336485Y-91260588D02*
X135003152Y-91260588D01*
X135003152Y-91260588D02*
X134812676Y-91308207D01*
X134812676Y-91308207D02*
X134717438Y-91403445D01*
X134717438Y-91403445D02*
X134669819Y-91498683D01*
X133874580Y-89508207D02*
X133922200Y-89460588D01*
X133922200Y-89460588D02*
X133969819Y-89317731D01*
X133969819Y-89317731D02*
X133969819Y-89222493D01*
X133969819Y-89222493D02*
X133922200Y-89079636D01*
X133922200Y-89079636D02*
X133826961Y-88984398D01*
X133826961Y-88984398D02*
X133731723Y-88936779D01*
X133731723Y-88936779D02*
X133541247Y-88889160D01*
X133541247Y-88889160D02*
X133398390Y-88889160D01*
X133398390Y-88889160D02*
X133207914Y-88936779D01*
X133207914Y-88936779D02*
X133112676Y-88984398D01*
X133112676Y-88984398D02*
X133017438Y-89079636D01*
X133017438Y-89079636D02*
X132969819Y-89222493D01*
X132969819Y-89222493D02*
X132969819Y-89317731D01*
X132969819Y-89317731D02*
X133017438Y-89460588D01*
X133017438Y-89460588D02*
X133065057Y-89508207D01*
X133922200Y-89889160D02*
X133969819Y-90032017D01*
X133969819Y-90032017D02*
X133969819Y-90270112D01*
X133969819Y-90270112D02*
X133922200Y-90365350D01*
X133922200Y-90365350D02*
X133874580Y-90412969D01*
X133874580Y-90412969D02*
X133779342Y-90460588D01*
X133779342Y-90460588D02*
X133684104Y-90460588D01*
X133684104Y-90460588D02*
X133588866Y-90412969D01*
X133588866Y-90412969D02*
X133541247Y-90365350D01*
X133541247Y-90365350D02*
X133493628Y-90270112D01*
X133493628Y-90270112D02*
X133446009Y-90079636D01*
X133446009Y-90079636D02*
X133398390Y-89984398D01*
X133398390Y-89984398D02*
X133350771Y-89936779D01*
X133350771Y-89936779D02*
X133255533Y-89889160D01*
X133255533Y-89889160D02*
X133160295Y-89889160D01*
X133160295Y-89889160D02*
X133065057Y-89936779D01*
X133065057Y-89936779D02*
X133017438Y-89984398D01*
X133017438Y-89984398D02*
X132969819Y-90079636D01*
X132969819Y-90079636D02*
X132969819Y-90317731D01*
X132969819Y-90317731D02*
X133017438Y-90460588D01*
X133969819Y-91412969D02*
X133969819Y-90841541D01*
X133969819Y-91127255D02*
X132969819Y-91127255D01*
X132969819Y-91127255D02*
X133112676Y-91032017D01*
X133112676Y-91032017D02*
X133207914Y-90936779D01*
X133207914Y-90936779D02*
X133255533Y-90841541D01*
X160429887Y-120446009D02*
X160287030Y-120493628D01*
X160287030Y-120493628D02*
X160239411Y-120541247D01*
X160239411Y-120541247D02*
X160191792Y-120636485D01*
X160191792Y-120636485D02*
X160191792Y-120779342D01*
X160191792Y-120779342D02*
X160239411Y-120874580D01*
X160239411Y-120874580D02*
X160287030Y-120922200D01*
X160287030Y-120922200D02*
X160382268Y-120969819D01*
X160382268Y-120969819D02*
X160763220Y-120969819D01*
X160763220Y-120969819D02*
X160763220Y-119969819D01*
X160763220Y-119969819D02*
X160429887Y-119969819D01*
X160429887Y-119969819D02*
X160334649Y-120017438D01*
X160334649Y-120017438D02*
X160287030Y-120065057D01*
X160287030Y-120065057D02*
X160239411Y-120160295D01*
X160239411Y-120160295D02*
X160239411Y-120255533D01*
X160239411Y-120255533D02*
X160287030Y-120350771D01*
X160287030Y-120350771D02*
X160334649Y-120398390D01*
X160334649Y-120398390D02*
X160429887Y-120446009D01*
X160429887Y-120446009D02*
X160763220Y-120446009D01*
X159810839Y-120684104D02*
X159334649Y-120684104D01*
X159906077Y-120969819D02*
X159572744Y-119969819D01*
X159572744Y-119969819D02*
X159239411Y-120969819D01*
X159048934Y-119969819D02*
X158477506Y-119969819D01*
X158763220Y-120969819D02*
X158763220Y-119969819D01*
X158287029Y-119969819D02*
X157715601Y-119969819D01*
X158001315Y-120969819D02*
X158001315Y-119969819D01*
X157382267Y-120588866D02*
X156620363Y-120588866D01*
X141417438Y-89360588D02*
X141369819Y-89265350D01*
X141369819Y-89265350D02*
X141369819Y-89122493D01*
X141369819Y-89122493D02*
X141417438Y-88979636D01*
X141417438Y-88979636D02*
X141512676Y-88884398D01*
X141512676Y-88884398D02*
X141607914Y-88836779D01*
X141607914Y-88836779D02*
X141798390Y-88789160D01*
X141798390Y-88789160D02*
X141941247Y-88789160D01*
X141941247Y-88789160D02*
X142131723Y-88836779D01*
X142131723Y-88836779D02*
X142226961Y-88884398D01*
X142226961Y-88884398D02*
X142322200Y-88979636D01*
X142322200Y-88979636D02*
X142369819Y-89122493D01*
X142369819Y-89122493D02*
X142369819Y-89217731D01*
X142369819Y-89217731D02*
X142322200Y-89360588D01*
X142322200Y-89360588D02*
X142274580Y-89408207D01*
X142274580Y-89408207D02*
X141941247Y-89408207D01*
X141941247Y-89408207D02*
X141941247Y-89217731D01*
X142369819Y-89836779D02*
X141369819Y-89836779D01*
X141369819Y-89836779D02*
X142369819Y-90408207D01*
X142369819Y-90408207D02*
X141369819Y-90408207D01*
X142369819Y-90884398D02*
X141369819Y-90884398D01*
X141369819Y-90884398D02*
X141369819Y-91122493D01*
X141369819Y-91122493D02*
X141417438Y-91265350D01*
X141417438Y-91265350D02*
X141512676Y-91360588D01*
X141512676Y-91360588D02*
X141607914Y-91408207D01*
X141607914Y-91408207D02*
X141798390Y-91455826D01*
X141798390Y-91455826D02*
X141941247Y-91455826D01*
X141941247Y-91455826D02*
X142131723Y-91408207D01*
X142131723Y-91408207D02*
X142226961Y-91360588D01*
X142226961Y-91360588D02*
X142322200Y-91265350D01*
X142322200Y-91265350D02*
X142369819Y-91122493D01*
X142369819Y-91122493D02*
X142369819Y-90884398D01*
X124922200Y-88989160D02*
X124969819Y-89132017D01*
X124969819Y-89132017D02*
X124969819Y-89370112D01*
X124969819Y-89370112D02*
X124922200Y-89465350D01*
X124922200Y-89465350D02*
X124874580Y-89512969D01*
X124874580Y-89512969D02*
X124779342Y-89560588D01*
X124779342Y-89560588D02*
X124684104Y-89560588D01*
X124684104Y-89560588D02*
X124588866Y-89512969D01*
X124588866Y-89512969D02*
X124541247Y-89465350D01*
X124541247Y-89465350D02*
X124493628Y-89370112D01*
X124493628Y-89370112D02*
X124446009Y-89179636D01*
X124446009Y-89179636D02*
X124398390Y-89084398D01*
X124398390Y-89084398D02*
X124350771Y-89036779D01*
X124350771Y-89036779D02*
X124255533Y-88989160D01*
X124255533Y-88989160D02*
X124160295Y-88989160D01*
X124160295Y-88989160D02*
X124065057Y-89036779D01*
X124065057Y-89036779D02*
X124017438Y-89084398D01*
X124017438Y-89084398D02*
X123969819Y-89179636D01*
X123969819Y-89179636D02*
X123969819Y-89417731D01*
X123969819Y-89417731D02*
X124017438Y-89560588D01*
X124874580Y-90560588D02*
X124922200Y-90512969D01*
X124922200Y-90512969D02*
X124969819Y-90370112D01*
X124969819Y-90370112D02*
X124969819Y-90274874D01*
X124969819Y-90274874D02*
X124922200Y-90132017D01*
X124922200Y-90132017D02*
X124826961Y-90036779D01*
X124826961Y-90036779D02*
X124731723Y-89989160D01*
X124731723Y-89989160D02*
X124541247Y-89941541D01*
X124541247Y-89941541D02*
X124398390Y-89941541D01*
X124398390Y-89941541D02*
X124207914Y-89989160D01*
X124207914Y-89989160D02*
X124112676Y-90036779D01*
X124112676Y-90036779D02*
X124017438Y-90132017D01*
X124017438Y-90132017D02*
X123969819Y-90274874D01*
X123969819Y-90274874D02*
X123969819Y-90370112D01*
X123969819Y-90370112D02*
X124017438Y-90512969D01*
X124017438Y-90512969D02*
X124065057Y-90560588D01*
X124969819Y-91465350D02*
X124969819Y-90989160D01*
X124969819Y-90989160D02*
X123969819Y-90989160D01*
X152366666Y-119954819D02*
X152699999Y-119478628D01*
X152938094Y-119954819D02*
X152938094Y-118954819D01*
X152938094Y-118954819D02*
X152557142Y-118954819D01*
X152557142Y-118954819D02*
X152461904Y-119002438D01*
X152461904Y-119002438D02*
X152414285Y-119050057D01*
X152414285Y-119050057D02*
X152366666Y-119145295D01*
X152366666Y-119145295D02*
X152366666Y-119288152D01*
X152366666Y-119288152D02*
X152414285Y-119383390D01*
X152414285Y-119383390D02*
X152461904Y-119431009D01*
X152461904Y-119431009D02*
X152557142Y-119478628D01*
X152557142Y-119478628D02*
X152938094Y-119478628D01*
X151509523Y-118954819D02*
X151699999Y-118954819D01*
X151699999Y-118954819D02*
X151795237Y-119002438D01*
X151795237Y-119002438D02*
X151842856Y-119050057D01*
X151842856Y-119050057D02*
X151938094Y-119192914D01*
X151938094Y-119192914D02*
X151985713Y-119383390D01*
X151985713Y-119383390D02*
X151985713Y-119764342D01*
X151985713Y-119764342D02*
X151938094Y-119859580D01*
X151938094Y-119859580D02*
X151890475Y-119907200D01*
X151890475Y-119907200D02*
X151795237Y-119954819D01*
X151795237Y-119954819D02*
X151604761Y-119954819D01*
X151604761Y-119954819D02*
X151509523Y-119907200D01*
X151509523Y-119907200D02*
X151461904Y-119859580D01*
X151461904Y-119859580D02*
X151414285Y-119764342D01*
X151414285Y-119764342D02*
X151414285Y-119526247D01*
X151414285Y-119526247D02*
X151461904Y-119431009D01*
X151461904Y-119431009D02*
X151509523Y-119383390D01*
X151509523Y-119383390D02*
X151604761Y-119335771D01*
X151604761Y-119335771D02*
X151795237Y-119335771D01*
X151795237Y-119335771D02*
X151890475Y-119383390D01*
X151890475Y-119383390D02*
X151938094Y-119431009D01*
X151938094Y-119431009D02*
X151985713Y-119526247D01*
X152366666Y-124354819D02*
X152699999Y-123878628D01*
X152938094Y-124354819D02*
X152938094Y-123354819D01*
X152938094Y-123354819D02*
X152557142Y-123354819D01*
X152557142Y-123354819D02*
X152461904Y-123402438D01*
X152461904Y-123402438D02*
X152414285Y-123450057D01*
X152414285Y-123450057D02*
X152366666Y-123545295D01*
X152366666Y-123545295D02*
X152366666Y-123688152D01*
X152366666Y-123688152D02*
X152414285Y-123783390D01*
X152414285Y-123783390D02*
X152461904Y-123831009D01*
X152461904Y-123831009D02*
X152557142Y-123878628D01*
X152557142Y-123878628D02*
X152938094Y-123878628D01*
X152033332Y-123354819D02*
X151366666Y-123354819D01*
X151366666Y-123354819D02*
X151795237Y-124354819D01*
X143166666Y-126754819D02*
X143499999Y-126278628D01*
X143738094Y-126754819D02*
X143738094Y-125754819D01*
X143738094Y-125754819D02*
X143357142Y-125754819D01*
X143357142Y-125754819D02*
X143261904Y-125802438D01*
X143261904Y-125802438D02*
X143214285Y-125850057D01*
X143214285Y-125850057D02*
X143166666Y-125945295D01*
X143166666Y-125945295D02*
X143166666Y-126088152D01*
X143166666Y-126088152D02*
X143214285Y-126183390D01*
X143214285Y-126183390D02*
X143261904Y-126231009D01*
X143261904Y-126231009D02*
X143357142Y-126278628D01*
X143357142Y-126278628D02*
X143738094Y-126278628D01*
X142261904Y-125754819D02*
X142738094Y-125754819D01*
X142738094Y-125754819D02*
X142785713Y-126231009D01*
X142785713Y-126231009D02*
X142738094Y-126183390D01*
X142738094Y-126183390D02*
X142642856Y-126135771D01*
X142642856Y-126135771D02*
X142404761Y-126135771D01*
X142404761Y-126135771D02*
X142309523Y-126183390D01*
X142309523Y-126183390D02*
X142261904Y-126231009D01*
X142261904Y-126231009D02*
X142214285Y-126326247D01*
X142214285Y-126326247D02*
X142214285Y-126564342D01*
X142214285Y-126564342D02*
X142261904Y-126659580D01*
X142261904Y-126659580D02*
X142309523Y-126707200D01*
X142309523Y-126707200D02*
X142404761Y-126754819D01*
X142404761Y-126754819D02*
X142642856Y-126754819D01*
X142642856Y-126754819D02*
X142738094Y-126707200D01*
X142738094Y-126707200D02*
X142785713Y-126659580D01*
X154842857Y-129659580D02*
X154890476Y-129707200D01*
X154890476Y-129707200D02*
X155033333Y-129754819D01*
X155033333Y-129754819D02*
X155128571Y-129754819D01*
X155128571Y-129754819D02*
X155271428Y-129707200D01*
X155271428Y-129707200D02*
X155366666Y-129611961D01*
X155366666Y-129611961D02*
X155414285Y-129516723D01*
X155414285Y-129516723D02*
X155461904Y-129326247D01*
X155461904Y-129326247D02*
X155461904Y-129183390D01*
X155461904Y-129183390D02*
X155414285Y-128992914D01*
X155414285Y-128992914D02*
X155366666Y-128897676D01*
X155366666Y-128897676D02*
X155271428Y-128802438D01*
X155271428Y-128802438D02*
X155128571Y-128754819D01*
X155128571Y-128754819D02*
X155033333Y-128754819D01*
X155033333Y-128754819D02*
X154890476Y-128802438D01*
X154890476Y-128802438D02*
X154842857Y-128850057D01*
X153890476Y-129754819D02*
X154461904Y-129754819D01*
X154176190Y-129754819D02*
X154176190Y-128754819D01*
X154176190Y-128754819D02*
X154271428Y-128897676D01*
X154271428Y-128897676D02*
X154366666Y-128992914D01*
X154366666Y-128992914D02*
X154461904Y-129040533D01*
X152938095Y-129754819D02*
X153509523Y-129754819D01*
X153223809Y-129754819D02*
X153223809Y-128754819D01*
X153223809Y-128754819D02*
X153319047Y-128897676D01*
X153319047Y-128897676D02*
X153414285Y-128992914D01*
X153414285Y-128992914D02*
X153509523Y-129040533D01*
X129342857Y-99154819D02*
X129676190Y-98678628D01*
X129914285Y-99154819D02*
X129914285Y-98154819D01*
X129914285Y-98154819D02*
X129533333Y-98154819D01*
X129533333Y-98154819D02*
X129438095Y-98202438D01*
X129438095Y-98202438D02*
X129390476Y-98250057D01*
X129390476Y-98250057D02*
X129342857Y-98345295D01*
X129342857Y-98345295D02*
X129342857Y-98488152D01*
X129342857Y-98488152D02*
X129390476Y-98583390D01*
X129390476Y-98583390D02*
X129438095Y-98631009D01*
X129438095Y-98631009D02*
X129533333Y-98678628D01*
X129533333Y-98678628D02*
X129914285Y-98678628D01*
X128390476Y-99154819D02*
X128961904Y-99154819D01*
X128676190Y-99154819D02*
X128676190Y-98154819D01*
X128676190Y-98154819D02*
X128771428Y-98297676D01*
X128771428Y-98297676D02*
X128866666Y-98392914D01*
X128866666Y-98392914D02*
X128961904Y-98440533D01*
X127533333Y-98488152D02*
X127533333Y-99154819D01*
X127771428Y-98107200D02*
X128009523Y-98821485D01*
X128009523Y-98821485D02*
X127390476Y-98821485D01*
X142054819Y-107257142D02*
X141578628Y-106923809D01*
X142054819Y-106685714D02*
X141054819Y-106685714D01*
X141054819Y-106685714D02*
X141054819Y-107066666D01*
X141054819Y-107066666D02*
X141102438Y-107161904D01*
X141102438Y-107161904D02*
X141150057Y-107209523D01*
X141150057Y-107209523D02*
X141245295Y-107257142D01*
X141245295Y-107257142D02*
X141388152Y-107257142D01*
X141388152Y-107257142D02*
X141483390Y-107209523D01*
X141483390Y-107209523D02*
X141531009Y-107161904D01*
X141531009Y-107161904D02*
X141578628Y-107066666D01*
X141578628Y-107066666D02*
X141578628Y-106685714D01*
X142054819Y-108209523D02*
X142054819Y-107638095D01*
X142054819Y-107923809D02*
X141054819Y-107923809D01*
X141054819Y-107923809D02*
X141197676Y-107828571D01*
X141197676Y-107828571D02*
X141292914Y-107733333D01*
X141292914Y-107733333D02*
X141340533Y-107638095D01*
X141483390Y-108780952D02*
X141435771Y-108685714D01*
X141435771Y-108685714D02*
X141388152Y-108638095D01*
X141388152Y-108638095D02*
X141292914Y-108590476D01*
X141292914Y-108590476D02*
X141245295Y-108590476D01*
X141245295Y-108590476D02*
X141150057Y-108638095D01*
X141150057Y-108638095D02*
X141102438Y-108685714D01*
X141102438Y-108685714D02*
X141054819Y-108780952D01*
X141054819Y-108780952D02*
X141054819Y-108971428D01*
X141054819Y-108971428D02*
X141102438Y-109066666D01*
X141102438Y-109066666D02*
X141150057Y-109114285D01*
X141150057Y-109114285D02*
X141245295Y-109161904D01*
X141245295Y-109161904D02*
X141292914Y-109161904D01*
X141292914Y-109161904D02*
X141388152Y-109114285D01*
X141388152Y-109114285D02*
X141435771Y-109066666D01*
X141435771Y-109066666D02*
X141483390Y-108971428D01*
X141483390Y-108971428D02*
X141483390Y-108780952D01*
X141483390Y-108780952D02*
X141531009Y-108685714D01*
X141531009Y-108685714D02*
X141578628Y-108638095D01*
X141578628Y-108638095D02*
X141673866Y-108590476D01*
X141673866Y-108590476D02*
X141864342Y-108590476D01*
X141864342Y-108590476D02*
X141959580Y-108638095D01*
X141959580Y-108638095D02*
X142007200Y-108685714D01*
X142007200Y-108685714D02*
X142054819Y-108780952D01*
X142054819Y-108780952D02*
X142054819Y-108971428D01*
X142054819Y-108971428D02*
X142007200Y-109066666D01*
X142007200Y-109066666D02*
X141959580Y-109114285D01*
X141959580Y-109114285D02*
X141864342Y-109161904D01*
X141864342Y-109161904D02*
X141673866Y-109161904D01*
X141673866Y-109161904D02*
X141578628Y-109114285D01*
X141578628Y-109114285D02*
X141531009Y-109066666D01*
X141531009Y-109066666D02*
X141483390Y-108971428D01*
X141954819Y-110757142D02*
X141478628Y-110423809D01*
X141954819Y-110185714D02*
X140954819Y-110185714D01*
X140954819Y-110185714D02*
X140954819Y-110566666D01*
X140954819Y-110566666D02*
X141002438Y-110661904D01*
X141002438Y-110661904D02*
X141050057Y-110709523D01*
X141050057Y-110709523D02*
X141145295Y-110757142D01*
X141145295Y-110757142D02*
X141288152Y-110757142D01*
X141288152Y-110757142D02*
X141383390Y-110709523D01*
X141383390Y-110709523D02*
X141431009Y-110661904D01*
X141431009Y-110661904D02*
X141478628Y-110566666D01*
X141478628Y-110566666D02*
X141478628Y-110185714D01*
X141954819Y-111709523D02*
X141954819Y-111138095D01*
X141954819Y-111423809D02*
X140954819Y-111423809D01*
X140954819Y-111423809D02*
X141097676Y-111328571D01*
X141097676Y-111328571D02*
X141192914Y-111233333D01*
X141192914Y-111233333D02*
X141240533Y-111138095D01*
X140954819Y-112042857D02*
X140954819Y-112709523D01*
X140954819Y-112709523D02*
X141954819Y-112280952D01*
X128597667Y-107288530D02*
X128665011Y-107288530D01*
X128665011Y-107288530D02*
X128799698Y-107221186D01*
X128799698Y-107221186D02*
X128867041Y-107153843D01*
X128867041Y-107153843D02*
X128934385Y-107019156D01*
X128934385Y-107019156D02*
X128934385Y-106884469D01*
X128934385Y-106884469D02*
X128900713Y-106783454D01*
X128900713Y-106783454D02*
X128799698Y-106615095D01*
X128799698Y-106615095D02*
X128698683Y-106514080D01*
X128698683Y-106514080D02*
X128530324Y-106413064D01*
X128530324Y-106413064D02*
X128429309Y-106379393D01*
X128429309Y-106379393D02*
X128294622Y-106379393D01*
X128294622Y-106379393D02*
X128159935Y-106446736D01*
X128159935Y-106446736D02*
X128092591Y-106514080D01*
X128092591Y-106514080D02*
X128025248Y-106648767D01*
X128025248Y-106648767D02*
X128025248Y-106716110D01*
X127991576Y-108029308D02*
X128395637Y-107625247D01*
X128193606Y-107827278D02*
X127486500Y-107120171D01*
X127486500Y-107120171D02*
X127654858Y-107153843D01*
X127654858Y-107153843D02*
X127789545Y-107153843D01*
X127789545Y-107153843D02*
X127890561Y-107120171D01*
X127183454Y-108029309D02*
X127217125Y-107928293D01*
X127217125Y-107928293D02*
X127217125Y-107860950D01*
X127217125Y-107860950D02*
X127183454Y-107759935D01*
X127183454Y-107759935D02*
X127149782Y-107726263D01*
X127149782Y-107726263D02*
X127048767Y-107692591D01*
X127048767Y-107692591D02*
X126981423Y-107692591D01*
X126981423Y-107692591D02*
X126880408Y-107726263D01*
X126880408Y-107726263D02*
X126745721Y-107860950D01*
X126745721Y-107860950D02*
X126712049Y-107961965D01*
X126712049Y-107961965D02*
X126712049Y-108029309D01*
X126712049Y-108029309D02*
X126745721Y-108130324D01*
X126745721Y-108130324D02*
X126779393Y-108163996D01*
X126779393Y-108163996D02*
X126880408Y-108197667D01*
X126880408Y-108197667D02*
X126947751Y-108197667D01*
X126947751Y-108197667D02*
X127048767Y-108163996D01*
X127048767Y-108163996D02*
X127183454Y-108029309D01*
X127183454Y-108029309D02*
X127284469Y-107995637D01*
X127284469Y-107995637D02*
X127351812Y-107995637D01*
X127351812Y-107995637D02*
X127452828Y-108029309D01*
X127452828Y-108029309D02*
X127587515Y-108163996D01*
X127587515Y-108163996D02*
X127621186Y-108265011D01*
X127621186Y-108265011D02*
X127621186Y-108332354D01*
X127621186Y-108332354D02*
X127587515Y-108433370D01*
X127587515Y-108433370D02*
X127452828Y-108568057D01*
X127452828Y-108568057D02*
X127351812Y-108601728D01*
X127351812Y-108601728D02*
X127284469Y-108601728D01*
X127284469Y-108601728D02*
X127183454Y-108568057D01*
X127183454Y-108568057D02*
X127048767Y-108433370D01*
X127048767Y-108433370D02*
X127015095Y-108332354D01*
X127015095Y-108332354D02*
X127015095Y-108265011D01*
X127015095Y-108265011D02*
X127048767Y-108163996D01*
X144950478Y-96735698D02*
X144474287Y-96402365D01*
X144950478Y-96164270D02*
X143950478Y-96164270D01*
X143950478Y-96164270D02*
X143950478Y-96545222D01*
X143950478Y-96545222D02*
X143998097Y-96640460D01*
X143998097Y-96640460D02*
X144045716Y-96688079D01*
X144045716Y-96688079D02*
X144140954Y-96735698D01*
X144140954Y-96735698D02*
X144283811Y-96735698D01*
X144283811Y-96735698D02*
X144379049Y-96688079D01*
X144379049Y-96688079D02*
X144426668Y-96640460D01*
X144426668Y-96640460D02*
X144474287Y-96545222D01*
X144474287Y-96545222D02*
X144474287Y-96164270D01*
X144950478Y-97688079D02*
X144950478Y-97116651D01*
X144950478Y-97402365D02*
X143950478Y-97402365D01*
X143950478Y-97402365D02*
X144093335Y-97307127D01*
X144093335Y-97307127D02*
X144188573Y-97211889D01*
X144188573Y-97211889D02*
X144236192Y-97116651D01*
X129866666Y-102959580D02*
X129914285Y-103007200D01*
X129914285Y-103007200D02*
X130057142Y-103054819D01*
X130057142Y-103054819D02*
X130152380Y-103054819D01*
X130152380Y-103054819D02*
X130295237Y-103007200D01*
X130295237Y-103007200D02*
X130390475Y-102911961D01*
X130390475Y-102911961D02*
X130438094Y-102816723D01*
X130438094Y-102816723D02*
X130485713Y-102626247D01*
X130485713Y-102626247D02*
X130485713Y-102483390D01*
X130485713Y-102483390D02*
X130438094Y-102292914D01*
X130438094Y-102292914D02*
X130390475Y-102197676D01*
X130390475Y-102197676D02*
X130295237Y-102102438D01*
X130295237Y-102102438D02*
X130152380Y-102054819D01*
X130152380Y-102054819D02*
X130057142Y-102054819D01*
X130057142Y-102054819D02*
X129914285Y-102102438D01*
X129914285Y-102102438D02*
X129866666Y-102150057D01*
X129485713Y-102150057D02*
X129438094Y-102102438D01*
X129438094Y-102102438D02*
X129342856Y-102054819D01*
X129342856Y-102054819D02*
X129104761Y-102054819D01*
X129104761Y-102054819D02*
X129009523Y-102102438D01*
X129009523Y-102102438D02*
X128961904Y-102150057D01*
X128961904Y-102150057D02*
X128914285Y-102245295D01*
X128914285Y-102245295D02*
X128914285Y-102340533D01*
X128914285Y-102340533D02*
X128961904Y-102483390D01*
X128961904Y-102483390D02*
X129533332Y-103054819D01*
X129533332Y-103054819D02*
X128914285Y-103054819D01*
X129766666Y-104659580D02*
X129814285Y-104707200D01*
X129814285Y-104707200D02*
X129957142Y-104754819D01*
X129957142Y-104754819D02*
X130052380Y-104754819D01*
X130052380Y-104754819D02*
X130195237Y-104707200D01*
X130195237Y-104707200D02*
X130290475Y-104611961D01*
X130290475Y-104611961D02*
X130338094Y-104516723D01*
X130338094Y-104516723D02*
X130385713Y-104326247D01*
X130385713Y-104326247D02*
X130385713Y-104183390D01*
X130385713Y-104183390D02*
X130338094Y-103992914D01*
X130338094Y-103992914D02*
X130290475Y-103897676D01*
X130290475Y-103897676D02*
X130195237Y-103802438D01*
X130195237Y-103802438D02*
X130052380Y-103754819D01*
X130052380Y-103754819D02*
X129957142Y-103754819D01*
X129957142Y-103754819D02*
X129814285Y-103802438D01*
X129814285Y-103802438D02*
X129766666Y-103850057D01*
X128814285Y-104754819D02*
X129385713Y-104754819D01*
X129099999Y-104754819D02*
X129099999Y-103754819D01*
X129099999Y-103754819D02*
X129195237Y-103897676D01*
X129195237Y-103897676D02*
X129290475Y-103992914D01*
X129290475Y-103992914D02*
X129385713Y-104040533D01*
X143166666Y-128454819D02*
X143499999Y-127978628D01*
X143738094Y-128454819D02*
X143738094Y-127454819D01*
X143738094Y-127454819D02*
X143357142Y-127454819D01*
X143357142Y-127454819D02*
X143261904Y-127502438D01*
X143261904Y-127502438D02*
X143214285Y-127550057D01*
X143214285Y-127550057D02*
X143166666Y-127645295D01*
X143166666Y-127645295D02*
X143166666Y-127788152D01*
X143166666Y-127788152D02*
X143214285Y-127883390D01*
X143214285Y-127883390D02*
X143261904Y-127931009D01*
X143261904Y-127931009D02*
X143357142Y-127978628D01*
X143357142Y-127978628D02*
X143738094Y-127978628D01*
X142833332Y-127454819D02*
X142214285Y-127454819D01*
X142214285Y-127454819D02*
X142547618Y-127835771D01*
X142547618Y-127835771D02*
X142404761Y-127835771D01*
X142404761Y-127835771D02*
X142309523Y-127883390D01*
X142309523Y-127883390D02*
X142261904Y-127931009D01*
X142261904Y-127931009D02*
X142214285Y-128026247D01*
X142214285Y-128026247D02*
X142214285Y-128264342D01*
X142214285Y-128264342D02*
X142261904Y-128359580D01*
X142261904Y-128359580D02*
X142309523Y-128407200D01*
X142309523Y-128407200D02*
X142404761Y-128454819D01*
X142404761Y-128454819D02*
X142690475Y-128454819D01*
X142690475Y-128454819D02*
X142785713Y-128407200D01*
X142785713Y-128407200D02*
X142833332Y-128359580D01*
X135333333Y-100431009D02*
X135666666Y-100431009D01*
X135666666Y-100954819D02*
X135666666Y-99954819D01*
X135666666Y-99954819D02*
X135190476Y-99954819D01*
X134476190Y-100431009D02*
X134333333Y-100478628D01*
X134333333Y-100478628D02*
X134285714Y-100526247D01*
X134285714Y-100526247D02*
X134238095Y-100621485D01*
X134238095Y-100621485D02*
X134238095Y-100764342D01*
X134238095Y-100764342D02*
X134285714Y-100859580D01*
X134285714Y-100859580D02*
X134333333Y-100907200D01*
X134333333Y-100907200D02*
X134428571Y-100954819D01*
X134428571Y-100954819D02*
X134809523Y-100954819D01*
X134809523Y-100954819D02*
X134809523Y-99954819D01*
X134809523Y-99954819D02*
X134476190Y-99954819D01*
X134476190Y-99954819D02*
X134380952Y-100002438D01*
X134380952Y-100002438D02*
X134333333Y-100050057D01*
X134333333Y-100050057D02*
X134285714Y-100145295D01*
X134285714Y-100145295D02*
X134285714Y-100240533D01*
X134285714Y-100240533D02*
X134333333Y-100335771D01*
X134333333Y-100335771D02*
X134380952Y-100383390D01*
X134380952Y-100383390D02*
X134476190Y-100431009D01*
X134476190Y-100431009D02*
X134809523Y-100431009D01*
X133285714Y-100954819D02*
X133857142Y-100954819D01*
X133571428Y-100954819D02*
X133571428Y-99954819D01*
X133571428Y-99954819D02*
X133666666Y-100097676D01*
X133666666Y-100097676D02*
X133761904Y-100192914D01*
X133761904Y-100192914D02*
X133857142Y-100240533D01*
X135242857Y-105659580D02*
X135290476Y-105707200D01*
X135290476Y-105707200D02*
X135433333Y-105754819D01*
X135433333Y-105754819D02*
X135528571Y-105754819D01*
X135528571Y-105754819D02*
X135671428Y-105707200D01*
X135671428Y-105707200D02*
X135766666Y-105611961D01*
X135766666Y-105611961D02*
X135814285Y-105516723D01*
X135814285Y-105516723D02*
X135861904Y-105326247D01*
X135861904Y-105326247D02*
X135861904Y-105183390D01*
X135861904Y-105183390D02*
X135814285Y-104992914D01*
X135814285Y-104992914D02*
X135766666Y-104897676D01*
X135766666Y-104897676D02*
X135671428Y-104802438D01*
X135671428Y-104802438D02*
X135528571Y-104754819D01*
X135528571Y-104754819D02*
X135433333Y-104754819D01*
X135433333Y-104754819D02*
X135290476Y-104802438D01*
X135290476Y-104802438D02*
X135242857Y-104850057D01*
X134290476Y-105754819D02*
X134861904Y-105754819D01*
X134576190Y-105754819D02*
X134576190Y-104754819D01*
X134576190Y-104754819D02*
X134671428Y-104897676D01*
X134671428Y-104897676D02*
X134766666Y-104992914D01*
X134766666Y-104992914D02*
X134861904Y-105040533D01*
X133814285Y-105754819D02*
X133623809Y-105754819D01*
X133623809Y-105754819D02*
X133528571Y-105707200D01*
X133528571Y-105707200D02*
X133480952Y-105659580D01*
X133480952Y-105659580D02*
X133385714Y-105516723D01*
X133385714Y-105516723D02*
X133338095Y-105326247D01*
X133338095Y-105326247D02*
X133338095Y-104945295D01*
X133338095Y-104945295D02*
X133385714Y-104850057D01*
X133385714Y-104850057D02*
X133433333Y-104802438D01*
X133433333Y-104802438D02*
X133528571Y-104754819D01*
X133528571Y-104754819D02*
X133719047Y-104754819D01*
X133719047Y-104754819D02*
X133814285Y-104802438D01*
X133814285Y-104802438D02*
X133861904Y-104850057D01*
X133861904Y-104850057D02*
X133909523Y-104945295D01*
X133909523Y-104945295D02*
X133909523Y-105183390D01*
X133909523Y-105183390D02*
X133861904Y-105278628D01*
X133861904Y-105278628D02*
X133814285Y-105326247D01*
X133814285Y-105326247D02*
X133719047Y-105373866D01*
X133719047Y-105373866D02*
X133528571Y-105373866D01*
X133528571Y-105373866D02*
X133433333Y-105326247D01*
X133433333Y-105326247D02*
X133385714Y-105278628D01*
X133385714Y-105278628D02*
X133338095Y-105183390D01*
X145892857Y-110924819D02*
X146226190Y-110448628D01*
X146464285Y-110924819D02*
X146464285Y-109924819D01*
X146464285Y-109924819D02*
X146083333Y-109924819D01*
X146083333Y-109924819D02*
X145988095Y-109972438D01*
X145988095Y-109972438D02*
X145940476Y-110020057D01*
X145940476Y-110020057D02*
X145892857Y-110115295D01*
X145892857Y-110115295D02*
X145892857Y-110258152D01*
X145892857Y-110258152D02*
X145940476Y-110353390D01*
X145940476Y-110353390D02*
X145988095Y-110401009D01*
X145988095Y-110401009D02*
X146083333Y-110448628D01*
X146083333Y-110448628D02*
X146464285Y-110448628D01*
X144940476Y-110924819D02*
X145511904Y-110924819D01*
X145226190Y-110924819D02*
X145226190Y-109924819D01*
X145226190Y-109924819D02*
X145321428Y-110067676D01*
X145321428Y-110067676D02*
X145416666Y-110162914D01*
X145416666Y-110162914D02*
X145511904Y-110210533D01*
X144464285Y-110924819D02*
X144273809Y-110924819D01*
X144273809Y-110924819D02*
X144178571Y-110877200D01*
X144178571Y-110877200D02*
X144130952Y-110829580D01*
X144130952Y-110829580D02*
X144035714Y-110686723D01*
X144035714Y-110686723D02*
X143988095Y-110496247D01*
X143988095Y-110496247D02*
X143988095Y-110115295D01*
X143988095Y-110115295D02*
X144035714Y-110020057D01*
X144035714Y-110020057D02*
X144083333Y-109972438D01*
X144083333Y-109972438D02*
X144178571Y-109924819D01*
X144178571Y-109924819D02*
X144369047Y-109924819D01*
X144369047Y-109924819D02*
X144464285Y-109972438D01*
X144464285Y-109972438D02*
X144511904Y-110020057D01*
X144511904Y-110020057D02*
X144559523Y-110115295D01*
X144559523Y-110115295D02*
X144559523Y-110353390D01*
X144559523Y-110353390D02*
X144511904Y-110448628D01*
X144511904Y-110448628D02*
X144464285Y-110496247D01*
X144464285Y-110496247D02*
X144369047Y-110543866D01*
X144369047Y-110543866D02*
X144178571Y-110543866D01*
X144178571Y-110543866D02*
X144083333Y-110496247D01*
X144083333Y-110496247D02*
X144035714Y-110448628D01*
X144035714Y-110448628D02*
X143988095Y-110353390D01*
X149142857Y-128659580D02*
X149190476Y-128707200D01*
X149190476Y-128707200D02*
X149333333Y-128754819D01*
X149333333Y-128754819D02*
X149428571Y-128754819D01*
X149428571Y-128754819D02*
X149571428Y-128707200D01*
X149571428Y-128707200D02*
X149666666Y-128611961D01*
X149666666Y-128611961D02*
X149714285Y-128516723D01*
X149714285Y-128516723D02*
X149761904Y-128326247D01*
X149761904Y-128326247D02*
X149761904Y-128183390D01*
X149761904Y-128183390D02*
X149714285Y-127992914D01*
X149714285Y-127992914D02*
X149666666Y-127897676D01*
X149666666Y-127897676D02*
X149571428Y-127802438D01*
X149571428Y-127802438D02*
X149428571Y-127754819D01*
X149428571Y-127754819D02*
X149333333Y-127754819D01*
X149333333Y-127754819D02*
X149190476Y-127802438D01*
X149190476Y-127802438D02*
X149142857Y-127850057D01*
X148190476Y-128754819D02*
X148761904Y-128754819D01*
X148476190Y-128754819D02*
X148476190Y-127754819D01*
X148476190Y-127754819D02*
X148571428Y-127897676D01*
X148571428Y-127897676D02*
X148666666Y-127992914D01*
X148666666Y-127992914D02*
X148761904Y-128040533D01*
X147809523Y-127850057D02*
X147761904Y-127802438D01*
X147761904Y-127802438D02*
X147666666Y-127754819D01*
X147666666Y-127754819D02*
X147428571Y-127754819D01*
X147428571Y-127754819D02*
X147333333Y-127802438D01*
X147333333Y-127802438D02*
X147285714Y-127850057D01*
X147285714Y-127850057D02*
X147238095Y-127945295D01*
X147238095Y-127945295D02*
X147238095Y-128040533D01*
X147238095Y-128040533D02*
X147285714Y-128183390D01*
X147285714Y-128183390D02*
X147857142Y-128754819D01*
X147857142Y-128754819D02*
X147238095Y-128754819D01*
X154038095Y-127645180D02*
X154038095Y-126835657D01*
X154038095Y-126835657D02*
X154085714Y-126740419D01*
X154085714Y-126740419D02*
X154133333Y-126692800D01*
X154133333Y-126692800D02*
X154228571Y-126645180D01*
X154228571Y-126645180D02*
X154419047Y-126645180D01*
X154419047Y-126645180D02*
X154514285Y-126692800D01*
X154514285Y-126692800D02*
X154561904Y-126740419D01*
X154561904Y-126740419D02*
X154609523Y-126835657D01*
X154609523Y-126835657D02*
X154609523Y-127645180D01*
X154990476Y-127645180D02*
X155609523Y-127645180D01*
X155609523Y-127645180D02*
X155276190Y-127264228D01*
X155276190Y-127264228D02*
X155419047Y-127264228D01*
X155419047Y-127264228D02*
X155514285Y-127216609D01*
X155514285Y-127216609D02*
X155561904Y-127168990D01*
X155561904Y-127168990D02*
X155609523Y-127073752D01*
X155609523Y-127073752D02*
X155609523Y-126835657D01*
X155609523Y-126835657D02*
X155561904Y-126740419D01*
X155561904Y-126740419D02*
X155514285Y-126692800D01*
X155514285Y-126692800D02*
X155419047Y-126645180D01*
X155419047Y-126645180D02*
X155133333Y-126645180D01*
X155133333Y-126645180D02*
X155038095Y-126692800D01*
X155038095Y-126692800D02*
X154990476Y-126740419D01*
X150777499Y-127885819D02*
X150777499Y-128123914D01*
X151015594Y-128028676D02*
X150777499Y-128123914D01*
X150777499Y-128123914D02*
X150539404Y-128028676D01*
X150920356Y-128314390D02*
X150777499Y-128123914D01*
X150777499Y-128123914D02*
X150634642Y-128314390D01*
X128254166Y-116754819D02*
X128587499Y-116278628D01*
X128825594Y-116754819D02*
X128825594Y-115754819D01*
X128825594Y-115754819D02*
X128444642Y-115754819D01*
X128444642Y-115754819D02*
X128349404Y-115802438D01*
X128349404Y-115802438D02*
X128301785Y-115850057D01*
X128301785Y-115850057D02*
X128254166Y-115945295D01*
X128254166Y-115945295D02*
X128254166Y-116088152D01*
X128254166Y-116088152D02*
X128301785Y-116183390D01*
X128301785Y-116183390D02*
X128349404Y-116231009D01*
X128349404Y-116231009D02*
X128444642Y-116278628D01*
X128444642Y-116278628D02*
X128825594Y-116278628D01*
X127682737Y-116183390D02*
X127777975Y-116135771D01*
X127777975Y-116135771D02*
X127825594Y-116088152D01*
X127825594Y-116088152D02*
X127873213Y-115992914D01*
X127873213Y-115992914D02*
X127873213Y-115945295D01*
X127873213Y-115945295D02*
X127825594Y-115850057D01*
X127825594Y-115850057D02*
X127777975Y-115802438D01*
X127777975Y-115802438D02*
X127682737Y-115754819D01*
X127682737Y-115754819D02*
X127492261Y-115754819D01*
X127492261Y-115754819D02*
X127397023Y-115802438D01*
X127397023Y-115802438D02*
X127349404Y-115850057D01*
X127349404Y-115850057D02*
X127301785Y-115945295D01*
X127301785Y-115945295D02*
X127301785Y-115992914D01*
X127301785Y-115992914D02*
X127349404Y-116088152D01*
X127349404Y-116088152D02*
X127397023Y-116135771D01*
X127397023Y-116135771D02*
X127492261Y-116183390D01*
X127492261Y-116183390D02*
X127682737Y-116183390D01*
X127682737Y-116183390D02*
X127777975Y-116231009D01*
X127777975Y-116231009D02*
X127825594Y-116278628D01*
X127825594Y-116278628D02*
X127873213Y-116373866D01*
X127873213Y-116373866D02*
X127873213Y-116564342D01*
X127873213Y-116564342D02*
X127825594Y-116659580D01*
X127825594Y-116659580D02*
X127777975Y-116707200D01*
X127777975Y-116707200D02*
X127682737Y-116754819D01*
X127682737Y-116754819D02*
X127492261Y-116754819D01*
X127492261Y-116754819D02*
X127397023Y-116707200D01*
X127397023Y-116707200D02*
X127349404Y-116659580D01*
X127349404Y-116659580D02*
X127301785Y-116564342D01*
X127301785Y-116564342D02*
X127301785Y-116373866D01*
X127301785Y-116373866D02*
X127349404Y-116278628D01*
X127349404Y-116278628D02*
X127397023Y-116231009D01*
X127397023Y-116231009D02*
X127492261Y-116183390D01*
D11*
%TO.C,R6*%
X150700000Y-121252600D02*
X153700000Y-121252600D01*
X153700000Y-117747400D02*
X150700000Y-117747400D01*
D12*
%TO.C,TP1*%
X126950000Y-109600000D02*
G75*
G02*
X125050000Y-109600000I-950000J0D01*
G01*
X125050000Y-109600000D02*
G75*
G02*
X126950000Y-109600000I950000J0D01*
G01*
%TO.C,TP3*%
X141550000Y-100600000D02*
G75*
G02*
X139650000Y-100600000I-950000J0D01*
G01*
X139650000Y-100600000D02*
G75*
G02*
X141550000Y-100600000I950000J0D01*
G01*
%TO.C,L1*%
X130200000Y-112700000D02*
X132200000Y-112700000D01*
X130200000Y-115500000D02*
X130200000Y-112700000D01*
X132200000Y-112700000D02*
X132200000Y-115500000D01*
X132200000Y-115500000D02*
X130200000Y-115500000D01*
D11*
%TO.C,R7*%
X150700000Y-125652600D02*
X153700000Y-125652600D01*
X153700000Y-122147400D02*
X150700000Y-122147400D01*
D12*
%TO.C,R5*%
X145937258Y-125777500D02*
X145462742Y-125777500D01*
X145937258Y-126822500D02*
X145462742Y-126822500D01*
%TO.C,C11*%
X150959420Y-128790000D02*
X151240580Y-128790000D01*
X150959420Y-129810000D02*
X151240580Y-129810000D01*
%TO.C,TP2*%
X141550000Y-103500000D02*
G75*
G02*
X139650000Y-103500000I-950000J0D01*
G01*
X139650000Y-103500000D02*
G75*
G02*
X141550000Y-103500000I950000J0D01*
G01*
%TO.C,JP2*%
X132900000Y-93700000D02*
X135700000Y-93700000D01*
X132900000Y-95700000D02*
X132900000Y-93700000D01*
X135700000Y-93700000D02*
X135700000Y-95700000D01*
X135700000Y-95700000D02*
X132900000Y-95700000D01*
%TO.C,R14*%
X128562742Y-96577500D02*
X129037258Y-96577500D01*
X128562742Y-97622500D02*
X129037258Y-97622500D01*
%TO.C,R18*%
X139377500Y-108237258D02*
X139377500Y-107762742D01*
X140422500Y-108237258D02*
X140422500Y-107762742D01*
%TO.C,R17*%
X139377500Y-111637258D02*
X139377500Y-111162742D01*
X140422500Y-111637258D02*
X140422500Y-111162742D01*
%TO.C,C18*%
X128435949Y-108242802D02*
X128642802Y-108035949D01*
X129157198Y-108964051D02*
X129364051Y-108757198D01*
%TO.C,R1*%
X145403159Y-97139623D02*
X145403159Y-96665107D01*
X146448159Y-97139623D02*
X146448159Y-96665107D01*
%TO.C,TP5*%
X126950000Y-106400000D02*
G75*
G02*
X125050000Y-106400000I-950000J0D01*
G01*
X125050000Y-106400000D02*
G75*
G02*
X126950000Y-106400000I950000J0D01*
G01*
%TO.C,H4*%
X123000000Y-119900000D02*
X127400000Y-119900000D01*
X123000000Y-124300000D02*
X123000000Y-119900000D01*
X127400000Y-119900000D02*
X127400000Y-124300000D01*
X127400000Y-124300000D02*
X123000000Y-124300000D01*
%TO.C,C2*%
X127059420Y-102090000D02*
X127340580Y-102090000D01*
X127059420Y-103110000D02*
X127340580Y-103110000D01*
%TO.C,C1*%
X127059420Y-103690000D02*
X127340580Y-103690000D01*
X127059420Y-104710000D02*
X127340580Y-104710000D01*
%TO.C,TP4*%
X126950000Y-100200000D02*
G75*
G02*
X125050000Y-100200000I-950000J0D01*
G01*
X125050000Y-100200000D02*
G75*
G02*
X126950000Y-100200000I950000J0D01*
G01*
%TO.C,JP1*%
X125700000Y-93700000D02*
X128500000Y-93700000D01*
X125700000Y-95700000D02*
X125700000Y-93700000D01*
X128500000Y-93700000D02*
X128500000Y-95700000D01*
X128500000Y-95700000D02*
X125700000Y-95700000D01*
%TO.C,R3*%
X145937258Y-127377500D02*
X145462742Y-127377500D01*
X145937258Y-128422500D02*
X145462742Y-128422500D01*
%TO.C,FB1*%
X134762779Y-101590000D02*
X134437221Y-101590000D01*
X134762779Y-102610000D02*
X134437221Y-102610000D01*
%TO.C,C19*%
X134459420Y-103090000D02*
X134740580Y-103090000D01*
X134459420Y-104110000D02*
X134740580Y-104110000D01*
%TO.C,TP6*%
X138150000Y-107800000D02*
G75*
G02*
X136250000Y-107800000I-950000J0D01*
G01*
X136250000Y-107800000D02*
G75*
G02*
X138150000Y-107800000I950000J0D01*
G01*
%TO.C,R19*%
X145012742Y-111377500D02*
X145487258Y-111377500D01*
X145012742Y-112422500D02*
X145487258Y-112422500D01*
%TO.C,H2*%
X156700000Y-122200000D02*
X161100000Y-122200000D01*
X156700000Y-126600000D02*
X156700000Y-122200000D01*
X161100000Y-122200000D02*
X161100000Y-126600000D01*
X161100000Y-126600000D02*
X156700000Y-126600000D01*
%TO.C,C12*%
X149240580Y-126390000D02*
X148959420Y-126390000D01*
X149240580Y-127410000D02*
X148959420Y-127410000D01*
D11*
%TO.C,U3*%
X151308500Y-128329000D02*
X151976565Y-128329000D01*
X151976565Y-126271000D02*
X151308500Y-126271000D01*
X152698435Y-128329000D02*
X153366500Y-128329000D01*
X153366500Y-126271000D02*
X152698435Y-126271000D01*
D12*
%TO.C,R8*%
X125437258Y-115877500D02*
X124962742Y-115877500D01*
X125437258Y-116922500D02*
X124962742Y-116922500D01*
%TD*%
%LPC*%
D13*
%TO.C,U3*%
G36*
X152042499Y-127000001D02*
G01*
X151362501Y-127000001D01*
X151362501Y-126599999D01*
X152042499Y-126599999D01*
X152042499Y-127000001D01*
G37*
G36*
X152042499Y-127500000D02*
G01*
X151362501Y-127500000D01*
X151362501Y-127100000D01*
X152042499Y-127100000D01*
X152042499Y-127500000D01*
G37*
G36*
X152042499Y-128000001D02*
G01*
X151362501Y-128000001D01*
X151362501Y-127599999D01*
X152042499Y-127599999D01*
X152042499Y-128000001D01*
G37*
G36*
X152567500Y-127229999D02*
G01*
X152107500Y-127229999D01*
X152107500Y-126500000D01*
X152567500Y-126500000D01*
X152567500Y-127229999D01*
G37*
G36*
X152567500Y-128105000D02*
G01*
X152107500Y-128105000D01*
X152107500Y-127365001D01*
X152567500Y-127365001D01*
X152567500Y-128105000D01*
G37*
G36*
X153312499Y-127000001D02*
G01*
X152632501Y-127000001D01*
X152632501Y-126599999D01*
X153312499Y-126599999D01*
X153312499Y-127000001D01*
G37*
G36*
X153312499Y-127500000D02*
G01*
X152632501Y-127500000D01*
X152632501Y-127100000D01*
X153312499Y-127100000D01*
X153312499Y-127500000D01*
G37*
G36*
X153312499Y-128000001D02*
G01*
X152632501Y-128000001D01*
X152632501Y-127599999D01*
X153312499Y-127599999D01*
X153312499Y-128000001D01*
G37*
%TD*%
D14*
%TO.C,J3*%
X156400000Y-96900000D03*
D15*
X156400000Y-95650000D03*
X156400000Y-94400000D03*
%TD*%
D16*
%TO.C,C15*%
X152800000Y-110900000D03*
X150800000Y-110900000D03*
%TD*%
D17*
%TO.C,J4*%
X144525000Y-90000000D03*
D18*
X147065000Y-90000000D03*
%TD*%
D19*
%TO.C,U2*%
X149162498Y-98100001D03*
X150562500Y-98100001D03*
X149862499Y-97374600D03*
X149162498Y-96699999D03*
X150562500Y-96699999D03*
%TD*%
D20*
%TO.C,R6*%
X154800000Y-119500000D03*
X149600000Y-119500000D03*
%TD*%
D21*
%TO.C,TP1*%
X126000000Y-109600000D03*
%TD*%
%TO.C,TP3*%
X140600000Y-100600000D03*
%TD*%
D22*
%TO.C,L1*%
X131200000Y-113450000D03*
X131200000Y-114750000D03*
%TD*%
D20*
%TO.C,R7*%
X154800000Y-123900000D03*
X149600000Y-123900000D03*
%TD*%
D23*
%TO.C,R5*%
X144875000Y-126300000D03*
X146525000Y-126300000D03*
%TD*%
D24*
%TO.C,C11*%
X151875000Y-129300000D03*
X150325000Y-129300000D03*
%TD*%
D21*
%TO.C,TP2*%
X140600000Y-103500000D03*
%TD*%
D25*
%TO.C,JP2*%
X133650000Y-94700000D03*
X134950000Y-94700000D03*
%TD*%
D26*
%TO.C,R14*%
X129625000Y-97100000D03*
X127975000Y-97100000D03*
%TD*%
D27*
%TO.C,R18*%
X139900000Y-107175000D03*
X139900000Y-108825000D03*
%TD*%
%TO.C,R17*%
X139900000Y-110575000D03*
X139900000Y-112225000D03*
%TD*%
D28*
%TO.C,C18*%
X129509880Y-107890120D03*
X128290120Y-109109880D03*
%TD*%
D27*
%TO.C,R1*%
X145925659Y-96077365D03*
X145925659Y-97727365D03*
%TD*%
D21*
%TO.C,TP5*%
X126000000Y-106400000D03*
%TD*%
D29*
%TO.C,H4*%
X125200000Y-122100000D03*
%TD*%
D24*
%TO.C,C2*%
X127975000Y-102600000D03*
X126425000Y-102600000D03*
%TD*%
%TO.C,C1*%
X127975000Y-104200000D03*
X126425000Y-104200000D03*
%TD*%
D21*
%TO.C,TP4*%
X126000000Y-100200000D03*
%TD*%
D25*
%TO.C,JP1*%
X127750000Y-94700000D03*
X126450000Y-94700000D03*
%TD*%
D23*
%TO.C,R3*%
X144875000Y-127900000D03*
X146525000Y-127900000D03*
%TD*%
D30*
%TO.C,FB1*%
X133812500Y-102100000D03*
X135387500Y-102100000D03*
%TD*%
D24*
%TO.C,C19*%
X135375000Y-103600000D03*
X133825000Y-103600000D03*
%TD*%
D21*
%TO.C,TP6*%
X137200000Y-107800000D03*
%TD*%
D26*
%TO.C,R19*%
X146075000Y-111900000D03*
X144425000Y-111900000D03*
%TD*%
D29*
%TO.C,H2*%
X158900000Y-124400000D03*
%TD*%
D31*
%TO.C,C12*%
X148325000Y-126900000D03*
X149875000Y-126900000D03*
%TD*%
D32*
%TO.C,U3*%
X151702500Y-127799999D03*
D33*
X151702500Y-127300000D03*
D32*
X151702500Y-126800001D03*
D34*
X152337500Y-126865000D03*
D32*
X152972500Y-126800001D03*
D33*
X152972500Y-127300000D03*
D32*
X152972500Y-127799999D03*
D34*
X152337500Y-127735000D03*
%TD*%
D23*
%TO.C,R8*%
X124375000Y-116400000D03*
X126025000Y-116400000D03*
%TD*%
%LPD*%
M02*
