%TF.GenerationSoftware,KiCad,Pcbnew,8.0.3-8.0.3-0~ubuntu22.04.1*%
%TF.CreationDate,2024-07-04T17:08:58-06:00*%
%TF.ProjectId,stm32g070 and DRV8311 single motor board - V1 Alpha,73746d33-3267-4303-9730-20616e642044,rev?*%
%TF.SameCoordinates,Original*%
%TF.FileFunction,Copper,L4,Bot*%
%TF.FilePolarity,Positive*%
%FSLAX46Y46*%
G04 Gerber Fmt 4.6, Leading zero omitted, Abs format (unit mm)*
G04 Created by KiCad (PCBNEW 8.0.3-8.0.3-0~ubuntu22.04.1) date 2024-07-04 17:08:58*
%MOMM*%
%LPD*%
G01*
G04 APERTURE LIST*
G04 Aperture macros list*
%AMRoundRect*
0 Rectangle with rounded corners*
0 $1 Rounding radius*
0 $2 $3 $4 $5 $6 $7 $8 $9 X,Y pos of 4 corners*
0 Add a 4 corners polygon primitive as box body*
4,1,4,$2,$3,$4,$5,$6,$7,$8,$9,$2,$3,0*
0 Add four circle primitives for the rounded corners*
1,1,$1+$1,$2,$3*
1,1,$1+$1,$4,$5*
1,1,$1+$1,$6,$7*
1,1,$1+$1,$8,$9*
0 Add four rect primitives between the rounded corners*
20,1,$1+$1,$2,$3,$4,$5,0*
20,1,$1+$1,$4,$5,$6,$7,0*
20,1,$1+$1,$6,$7,$8,$9,0*
20,1,$1+$1,$8,$9,$2,$3,0*%
G04 Aperture macros list end*
%TA.AperFunction,EtchedComponent*%
%ADD10C,0.000000*%
%TD*%
%TA.AperFunction,ComponentPad*%
%ADD11RoundRect,0.200000X0.450000X-0.200000X0.450000X0.200000X-0.450000X0.200000X-0.450000X-0.200000X0*%
%TD*%
%TA.AperFunction,ComponentPad*%
%ADD12O,1.300000X0.800000*%
%TD*%
%TA.AperFunction,ComponentPad*%
%ADD13C,1.200000*%
%TD*%
%TA.AperFunction,ComponentPad*%
%ADD14C,0.600000*%
%TD*%
%TA.AperFunction,SMDPad,CuDef*%
%ADD15R,0.840000X2.400000*%
%TD*%
%TA.AperFunction,ComponentPad*%
%ADD16R,1.700000X1.700000*%
%TD*%
%TA.AperFunction,ComponentPad*%
%ADD17O,1.700000X1.700000*%
%TD*%
%TA.AperFunction,SMDPad,CuDef*%
%ADD18R,1.800000X3.400000*%
%TD*%
%TA.AperFunction,SMDPad,CuDef*%
%ADD19C,1.500000*%
%TD*%
%TA.AperFunction,SMDPad,CuDef*%
%ADD20R,1.500000X1.000000*%
%TD*%
%TA.AperFunction,SMDPad,CuDef*%
%ADD21RoundRect,0.200000X-0.200000X-0.275000X0.200000X-0.275000X0.200000X0.275000X-0.200000X0.275000X0*%
%TD*%
%TA.AperFunction,SMDPad,CuDef*%
%ADD22RoundRect,0.225000X0.225000X0.250000X-0.225000X0.250000X-0.225000X-0.250000X0.225000X-0.250000X0*%
%TD*%
%TA.AperFunction,SMDPad,CuDef*%
%ADD23R,1.000000X1.500000*%
%TD*%
%TA.AperFunction,SMDPad,CuDef*%
%ADD24RoundRect,0.200000X0.200000X0.275000X-0.200000X0.275000X-0.200000X-0.275000X0.200000X-0.275000X0*%
%TD*%
%TA.AperFunction,SMDPad,CuDef*%
%ADD25RoundRect,0.200000X-0.275000X0.200000X-0.275000X-0.200000X0.275000X-0.200000X0.275000X0.200000X0*%
%TD*%
%TA.AperFunction,SMDPad,CuDef*%
%ADD26RoundRect,0.237500X0.044194X0.380070X-0.380070X-0.044194X-0.044194X-0.380070X0.380070X0.044194X0*%
%TD*%
%TA.AperFunction,SMDPad,CuDef*%
%ADD27R,4.000000X4.000000*%
%TD*%
%TA.AperFunction,SMDPad,CuDef*%
%ADD28RoundRect,0.218750X-0.218750X-0.256250X0.218750X-0.256250X0.218750X0.256250X-0.218750X0.256250X0*%
%TD*%
%TA.AperFunction,SMDPad,CuDef*%
%ADD29RoundRect,0.225000X-0.225000X-0.250000X0.225000X-0.250000X0.225000X0.250000X-0.225000X0.250000X0*%
%TD*%
%TA.AperFunction,SMDPad,CuDef*%
%ADD30R,0.580000X0.300000*%
%TD*%
%TA.AperFunction,SMDPad,CuDef*%
%ADD31R,0.579882X0.249936*%
%TD*%
%TA.AperFunction,SMDPad,CuDef*%
%ADD32R,0.350000X0.630000*%
%TD*%
%TA.AperFunction,ViaPad*%
%ADD33C,0.600000*%
%TD*%
%TA.AperFunction,Conductor*%
%ADD34C,0.200000*%
%TD*%
%TA.AperFunction,Conductor*%
%ADD35C,2.814000*%
%TD*%
%TA.AperFunction,Conductor*%
%ADD36C,1.000000*%
%TD*%
G04 APERTURE END LIST*
D10*
%TA.AperFunction,EtchedComponent*%
%TO.C,L1*%
G36*
X131500000Y-114350000D02*
G01*
X130900000Y-114350000D01*
X130900000Y-113850000D01*
X131500000Y-113850000D01*
X131500000Y-114350000D01*
G37*
%TD.AperFunction*%
%TD*%
D11*
%TO.P,J3,1,Pin_1*%
%TO.N,Net-(J3-Pin_1)*%
X156400000Y-96900000D03*
D12*
%TO.P,J3,2,Pin_2*%
%TO.N,Net-(J3-Pin_2)*%
X156400000Y-95650000D03*
%TO.P,J3,3,Pin_3*%
%TO.N,Net-(J3-Pin_3)*%
X156400000Y-94400000D03*
%TD*%
D13*
%TO.P,C15,1*%
%TO.N,/MOTORPWR*%
X152800000Y-110900000D03*
%TO.P,C15,2*%
%TO.N,GNDPWR*%
X150800000Y-110900000D03*
%TD*%
D14*
%TO.P,U4,11,VSS*%
%TO.N,GNDPWR*%
X132262500Y-124737500D03*
X132262500Y-125687500D03*
D15*
X132262500Y-125687500D03*
D14*
X132262500Y-126637500D03*
%TD*%
D16*
%TO.P,J4,1,Pin_1*%
%TO.N,/USART1_TX*%
X144525000Y-90000000D03*
D17*
%TO.P,J4,2,Pin_2*%
%TO.N,/USART1_RX*%
X147065000Y-90000000D03*
%TD*%
D14*
%TO.P,U2,25,PowerPAD*%
%TO.N,GNDPWR*%
X149162498Y-98100001D03*
X150562500Y-98100001D03*
X149862499Y-97374600D03*
X149162498Y-96699999D03*
X150562500Y-96699999D03*
%TD*%
D18*
%TO.P,R6,1*%
%TO.N,/PSU/BATT-*%
X154800000Y-119500000D03*
%TO.P,R6,2*%
%TO.N,GNDPWR*%
X149600000Y-119500000D03*
%TD*%
D19*
%TO.P,TP1,1,1*%
%TO.N,/NRST*%
X126000000Y-109600000D03*
%TD*%
%TO.P,TP3,1,1*%
%TO.N,/SWC*%
X140600000Y-100600000D03*
%TD*%
D20*
%TO.P,L1,1*%
%TO.N,GND*%
X131200000Y-113450000D03*
%TO.P,L1,2*%
%TO.N,GNDPWR*%
X131200000Y-114750000D03*
%TD*%
D18*
%TO.P,R7,1*%
%TO.N,/PSU/BATT-*%
X154800000Y-123900000D03*
%TO.P,R7,2*%
%TO.N,GNDPWR*%
X149600000Y-123900000D03*
%TD*%
D21*
%TO.P,R5,1*%
%TO.N,/PSU/BATT+*%
X144875000Y-126300000D03*
%TO.P,R5,2*%
%TO.N,Net-(U3-VDD)*%
X146525000Y-126300000D03*
%TD*%
D22*
%TO.P,C11,1*%
%TO.N,Net-(U3-CHG)*%
X151875000Y-129300000D03*
%TO.P,C11,2*%
%TO.N,GNDPWR*%
X150325000Y-129300000D03*
%TD*%
D19*
%TO.P,TP2,1,1*%
%TO.N,/SWD*%
X140600000Y-103500000D03*
%TD*%
D23*
%TO.P,JP2,1,A*%
%TO.N,VDD*%
X133650000Y-94700000D03*
%TO.P,JP2,2,B*%
%TO.N,Net-(J2-Pin_2)*%
X134950000Y-94700000D03*
%TD*%
D24*
%TO.P,R14,1*%
%TO.N,VDD*%
X129625000Y-97100000D03*
%TO.P,R14,2*%
%TO.N,/SDA1*%
X127975000Y-97100000D03*
%TD*%
D25*
%TO.P,R18,1*%
%TO.N,GND*%
X139900000Y-107175000D03*
%TO.P,R18,2*%
%TO.N,/ADC10{slash}VBATT*%
X139900000Y-108825000D03*
%TD*%
%TO.P,R17,1*%
%TO.N,/ADC10{slash}VBATT*%
X139900000Y-110575000D03*
%TO.P,R17,2*%
%TO.N,/MOTORPWR*%
X139900000Y-112225000D03*
%TD*%
D26*
%TO.P,C18,1*%
%TO.N,/NRST*%
X129509880Y-107890120D03*
%TO.P,C18,2*%
%TO.N,GND*%
X128290120Y-109109880D03*
%TD*%
D25*
%TO.P,R1,1*%
%TO.N,VDD*%
X145925659Y-96077365D03*
%TO.P,R1,2*%
%TO.N,Net-(U2-SLEEP_N)*%
X145925659Y-97727365D03*
%TD*%
D19*
%TO.P,TP5,1,1*%
%TO.N,GND*%
X126000000Y-106400000D03*
%TD*%
D27*
%TO.P,H4,1,1*%
%TO.N,GNDPWR*%
X125200000Y-122100000D03*
%TD*%
D22*
%TO.P,C2,1*%
%TO.N,VDD*%
X127975000Y-102600000D03*
%TO.P,C2,2*%
%TO.N,GND*%
X126425000Y-102600000D03*
%TD*%
%TO.P,C1,1*%
%TO.N,VDD*%
X127975000Y-104200000D03*
%TO.P,C1,2*%
%TO.N,GND*%
X126425000Y-104200000D03*
%TD*%
D19*
%TO.P,TP4,1,1*%
%TO.N,VDD*%
X126000000Y-100200000D03*
%TD*%
D23*
%TO.P,JP1,1,A*%
%TO.N,VDD*%
X127750000Y-94700000D03*
%TO.P,JP1,2,B*%
%TO.N,Net-(J1-Pin_2)*%
X126450000Y-94700000D03*
%TD*%
D21*
%TO.P,R3,1*%
%TO.N,/PSU/BATT+*%
X144875000Y-127900000D03*
%TO.P,R3,2*%
%TO.N,Net-(U3-BAT)*%
X146525000Y-127900000D03*
%TD*%
D28*
%TO.P,FB1,1*%
%TO.N,Net-(U1-VREF+)*%
X133812500Y-102100000D03*
%TO.P,FB1,2*%
%TO.N,VDD*%
X135387500Y-102100000D03*
%TD*%
D22*
%TO.P,C19,1*%
%TO.N,GND*%
X135375000Y-103600000D03*
%TO.P,C19,2*%
%TO.N,Net-(U1-VREF+)*%
X133825000Y-103600000D03*
%TD*%
D19*
%TO.P,TP6,1,1*%
%TO.N,/ADC11*%
X137200000Y-107800000D03*
%TD*%
D24*
%TO.P,R19,1*%
%TO.N,/LED*%
X146075000Y-111900000D03*
%TO.P,R19,2*%
%TO.N,Net-(D3-A)*%
X144425000Y-111900000D03*
%TD*%
D27*
%TO.P,H2,1,1*%
%TO.N,/PSU/BATT-*%
X158900000Y-124400000D03*
%TD*%
D29*
%TO.P,C12,1*%
%TO.N,Net-(U3-VDD)*%
X148325000Y-126900000D03*
%TO.P,C12,2*%
%TO.N,/PSU/BATT-*%
X149875000Y-126900000D03*
%TD*%
D30*
%TO.P,U3,1,BAT*%
%TO.N,Net-(U3-BAT)*%
X151702500Y-127799999D03*
D31*
%TO.P,U3,2,VDD*%
%TO.N,Net-(U3-VDD)*%
X151702500Y-127300000D03*
D30*
%TO.P,U3,3,VSS*%
%TO.N,/PSU/BATT-*%
X151702500Y-126800001D03*
D32*
%TO.P,U3,4,CS*%
%TO.N,GNDPWR*%
X152337500Y-126865000D03*
D30*
%TO.P,U3,5,CTR*%
%TO.N,/PSU/BATT-*%
X152972500Y-126800001D03*
D31*
%TO.P,U3,6,PACK*%
%TO.N,Net-(U3-PACK)*%
X152972500Y-127300000D03*
D30*
%TO.P,U3,7,DSG*%
%TO.N,Net-(Q1-G)*%
X152972500Y-127799999D03*
D32*
%TO.P,U3,8,CHG*%
%TO.N,Net-(U3-CHG)*%
X152337500Y-127735000D03*
%TD*%
D21*
%TO.P,R8,1*%
%TO.N,/PSU/LDO 4.9v*%
X124375000Y-116400000D03*
%TO.P,R8,2*%
%TO.N,Net-(D1-A)*%
X126025000Y-116400000D03*
%TD*%
D33*
%TO.N,VDD*%
X129600000Y-102636000D03*
X147213896Y-95473287D03*
X131000000Y-94700000D03*
%TO.N,GND*%
X124000000Y-99300000D03*
X123800000Y-108900000D03*
X146000000Y-103400000D03*
X131800000Y-91800000D03*
X126600000Y-127100000D03*
X135000000Y-125600000D03*
X132900000Y-104500000D03*
X136800000Y-89700000D03*
X141000000Y-98600000D03*
X131600000Y-112200000D03*
%TO.N,/MOTORPWR*%
X158600000Y-103400000D03*
X158600000Y-105300000D03*
X142600000Y-115200000D03*
X159600000Y-103400000D03*
X142600000Y-117200000D03*
X143500000Y-115200000D03*
X141700000Y-115200000D03*
X158600000Y-104400000D03*
X141700000Y-116200000D03*
X141700000Y-117200000D03*
X159600000Y-105300000D03*
X160600000Y-104400000D03*
X140800000Y-117200000D03*
X143500000Y-116200000D03*
X160600000Y-103400000D03*
X160600000Y-105300000D03*
X142600000Y-116200000D03*
X140800000Y-116200000D03*
X159600000Y-104400000D03*
X140800000Y-115200000D03*
X143500000Y-117200000D03*
%TO.N,GNDPWR*%
X158900000Y-116500000D03*
X131400000Y-119000000D03*
X124350000Y-126300000D03*
X152800000Y-90800000D03*
X132400000Y-118100000D03*
X153500000Y-106800000D03*
X124350000Y-127150000D03*
X154800000Y-90800000D03*
X157900000Y-117400000D03*
X130400000Y-117100000D03*
X159900000Y-116500000D03*
X132400000Y-117100000D03*
X153800000Y-89800000D03*
X132400000Y-119000000D03*
X154800000Y-89800000D03*
X157900000Y-115500000D03*
X159900000Y-117400000D03*
X153500000Y-104900000D03*
X152500000Y-106800000D03*
X152800000Y-89800000D03*
X131400000Y-118100000D03*
X159900000Y-115500000D03*
X152500000Y-105900000D03*
X153500000Y-105900000D03*
X158900000Y-115500000D03*
X153800000Y-90800000D03*
X152800000Y-91700000D03*
X151500000Y-105900000D03*
X154800000Y-91700000D03*
X151500000Y-104900000D03*
X130400000Y-118100000D03*
X151500000Y-106800000D03*
X131400000Y-117100000D03*
X157900000Y-116500000D03*
X158900000Y-117400000D03*
X153800000Y-91700000D03*
X152500000Y-104900000D03*
X130400000Y-119000000D03*
%TO.N,/SWC*%
X137500000Y-101100000D03*
%TO.N,/SWD*%
X138000000Y-101900000D03*
%TO.N,Net-(U2-SLEEP_N)*%
X147756784Y-99259725D03*
%TO.N,/PSU/LDO 4.9v*%
X127912500Y-124700000D03*
X124000000Y-118700000D03*
%TO.N,/1CSA-B*%
X147600000Y-101200000D03*
X134000000Y-110000000D03*
%TO.N,/1CSA-A*%
X132700000Y-110000000D03*
X148200000Y-101900000D03*
%TO.N,/1CSA-C*%
X135300000Y-109800000D03*
X147200000Y-100400000D03*
%TO.N,/CS1*%
X133049998Y-92649998D03*
X137800000Y-96300000D03*
%TO.N,/PSU/BATT+*%
X142100000Y-129000000D03*
X159900000Y-120500000D03*
%TO.N,Net-(D1-A)*%
X124000000Y-115300000D03*
%TO.N,/PSU/~{CHG}*%
X135321200Y-124421200D03*
X127824265Y-117575735D03*
%TO.N,/SDA1*%
X128125000Y-98300000D03*
X126500000Y-96500000D03*
%TO.N,/PSU/BATT-*%
X151000000Y-126200000D03*
X160500000Y-128600000D03*
%TO.N,Net-(Q1-G)*%
X159400000Y-129300000D03*
X148000000Y-128800000D03*
X151100000Y-124000000D03*
%TO.N,/NRST*%
X126900000Y-111200000D03*
X132780603Y-105480603D03*
%TO.N,Net-(U3-PACK)*%
X146600000Y-129000000D03*
X158600000Y-128700000D03*
%TO.N,Net-(J1-Pin_2)*%
X127700000Y-91900000D03*
%TO.N,Net-(J2-Pin_2)*%
X139200000Y-91600000D03*
%TO.N,/USART1_TX*%
X133800000Y-97200000D03*
%TO.N,/USART1_RX*%
X132800000Y-97300000D03*
%TO.N,/ADC11*%
X136500000Y-106000000D03*
%TO.N,/ADC10{slash}VBATT*%
X137400000Y-109500000D03*
%TO.N,Net-(D3-A)*%
X143000000Y-112300000D03*
%TO.N,/LED*%
X137600000Y-105600000D03*
X146200000Y-109800000D03*
%TO.N,Net-(U1-VREF+)*%
X132400000Y-103100000D03*
%TD*%
D34*
%TO.N,Net-(D1-A)*%
X124000000Y-115300000D02*
X124925000Y-115300000D01*
X124925000Y-115300000D02*
X126025000Y-116400000D01*
%TO.N,/PSU/LDO 4.9v*%
X123500000Y-118200000D02*
X123500000Y-117275000D01*
X124000000Y-118700000D02*
X123500000Y-118200000D01*
X123500000Y-117275000D02*
X124375000Y-116400000D01*
%TO.N,VDD*%
X139210135Y-95989865D02*
X134300000Y-100900000D01*
X147239555Y-95475652D02*
X146725342Y-95989865D01*
X129625000Y-97100000D02*
X129800000Y-97100000D01*
X129625000Y-97100000D02*
X129625000Y-99475000D01*
X129625000Y-96075000D02*
X129625000Y-97100000D01*
X127750000Y-94700000D02*
X131000000Y-94700000D01*
X129600000Y-102636000D02*
X129394120Y-102636000D01*
X126925000Y-101125000D02*
X127975000Y-101125000D01*
X134300000Y-100900000D02*
X128475000Y-100900000D01*
X129625000Y-99475000D02*
X127975000Y-101125000D01*
X135387500Y-101987500D02*
X134300000Y-100900000D01*
X128475000Y-100900000D02*
X127975000Y-101400000D01*
X135387500Y-102100000D02*
X135387500Y-101987500D01*
X129600000Y-102636000D02*
X129539000Y-102636000D01*
X127975000Y-102600000D02*
X127975000Y-104200000D01*
X131000000Y-94700000D02*
X129625000Y-96075000D01*
X129539000Y-102636000D02*
X127975000Y-104200000D01*
X146725342Y-95989865D02*
X139210135Y-95989865D01*
X131000000Y-94700000D02*
X133650000Y-94700000D01*
X126000000Y-100200000D02*
X126925000Y-101125000D01*
X127975000Y-101125000D02*
X127975000Y-102600000D01*
%TO.N,/MOTORPWR*%
X139900000Y-114300000D02*
X139900000Y-112225000D01*
D35*
X159600000Y-99900000D02*
X159600000Y-108912500D01*
D34*
X140800000Y-115200000D02*
X139900000Y-114300000D01*
%TO.N,GNDPWR*%
X150325000Y-129300000D02*
X150025000Y-129600000D01*
D36*
X124300000Y-127100000D02*
X124300000Y-123000000D01*
D34*
X152000000Y-121800000D02*
X151900000Y-121700000D01*
X152337500Y-126395001D02*
X152337500Y-122137500D01*
X150025000Y-129600000D02*
X141100000Y-129600000D01*
X151900000Y-121700000D02*
X149600000Y-121700000D01*
D36*
X124300000Y-123000000D02*
X125200000Y-122100000D01*
X124350000Y-127150000D02*
X124300000Y-127100000D01*
D34*
X152337500Y-126865000D02*
X152337500Y-126395001D01*
X152337500Y-122137500D02*
X152000000Y-121800000D01*
%TO.N,/SWC*%
X137500000Y-101100000D02*
X138100000Y-101100000D01*
X140500000Y-100500000D02*
X140600000Y-100600000D01*
X138700000Y-100500000D02*
X140500000Y-100500000D01*
X138100000Y-101100000D02*
X138700000Y-100500000D01*
%TO.N,/SWD*%
X139000003Y-101900003D02*
X140600000Y-103500000D01*
X138000000Y-101900000D02*
X138000003Y-101900003D01*
X138000003Y-101900003D02*
X139000003Y-101900003D01*
%TO.N,Net-(U2-SLEEP_N)*%
X147756784Y-99259725D02*
X147370519Y-99259725D01*
X147370519Y-99259725D02*
X145925659Y-97814865D01*
%TO.N,/PSU/BATT+*%
X142100000Y-128000000D02*
X143800000Y-126300000D01*
X143800000Y-126300000D02*
X144875000Y-126300000D01*
X144875000Y-126300000D02*
X144875000Y-127900000D01*
X142100000Y-129000000D02*
X142100000Y-128000000D01*
%TO.N,Net-(U3-CHG)*%
X151875000Y-129300000D02*
X152337500Y-128837500D01*
X152337500Y-128837500D02*
X152337500Y-127735000D01*
%TO.N,/SDA1*%
X128125000Y-97250000D02*
X127975000Y-97100000D01*
X128125000Y-98300000D02*
X128125000Y-97250000D01*
%TO.N,/PSU/BATT-*%
X153300000Y-121700000D02*
X154800000Y-121700000D01*
X154800000Y-121700000D02*
X154800000Y-123900000D01*
X149699999Y-126800001D02*
X151702500Y-126800001D01*
X152972500Y-122027500D02*
X153300000Y-121700000D01*
X159300000Y-127400000D02*
X154265686Y-127400000D01*
X153665687Y-126800001D02*
X152972500Y-126800001D01*
X152972500Y-126800001D02*
X152972500Y-122027500D01*
X160500000Y-128600000D02*
X159300000Y-127400000D01*
X154265686Y-127400000D02*
X153665687Y-126800001D01*
X154800000Y-121700000D02*
X154800000Y-119500000D01*
X150300000Y-126200000D02*
X149699999Y-126800001D01*
X151000000Y-126200000D02*
X150300000Y-126200000D01*
%TO.N,Net-(U3-VDD)*%
X149100000Y-127675000D02*
X150787499Y-127675000D01*
X151162499Y-127300000D02*
X151702500Y-127300000D01*
X147125000Y-126900000D02*
X148325000Y-126900000D01*
X146525000Y-126300000D02*
X147125000Y-126900000D01*
X150787499Y-127675000D02*
X151162499Y-127300000D01*
X148325000Y-126900000D02*
X149100000Y-127675000D01*
%TO.N,Net-(Q1-G)*%
X154472501Y-129300000D02*
X152972500Y-127799999D01*
X159400000Y-129300000D02*
X154472501Y-129300000D01*
%TO.N,/NRST*%
X126900000Y-111200000D02*
X126900000Y-110500000D01*
X126900000Y-110500000D02*
X126000000Y-109600000D01*
X132780603Y-105480603D02*
X132780603Y-105480604D01*
X128600000Y-106980240D02*
X128600000Y-106900000D01*
X128050000Y-107450000D02*
X126000000Y-109500000D01*
X128150000Y-107350000D02*
X128050000Y-107450000D01*
X132661207Y-105600000D02*
X129900000Y-105600000D01*
X129509880Y-107890120D02*
X128600000Y-106980240D01*
X128600000Y-106900000D02*
X128150000Y-107350000D01*
X126000000Y-109500000D02*
X126000000Y-109600000D01*
X129900000Y-105600000D02*
X128600000Y-106900000D01*
X132780603Y-105480604D02*
X132661207Y-105600000D01*
%TO.N,Net-(U3-BAT)*%
X148500000Y-127900000D02*
X146525000Y-127900000D01*
X148800000Y-128200000D02*
X148500000Y-127900000D01*
X151302499Y-128200000D02*
X148800000Y-128200000D01*
X151702500Y-127799999D02*
X151302499Y-128200000D01*
%TO.N,Net-(U3-PACK)*%
X155000000Y-128700000D02*
X153600000Y-127300000D01*
X153600000Y-127300000D02*
X152972500Y-127300000D01*
X158600000Y-128700000D02*
X155000000Y-128700000D01*
%TO.N,Net-(J1-Pin_2)*%
X126450000Y-94700000D02*
X126450000Y-92550000D01*
X126450000Y-92550000D02*
X127100000Y-91900000D01*
X127100000Y-91900000D02*
X127700000Y-91900000D01*
%TO.N,Net-(J2-Pin_2)*%
X138000000Y-91600000D02*
X139200000Y-91600000D01*
X134950000Y-94700000D02*
X134950000Y-94650000D01*
X134950000Y-94650000D02*
X138000000Y-91600000D01*
%TO.N,/ADC11*%
X136500000Y-106000000D02*
X137200000Y-106700000D01*
X137200000Y-106700000D02*
X137200000Y-107800000D01*
%TO.N,/ADC10{slash}VBATT*%
X139900000Y-110575000D02*
X139900000Y-108825000D01*
X137400000Y-109500000D02*
X139225000Y-109500000D01*
X139225000Y-109500000D02*
X139900000Y-108825000D01*
%TO.N,Net-(D3-A)*%
X144425000Y-111900000D02*
X143400000Y-111900000D01*
X143400000Y-111900000D02*
X143000000Y-112300000D01*
%TO.N,/LED*%
X146075000Y-111900000D02*
X146075000Y-109925000D01*
X146075000Y-109925000D02*
X146200000Y-109800000D01*
%TO.N,Net-(U1-VREF+)*%
X133312500Y-103600000D02*
X132812500Y-103100000D01*
X133825000Y-103600000D02*
X133312500Y-103600000D01*
X132812500Y-103100000D02*
X133812500Y-102100000D01*
X132400000Y-103100000D02*
X132812500Y-103100000D01*
%TD*%
%TA.AperFunction,Conductor*%
%TO.N,GNDPWR*%
G36*
X161323500Y-122099166D02*
G01*
X161303815Y-122166205D01*
X161251011Y-122211960D01*
X161181853Y-122221904D01*
X161118297Y-122192879D01*
X161111819Y-122186847D01*
X161072210Y-122147238D01*
X161065349Y-122139793D01*
X161060575Y-122134168D01*
X160081341Y-121267923D01*
X160044171Y-121208760D01*
X160044887Y-121138894D01*
X160083262Y-121080507D01*
X160116038Y-121060490D01*
X160202841Y-121024536D01*
X160328282Y-120928282D01*
X160424536Y-120802841D01*
X160485044Y-120656762D01*
X160505682Y-120500000D01*
X160485044Y-120343238D01*
X160424536Y-120197159D01*
X160328282Y-120071718D01*
X160202841Y-119975464D01*
X160056762Y-119914956D01*
X160056760Y-119914955D01*
X159900001Y-119894318D01*
X159899999Y-119894318D01*
X159743239Y-119914955D01*
X159743237Y-119914956D01*
X159597160Y-119975463D01*
X159471718Y-120071718D01*
X159375463Y-120197160D01*
X159314955Y-120343239D01*
X159313371Y-120349153D01*
X159277004Y-120408813D01*
X159214156Y-120439340D01*
X159144781Y-120431043D01*
X159111440Y-120409933D01*
X156108528Y-117753512D01*
X156107375Y-117752496D01*
X156106466Y-117751700D01*
X156106460Y-117751696D01*
X156106459Y-117751695D01*
X156032112Y-117703640D01*
X156017163Y-117696814D01*
X155964358Y-117651059D01*
X155955242Y-117634112D01*
X155952206Y-117627235D01*
X155872765Y-117547794D01*
X155872763Y-117547793D01*
X155769992Y-117502415D01*
X155744865Y-117499500D01*
X153855143Y-117499500D01*
X153855117Y-117499502D01*
X153830012Y-117502413D01*
X153830008Y-117502415D01*
X153727235Y-117547793D01*
X153647794Y-117627234D01*
X153602415Y-117730006D01*
X153602415Y-117730008D01*
X153599500Y-117755131D01*
X153599500Y-117801200D01*
X153579815Y-117868239D01*
X153527011Y-117913994D01*
X153475500Y-117925200D01*
X150142600Y-117925200D01*
X150142600Y-121074800D01*
X150376000Y-121074800D01*
X150443039Y-121094485D01*
X150488794Y-121147289D01*
X150500000Y-121198800D01*
X150500000Y-122201200D01*
X150480315Y-122268239D01*
X150427511Y-122313994D01*
X150376000Y-122325200D01*
X150142600Y-122325200D01*
X150142600Y-125476000D01*
X150122915Y-125543039D01*
X150070111Y-125588794D01*
X150018600Y-125600000D01*
X147033403Y-125600000D01*
X146973975Y-125584832D01*
X146967328Y-125581202D01*
X146832486Y-125530910D01*
X146832485Y-125530909D01*
X146832483Y-125530909D01*
X146772873Y-125524500D01*
X146772863Y-125524500D01*
X146277129Y-125524500D01*
X146277123Y-125524501D01*
X146217516Y-125530908D01*
X146082671Y-125581202D01*
X146076025Y-125584832D01*
X146016597Y-125600000D01*
X145383403Y-125600000D01*
X145323975Y-125584832D01*
X145317328Y-125581202D01*
X145182486Y-125530910D01*
X145182485Y-125530909D01*
X145182483Y-125530909D01*
X145122873Y-125524500D01*
X145122863Y-125524500D01*
X144627129Y-125524500D01*
X144627123Y-125524501D01*
X144567516Y-125530908D01*
X144432671Y-125581202D01*
X144426025Y-125584832D01*
X144366597Y-125600000D01*
X143900000Y-125600000D01*
X143900000Y-125775500D01*
X143880315Y-125842539D01*
X143827511Y-125888294D01*
X143776000Y-125899500D01*
X143747273Y-125899500D01*
X143645410Y-125926793D01*
X143554087Y-125979520D01*
X143554084Y-125979522D01*
X141779522Y-127754084D01*
X141779520Y-127754087D01*
X141726793Y-127845412D01*
X141717654Y-127879520D01*
X141717654Y-127879521D01*
X141717653Y-127879520D01*
X141699500Y-127947271D01*
X141699500Y-128493419D01*
X141679815Y-128560458D01*
X141673876Y-128568905D01*
X141575464Y-128697157D01*
X141514956Y-128843237D01*
X141514955Y-128843239D01*
X141494318Y-128999998D01*
X141494318Y-129000001D01*
X141514955Y-129156760D01*
X141514956Y-129156762D01*
X141574287Y-129300001D01*
X141575464Y-129302841D01*
X141671718Y-129428282D01*
X141797159Y-129524536D01*
X141943238Y-129585044D01*
X142005592Y-129593253D01*
X142099999Y-129605682D01*
X142100000Y-129605682D01*
X142100001Y-129605682D01*
X142152254Y-129598802D01*
X142256762Y-129585044D01*
X142402841Y-129524536D01*
X142528282Y-129428282D01*
X142624536Y-129302841D01*
X142685044Y-129156762D01*
X142705682Y-129000000D01*
X142685044Y-128843238D01*
X142624536Y-128697159D01*
X142624535Y-128697158D01*
X142624535Y-128697157D01*
X142526124Y-128568905D01*
X142500930Y-128503736D01*
X142500500Y-128493419D01*
X142500500Y-128217255D01*
X142520185Y-128150216D01*
X142536819Y-128129574D01*
X143688319Y-126978074D01*
X143749642Y-126944589D01*
X143819334Y-126949573D01*
X143875267Y-126991445D01*
X143899684Y-127056909D01*
X143900000Y-127065755D01*
X143900000Y-129894500D01*
X143880315Y-129961539D01*
X143827511Y-130007294D01*
X143776000Y-130018500D01*
X123006500Y-130018500D01*
X122939461Y-129998815D01*
X122893706Y-129946011D01*
X122882500Y-129894500D01*
X122882500Y-127099998D01*
X125994318Y-127099998D01*
X125994318Y-127100001D01*
X126014955Y-127256760D01*
X126014956Y-127256762D01*
X126075464Y-127402841D01*
X126171718Y-127528282D01*
X126297159Y-127624536D01*
X126443238Y-127685044D01*
X126521619Y-127695363D01*
X126599999Y-127705682D01*
X126600000Y-127705682D01*
X126600001Y-127705682D01*
X126652254Y-127698802D01*
X126756762Y-127685044D01*
X126902841Y-127624536D01*
X127028282Y-127528282D01*
X127124536Y-127402841D01*
X127185044Y-127256762D01*
X127205682Y-127100000D01*
X127185044Y-126943238D01*
X127124536Y-126797159D01*
X127028282Y-126671718D01*
X126902841Y-126575464D01*
X126756762Y-126514956D01*
X126756760Y-126514955D01*
X126600001Y-126494318D01*
X126599999Y-126494318D01*
X126443239Y-126514955D01*
X126443237Y-126514956D01*
X126297160Y-126575463D01*
X126171718Y-126671718D01*
X126075463Y-126797160D01*
X126014956Y-126943237D01*
X126014955Y-126943239D01*
X125994318Y-127099998D01*
X122882500Y-127099998D01*
X122882500Y-125599998D01*
X134394318Y-125599998D01*
X134394318Y-125600000D01*
X134414955Y-125756760D01*
X134414956Y-125756762D01*
X134475464Y-125902841D01*
X134571718Y-126028282D01*
X134697159Y-126124536D01*
X134843238Y-126185044D01*
X134921619Y-126195363D01*
X134999999Y-126205682D01*
X135000000Y-126205682D01*
X135000001Y-126205682D01*
X135052254Y-126198802D01*
X135156762Y-126185044D01*
X135302841Y-126124536D01*
X135428282Y-126028282D01*
X135524536Y-125902841D01*
X135585044Y-125756762D01*
X135605682Y-125600000D01*
X135603207Y-125581204D01*
X135585044Y-125443239D01*
X135585044Y-125443238D01*
X135524536Y-125297159D01*
X135442287Y-125189970D01*
X135417095Y-125124805D01*
X135431133Y-125056360D01*
X135479947Y-125006370D01*
X135493201Y-124999931D01*
X135624041Y-124945736D01*
X135749482Y-124849482D01*
X135845736Y-124724041D01*
X135906244Y-124577962D01*
X135926882Y-124421200D01*
X135906244Y-124264438D01*
X135845736Y-124118359D01*
X135749482Y-123992918D01*
X135624041Y-123896664D01*
X135477962Y-123836156D01*
X135477960Y-123836155D01*
X135321201Y-123815518D01*
X135321199Y-123815518D01*
X135164439Y-123836155D01*
X135164437Y-123836156D01*
X135018360Y-123896663D01*
X134892918Y-123992918D01*
X134796663Y-124118360D01*
X134736156Y-124264437D01*
X134736155Y-124264439D01*
X134715518Y-124421198D01*
X134715518Y-124421201D01*
X134736155Y-124577960D01*
X134736156Y-124577962D01*
X134784145Y-124693819D01*
X134796664Y-124724041D01*
X134878911Y-124831227D01*
X134904104Y-124896395D01*
X134890066Y-124964839D01*
X134841252Y-125014829D01*
X134827987Y-125021273D01*
X134697160Y-125075463D01*
X134571718Y-125171718D01*
X134475463Y-125297160D01*
X134414956Y-125443237D01*
X134414955Y-125443239D01*
X134394318Y-125599998D01*
X122882500Y-125599998D01*
X122882500Y-124693819D01*
X122902185Y-124626780D01*
X122954989Y-124581025D01*
X123024147Y-124571081D01*
X123049836Y-124577638D01*
X123092622Y-124593597D01*
X123092627Y-124593598D01*
X123152155Y-124599999D01*
X123152172Y-124600000D01*
X123950000Y-124600000D01*
X126450000Y-124600000D01*
X127184908Y-124600000D01*
X127251947Y-124619685D01*
X127297702Y-124672489D01*
X127307847Y-124707815D01*
X127327455Y-124856760D01*
X127327456Y-124856762D01*
X127386756Y-124999926D01*
X127387964Y-125002841D01*
X127484218Y-125128282D01*
X127609659Y-125224536D01*
X127755738Y-125285044D01*
X127834119Y-125295363D01*
X127912499Y-125305682D01*
X127912500Y-125305682D01*
X127912501Y-125305682D01*
X127977239Y-125297159D01*
X128069262Y-125285044D01*
X128215341Y-125224536D01*
X128340782Y-125128282D01*
X128437036Y-125002841D01*
X128497544Y-124856762D01*
X128518182Y-124700000D01*
X128517368Y-124693819D01*
X128497544Y-124543239D01*
X128497544Y-124543238D01*
X128437036Y-124397159D01*
X128340782Y-124271718D01*
X128215341Y-124175464D01*
X128069262Y-124114956D01*
X128069260Y-124114955D01*
X127912501Y-124094318D01*
X127912499Y-124094318D01*
X127840185Y-124103838D01*
X127771150Y-124093072D01*
X127718894Y-124046692D01*
X127700000Y-123980899D01*
X127700000Y-123350000D01*
X126450000Y-123350000D01*
X126450000Y-124600000D01*
X123950000Y-124600000D01*
X123950000Y-120850000D01*
X126450000Y-120850000D01*
X127700000Y-120850000D01*
X127700000Y-120052172D01*
X127699999Y-120052155D01*
X127693598Y-119992627D01*
X127693596Y-119992620D01*
X127643354Y-119857913D01*
X127643350Y-119857906D01*
X127557190Y-119742812D01*
X127557187Y-119742809D01*
X127442093Y-119656649D01*
X127442086Y-119656645D01*
X127307379Y-119606403D01*
X127307372Y-119606401D01*
X127247844Y-119600000D01*
X126450000Y-119600000D01*
X126450000Y-120850000D01*
X123950000Y-120850000D01*
X123950000Y-119600000D01*
X123152155Y-119600000D01*
X123092627Y-119606401D01*
X123092621Y-119606402D01*
X123049831Y-119622362D01*
X122980140Y-119627345D01*
X122918817Y-119593859D01*
X122885333Y-119532535D01*
X122882500Y-119506179D01*
X122882500Y-118384746D01*
X122902185Y-118317707D01*
X122954989Y-118271952D01*
X123024147Y-118262008D01*
X123087703Y-118291033D01*
X123125477Y-118349811D01*
X123126270Y-118352638D01*
X123126793Y-118354588D01*
X123179520Y-118445913D01*
X123179522Y-118445915D01*
X123358597Y-118624990D01*
X123392082Y-118686313D01*
X123393855Y-118696485D01*
X123394318Y-118699998D01*
X123394318Y-118700000D01*
X123414956Y-118856762D01*
X123475464Y-119002841D01*
X123571718Y-119128282D01*
X123697159Y-119224536D01*
X123843238Y-119285044D01*
X123921619Y-119295363D01*
X123999999Y-119305682D01*
X124000000Y-119305682D01*
X124000001Y-119305682D01*
X124052254Y-119298802D01*
X124156762Y-119285044D01*
X124302841Y-119224536D01*
X124428282Y-119128282D01*
X124524536Y-119002841D01*
X124585044Y-118856762D01*
X124605682Y-118700000D01*
X124585044Y-118543238D01*
X124524536Y-118397159D01*
X124428282Y-118271718D01*
X124302841Y-118175464D01*
X124156762Y-118114956D01*
X124128219Y-118111198D01*
X124008314Y-118095412D01*
X123944418Y-118067145D01*
X123905947Y-118008821D01*
X123900500Y-117972473D01*
X123900500Y-117575733D01*
X127218583Y-117575733D01*
X127218583Y-117575736D01*
X127239220Y-117732495D01*
X127239221Y-117732497D01*
X127299729Y-117878576D01*
X127395983Y-118004017D01*
X127521424Y-118100271D01*
X127667503Y-118160779D01*
X127745884Y-118171098D01*
X127824264Y-118181417D01*
X127824265Y-118181417D01*
X127824266Y-118181417D01*
X127876519Y-118174537D01*
X127981027Y-118160779D01*
X128127106Y-118100271D01*
X128252547Y-118004017D01*
X128348801Y-117878576D01*
X128409309Y-117732497D01*
X128429947Y-117575735D01*
X128426268Y-117547793D01*
X128409309Y-117418974D01*
X128409309Y-117418973D01*
X128348801Y-117272894D01*
X128252547Y-117147453D01*
X128127106Y-117051199D01*
X128107886Y-117043238D01*
X127981027Y-116990691D01*
X127981025Y-116990690D01*
X127824266Y-116970053D01*
X127824264Y-116970053D01*
X127667504Y-116990690D01*
X127667502Y-116990691D01*
X127521425Y-117051198D01*
X127395983Y-117147453D01*
X127299728Y-117272895D01*
X127239221Y-117418972D01*
X127239220Y-117418974D01*
X127218583Y-117575733D01*
X123900500Y-117575733D01*
X123900500Y-117492254D01*
X123920185Y-117425215D01*
X123936815Y-117404577D01*
X124129574Y-117211817D01*
X124190897Y-117178333D01*
X124217255Y-117175499D01*
X124622871Y-117175499D01*
X124622872Y-117175499D01*
X124682483Y-117169091D01*
X124817331Y-117118796D01*
X124932546Y-117032546D01*
X125018796Y-116917331D01*
X125069091Y-116782483D01*
X125075500Y-116722873D01*
X125075499Y-116316252D01*
X125095183Y-116249215D01*
X125147987Y-116203460D01*
X125217146Y-116193516D01*
X125280702Y-116222541D01*
X125287180Y-116228573D01*
X125288181Y-116229574D01*
X125321666Y-116290897D01*
X125324500Y-116317255D01*
X125324500Y-116722870D01*
X125324501Y-116722876D01*
X125330908Y-116782483D01*
X125381202Y-116917328D01*
X125381206Y-116917335D01*
X125467452Y-117032544D01*
X125467455Y-117032547D01*
X125582664Y-117118793D01*
X125582671Y-117118797D01*
X125627618Y-117135561D01*
X125717517Y-117169091D01*
X125777127Y-117175500D01*
X126272872Y-117175499D01*
X126332483Y-117169091D01*
X126467331Y-117118796D01*
X126582546Y-117032546D01*
X126668796Y-116917331D01*
X126719091Y-116782483D01*
X126725500Y-116722873D01*
X126725499Y-116077128D01*
X126719091Y-116017517D01*
X126714907Y-116006300D01*
X126668797Y-115882671D01*
X126668793Y-115882664D01*
X126582547Y-115767455D01*
X126582544Y-115767452D01*
X126467335Y-115681206D01*
X126467328Y-115681202D01*
X126332482Y-115630908D01*
X126332483Y-115630908D01*
X126272883Y-115624501D01*
X126272881Y-115624500D01*
X126272873Y-115624500D01*
X126272865Y-115624500D01*
X125867255Y-115624500D01*
X125800216Y-115604815D01*
X125779574Y-115588181D01*
X125489237Y-115297844D01*
X129950000Y-115297844D01*
X129956401Y-115357372D01*
X129956403Y-115357379D01*
X130006645Y-115492086D01*
X130006649Y-115492093D01*
X130092809Y-115607187D01*
X130092812Y-115607190D01*
X130207906Y-115693350D01*
X130207913Y-115693354D01*
X130342620Y-115743596D01*
X130342627Y-115743598D01*
X130402155Y-115749999D01*
X130402172Y-115750000D01*
X130950000Y-115750000D01*
X131450000Y-115750000D01*
X131997828Y-115750000D01*
X131997844Y-115749999D01*
X132057372Y-115743598D01*
X132057379Y-115743596D01*
X132192086Y-115693354D01*
X132192093Y-115693350D01*
X132307187Y-115607190D01*
X132307190Y-115607187D01*
X132393350Y-115492093D01*
X132393354Y-115492086D01*
X132443596Y-115357379D01*
X132443598Y-115357372D01*
X132449999Y-115297844D01*
X132450000Y-115297827D01*
X132450000Y-115000000D01*
X131450000Y-115000000D01*
X131450000Y-115750000D01*
X130950000Y-115750000D01*
X130950000Y-115000000D01*
X129950000Y-115000000D01*
X129950000Y-115297844D01*
X125489237Y-115297844D01*
X125170915Y-114979522D01*
X125170913Y-114979520D01*
X125125250Y-114953156D01*
X125079589Y-114926793D01*
X125028657Y-114913146D01*
X124977727Y-114899500D01*
X124977726Y-114899500D01*
X124506580Y-114899500D01*
X124439541Y-114879815D01*
X124431093Y-114873876D01*
X124428283Y-114871720D01*
X124428282Y-114871718D01*
X124302841Y-114775464D01*
X124293797Y-114771718D01*
X124156762Y-114714956D01*
X124156760Y-114714955D01*
X124000001Y-114694318D01*
X123999999Y-114694318D01*
X123843239Y-114714955D01*
X123843237Y-114714956D01*
X123697160Y-114775463D01*
X123571718Y-114871718D01*
X123475463Y-114997160D01*
X123414956Y-115143237D01*
X123414955Y-115143239D01*
X123394318Y-115299998D01*
X123394318Y-115300001D01*
X123414955Y-115456760D01*
X123414956Y-115456762D01*
X123469391Y-115588181D01*
X123475464Y-115602841D01*
X123571718Y-115728282D01*
X123667752Y-115801971D01*
X123708954Y-115858399D01*
X123713109Y-115928145D01*
X123708448Y-115943679D01*
X123680908Y-116017519D01*
X123678143Y-116043239D01*
X123674501Y-116077123D01*
X123674500Y-116077135D01*
X123674500Y-116482744D01*
X123654815Y-116549783D01*
X123638181Y-116570425D01*
X123179522Y-117029084D01*
X123179518Y-117029090D01*
X123126792Y-117120412D01*
X123126792Y-117120417D01*
X123126274Y-117122350D01*
X123089907Y-117182009D01*
X123027060Y-117212537D01*
X122957684Y-117204240D01*
X122903808Y-117159753D01*
X122882535Y-117093201D01*
X122882500Y-117090253D01*
X122882500Y-114329500D01*
X122902185Y-114262461D01*
X122954989Y-114216706D01*
X123006500Y-114205500D01*
X129826000Y-114205500D01*
X129893039Y-114225185D01*
X129938794Y-114277989D01*
X129950000Y-114329500D01*
X129950000Y-114500000D01*
X132450000Y-114500000D01*
X132450000Y-114329500D01*
X132469685Y-114262461D01*
X132522489Y-114216706D01*
X132574000Y-114205500D01*
X139375500Y-114205500D01*
X139442539Y-114225185D01*
X139488294Y-114277989D01*
X139499500Y-114329500D01*
X139499500Y-114352726D01*
X139526793Y-114454589D01*
X139553012Y-114500000D01*
X139579520Y-114545913D01*
X139579522Y-114545915D01*
X140158597Y-115124990D01*
X140192082Y-115186313D01*
X140193855Y-115196485D01*
X140214956Y-115356761D01*
X140214956Y-115356762D01*
X140275464Y-115502842D01*
X140368826Y-115624514D01*
X140394020Y-115689683D01*
X140379981Y-115758128D01*
X140368826Y-115775486D01*
X140275464Y-115897157D01*
X140214956Y-116043237D01*
X140214955Y-116043239D01*
X140194318Y-116199998D01*
X140194318Y-116200001D01*
X140214955Y-116356760D01*
X140214956Y-116356762D01*
X140275464Y-116502842D01*
X140368826Y-116624514D01*
X140394020Y-116689683D01*
X140379981Y-116758128D01*
X140368826Y-116775486D01*
X140275464Y-116897157D01*
X140214956Y-117043237D01*
X140214955Y-117043239D01*
X140194318Y-117199998D01*
X140194318Y-117200001D01*
X140214955Y-117356760D01*
X140214956Y-117356762D01*
X140275287Y-117502415D01*
X140275464Y-117502841D01*
X140371718Y-117628282D01*
X140497159Y-117724536D01*
X140643238Y-117785044D01*
X140721619Y-117795363D01*
X140799999Y-117805682D01*
X140800000Y-117805682D01*
X140800001Y-117805682D01*
X140852254Y-117798802D01*
X140956762Y-117785044D01*
X141102841Y-117724536D01*
X141174513Y-117669539D01*
X141239682Y-117644345D01*
X141308127Y-117658383D01*
X141325484Y-117669538D01*
X141350767Y-117688938D01*
X141397157Y-117724535D01*
X141397158Y-117724535D01*
X141397159Y-117724536D01*
X141543238Y-117785044D01*
X141621619Y-117795363D01*
X141699999Y-117805682D01*
X141700000Y-117805682D01*
X141700001Y-117805682D01*
X141752254Y-117798802D01*
X141856762Y-117785044D01*
X142002841Y-117724536D01*
X142074513Y-117669539D01*
X142139682Y-117644345D01*
X142208127Y-117658383D01*
X142225484Y-117669538D01*
X142250767Y-117688938D01*
X142297157Y-117724535D01*
X142297158Y-117724535D01*
X142297159Y-117724536D01*
X142443238Y-117785044D01*
X142521619Y-117795363D01*
X142599999Y-117805682D01*
X142600000Y-117805682D01*
X142600001Y-117805682D01*
X142652254Y-117798802D01*
X142756762Y-117785044D01*
X142902841Y-117724536D01*
X142974513Y-117669539D01*
X143039682Y-117644345D01*
X143108127Y-117658383D01*
X143125484Y-117669538D01*
X143150767Y-117688938D01*
X143197157Y-117724535D01*
X143197158Y-117724535D01*
X143197159Y-117724536D01*
X143343238Y-117785044D01*
X143421619Y-117795363D01*
X143499999Y-117805682D01*
X143500000Y-117805682D01*
X143500001Y-117805682D01*
X143552254Y-117798802D01*
X143656762Y-117785044D01*
X143802841Y-117724536D01*
X143928282Y-117628282D01*
X144024536Y-117502841D01*
X144085044Y-117356762D01*
X144102750Y-117222273D01*
X144105682Y-117200001D01*
X144105682Y-117199998D01*
X144085044Y-117043239D01*
X144085044Y-117043238D01*
X144024536Y-116897159D01*
X143931171Y-116775484D01*
X143905979Y-116710317D01*
X143920017Y-116641873D01*
X143931167Y-116624521D01*
X144024536Y-116502841D01*
X144085044Y-116356762D01*
X144101920Y-116228573D01*
X144105682Y-116200001D01*
X144105682Y-116199998D01*
X144085044Y-116043239D01*
X144085044Y-116043238D01*
X144024536Y-115897159D01*
X143931171Y-115775484D01*
X143905979Y-115710317D01*
X143920017Y-115641873D01*
X143931167Y-115624521D01*
X144024536Y-115502841D01*
X144085044Y-115356762D01*
X144105682Y-115200000D01*
X144085044Y-115043238D01*
X144024536Y-114897159D01*
X143928282Y-114771718D01*
X143802841Y-114675464D01*
X143656762Y-114614956D01*
X143656760Y-114614955D01*
X143500001Y-114594318D01*
X143499999Y-114594318D01*
X143343239Y-114614955D01*
X143343237Y-114614956D01*
X143197157Y-114675464D01*
X143125486Y-114730460D01*
X143060317Y-114755654D01*
X142991872Y-114741615D01*
X142974514Y-114730460D01*
X142902842Y-114675464D01*
X142756762Y-114614956D01*
X142756760Y-114614955D01*
X142600001Y-114594318D01*
X142599999Y-114594318D01*
X142443239Y-114614955D01*
X142443237Y-114614956D01*
X142297157Y-114675464D01*
X142225486Y-114730460D01*
X142160317Y-114755654D01*
X142091872Y-114741615D01*
X142074514Y-114730460D01*
X142002842Y-114675464D01*
X141856762Y-114614956D01*
X141856760Y-114614955D01*
X141700001Y-114594318D01*
X141699999Y-114594318D01*
X141543239Y-114614955D01*
X141543237Y-114614956D01*
X141397157Y-114675464D01*
X141325486Y-114730460D01*
X141260317Y-114755654D01*
X141191872Y-114741615D01*
X141174514Y-114730460D01*
X141102842Y-114675464D01*
X141029801Y-114645210D01*
X140956762Y-114614956D01*
X140900577Y-114607559D01*
X140796485Y-114593855D01*
X140732589Y-114565588D01*
X140724990Y-114558597D01*
X140583574Y-114417181D01*
X140550089Y-114355858D01*
X140555073Y-114286166D01*
X140596945Y-114230233D01*
X140662409Y-114205816D01*
X140671255Y-114205500D01*
X147975990Y-114205500D01*
X147976000Y-114205500D01*
X148040941Y-114198518D01*
X148092452Y-114187312D01*
X148130658Y-114176354D01*
X148227571Y-114119675D01*
X148280375Y-114073920D01*
X148280382Y-114073912D01*
X148280387Y-114073908D01*
X148322548Y-114029192D01*
X148322553Y-114029187D01*
X148373439Y-113929111D01*
X148381987Y-113900000D01*
X161323500Y-113900000D01*
X161323500Y-122099166D01*
G37*
%TD.AperFunction*%
%TD*%
%TA.AperFunction,Conductor*%
%TO.N,GNDPWR*%
G36*
X161266539Y-88358185D02*
G01*
X161312294Y-88410989D01*
X161323500Y-88462500D01*
X161323500Y-99007415D01*
X161303815Y-99074454D01*
X161251011Y-99120209D01*
X161181853Y-99130153D01*
X161118297Y-99101128D01*
X161092113Y-99069415D01*
X161022781Y-98949328D01*
X160886522Y-98771752D01*
X160886516Y-98771745D01*
X160728254Y-98613483D01*
X160728247Y-98613477D01*
X160550671Y-98477218D01*
X160356831Y-98365305D01*
X160356821Y-98365300D01*
X160199167Y-98299998D01*
X160150036Y-98279647D01*
X160137589Y-98276312D01*
X160104335Y-98267401D01*
X159933832Y-98221716D01*
X159933826Y-98221715D01*
X159933821Y-98221714D01*
X159711924Y-98192501D01*
X159711921Y-98192500D01*
X159711915Y-98192500D01*
X159488085Y-98192500D01*
X159488079Y-98192500D01*
X159488075Y-98192501D01*
X159266178Y-98221714D01*
X159266171Y-98221715D01*
X159266168Y-98221716D01*
X159194100Y-98241026D01*
X159049970Y-98279645D01*
X159049966Y-98279646D01*
X159049964Y-98279647D01*
X159049957Y-98279650D01*
X158843178Y-98365300D01*
X158843168Y-98365305D01*
X158649328Y-98477218D01*
X158471752Y-98613477D01*
X158471745Y-98613483D01*
X158313483Y-98771745D01*
X158313477Y-98771752D01*
X158177218Y-98949328D01*
X158065305Y-99143168D01*
X158065300Y-99143178D01*
X157979650Y-99349957D01*
X157979645Y-99349970D01*
X157921717Y-99566165D01*
X157921714Y-99566178D01*
X157892501Y-99788075D01*
X157892500Y-99788091D01*
X157892500Y-109024408D01*
X157892501Y-109024424D01*
X157921714Y-109246321D01*
X157921715Y-109246326D01*
X157921716Y-109246332D01*
X157979647Y-109462536D01*
X157996182Y-109502454D01*
X158065300Y-109669321D01*
X158065305Y-109669331D01*
X158177218Y-109863171D01*
X158313477Y-110040747D01*
X158313483Y-110040754D01*
X158471745Y-110199016D01*
X158471752Y-110199022D01*
X158649328Y-110335281D01*
X158843168Y-110447194D01*
X158843178Y-110447199D01*
X158909070Y-110474492D01*
X159049964Y-110532853D01*
X159266168Y-110590784D01*
X159488085Y-110620000D01*
X159488092Y-110620000D01*
X159711908Y-110620000D01*
X159711915Y-110620000D01*
X159933832Y-110590784D01*
X160150036Y-110532853D01*
X160356828Y-110447196D01*
X160550672Y-110335281D01*
X160728249Y-110199021D01*
X160886521Y-110040749D01*
X161022781Y-109863172D01*
X161092113Y-109743083D01*
X161142679Y-109694869D01*
X161211286Y-109681645D01*
X161276151Y-109707613D01*
X161316680Y-109764527D01*
X161323500Y-109805084D01*
X161323500Y-113900000D01*
X148381987Y-113900000D01*
X148393124Y-113862072D01*
X148405500Y-113776000D01*
X148405500Y-111834240D01*
X150219311Y-111834240D01*
X150307585Y-111888897D01*
X150497678Y-111962539D01*
X150698072Y-112000000D01*
X150901928Y-112000000D01*
X151102322Y-111962539D01*
X151292412Y-111888899D01*
X151292416Y-111888897D01*
X151380686Y-111834241D01*
X151380686Y-111834240D01*
X150800001Y-111253553D01*
X150800000Y-111253553D01*
X150219311Y-111834240D01*
X148405500Y-111834240D01*
X148405500Y-110899999D01*
X149695287Y-110899999D01*
X149695287Y-110900000D01*
X149714096Y-111102989D01*
X149714097Y-111102992D01*
X149769883Y-111299063D01*
X149769886Y-111299069D01*
X149860751Y-111481551D01*
X149862533Y-111483911D01*
X150446446Y-110900000D01*
X150446446Y-110899999D01*
X150406951Y-110860504D01*
X150500000Y-110860504D01*
X150500000Y-110939496D01*
X150520444Y-111015796D01*
X150559940Y-111084205D01*
X150615795Y-111140060D01*
X150684204Y-111179556D01*
X150760504Y-111200000D01*
X150839496Y-111200000D01*
X150915796Y-111179556D01*
X150984205Y-111140060D01*
X151040060Y-111084205D01*
X151079556Y-111015796D01*
X151100000Y-110939496D01*
X151100000Y-110900000D01*
X151153553Y-110900000D01*
X151737465Y-111483912D01*
X151739247Y-111481553D01*
X151739251Y-111481547D01*
X151801500Y-111356534D01*
X151849002Y-111305297D01*
X151916665Y-111287875D01*
X151983006Y-111309800D01*
X152019887Y-111349805D01*
X152067467Y-111432216D01*
X152124822Y-111495915D01*
X152194129Y-111572888D01*
X152347265Y-111684148D01*
X152347270Y-111684151D01*
X152520192Y-111761142D01*
X152520197Y-111761144D01*
X152705354Y-111800500D01*
X152705355Y-111800500D01*
X152894644Y-111800500D01*
X152894646Y-111800500D01*
X153079803Y-111761144D01*
X153252730Y-111684151D01*
X153405871Y-111572888D01*
X153532533Y-111432216D01*
X153627179Y-111268284D01*
X153685674Y-111088256D01*
X153705460Y-110900000D01*
X153685674Y-110711744D01*
X153627179Y-110531716D01*
X153532533Y-110367784D01*
X153405871Y-110227112D01*
X153390193Y-110215721D01*
X153252734Y-110115851D01*
X153252729Y-110115848D01*
X153079807Y-110038857D01*
X153079802Y-110038855D01*
X152934001Y-110007865D01*
X152894646Y-109999500D01*
X152705354Y-109999500D01*
X152672897Y-110006398D01*
X152520197Y-110038855D01*
X152520192Y-110038857D01*
X152347270Y-110115848D01*
X152347265Y-110115851D01*
X152194129Y-110227111D01*
X152067465Y-110367785D01*
X152019887Y-110450194D01*
X151969320Y-110498410D01*
X151900713Y-110511632D01*
X151835848Y-110485664D01*
X151801500Y-110443466D01*
X151739249Y-110318449D01*
X151739247Y-110318447D01*
X151737465Y-110316087D01*
X151153553Y-110900000D01*
X151100000Y-110900000D01*
X151100000Y-110860504D01*
X151079556Y-110784204D01*
X151040060Y-110715795D01*
X150984205Y-110659940D01*
X150915796Y-110620444D01*
X150839496Y-110600000D01*
X150760504Y-110600000D01*
X150684204Y-110620444D01*
X150615795Y-110659940D01*
X150559940Y-110715795D01*
X150520444Y-110784204D01*
X150500000Y-110860504D01*
X150406951Y-110860504D01*
X149862533Y-110316087D01*
X149860755Y-110318442D01*
X149860754Y-110318443D01*
X149769886Y-110500930D01*
X149769883Y-110500936D01*
X149714097Y-110697007D01*
X149714096Y-110697010D01*
X149695287Y-110899999D01*
X148405500Y-110899999D01*
X148405500Y-109965758D01*
X150219311Y-109965758D01*
X150800000Y-110546446D01*
X150800001Y-110546446D01*
X151380687Y-109965758D01*
X151292413Y-109911101D01*
X151292411Y-109911100D01*
X151102321Y-109837460D01*
X150901928Y-109800000D01*
X150698072Y-109800000D01*
X150497678Y-109837460D01*
X150307588Y-109911100D01*
X150307581Y-109911104D01*
X150219312Y-109965757D01*
X150219311Y-109965758D01*
X148405500Y-109965758D01*
X148405500Y-102591409D01*
X148405451Y-102585957D01*
X148405372Y-102581531D01*
X148403437Y-102570230D01*
X148411524Y-102500831D01*
X148455847Y-102446820D01*
X148478202Y-102434741D01*
X148502841Y-102424536D01*
X148628282Y-102328282D01*
X148724536Y-102202841D01*
X148785044Y-102056762D01*
X148805682Y-101900000D01*
X148805681Y-101899996D01*
X148785044Y-101743239D01*
X148785044Y-101743238D01*
X148724536Y-101597159D01*
X148628282Y-101471718D01*
X148502841Y-101375464D01*
X148356762Y-101314956D01*
X148312752Y-101309162D01*
X148248856Y-101280895D01*
X148210385Y-101222571D01*
X148205999Y-101202408D01*
X148195166Y-101120125D01*
X148185044Y-101043238D01*
X148185043Y-101043237D01*
X148183983Y-101035180D01*
X148186422Y-101034858D01*
X148187782Y-100977437D01*
X148224698Y-100921465D01*
X148227565Y-100918980D01*
X148227571Y-100918977D01*
X148280375Y-100873222D01*
X148280382Y-100873213D01*
X148280387Y-100873210D01*
X148310147Y-100841645D01*
X148322553Y-100828489D01*
X148373439Y-100728413D01*
X148393124Y-100661374D01*
X148405500Y-100575302D01*
X148405500Y-99953116D01*
X148403118Y-99915041D01*
X148399266Y-99884375D01*
X148397454Y-99872002D01*
X148397453Y-99872000D01*
X148397453Y-99871997D01*
X148366752Y-99788075D01*
X148358883Y-99766564D01*
X148323231Y-99706475D01*
X148323223Y-99706464D01*
X148323219Y-99706458D01*
X148299834Y-99674806D01*
X148275829Y-99609189D01*
X148285004Y-99553670D01*
X148341828Y-99416487D01*
X148362466Y-99259725D01*
X148362205Y-99257745D01*
X148341828Y-99102964D01*
X148341828Y-99102963D01*
X148285080Y-98965963D01*
X148277612Y-98896496D01*
X148308887Y-98834016D01*
X148309221Y-98833659D01*
X148322553Y-98819520D01*
X148373439Y-98719444D01*
X148393124Y-98652405D01*
X148405500Y-98566333D01*
X148405500Y-94468995D01*
X155449499Y-94468995D01*
X155476418Y-94604322D01*
X155476421Y-94604332D01*
X155529221Y-94731804D01*
X155529228Y-94731817D01*
X155605885Y-94846541D01*
X155605888Y-94846545D01*
X155696662Y-94937319D01*
X155730147Y-94998642D01*
X155725163Y-95068334D01*
X155696662Y-95112681D01*
X155605888Y-95203454D01*
X155605885Y-95203458D01*
X155529228Y-95318182D01*
X155529221Y-95318195D01*
X155476421Y-95445667D01*
X155476418Y-95445677D01*
X155449500Y-95581004D01*
X155449500Y-95581007D01*
X155449500Y-95718993D01*
X155449500Y-95718995D01*
X155449499Y-95718995D01*
X155476418Y-95854322D01*
X155476421Y-95854332D01*
X155529221Y-95981804D01*
X155529228Y-95981817D01*
X155605885Y-96096541D01*
X155605888Y-96096545D01*
X155639579Y-96130236D01*
X155673064Y-96191559D01*
X155668080Y-96261251D01*
X155626212Y-96317182D01*
X155606041Y-96332282D01*
X155592454Y-96342454D01*
X155592453Y-96342455D01*
X155592452Y-96342456D01*
X155506206Y-96457664D01*
X155506202Y-96457671D01*
X155455910Y-96592513D01*
X155455909Y-96592517D01*
X155449500Y-96652127D01*
X155449500Y-96652134D01*
X155449500Y-96652135D01*
X155449500Y-97147870D01*
X155449501Y-97147876D01*
X155455908Y-97207483D01*
X155506202Y-97342328D01*
X155506206Y-97342335D01*
X155592452Y-97457544D01*
X155592455Y-97457547D01*
X155707664Y-97543793D01*
X155707671Y-97543797D01*
X155842517Y-97594091D01*
X155842516Y-97594091D01*
X155849444Y-97594835D01*
X155902127Y-97600500D01*
X156897872Y-97600499D01*
X156957483Y-97594091D01*
X157092331Y-97543796D01*
X157207546Y-97457546D01*
X157293796Y-97342331D01*
X157344091Y-97207483D01*
X157350500Y-97147873D01*
X157350499Y-96652128D01*
X157344091Y-96592517D01*
X157331098Y-96557682D01*
X157293797Y-96457671D01*
X157293793Y-96457664D01*
X157207548Y-96342456D01*
X157207546Y-96342455D01*
X157207546Y-96342454D01*
X157173787Y-96317182D01*
X157131918Y-96261248D01*
X157126935Y-96191556D01*
X157160421Y-96130235D01*
X157194111Y-96096545D01*
X157194114Y-96096542D01*
X157270775Y-95981811D01*
X157323580Y-95854328D01*
X157339135Y-95776128D01*
X157350500Y-95718995D01*
X157350500Y-95581004D01*
X157323581Y-95445677D01*
X157323580Y-95445676D01*
X157323580Y-95445672D01*
X157321748Y-95441248D01*
X157270778Y-95318195D01*
X157270771Y-95318182D01*
X157194114Y-95203458D01*
X157194111Y-95203454D01*
X157103338Y-95112681D01*
X157069853Y-95051358D01*
X157074837Y-94981666D01*
X157103338Y-94937319D01*
X157194111Y-94846545D01*
X157194114Y-94846542D01*
X157270775Y-94731811D01*
X157323580Y-94604328D01*
X157340518Y-94519175D01*
X157350500Y-94468995D01*
X157350500Y-94331004D01*
X157323581Y-94195677D01*
X157323580Y-94195676D01*
X157323580Y-94195672D01*
X157310278Y-94163557D01*
X157270778Y-94068195D01*
X157270771Y-94068182D01*
X157194114Y-93953458D01*
X157194111Y-93953454D01*
X157096545Y-93855888D01*
X157096541Y-93855885D01*
X156981817Y-93779228D01*
X156981804Y-93779221D01*
X156854332Y-93726421D01*
X156854322Y-93726418D01*
X156718995Y-93699500D01*
X156718993Y-93699500D01*
X156081007Y-93699500D01*
X156081005Y-93699500D01*
X155945677Y-93726418D01*
X155945667Y-93726421D01*
X155818195Y-93779221D01*
X155818182Y-93779228D01*
X155703458Y-93855885D01*
X155703454Y-93855888D01*
X155605888Y-93953454D01*
X155605885Y-93953458D01*
X155529228Y-94068182D01*
X155529221Y-94068195D01*
X155476421Y-94195667D01*
X155476418Y-94195677D01*
X155449500Y-94331004D01*
X155449500Y-94331007D01*
X155449500Y-94468993D01*
X155449500Y-94468995D01*
X155449499Y-94468995D01*
X148405500Y-94468995D01*
X148405500Y-90894120D01*
X148405476Y-90890308D01*
X148405437Y-90887183D01*
X148390824Y-90797565D01*
X148369456Y-90731043D01*
X148344857Y-90674694D01*
X148272770Y-90588623D01*
X148272769Y-90588622D01*
X148272765Y-90588618D01*
X148218841Y-90544223D01*
X148218829Y-90544213D01*
X148199483Y-90531315D01*
X148154623Y-90477753D01*
X148145842Y-90408438D01*
X148148996Y-90394222D01*
X148200756Y-90212310D01*
X148220429Y-90000000D01*
X148200756Y-89787690D01*
X148148402Y-89603687D01*
X148148988Y-89533821D01*
X148187255Y-89475362D01*
X148205068Y-89462715D01*
X148211164Y-89459149D01*
X148227571Y-89449554D01*
X148280375Y-89403799D01*
X148280382Y-89403791D01*
X148280387Y-89403787D01*
X148322548Y-89359071D01*
X148322553Y-89359066D01*
X148373439Y-89258990D01*
X148393124Y-89191951D01*
X148405500Y-89105879D01*
X148405500Y-88462500D01*
X148425185Y-88395461D01*
X148477989Y-88349706D01*
X148529500Y-88338500D01*
X161199500Y-88338500D01*
X161266539Y-88358185D01*
G37*
%TD.AperFunction*%
%TD*%
%TA.AperFunction,Conductor*%
%TO.N,GND*%
G36*
X148043039Y-88358185D02*
G01*
X148088794Y-88410989D01*
X148100000Y-88462500D01*
X148100000Y-89105879D01*
X148080315Y-89172918D01*
X148027511Y-89218673D01*
X147958353Y-89228617D01*
X147894797Y-89199592D01*
X147892462Y-89197516D01*
X147763562Y-89080008D01*
X147761302Y-89077948D01*
X147580019Y-88965702D01*
X147580017Y-88965701D01*
X147480608Y-88927190D01*
X147381198Y-88888679D01*
X147171610Y-88849500D01*
X146958390Y-88849500D01*
X146748802Y-88888679D01*
X146748799Y-88888679D01*
X146748799Y-88888680D01*
X146549982Y-88965701D01*
X146549980Y-88965702D01*
X146368699Y-89077947D01*
X146211127Y-89221593D01*
X146082632Y-89391746D01*
X145987596Y-89582605D01*
X145987596Y-89582607D01*
X145929244Y-89787689D01*
X145922970Y-89855394D01*
X145897183Y-89920331D01*
X145840383Y-89961018D01*
X145770602Y-89964538D01*
X145709995Y-89929772D01*
X145677806Y-89867759D01*
X145675499Y-89843952D01*
X145675499Y-89105143D01*
X145675499Y-89105136D01*
X145675497Y-89105117D01*
X145672586Y-89080012D01*
X145672585Y-89080010D01*
X145672585Y-89080009D01*
X145627206Y-88977235D01*
X145547765Y-88897794D01*
X145527124Y-88888680D01*
X145444992Y-88852415D01*
X145419865Y-88849500D01*
X143630143Y-88849500D01*
X143630117Y-88849502D01*
X143605012Y-88852413D01*
X143605008Y-88852415D01*
X143502235Y-88897793D01*
X143422794Y-88977234D01*
X143377415Y-89080006D01*
X143377415Y-89080008D01*
X143374500Y-89105131D01*
X143374500Y-90894856D01*
X143374502Y-90894882D01*
X143377413Y-90919987D01*
X143377415Y-90919991D01*
X143422793Y-91022764D01*
X143422794Y-91022765D01*
X143502235Y-91102206D01*
X143605009Y-91147585D01*
X143630135Y-91150500D01*
X145419864Y-91150499D01*
X145419879Y-91150497D01*
X145419882Y-91150497D01*
X145444987Y-91147586D01*
X145444988Y-91147585D01*
X145444991Y-91147585D01*
X145547765Y-91102206D01*
X145627206Y-91022765D01*
X145672585Y-90919991D01*
X145675500Y-90894865D01*
X145675499Y-90156046D01*
X145695183Y-90089009D01*
X145747987Y-90043254D01*
X145817146Y-90033310D01*
X145880702Y-90062335D01*
X145918476Y-90121113D01*
X145922970Y-90144606D01*
X145929244Y-90212310D01*
X145987596Y-90417392D01*
X145987596Y-90417394D01*
X146082632Y-90608253D01*
X146082634Y-90608255D01*
X146211128Y-90778407D01*
X146368698Y-90922052D01*
X146549981Y-91034298D01*
X146748802Y-91111321D01*
X146958390Y-91150500D01*
X146958392Y-91150500D01*
X147171608Y-91150500D01*
X147171610Y-91150500D01*
X147381198Y-91111321D01*
X147580019Y-91034298D01*
X147761302Y-90922052D01*
X147892463Y-90802481D01*
X147955265Y-90771866D01*
X148024652Y-90780063D01*
X148078593Y-90824473D01*
X148099961Y-90890995D01*
X148100000Y-90894120D01*
X148100000Y-98566333D01*
X148080315Y-98633372D01*
X148027511Y-98679127D01*
X147958353Y-98689071D01*
X147928551Y-98680896D01*
X147913546Y-98674681D01*
X147913544Y-98674680D01*
X147756785Y-98654043D01*
X147756783Y-98654043D01*
X147600023Y-98674680D01*
X147600018Y-98674682D01*
X147501096Y-98715657D01*
X147431627Y-98723126D01*
X147369148Y-98691851D01*
X147365963Y-98688777D01*
X146737477Y-98060291D01*
X146703992Y-97998968D01*
X146701158Y-97972619D01*
X146701158Y-97479493D01*
X146694750Y-97419882D01*
X146650037Y-97300001D01*
X146644456Y-97285036D01*
X146644452Y-97285029D01*
X146558206Y-97169820D01*
X146558203Y-97169817D01*
X146442994Y-97083571D01*
X146442987Y-97083567D01*
X146308145Y-97033275D01*
X146308144Y-97033274D01*
X146308142Y-97033274D01*
X146248532Y-97026865D01*
X146248522Y-97026865D01*
X145602788Y-97026865D01*
X145602782Y-97026866D01*
X145543175Y-97033273D01*
X145408330Y-97083567D01*
X145408323Y-97083571D01*
X145293114Y-97169817D01*
X145293111Y-97169820D01*
X145206865Y-97285029D01*
X145206861Y-97285036D01*
X145156569Y-97419878D01*
X145156568Y-97419882D01*
X145150159Y-97479492D01*
X145150159Y-97479499D01*
X145150159Y-97479500D01*
X145150159Y-97975235D01*
X145150160Y-97975241D01*
X145156567Y-98034848D01*
X145206861Y-98169693D01*
X145206865Y-98169700D01*
X145293111Y-98284909D01*
X145293114Y-98284912D01*
X145408323Y-98371158D01*
X145408330Y-98371162D01*
X145453277Y-98387926D01*
X145543176Y-98421456D01*
X145602786Y-98427865D01*
X145920903Y-98427864D01*
X145987942Y-98447548D01*
X146008584Y-98464183D01*
X147045698Y-99501296D01*
X147045708Y-99501307D01*
X147050038Y-99505637D01*
X147050039Y-99505638D01*
X147124606Y-99580205D01*
X147124608Y-99580206D01*
X147131057Y-99585155D01*
X147130211Y-99586257D01*
X147172454Y-99630551D01*
X147185685Y-99699157D01*
X147159724Y-99764024D01*
X147102814Y-99804559D01*
X147078433Y-99810322D01*
X147043238Y-99814956D01*
X147043237Y-99814956D01*
X146897160Y-99875463D01*
X146771718Y-99971718D01*
X146675463Y-100097160D01*
X146614956Y-100243237D01*
X146614955Y-100243239D01*
X146594318Y-100399998D01*
X146594318Y-100400001D01*
X146614955Y-100556760D01*
X146614956Y-100556762D01*
X146669391Y-100688181D01*
X146675464Y-100702841D01*
X146771718Y-100828282D01*
X146897159Y-100924536D01*
X146935777Y-100940532D01*
X146990180Y-100984371D01*
X147012246Y-101050665D01*
X147011264Y-101071278D01*
X146994318Y-101199998D01*
X146994318Y-101200001D01*
X147014955Y-101356760D01*
X147014956Y-101356762D01*
X147073544Y-101498207D01*
X147075464Y-101502841D01*
X147171718Y-101628282D01*
X147297159Y-101724536D01*
X147443238Y-101785044D01*
X147487246Y-101790837D01*
X147551142Y-101819102D01*
X147589614Y-101877426D01*
X147594000Y-101897590D01*
X147611475Y-102030318D01*
X147614956Y-102056762D01*
X147675464Y-102202841D01*
X147771718Y-102328282D01*
X147897159Y-102424536D01*
X148023452Y-102476848D01*
X148077856Y-102520689D01*
X148099921Y-102586983D01*
X148100000Y-102591409D01*
X148100000Y-113776000D01*
X148080315Y-113843039D01*
X148027511Y-113888794D01*
X147976000Y-113900000D01*
X140424500Y-113900000D01*
X140357461Y-113880315D01*
X140311706Y-113827511D01*
X140300500Y-113776000D01*
X140300500Y-112998466D01*
X140320185Y-112931427D01*
X140372989Y-112885672D01*
X140381156Y-112882288D01*
X140417331Y-112868796D01*
X140532546Y-112782546D01*
X140618796Y-112667331D01*
X140669091Y-112532483D01*
X140675500Y-112472873D01*
X140675500Y-112299998D01*
X142394318Y-112299998D01*
X142394318Y-112300001D01*
X142414955Y-112456760D01*
X142414956Y-112456762D01*
X142471308Y-112592809D01*
X142475464Y-112602841D01*
X142571718Y-112728282D01*
X142697159Y-112824536D01*
X142843238Y-112885044D01*
X142921619Y-112895363D01*
X142999999Y-112905682D01*
X143000000Y-112905682D01*
X143000001Y-112905682D01*
X143052254Y-112898802D01*
X143156762Y-112885044D01*
X143302841Y-112824536D01*
X143428282Y-112728282D01*
X143524536Y-112602841D01*
X143582104Y-112463859D01*
X143625942Y-112409458D01*
X143692236Y-112387393D01*
X143759936Y-112404672D01*
X143795929Y-112437002D01*
X143867455Y-112532547D01*
X143982664Y-112618793D01*
X143982671Y-112618797D01*
X144027618Y-112635561D01*
X144117517Y-112669091D01*
X144177127Y-112675500D01*
X144672872Y-112675499D01*
X144732483Y-112669091D01*
X144867331Y-112618796D01*
X144982546Y-112532546D01*
X145068796Y-112417331D01*
X145119091Y-112282483D01*
X145125500Y-112222873D01*
X145125499Y-111577128D01*
X145125499Y-111577127D01*
X145374500Y-111577127D01*
X145374500Y-111577135D01*
X145374500Y-111577136D01*
X145374500Y-112222870D01*
X145374501Y-112222876D01*
X145380908Y-112282483D01*
X145431202Y-112417328D01*
X145431206Y-112417335D01*
X145517452Y-112532544D01*
X145517455Y-112532547D01*
X145632664Y-112618793D01*
X145632671Y-112618797D01*
X145677618Y-112635561D01*
X145767517Y-112669091D01*
X145827127Y-112675500D01*
X146322872Y-112675499D01*
X146382483Y-112669091D01*
X146517331Y-112618796D01*
X146632546Y-112532546D01*
X146718796Y-112417331D01*
X146769091Y-112282483D01*
X146775500Y-112222873D01*
X146775499Y-111577128D01*
X146769091Y-111517517D01*
X146763617Y-111502841D01*
X146718797Y-111382671D01*
X146718793Y-111382664D01*
X146632547Y-111267455D01*
X146525188Y-111187085D01*
X146483318Y-111131151D01*
X146475500Y-111087819D01*
X146475500Y-110406665D01*
X146495185Y-110339626D01*
X146524012Y-110308290D01*
X146628282Y-110228282D01*
X146724536Y-110102841D01*
X146785044Y-109956762D01*
X146805682Y-109800000D01*
X146805675Y-109799949D01*
X146785044Y-109643239D01*
X146785044Y-109643238D01*
X146724536Y-109497159D01*
X146628282Y-109371718D01*
X146502841Y-109275464D01*
X146483206Y-109267331D01*
X146356762Y-109214956D01*
X146356760Y-109214955D01*
X146200001Y-109194318D01*
X146199999Y-109194318D01*
X146043239Y-109214955D01*
X146043237Y-109214956D01*
X145897160Y-109275463D01*
X145771718Y-109371718D01*
X145675463Y-109497160D01*
X145614956Y-109643237D01*
X145614955Y-109643239D01*
X145594318Y-109799998D01*
X145594318Y-109800001D01*
X145614955Y-109956760D01*
X145614956Y-109956762D01*
X145622959Y-109976084D01*
X145665061Y-110077725D01*
X145674500Y-110125178D01*
X145674500Y-111087819D01*
X145654815Y-111154858D01*
X145624812Y-111187085D01*
X145517452Y-111267455D01*
X145431206Y-111382664D01*
X145431202Y-111382671D01*
X145380910Y-111517513D01*
X145380909Y-111517517D01*
X145374500Y-111577127D01*
X145125499Y-111577127D01*
X145119091Y-111517517D01*
X145113617Y-111502841D01*
X145068797Y-111382671D01*
X145068793Y-111382664D01*
X144982547Y-111267455D01*
X144982544Y-111267452D01*
X144867335Y-111181206D01*
X144867328Y-111181202D01*
X144732486Y-111130910D01*
X144732485Y-111130909D01*
X144732483Y-111130909D01*
X144672873Y-111124500D01*
X144672863Y-111124500D01*
X144177129Y-111124500D01*
X144177123Y-111124501D01*
X144117516Y-111130908D01*
X143982671Y-111181202D01*
X143982664Y-111181206D01*
X143867455Y-111267452D01*
X143867452Y-111267455D01*
X143781206Y-111382664D01*
X143781203Y-111382669D01*
X143767715Y-111418834D01*
X143725843Y-111474767D01*
X143660379Y-111499184D01*
X143651533Y-111499500D01*
X143347273Y-111499500D01*
X143245413Y-111526793D01*
X143245410Y-111526794D01*
X143173442Y-111568345D01*
X143158232Y-111577127D01*
X143155598Y-111578647D01*
X143154083Y-111579522D01*
X143075006Y-111658598D01*
X143013683Y-111692083D01*
X143003512Y-111693855D01*
X142843238Y-111714956D01*
X142843237Y-111714956D01*
X142697160Y-111775463D01*
X142571718Y-111871718D01*
X142475463Y-111997160D01*
X142414956Y-112143237D01*
X142414955Y-112143239D01*
X142394318Y-112299998D01*
X140675500Y-112299998D01*
X140675499Y-111977128D01*
X140669091Y-111917517D01*
X140627379Y-111805682D01*
X140618797Y-111782671D01*
X140618793Y-111782664D01*
X140532547Y-111667455D01*
X140532544Y-111667452D01*
X140417335Y-111581206D01*
X140417328Y-111581202D01*
X140282486Y-111530910D01*
X140282485Y-111530909D01*
X140282483Y-111530909D01*
X140222873Y-111524500D01*
X140222863Y-111524500D01*
X139577129Y-111524500D01*
X139577123Y-111524501D01*
X139517516Y-111530908D01*
X139382671Y-111581202D01*
X139382664Y-111581206D01*
X139267455Y-111667452D01*
X139267452Y-111667455D01*
X139181206Y-111782664D01*
X139181202Y-111782671D01*
X139130910Y-111917513D01*
X139130909Y-111917517D01*
X139124500Y-111977127D01*
X139124500Y-111977134D01*
X139124500Y-111977135D01*
X139124500Y-112472870D01*
X139124501Y-112472876D01*
X139130908Y-112532483D01*
X139181202Y-112667328D01*
X139181206Y-112667335D01*
X139267452Y-112782544D01*
X139267455Y-112782547D01*
X139382664Y-112868793D01*
X139382669Y-112868796D01*
X139418832Y-112882284D01*
X139474766Y-112924154D01*
X139499184Y-112989618D01*
X139499500Y-112998466D01*
X139499500Y-113776000D01*
X139479815Y-113843039D01*
X139427011Y-113888794D01*
X139375500Y-113900000D01*
X132574000Y-113900000D01*
X132506961Y-113880315D01*
X132461206Y-113827511D01*
X132450000Y-113776000D01*
X132450000Y-113700000D01*
X129950000Y-113700000D01*
X129950000Y-113776000D01*
X129930315Y-113843039D01*
X129877511Y-113888794D01*
X129826000Y-113900000D01*
X123006500Y-113900000D01*
X122939461Y-113880315D01*
X122893706Y-113827511D01*
X122882500Y-113776000D01*
X122882500Y-112902155D01*
X129950000Y-112902155D01*
X129950000Y-113200000D01*
X130950000Y-113200000D01*
X131450000Y-113200000D01*
X132450000Y-113200000D01*
X132450000Y-112902172D01*
X132449999Y-112902155D01*
X132443598Y-112842627D01*
X132443596Y-112842620D01*
X132393354Y-112707913D01*
X132393350Y-112707906D01*
X132307190Y-112592812D01*
X132307187Y-112592809D01*
X132192093Y-112506649D01*
X132192086Y-112506645D01*
X132057379Y-112456403D01*
X132057372Y-112456401D01*
X131997844Y-112450000D01*
X131450000Y-112450000D01*
X131450000Y-113200000D01*
X130950000Y-113200000D01*
X130950000Y-112450000D01*
X130402155Y-112450000D01*
X130342627Y-112456401D01*
X130342620Y-112456403D01*
X130207913Y-112506645D01*
X130207906Y-112506649D01*
X130092812Y-112592809D01*
X130092809Y-112592812D01*
X130006649Y-112707906D01*
X130006645Y-112707913D01*
X129956403Y-112842620D01*
X129956401Y-112842627D01*
X129950000Y-112902155D01*
X122882500Y-112902155D01*
X122882500Y-109600000D01*
X124944417Y-109600000D01*
X124964699Y-109805932D01*
X124976016Y-109843238D01*
X125024768Y-110003954D01*
X125122315Y-110186450D01*
X125133476Y-110200050D01*
X125253589Y-110346410D01*
X125327011Y-110406665D01*
X125413550Y-110477685D01*
X125596046Y-110575232D01*
X125794066Y-110635300D01*
X125794065Y-110635300D01*
X125812529Y-110637118D01*
X126000000Y-110655583D01*
X126205934Y-110635300D01*
X126319482Y-110600855D01*
X126389345Y-110600233D01*
X126448458Y-110637481D01*
X126478049Y-110700775D01*
X126468724Y-110770019D01*
X126453850Y-110795003D01*
X126375464Y-110897157D01*
X126314956Y-111043237D01*
X126314955Y-111043239D01*
X126294318Y-111199998D01*
X126294318Y-111200001D01*
X126314955Y-111356760D01*
X126314956Y-111356762D01*
X126375464Y-111502841D01*
X126471718Y-111628282D01*
X126597159Y-111724536D01*
X126743238Y-111785044D01*
X126821619Y-111795363D01*
X126899999Y-111805682D01*
X126900000Y-111805682D01*
X126900001Y-111805682D01*
X126952254Y-111798802D01*
X127056762Y-111785044D01*
X127202841Y-111724536D01*
X127328282Y-111628282D01*
X127424536Y-111502841D01*
X127485044Y-111356762D01*
X127503207Y-111218797D01*
X127505682Y-111200001D01*
X127505682Y-111199998D01*
X127485044Y-111043239D01*
X127485044Y-111043238D01*
X127424536Y-110897159D01*
X127424535Y-110897158D01*
X127424535Y-110897157D01*
X127326124Y-110768905D01*
X127300930Y-110703736D01*
X127300500Y-110693419D01*
X127300500Y-110447275D01*
X127300500Y-110447273D01*
X127273207Y-110345413D01*
X127273207Y-110345412D01*
X127220480Y-110254087D01*
X127026649Y-110060256D01*
X126993164Y-109998933D01*
X126995669Y-109936580D01*
X127035300Y-109805934D01*
X127055104Y-109604860D01*
X127081264Y-109540077D01*
X127138298Y-109499718D01*
X127208098Y-109496601D01*
X127268503Y-109531715D01*
X127285889Y-109556484D01*
X127286003Y-109556411D01*
X127287955Y-109559427D01*
X127289313Y-109561361D01*
X127289678Y-109562088D01*
X127289680Y-109562092D01*
X127353807Y-109640813D01*
X127353813Y-109640819D01*
X127759179Y-110046184D01*
X127759188Y-110046192D01*
X127837905Y-110110318D01*
X127991965Y-110187690D01*
X128159728Y-110227450D01*
X128332124Y-110227450D01*
X128499884Y-110187691D01*
X128653946Y-110110317D01*
X128653949Y-110110315D01*
X128732657Y-110046200D01*
X128732671Y-110046187D01*
X128778859Y-109999998D01*
X132094318Y-109999998D01*
X132094318Y-110000001D01*
X132114955Y-110156760D01*
X132114956Y-110156762D01*
X132132886Y-110200050D01*
X132175464Y-110302841D01*
X132271718Y-110428282D01*
X132397159Y-110524536D01*
X132543238Y-110585044D01*
X132621619Y-110595363D01*
X132699999Y-110605682D01*
X132700000Y-110605682D01*
X132700001Y-110605682D01*
X132752254Y-110598802D01*
X132856762Y-110585044D01*
X133002841Y-110524536D01*
X133128282Y-110428282D01*
X133224536Y-110302841D01*
X133235439Y-110276519D01*
X133279279Y-110222115D01*
X133345573Y-110200050D01*
X133413273Y-110217329D01*
X133460884Y-110268466D01*
X133464561Y-110276519D01*
X133475462Y-110302838D01*
X133475463Y-110302839D01*
X133475464Y-110302841D01*
X133571718Y-110428282D01*
X133697159Y-110524536D01*
X133843238Y-110585044D01*
X133921619Y-110595363D01*
X133999999Y-110605682D01*
X134000000Y-110605682D01*
X134000001Y-110605682D01*
X134052254Y-110598802D01*
X134156762Y-110585044D01*
X134302841Y-110524536D01*
X134428282Y-110428282D01*
X134524536Y-110302841D01*
X134584115Y-110159004D01*
X134627953Y-110104603D01*
X134694247Y-110082538D01*
X134761947Y-110099817D01*
X134797048Y-110130970D01*
X134871718Y-110228282D01*
X134997159Y-110324536D01*
X135143238Y-110385044D01*
X135221619Y-110395363D01*
X135299999Y-110405682D01*
X135300000Y-110405682D01*
X135300001Y-110405682D01*
X135352254Y-110398802D01*
X135456762Y-110385044D01*
X135602841Y-110324536D01*
X135728282Y-110228282D01*
X135824536Y-110102841D01*
X135885044Y-109956762D01*
X135905682Y-109800000D01*
X135905675Y-109799949D01*
X135885044Y-109643239D01*
X135885044Y-109643238D01*
X135824536Y-109497159D01*
X135728282Y-109371718D01*
X135602841Y-109275464D01*
X135583206Y-109267331D01*
X135456762Y-109214956D01*
X135456760Y-109214955D01*
X135300001Y-109194318D01*
X135299999Y-109194318D01*
X135143239Y-109214955D01*
X135143237Y-109214956D01*
X134997160Y-109275463D01*
X134871718Y-109371718D01*
X134775463Y-109497160D01*
X134733501Y-109598466D01*
X134715961Y-109640813D01*
X134715886Y-109640993D01*
X134672045Y-109695396D01*
X134605751Y-109717461D01*
X134538051Y-109700182D01*
X134502950Y-109669028D01*
X134428282Y-109571718D01*
X134302841Y-109475464D01*
X134298606Y-109473710D01*
X134156762Y-109414956D01*
X134156760Y-109414955D01*
X134000001Y-109394318D01*
X133999999Y-109394318D01*
X133843239Y-109414955D01*
X133843237Y-109414956D01*
X133697160Y-109475463D01*
X133571718Y-109571718D01*
X133475463Y-109697160D01*
X133464561Y-109723481D01*
X133420720Y-109777884D01*
X133354425Y-109799949D01*
X133286726Y-109782670D01*
X133239116Y-109731532D01*
X133235439Y-109723481D01*
X133224536Y-109697160D01*
X133224536Y-109697159D01*
X133128282Y-109571718D01*
X133002841Y-109475464D01*
X132998606Y-109473710D01*
X132856762Y-109414956D01*
X132856760Y-109414955D01*
X132700001Y-109394318D01*
X132699999Y-109394318D01*
X132543239Y-109414955D01*
X132543237Y-109414956D01*
X132397160Y-109475463D01*
X132271718Y-109571718D01*
X132175463Y-109697160D01*
X132114956Y-109843237D01*
X132114955Y-109843239D01*
X132094318Y-109999998D01*
X128778859Y-109999998D01*
X128802772Y-109976085D01*
X128802772Y-109976084D01*
X128024248Y-109197560D01*
X127990763Y-109136237D01*
X127995747Y-109066545D01*
X128024248Y-109022198D01*
X128202439Y-108844008D01*
X128263762Y-108810523D01*
X128333454Y-108815507D01*
X128377801Y-108844008D01*
X129156325Y-109622532D01*
X129226424Y-109552432D01*
X129226432Y-109552423D01*
X129290555Y-109473710D01*
X129290558Y-109473705D01*
X129367931Y-109319644D01*
X129407690Y-109151884D01*
X129407690Y-108979487D01*
X129402849Y-108959062D01*
X129406543Y-108889290D01*
X129447372Y-108832591D01*
X129506621Y-108807621D01*
X129612201Y-108793110D01*
X129747850Y-108734189D01*
X129816327Y-108680395D01*
X130300155Y-108196567D01*
X130353949Y-108128090D01*
X130412870Y-107992441D01*
X130433008Y-107845926D01*
X130412870Y-107699410D01*
X130353949Y-107563762D01*
X130308975Y-107506512D01*
X130300152Y-107495280D01*
X129904719Y-107099847D01*
X129836240Y-107046052D01*
X129836236Y-107046050D01*
X129700590Y-106987130D01*
X129700587Y-106987129D01*
X129554074Y-106966992D01*
X129407556Y-106987130D01*
X129407447Y-106987161D01*
X129407343Y-106987159D01*
X129399156Y-106988285D01*
X129398987Y-106987055D01*
X129337583Y-106986293D01*
X129279279Y-106947791D01*
X129251046Y-106883879D01*
X129261849Y-106814850D01*
X129286310Y-106780081D01*
X130029573Y-106036819D01*
X130090896Y-106003334D01*
X130117254Y-106000500D01*
X132441897Y-106000500D01*
X132489350Y-106009939D01*
X132623841Y-106065647D01*
X132702222Y-106075966D01*
X132780602Y-106086285D01*
X132780603Y-106086285D01*
X132780604Y-106086285D01*
X132832857Y-106079405D01*
X132937365Y-106065647D01*
X133083444Y-106005139D01*
X133090144Y-105999998D01*
X135894318Y-105999998D01*
X135894318Y-106000001D01*
X135914955Y-106156760D01*
X135914956Y-106156762D01*
X135966586Y-106281409D01*
X135975464Y-106302841D01*
X136071718Y-106428282D01*
X136197159Y-106524536D01*
X136343238Y-106585044D01*
X136500000Y-106605682D01*
X136500001Y-106605681D01*
X136503513Y-106606144D01*
X136567410Y-106634410D01*
X136575009Y-106641402D01*
X136653273Y-106719666D01*
X136686758Y-106780989D01*
X136681774Y-106850681D01*
X136639902Y-106906614D01*
X136624047Y-106916704D01*
X136613549Y-106922315D01*
X136453589Y-107053589D01*
X136322317Y-107213547D01*
X136224769Y-107396043D01*
X136164699Y-107594067D01*
X136144417Y-107800000D01*
X136164699Y-108005932D01*
X136171983Y-108029943D01*
X136224768Y-108203954D01*
X136322315Y-108386450D01*
X136322317Y-108386452D01*
X136453589Y-108546410D01*
X136549070Y-108624768D01*
X136613550Y-108677685D01*
X136796046Y-108775232D01*
X136967849Y-108827347D01*
X137026288Y-108865645D01*
X137054744Y-108929457D01*
X137044184Y-108998524D01*
X137007341Y-109044383D01*
X136971720Y-109071715D01*
X136875463Y-109197160D01*
X136814956Y-109343237D01*
X136814955Y-109343239D01*
X136794318Y-109499998D01*
X136794318Y-109500001D01*
X136814955Y-109656760D01*
X136814956Y-109656762D01*
X136874287Y-109800001D01*
X136875464Y-109802841D01*
X136971718Y-109928282D01*
X137097159Y-110024536D01*
X137243238Y-110085044D01*
X137321619Y-110095363D01*
X137399999Y-110105682D01*
X137400000Y-110105682D01*
X137400001Y-110105682D01*
X137452254Y-110098802D01*
X137556762Y-110085044D01*
X137702841Y-110024536D01*
X137828282Y-109928282D01*
X137828283Y-109928279D01*
X137831093Y-109926124D01*
X137896263Y-109900930D01*
X137906580Y-109900500D01*
X139107283Y-109900500D01*
X139174322Y-109920185D01*
X139220077Y-109972989D01*
X139230021Y-110042147D01*
X139206550Y-110098811D01*
X139181204Y-110132668D01*
X139181202Y-110132671D01*
X139130910Y-110267513D01*
X139130909Y-110267517D01*
X139124500Y-110327127D01*
X139124500Y-110327134D01*
X139124500Y-110327135D01*
X139124500Y-110822870D01*
X139124501Y-110822876D01*
X139130908Y-110882483D01*
X139181202Y-111017328D01*
X139181206Y-111017335D01*
X139267452Y-111132544D01*
X139267455Y-111132547D01*
X139382664Y-111218793D01*
X139382671Y-111218797D01*
X139427618Y-111235561D01*
X139517517Y-111269091D01*
X139577127Y-111275500D01*
X140222872Y-111275499D01*
X140282483Y-111269091D01*
X140417331Y-111218796D01*
X140532546Y-111132546D01*
X140618796Y-111017331D01*
X140669091Y-110882483D01*
X140675500Y-110822873D01*
X140675499Y-110327128D01*
X140669091Y-110267517D01*
X140654457Y-110228282D01*
X140618797Y-110132671D01*
X140618793Y-110132664D01*
X140532547Y-110017455D01*
X140532544Y-110017452D01*
X140417334Y-109931205D01*
X140381164Y-109917714D01*
X140325231Y-109875841D01*
X140300816Y-109810376D01*
X140300500Y-109801533D01*
X140300500Y-109598466D01*
X140320185Y-109531427D01*
X140372989Y-109485672D01*
X140381156Y-109482288D01*
X140417331Y-109468796D01*
X140532546Y-109382546D01*
X140618796Y-109267331D01*
X140669091Y-109132483D01*
X140675500Y-109072873D01*
X140675499Y-108577128D01*
X140669091Y-108517517D01*
X140618796Y-108382669D01*
X140618795Y-108382668D01*
X140618793Y-108382664D01*
X140532547Y-108267455D01*
X140465003Y-108216891D01*
X140423133Y-108160957D01*
X140418149Y-108091265D01*
X140451635Y-108029943D01*
X140475166Y-108011508D01*
X140609874Y-107930074D01*
X140609878Y-107930071D01*
X140730072Y-107809877D01*
X140818019Y-107664395D01*
X140868590Y-107502106D01*
X140875000Y-107431572D01*
X140875000Y-107425000D01*
X138925001Y-107425000D01*
X138925001Y-107431582D01*
X138931408Y-107502102D01*
X138931409Y-107502107D01*
X138981981Y-107664396D01*
X139069927Y-107809877D01*
X139190122Y-107930072D01*
X139324834Y-108011508D01*
X139372021Y-108063036D01*
X139383860Y-108131895D01*
X139356591Y-108196224D01*
X139334996Y-108216891D01*
X139267452Y-108267455D01*
X139181206Y-108382664D01*
X139181202Y-108382671D01*
X139130908Y-108517517D01*
X139127408Y-108550076D01*
X139124501Y-108577123D01*
X139124500Y-108577135D01*
X139124500Y-108975500D01*
X139104815Y-109042539D01*
X139052011Y-109088294D01*
X139000500Y-109099500D01*
X137906580Y-109099500D01*
X137839541Y-109079815D01*
X137831093Y-109073876D01*
X137828283Y-109071720D01*
X137828282Y-109071718D01*
X137702841Y-108975464D01*
X137702837Y-108975462D01*
X137678291Y-108965294D01*
X137623888Y-108921452D01*
X137601824Y-108855158D01*
X137619104Y-108787459D01*
X137667290Y-108741377D01*
X137786450Y-108677685D01*
X137946410Y-108546410D01*
X138077685Y-108386450D01*
X138175232Y-108203954D01*
X138235300Y-108005934D01*
X138255583Y-107800000D01*
X138235300Y-107594066D01*
X138175232Y-107396046D01*
X138077685Y-107213550D01*
X137984372Y-107099847D01*
X137946410Y-107053589D01*
X137817493Y-106947791D01*
X137786450Y-106922315D01*
X137779176Y-106918427D01*
X138925000Y-106918427D01*
X138925000Y-106925000D01*
X139650000Y-106925000D01*
X140150000Y-106925000D01*
X140874999Y-106925000D01*
X140874999Y-106918417D01*
X140868591Y-106847897D01*
X140868590Y-106847892D01*
X140818018Y-106685603D01*
X140730072Y-106540122D01*
X140609877Y-106419927D01*
X140464395Y-106331980D01*
X140464396Y-106331980D01*
X140302105Y-106281409D01*
X140302106Y-106281409D01*
X140231572Y-106275000D01*
X140150000Y-106275000D01*
X140150000Y-106925000D01*
X139650000Y-106925000D01*
X139650000Y-106275000D01*
X139649999Y-106274999D01*
X139568417Y-106275000D01*
X139497897Y-106281408D01*
X139497892Y-106281409D01*
X139335603Y-106331981D01*
X139190122Y-106419927D01*
X139069927Y-106540122D01*
X138981980Y-106685604D01*
X138931409Y-106847893D01*
X138925000Y-106918427D01*
X137779176Y-106918427D01*
X137666046Y-106857957D01*
X137616202Y-106808994D01*
X137600500Y-106748599D01*
X137600500Y-106647275D01*
X137600500Y-106647273D01*
X137573207Y-106545413D01*
X137520480Y-106454087D01*
X137480657Y-106414264D01*
X137447172Y-106352941D01*
X137452156Y-106283249D01*
X137494028Y-106227316D01*
X137559492Y-106202899D01*
X137584517Y-106203643D01*
X137600000Y-106205682D01*
X137756762Y-106185044D01*
X137902841Y-106124536D01*
X138028282Y-106028282D01*
X138124536Y-105902841D01*
X138185044Y-105756762D01*
X138205682Y-105600000D01*
X138185044Y-105443238D01*
X138124536Y-105297159D01*
X138028282Y-105171718D01*
X137902841Y-105075464D01*
X137846971Y-105052322D01*
X137756762Y-105014956D01*
X137756760Y-105014955D01*
X137600001Y-104994318D01*
X137599999Y-104994318D01*
X137443239Y-105014955D01*
X137443237Y-105014956D01*
X137297160Y-105075463D01*
X137171718Y-105171718D01*
X137075463Y-105297160D01*
X137015510Y-105441899D01*
X136971669Y-105496302D01*
X136905374Y-105518367D01*
X136837675Y-105501087D01*
X136825463Y-105492822D01*
X136802842Y-105475464D01*
X136656762Y-105414956D01*
X136656760Y-105414955D01*
X136500001Y-105394318D01*
X136499999Y-105394318D01*
X136343239Y-105414955D01*
X136343237Y-105414956D01*
X136197160Y-105475463D01*
X136071718Y-105571718D01*
X135975463Y-105697160D01*
X135914956Y-105843237D01*
X135914955Y-105843239D01*
X135894318Y-105999998D01*
X133090144Y-105999998D01*
X133208885Y-105908885D01*
X133305139Y-105783444D01*
X133365647Y-105637365D01*
X133386285Y-105480603D01*
X133385608Y-105475464D01*
X133365647Y-105323842D01*
X133365647Y-105323841D01*
X133305139Y-105177762D01*
X133208885Y-105052321D01*
X133083444Y-104956067D01*
X132954672Y-104902728D01*
X132937365Y-104895559D01*
X132937363Y-104895558D01*
X132780604Y-104874921D01*
X132780602Y-104874921D01*
X132623842Y-104895558D01*
X132623840Y-104895559D01*
X132477763Y-104956066D01*
X132352319Y-105052322D01*
X132276613Y-105150986D01*
X132220185Y-105192189D01*
X132178237Y-105199500D01*
X129960339Y-105199500D01*
X129960323Y-105199499D01*
X129952727Y-105199499D01*
X129847273Y-105199499D01*
X129779366Y-105217695D01*
X129745412Y-105226793D01*
X129654084Y-105279522D01*
X129609767Y-105323840D01*
X129579520Y-105354087D01*
X129579518Y-105354089D01*
X128962758Y-105970849D01*
X128336646Y-106596960D01*
X128336645Y-106596961D01*
X127904087Y-107029520D01*
X127804087Y-107129520D01*
X126383529Y-108550076D01*
X126322206Y-108583561D01*
X126259854Y-108581056D01*
X126205932Y-108564699D01*
X126205933Y-108564699D01*
X126020235Y-108546410D01*
X126000000Y-108544417D01*
X125999999Y-108544417D01*
X125794067Y-108564699D01*
X125596043Y-108624769D01*
X125497052Y-108677682D01*
X125413550Y-108722315D01*
X125413548Y-108722316D01*
X125413547Y-108722317D01*
X125253589Y-108853589D01*
X125134646Y-108998524D01*
X125122315Y-109013550D01*
X125093988Y-109066545D01*
X125024769Y-109196043D01*
X124964699Y-109394067D01*
X124944417Y-109600000D01*
X122882500Y-109600000D01*
X122882500Y-107443124D01*
X125310427Y-107443124D01*
X125372612Y-107486666D01*
X125570840Y-107579101D01*
X125570849Y-107579105D01*
X125782105Y-107635710D01*
X125782115Y-107635712D01*
X125999999Y-107654775D01*
X126000001Y-107654775D01*
X126217884Y-107635712D01*
X126217894Y-107635710D01*
X126429150Y-107579105D01*
X126429164Y-107579100D01*
X126627383Y-107486669D01*
X126627385Y-107486668D01*
X126689571Y-107443124D01*
X126000001Y-106753553D01*
X126000000Y-106753553D01*
X125310427Y-107443124D01*
X122882500Y-107443124D01*
X122882500Y-106399999D01*
X124745225Y-106399999D01*
X124745225Y-106400000D01*
X124764287Y-106617884D01*
X124764289Y-106617894D01*
X124820894Y-106829150D01*
X124820898Y-106829159D01*
X124913333Y-107027387D01*
X124956874Y-107089571D01*
X125646446Y-106400000D01*
X125646445Y-106399999D01*
X126353553Y-106399999D01*
X126353553Y-106400000D01*
X127043124Y-107089570D01*
X127086668Y-107027385D01*
X127086669Y-107027383D01*
X127179100Y-106829164D01*
X127179105Y-106829150D01*
X127235710Y-106617894D01*
X127235712Y-106617884D01*
X127254775Y-106400000D01*
X127254775Y-106399999D01*
X127235712Y-106182115D01*
X127235710Y-106182105D01*
X127179105Y-105970849D01*
X127179101Y-105970840D01*
X127086667Y-105772614D01*
X127086666Y-105772612D01*
X127043124Y-105710428D01*
X127043124Y-105710427D01*
X126353553Y-106399999D01*
X125646445Y-106399999D01*
X124956874Y-105710428D01*
X124913333Y-105772613D01*
X124820898Y-105970840D01*
X124820894Y-105970849D01*
X124764289Y-106182105D01*
X124764287Y-106182115D01*
X124745225Y-106399999D01*
X122882500Y-106399999D01*
X122882500Y-103901677D01*
X125475000Y-103901677D01*
X125475000Y-103950000D01*
X126175000Y-103950000D01*
X126175000Y-102850000D01*
X125475001Y-102850000D01*
X125475001Y-102898322D01*
X125485144Y-102997607D01*
X125538452Y-103158481D01*
X125538457Y-103158492D01*
X125627424Y-103302728D01*
X125627427Y-103302732D01*
X125637014Y-103312319D01*
X125670499Y-103373642D01*
X125665515Y-103443334D01*
X125637014Y-103487681D01*
X125627427Y-103497267D01*
X125627424Y-103497271D01*
X125538457Y-103641507D01*
X125538452Y-103641518D01*
X125485144Y-103802393D01*
X125475000Y-103901677D01*
X122882500Y-103901677D01*
X122882500Y-102301677D01*
X125475000Y-102301677D01*
X125475000Y-102350000D01*
X126175000Y-102350000D01*
X126175000Y-101624999D01*
X126151693Y-101625000D01*
X126151674Y-101625001D01*
X126052392Y-101635144D01*
X125891518Y-101688452D01*
X125891507Y-101688457D01*
X125747271Y-101777424D01*
X125747267Y-101777427D01*
X125627427Y-101897267D01*
X125627424Y-101897271D01*
X125538457Y-102041507D01*
X125538452Y-102041518D01*
X125485144Y-102202393D01*
X125475000Y-102301677D01*
X122882500Y-102301677D01*
X122882500Y-100200000D01*
X124944417Y-100200000D01*
X124964699Y-100405932D01*
X124982065Y-100463181D01*
X125024768Y-100603954D01*
X125122315Y-100786450D01*
X125138305Y-100805934D01*
X125253589Y-100946410D01*
X125323708Y-101003954D01*
X125413550Y-101077685D01*
X125596046Y-101175232D01*
X125794066Y-101235300D01*
X125794065Y-101235300D01*
X125812529Y-101237118D01*
X126000000Y-101255583D01*
X126205934Y-101235300D01*
X126336581Y-101195668D01*
X126406447Y-101195046D01*
X126460254Y-101226646D01*
X126600189Y-101366581D01*
X126600199Y-101366592D01*
X126604519Y-101370912D01*
X126604520Y-101370913D01*
X126679087Y-101445480D01*
X126679089Y-101445481D01*
X126679122Y-101445514D01*
X126712607Y-101506837D01*
X126707623Y-101576529D01*
X126679123Y-101620876D01*
X126675000Y-101624999D01*
X126675000Y-104326000D01*
X126655315Y-104393039D01*
X126602511Y-104438794D01*
X126551000Y-104450000D01*
X125475001Y-104450000D01*
X125475001Y-104498322D01*
X125485144Y-104597607D01*
X125538452Y-104758481D01*
X125538457Y-104758492D01*
X125627424Y-104902728D01*
X125627427Y-104902732D01*
X125714529Y-104989834D01*
X125748014Y-105051157D01*
X125743030Y-105120849D01*
X125701158Y-105176782D01*
X125658942Y-105197290D01*
X125570847Y-105220895D01*
X125570840Y-105220898D01*
X125372613Y-105313333D01*
X125310428Y-105356874D01*
X126000000Y-106046446D01*
X126000001Y-106046446D01*
X126689571Y-105356874D01*
X126684532Y-105299272D01*
X126689483Y-105298838D01*
X126686075Y-105265954D01*
X126717589Y-105203594D01*
X126777814Y-105168172D01*
X126795426Y-105165078D01*
X126797609Y-105164855D01*
X126958481Y-105111547D01*
X126958492Y-105111542D01*
X127102728Y-105022575D01*
X127102732Y-105022572D01*
X127222573Y-104902731D01*
X127232081Y-104887317D01*
X127284029Y-104840592D01*
X127352991Y-104829369D01*
X127412544Y-104853608D01*
X127490025Y-104912364D01*
X127624410Y-104965359D01*
X127708856Y-104975500D01*
X127708862Y-104975500D01*
X128241138Y-104975500D01*
X128241144Y-104975500D01*
X128325590Y-104965359D01*
X128459975Y-104912364D01*
X128575078Y-104825078D01*
X128662364Y-104709975D01*
X128715359Y-104575590D01*
X128725500Y-104491144D01*
X128725500Y-104067254D01*
X128745185Y-104000215D01*
X128761815Y-103979577D01*
X129468139Y-103273252D01*
X129529460Y-103239769D01*
X129572004Y-103237996D01*
X129600000Y-103241682D01*
X129756762Y-103221044D01*
X129902841Y-103160536D01*
X130028282Y-103064282D01*
X130124536Y-102938841D01*
X130185044Y-102792762D01*
X130205682Y-102636000D01*
X130204407Y-102626319D01*
X130188525Y-102505682D01*
X130185044Y-102479238D01*
X130124536Y-102333159D01*
X130028282Y-102207718D01*
X129902841Y-102111464D01*
X129770776Y-102056761D01*
X129756762Y-102050956D01*
X129756760Y-102050955D01*
X129600001Y-102030318D01*
X129599999Y-102030318D01*
X129443239Y-102050955D01*
X129443237Y-102050956D01*
X129297160Y-102111463D01*
X129171718Y-102207718D01*
X129075463Y-102333160D01*
X129014955Y-102479240D01*
X129009697Y-102519165D01*
X129006535Y-102535062D01*
X128991517Y-102591120D01*
X128988847Y-102590404D01*
X128966030Y-102641970D01*
X128959049Y-102649557D01*
X128937183Y-102671424D01*
X128875861Y-102704911D01*
X128806169Y-102699928D01*
X128750235Y-102658058D01*
X128725816Y-102592594D01*
X128725500Y-102583745D01*
X128725500Y-102308862D01*
X128725500Y-102308856D01*
X128715359Y-102224410D01*
X128662364Y-102090025D01*
X128662363Y-102090024D01*
X128662363Y-102090023D01*
X128575078Y-101974921D01*
X128459973Y-101887634D01*
X128459971Y-101887633D01*
X128454004Y-101885280D01*
X128398862Y-101842371D01*
X128375672Y-101776462D01*
X128375500Y-101769928D01*
X128375500Y-101617254D01*
X128395185Y-101550215D01*
X128411819Y-101529573D01*
X128604573Y-101336819D01*
X128665896Y-101303334D01*
X128692254Y-101300500D01*
X133104391Y-101300500D01*
X133171430Y-101320185D01*
X133217185Y-101372989D01*
X133227129Y-101442147D01*
X133203195Y-101499425D01*
X133136886Y-101586865D01*
X133084520Y-101719655D01*
X133084520Y-101719656D01*
X133074500Y-101803097D01*
X133074500Y-102220244D01*
X133054815Y-102287283D01*
X133038181Y-102307925D01*
X132809370Y-102536735D01*
X132748047Y-102570220D01*
X132678355Y-102565236D01*
X132674237Y-102563615D01*
X132556765Y-102514957D01*
X132556760Y-102514955D01*
X132400001Y-102494318D01*
X132399999Y-102494318D01*
X132243239Y-102514955D01*
X132243237Y-102514956D01*
X132097160Y-102575463D01*
X131971718Y-102671718D01*
X131875463Y-102797160D01*
X131814956Y-102943237D01*
X131814955Y-102943239D01*
X131794318Y-103099998D01*
X131794318Y-103100001D01*
X131814955Y-103256760D01*
X131814956Y-103256762D01*
X131853576Y-103350000D01*
X131875464Y-103402841D01*
X131971718Y-103528282D01*
X132097159Y-103624536D01*
X132243238Y-103685044D01*
X132281073Y-103690025D01*
X132399999Y-103705682D01*
X132400000Y-103705682D01*
X132400001Y-103705682D01*
X132452254Y-103698802D01*
X132556762Y-103685044D01*
X132674237Y-103636383D01*
X132743707Y-103628915D01*
X132806186Y-103660190D01*
X132809371Y-103663264D01*
X132987689Y-103841582D01*
X132992019Y-103845912D01*
X132992020Y-103845913D01*
X133049263Y-103903156D01*
X133082747Y-103964477D01*
X133084574Y-103975327D01*
X133084642Y-103975596D01*
X133137634Y-104109972D01*
X133137634Y-104109973D01*
X133224921Y-104225078D01*
X133340023Y-104312363D01*
X133340024Y-104312363D01*
X133340025Y-104312364D01*
X133474410Y-104365359D01*
X133558856Y-104375500D01*
X133558862Y-104375500D01*
X134091138Y-104375500D01*
X134091144Y-104375500D01*
X134175590Y-104365359D01*
X134309975Y-104312364D01*
X134387457Y-104253607D01*
X134452763Y-104228785D01*
X134521127Y-104243212D01*
X134567917Y-104287314D01*
X134577426Y-104302731D01*
X134697267Y-104422572D01*
X134697271Y-104422575D01*
X134841507Y-104511542D01*
X134841518Y-104511547D01*
X135002393Y-104564855D01*
X135101683Y-104574999D01*
X135625000Y-104574999D01*
X135648308Y-104574999D01*
X135648322Y-104574998D01*
X135747607Y-104564855D01*
X135908481Y-104511547D01*
X135908492Y-104511542D01*
X136052728Y-104422575D01*
X136052732Y-104422572D01*
X136172572Y-104302732D01*
X136172575Y-104302728D01*
X136261542Y-104158492D01*
X136261547Y-104158481D01*
X136314855Y-103997606D01*
X136324999Y-103898322D01*
X136325000Y-103898309D01*
X136325000Y-103850000D01*
X135625000Y-103850000D01*
X135625000Y-104574999D01*
X135101683Y-104574999D01*
X135125000Y-104574998D01*
X135125000Y-103474000D01*
X135144685Y-103406961D01*
X135197489Y-103361206D01*
X135249000Y-103350000D01*
X136324999Y-103350000D01*
X136324999Y-103301692D01*
X136324998Y-103301677D01*
X136314855Y-103202392D01*
X136261547Y-103041518D01*
X136261542Y-103041507D01*
X136172575Y-102897271D01*
X136172572Y-102897267D01*
X136064234Y-102788929D01*
X136030749Y-102727606D01*
X136035733Y-102657914D01*
X136053111Y-102626323D01*
X136063115Y-102613132D01*
X136115479Y-102480346D01*
X136125500Y-102396902D01*
X136125500Y-101803098D01*
X136115479Y-101719654D01*
X136063115Y-101586868D01*
X136054290Y-101575230D01*
X135976867Y-101473132D01*
X135863134Y-101386886D01*
X135863132Y-101386885D01*
X135730346Y-101334521D01*
X135730345Y-101334520D01*
X135730343Y-101334520D01*
X135646902Y-101324500D01*
X135342255Y-101324500D01*
X135275216Y-101304815D01*
X135254574Y-101288181D01*
X135066391Y-101099998D01*
X136894318Y-101099998D01*
X136894318Y-101100001D01*
X136914955Y-101256760D01*
X136914956Y-101256762D01*
X136956830Y-101357856D01*
X136975464Y-101402841D01*
X137071718Y-101528282D01*
X137197159Y-101624536D01*
X137197160Y-101624536D01*
X137197161Y-101624537D01*
X137220316Y-101634128D01*
X137330607Y-101679812D01*
X137385010Y-101723651D01*
X137407075Y-101789945D01*
X137406093Y-101810557D01*
X137394318Y-101899998D01*
X137394318Y-101900001D01*
X137414955Y-102056760D01*
X137414956Y-102056761D01*
X137414956Y-102056762D01*
X137475464Y-102202841D01*
X137571718Y-102328282D01*
X137697159Y-102424536D01*
X137843238Y-102485044D01*
X137913681Y-102494318D01*
X137999999Y-102505682D01*
X138000000Y-102505682D01*
X138000001Y-102505682D01*
X138052254Y-102498802D01*
X138156762Y-102485044D01*
X138302841Y-102424536D01*
X138428282Y-102328282D01*
X138428284Y-102328279D01*
X138431089Y-102326127D01*
X138496259Y-102300933D01*
X138506576Y-102300503D01*
X138782748Y-102300503D01*
X138849787Y-102320188D01*
X138870429Y-102336822D01*
X139573351Y-103039744D01*
X139606836Y-103101067D01*
X139604331Y-103163420D01*
X139564699Y-103294067D01*
X139544417Y-103500000D01*
X139564699Y-103705932D01*
X139564700Y-103705934D01*
X139624768Y-103903954D01*
X139722315Y-104086450D01*
X139756969Y-104128677D01*
X139853589Y-104246410D01*
X139950209Y-104325702D01*
X140013550Y-104377685D01*
X140196046Y-104475232D01*
X140394066Y-104535300D01*
X140394065Y-104535300D01*
X140412529Y-104537118D01*
X140600000Y-104555583D01*
X140805934Y-104535300D01*
X141003954Y-104475232D01*
X141186450Y-104377685D01*
X141346410Y-104246410D01*
X141477685Y-104086450D01*
X141575232Y-103903954D01*
X141635300Y-103705934D01*
X141655583Y-103500000D01*
X141635300Y-103294066D01*
X141575232Y-103096046D01*
X141477685Y-102913550D01*
X141382166Y-102797159D01*
X141346410Y-102753589D01*
X141210400Y-102641970D01*
X141186450Y-102622315D01*
X141003954Y-102524768D01*
X140805934Y-102464700D01*
X140805932Y-102464699D01*
X140805934Y-102464699D01*
X140600000Y-102444417D01*
X140394067Y-102464699D01*
X140342487Y-102480346D01*
X140263418Y-102504331D01*
X140193553Y-102504954D01*
X140139744Y-102473351D01*
X139245918Y-101579525D01*
X139245916Y-101579523D01*
X139195154Y-101550215D01*
X139154592Y-101526796D01*
X139080101Y-101506837D01*
X139052730Y-101499503D01*
X139052729Y-101499503D01*
X138566251Y-101499503D01*
X138499212Y-101479818D01*
X138453457Y-101427014D01*
X138443513Y-101357856D01*
X138472538Y-101294300D01*
X138478570Y-101287822D01*
X138829574Y-100936819D01*
X138890897Y-100903334D01*
X138917255Y-100900500D01*
X139501421Y-100900500D01*
X139568460Y-100920185D01*
X139614215Y-100972989D01*
X139620081Y-100988503D01*
X139624768Y-101003954D01*
X139722315Y-101186450D01*
X139733435Y-101200000D01*
X139853589Y-101346410D01*
X139950209Y-101425702D01*
X140013550Y-101477685D01*
X140196046Y-101575232D01*
X140394066Y-101635300D01*
X140394065Y-101635300D01*
X140412529Y-101637118D01*
X140600000Y-101655583D01*
X140805934Y-101635300D01*
X141003954Y-101575232D01*
X141186450Y-101477685D01*
X141346410Y-101346410D01*
X141477685Y-101186450D01*
X141575232Y-101003954D01*
X141635300Y-100805934D01*
X141655583Y-100600000D01*
X141635300Y-100394066D01*
X141575232Y-100196046D01*
X141477685Y-100013550D01*
X141402922Y-99922450D01*
X141346410Y-99853589D01*
X141186452Y-99722317D01*
X141186453Y-99722317D01*
X141186450Y-99722315D01*
X141003954Y-99624768D01*
X140805934Y-99564700D01*
X140805932Y-99564699D01*
X140805934Y-99564699D01*
X140600000Y-99544417D01*
X140394067Y-99564699D01*
X140196043Y-99624769D01*
X140136403Y-99656648D01*
X140013550Y-99722315D01*
X140013548Y-99722316D01*
X140013547Y-99722317D01*
X139853589Y-99853589D01*
X139722315Y-100013548D01*
X139711408Y-100033955D01*
X139662445Y-100083798D01*
X139602051Y-100099500D01*
X138647273Y-100099500D01*
X138545410Y-100126793D01*
X138454087Y-100179520D01*
X138454084Y-100179522D01*
X138024191Y-100609414D01*
X137962868Y-100642899D01*
X137893176Y-100637915D01*
X137861024Y-100620109D01*
X137802842Y-100575464D01*
X137656762Y-100514956D01*
X137656760Y-100514955D01*
X137500001Y-100494318D01*
X137499999Y-100494318D01*
X137343239Y-100514955D01*
X137343237Y-100514956D01*
X137197160Y-100575463D01*
X137071718Y-100671718D01*
X136975463Y-100797160D01*
X136914956Y-100943237D01*
X136914955Y-100943239D01*
X136894318Y-101099998D01*
X135066391Y-101099998D01*
X134954073Y-100987680D01*
X134920588Y-100926357D01*
X134925572Y-100856665D01*
X134954073Y-100812318D01*
X137133020Y-98633372D01*
X139339708Y-96426684D01*
X139401031Y-96393199D01*
X139427389Y-96390365D01*
X145072530Y-96390365D01*
X145139569Y-96410050D01*
X145185324Y-96462854D01*
X145188712Y-96471032D01*
X145206861Y-96519693D01*
X145206865Y-96519700D01*
X145293111Y-96634909D01*
X145293114Y-96634912D01*
X145408323Y-96721158D01*
X145408330Y-96721162D01*
X145427420Y-96728282D01*
X145543176Y-96771456D01*
X145602786Y-96777865D01*
X146248531Y-96777864D01*
X146308142Y-96771456D01*
X146442990Y-96721161D01*
X146558205Y-96634911D01*
X146644455Y-96519696D01*
X146651802Y-96499998D01*
X146662606Y-96471032D01*
X146704477Y-96415098D01*
X146769942Y-96390681D01*
X146777798Y-96390400D01*
X146778060Y-96390365D01*
X146778069Y-96390365D01*
X146879930Y-96363072D01*
X146971255Y-96310345D01*
X147171161Y-96110437D01*
X147232480Y-96076955D01*
X147242635Y-96075185D01*
X147370658Y-96058331D01*
X147516737Y-95997823D01*
X147642178Y-95901569D01*
X147738432Y-95776128D01*
X147798940Y-95630049D01*
X147819578Y-95473287D01*
X147807727Y-95383273D01*
X147798940Y-95316526D01*
X147798940Y-95316525D01*
X147738432Y-95170446D01*
X147642178Y-95045005D01*
X147516737Y-94948751D01*
X147370658Y-94888243D01*
X147370656Y-94888242D01*
X147213897Y-94867605D01*
X147213895Y-94867605D01*
X147057135Y-94888242D01*
X147057133Y-94888243D01*
X146911056Y-94948750D01*
X146785614Y-95045005D01*
X146689359Y-95170447D01*
X146628852Y-95316524D01*
X146628852Y-95316526D01*
X146625621Y-95341067D01*
X146597354Y-95404964D01*
X146539029Y-95443434D01*
X146469164Y-95444265D01*
X146443256Y-95433714D01*
X146442989Y-95433568D01*
X146308145Y-95383275D01*
X146308144Y-95383274D01*
X146308142Y-95383274D01*
X146248532Y-95376865D01*
X146248522Y-95376865D01*
X145602788Y-95376865D01*
X145602782Y-95376866D01*
X145543175Y-95383273D01*
X145408330Y-95433567D01*
X145408323Y-95433571D01*
X145293114Y-95519817D01*
X145293113Y-95519818D01*
X145278249Y-95539675D01*
X145222316Y-95581547D01*
X145178982Y-95589365D01*
X139270474Y-95589365D01*
X139270458Y-95589364D01*
X139262862Y-95589364D01*
X139157409Y-95589364D01*
X139055548Y-95616658D01*
X139055546Y-95616658D01*
X139055546Y-95616659D01*
X138964219Y-95669387D01*
X138889653Y-95743954D01*
X138547116Y-96086490D01*
X138485793Y-96119975D01*
X138416101Y-96114991D01*
X138360168Y-96073119D01*
X138344877Y-96046268D01*
X138324536Y-95997159D01*
X138228282Y-95871718D01*
X138102841Y-95775464D01*
X138042565Y-95750497D01*
X137956762Y-95714956D01*
X137956760Y-95714955D01*
X137800001Y-95694318D01*
X137799999Y-95694318D01*
X137643239Y-95714955D01*
X137643237Y-95714956D01*
X137497160Y-95775463D01*
X137371718Y-95871718D01*
X137275463Y-95997160D01*
X137214956Y-96143237D01*
X137214955Y-96143239D01*
X137194318Y-96299998D01*
X137194318Y-96300001D01*
X137214955Y-96456760D01*
X137214956Y-96456762D01*
X137271933Y-96594318D01*
X137275464Y-96602841D01*
X137371718Y-96728282D01*
X137497159Y-96824536D01*
X137546263Y-96844875D01*
X137600664Y-96888713D01*
X137622730Y-96955007D01*
X137605452Y-97022707D01*
X137586490Y-97047116D01*
X134170426Y-100463181D01*
X134109103Y-100496666D01*
X134082745Y-100499500D01*
X129466255Y-100499500D01*
X129399216Y-100479815D01*
X129353461Y-100427011D01*
X129343517Y-100357853D01*
X129372542Y-100294297D01*
X129378574Y-100287819D01*
X129652846Y-100013547D01*
X129945480Y-99720913D01*
X129964478Y-99688007D01*
X129998207Y-99629587D01*
X130025500Y-99527727D01*
X130025500Y-97912180D01*
X130045185Y-97845141D01*
X130075187Y-97812914D01*
X130182546Y-97732546D01*
X130268796Y-97617331D01*
X130319091Y-97482483D01*
X130325500Y-97422873D01*
X130325500Y-97299998D01*
X132194318Y-97299998D01*
X132194318Y-97300001D01*
X132214955Y-97456760D01*
X132214956Y-97456762D01*
X132224371Y-97479493D01*
X132275464Y-97602841D01*
X132371718Y-97728282D01*
X132497159Y-97824536D01*
X132643238Y-97885044D01*
X132721619Y-97895363D01*
X132799999Y-97905682D01*
X132800000Y-97905682D01*
X132800001Y-97905682D01*
X132852254Y-97898802D01*
X132956762Y-97885044D01*
X133102841Y-97824536D01*
X133228282Y-97728282D01*
X133254249Y-97694440D01*
X133310673Y-97653240D01*
X133380419Y-97649084D01*
X133428106Y-97671550D01*
X133497159Y-97724536D01*
X133643238Y-97785044D01*
X133706853Y-97793419D01*
X133799999Y-97805682D01*
X133800000Y-97805682D01*
X133800001Y-97805682D01*
X133852254Y-97798802D01*
X133956762Y-97785044D01*
X134102841Y-97724536D01*
X134228282Y-97628282D01*
X134324536Y-97502841D01*
X134385044Y-97356762D01*
X134405682Y-97200000D01*
X134401708Y-97169817D01*
X134390353Y-97083567D01*
X134385044Y-97043238D01*
X134324536Y-96897159D01*
X134228282Y-96771718D01*
X134102841Y-96675464D01*
X134057690Y-96656762D01*
X133956762Y-96614956D01*
X133956760Y-96614955D01*
X133800001Y-96594318D01*
X133799999Y-96594318D01*
X133643239Y-96614955D01*
X133643237Y-96614956D01*
X133497160Y-96675463D01*
X133371715Y-96771720D01*
X133345751Y-96805558D01*
X133289323Y-96846761D01*
X133219577Y-96850915D01*
X133171891Y-96828448D01*
X133102841Y-96775464D01*
X133093802Y-96771720D01*
X132956762Y-96714956D01*
X132956760Y-96714955D01*
X132800001Y-96694318D01*
X132799999Y-96694318D01*
X132643239Y-96714955D01*
X132643237Y-96714956D01*
X132497160Y-96775463D01*
X132371718Y-96871718D01*
X132275463Y-96997160D01*
X132214956Y-97143237D01*
X132214955Y-97143239D01*
X132194318Y-97299998D01*
X130325500Y-97299998D01*
X130325499Y-96777128D01*
X130319091Y-96717517D01*
X130318135Y-96714955D01*
X130268797Y-96582671D01*
X130268793Y-96582664D01*
X130182547Y-96467456D01*
X130182548Y-96467456D01*
X130182546Y-96467454D01*
X130077722Y-96388983D01*
X130035853Y-96333051D01*
X130030869Y-96263359D01*
X130064352Y-96202039D01*
X130924991Y-95341400D01*
X130986312Y-95307917D01*
X130996485Y-95306144D01*
X130999997Y-95305681D01*
X131000000Y-95305682D01*
X131156762Y-95285044D01*
X131302841Y-95224536D01*
X131428282Y-95128282D01*
X131428283Y-95128279D01*
X131431093Y-95126124D01*
X131496263Y-95100930D01*
X131506580Y-95100500D01*
X132725501Y-95100500D01*
X132792540Y-95120185D01*
X132838295Y-95172989D01*
X132849501Y-95224500D01*
X132849501Y-95494856D01*
X132849502Y-95494882D01*
X132852413Y-95519987D01*
X132852415Y-95519991D01*
X132897793Y-95622764D01*
X132897794Y-95622765D01*
X132977235Y-95702206D01*
X133080009Y-95747585D01*
X133105135Y-95750500D01*
X134194864Y-95750499D01*
X134194879Y-95750497D01*
X134194882Y-95750497D01*
X134219987Y-95747586D01*
X134219987Y-95747585D01*
X134219991Y-95747585D01*
X134249913Y-95734372D01*
X134319190Y-95725301D01*
X134350086Y-95734373D01*
X134380007Y-95747584D01*
X134380009Y-95747585D01*
X134405135Y-95750500D01*
X135494864Y-95750499D01*
X135494879Y-95750497D01*
X135494882Y-95750497D01*
X135519987Y-95747586D01*
X135519988Y-95747585D01*
X135519991Y-95747585D01*
X135622765Y-95702206D01*
X135702206Y-95622765D01*
X135747585Y-95519991D01*
X135750500Y-95494865D01*
X135750499Y-94467253D01*
X135770183Y-94400215D01*
X135786813Y-94379578D01*
X138129574Y-92036819D01*
X138190897Y-92003334D01*
X138217255Y-92000500D01*
X138693420Y-92000500D01*
X138760459Y-92020185D01*
X138768907Y-92026124D01*
X138771716Y-92028279D01*
X138771718Y-92028282D01*
X138897159Y-92124536D01*
X139043238Y-92185044D01*
X139121619Y-92195363D01*
X139199999Y-92205682D01*
X139200000Y-92205682D01*
X139200001Y-92205682D01*
X139252254Y-92198802D01*
X139356762Y-92185044D01*
X139502841Y-92124536D01*
X139628282Y-92028282D01*
X139724536Y-91902841D01*
X139785044Y-91756762D01*
X139805682Y-91600000D01*
X139785044Y-91443238D01*
X139724536Y-91297159D01*
X139628282Y-91171718D01*
X139502841Y-91075464D01*
X139356762Y-91014956D01*
X139356760Y-91014955D01*
X139200001Y-90994318D01*
X139199999Y-90994318D01*
X139043239Y-91014955D01*
X139043237Y-91014956D01*
X138897160Y-91075463D01*
X138897159Y-91075464D01*
X138771718Y-91171718D01*
X138771716Y-91171720D01*
X138768907Y-91173876D01*
X138703737Y-91199070D01*
X138693420Y-91199500D01*
X137947273Y-91199500D01*
X137845412Y-91226793D01*
X137820090Y-91241413D01*
X137794768Y-91256033D01*
X137782681Y-91263011D01*
X137754087Y-91279519D01*
X137754085Y-91279521D01*
X135420424Y-93613181D01*
X135359101Y-93646666D01*
X135332743Y-93649500D01*
X134405143Y-93649500D01*
X134405117Y-93649502D01*
X134380014Y-93652413D01*
X134380010Y-93652414D01*
X134350083Y-93665628D01*
X134280804Y-93674697D01*
X134249915Y-93665627D01*
X134219992Y-93652415D01*
X134194865Y-93649500D01*
X133105143Y-93649500D01*
X133105117Y-93649502D01*
X133080012Y-93652413D01*
X133080008Y-93652415D01*
X132977235Y-93697793D01*
X132897794Y-93777234D01*
X132852415Y-93880006D01*
X132852415Y-93880008D01*
X132849500Y-93905131D01*
X132849500Y-94175500D01*
X132829815Y-94242539D01*
X132777011Y-94288294D01*
X132725500Y-94299500D01*
X131506580Y-94299500D01*
X131439541Y-94279815D01*
X131431093Y-94273876D01*
X131428283Y-94271720D01*
X131428282Y-94271718D01*
X131302841Y-94175464D01*
X131156762Y-94114956D01*
X131156760Y-94114955D01*
X131000001Y-94094318D01*
X130999999Y-94094318D01*
X130843239Y-94114955D01*
X130843237Y-94114956D01*
X130697160Y-94175463D01*
X130697159Y-94175464D01*
X130571718Y-94271718D01*
X130571716Y-94271720D01*
X130568907Y-94273876D01*
X130503737Y-94299070D01*
X130493420Y-94299500D01*
X128674499Y-94299500D01*
X128607460Y-94279815D01*
X128561705Y-94227011D01*
X128550499Y-94175500D01*
X128550499Y-93905143D01*
X128550499Y-93905136D01*
X128550497Y-93905117D01*
X128547586Y-93880012D01*
X128547585Y-93880010D01*
X128547585Y-93880009D01*
X128502206Y-93777235D01*
X128422765Y-93697794D01*
X128422763Y-93697793D01*
X128319992Y-93652415D01*
X128294865Y-93649500D01*
X127205143Y-93649500D01*
X127205117Y-93649502D01*
X127180014Y-93652413D01*
X127180010Y-93652414D01*
X127150083Y-93665628D01*
X127080804Y-93674697D01*
X127049915Y-93665627D01*
X127019992Y-93652415D01*
X126994868Y-93649500D01*
X126994865Y-93649500D01*
X126974500Y-93649500D01*
X126907461Y-93629815D01*
X126861706Y-93577011D01*
X126850500Y-93525500D01*
X126850500Y-92767254D01*
X126870185Y-92700215D01*
X126886815Y-92679577D01*
X126916396Y-92649996D01*
X132444316Y-92649996D01*
X132444316Y-92649999D01*
X132464953Y-92806758D01*
X132464954Y-92806760D01*
X132525462Y-92952839D01*
X132621716Y-93078280D01*
X132747157Y-93174534D01*
X132893236Y-93235042D01*
X132971617Y-93245361D01*
X133049997Y-93255680D01*
X133049998Y-93255680D01*
X133049999Y-93255680D01*
X133102252Y-93248800D01*
X133206760Y-93235042D01*
X133352839Y-93174534D01*
X133478280Y-93078280D01*
X133574534Y-92952839D01*
X133635042Y-92806760D01*
X133655680Y-92649998D01*
X133635042Y-92493236D01*
X133574534Y-92347157D01*
X133478280Y-92221716D01*
X133352839Y-92125462D01*
X133350603Y-92124536D01*
X133206760Y-92064954D01*
X133206758Y-92064953D01*
X133049999Y-92044316D01*
X133049997Y-92044316D01*
X132893237Y-92064953D01*
X132893235Y-92064954D01*
X132747158Y-92125461D01*
X132621716Y-92221716D01*
X132525461Y-92347158D01*
X132464954Y-92493235D01*
X132464953Y-92493237D01*
X132444316Y-92649996D01*
X126916396Y-92649996D01*
X127175809Y-92390582D01*
X127237130Y-92357099D01*
X127306821Y-92362083D01*
X127338970Y-92379886D01*
X127397159Y-92424536D01*
X127543238Y-92485044D01*
X127621619Y-92495363D01*
X127699999Y-92505682D01*
X127700000Y-92505682D01*
X127700001Y-92505682D01*
X127763873Y-92497273D01*
X127856762Y-92485044D01*
X128002841Y-92424536D01*
X128128282Y-92328282D01*
X128224536Y-92202841D01*
X128285044Y-92056762D01*
X128305682Y-91900000D01*
X128285044Y-91743238D01*
X128224536Y-91597159D01*
X128128282Y-91471718D01*
X128002841Y-91375464D01*
X127856762Y-91314956D01*
X127856760Y-91314955D01*
X127700001Y-91294318D01*
X127699999Y-91294318D01*
X127543239Y-91314955D01*
X127543237Y-91314956D01*
X127397160Y-91375463D01*
X127397159Y-91375464D01*
X127271718Y-91471718D01*
X127271716Y-91471720D01*
X127268907Y-91473876D01*
X127203737Y-91499070D01*
X127193420Y-91499500D01*
X127047273Y-91499500D01*
X126945410Y-91526793D01*
X126854087Y-91579520D01*
X126854084Y-91579522D01*
X126129522Y-92304084D01*
X126129520Y-92304087D01*
X126076791Y-92395413D01*
X126052778Y-92485040D01*
X126052777Y-92485045D01*
X126049500Y-92497273D01*
X126049500Y-93525500D01*
X126029815Y-93592539D01*
X125977011Y-93638294D01*
X125925505Y-93649500D01*
X125905145Y-93649500D01*
X125905118Y-93649502D01*
X125880011Y-93652414D01*
X125880008Y-93652415D01*
X125777235Y-93697793D01*
X125697794Y-93777234D01*
X125652415Y-93880006D01*
X125652415Y-93880008D01*
X125649500Y-93905131D01*
X125649500Y-95494856D01*
X125649502Y-95494882D01*
X125652413Y-95519987D01*
X125652415Y-95519991D01*
X125697793Y-95622764D01*
X125697794Y-95622765D01*
X125777235Y-95702206D01*
X125880009Y-95747585D01*
X125905135Y-95750500D01*
X126125046Y-95750499D01*
X126192084Y-95770183D01*
X126237839Y-95822987D01*
X126247783Y-95892145D01*
X126218758Y-95955701D01*
X126200532Y-95972874D01*
X126071720Y-96071715D01*
X125975463Y-96197160D01*
X125914956Y-96343237D01*
X125914955Y-96343239D01*
X125894318Y-96499998D01*
X125894318Y-96500001D01*
X125914955Y-96656760D01*
X125914956Y-96656762D01*
X125965118Y-96777865D01*
X125975464Y-96802841D01*
X126071718Y-96928282D01*
X126197159Y-97024536D01*
X126343238Y-97085044D01*
X126421619Y-97095363D01*
X126499999Y-97105682D01*
X126500000Y-97105682D01*
X126500001Y-97105682D01*
X126552254Y-97098802D01*
X126656762Y-97085044D01*
X126802841Y-97024536D01*
X126928282Y-96928282D01*
X127024536Y-96802841D01*
X127035939Y-96775312D01*
X127079779Y-96720908D01*
X127146074Y-96698843D01*
X127213773Y-96716122D01*
X127261384Y-96767259D01*
X127274500Y-96822764D01*
X127274500Y-97422870D01*
X127274501Y-97422876D01*
X127280908Y-97482483D01*
X127331202Y-97617328D01*
X127331206Y-97617335D01*
X127417452Y-97732544D01*
X127417455Y-97732547D01*
X127532664Y-97818793D01*
X127532673Y-97818798D01*
X127535831Y-97819976D01*
X127538530Y-97821996D01*
X127540454Y-97823047D01*
X127540302Y-97823323D01*
X127591765Y-97861846D01*
X127616183Y-97927310D01*
X127602701Y-97989289D01*
X127603574Y-97989651D01*
X127601569Y-97994489D01*
X127601332Y-97995583D01*
X127600512Y-97997043D01*
X127539956Y-98143237D01*
X127539955Y-98143239D01*
X127519318Y-98299998D01*
X127519318Y-98300001D01*
X127539955Y-98456760D01*
X127539956Y-98456762D01*
X127600464Y-98602841D01*
X127696718Y-98728282D01*
X127822159Y-98824536D01*
X127968238Y-98885044D01*
X128046619Y-98895363D01*
X128124999Y-98905682D01*
X128125000Y-98905682D01*
X128125001Y-98905682D01*
X128177254Y-98898802D01*
X128281762Y-98885044D01*
X128427841Y-98824536D01*
X128553282Y-98728282D01*
X128649536Y-98602841D01*
X128710044Y-98456762D01*
X128730682Y-98300000D01*
X128710044Y-98143238D01*
X128649536Y-97997159D01*
X128649535Y-97997158D01*
X128649535Y-97997157D01*
X128551124Y-97868905D01*
X128525930Y-97803736D01*
X128525500Y-97793419D01*
X128525500Y-97783230D01*
X128545185Y-97716191D01*
X128550233Y-97708919D01*
X128578206Y-97671552D01*
X128618796Y-97617331D01*
X128669091Y-97482483D01*
X128675500Y-97422873D01*
X128675499Y-96777128D01*
X128669091Y-96717517D01*
X128668135Y-96714955D01*
X128618797Y-96582671D01*
X128618793Y-96582664D01*
X128532547Y-96467455D01*
X128532544Y-96467452D01*
X128417335Y-96381206D01*
X128417328Y-96381202D01*
X128282486Y-96330910D01*
X128282485Y-96330909D01*
X128282483Y-96330909D01*
X128222873Y-96324500D01*
X128222863Y-96324500D01*
X127727129Y-96324500D01*
X127727123Y-96324501D01*
X127667516Y-96330908D01*
X127532671Y-96381202D01*
X127532664Y-96381206D01*
X127417455Y-96467452D01*
X127328429Y-96586374D01*
X127272495Y-96628244D01*
X127202803Y-96633228D01*
X127141480Y-96599742D01*
X127107996Y-96538418D01*
X127106738Y-96508127D01*
X127105682Y-96508127D01*
X127105682Y-96499998D01*
X127085044Y-96343239D01*
X127085044Y-96343238D01*
X127024536Y-96197159D01*
X126928282Y-96071718D01*
X126928280Y-96071717D01*
X126928280Y-96071716D01*
X126799467Y-95972875D01*
X126758264Y-95916447D01*
X126754109Y-95846701D01*
X126788321Y-95785781D01*
X126850039Y-95753028D01*
X126874951Y-95750499D01*
X126994864Y-95750499D01*
X126994879Y-95750497D01*
X126994882Y-95750497D01*
X127019987Y-95747586D01*
X127019987Y-95747585D01*
X127019991Y-95747585D01*
X127049913Y-95734372D01*
X127119190Y-95725301D01*
X127150086Y-95734373D01*
X127180007Y-95747584D01*
X127180009Y-95747585D01*
X127205135Y-95750500D01*
X128294864Y-95750499D01*
X128294879Y-95750497D01*
X128294882Y-95750497D01*
X128319987Y-95747586D01*
X128319988Y-95747585D01*
X128319991Y-95747585D01*
X128422765Y-95702206D01*
X128502206Y-95622765D01*
X128547585Y-95519991D01*
X128550500Y-95494865D01*
X128550500Y-95224500D01*
X128570185Y-95157461D01*
X128622989Y-95111706D01*
X128674500Y-95100500D01*
X129733746Y-95100500D01*
X129800785Y-95120185D01*
X129846540Y-95172989D01*
X129856484Y-95242147D01*
X129827459Y-95305703D01*
X129821427Y-95312181D01*
X129304522Y-95829084D01*
X129304518Y-95829090D01*
X129251792Y-95920413D01*
X129251791Y-95920413D01*
X129242249Y-95956031D01*
X129242249Y-95956032D01*
X129224500Y-96022273D01*
X129224500Y-96287819D01*
X129204815Y-96354858D01*
X129174812Y-96387085D01*
X129067452Y-96467455D01*
X128981206Y-96582664D01*
X128981202Y-96582671D01*
X128931864Y-96714956D01*
X128930909Y-96717517D01*
X128924500Y-96777127D01*
X128924500Y-96777134D01*
X128924500Y-96777135D01*
X128924500Y-97422870D01*
X128924501Y-97422876D01*
X128930908Y-97482483D01*
X128981202Y-97617328D01*
X128981206Y-97617335D01*
X129038930Y-97694443D01*
X129067454Y-97732546D01*
X129174811Y-97812914D01*
X129216682Y-97868847D01*
X129224500Y-97912180D01*
X129224500Y-99257745D01*
X129204815Y-99324784D01*
X129188181Y-99345426D01*
X127845426Y-100688181D01*
X127784103Y-100721666D01*
X127757745Y-100724500D01*
X127142255Y-100724500D01*
X127075216Y-100704815D01*
X127054572Y-100688180D01*
X127026647Y-100660254D01*
X126993163Y-100598930D01*
X126995668Y-100536581D01*
X127035300Y-100405934D01*
X127055583Y-100200000D01*
X127035300Y-99994066D01*
X126975232Y-99796046D01*
X126877685Y-99613550D01*
X126807252Y-99527727D01*
X126746410Y-99453589D01*
X126614611Y-99345426D01*
X126586450Y-99322315D01*
X126403954Y-99224768D01*
X126205934Y-99164700D01*
X126205932Y-99164699D01*
X126205934Y-99164699D01*
X126000000Y-99144417D01*
X125794067Y-99164699D01*
X125596043Y-99224769D01*
X125485898Y-99283643D01*
X125413550Y-99322315D01*
X125413548Y-99322316D01*
X125413547Y-99322317D01*
X125253589Y-99453589D01*
X125122317Y-99613547D01*
X125122315Y-99613550D01*
X125083643Y-99685898D01*
X125024769Y-99796043D01*
X125024768Y-99796045D01*
X125024768Y-99796046D01*
X125019032Y-99814956D01*
X124964699Y-99994067D01*
X124944417Y-100200000D01*
X122882500Y-100200000D01*
X122882500Y-88462500D01*
X122902185Y-88395461D01*
X122954989Y-88349706D01*
X123006500Y-88338500D01*
X147976000Y-88338500D01*
X148043039Y-88358185D01*
G37*
%TD.AperFunction*%
%TD*%
%TA.AperFunction,Conductor*%
%TO.N,/PSU/BATT-*%
G36*
X155905203Y-117981534D02*
G01*
X155906112Y-117982330D01*
X160858160Y-122362987D01*
X160895329Y-122422149D01*
X160900000Y-122455862D01*
X160900000Y-126276000D01*
X160880315Y-126343039D01*
X160827511Y-126388794D01*
X160776000Y-126400000D01*
X156937544Y-126400000D01*
X156870505Y-126380315D01*
X156868761Y-126379174D01*
X155755217Y-125636811D01*
X155710356Y-125583246D01*
X155700000Y-125533637D01*
X155700000Y-118075247D01*
X155719685Y-118008208D01*
X155772489Y-117962453D01*
X155841647Y-117952509D01*
X155905203Y-117981534D01*
G37*
%TD.AperFunction*%
%TD*%
M02*
