%TF.GenerationSoftware,KiCad,Pcbnew,8.0.3-8.0.3-0~ubuntu22.04.1*%
%TF.CreationDate,2024-07-06T17:26:30-06:00*%
%TF.ProjectId,stm32g070 and DRV8311 single motor board - V1 Alpha,73746d33-3267-4303-9730-20616e642044,rev?*%
%TF.SameCoordinates,Original*%
%TF.FileFunction,Soldermask,Bot*%
%TF.FilePolarity,Negative*%
%FSLAX46Y46*%
G04 Gerber Fmt 4.6, Leading zero omitted, Abs format (unit mm)*
G04 Created by KiCad (PCBNEW 8.0.3-8.0.3-0~ubuntu22.04.1) date 2024-07-06 17:26:30*
%MOMM*%
%LPD*%
G01*
G04 APERTURE LIST*
G04 Aperture macros list*
%AMRoundRect*
0 Rectangle with rounded corners*
0 $1 Rounding radius*
0 $2 $3 $4 $5 $6 $7 $8 $9 X,Y pos of 4 corners*
0 Add a 4 corners polygon primitive as box body*
4,1,4,$2,$3,$4,$5,$6,$7,$8,$9,$2,$3,0*
0 Add four circle primitives for the rounded corners*
1,1,$1+$1,$2,$3*
1,1,$1+$1,$4,$5*
1,1,$1+$1,$6,$7*
1,1,$1+$1,$8,$9*
0 Add four rect primitives between the rounded corners*
20,1,$1+$1,$2,$3,$4,$5,0*
20,1,$1+$1,$4,$5,$6,$7,0*
20,1,$1+$1,$6,$7,$8,$9,0*
20,1,$1+$1,$8,$9,$2,$3,0*%
G04 Aperture macros list end*
%ADD10C,0.000000*%
%ADD11RoundRect,0.200000X-0.200000X-0.275000X0.200000X-0.275000X0.200000X0.275000X-0.200000X0.275000X0*%
%ADD12RoundRect,0.200000X0.450000X-0.200000X0.450000X0.200000X-0.450000X0.200000X-0.450000X-0.200000X0*%
%ADD13O,1.300000X0.800000*%
%ADD14C,1.200000*%
%ADD15R,1.700000X1.700000*%
%ADD16O,1.700000X1.700000*%
%ADD17C,0.600000*%
%ADD18R,1.800000X3.400000*%
%ADD19C,1.500000*%
%ADD20R,1.500000X1.000000*%
%ADD21RoundRect,0.225000X0.225000X0.250000X-0.225000X0.250000X-0.225000X-0.250000X0.225000X-0.250000X0*%
%ADD22R,1.000000X1.500000*%
%ADD23RoundRect,0.200000X0.200000X0.275000X-0.200000X0.275000X-0.200000X-0.275000X0.200000X-0.275000X0*%
%ADD24RoundRect,0.200000X-0.275000X0.200000X-0.275000X-0.200000X0.275000X-0.200000X0.275000X0.200000X0*%
%ADD25RoundRect,0.237500X0.044194X0.380070X-0.380070X-0.044194X-0.044194X-0.380070X0.380070X0.044194X0*%
%ADD26R,4.000000X4.000000*%
%ADD27RoundRect,0.218750X-0.218750X-0.256250X0.218750X-0.256250X0.218750X0.256250X-0.218750X0.256250X0*%
%ADD28RoundRect,0.225000X-0.225000X-0.250000X0.225000X-0.250000X0.225000X0.250000X-0.225000X0.250000X0*%
%ADD29R,0.580000X0.300000*%
%ADD30R,0.579882X0.249936*%
%ADD31R,0.350000X0.630000*%
G04 APERTURE END LIST*
D10*
%TO.C,U3*%
G36*
X152042499Y-127000001D02*
G01*
X151362501Y-127000001D01*
X151362501Y-126599999D01*
X152042499Y-126599999D01*
X152042499Y-127000001D01*
G37*
G36*
X152042499Y-127500000D02*
G01*
X151362501Y-127500000D01*
X151362501Y-127100000D01*
X152042499Y-127100000D01*
X152042499Y-127500000D01*
G37*
G36*
X152042499Y-128000001D02*
G01*
X151362501Y-128000001D01*
X151362501Y-127599999D01*
X152042499Y-127599999D01*
X152042499Y-128000001D01*
G37*
G36*
X152567500Y-127229999D02*
G01*
X152107500Y-127229999D01*
X152107500Y-126500000D01*
X152567500Y-126500000D01*
X152567500Y-127229999D01*
G37*
G36*
X152567500Y-128105000D02*
G01*
X152107500Y-128105000D01*
X152107500Y-127365001D01*
X152567500Y-127365001D01*
X152567500Y-128105000D01*
G37*
G36*
X153312499Y-127000001D02*
G01*
X152632501Y-127000001D01*
X152632501Y-126599999D01*
X153312499Y-126599999D01*
X153312499Y-127000001D01*
G37*
G36*
X153312499Y-127500000D02*
G01*
X152632501Y-127500000D01*
X152632501Y-127100000D01*
X153312499Y-127100000D01*
X153312499Y-127500000D01*
G37*
G36*
X153312499Y-128000001D02*
G01*
X152632501Y-128000001D01*
X152632501Y-127599999D01*
X153312499Y-127599999D01*
X153312499Y-128000001D01*
G37*
%TD*%
D11*
%TO.C,R9*%
X144575000Y-99500000D03*
X146225000Y-99500000D03*
%TD*%
D12*
%TO.C,J3*%
X156400000Y-96900000D03*
D13*
X156400000Y-95650000D03*
X156400000Y-94400000D03*
%TD*%
D14*
%TO.C,C15*%
X152800000Y-110900000D03*
X150800000Y-110900000D03*
%TD*%
D15*
%TO.C,J4*%
X144525000Y-90000000D03*
D16*
X147065000Y-90000000D03*
%TD*%
D17*
%TO.C,U2*%
X149162498Y-98100001D03*
X150562500Y-98100001D03*
X149862499Y-97374600D03*
X149162498Y-96699999D03*
X150562500Y-96699999D03*
%TD*%
D18*
%TO.C,R6*%
X154800000Y-119500000D03*
X149600000Y-119500000D03*
%TD*%
D19*
%TO.C,TP1*%
X126000000Y-109600000D03*
%TD*%
%TO.C,TP3*%
X140600000Y-100600000D03*
%TD*%
D20*
%TO.C,L1*%
X131200000Y-113450000D03*
X131200000Y-114750000D03*
%TD*%
D18*
%TO.C,R7*%
X154800000Y-123900000D03*
X149600000Y-123900000D03*
%TD*%
D11*
%TO.C,R5*%
X144875000Y-126300000D03*
X146525000Y-126300000D03*
%TD*%
D21*
%TO.C,C11*%
X151875000Y-129300000D03*
X150325000Y-129300000D03*
%TD*%
D19*
%TO.C,TP2*%
X140600000Y-103500000D03*
%TD*%
D22*
%TO.C,JP2*%
X133650000Y-94700000D03*
X134950000Y-94700000D03*
%TD*%
D23*
%TO.C,R14*%
X129625000Y-97100000D03*
X127975000Y-97100000D03*
%TD*%
D24*
%TO.C,R18*%
X139900000Y-107175000D03*
X139900000Y-108825000D03*
%TD*%
%TO.C,R17*%
X139900000Y-110575000D03*
X139900000Y-112225000D03*
%TD*%
D25*
%TO.C,C18*%
X129509880Y-107890120D03*
X128290120Y-109109880D03*
%TD*%
D23*
%TO.C,R1*%
X146225000Y-98000000D03*
X144575000Y-98000000D03*
%TD*%
D19*
%TO.C,TP5*%
X126000000Y-106400000D03*
%TD*%
D26*
%TO.C,H4*%
X125200000Y-122100000D03*
%TD*%
D21*
%TO.C,C2*%
X127975000Y-102600000D03*
X126425000Y-102600000D03*
%TD*%
%TO.C,C1*%
X127975000Y-104200000D03*
X126425000Y-104200000D03*
%TD*%
D19*
%TO.C,TP4*%
X126000000Y-100200000D03*
%TD*%
D22*
%TO.C,JP1*%
X127750000Y-94700000D03*
X126450000Y-94700000D03*
%TD*%
D11*
%TO.C,R3*%
X144875000Y-127900000D03*
X146525000Y-127900000D03*
%TD*%
D27*
%TO.C,FB1*%
X133812500Y-102100000D03*
X135387500Y-102100000D03*
%TD*%
D21*
%TO.C,C19*%
X135375000Y-103600000D03*
X133825000Y-103600000D03*
%TD*%
D19*
%TO.C,TP6*%
X137200000Y-107800000D03*
%TD*%
D23*
%TO.C,R19*%
X146075000Y-111900000D03*
X144425000Y-111900000D03*
%TD*%
D26*
%TO.C,H2*%
X158900000Y-124400000D03*
%TD*%
D28*
%TO.C,C12*%
X148325000Y-126900000D03*
X149875000Y-126900000D03*
%TD*%
D29*
%TO.C,U3*%
X151702500Y-127799999D03*
D30*
X151702500Y-127300000D03*
D29*
X151702500Y-126800001D03*
D31*
X152337500Y-126865000D03*
D29*
X152972500Y-126800001D03*
D30*
X152972500Y-127300000D03*
D29*
X152972500Y-127799999D03*
D31*
X152337500Y-127735000D03*
%TD*%
D11*
%TO.C,R8*%
X124375000Y-116400000D03*
X126025000Y-116400000D03*
%TD*%
M02*
