M48
; DRILL file {KiCad 8.0.3-8.0.3-0~ubuntu22.04.1} date 2024-07-06T17:26:27-0600
; FORMAT={-:-/ absolute / metric / decimal}
; #@! TF.CreationDate,2024-07-06T17:26:27-06:00
; #@! TF.GenerationSoftware,Kicad,Pcbnew,8.0.3-8.0.3-0~ubuntu22.04.1
; #@! TF.FileFunction,Plated,1,4,PTH
FMAT,2
METRIC
; #@! TA.AperFunction,Plated,PTH,ViaDrill
T1C0.300
; #@! TA.AperFunction,Plated,PTH,ComponentDrill
T2C0.300
; #@! TA.AperFunction,Plated,PTH,ComponentDrill
T3C0.500
; #@! TA.AperFunction,Plated,PTH,ComponentDrill
T4C0.600
; #@! TA.AperFunction,Plated,PTH,ComponentDrill
T5C1.000
%
G90
G05
T1
X123.8Y-108.9
X124.0Y-99.3
X124.0Y-115.3
X124.0Y-118.7
X124.35Y-126.3
X124.35Y-127.15
X126.5Y-96.5
X126.6Y-127.1
X126.9Y-111.2
X127.7Y-91.9
X127.824Y-117.576
X127.912Y-124.7
X128.125Y-98.3
X129.6Y-102.636
X130.4Y-117.1
X130.4Y-118.1
X130.4Y-119.0
X131.0Y-94.7
X131.4Y-117.1
X131.4Y-118.1
X131.4Y-119.0
X131.6Y-112.2
X131.8Y-91.8
X132.4Y-103.1
X132.4Y-117.1
X132.4Y-118.1
X132.4Y-119.0
X132.7Y-110.0
X132.781Y-105.481
X132.8Y-97.3
X132.9Y-104.5
X133.05Y-92.65
X133.8Y-97.2
X134.0Y-110.0
X135.0Y-125.6
X135.3Y-109.8
X135.321Y-124.421
X136.5Y-106.0
X136.8Y-89.7
X137.4Y-109.5
X137.5Y-101.1
X137.6Y-105.6
X137.8Y-96.3
X138.0Y-101.9
X139.2Y-91.6
X140.8Y-115.2
X140.8Y-116.2
X140.8Y-117.2
X141.0Y-98.6
X141.7Y-115.2
X141.7Y-116.2
X141.7Y-117.2
X142.1Y-129.0
X142.6Y-115.2
X142.6Y-116.2
X142.6Y-117.2
X143.0Y-112.3
X143.2Y-98.3
X143.5Y-115.2
X143.5Y-116.2
X143.5Y-117.2
X146.0Y-103.4
X146.2Y-109.8
X146.6Y-129.0
X147.2Y-100.4
X147.214Y-95.473
X147.6Y-101.2
X148.0Y-128.8
X148.1Y-99.4
X148.2Y-101.9
X151.0Y-126.2
X151.1Y-124.0
X151.5Y-104.9
X151.5Y-105.9
X151.5Y-106.8
X151.7Y-99.2
X152.5Y-104.9
X152.5Y-105.9
X152.5Y-106.8
X152.8Y-89.8
X152.8Y-90.8
X152.8Y-91.7
X153.5Y-104.9
X153.5Y-105.9
X153.5Y-106.8
X153.8Y-89.8
X153.8Y-90.8
X153.8Y-91.7
X154.8Y-89.8
X154.8Y-90.8
X154.8Y-91.7
X157.9Y-115.5
X157.9Y-116.5
X157.9Y-117.4
X158.6Y-103.4
X158.6Y-104.4
X158.6Y-105.3
X158.6Y-128.7
X158.9Y-115.5
X158.9Y-116.5
X158.9Y-117.4
X159.4Y-129.3
X159.6Y-103.4
X159.6Y-104.4
X159.6Y-105.3
X159.9Y-115.5
X159.9Y-116.5
X159.9Y-117.4
X159.9Y-120.5
X160.5Y-128.6
X160.6Y-103.4
X160.6Y-104.4
X160.6Y-105.3
T2
X132.262Y-124.737
X132.262Y-125.688
X132.262Y-126.637
X149.162Y-96.7
X149.162Y-98.1
X149.862Y-97.375
X150.562Y-96.7
X150.562Y-98.1
T3
X156.4Y-94.4
X156.4Y-95.65
X156.4Y-96.9
T4
X150.8Y-110.9
X152.8Y-110.9
T5
X144.525Y-90.0
X147.065Y-90.0
M30
