%TF.GenerationSoftware,KiCad,Pcbnew,8.0.3-8.0.3-0~ubuntu22.04.1*%
%TF.CreationDate,2024-07-04T17:08:58-06:00*%
%TF.ProjectId,stm32g070 and DRV8311 single motor board - V1 Alpha,73746d33-3267-4303-9730-20616e642044,rev?*%
%TF.SameCoordinates,Original*%
%TF.FileFunction,Legend,Top*%
%TF.FilePolarity,Positive*%
%FSLAX46Y46*%
G04 Gerber Fmt 4.6, Leading zero omitted, Abs format (unit mm)*
G04 Created by KiCad (PCBNEW 8.0.3-8.0.3-0~ubuntu22.04.1) date 2024-07-04 17:08:58*
%MOMM*%
%LPD*%
G01*
G04 APERTURE LIST*
G04 Aperture macros list*
%AMRoundRect*
0 Rectangle with rounded corners*
0 $1 Rounding radius*
0 $2 $3 $4 $5 $6 $7 $8 $9 X,Y pos of 4 corners*
0 Add a 4 corners polygon primitive as box body*
4,1,4,$2,$3,$4,$5,$6,$7,$8,$9,$2,$3,0*
0 Add four circle primitives for the rounded corners*
1,1,$1+$1,$2,$3*
1,1,$1+$1,$4,$5*
1,1,$1+$1,$6,$7*
1,1,$1+$1,$8,$9*
0 Add four rect primitives between the rounded corners*
20,1,$1+$1,$2,$3,$4,$5,0*
20,1,$1+$1,$4,$5,$6,$7,0*
20,1,$1+$1,$6,$7,$8,$9,0*
20,1,$1+$1,$8,$9,$2,$3,0*%
%AMRotRect*
0 Rectangle, with rotation*
0 The origin of the aperture is its center*
0 $1 length*
0 $2 width*
0 $3 Rotation angle, in degrees counterclockwise*
0 Add horizontal line*
21,1,$1,$2,0,0,$3*%
%AMFreePoly0*
4,1,9,2.100000,-2.000000,2.350000,-2.000000,2.350000,-3.500000,-2.350000,-3.500000,-2.350000,-2.000000,-2.100000,-2.000000,-2.100000,1.100000,2.100000,1.100000,2.100000,-2.000000,2.100000,-2.000000,$1*%
G04 Aperture macros list end*
%ADD10C,0.150000*%
%ADD11C,0.120000*%
%ADD12C,0.250000*%
%ADD13C,0.100000*%
%ADD14RoundRect,0.237500X-0.250000X-0.237500X0.250000X-0.237500X0.250000X0.237500X-0.250000X0.237500X0*%
%ADD15RoundRect,0.237500X-0.300000X-0.237500X0.300000X-0.237500X0.300000X0.237500X-0.300000X0.237500X0*%
%ADD16RotRect,1.400000X1.200000X52.000000*%
%ADD17C,1.500000*%
%ADD18RoundRect,0.075000X-0.662500X-0.075000X0.662500X-0.075000X0.662500X0.075000X-0.662500X0.075000X0*%
%ADD19RoundRect,0.075000X-0.075000X-0.662500X0.075000X-0.662500X0.075000X0.662500X-0.075000X0.662500X0*%
%ADD20RoundRect,0.237500X0.237500X-0.300000X0.237500X0.300000X-0.237500X0.300000X-0.237500X-0.300000X0*%
%ADD21RoundRect,0.237500X-0.237500X0.300000X-0.237500X-0.300000X0.237500X-0.300000X0.237500X0.300000X0*%
%ADD22RoundRect,0.150000X0.150000X0.625000X-0.150000X0.625000X-0.150000X-0.625000X0.150000X-0.625000X0*%
%ADD23RoundRect,0.250000X0.350000X0.650000X-0.350000X0.650000X-0.350000X-0.650000X0.350000X-0.650000X0*%
%ADD24RoundRect,0.200000X0.450000X-0.200000X0.450000X0.200000X-0.450000X0.200000X-0.450000X-0.200000X0*%
%ADD25O,1.300000X0.800000*%
%ADD26C,1.200000*%
%ADD27RoundRect,0.237500X0.287500X0.237500X-0.287500X0.237500X-0.287500X-0.237500X0.287500X-0.237500X0*%
%ADD28RoundRect,0.062500X-0.187500X-0.062500X0.187500X-0.062500X0.187500X0.062500X-0.187500X0.062500X0*%
%ADD29C,0.600000*%
%ADD30R,0.840000X2.400000*%
%ADD31R,1.700000X1.700000*%
%ADD32O,1.700000X1.700000*%
%ADD33R,0.200000X0.469999*%
%ADD34R,0.469999X0.200000*%
%ADD35R,1.899999X1.899999*%
%ADD36RoundRect,0.237500X0.250000X0.237500X-0.250000X0.237500X-0.250000X-0.237500X0.250000X-0.237500X0*%
%ADD37RoundRect,0.175000X0.400000X-0.175000X0.400000X0.175000X-0.400000X0.175000X-0.400000X-0.175000X0*%
%ADD38FreePoly0,90.000000*%
%ADD39RoundRect,0.175000X-0.175000X-0.400000X0.175000X-0.400000X0.175000X0.400000X-0.175000X0.400000X0*%
%ADD40FreePoly0,0.000000*%
%ADD41R,4.000000X4.000000*%
%ADD42RoundRect,0.237500X0.300000X0.237500X-0.300000X0.237500X-0.300000X-0.237500X0.300000X-0.237500X0*%
%ADD43R,0.900000X1.000000*%
%ADD44RoundRect,0.237500X-0.237500X0.250000X-0.237500X-0.250000X0.237500X-0.250000X0.237500X0.250000X0*%
%ADD45RoundRect,0.200000X-0.200000X-0.275000X0.200000X-0.275000X0.200000X0.275000X-0.200000X0.275000X0*%
%ADD46RoundRect,0.250000X-0.650000X0.412500X-0.650000X-0.412500X0.650000X-0.412500X0.650000X0.412500X0*%
%ADD47RoundRect,0.200000X0.200000X0.275000X-0.200000X0.275000X-0.200000X-0.275000X0.200000X-0.275000X0*%
G04 APERTURE END LIST*
D10*
X140574580Y-112691792D02*
X140622200Y-112739411D01*
X140622200Y-112739411D02*
X140669819Y-112882268D01*
X140669819Y-112882268D02*
X140669819Y-112977506D01*
X140669819Y-112977506D02*
X140622200Y-113120363D01*
X140622200Y-113120363D02*
X140526961Y-113215601D01*
X140526961Y-113215601D02*
X140431723Y-113263220D01*
X140431723Y-113263220D02*
X140241247Y-113310839D01*
X140241247Y-113310839D02*
X140098390Y-113310839D01*
X140098390Y-113310839D02*
X139907914Y-113263220D01*
X139907914Y-113263220D02*
X139812676Y-113215601D01*
X139812676Y-113215601D02*
X139717438Y-113120363D01*
X139717438Y-113120363D02*
X139669819Y-112977506D01*
X139669819Y-112977506D02*
X139669819Y-112882268D01*
X139669819Y-112882268D02*
X139717438Y-112739411D01*
X139717438Y-112739411D02*
X139765057Y-112691792D01*
X140622200Y-112310839D02*
X140669819Y-112167982D01*
X140669819Y-112167982D02*
X140669819Y-111929887D01*
X140669819Y-111929887D02*
X140622200Y-111834649D01*
X140622200Y-111834649D02*
X140574580Y-111787030D01*
X140574580Y-111787030D02*
X140479342Y-111739411D01*
X140479342Y-111739411D02*
X140384104Y-111739411D01*
X140384104Y-111739411D02*
X140288866Y-111787030D01*
X140288866Y-111787030D02*
X140241247Y-111834649D01*
X140241247Y-111834649D02*
X140193628Y-111929887D01*
X140193628Y-111929887D02*
X140146009Y-112120363D01*
X140146009Y-112120363D02*
X140098390Y-112215601D01*
X140098390Y-112215601D02*
X140050771Y-112263220D01*
X140050771Y-112263220D02*
X139955533Y-112310839D01*
X139955533Y-112310839D02*
X139860295Y-112310839D01*
X139860295Y-112310839D02*
X139765057Y-112263220D01*
X139765057Y-112263220D02*
X139717438Y-112215601D01*
X139717438Y-112215601D02*
X139669819Y-112120363D01*
X139669819Y-112120363D02*
X139669819Y-111882268D01*
X139669819Y-111882268D02*
X139717438Y-111739411D01*
X140384104Y-111358458D02*
X140384104Y-110882268D01*
X140669819Y-111453696D02*
X139669819Y-111120363D01*
X139669819Y-111120363D02*
X140669819Y-110787030D01*
X138174580Y-110541792D02*
X138222200Y-110589411D01*
X138222200Y-110589411D02*
X138269819Y-110732268D01*
X138269819Y-110732268D02*
X138269819Y-110827506D01*
X138269819Y-110827506D02*
X138222200Y-110970363D01*
X138222200Y-110970363D02*
X138126961Y-111065601D01*
X138126961Y-111065601D02*
X138031723Y-111113220D01*
X138031723Y-111113220D02*
X137841247Y-111160839D01*
X137841247Y-111160839D02*
X137698390Y-111160839D01*
X137698390Y-111160839D02*
X137507914Y-111113220D01*
X137507914Y-111113220D02*
X137412676Y-111065601D01*
X137412676Y-111065601D02*
X137317438Y-110970363D01*
X137317438Y-110970363D02*
X137269819Y-110827506D01*
X137269819Y-110827506D02*
X137269819Y-110732268D01*
X137269819Y-110732268D02*
X137317438Y-110589411D01*
X137317438Y-110589411D02*
X137365057Y-110541792D01*
X144458207Y-101874580D02*
X144410588Y-101922200D01*
X144410588Y-101922200D02*
X144267731Y-101969819D01*
X144267731Y-101969819D02*
X144172493Y-101969819D01*
X144172493Y-101969819D02*
X144029636Y-101922200D01*
X144029636Y-101922200D02*
X143934398Y-101826961D01*
X143934398Y-101826961D02*
X143886779Y-101731723D01*
X143886779Y-101731723D02*
X143839160Y-101541247D01*
X143839160Y-101541247D02*
X143839160Y-101398390D01*
X143839160Y-101398390D02*
X143886779Y-101207914D01*
X143886779Y-101207914D02*
X143934398Y-101112676D01*
X143934398Y-101112676D02*
X144029636Y-101017438D01*
X144029636Y-101017438D02*
X144172493Y-100969819D01*
X144172493Y-100969819D02*
X144267731Y-100969819D01*
X144267731Y-100969819D02*
X144410588Y-101017438D01*
X144410588Y-101017438D02*
X144458207Y-101065057D01*
X139936779Y-126769819D02*
X139936779Y-125769819D01*
X139936779Y-125769819D02*
X140317731Y-125769819D01*
X140317731Y-125769819D02*
X140412969Y-125817438D01*
X140412969Y-125817438D02*
X140460588Y-125865057D01*
X140460588Y-125865057D02*
X140508207Y-125960295D01*
X140508207Y-125960295D02*
X140508207Y-126103152D01*
X140508207Y-126103152D02*
X140460588Y-126198390D01*
X140460588Y-126198390D02*
X140412969Y-126246009D01*
X140412969Y-126246009D02*
X140317731Y-126293628D01*
X140317731Y-126293628D02*
X139936779Y-126293628D01*
X140936779Y-126769819D02*
X140936779Y-125769819D01*
X140936779Y-125769819D02*
X141270112Y-126484104D01*
X141270112Y-126484104D02*
X141603445Y-125769819D01*
X141603445Y-125769819D02*
X141603445Y-126769819D01*
X142270112Y-125769819D02*
X142460588Y-125769819D01*
X142460588Y-125769819D02*
X142555826Y-125817438D01*
X142555826Y-125817438D02*
X142651064Y-125912676D01*
X142651064Y-125912676D02*
X142698683Y-126103152D01*
X142698683Y-126103152D02*
X142698683Y-126436485D01*
X142698683Y-126436485D02*
X142651064Y-126626961D01*
X142651064Y-126626961D02*
X142555826Y-126722200D01*
X142555826Y-126722200D02*
X142460588Y-126769819D01*
X142460588Y-126769819D02*
X142270112Y-126769819D01*
X142270112Y-126769819D02*
X142174874Y-126722200D01*
X142174874Y-126722200D02*
X142079636Y-126626961D01*
X142079636Y-126626961D02*
X142032017Y-126436485D01*
X142032017Y-126436485D02*
X142032017Y-126103152D01*
X142032017Y-126103152D02*
X142079636Y-125912676D01*
X142079636Y-125912676D02*
X142174874Y-125817438D01*
X142174874Y-125817438D02*
X142270112Y-125769819D01*
X143079636Y-126722200D02*
X143222493Y-126769819D01*
X143222493Y-126769819D02*
X143460588Y-126769819D01*
X143460588Y-126769819D02*
X143555826Y-126722200D01*
X143555826Y-126722200D02*
X143603445Y-126674580D01*
X143603445Y-126674580D02*
X143651064Y-126579342D01*
X143651064Y-126579342D02*
X143651064Y-126484104D01*
X143651064Y-126484104D02*
X143603445Y-126388866D01*
X143603445Y-126388866D02*
X143555826Y-126341247D01*
X143555826Y-126341247D02*
X143460588Y-126293628D01*
X143460588Y-126293628D02*
X143270112Y-126246009D01*
X143270112Y-126246009D02*
X143174874Y-126198390D01*
X143174874Y-126198390D02*
X143127255Y-126150771D01*
X143127255Y-126150771D02*
X143079636Y-126055533D01*
X143079636Y-126055533D02*
X143079636Y-125960295D01*
X143079636Y-125960295D02*
X143127255Y-125865057D01*
X143127255Y-125865057D02*
X143174874Y-125817438D01*
X143174874Y-125817438D02*
X143270112Y-125769819D01*
X143270112Y-125769819D02*
X143508207Y-125769819D01*
X143508207Y-125769819D02*
X143651064Y-125817438D01*
X157270112Y-121046009D02*
X157412969Y-121093628D01*
X157412969Y-121093628D02*
X157460588Y-121141247D01*
X157460588Y-121141247D02*
X157508207Y-121236485D01*
X157508207Y-121236485D02*
X157508207Y-121379342D01*
X157508207Y-121379342D02*
X157460588Y-121474580D01*
X157460588Y-121474580D02*
X157412969Y-121522200D01*
X157412969Y-121522200D02*
X157317731Y-121569819D01*
X157317731Y-121569819D02*
X156936779Y-121569819D01*
X156936779Y-121569819D02*
X156936779Y-120569819D01*
X156936779Y-120569819D02*
X157270112Y-120569819D01*
X157270112Y-120569819D02*
X157365350Y-120617438D01*
X157365350Y-120617438D02*
X157412969Y-120665057D01*
X157412969Y-120665057D02*
X157460588Y-120760295D01*
X157460588Y-120760295D02*
X157460588Y-120855533D01*
X157460588Y-120855533D02*
X157412969Y-120950771D01*
X157412969Y-120950771D02*
X157365350Y-120998390D01*
X157365350Y-120998390D02*
X157270112Y-121046009D01*
X157270112Y-121046009D02*
X156936779Y-121046009D01*
X157889160Y-121284104D02*
X158365350Y-121284104D01*
X157793922Y-121569819D02*
X158127255Y-120569819D01*
X158127255Y-120569819D02*
X158460588Y-121569819D01*
X158651065Y-120569819D02*
X159222493Y-120569819D01*
X158936779Y-121569819D02*
X158936779Y-120569819D01*
X159412970Y-120569819D02*
X159984398Y-120569819D01*
X159698684Y-121569819D02*
X159698684Y-120569819D01*
X160317732Y-121188866D02*
X161079637Y-121188866D01*
X160698684Y-121569819D02*
X160698684Y-120807914D01*
X135146009Y-110779887D02*
X135193628Y-110637030D01*
X135193628Y-110637030D02*
X135241247Y-110589411D01*
X135241247Y-110589411D02*
X135336485Y-110541792D01*
X135336485Y-110541792D02*
X135479342Y-110541792D01*
X135479342Y-110541792D02*
X135574580Y-110589411D01*
X135574580Y-110589411D02*
X135622200Y-110637030D01*
X135622200Y-110637030D02*
X135669819Y-110732268D01*
X135669819Y-110732268D02*
X135669819Y-111113220D01*
X135669819Y-111113220D02*
X134669819Y-111113220D01*
X134669819Y-111113220D02*
X134669819Y-110779887D01*
X134669819Y-110779887D02*
X134717438Y-110684649D01*
X134717438Y-110684649D02*
X134765057Y-110637030D01*
X134765057Y-110637030D02*
X134860295Y-110589411D01*
X134860295Y-110589411D02*
X134955533Y-110589411D01*
X134955533Y-110589411D02*
X135050771Y-110637030D01*
X135050771Y-110637030D02*
X135098390Y-110684649D01*
X135098390Y-110684649D02*
X135146009Y-110779887D01*
X135146009Y-110779887D02*
X135146009Y-111113220D01*
X132784104Y-111160839D02*
X132784104Y-110684649D01*
X133069819Y-111256077D02*
X132069819Y-110922744D01*
X132069819Y-110922744D02*
X133069819Y-110589411D01*
X143939160Y-107384104D02*
X144415350Y-107384104D01*
X143843922Y-107669819D02*
X144177255Y-106669819D01*
X144177255Y-106669819D02*
X144510588Y-107669819D01*
X126196554Y-95034942D02*
X126291792Y-95082561D01*
X126291792Y-95082561D02*
X126387030Y-95177800D01*
X126387030Y-95177800D02*
X126529887Y-95320657D01*
X126529887Y-95320657D02*
X126625125Y-95368276D01*
X126625125Y-95368276D02*
X126720363Y-95368276D01*
X126672744Y-95130180D02*
X126767982Y-95177800D01*
X126767982Y-95177800D02*
X126863220Y-95273038D01*
X126863220Y-95273038D02*
X126910839Y-95463514D01*
X126910839Y-95463514D02*
X126910839Y-95796847D01*
X126910839Y-95796847D02*
X126863220Y-95987323D01*
X126863220Y-95987323D02*
X126767982Y-96082561D01*
X126767982Y-96082561D02*
X126672744Y-96130180D01*
X126672744Y-96130180D02*
X126482268Y-96130180D01*
X126482268Y-96130180D02*
X126387030Y-96082561D01*
X126387030Y-96082561D02*
X126291792Y-95987323D01*
X126291792Y-95987323D02*
X126244173Y-95796847D01*
X126244173Y-95796847D02*
X126244173Y-95463514D01*
X126244173Y-95463514D02*
X126291792Y-95273038D01*
X126291792Y-95273038D02*
X126387030Y-95177800D01*
X126387030Y-95177800D02*
X126482268Y-95130180D01*
X126482268Y-95130180D02*
X126672744Y-95130180D01*
X125910839Y-96130180D02*
X125672744Y-95130180D01*
X125672744Y-95130180D02*
X125482268Y-95844466D01*
X125482268Y-95844466D02*
X125291792Y-95130180D01*
X125291792Y-95130180D02*
X125053697Y-96130180D01*
X124672744Y-95130180D02*
X124672744Y-96130180D01*
X124196554Y-95130180D02*
X124196554Y-96130180D01*
X123148936Y-95225419D02*
X123196555Y-95177800D01*
X123196555Y-95177800D02*
X123339412Y-95130180D01*
X123339412Y-95130180D02*
X123434650Y-95130180D01*
X123434650Y-95130180D02*
X123577507Y-95177800D01*
X123577507Y-95177800D02*
X123672745Y-95273038D01*
X123672745Y-95273038D02*
X123720364Y-95368276D01*
X123720364Y-95368276D02*
X123767983Y-95558752D01*
X123767983Y-95558752D02*
X123767983Y-95701609D01*
X123767983Y-95701609D02*
X123720364Y-95892085D01*
X123720364Y-95892085D02*
X123672745Y-95987323D01*
X123672745Y-95987323D02*
X123577507Y-96082561D01*
X123577507Y-96082561D02*
X123434650Y-96130180D01*
X123434650Y-96130180D02*
X123339412Y-96130180D01*
X123339412Y-96130180D02*
X123196555Y-96082561D01*
X123196555Y-96082561D02*
X123148936Y-96034942D01*
X148189160Y-106865057D02*
X148236779Y-106817438D01*
X148236779Y-106817438D02*
X148332017Y-106769819D01*
X148332017Y-106769819D02*
X148570112Y-106769819D01*
X148570112Y-106769819D02*
X148665350Y-106817438D01*
X148665350Y-106817438D02*
X148712969Y-106865057D01*
X148712969Y-106865057D02*
X148760588Y-106960295D01*
X148760588Y-106960295D02*
X148760588Y-107055533D01*
X148760588Y-107055533D02*
X148712969Y-107198390D01*
X148712969Y-107198390D02*
X148141541Y-107769819D01*
X148141541Y-107769819D02*
X148760588Y-107769819D01*
X149141541Y-106865057D02*
X149189160Y-106817438D01*
X149189160Y-106817438D02*
X149284398Y-106769819D01*
X149284398Y-106769819D02*
X149522493Y-106769819D01*
X149522493Y-106769819D02*
X149617731Y-106817438D01*
X149617731Y-106817438D02*
X149665350Y-106865057D01*
X149665350Y-106865057D02*
X149712969Y-106960295D01*
X149712969Y-106960295D02*
X149712969Y-107055533D01*
X149712969Y-107055533D02*
X149665350Y-107198390D01*
X149665350Y-107198390D02*
X149093922Y-107769819D01*
X149093922Y-107769819D02*
X149712969Y-107769819D01*
X150332017Y-106769819D02*
X150427255Y-106769819D01*
X150427255Y-106769819D02*
X150522493Y-106817438D01*
X150522493Y-106817438D02*
X150570112Y-106865057D01*
X150570112Y-106865057D02*
X150617731Y-106960295D01*
X150617731Y-106960295D02*
X150665350Y-107150771D01*
X150665350Y-107150771D02*
X150665350Y-107388866D01*
X150665350Y-107388866D02*
X150617731Y-107579342D01*
X150617731Y-107579342D02*
X150570112Y-107674580D01*
X150570112Y-107674580D02*
X150522493Y-107722200D01*
X150522493Y-107722200D02*
X150427255Y-107769819D01*
X150427255Y-107769819D02*
X150332017Y-107769819D01*
X150332017Y-107769819D02*
X150236779Y-107722200D01*
X150236779Y-107722200D02*
X150189160Y-107674580D01*
X150189160Y-107674580D02*
X150141541Y-107579342D01*
X150141541Y-107579342D02*
X150093922Y-107388866D01*
X150093922Y-107388866D02*
X150093922Y-107150771D01*
X150093922Y-107150771D02*
X150141541Y-106960295D01*
X150141541Y-106960295D02*
X150189160Y-106865057D01*
X150189160Y-106865057D02*
X150236779Y-106817438D01*
X150236779Y-106817438D02*
X150332017Y-106769819D01*
X150951065Y-107388866D02*
X150998684Y-107341247D01*
X150998684Y-107341247D02*
X151093922Y-107293628D01*
X151093922Y-107293628D02*
X151284398Y-107388866D01*
X151284398Y-107388866D02*
X151379636Y-107341247D01*
X151379636Y-107341247D02*
X151427255Y-107293628D01*
X152332017Y-107769819D02*
X151760589Y-107769819D01*
X152046303Y-107769819D02*
X152046303Y-106769819D01*
X152046303Y-106769819D02*
X151951065Y-106912676D01*
X151951065Y-106912676D02*
X151855827Y-107007914D01*
X151855827Y-107007914D02*
X151760589Y-107055533D01*
X152951065Y-106769819D02*
X153046303Y-106769819D01*
X153046303Y-106769819D02*
X153141541Y-106817438D01*
X153141541Y-106817438D02*
X153189160Y-106865057D01*
X153189160Y-106865057D02*
X153236779Y-106960295D01*
X153236779Y-106960295D02*
X153284398Y-107150771D01*
X153284398Y-107150771D02*
X153284398Y-107388866D01*
X153284398Y-107388866D02*
X153236779Y-107579342D01*
X153236779Y-107579342D02*
X153189160Y-107674580D01*
X153189160Y-107674580D02*
X153141541Y-107722200D01*
X153141541Y-107722200D02*
X153046303Y-107769819D01*
X153046303Y-107769819D02*
X152951065Y-107769819D01*
X152951065Y-107769819D02*
X152855827Y-107722200D01*
X152855827Y-107722200D02*
X152808208Y-107674580D01*
X152808208Y-107674580D02*
X152760589Y-107579342D01*
X152760589Y-107579342D02*
X152712970Y-107388866D01*
X152712970Y-107388866D02*
X152712970Y-107150771D01*
X152712970Y-107150771D02*
X152760589Y-106960295D01*
X152760589Y-106960295D02*
X152808208Y-106865057D01*
X152808208Y-106865057D02*
X152855827Y-106817438D01*
X152855827Y-106817438D02*
X152951065Y-106769819D01*
X153903446Y-106769819D02*
X153998684Y-106769819D01*
X153998684Y-106769819D02*
X154093922Y-106817438D01*
X154093922Y-106817438D02*
X154141541Y-106865057D01*
X154141541Y-106865057D02*
X154189160Y-106960295D01*
X154189160Y-106960295D02*
X154236779Y-107150771D01*
X154236779Y-107150771D02*
X154236779Y-107388866D01*
X154236779Y-107388866D02*
X154189160Y-107579342D01*
X154189160Y-107579342D02*
X154141541Y-107674580D01*
X154141541Y-107674580D02*
X154093922Y-107722200D01*
X154093922Y-107722200D02*
X153998684Y-107769819D01*
X153998684Y-107769819D02*
X153903446Y-107769819D01*
X153903446Y-107769819D02*
X153808208Y-107722200D01*
X153808208Y-107722200D02*
X153760589Y-107674580D01*
X153760589Y-107674580D02*
X153712970Y-107579342D01*
X153712970Y-107579342D02*
X153665351Y-107388866D01*
X153665351Y-107388866D02*
X153665351Y-107150771D01*
X153665351Y-107150771D02*
X153712970Y-106960295D01*
X153712970Y-106960295D02*
X153760589Y-106865057D01*
X153760589Y-106865057D02*
X153808208Y-106817438D01*
X153808208Y-106817438D02*
X153903446Y-106769819D01*
X154855827Y-106769819D02*
X154951065Y-106769819D01*
X154951065Y-106769819D02*
X155046303Y-106817438D01*
X155046303Y-106817438D02*
X155093922Y-106865057D01*
X155093922Y-106865057D02*
X155141541Y-106960295D01*
X155141541Y-106960295D02*
X155189160Y-107150771D01*
X155189160Y-107150771D02*
X155189160Y-107388866D01*
X155189160Y-107388866D02*
X155141541Y-107579342D01*
X155141541Y-107579342D02*
X155093922Y-107674580D01*
X155093922Y-107674580D02*
X155046303Y-107722200D01*
X155046303Y-107722200D02*
X154951065Y-107769819D01*
X154951065Y-107769819D02*
X154855827Y-107769819D01*
X154855827Y-107769819D02*
X154760589Y-107722200D01*
X154760589Y-107722200D02*
X154712970Y-107674580D01*
X154712970Y-107674580D02*
X154665351Y-107579342D01*
X154665351Y-107579342D02*
X154617732Y-107388866D01*
X154617732Y-107388866D02*
X154617732Y-107150771D01*
X154617732Y-107150771D02*
X154665351Y-106960295D01*
X154665351Y-106960295D02*
X154712970Y-106865057D01*
X154712970Y-106865057D02*
X154760589Y-106817438D01*
X154760589Y-106817438D02*
X154855827Y-106769819D01*
X156046303Y-107103152D02*
X156046303Y-107769819D01*
X155617732Y-107103152D02*
X155617732Y-107626961D01*
X155617732Y-107626961D02*
X155665351Y-107722200D01*
X155665351Y-107722200D02*
X155760589Y-107769819D01*
X155760589Y-107769819D02*
X155903446Y-107769819D01*
X155903446Y-107769819D02*
X155998684Y-107722200D01*
X155998684Y-107722200D02*
X156046303Y-107674580D01*
X156855827Y-107246009D02*
X156522494Y-107246009D01*
X156522494Y-107769819D02*
X156522494Y-106769819D01*
X156522494Y-106769819D02*
X156998684Y-106769819D01*
X144320112Y-104346009D02*
X144462969Y-104393628D01*
X144462969Y-104393628D02*
X144510588Y-104441247D01*
X144510588Y-104441247D02*
X144558207Y-104536485D01*
X144558207Y-104536485D02*
X144558207Y-104679342D01*
X144558207Y-104679342D02*
X144510588Y-104774580D01*
X144510588Y-104774580D02*
X144462969Y-104822200D01*
X144462969Y-104822200D02*
X144367731Y-104869819D01*
X144367731Y-104869819D02*
X143986779Y-104869819D01*
X143986779Y-104869819D02*
X143986779Y-103869819D01*
X143986779Y-103869819D02*
X144320112Y-103869819D01*
X144320112Y-103869819D02*
X144415350Y-103917438D01*
X144415350Y-103917438D02*
X144462969Y-103965057D01*
X144462969Y-103965057D02*
X144510588Y-104060295D01*
X144510588Y-104060295D02*
X144510588Y-104155533D01*
X144510588Y-104155533D02*
X144462969Y-104250771D01*
X144462969Y-104250771D02*
X144415350Y-104298390D01*
X144415350Y-104298390D02*
X144320112Y-104346009D01*
X144320112Y-104346009D02*
X143986779Y-104346009D01*
X151136779Y-117469819D02*
X151136779Y-116469819D01*
X151136779Y-116469819D02*
X151708207Y-117469819D01*
X151708207Y-117469819D02*
X151708207Y-116469819D01*
X152184398Y-117469819D02*
X152184398Y-116469819D01*
X152184398Y-116469819D02*
X152517731Y-117184104D01*
X152517731Y-117184104D02*
X152851064Y-116469819D01*
X152851064Y-116469819D02*
X152851064Y-117469819D01*
X153517731Y-116469819D02*
X153708207Y-116469819D01*
X153708207Y-116469819D02*
X153803445Y-116517438D01*
X153803445Y-116517438D02*
X153898683Y-116612676D01*
X153898683Y-116612676D02*
X153946302Y-116803152D01*
X153946302Y-116803152D02*
X153946302Y-117136485D01*
X153946302Y-117136485D02*
X153898683Y-117326961D01*
X153898683Y-117326961D02*
X153803445Y-117422200D01*
X153803445Y-117422200D02*
X153708207Y-117469819D01*
X153708207Y-117469819D02*
X153517731Y-117469819D01*
X153517731Y-117469819D02*
X153422493Y-117422200D01*
X153422493Y-117422200D02*
X153327255Y-117326961D01*
X153327255Y-117326961D02*
X153279636Y-117136485D01*
X153279636Y-117136485D02*
X153279636Y-116803152D01*
X153279636Y-116803152D02*
X153327255Y-116612676D01*
X153327255Y-116612676D02*
X153422493Y-116517438D01*
X153422493Y-116517438D02*
X153517731Y-116469819D01*
X154327255Y-117422200D02*
X154470112Y-117469819D01*
X154470112Y-117469819D02*
X154708207Y-117469819D01*
X154708207Y-117469819D02*
X154803445Y-117422200D01*
X154803445Y-117422200D02*
X154851064Y-117374580D01*
X154851064Y-117374580D02*
X154898683Y-117279342D01*
X154898683Y-117279342D02*
X154898683Y-117184104D01*
X154898683Y-117184104D02*
X154851064Y-117088866D01*
X154851064Y-117088866D02*
X154803445Y-117041247D01*
X154803445Y-117041247D02*
X154708207Y-116993628D01*
X154708207Y-116993628D02*
X154517731Y-116946009D01*
X154517731Y-116946009D02*
X154422493Y-116898390D01*
X154422493Y-116898390D02*
X154374874Y-116850771D01*
X154374874Y-116850771D02*
X154327255Y-116755533D01*
X154327255Y-116755533D02*
X154327255Y-116660295D01*
X154327255Y-116660295D02*
X154374874Y-116565057D01*
X154374874Y-116565057D02*
X154422493Y-116517438D01*
X154422493Y-116517438D02*
X154517731Y-116469819D01*
X154517731Y-116469819D02*
X154755826Y-116469819D01*
X154755826Y-116469819D02*
X154898683Y-116517438D01*
X146763220Y-93230180D02*
X146763220Y-92420657D01*
X146763220Y-92420657D02*
X146715601Y-92325419D01*
X146715601Y-92325419D02*
X146667982Y-92277800D01*
X146667982Y-92277800D02*
X146572744Y-92230180D01*
X146572744Y-92230180D02*
X146382268Y-92230180D01*
X146382268Y-92230180D02*
X146287030Y-92277800D01*
X146287030Y-92277800D02*
X146239411Y-92325419D01*
X146239411Y-92325419D02*
X146191792Y-92420657D01*
X146191792Y-92420657D02*
X146191792Y-93230180D01*
X145763220Y-92515895D02*
X145287030Y-92515895D01*
X145858458Y-92230180D02*
X145525125Y-93230180D01*
X145525125Y-93230180D02*
X145191792Y-92230180D01*
X144287030Y-92230180D02*
X144620363Y-92706371D01*
X144858458Y-92230180D02*
X144858458Y-93230180D01*
X144858458Y-93230180D02*
X144477506Y-93230180D01*
X144477506Y-93230180D02*
X144382268Y-93182561D01*
X144382268Y-93182561D02*
X144334649Y-93134942D01*
X144334649Y-93134942D02*
X144287030Y-93039704D01*
X144287030Y-93039704D02*
X144287030Y-92896847D01*
X144287030Y-92896847D02*
X144334649Y-92801609D01*
X144334649Y-92801609D02*
X144382268Y-92753990D01*
X144382268Y-92753990D02*
X144477506Y-92706371D01*
X144477506Y-92706371D02*
X144858458Y-92706371D01*
X144001315Y-93230180D02*
X143429887Y-93230180D01*
X143715601Y-92230180D02*
X143715601Y-93230180D01*
X142572744Y-92230180D02*
X143144172Y-92230180D01*
X142858458Y-92230180D02*
X142858458Y-93230180D01*
X142858458Y-93230180D02*
X142953696Y-93087323D01*
X142953696Y-93087323D02*
X143048934Y-92992085D01*
X143048934Y-92992085D02*
X143144172Y-92944466D01*
X128225469Y-120969819D02*
X127749279Y-120969819D01*
X127749279Y-120969819D02*
X127701660Y-121446009D01*
X127701660Y-121446009D02*
X127749279Y-121398390D01*
X127749279Y-121398390D02*
X127844517Y-121350771D01*
X127844517Y-121350771D02*
X128082612Y-121350771D01*
X128082612Y-121350771D02*
X128177850Y-121398390D01*
X128177850Y-121398390D02*
X128225469Y-121446009D01*
X128225469Y-121446009D02*
X128273088Y-121541247D01*
X128273088Y-121541247D02*
X128273088Y-121779342D01*
X128273088Y-121779342D02*
X128225469Y-121874580D01*
X128225469Y-121874580D02*
X128177850Y-121922200D01*
X128177850Y-121922200D02*
X128082612Y-121969819D01*
X128082612Y-121969819D02*
X127844517Y-121969819D01*
X127844517Y-121969819D02*
X127749279Y-121922200D01*
X127749279Y-121922200D02*
X127701660Y-121874580D01*
X128558803Y-120969819D02*
X128892136Y-121969819D01*
X128892136Y-121969819D02*
X129225469Y-120969819D01*
X130844517Y-121969819D02*
X130273089Y-121969819D01*
X130558803Y-121969819D02*
X130558803Y-120969819D01*
X130558803Y-120969819D02*
X130463565Y-121112676D01*
X130463565Y-121112676D02*
X130368327Y-121207914D01*
X130368327Y-121207914D02*
X130273089Y-121255533D01*
X131225470Y-121684104D02*
X131701660Y-121684104D01*
X131130232Y-121969819D02*
X131463565Y-120969819D01*
X131463565Y-120969819D02*
X131796898Y-121969819D01*
X142310839Y-94977800D02*
X142167982Y-94930180D01*
X142167982Y-94930180D02*
X141929887Y-94930180D01*
X141929887Y-94930180D02*
X141834649Y-94977800D01*
X141834649Y-94977800D02*
X141787030Y-95025419D01*
X141787030Y-95025419D02*
X141739411Y-95120657D01*
X141739411Y-95120657D02*
X141739411Y-95215895D01*
X141739411Y-95215895D02*
X141787030Y-95311133D01*
X141787030Y-95311133D02*
X141834649Y-95358752D01*
X141834649Y-95358752D02*
X141929887Y-95406371D01*
X141929887Y-95406371D02*
X142120363Y-95453990D01*
X142120363Y-95453990D02*
X142215601Y-95501609D01*
X142215601Y-95501609D02*
X142263220Y-95549228D01*
X142263220Y-95549228D02*
X142310839Y-95644466D01*
X142310839Y-95644466D02*
X142310839Y-95739704D01*
X142310839Y-95739704D02*
X142263220Y-95834942D01*
X142263220Y-95834942D02*
X142215601Y-95882561D01*
X142215601Y-95882561D02*
X142120363Y-95930180D01*
X142120363Y-95930180D02*
X141882268Y-95930180D01*
X141882268Y-95930180D02*
X141739411Y-95882561D01*
X141310839Y-94930180D02*
X141310839Y-95930180D01*
X141310839Y-95930180D02*
X140929887Y-95930180D01*
X140929887Y-95930180D02*
X140834649Y-95882561D01*
X140834649Y-95882561D02*
X140787030Y-95834942D01*
X140787030Y-95834942D02*
X140739411Y-95739704D01*
X140739411Y-95739704D02*
X140739411Y-95596847D01*
X140739411Y-95596847D02*
X140787030Y-95501609D01*
X140787030Y-95501609D02*
X140834649Y-95453990D01*
X140834649Y-95453990D02*
X140929887Y-95406371D01*
X140929887Y-95406371D02*
X141310839Y-95406371D01*
X140310839Y-94930180D02*
X140310839Y-95930180D01*
X139310840Y-94930180D02*
X139882268Y-94930180D01*
X139596554Y-94930180D02*
X139596554Y-95930180D01*
X139596554Y-95930180D02*
X139691792Y-95787323D01*
X139691792Y-95787323D02*
X139787030Y-95692085D01*
X139787030Y-95692085D02*
X139882268Y-95644466D01*
X128369642Y-124854819D02*
X128036309Y-124378628D01*
X127798214Y-124854819D02*
X127798214Y-123854819D01*
X127798214Y-123854819D02*
X128179166Y-123854819D01*
X128179166Y-123854819D02*
X128274404Y-123902438D01*
X128274404Y-123902438D02*
X128322023Y-123950057D01*
X128322023Y-123950057D02*
X128369642Y-124045295D01*
X128369642Y-124045295D02*
X128369642Y-124188152D01*
X128369642Y-124188152D02*
X128322023Y-124283390D01*
X128322023Y-124283390D02*
X128274404Y-124331009D01*
X128274404Y-124331009D02*
X128179166Y-124378628D01*
X128179166Y-124378628D02*
X127798214Y-124378628D01*
X129322023Y-124854819D02*
X128750595Y-124854819D01*
X129036309Y-124854819D02*
X129036309Y-123854819D01*
X129036309Y-123854819D02*
X128941071Y-123997676D01*
X128941071Y-123997676D02*
X128845833Y-124092914D01*
X128845833Y-124092914D02*
X128750595Y-124140533D01*
X129702976Y-123950057D02*
X129750595Y-123902438D01*
X129750595Y-123902438D02*
X129845833Y-123854819D01*
X129845833Y-123854819D02*
X130083928Y-123854819D01*
X130083928Y-123854819D02*
X130179166Y-123902438D01*
X130179166Y-123902438D02*
X130226785Y-123950057D01*
X130226785Y-123950057D02*
X130274404Y-124045295D01*
X130274404Y-124045295D02*
X130274404Y-124140533D01*
X130274404Y-124140533D02*
X130226785Y-124283390D01*
X130226785Y-124283390D02*
X129655357Y-124854819D01*
X129655357Y-124854819D02*
X130274404Y-124854819D01*
X125133333Y-101759580D02*
X125085714Y-101807200D01*
X125085714Y-101807200D02*
X124942857Y-101854819D01*
X124942857Y-101854819D02*
X124847619Y-101854819D01*
X124847619Y-101854819D02*
X124704762Y-101807200D01*
X124704762Y-101807200D02*
X124609524Y-101711961D01*
X124609524Y-101711961D02*
X124561905Y-101616723D01*
X124561905Y-101616723D02*
X124514286Y-101426247D01*
X124514286Y-101426247D02*
X124514286Y-101283390D01*
X124514286Y-101283390D02*
X124561905Y-101092914D01*
X124561905Y-101092914D02*
X124609524Y-100997676D01*
X124609524Y-100997676D02*
X124704762Y-100902438D01*
X124704762Y-100902438D02*
X124847619Y-100854819D01*
X124847619Y-100854819D02*
X124942857Y-100854819D01*
X124942857Y-100854819D02*
X125085714Y-100902438D01*
X125085714Y-100902438D02*
X125133333Y-100950057D01*
X125466667Y-100854819D02*
X126085714Y-100854819D01*
X126085714Y-100854819D02*
X125752381Y-101235771D01*
X125752381Y-101235771D02*
X125895238Y-101235771D01*
X125895238Y-101235771D02*
X125990476Y-101283390D01*
X125990476Y-101283390D02*
X126038095Y-101331009D01*
X126038095Y-101331009D02*
X126085714Y-101426247D01*
X126085714Y-101426247D02*
X126085714Y-101664342D01*
X126085714Y-101664342D02*
X126038095Y-101759580D01*
X126038095Y-101759580D02*
X125990476Y-101807200D01*
X125990476Y-101807200D02*
X125895238Y-101854819D01*
X125895238Y-101854819D02*
X125609524Y-101854819D01*
X125609524Y-101854819D02*
X125514286Y-101807200D01*
X125514286Y-101807200D02*
X125466667Y-101759580D01*
X125059358Y-103753715D02*
X125434602Y-104046887D01*
X124441370Y-103693896D02*
X125059358Y-103753715D01*
X125059358Y-103753715D02*
X124851811Y-103168556D01*
X126167532Y-103108779D02*
X125815725Y-103559071D01*
X125991629Y-103333925D02*
X125203618Y-102718264D01*
X125203618Y-102718264D02*
X125257557Y-102881264D01*
X125257557Y-102881264D02*
X125273971Y-103014947D01*
X125273971Y-103014947D02*
X125252861Y-103119313D01*
X134538095Y-97490819D02*
X134538095Y-98300342D01*
X134538095Y-98300342D02*
X134585714Y-98395580D01*
X134585714Y-98395580D02*
X134633333Y-98443200D01*
X134633333Y-98443200D02*
X134728571Y-98490819D01*
X134728571Y-98490819D02*
X134919047Y-98490819D01*
X134919047Y-98490819D02*
X135014285Y-98443200D01*
X135014285Y-98443200D02*
X135061904Y-98395580D01*
X135061904Y-98395580D02*
X135109523Y-98300342D01*
X135109523Y-98300342D02*
X135109523Y-97490819D01*
X136109523Y-98490819D02*
X135538095Y-98490819D01*
X135823809Y-98490819D02*
X135823809Y-97490819D01*
X135823809Y-97490819D02*
X135728571Y-97633676D01*
X135728571Y-97633676D02*
X135633333Y-97728914D01*
X135633333Y-97728914D02*
X135538095Y-97776533D01*
X143557142Y-99959580D02*
X143509523Y-100007200D01*
X143509523Y-100007200D02*
X143366666Y-100054819D01*
X143366666Y-100054819D02*
X143271428Y-100054819D01*
X143271428Y-100054819D02*
X143128571Y-100007200D01*
X143128571Y-100007200D02*
X143033333Y-99911961D01*
X143033333Y-99911961D02*
X142985714Y-99816723D01*
X142985714Y-99816723D02*
X142938095Y-99626247D01*
X142938095Y-99626247D02*
X142938095Y-99483390D01*
X142938095Y-99483390D02*
X142985714Y-99292914D01*
X142985714Y-99292914D02*
X143033333Y-99197676D01*
X143033333Y-99197676D02*
X143128571Y-99102438D01*
X143128571Y-99102438D02*
X143271428Y-99054819D01*
X143271428Y-99054819D02*
X143366666Y-99054819D01*
X143366666Y-99054819D02*
X143509523Y-99102438D01*
X143509523Y-99102438D02*
X143557142Y-99150057D01*
X144509523Y-100054819D02*
X143938095Y-100054819D01*
X144223809Y-100054819D02*
X144223809Y-99054819D01*
X144223809Y-99054819D02*
X144128571Y-99197676D01*
X144128571Y-99197676D02*
X144033333Y-99292914D01*
X144033333Y-99292914D02*
X143938095Y-99340533D01*
X145128571Y-99054819D02*
X145223809Y-99054819D01*
X145223809Y-99054819D02*
X145319047Y-99102438D01*
X145319047Y-99102438D02*
X145366666Y-99150057D01*
X145366666Y-99150057D02*
X145414285Y-99245295D01*
X145414285Y-99245295D02*
X145461904Y-99435771D01*
X145461904Y-99435771D02*
X145461904Y-99673866D01*
X145461904Y-99673866D02*
X145414285Y-99864342D01*
X145414285Y-99864342D02*
X145366666Y-99959580D01*
X145366666Y-99959580D02*
X145319047Y-100007200D01*
X145319047Y-100007200D02*
X145223809Y-100054819D01*
X145223809Y-100054819D02*
X145128571Y-100054819D01*
X145128571Y-100054819D02*
X145033333Y-100007200D01*
X145033333Y-100007200D02*
X144985714Y-99959580D01*
X144985714Y-99959580D02*
X144938095Y-99864342D01*
X144938095Y-99864342D02*
X144890476Y-99673866D01*
X144890476Y-99673866D02*
X144890476Y-99435771D01*
X144890476Y-99435771D02*
X144938095Y-99245295D01*
X144938095Y-99245295D02*
X144985714Y-99150057D01*
X144985714Y-99150057D02*
X145033333Y-99102438D01*
X145033333Y-99102438D02*
X145128571Y-99054819D01*
X152933333Y-98759580D02*
X152885714Y-98807200D01*
X152885714Y-98807200D02*
X152742857Y-98854819D01*
X152742857Y-98854819D02*
X152647619Y-98854819D01*
X152647619Y-98854819D02*
X152504762Y-98807200D01*
X152504762Y-98807200D02*
X152409524Y-98711961D01*
X152409524Y-98711961D02*
X152361905Y-98616723D01*
X152361905Y-98616723D02*
X152314286Y-98426247D01*
X152314286Y-98426247D02*
X152314286Y-98283390D01*
X152314286Y-98283390D02*
X152361905Y-98092914D01*
X152361905Y-98092914D02*
X152409524Y-97997676D01*
X152409524Y-97997676D02*
X152504762Y-97902438D01*
X152504762Y-97902438D02*
X152647619Y-97854819D01*
X152647619Y-97854819D02*
X152742857Y-97854819D01*
X152742857Y-97854819D02*
X152885714Y-97902438D01*
X152885714Y-97902438D02*
X152933333Y-97950057D01*
X153266667Y-97854819D02*
X153933333Y-97854819D01*
X153933333Y-97854819D02*
X153504762Y-98854819D01*
X126866666Y-90854819D02*
X126866666Y-91569104D01*
X126866666Y-91569104D02*
X126819047Y-91711961D01*
X126819047Y-91711961D02*
X126723809Y-91807200D01*
X126723809Y-91807200D02*
X126580952Y-91854819D01*
X126580952Y-91854819D02*
X126485714Y-91854819D01*
X127866666Y-91854819D02*
X127295238Y-91854819D01*
X127580952Y-91854819D02*
X127580952Y-90854819D01*
X127580952Y-90854819D02*
X127485714Y-90997676D01*
X127485714Y-90997676D02*
X127390476Y-91092914D01*
X127390476Y-91092914D02*
X127295238Y-91140533D01*
X159154819Y-96033333D02*
X159869104Y-96033333D01*
X159869104Y-96033333D02*
X160011961Y-96080952D01*
X160011961Y-96080952D02*
X160107200Y-96176190D01*
X160107200Y-96176190D02*
X160154819Y-96319047D01*
X160154819Y-96319047D02*
X160154819Y-96414285D01*
X159154819Y-95652380D02*
X159154819Y-95033333D01*
X159154819Y-95033333D02*
X159535771Y-95366666D01*
X159535771Y-95366666D02*
X159535771Y-95223809D01*
X159535771Y-95223809D02*
X159583390Y-95128571D01*
X159583390Y-95128571D02*
X159631009Y-95080952D01*
X159631009Y-95080952D02*
X159726247Y-95033333D01*
X159726247Y-95033333D02*
X159964342Y-95033333D01*
X159964342Y-95033333D02*
X160059580Y-95080952D01*
X160059580Y-95080952D02*
X160107200Y-95128571D01*
X160107200Y-95128571D02*
X160154819Y-95223809D01*
X160154819Y-95223809D02*
X160154819Y-95509523D01*
X160154819Y-95509523D02*
X160107200Y-95604761D01*
X160107200Y-95604761D02*
X160059580Y-95652380D01*
X147157142Y-109459580D02*
X147109523Y-109507200D01*
X147109523Y-109507200D02*
X146966666Y-109554819D01*
X146966666Y-109554819D02*
X146871428Y-109554819D01*
X146871428Y-109554819D02*
X146728571Y-109507200D01*
X146728571Y-109507200D02*
X146633333Y-109411961D01*
X146633333Y-109411961D02*
X146585714Y-109316723D01*
X146585714Y-109316723D02*
X146538095Y-109126247D01*
X146538095Y-109126247D02*
X146538095Y-108983390D01*
X146538095Y-108983390D02*
X146585714Y-108792914D01*
X146585714Y-108792914D02*
X146633333Y-108697676D01*
X146633333Y-108697676D02*
X146728571Y-108602438D01*
X146728571Y-108602438D02*
X146871428Y-108554819D01*
X146871428Y-108554819D02*
X146966666Y-108554819D01*
X146966666Y-108554819D02*
X147109523Y-108602438D01*
X147109523Y-108602438D02*
X147157142Y-108650057D01*
X148109523Y-109554819D02*
X147538095Y-109554819D01*
X147823809Y-109554819D02*
X147823809Y-108554819D01*
X147823809Y-108554819D02*
X147728571Y-108697676D01*
X147728571Y-108697676D02*
X147633333Y-108792914D01*
X147633333Y-108792914D02*
X147538095Y-108840533D01*
X149014285Y-108554819D02*
X148538095Y-108554819D01*
X148538095Y-108554819D02*
X148490476Y-109031009D01*
X148490476Y-109031009D02*
X148538095Y-108983390D01*
X148538095Y-108983390D02*
X148633333Y-108935771D01*
X148633333Y-108935771D02*
X148871428Y-108935771D01*
X148871428Y-108935771D02*
X148966666Y-108983390D01*
X148966666Y-108983390D02*
X149014285Y-109031009D01*
X149014285Y-109031009D02*
X149061904Y-109126247D01*
X149061904Y-109126247D02*
X149061904Y-109364342D01*
X149061904Y-109364342D02*
X149014285Y-109459580D01*
X149014285Y-109459580D02*
X148966666Y-109507200D01*
X148966666Y-109507200D02*
X148871428Y-109554819D01*
X148871428Y-109554819D02*
X148633333Y-109554819D01*
X148633333Y-109554819D02*
X148538095Y-109507200D01*
X148538095Y-109507200D02*
X148490476Y-109459580D01*
X131557142Y-128359580D02*
X131509523Y-128407200D01*
X131509523Y-128407200D02*
X131366666Y-128454819D01*
X131366666Y-128454819D02*
X131271428Y-128454819D01*
X131271428Y-128454819D02*
X131128571Y-128407200D01*
X131128571Y-128407200D02*
X131033333Y-128311961D01*
X131033333Y-128311961D02*
X130985714Y-128216723D01*
X130985714Y-128216723D02*
X130938095Y-128026247D01*
X130938095Y-128026247D02*
X130938095Y-127883390D01*
X130938095Y-127883390D02*
X130985714Y-127692914D01*
X130985714Y-127692914D02*
X131033333Y-127597676D01*
X131033333Y-127597676D02*
X131128571Y-127502438D01*
X131128571Y-127502438D02*
X131271428Y-127454819D01*
X131271428Y-127454819D02*
X131366666Y-127454819D01*
X131366666Y-127454819D02*
X131509523Y-127502438D01*
X131509523Y-127502438D02*
X131557142Y-127550057D01*
X132509523Y-128454819D02*
X131938095Y-128454819D01*
X132223809Y-128454819D02*
X132223809Y-127454819D01*
X132223809Y-127454819D02*
X132128571Y-127597676D01*
X132128571Y-127597676D02*
X132033333Y-127692914D01*
X132033333Y-127692914D02*
X131938095Y-127740533D01*
X132842857Y-127454819D02*
X133509523Y-127454819D01*
X133509523Y-127454819D02*
X133080952Y-128454819D01*
X141633333Y-129654819D02*
X141300000Y-129178628D01*
X141061905Y-129654819D02*
X141061905Y-128654819D01*
X141061905Y-128654819D02*
X141442857Y-128654819D01*
X141442857Y-128654819D02*
X141538095Y-128702438D01*
X141538095Y-128702438D02*
X141585714Y-128750057D01*
X141585714Y-128750057D02*
X141633333Y-128845295D01*
X141633333Y-128845295D02*
X141633333Y-128988152D01*
X141633333Y-128988152D02*
X141585714Y-129083390D01*
X141585714Y-129083390D02*
X141538095Y-129131009D01*
X141538095Y-129131009D02*
X141442857Y-129178628D01*
X141442857Y-129178628D02*
X141061905Y-129178628D01*
X142490476Y-128988152D02*
X142490476Y-129654819D01*
X142252381Y-128607200D02*
X142014286Y-129321485D01*
X142014286Y-129321485D02*
X142633333Y-129321485D01*
X127061905Y-116854819D02*
X127061905Y-115854819D01*
X127061905Y-115854819D02*
X127300000Y-115854819D01*
X127300000Y-115854819D02*
X127442857Y-115902438D01*
X127442857Y-115902438D02*
X127538095Y-115997676D01*
X127538095Y-115997676D02*
X127585714Y-116092914D01*
X127585714Y-116092914D02*
X127633333Y-116283390D01*
X127633333Y-116283390D02*
X127633333Y-116426247D01*
X127633333Y-116426247D02*
X127585714Y-116616723D01*
X127585714Y-116616723D02*
X127538095Y-116711961D01*
X127538095Y-116711961D02*
X127442857Y-116807200D01*
X127442857Y-116807200D02*
X127300000Y-116854819D01*
X127300000Y-116854819D02*
X127061905Y-116854819D01*
X128585714Y-116854819D02*
X128014286Y-116854819D01*
X128300000Y-116854819D02*
X128300000Y-115854819D01*
X128300000Y-115854819D02*
X128204762Y-115997676D01*
X128204762Y-115997676D02*
X128109524Y-116092914D01*
X128109524Y-116092914D02*
X128014286Y-116140533D01*
X131500595Y-122954819D02*
X131500595Y-123764342D01*
X131500595Y-123764342D02*
X131548214Y-123859580D01*
X131548214Y-123859580D02*
X131595833Y-123907200D01*
X131595833Y-123907200D02*
X131691071Y-123954819D01*
X131691071Y-123954819D02*
X131881547Y-123954819D01*
X131881547Y-123954819D02*
X131976785Y-123907200D01*
X131976785Y-123907200D02*
X132024404Y-123859580D01*
X132024404Y-123859580D02*
X132072023Y-123764342D01*
X132072023Y-123764342D02*
X132072023Y-122954819D01*
X132976785Y-123288152D02*
X132976785Y-123954819D01*
X132738690Y-122907200D02*
X132500595Y-123621485D01*
X132500595Y-123621485D02*
X133119642Y-123621485D01*
X149366666Y-89554819D02*
X149366666Y-90269104D01*
X149366666Y-90269104D02*
X149319047Y-90411961D01*
X149319047Y-90411961D02*
X149223809Y-90507200D01*
X149223809Y-90507200D02*
X149080952Y-90554819D01*
X149080952Y-90554819D02*
X148985714Y-90554819D01*
X150271428Y-89888152D02*
X150271428Y-90554819D01*
X150033333Y-89507200D02*
X149795238Y-90221485D01*
X149795238Y-90221485D02*
X150414285Y-90221485D01*
X144661905Y-113954819D02*
X144661905Y-112954819D01*
X144661905Y-112954819D02*
X144900000Y-112954819D01*
X144900000Y-112954819D02*
X145042857Y-113002438D01*
X145042857Y-113002438D02*
X145138095Y-113097676D01*
X145138095Y-113097676D02*
X145185714Y-113192914D01*
X145185714Y-113192914D02*
X145233333Y-113383390D01*
X145233333Y-113383390D02*
X145233333Y-113526247D01*
X145233333Y-113526247D02*
X145185714Y-113716723D01*
X145185714Y-113716723D02*
X145138095Y-113811961D01*
X145138095Y-113811961D02*
X145042857Y-113907200D01*
X145042857Y-113907200D02*
X144900000Y-113954819D01*
X144900000Y-113954819D02*
X144661905Y-113954819D01*
X145566667Y-112954819D02*
X146185714Y-112954819D01*
X146185714Y-112954819D02*
X145852381Y-113335771D01*
X145852381Y-113335771D02*
X145995238Y-113335771D01*
X145995238Y-113335771D02*
X146090476Y-113383390D01*
X146090476Y-113383390D02*
X146138095Y-113431009D01*
X146138095Y-113431009D02*
X146185714Y-113526247D01*
X146185714Y-113526247D02*
X146185714Y-113764342D01*
X146185714Y-113764342D02*
X146138095Y-113859580D01*
X146138095Y-113859580D02*
X146090476Y-113907200D01*
X146090476Y-113907200D02*
X145995238Y-113954819D01*
X145995238Y-113954819D02*
X145709524Y-113954819D01*
X145709524Y-113954819D02*
X145614286Y-113907200D01*
X145614286Y-113907200D02*
X145566667Y-113859580D01*
X150130118Y-93488304D02*
X150939641Y-93488304D01*
X150939641Y-93488304D02*
X151034879Y-93440685D01*
X151034879Y-93440685D02*
X151082499Y-93393066D01*
X151082499Y-93393066D02*
X151130118Y-93297828D01*
X151130118Y-93297828D02*
X151130118Y-93107352D01*
X151130118Y-93107352D02*
X151082499Y-93012114D01*
X151082499Y-93012114D02*
X151034879Y-92964495D01*
X151034879Y-92964495D02*
X150939641Y-92916876D01*
X150939641Y-92916876D02*
X150130118Y-92916876D01*
X150225356Y-92488304D02*
X150177737Y-92440685D01*
X150177737Y-92440685D02*
X150130118Y-92345447D01*
X150130118Y-92345447D02*
X150130118Y-92107352D01*
X150130118Y-92107352D02*
X150177737Y-92012114D01*
X150177737Y-92012114D02*
X150225356Y-91964495D01*
X150225356Y-91964495D02*
X150320594Y-91916876D01*
X150320594Y-91916876D02*
X150415832Y-91916876D01*
X150415832Y-91916876D02*
X150558689Y-91964495D01*
X150558689Y-91964495D02*
X151130118Y-92535923D01*
X151130118Y-92535923D02*
X151130118Y-91916876D01*
X154233333Y-103559580D02*
X154185714Y-103607200D01*
X154185714Y-103607200D02*
X154042857Y-103654819D01*
X154042857Y-103654819D02*
X153947619Y-103654819D01*
X153947619Y-103654819D02*
X153804762Y-103607200D01*
X153804762Y-103607200D02*
X153709524Y-103511961D01*
X153709524Y-103511961D02*
X153661905Y-103416723D01*
X153661905Y-103416723D02*
X153614286Y-103226247D01*
X153614286Y-103226247D02*
X153614286Y-103083390D01*
X153614286Y-103083390D02*
X153661905Y-102892914D01*
X153661905Y-102892914D02*
X153709524Y-102797676D01*
X153709524Y-102797676D02*
X153804762Y-102702438D01*
X153804762Y-102702438D02*
X153947619Y-102654819D01*
X153947619Y-102654819D02*
X154042857Y-102654819D01*
X154042857Y-102654819D02*
X154185714Y-102702438D01*
X154185714Y-102702438D02*
X154233333Y-102750057D01*
X154709524Y-103654819D02*
X154900000Y-103654819D01*
X154900000Y-103654819D02*
X154995238Y-103607200D01*
X154995238Y-103607200D02*
X155042857Y-103559580D01*
X155042857Y-103559580D02*
X155138095Y-103416723D01*
X155138095Y-103416723D02*
X155185714Y-103226247D01*
X155185714Y-103226247D02*
X155185714Y-102845295D01*
X155185714Y-102845295D02*
X155138095Y-102750057D01*
X155138095Y-102750057D02*
X155090476Y-102702438D01*
X155090476Y-102702438D02*
X154995238Y-102654819D01*
X154995238Y-102654819D02*
X154804762Y-102654819D01*
X154804762Y-102654819D02*
X154709524Y-102702438D01*
X154709524Y-102702438D02*
X154661905Y-102750057D01*
X154661905Y-102750057D02*
X154614286Y-102845295D01*
X154614286Y-102845295D02*
X154614286Y-103083390D01*
X154614286Y-103083390D02*
X154661905Y-103178628D01*
X154661905Y-103178628D02*
X154709524Y-103226247D01*
X154709524Y-103226247D02*
X154804762Y-103273866D01*
X154804762Y-103273866D02*
X154995238Y-103273866D01*
X154995238Y-103273866D02*
X155090476Y-103226247D01*
X155090476Y-103226247D02*
X155138095Y-103178628D01*
X155138095Y-103178628D02*
X155185714Y-103083390D01*
X127857142Y-118954819D02*
X127523809Y-118478628D01*
X127285714Y-118954819D02*
X127285714Y-117954819D01*
X127285714Y-117954819D02*
X127666666Y-117954819D01*
X127666666Y-117954819D02*
X127761904Y-118002438D01*
X127761904Y-118002438D02*
X127809523Y-118050057D01*
X127809523Y-118050057D02*
X127857142Y-118145295D01*
X127857142Y-118145295D02*
X127857142Y-118288152D01*
X127857142Y-118288152D02*
X127809523Y-118383390D01*
X127809523Y-118383390D02*
X127761904Y-118431009D01*
X127761904Y-118431009D02*
X127666666Y-118478628D01*
X127666666Y-118478628D02*
X127285714Y-118478628D01*
X128809523Y-118954819D02*
X128238095Y-118954819D01*
X128523809Y-118954819D02*
X128523809Y-117954819D01*
X128523809Y-117954819D02*
X128428571Y-118097676D01*
X128428571Y-118097676D02*
X128333333Y-118192914D01*
X128333333Y-118192914D02*
X128238095Y-118240533D01*
X129142857Y-117954819D02*
X129761904Y-117954819D01*
X129761904Y-117954819D02*
X129428571Y-118335771D01*
X129428571Y-118335771D02*
X129571428Y-118335771D01*
X129571428Y-118335771D02*
X129666666Y-118383390D01*
X129666666Y-118383390D02*
X129714285Y-118431009D01*
X129714285Y-118431009D02*
X129761904Y-118526247D01*
X129761904Y-118526247D02*
X129761904Y-118764342D01*
X129761904Y-118764342D02*
X129714285Y-118859580D01*
X129714285Y-118859580D02*
X129666666Y-118907200D01*
X129666666Y-118907200D02*
X129571428Y-118954819D01*
X129571428Y-118954819D02*
X129285714Y-118954819D01*
X129285714Y-118954819D02*
X129190476Y-118907200D01*
X129190476Y-118907200D02*
X129142857Y-118859580D01*
X157404761Y-129550057D02*
X157309523Y-129502438D01*
X157309523Y-129502438D02*
X157214285Y-129407200D01*
X157214285Y-129407200D02*
X157071428Y-129264342D01*
X157071428Y-129264342D02*
X156976190Y-129216723D01*
X156976190Y-129216723D02*
X156880952Y-129216723D01*
X156928571Y-129454819D02*
X156833333Y-129407200D01*
X156833333Y-129407200D02*
X156738095Y-129311961D01*
X156738095Y-129311961D02*
X156690476Y-129121485D01*
X156690476Y-129121485D02*
X156690476Y-128788152D01*
X156690476Y-128788152D02*
X156738095Y-128597676D01*
X156738095Y-128597676D02*
X156833333Y-128502438D01*
X156833333Y-128502438D02*
X156928571Y-128454819D01*
X156928571Y-128454819D02*
X157119047Y-128454819D01*
X157119047Y-128454819D02*
X157214285Y-128502438D01*
X157214285Y-128502438D02*
X157309523Y-128597676D01*
X157309523Y-128597676D02*
X157357142Y-128788152D01*
X157357142Y-128788152D02*
X157357142Y-129121485D01*
X157357142Y-129121485D02*
X157309523Y-129311961D01*
X157309523Y-129311961D02*
X157214285Y-129407200D01*
X157214285Y-129407200D02*
X157119047Y-129454819D01*
X157119047Y-129454819D02*
X156928571Y-129454819D01*
X157738095Y-128550057D02*
X157785714Y-128502438D01*
X157785714Y-128502438D02*
X157880952Y-128454819D01*
X157880952Y-128454819D02*
X158119047Y-128454819D01*
X158119047Y-128454819D02*
X158214285Y-128502438D01*
X158214285Y-128502438D02*
X158261904Y-128550057D01*
X158261904Y-128550057D02*
X158309523Y-128645295D01*
X158309523Y-128645295D02*
X158309523Y-128740533D01*
X158309523Y-128740533D02*
X158261904Y-128883390D01*
X158261904Y-128883390D02*
X157690476Y-129454819D01*
X157690476Y-129454819D02*
X158309523Y-129454819D01*
X146504761Y-126850057D02*
X146409523Y-126802438D01*
X146409523Y-126802438D02*
X146314285Y-126707200D01*
X146314285Y-126707200D02*
X146171428Y-126564342D01*
X146171428Y-126564342D02*
X146076190Y-126516723D01*
X146076190Y-126516723D02*
X145980952Y-126516723D01*
X146028571Y-126754819D02*
X145933333Y-126707200D01*
X145933333Y-126707200D02*
X145838095Y-126611961D01*
X145838095Y-126611961D02*
X145790476Y-126421485D01*
X145790476Y-126421485D02*
X145790476Y-126088152D01*
X145790476Y-126088152D02*
X145838095Y-125897676D01*
X145838095Y-125897676D02*
X145933333Y-125802438D01*
X145933333Y-125802438D02*
X146028571Y-125754819D01*
X146028571Y-125754819D02*
X146219047Y-125754819D01*
X146219047Y-125754819D02*
X146314285Y-125802438D01*
X146314285Y-125802438D02*
X146409523Y-125897676D01*
X146409523Y-125897676D02*
X146457142Y-126088152D01*
X146457142Y-126088152D02*
X146457142Y-126421485D01*
X146457142Y-126421485D02*
X146409523Y-126611961D01*
X146409523Y-126611961D02*
X146314285Y-126707200D01*
X146314285Y-126707200D02*
X146219047Y-126754819D01*
X146219047Y-126754819D02*
X146028571Y-126754819D01*
X147314285Y-126088152D02*
X147314285Y-126754819D01*
X147076190Y-125707200D02*
X146838095Y-126421485D01*
X146838095Y-126421485D02*
X147457142Y-126421485D01*
X124054819Y-129242857D02*
X123578628Y-129576190D01*
X124054819Y-129814285D02*
X123054819Y-129814285D01*
X123054819Y-129814285D02*
X123054819Y-129433333D01*
X123054819Y-129433333D02*
X123102438Y-129338095D01*
X123102438Y-129338095D02*
X123150057Y-129290476D01*
X123150057Y-129290476D02*
X123245295Y-129242857D01*
X123245295Y-129242857D02*
X123388152Y-129242857D01*
X123388152Y-129242857D02*
X123483390Y-129290476D01*
X123483390Y-129290476D02*
X123531009Y-129338095D01*
X123531009Y-129338095D02*
X123578628Y-129433333D01*
X123578628Y-129433333D02*
X123578628Y-129814285D01*
X124054819Y-128290476D02*
X124054819Y-128861904D01*
X124054819Y-128576190D02*
X123054819Y-128576190D01*
X123054819Y-128576190D02*
X123197676Y-128671428D01*
X123197676Y-128671428D02*
X123292914Y-128766666D01*
X123292914Y-128766666D02*
X123340533Y-128861904D01*
X124054819Y-127338095D02*
X124054819Y-127909523D01*
X124054819Y-127623809D02*
X123054819Y-127623809D01*
X123054819Y-127623809D02*
X123197676Y-127719047D01*
X123197676Y-127719047D02*
X123292914Y-127814285D01*
X123292914Y-127814285D02*
X123340533Y-127909523D01*
X148433333Y-93259580D02*
X148385714Y-93307200D01*
X148385714Y-93307200D02*
X148242857Y-93354819D01*
X148242857Y-93354819D02*
X148147619Y-93354819D01*
X148147619Y-93354819D02*
X148004762Y-93307200D01*
X148004762Y-93307200D02*
X147909524Y-93211961D01*
X147909524Y-93211961D02*
X147861905Y-93116723D01*
X147861905Y-93116723D02*
X147814286Y-92926247D01*
X147814286Y-92926247D02*
X147814286Y-92783390D01*
X147814286Y-92783390D02*
X147861905Y-92592914D01*
X147861905Y-92592914D02*
X147909524Y-92497676D01*
X147909524Y-92497676D02*
X148004762Y-92402438D01*
X148004762Y-92402438D02*
X148147619Y-92354819D01*
X148147619Y-92354819D02*
X148242857Y-92354819D01*
X148242857Y-92354819D02*
X148385714Y-92402438D01*
X148385714Y-92402438D02*
X148433333Y-92450057D01*
X149338095Y-92354819D02*
X148861905Y-92354819D01*
X148861905Y-92354819D02*
X148814286Y-92831009D01*
X148814286Y-92831009D02*
X148861905Y-92783390D01*
X148861905Y-92783390D02*
X148957143Y-92735771D01*
X148957143Y-92735771D02*
X149195238Y-92735771D01*
X149195238Y-92735771D02*
X149290476Y-92783390D01*
X149290476Y-92783390D02*
X149338095Y-92831009D01*
X149338095Y-92831009D02*
X149385714Y-92926247D01*
X149385714Y-92926247D02*
X149385714Y-93164342D01*
X149385714Y-93164342D02*
X149338095Y-93259580D01*
X149338095Y-93259580D02*
X149290476Y-93307200D01*
X149290476Y-93307200D02*
X149195238Y-93354819D01*
X149195238Y-93354819D02*
X148957143Y-93354819D01*
X148957143Y-93354819D02*
X148861905Y-93307200D01*
X148861905Y-93307200D02*
X148814286Y-93259580D01*
X137466666Y-90754819D02*
X137466666Y-91469104D01*
X137466666Y-91469104D02*
X137419047Y-91611961D01*
X137419047Y-91611961D02*
X137323809Y-91707200D01*
X137323809Y-91707200D02*
X137180952Y-91754819D01*
X137180952Y-91754819D02*
X137085714Y-91754819D01*
X137895238Y-90850057D02*
X137942857Y-90802438D01*
X137942857Y-90802438D02*
X138038095Y-90754819D01*
X138038095Y-90754819D02*
X138276190Y-90754819D01*
X138276190Y-90754819D02*
X138371428Y-90802438D01*
X138371428Y-90802438D02*
X138419047Y-90850057D01*
X138419047Y-90850057D02*
X138466666Y-90945295D01*
X138466666Y-90945295D02*
X138466666Y-91040533D01*
X138466666Y-91040533D02*
X138419047Y-91183390D01*
X138419047Y-91183390D02*
X137847619Y-91754819D01*
X137847619Y-91754819D02*
X138466666Y-91754819D01*
X130707200Y-113433332D02*
X130754819Y-113290475D01*
X130754819Y-113290475D02*
X130754819Y-113052380D01*
X130754819Y-113052380D02*
X130707200Y-112957142D01*
X130707200Y-112957142D02*
X130659580Y-112909523D01*
X130659580Y-112909523D02*
X130564342Y-112861904D01*
X130564342Y-112861904D02*
X130469104Y-112861904D01*
X130469104Y-112861904D02*
X130373866Y-112909523D01*
X130373866Y-112909523D02*
X130326247Y-112957142D01*
X130326247Y-112957142D02*
X130278628Y-113052380D01*
X130278628Y-113052380D02*
X130231009Y-113242856D01*
X130231009Y-113242856D02*
X130183390Y-113338094D01*
X130183390Y-113338094D02*
X130135771Y-113385713D01*
X130135771Y-113385713D02*
X130040533Y-113433332D01*
X130040533Y-113433332D02*
X129945295Y-113433332D01*
X129945295Y-113433332D02*
X129850057Y-113385713D01*
X129850057Y-113385713D02*
X129802438Y-113338094D01*
X129802438Y-113338094D02*
X129754819Y-113242856D01*
X129754819Y-113242856D02*
X129754819Y-113004761D01*
X129754819Y-113004761D02*
X129802438Y-112861904D01*
X129754819Y-112528570D02*
X130754819Y-112290475D01*
X130754819Y-112290475D02*
X130040533Y-112099999D01*
X130040533Y-112099999D02*
X130754819Y-111909523D01*
X130754819Y-111909523D02*
X129754819Y-111671428D01*
X130754819Y-110766666D02*
X130754819Y-111338094D01*
X130754819Y-111052380D02*
X129754819Y-111052380D01*
X129754819Y-111052380D02*
X129897676Y-111147618D01*
X129897676Y-111147618D02*
X129992914Y-111242856D01*
X129992914Y-111242856D02*
X130040533Y-111338094D01*
X137057142Y-128659580D02*
X137009523Y-128707200D01*
X137009523Y-128707200D02*
X136866666Y-128754819D01*
X136866666Y-128754819D02*
X136771428Y-128754819D01*
X136771428Y-128754819D02*
X136628571Y-128707200D01*
X136628571Y-128707200D02*
X136533333Y-128611961D01*
X136533333Y-128611961D02*
X136485714Y-128516723D01*
X136485714Y-128516723D02*
X136438095Y-128326247D01*
X136438095Y-128326247D02*
X136438095Y-128183390D01*
X136438095Y-128183390D02*
X136485714Y-127992914D01*
X136485714Y-127992914D02*
X136533333Y-127897676D01*
X136533333Y-127897676D02*
X136628571Y-127802438D01*
X136628571Y-127802438D02*
X136771428Y-127754819D01*
X136771428Y-127754819D02*
X136866666Y-127754819D01*
X136866666Y-127754819D02*
X137009523Y-127802438D01*
X137009523Y-127802438D02*
X137057142Y-127850057D01*
X138009523Y-128754819D02*
X137438095Y-128754819D01*
X137723809Y-128754819D02*
X137723809Y-127754819D01*
X137723809Y-127754819D02*
X137628571Y-127897676D01*
X137628571Y-127897676D02*
X137533333Y-127992914D01*
X137533333Y-127992914D02*
X137438095Y-128040533D01*
X138866666Y-127754819D02*
X138676190Y-127754819D01*
X138676190Y-127754819D02*
X138580952Y-127802438D01*
X138580952Y-127802438D02*
X138533333Y-127850057D01*
X138533333Y-127850057D02*
X138438095Y-127992914D01*
X138438095Y-127992914D02*
X138390476Y-128183390D01*
X138390476Y-128183390D02*
X138390476Y-128564342D01*
X138390476Y-128564342D02*
X138438095Y-128659580D01*
X138438095Y-128659580D02*
X138485714Y-128707200D01*
X138485714Y-128707200D02*
X138580952Y-128754819D01*
X138580952Y-128754819D02*
X138771428Y-128754819D01*
X138771428Y-128754819D02*
X138866666Y-128707200D01*
X138866666Y-128707200D02*
X138914285Y-128659580D01*
X138914285Y-128659580D02*
X138961904Y-128564342D01*
X138961904Y-128564342D02*
X138961904Y-128326247D01*
X138961904Y-128326247D02*
X138914285Y-128231009D01*
X138914285Y-128231009D02*
X138866666Y-128183390D01*
X138866666Y-128183390D02*
X138771428Y-128135771D01*
X138771428Y-128135771D02*
X138580952Y-128135771D01*
X138580952Y-128135771D02*
X138485714Y-128183390D01*
X138485714Y-128183390D02*
X138438095Y-128231009D01*
X138438095Y-128231009D02*
X138390476Y-128326247D01*
X145354819Y-97266666D02*
X144878628Y-97599999D01*
X145354819Y-97838094D02*
X144354819Y-97838094D01*
X144354819Y-97838094D02*
X144354819Y-97457142D01*
X144354819Y-97457142D02*
X144402438Y-97361904D01*
X144402438Y-97361904D02*
X144450057Y-97314285D01*
X144450057Y-97314285D02*
X144545295Y-97266666D01*
X144545295Y-97266666D02*
X144688152Y-97266666D01*
X144688152Y-97266666D02*
X144783390Y-97314285D01*
X144783390Y-97314285D02*
X144831009Y-97361904D01*
X144831009Y-97361904D02*
X144878628Y-97457142D01*
X144878628Y-97457142D02*
X144878628Y-97838094D01*
X144450057Y-96885713D02*
X144402438Y-96838094D01*
X144402438Y-96838094D02*
X144354819Y-96742856D01*
X144354819Y-96742856D02*
X144354819Y-96504761D01*
X144354819Y-96504761D02*
X144402438Y-96409523D01*
X144402438Y-96409523D02*
X144450057Y-96361904D01*
X144450057Y-96361904D02*
X144545295Y-96314285D01*
X144545295Y-96314285D02*
X144640533Y-96314285D01*
X144640533Y-96314285D02*
X144783390Y-96361904D01*
X144783390Y-96361904D02*
X145354819Y-96933332D01*
X145354819Y-96933332D02*
X145354819Y-96314285D01*
X131557142Y-129654819D02*
X131223809Y-129178628D01*
X130985714Y-129654819D02*
X130985714Y-128654819D01*
X130985714Y-128654819D02*
X131366666Y-128654819D01*
X131366666Y-128654819D02*
X131461904Y-128702438D01*
X131461904Y-128702438D02*
X131509523Y-128750057D01*
X131509523Y-128750057D02*
X131557142Y-128845295D01*
X131557142Y-128845295D02*
X131557142Y-128988152D01*
X131557142Y-128988152D02*
X131509523Y-129083390D01*
X131509523Y-129083390D02*
X131461904Y-129131009D01*
X131461904Y-129131009D02*
X131366666Y-129178628D01*
X131366666Y-129178628D02*
X130985714Y-129178628D01*
X132509523Y-129654819D02*
X131938095Y-129654819D01*
X132223809Y-129654819D02*
X132223809Y-128654819D01*
X132223809Y-128654819D02*
X132128571Y-128797676D01*
X132128571Y-128797676D02*
X132033333Y-128892914D01*
X132033333Y-128892914D02*
X131938095Y-128940533D01*
X133128571Y-128654819D02*
X133223809Y-128654819D01*
X133223809Y-128654819D02*
X133319047Y-128702438D01*
X133319047Y-128702438D02*
X133366666Y-128750057D01*
X133366666Y-128750057D02*
X133414285Y-128845295D01*
X133414285Y-128845295D02*
X133461904Y-129035771D01*
X133461904Y-129035771D02*
X133461904Y-129273866D01*
X133461904Y-129273866D02*
X133414285Y-129464342D01*
X133414285Y-129464342D02*
X133366666Y-129559580D01*
X133366666Y-129559580D02*
X133319047Y-129607200D01*
X133319047Y-129607200D02*
X133223809Y-129654819D01*
X133223809Y-129654819D02*
X133128571Y-129654819D01*
X133128571Y-129654819D02*
X133033333Y-129607200D01*
X133033333Y-129607200D02*
X132985714Y-129559580D01*
X132985714Y-129559580D02*
X132938095Y-129464342D01*
X132938095Y-129464342D02*
X132890476Y-129273866D01*
X132890476Y-129273866D02*
X132890476Y-129035771D01*
X132890476Y-129035771D02*
X132938095Y-128845295D01*
X132938095Y-128845295D02*
X132985714Y-128750057D01*
X132985714Y-128750057D02*
X133033333Y-128702438D01*
X133033333Y-128702438D02*
X133128571Y-128654819D01*
X133257142Y-120959580D02*
X133209523Y-121007200D01*
X133209523Y-121007200D02*
X133066666Y-121054819D01*
X133066666Y-121054819D02*
X132971428Y-121054819D01*
X132971428Y-121054819D02*
X132828571Y-121007200D01*
X132828571Y-121007200D02*
X132733333Y-120911961D01*
X132733333Y-120911961D02*
X132685714Y-120816723D01*
X132685714Y-120816723D02*
X132638095Y-120626247D01*
X132638095Y-120626247D02*
X132638095Y-120483390D01*
X132638095Y-120483390D02*
X132685714Y-120292914D01*
X132685714Y-120292914D02*
X132733333Y-120197676D01*
X132733333Y-120197676D02*
X132828571Y-120102438D01*
X132828571Y-120102438D02*
X132971428Y-120054819D01*
X132971428Y-120054819D02*
X133066666Y-120054819D01*
X133066666Y-120054819D02*
X133209523Y-120102438D01*
X133209523Y-120102438D02*
X133257142Y-120150057D01*
X134209523Y-121054819D02*
X133638095Y-121054819D01*
X133923809Y-121054819D02*
X133923809Y-120054819D01*
X133923809Y-120054819D02*
X133828571Y-120197676D01*
X133828571Y-120197676D02*
X133733333Y-120292914D01*
X133733333Y-120292914D02*
X133638095Y-120340533D01*
X135066666Y-120388152D02*
X135066666Y-121054819D01*
X134828571Y-120007200D02*
X134590476Y-120721485D01*
X134590476Y-120721485D02*
X135209523Y-120721485D01*
X125233333Y-108759580D02*
X125185714Y-108807200D01*
X125185714Y-108807200D02*
X125042857Y-108854819D01*
X125042857Y-108854819D02*
X124947619Y-108854819D01*
X124947619Y-108854819D02*
X124804762Y-108807200D01*
X124804762Y-108807200D02*
X124709524Y-108711961D01*
X124709524Y-108711961D02*
X124661905Y-108616723D01*
X124661905Y-108616723D02*
X124614286Y-108426247D01*
X124614286Y-108426247D02*
X124614286Y-108283390D01*
X124614286Y-108283390D02*
X124661905Y-108092914D01*
X124661905Y-108092914D02*
X124709524Y-107997676D01*
X124709524Y-107997676D02*
X124804762Y-107902438D01*
X124804762Y-107902438D02*
X124947619Y-107854819D01*
X124947619Y-107854819D02*
X125042857Y-107854819D01*
X125042857Y-107854819D02*
X125185714Y-107902438D01*
X125185714Y-107902438D02*
X125233333Y-107950057D01*
X126090476Y-108188152D02*
X126090476Y-108854819D01*
X125852381Y-107807200D02*
X125614286Y-108521485D01*
X125614286Y-108521485D02*
X126233333Y-108521485D01*
X149333333Y-102359580D02*
X149285714Y-102407200D01*
X149285714Y-102407200D02*
X149142857Y-102454819D01*
X149142857Y-102454819D02*
X149047619Y-102454819D01*
X149047619Y-102454819D02*
X148904762Y-102407200D01*
X148904762Y-102407200D02*
X148809524Y-102311961D01*
X148809524Y-102311961D02*
X148761905Y-102216723D01*
X148761905Y-102216723D02*
X148714286Y-102026247D01*
X148714286Y-102026247D02*
X148714286Y-101883390D01*
X148714286Y-101883390D02*
X148761905Y-101692914D01*
X148761905Y-101692914D02*
X148809524Y-101597676D01*
X148809524Y-101597676D02*
X148904762Y-101502438D01*
X148904762Y-101502438D02*
X149047619Y-101454819D01*
X149047619Y-101454819D02*
X149142857Y-101454819D01*
X149142857Y-101454819D02*
X149285714Y-101502438D01*
X149285714Y-101502438D02*
X149333333Y-101550057D01*
X150190476Y-101454819D02*
X150000000Y-101454819D01*
X150000000Y-101454819D02*
X149904762Y-101502438D01*
X149904762Y-101502438D02*
X149857143Y-101550057D01*
X149857143Y-101550057D02*
X149761905Y-101692914D01*
X149761905Y-101692914D02*
X149714286Y-101883390D01*
X149714286Y-101883390D02*
X149714286Y-102264342D01*
X149714286Y-102264342D02*
X149761905Y-102359580D01*
X149761905Y-102359580D02*
X149809524Y-102407200D01*
X149809524Y-102407200D02*
X149904762Y-102454819D01*
X149904762Y-102454819D02*
X150095238Y-102454819D01*
X150095238Y-102454819D02*
X150190476Y-102407200D01*
X150190476Y-102407200D02*
X150238095Y-102359580D01*
X150238095Y-102359580D02*
X150285714Y-102264342D01*
X150285714Y-102264342D02*
X150285714Y-102026247D01*
X150285714Y-102026247D02*
X150238095Y-101931009D01*
X150238095Y-101931009D02*
X150190476Y-101883390D01*
X150190476Y-101883390D02*
X150095238Y-101835771D01*
X150095238Y-101835771D02*
X149904762Y-101835771D01*
X149904762Y-101835771D02*
X149809524Y-101883390D01*
X149809524Y-101883390D02*
X149761905Y-101931009D01*
X149761905Y-101931009D02*
X149714286Y-102026247D01*
X132157142Y-94724819D02*
X131823809Y-94248628D01*
X131585714Y-94724819D02*
X131585714Y-93724819D01*
X131585714Y-93724819D02*
X131966666Y-93724819D01*
X131966666Y-93724819D02*
X132061904Y-93772438D01*
X132061904Y-93772438D02*
X132109523Y-93820057D01*
X132109523Y-93820057D02*
X132157142Y-93915295D01*
X132157142Y-93915295D02*
X132157142Y-94058152D01*
X132157142Y-94058152D02*
X132109523Y-94153390D01*
X132109523Y-94153390D02*
X132061904Y-94201009D01*
X132061904Y-94201009D02*
X131966666Y-94248628D01*
X131966666Y-94248628D02*
X131585714Y-94248628D01*
X133109523Y-94724819D02*
X132538095Y-94724819D01*
X132823809Y-94724819D02*
X132823809Y-93724819D01*
X132823809Y-93724819D02*
X132728571Y-93867676D01*
X132728571Y-93867676D02*
X132633333Y-93962914D01*
X132633333Y-93962914D02*
X132538095Y-94010533D01*
X133966666Y-93724819D02*
X133776190Y-93724819D01*
X133776190Y-93724819D02*
X133680952Y-93772438D01*
X133680952Y-93772438D02*
X133633333Y-93820057D01*
X133633333Y-93820057D02*
X133538095Y-93962914D01*
X133538095Y-93962914D02*
X133490476Y-94153390D01*
X133490476Y-94153390D02*
X133490476Y-94534342D01*
X133490476Y-94534342D02*
X133538095Y-94629580D01*
X133538095Y-94629580D02*
X133585714Y-94677200D01*
X133585714Y-94677200D02*
X133680952Y-94724819D01*
X133680952Y-94724819D02*
X133871428Y-94724819D01*
X133871428Y-94724819D02*
X133966666Y-94677200D01*
X133966666Y-94677200D02*
X134014285Y-94629580D01*
X134014285Y-94629580D02*
X134061904Y-94534342D01*
X134061904Y-94534342D02*
X134061904Y-94296247D01*
X134061904Y-94296247D02*
X134014285Y-94201009D01*
X134014285Y-94201009D02*
X133966666Y-94153390D01*
X133966666Y-94153390D02*
X133871428Y-94105771D01*
X133871428Y-94105771D02*
X133680952Y-94105771D01*
X133680952Y-94105771D02*
X133585714Y-94153390D01*
X133585714Y-94153390D02*
X133538095Y-94201009D01*
X133538095Y-94201009D02*
X133490476Y-94296247D01*
X157304761Y-119450057D02*
X157209523Y-119402438D01*
X157209523Y-119402438D02*
X157114285Y-119307200D01*
X157114285Y-119307200D02*
X156971428Y-119164342D01*
X156971428Y-119164342D02*
X156876190Y-119116723D01*
X156876190Y-119116723D02*
X156780952Y-119116723D01*
X156828571Y-119354819D02*
X156733333Y-119307200D01*
X156733333Y-119307200D02*
X156638095Y-119211961D01*
X156638095Y-119211961D02*
X156590476Y-119021485D01*
X156590476Y-119021485D02*
X156590476Y-118688152D01*
X156590476Y-118688152D02*
X156638095Y-118497676D01*
X156638095Y-118497676D02*
X156733333Y-118402438D01*
X156733333Y-118402438D02*
X156828571Y-118354819D01*
X156828571Y-118354819D02*
X157019047Y-118354819D01*
X157019047Y-118354819D02*
X157114285Y-118402438D01*
X157114285Y-118402438D02*
X157209523Y-118497676D01*
X157209523Y-118497676D02*
X157257142Y-118688152D01*
X157257142Y-118688152D02*
X157257142Y-119021485D01*
X157257142Y-119021485D02*
X157209523Y-119211961D01*
X157209523Y-119211961D02*
X157114285Y-119307200D01*
X157114285Y-119307200D02*
X157019047Y-119354819D01*
X157019047Y-119354819D02*
X156828571Y-119354819D01*
X158209523Y-119354819D02*
X157638095Y-119354819D01*
X157923809Y-119354819D02*
X157923809Y-118354819D01*
X157923809Y-118354819D02*
X157828571Y-118497676D01*
X157828571Y-118497676D02*
X157733333Y-118592914D01*
X157733333Y-118592914D02*
X157638095Y-118640533D01*
X156233333Y-105159580D02*
X156185714Y-105207200D01*
X156185714Y-105207200D02*
X156042857Y-105254819D01*
X156042857Y-105254819D02*
X155947619Y-105254819D01*
X155947619Y-105254819D02*
X155804762Y-105207200D01*
X155804762Y-105207200D02*
X155709524Y-105111961D01*
X155709524Y-105111961D02*
X155661905Y-105016723D01*
X155661905Y-105016723D02*
X155614286Y-104826247D01*
X155614286Y-104826247D02*
X155614286Y-104683390D01*
X155614286Y-104683390D02*
X155661905Y-104492914D01*
X155661905Y-104492914D02*
X155709524Y-104397676D01*
X155709524Y-104397676D02*
X155804762Y-104302438D01*
X155804762Y-104302438D02*
X155947619Y-104254819D01*
X155947619Y-104254819D02*
X156042857Y-104254819D01*
X156042857Y-104254819D02*
X156185714Y-104302438D01*
X156185714Y-104302438D02*
X156233333Y-104350057D01*
X156804762Y-104683390D02*
X156709524Y-104635771D01*
X156709524Y-104635771D02*
X156661905Y-104588152D01*
X156661905Y-104588152D02*
X156614286Y-104492914D01*
X156614286Y-104492914D02*
X156614286Y-104445295D01*
X156614286Y-104445295D02*
X156661905Y-104350057D01*
X156661905Y-104350057D02*
X156709524Y-104302438D01*
X156709524Y-104302438D02*
X156804762Y-104254819D01*
X156804762Y-104254819D02*
X156995238Y-104254819D01*
X156995238Y-104254819D02*
X157090476Y-104302438D01*
X157090476Y-104302438D02*
X157138095Y-104350057D01*
X157138095Y-104350057D02*
X157185714Y-104445295D01*
X157185714Y-104445295D02*
X157185714Y-104492914D01*
X157185714Y-104492914D02*
X157138095Y-104588152D01*
X157138095Y-104588152D02*
X157090476Y-104635771D01*
X157090476Y-104635771D02*
X156995238Y-104683390D01*
X156995238Y-104683390D02*
X156804762Y-104683390D01*
X156804762Y-104683390D02*
X156709524Y-104731009D01*
X156709524Y-104731009D02*
X156661905Y-104778628D01*
X156661905Y-104778628D02*
X156614286Y-104873866D01*
X156614286Y-104873866D02*
X156614286Y-105064342D01*
X156614286Y-105064342D02*
X156661905Y-105159580D01*
X156661905Y-105159580D02*
X156709524Y-105207200D01*
X156709524Y-105207200D02*
X156804762Y-105254819D01*
X156804762Y-105254819D02*
X156995238Y-105254819D01*
X156995238Y-105254819D02*
X157090476Y-105207200D01*
X157090476Y-105207200D02*
X157138095Y-105159580D01*
X157138095Y-105159580D02*
X157185714Y-105064342D01*
X157185714Y-105064342D02*
X157185714Y-104873866D01*
X157185714Y-104873866D02*
X157138095Y-104778628D01*
X157138095Y-104778628D02*
X157090476Y-104731009D01*
X157090476Y-104731009D02*
X156995238Y-104683390D01*
X137204761Y-126850057D02*
X137109523Y-126802438D01*
X137109523Y-126802438D02*
X137014285Y-126707200D01*
X137014285Y-126707200D02*
X136871428Y-126564342D01*
X136871428Y-126564342D02*
X136776190Y-126516723D01*
X136776190Y-126516723D02*
X136680952Y-126516723D01*
X136728571Y-126754819D02*
X136633333Y-126707200D01*
X136633333Y-126707200D02*
X136538095Y-126611961D01*
X136538095Y-126611961D02*
X136490476Y-126421485D01*
X136490476Y-126421485D02*
X136490476Y-126088152D01*
X136490476Y-126088152D02*
X136538095Y-125897676D01*
X136538095Y-125897676D02*
X136633333Y-125802438D01*
X136633333Y-125802438D02*
X136728571Y-125754819D01*
X136728571Y-125754819D02*
X136919047Y-125754819D01*
X136919047Y-125754819D02*
X137014285Y-125802438D01*
X137014285Y-125802438D02*
X137109523Y-125897676D01*
X137109523Y-125897676D02*
X137157142Y-126088152D01*
X137157142Y-126088152D02*
X137157142Y-126421485D01*
X137157142Y-126421485D02*
X137109523Y-126611961D01*
X137109523Y-126611961D02*
X137014285Y-126707200D01*
X137014285Y-126707200D02*
X136919047Y-126754819D01*
X136919047Y-126754819D02*
X136728571Y-126754819D01*
X137490476Y-125754819D02*
X138109523Y-125754819D01*
X138109523Y-125754819D02*
X137776190Y-126135771D01*
X137776190Y-126135771D02*
X137919047Y-126135771D01*
X137919047Y-126135771D02*
X138014285Y-126183390D01*
X138014285Y-126183390D02*
X138061904Y-126231009D01*
X138061904Y-126231009D02*
X138109523Y-126326247D01*
X138109523Y-126326247D02*
X138109523Y-126564342D01*
X138109523Y-126564342D02*
X138061904Y-126659580D01*
X138061904Y-126659580D02*
X138014285Y-126707200D01*
X138014285Y-126707200D02*
X137919047Y-126754819D01*
X137919047Y-126754819D02*
X137633333Y-126754819D01*
X137633333Y-126754819D02*
X137538095Y-126707200D01*
X137538095Y-126707200D02*
X137490476Y-126659580D01*
X124657142Y-127359580D02*
X124609523Y-127407200D01*
X124609523Y-127407200D02*
X124466666Y-127454819D01*
X124466666Y-127454819D02*
X124371428Y-127454819D01*
X124371428Y-127454819D02*
X124228571Y-127407200D01*
X124228571Y-127407200D02*
X124133333Y-127311961D01*
X124133333Y-127311961D02*
X124085714Y-127216723D01*
X124085714Y-127216723D02*
X124038095Y-127026247D01*
X124038095Y-127026247D02*
X124038095Y-126883390D01*
X124038095Y-126883390D02*
X124085714Y-126692914D01*
X124085714Y-126692914D02*
X124133333Y-126597676D01*
X124133333Y-126597676D02*
X124228571Y-126502438D01*
X124228571Y-126502438D02*
X124371428Y-126454819D01*
X124371428Y-126454819D02*
X124466666Y-126454819D01*
X124466666Y-126454819D02*
X124609523Y-126502438D01*
X124609523Y-126502438D02*
X124657142Y-126550057D01*
X125609523Y-127454819D02*
X125038095Y-127454819D01*
X125323809Y-127454819D02*
X125323809Y-126454819D01*
X125323809Y-126454819D02*
X125228571Y-126597676D01*
X125228571Y-126597676D02*
X125133333Y-126692914D01*
X125133333Y-126692914D02*
X125038095Y-126740533D01*
X125942857Y-126454819D02*
X126561904Y-126454819D01*
X126561904Y-126454819D02*
X126228571Y-126835771D01*
X126228571Y-126835771D02*
X126371428Y-126835771D01*
X126371428Y-126835771D02*
X126466666Y-126883390D01*
X126466666Y-126883390D02*
X126514285Y-126931009D01*
X126514285Y-126931009D02*
X126561904Y-127026247D01*
X126561904Y-127026247D02*
X126561904Y-127264342D01*
X126561904Y-127264342D02*
X126514285Y-127359580D01*
X126514285Y-127359580D02*
X126466666Y-127407200D01*
X126466666Y-127407200D02*
X126371428Y-127454819D01*
X126371428Y-127454819D02*
X126085714Y-127454819D01*
X126085714Y-127454819D02*
X125990476Y-127407200D01*
X125990476Y-127407200D02*
X125942857Y-127359580D01*
X128057142Y-97584819D02*
X127723809Y-97108628D01*
X127485714Y-97584819D02*
X127485714Y-96584819D01*
X127485714Y-96584819D02*
X127866666Y-96584819D01*
X127866666Y-96584819D02*
X127961904Y-96632438D01*
X127961904Y-96632438D02*
X128009523Y-96680057D01*
X128009523Y-96680057D02*
X128057142Y-96775295D01*
X128057142Y-96775295D02*
X128057142Y-96918152D01*
X128057142Y-96918152D02*
X128009523Y-97013390D01*
X128009523Y-97013390D02*
X127961904Y-97061009D01*
X127961904Y-97061009D02*
X127866666Y-97108628D01*
X127866666Y-97108628D02*
X127485714Y-97108628D01*
X129009523Y-97584819D02*
X128438095Y-97584819D01*
X128723809Y-97584819D02*
X128723809Y-96584819D01*
X128723809Y-96584819D02*
X128628571Y-96727676D01*
X128628571Y-96727676D02*
X128533333Y-96822914D01*
X128533333Y-96822914D02*
X128438095Y-96870533D01*
X129914285Y-96584819D02*
X129438095Y-96584819D01*
X129438095Y-96584819D02*
X129390476Y-97061009D01*
X129390476Y-97061009D02*
X129438095Y-97013390D01*
X129438095Y-97013390D02*
X129533333Y-96965771D01*
X129533333Y-96965771D02*
X129771428Y-96965771D01*
X129771428Y-96965771D02*
X129866666Y-97013390D01*
X129866666Y-97013390D02*
X129914285Y-97061009D01*
X129914285Y-97061009D02*
X129961904Y-97156247D01*
X129961904Y-97156247D02*
X129961904Y-97394342D01*
X129961904Y-97394342D02*
X129914285Y-97489580D01*
X129914285Y-97489580D02*
X129866666Y-97537200D01*
X129866666Y-97537200D02*
X129771428Y-97584819D01*
X129771428Y-97584819D02*
X129533333Y-97584819D01*
X129533333Y-97584819D02*
X129438095Y-97537200D01*
X129438095Y-97537200D02*
X129390476Y-97489580D01*
D11*
%TO.C,R12*%
X128757776Y-125377500D02*
X129267224Y-125377500D01*
X128757776Y-126422500D02*
X129267224Y-126422500D01*
%TO.C,C3*%
X127953733Y-100890000D02*
X128246267Y-100890000D01*
X127953733Y-101910000D02*
X128246267Y-101910000D01*
%TO.C,Y1*%
X124768459Y-105460181D02*
X127368895Y-107491862D01*
X127368895Y-107491862D02*
X129831541Y-104339819D01*
%TO.C,TP12*%
X139350000Y-112400000D02*
G75*
G02*
X137450000Y-112400000I-950000J0D01*
G01*
X137450000Y-112400000D02*
G75*
G02*
X139350000Y-112400000I950000J0D01*
G01*
%TO.C,TP11*%
X136750000Y-112400000D02*
G75*
G02*
X134850000Y-112400000I-950000J0D01*
G01*
X134850000Y-112400000D02*
G75*
G02*
X136750000Y-112400000I950000J0D01*
G01*
%TO.C,U1*%
X131690000Y-100276000D02*
X131690000Y-100726000D01*
X131690000Y-107496000D02*
X131690000Y-107046000D01*
X132140000Y-100276000D02*
X131690000Y-100276000D01*
X132140000Y-107496000D02*
X131690000Y-107496000D01*
X138460000Y-100276000D02*
X138910000Y-100276000D01*
X138460000Y-107496000D02*
X138910000Y-107496000D01*
X138910000Y-100276000D02*
X138910000Y-100726000D01*
X138910000Y-107496000D02*
X138910000Y-107046000D01*
X131100000Y-100726000D02*
X130760000Y-100256000D01*
X131440000Y-100256000D01*
X131100000Y-100726000D01*
G36*
X131100000Y-100726000D02*
G01*
X130760000Y-100256000D01*
X131440000Y-100256000D01*
X131100000Y-100726000D01*
G37*
%TO.C,C10*%
X145890000Y-100546267D02*
X145890000Y-100253733D01*
X146910000Y-100546267D02*
X146910000Y-100253733D01*
%TO.C,C7*%
X152390000Y-100653733D02*
X152390000Y-100946267D01*
X153410000Y-100653733D02*
X153410000Y-100946267D01*
%TO.C,J1*%
X124190000Y-90885000D02*
X124190000Y-93385000D01*
X124190000Y-93385000D02*
X125240000Y-93385000D01*
X129240000Y-88915000D02*
X125360000Y-88915000D01*
X129360000Y-93385000D02*
X129360000Y-94375000D01*
X130410000Y-90885000D02*
X130410000Y-93385000D01*
X130410000Y-93385000D02*
X129360000Y-93385000D01*
%TO.C,J3*%
X154950000Y-97150000D02*
X154950000Y-97650000D01*
X155240000Y-92790000D02*
X160960000Y-92790000D01*
X155240000Y-93860000D02*
X155240000Y-92790000D01*
X155240000Y-97440000D02*
X155240000Y-98510000D01*
X155240000Y-98510000D02*
X160960000Y-98510000D01*
X155250000Y-97150000D02*
X154950000Y-97150000D01*
X155540000Y-93860000D02*
X155240000Y-93860000D01*
X155540000Y-95650000D02*
X155540000Y-93860000D01*
X155540000Y-95650000D02*
X155540000Y-97440000D01*
X155540000Y-97440000D02*
X155240000Y-97440000D01*
X160960000Y-92790000D02*
X160960000Y-95650000D01*
X160960000Y-98510000D02*
X160960000Y-95650000D01*
%TO.C,C15*%
X154420000Y-110900000D02*
G75*
G02*
X149180000Y-110900000I-2620000J0D01*
G01*
X149180000Y-110900000D02*
G75*
G02*
X154420000Y-110900000I2620000J0D01*
G01*
%TO.C,C17*%
X128866233Y-126890000D02*
X129158767Y-126890000D01*
X128866233Y-127910000D02*
X129158767Y-127910000D01*
%TO.C,R4*%
X144345276Y-128677500D02*
X144854724Y-128677500D01*
X144345276Y-129722500D02*
X144854724Y-129722500D01*
%TO.C,D1*%
X126835000Y-117135000D02*
X126835000Y-115665000D01*
X126835000Y-115665000D02*
X124375000Y-115665000D01*
X124375000Y-117135000D02*
X126835000Y-117135000D01*
%TO.C,U4*%
X131262500Y-127317500D02*
X133262500Y-127317500D01*
X131422500Y-124057500D02*
X133262500Y-124057500D01*
X131102500Y-124297500D02*
X130822500Y-124297500D01*
X131102500Y-124017500D01*
X131102500Y-124297500D01*
G36*
X131102500Y-124297500D02*
G01*
X130822500Y-124297500D01*
X131102500Y-124017500D01*
X131102500Y-124297500D01*
G37*
%TO.C,J4*%
X143195000Y-91330000D02*
X143195000Y-90000000D01*
X144525000Y-91330000D02*
X143195000Y-91330000D01*
X145795000Y-88670000D02*
X148395000Y-88670000D01*
X145795000Y-91330000D02*
X145795000Y-88670000D01*
X145795000Y-91330000D02*
X148395000Y-91330000D01*
X148395000Y-91330000D02*
X148395000Y-88670000D01*
%TO.C,D3*%
X144400000Y-112635000D02*
X146860000Y-112635000D01*
X146860000Y-111165000D02*
X144400000Y-111165000D01*
X146860000Y-112635000D02*
X146860000Y-111165000D01*
D10*
%TO.C,U2*%
X147787499Y-99475000D02*
X147787499Y-95325000D01*
X151937499Y-95325000D02*
X147787499Y-95325000D01*
X151937499Y-99475000D02*
X147787499Y-99475000D01*
X151937499Y-99475000D02*
X151937499Y-95325000D01*
D12*
X148787500Y-100050000D02*
G75*
G02*
X148537498Y-100050000I-125001J0D01*
G01*
X148537498Y-100050000D02*
G75*
G02*
X148787500Y-100050000I125001J0D01*
G01*
D11*
%TO.C,C9*%
X153890000Y-100653733D02*
X153890000Y-100946267D01*
X154910000Y-100653733D02*
X154910000Y-100946267D01*
%TO.C,R13*%
X125454724Y-117777500D02*
X124945276Y-117777500D01*
X125454724Y-118822500D02*
X124945276Y-118822500D01*
%TO.C,TP8*%
X143650000Y-105000000D02*
G75*
G02*
X141750000Y-105000000I-950000J0D01*
G01*
X141750000Y-105000000D02*
G75*
G02*
X143650000Y-105000000I950000J0D01*
G01*
%TO.C,Q2*%
X149550000Y-129650000D02*
X156350000Y-129650000D01*
X156350000Y-124150000D02*
X150420000Y-124150000D01*
X156350000Y-129650000D02*
X156350000Y-124150000D01*
X149910000Y-124380000D02*
X149670000Y-124050000D01*
X150150000Y-124050000D01*
X149910000Y-124380000D01*
G36*
X149910000Y-124380000D02*
G01*
X149670000Y-124050000D01*
X150150000Y-124050000D01*
X149910000Y-124380000D01*
G37*
%TO.C,TP9*%
X143550000Y-102100000D02*
G75*
G02*
X141650000Y-102100000I-950000J0D01*
G01*
X141650000Y-102100000D02*
G75*
G02*
X143550000Y-102100000I950000J0D01*
G01*
%TO.C,Q4*%
X141875000Y-118650000D02*
X141875000Y-125450000D01*
X141875000Y-125450000D02*
X147375000Y-125450000D01*
X147375000Y-125450000D02*
X147375000Y-119520000D01*
X147475000Y-119250000D02*
X147145000Y-119010000D01*
X147475000Y-118770000D01*
X147475000Y-119250000D01*
G36*
X147475000Y-119250000D02*
G01*
X147145000Y-119010000D01*
X147475000Y-118770000D01*
X147475000Y-119250000D01*
G37*
%TO.C,R11*%
X125967224Y-128377500D02*
X125457776Y-128377500D01*
X125967224Y-129422500D02*
X125457776Y-129422500D01*
%TO.C,H1*%
X156700000Y-122200000D02*
X161100000Y-122200000D01*
X156700000Y-126600000D02*
X156700000Y-122200000D01*
X161100000Y-122200000D02*
X161100000Y-126600000D01*
X161100000Y-126600000D02*
X156700000Y-126600000D01*
%TO.C,C5*%
X148846267Y-93890000D02*
X148553733Y-93890000D01*
X148846267Y-94910000D02*
X148553733Y-94910000D01*
%TO.C,TP10*%
X134150000Y-112400000D02*
G75*
G02*
X132250000Y-112400000I-950000J0D01*
G01*
X132250000Y-112400000D02*
G75*
G02*
X134150000Y-112400000I950000J0D01*
G01*
%TO.C,J2*%
X133490000Y-90885000D02*
X133490000Y-93385000D01*
X133490000Y-93385000D02*
X134540000Y-93385000D01*
X140540000Y-88915000D02*
X134660000Y-88915000D01*
X140660000Y-93385000D02*
X140660000Y-94375000D01*
X141710000Y-90885000D02*
X141710000Y-93385000D01*
X141710000Y-93385000D02*
X140660000Y-93385000D01*
%TO.C,SW1*%
X124700000Y-111950000D02*
X124700000Y-112050000D01*
X124700000Y-113550000D02*
X129100000Y-113550000D01*
X129100000Y-110450000D02*
X124700000Y-110450000D01*
X129100000Y-111950000D02*
X129100000Y-112050000D01*
%TO.C,H3*%
X123012500Y-119900000D02*
X127412500Y-119900000D01*
X123012500Y-124300000D02*
X123012500Y-119900000D01*
X127412500Y-119900000D02*
X127412500Y-124300000D01*
X127412500Y-124300000D02*
X123012500Y-124300000D01*
%TO.C,C16*%
X134890000Y-127746267D02*
X134890000Y-127453733D01*
X135910000Y-127746267D02*
X135910000Y-127453733D01*
%TO.C,R2*%
X145877500Y-96845276D02*
X145877500Y-97354724D01*
X146922500Y-96845276D02*
X146922500Y-97354724D01*
%TO.C,R10*%
X129267224Y-128377500D02*
X128757776Y-128377500D01*
X129267224Y-129422500D02*
X128757776Y-129422500D01*
%TO.C,C14*%
X133746267Y-121690000D02*
X133453733Y-121690000D01*
X133746267Y-122710000D02*
X133453733Y-122710000D01*
%TO.C,C4*%
X127953733Y-107890000D02*
X128246267Y-107890000D01*
X127953733Y-108910000D02*
X128246267Y-108910000D01*
%TO.C,C6*%
X150790000Y-101053733D02*
X150790000Y-101346267D01*
X151810000Y-101053733D02*
X151810000Y-101346267D01*
%TO.C,R16*%
X132562742Y-95177500D02*
X133037258Y-95177500D01*
X132562742Y-96222500D02*
X133037258Y-96222500D01*
%TO.C,Q1*%
X149550000Y-123815000D02*
X156350000Y-123815000D01*
X156350000Y-118315000D02*
X150420000Y-118315000D01*
X156350000Y-123815000D02*
X156350000Y-118315000D01*
X149910000Y-118545000D02*
X149670000Y-118215000D01*
X150150000Y-118215000D01*
X149910000Y-118545000D01*
G36*
X149910000Y-118545000D02*
G01*
X149670000Y-118215000D01*
X150150000Y-118215000D01*
X149910000Y-118545000D01*
G37*
%TO.C,C8*%
X155590000Y-100688748D02*
X155590000Y-102111252D01*
X157410000Y-100688748D02*
X157410000Y-102111252D01*
%TO.C,Q3*%
X136045000Y-118650000D02*
X136045000Y-125450000D01*
X136045000Y-125450000D02*
X141545000Y-125450000D01*
X141545000Y-125450000D02*
X141545000Y-119520000D01*
X141645000Y-119250000D02*
X141315000Y-119010000D01*
X141645000Y-118770000D01*
X141645000Y-119250000D01*
G36*
X141645000Y-119250000D02*
G01*
X141315000Y-119010000D01*
X141645000Y-118770000D01*
X141645000Y-119250000D01*
G37*
%TO.C,C13*%
X125358767Y-124990000D02*
X125066233Y-124990000D01*
X125358767Y-126010000D02*
X125066233Y-126010000D01*
%TO.C,R15*%
X128937258Y-95177500D02*
X128462742Y-95177500D01*
X128937258Y-96222500D02*
X128462742Y-96222500D01*
%TO.C,TP7*%
X143650000Y-107800000D02*
G75*
G02*
X141750000Y-107800000I-950000J0D01*
G01*
X141750000Y-107800000D02*
G75*
G02*
X143650000Y-107800000I950000J0D01*
G01*
%TD*%
%LPC*%
D13*
X158979576Y-97793455D02*
X159197642Y-97827994D01*
X159407620Y-97896219D01*
X159604339Y-97996453D01*
X159782958Y-98126227D01*
X160601584Y-98938719D01*
X160676576Y-99019845D01*
X160724441Y-99085726D01*
X160806349Y-99198463D01*
X160906583Y-99395182D01*
X160906583Y-99395183D01*
X160974809Y-99605160D01*
X161009347Y-99823226D01*
X161013684Y-108958618D01*
X161009347Y-109069010D01*
X160974808Y-109287076D01*
X160906583Y-109497054D01*
X160806349Y-109693773D01*
X160676575Y-109872392D01*
X158301583Y-112253517D01*
X158220458Y-112328509D01*
X158041839Y-112458283D01*
X157845120Y-112558517D01*
X157635142Y-112626742D01*
X157417076Y-112661281D01*
X154484669Y-112664903D01*
X150001583Y-117153517D01*
X149920458Y-117228509D01*
X149741839Y-117358283D01*
X149545120Y-117458517D01*
X149335142Y-117526742D01*
X149117076Y-117561281D01*
X136706684Y-117565618D01*
X136596292Y-117561281D01*
X136378226Y-117526742D01*
X136168248Y-117458517D01*
X135971529Y-117358283D01*
X135792911Y-117228509D01*
X135636793Y-117072391D01*
X135507019Y-116893773D01*
X135406785Y-116697054D01*
X135338560Y-116487076D01*
X135304021Y-116269010D01*
X135304021Y-116048226D01*
X135338560Y-115830160D01*
X135406785Y-115620182D01*
X135507019Y-115423463D01*
X135636793Y-115244845D01*
X135792911Y-115088727D01*
X135971529Y-114958953D01*
X136168248Y-114858719D01*
X136378226Y-114790494D01*
X136596292Y-114755955D01*
X148429210Y-114751819D01*
X152911784Y-110263719D01*
X152992910Y-110188727D01*
X153068074Y-110134117D01*
X153171529Y-110058953D01*
X153368248Y-109958719D01*
X153578226Y-109890494D01*
X153796292Y-109855955D01*
X156728035Y-109852332D01*
X158203690Y-108372867D01*
X158200000Y-100600000D01*
X156206684Y-100603118D01*
X156096292Y-100598781D01*
X155878226Y-100564242D01*
X155668248Y-100496017D01*
X155471529Y-100395783D01*
X155292911Y-100266009D01*
X155136793Y-100109891D01*
X155007019Y-99931273D01*
X154906785Y-99734554D01*
X154838560Y-99524576D01*
X154804021Y-99306510D01*
X154804021Y-99085726D01*
X154838560Y-98867660D01*
X154906785Y-98657682D01*
X155007019Y-98460963D01*
X155136793Y-98282345D01*
X155292911Y-98126227D01*
X155471529Y-97996453D01*
X155668248Y-97896219D01*
X155878226Y-97827994D01*
X156096292Y-97793455D01*
X158869184Y-97789118D01*
X158979576Y-97793455D01*
G36*
X158979576Y-97793455D02*
G01*
X159197642Y-97827994D01*
X159407620Y-97896219D01*
X159604339Y-97996453D01*
X159782958Y-98126227D01*
X160601584Y-98938719D01*
X160676576Y-99019845D01*
X160724441Y-99085726D01*
X160806349Y-99198463D01*
X160906583Y-99395182D01*
X160906583Y-99395183D01*
X160974809Y-99605160D01*
X161009347Y-99823226D01*
X161013684Y-108958618D01*
X161009347Y-109069010D01*
X160974808Y-109287076D01*
X160906583Y-109497054D01*
X160806349Y-109693773D01*
X160676575Y-109872392D01*
X158301583Y-112253517D01*
X158220458Y-112328509D01*
X158041839Y-112458283D01*
X157845120Y-112558517D01*
X157635142Y-112626742D01*
X157417076Y-112661281D01*
X154484669Y-112664903D01*
X150001583Y-117153517D01*
X149920458Y-117228509D01*
X149741839Y-117358283D01*
X149545120Y-117458517D01*
X149335142Y-117526742D01*
X149117076Y-117561281D01*
X136706684Y-117565618D01*
X136596292Y-117561281D01*
X136378226Y-117526742D01*
X136168248Y-117458517D01*
X135971529Y-117358283D01*
X135792911Y-117228509D01*
X135636793Y-117072391D01*
X135507019Y-116893773D01*
X135406785Y-116697054D01*
X135338560Y-116487076D01*
X135304021Y-116269010D01*
X135304021Y-116048226D01*
X135338560Y-115830160D01*
X135406785Y-115620182D01*
X135507019Y-115423463D01*
X135636793Y-115244845D01*
X135792911Y-115088727D01*
X135971529Y-114958953D01*
X136168248Y-114858719D01*
X136378226Y-114790494D01*
X136596292Y-114755955D01*
X148429210Y-114751819D01*
X152911784Y-110263719D01*
X152992910Y-110188727D01*
X153068074Y-110134117D01*
X153171529Y-110058953D01*
X153368248Y-109958719D01*
X153578226Y-109890494D01*
X153796292Y-109855955D01*
X156728035Y-109852332D01*
X158203690Y-108372867D01*
X158200000Y-100600000D01*
X156206684Y-100603118D01*
X156096292Y-100598781D01*
X155878226Y-100564242D01*
X155668248Y-100496017D01*
X155471529Y-100395783D01*
X155292911Y-100266009D01*
X155136793Y-100109891D01*
X155007019Y-99931273D01*
X154906785Y-99734554D01*
X154838560Y-99524576D01*
X154804021Y-99306510D01*
X154804021Y-99085726D01*
X154838560Y-98867660D01*
X154906785Y-98657682D01*
X155007019Y-98460963D01*
X155136793Y-98282345D01*
X155292911Y-98126227D01*
X155471529Y-97996453D01*
X155668248Y-97896219D01*
X155878226Y-97827994D01*
X156096292Y-97793455D01*
X158869184Y-97789118D01*
X158979576Y-97793455D01*
G37*
D14*
%TO.C,R12*%
X128100000Y-125900000D03*
X129925000Y-125900000D03*
%TD*%
D15*
%TO.C,C3*%
X127237500Y-101400000D03*
X128962500Y-101400000D03*
%TD*%
D16*
%TO.C,Y1*%
X127292582Y-106290124D03*
X128647036Y-104556501D03*
X127307418Y-103509876D03*
X125952964Y-105243499D03*
%TD*%
D17*
%TO.C,TP12*%
X138400000Y-112400000D03*
%TD*%
%TO.C,TP11*%
X135800000Y-112400000D03*
%TD*%
D18*
%TO.C,U1*%
X131137500Y-101136000D03*
X131137500Y-101636000D03*
X131137500Y-102136000D03*
X131137500Y-102636000D03*
X131137500Y-103136000D03*
X131137500Y-103636000D03*
X131137500Y-104136000D03*
X131137500Y-104636000D03*
X131137500Y-105136000D03*
X131137500Y-105636000D03*
X131137500Y-106136000D03*
X131137500Y-106636000D03*
D19*
X132550000Y-108048500D03*
X133050000Y-108048500D03*
X133550000Y-108048500D03*
X134050000Y-108048500D03*
X134550000Y-108048500D03*
X135050000Y-108048500D03*
X135550000Y-108048500D03*
X136050000Y-108048500D03*
X136550000Y-108048500D03*
X137050000Y-108048500D03*
X137550000Y-108048500D03*
X138050000Y-108048500D03*
D18*
X139462500Y-106636000D03*
X139462500Y-106136000D03*
X139462500Y-105636000D03*
X139462500Y-105136000D03*
X139462500Y-104636000D03*
X139462500Y-104136000D03*
X139462500Y-103636000D03*
X139462500Y-103136000D03*
X139462500Y-102636000D03*
X139462500Y-102136000D03*
X139462500Y-101636000D03*
X139462500Y-101136000D03*
D19*
X138050000Y-99723500D03*
X137550000Y-99723500D03*
X137050000Y-99723500D03*
X136550000Y-99723500D03*
X136050000Y-99723500D03*
X135550000Y-99723500D03*
X135050000Y-99723500D03*
X134550000Y-99723500D03*
X134050000Y-99723500D03*
X133550000Y-99723500D03*
X133050000Y-99723500D03*
X132550000Y-99723500D03*
%TD*%
D20*
%TO.C,C10*%
X146400000Y-101262501D03*
X146400000Y-99537499D03*
%TD*%
D21*
%TO.C,C7*%
X152900000Y-99937499D03*
X152900000Y-101662501D03*
%TD*%
D22*
%TO.C,J1*%
X128800000Y-93600000D03*
X127800000Y-93600000D03*
X126800000Y-93600000D03*
X125800000Y-93600000D03*
D23*
X130100000Y-89725000D03*
X124500000Y-89725000D03*
%TD*%
D24*
%TO.C,J3*%
X156400000Y-96900000D03*
D25*
X156400000Y-95650000D03*
X156400000Y-94400000D03*
%TD*%
D26*
%TO.C,C15*%
X152800000Y-110900000D03*
X150800000Y-110900000D03*
%TD*%
D15*
%TO.C,C17*%
X128150000Y-127400000D03*
X129875000Y-127400000D03*
%TD*%
D14*
%TO.C,R4*%
X143687500Y-129200000D03*
X145512500Y-129200000D03*
%TD*%
D27*
%TO.C,D1*%
X124300000Y-116400000D03*
X126050000Y-116400000D03*
%TD*%
D28*
%TO.C,U4*%
X131312500Y-124687500D03*
X131312500Y-125187500D03*
X131312500Y-125687500D03*
X131312500Y-126187500D03*
X131312500Y-126687500D03*
X133212500Y-126687500D03*
X133212500Y-126187500D03*
X133212500Y-125687500D03*
X133212500Y-125187500D03*
X133212500Y-124687500D03*
D29*
X132262500Y-124737500D03*
X132262500Y-125687500D03*
D30*
X132262500Y-125687500D03*
D29*
X132262500Y-126637500D03*
%TD*%
D31*
%TO.C,J4*%
X144525000Y-90000000D03*
D32*
X147065000Y-90000000D03*
%TD*%
D27*
%TO.C,D3*%
X146075000Y-111900000D03*
X144325000Y-111900000D03*
%TD*%
D33*
%TO.C,U2*%
X148662499Y-98865001D03*
X149062498Y-98865001D03*
X149462500Y-98865001D03*
X149862499Y-98865001D03*
X150262498Y-98865001D03*
X150662500Y-98865001D03*
X151062499Y-98865001D03*
D34*
X151327500Y-98070001D03*
X151327500Y-97669999D03*
X151327500Y-97270000D03*
X151327500Y-96870001D03*
X151327500Y-96469999D03*
D33*
X151062499Y-95934999D03*
X150662500Y-95934999D03*
X150262498Y-95934999D03*
X149862499Y-95934999D03*
X149462500Y-95934999D03*
X149062498Y-95934999D03*
X148662499Y-95934999D03*
D34*
X148397498Y-96469999D03*
X148397498Y-96870001D03*
X148397498Y-97270000D03*
X148397498Y-97669999D03*
X148397498Y-98070001D03*
D29*
X149162498Y-98100001D03*
X150562500Y-98100001D03*
D35*
X149862499Y-97400000D03*
D29*
X149862499Y-97374600D03*
X149162498Y-96699999D03*
X150562500Y-96699999D03*
%TD*%
D21*
%TO.C,C9*%
X154400000Y-99937500D03*
X154400000Y-101662500D03*
%TD*%
D36*
%TO.C,R13*%
X126112500Y-118300000D03*
X124287500Y-118300000D03*
%TD*%
D17*
%TO.C,TP8*%
X142700000Y-105000000D03*
%TD*%
D37*
%TO.C,Q2*%
X149925000Y-124995000D03*
X149925000Y-126265000D03*
X149925000Y-127535000D03*
X149925000Y-128805000D03*
D38*
X152650000Y-126900000D03*
%TD*%
D17*
%TO.C,TP9*%
X142600000Y-102100000D03*
%TD*%
D39*
%TO.C,Q4*%
X146530000Y-119025000D03*
X145260000Y-119025000D03*
X143990000Y-119025000D03*
X142720000Y-119025000D03*
D40*
X144625000Y-121750000D03*
%TD*%
D36*
%TO.C,R11*%
X126625000Y-128900000D03*
X124800000Y-128900000D03*
%TD*%
D41*
%TO.C,H1*%
X158900000Y-124400000D03*
%TD*%
D42*
%TO.C,C5*%
X149562500Y-94400000D03*
X147837500Y-94400000D03*
%TD*%
D17*
%TO.C,TP10*%
X133200000Y-112400000D03*
%TD*%
D22*
%TO.C,J2*%
X140100000Y-93600000D03*
X139100000Y-93600000D03*
X138100000Y-93600000D03*
X137100000Y-93600000D03*
X136100000Y-93600000D03*
X135100000Y-93600000D03*
D23*
X141400000Y-89725000D03*
X133800000Y-89725000D03*
%TD*%
D43*
%TO.C,SW1*%
X128950000Y-112800000D03*
X124850000Y-112800000D03*
X128950000Y-111200000D03*
X124850000Y-111200000D03*
%TD*%
D41*
%TO.C,H3*%
X125212500Y-122100000D03*
%TD*%
D20*
%TO.C,C16*%
X135400000Y-128462500D03*
X135400000Y-126737500D03*
%TD*%
D44*
%TO.C,R2*%
X146400000Y-96187500D03*
X146400000Y-98012500D03*
%TD*%
D36*
%TO.C,R10*%
X129925000Y-128900000D03*
X128100000Y-128900000D03*
%TD*%
D42*
%TO.C,C14*%
X134462500Y-122200000D03*
X132737500Y-122200000D03*
%TD*%
D15*
%TO.C,C4*%
X127237500Y-108400000D03*
X128962500Y-108400000D03*
%TD*%
D21*
%TO.C,C6*%
X151300000Y-100337499D03*
X151300000Y-102062501D03*
%TD*%
D45*
%TO.C,R16*%
X131975000Y-95700000D03*
X133625000Y-95700000D03*
%TD*%
D37*
%TO.C,Q1*%
X149925000Y-119160000D03*
X149925000Y-120430000D03*
X149925000Y-121700000D03*
X149925000Y-122970000D03*
D38*
X152650000Y-121065000D03*
%TD*%
D46*
%TO.C,C8*%
X156500000Y-99837500D03*
X156500000Y-102962500D03*
%TD*%
D39*
%TO.C,Q3*%
X140700000Y-119025000D03*
X139430000Y-119025000D03*
X138160000Y-119025000D03*
X136890000Y-119025000D03*
D40*
X138795000Y-121750000D03*
%TD*%
D42*
%TO.C,C13*%
X126075000Y-125500000D03*
X124350000Y-125500000D03*
%TD*%
D47*
%TO.C,R15*%
X129525000Y-95700000D03*
X127875000Y-95700000D03*
%TD*%
D17*
%TO.C,TP7*%
X142700000Y-107800000D03*
%TD*%
%LPD*%
M02*
