%TF.GenerationSoftware,KiCad,Pcbnew,8.0.5-8.0.5-0~ubuntu24.04.1*%
%TF.CreationDate,2024-09-15T15:15:16-06:00*%
%TF.ProjectId,MA735 encoder board,4d413733-3520-4656-9e63-6f6465722062,rev?*%
%TF.SameCoordinates,Original*%
%TF.FileFunction,AssemblyDrawing,Top*%
%FSLAX46Y46*%
G04 Gerber Fmt 4.6, Leading zero omitted, Abs format (unit mm)*
G04 Created by KiCad (PCBNEW 8.0.5-8.0.5-0~ubuntu24.04.1) date 2024-09-15 15:15:16*
%MOMM*%
%LPD*%
G01*
G04 APERTURE LIST*
%ADD10C,0.150000*%
%ADD11C,0.040000*%
%ADD12C,0.025400*%
%ADD13C,0.100000*%
G04 APERTURE END LIST*
D10*
X157609523Y-131945180D02*
X157609523Y-132945180D01*
X157609523Y-132945180D02*
X157276190Y-132230895D01*
X157276190Y-132230895D02*
X156942857Y-132945180D01*
X156942857Y-132945180D02*
X156942857Y-131945180D01*
X156514285Y-132230895D02*
X156038095Y-132230895D01*
X156609523Y-131945180D02*
X156276190Y-132945180D01*
X156276190Y-132945180D02*
X155942857Y-131945180D01*
X155704761Y-132945180D02*
X155038095Y-132945180D01*
X155038095Y-132945180D02*
X155466666Y-131945180D01*
X154752380Y-132945180D02*
X154133333Y-132945180D01*
X154133333Y-132945180D02*
X154466666Y-132564228D01*
X154466666Y-132564228D02*
X154323809Y-132564228D01*
X154323809Y-132564228D02*
X154228571Y-132516609D01*
X154228571Y-132516609D02*
X154180952Y-132468990D01*
X154180952Y-132468990D02*
X154133333Y-132373752D01*
X154133333Y-132373752D02*
X154133333Y-132135657D01*
X154133333Y-132135657D02*
X154180952Y-132040419D01*
X154180952Y-132040419D02*
X154228571Y-131992800D01*
X154228571Y-131992800D02*
X154323809Y-131945180D01*
X154323809Y-131945180D02*
X154609523Y-131945180D01*
X154609523Y-131945180D02*
X154704761Y-131992800D01*
X154704761Y-131992800D02*
X154752380Y-132040419D01*
X153228571Y-132945180D02*
X153704761Y-132945180D01*
X153704761Y-132945180D02*
X153752380Y-132468990D01*
X153752380Y-132468990D02*
X153704761Y-132516609D01*
X153704761Y-132516609D02*
X153609523Y-132564228D01*
X153609523Y-132564228D02*
X153371428Y-132564228D01*
X153371428Y-132564228D02*
X153276190Y-132516609D01*
X153276190Y-132516609D02*
X153228571Y-132468990D01*
X153228571Y-132468990D02*
X153180952Y-132373752D01*
X153180952Y-132373752D02*
X153180952Y-132135657D01*
X153180952Y-132135657D02*
X153228571Y-132040419D01*
X153228571Y-132040419D02*
X153276190Y-131992800D01*
X153276190Y-131992800D02*
X153371428Y-131945180D01*
X153371428Y-131945180D02*
X153609523Y-131945180D01*
X153609523Y-131945180D02*
X153704761Y-131992800D01*
X153704761Y-131992800D02*
X153752380Y-132040419D01*
X152228571Y-132897561D02*
X152323809Y-132945180D01*
X152323809Y-132945180D02*
X152466666Y-132945180D01*
X152466666Y-132945180D02*
X152609523Y-132897561D01*
X152609523Y-132897561D02*
X152704761Y-132802323D01*
X152704761Y-132802323D02*
X152752380Y-132707085D01*
X152752380Y-132707085D02*
X152799999Y-132516609D01*
X152799999Y-132516609D02*
X152799999Y-132373752D01*
X152799999Y-132373752D02*
X152752380Y-132183276D01*
X152752380Y-132183276D02*
X152704761Y-132088038D01*
X152704761Y-132088038D02*
X152609523Y-131992800D01*
X152609523Y-131992800D02*
X152466666Y-131945180D01*
X152466666Y-131945180D02*
X152371428Y-131945180D01*
X152371428Y-131945180D02*
X152228571Y-131992800D01*
X152228571Y-131992800D02*
X152180952Y-132040419D01*
X152180952Y-132040419D02*
X152180952Y-132373752D01*
X152180952Y-132373752D02*
X152371428Y-132373752D01*
X151228571Y-132897561D02*
X151323809Y-132945180D01*
X151323809Y-132945180D02*
X151466666Y-132945180D01*
X151466666Y-132945180D02*
X151609523Y-132897561D01*
X151609523Y-132897561D02*
X151704761Y-132802323D01*
X151704761Y-132802323D02*
X151752380Y-132707085D01*
X151752380Y-132707085D02*
X151799999Y-132516609D01*
X151799999Y-132516609D02*
X151799999Y-132373752D01*
X151799999Y-132373752D02*
X151752380Y-132183276D01*
X151752380Y-132183276D02*
X151704761Y-132088038D01*
X151704761Y-132088038D02*
X151609523Y-131992800D01*
X151609523Y-131992800D02*
X151466666Y-131945180D01*
X151466666Y-131945180D02*
X151371428Y-131945180D01*
X151371428Y-131945180D02*
X151228571Y-131992800D01*
X151228571Y-131992800D02*
X151180952Y-132040419D01*
X151180952Y-132040419D02*
X151180952Y-132373752D01*
X151180952Y-132373752D02*
X151371428Y-132373752D01*
X150752380Y-132945180D02*
X150752380Y-132135657D01*
X150752380Y-132135657D02*
X150704761Y-132040419D01*
X150704761Y-132040419D02*
X150657142Y-131992800D01*
X150657142Y-131992800D02*
X150561904Y-131945180D01*
X150561904Y-131945180D02*
X150371428Y-131945180D01*
X150371428Y-131945180D02*
X150276190Y-131992800D01*
X150276190Y-131992800D02*
X150228571Y-132040419D01*
X150228571Y-132040419D02*
X150180952Y-132135657D01*
X150180952Y-132135657D02*
X150180952Y-132945180D01*
X149704761Y-132326133D02*
X148942857Y-132326133D01*
X148561904Y-132945180D02*
X147895238Y-132945180D01*
X147895238Y-132945180D02*
X148561904Y-131945180D01*
X148561904Y-131945180D02*
X147895238Y-131945180D01*
X152825408Y-131554819D02*
X152825408Y-131792914D01*
X152587313Y-131697676D02*
X152825408Y-131792914D01*
X152825408Y-131792914D02*
X153063503Y-131697676D01*
X152682551Y-131983390D02*
X152825408Y-131792914D01*
X152825408Y-131792914D02*
X152968265Y-131983390D01*
X153572312Y-131745180D02*
X153572312Y-130935657D01*
X153572312Y-130935657D02*
X153524693Y-130840419D01*
X153524693Y-130840419D02*
X153477074Y-130792800D01*
X153477074Y-130792800D02*
X153381836Y-130745180D01*
X153381836Y-130745180D02*
X153191360Y-130745180D01*
X153191360Y-130745180D02*
X153096122Y-130792800D01*
X153096122Y-130792800D02*
X153048503Y-130840419D01*
X153048503Y-130840419D02*
X153000884Y-130935657D01*
X153000884Y-130935657D02*
X153000884Y-131745180D01*
X152000884Y-130745180D02*
X152572312Y-130745180D01*
X152286598Y-130745180D02*
X152286598Y-131745180D01*
X152286598Y-131745180D02*
X152381836Y-131602323D01*
X152381836Y-131602323D02*
X152477074Y-131507085D01*
X152477074Y-131507085D02*
X152572312Y-131459466D01*
X152825408Y-131554819D02*
X152825408Y-131792914D01*
X152587313Y-131697676D02*
X152825408Y-131792914D01*
X152825408Y-131792914D02*
X153063503Y-131697676D01*
X152682551Y-131983390D02*
X152825408Y-131792914D01*
X152825408Y-131792914D02*
X152968265Y-131983390D01*
X151157143Y-134414819D02*
X151252381Y-134414819D01*
X151252381Y-134414819D02*
X151347619Y-134462438D01*
X151347619Y-134462438D02*
X151395238Y-134510057D01*
X151395238Y-134510057D02*
X151442857Y-134605295D01*
X151442857Y-134605295D02*
X151490476Y-134795771D01*
X151490476Y-134795771D02*
X151490476Y-135033866D01*
X151490476Y-135033866D02*
X151442857Y-135224342D01*
X151442857Y-135224342D02*
X151395238Y-135319580D01*
X151395238Y-135319580D02*
X151347619Y-135367200D01*
X151347619Y-135367200D02*
X151252381Y-135414819D01*
X151252381Y-135414819D02*
X151157143Y-135414819D01*
X151157143Y-135414819D02*
X151061905Y-135367200D01*
X151061905Y-135367200D02*
X151014286Y-135319580D01*
X151014286Y-135319580D02*
X150966667Y-135224342D01*
X150966667Y-135224342D02*
X150919048Y-135033866D01*
X150919048Y-135033866D02*
X150919048Y-134795771D01*
X150919048Y-134795771D02*
X150966667Y-134605295D01*
X150966667Y-134605295D02*
X151014286Y-134510057D01*
X151014286Y-134510057D02*
X151061905Y-134462438D01*
X151061905Y-134462438D02*
X151157143Y-134414819D01*
X151919048Y-135319580D02*
X151966667Y-135367200D01*
X151966667Y-135367200D02*
X151919048Y-135414819D01*
X151919048Y-135414819D02*
X151871429Y-135367200D01*
X151871429Y-135367200D02*
X151919048Y-135319580D01*
X151919048Y-135319580D02*
X151919048Y-135414819D01*
X152919047Y-135414819D02*
X152347619Y-135414819D01*
X152633333Y-135414819D02*
X152633333Y-134414819D01*
X152633333Y-134414819D02*
X152538095Y-134557676D01*
X152538095Y-134557676D02*
X152442857Y-134652914D01*
X152442857Y-134652914D02*
X152347619Y-134700533D01*
X153776190Y-134748152D02*
X153776190Y-135414819D01*
X153347619Y-134748152D02*
X153347619Y-135271961D01*
X153347619Y-135271961D02*
X153395238Y-135367200D01*
X153395238Y-135367200D02*
X153490476Y-135414819D01*
X153490476Y-135414819D02*
X153633333Y-135414819D01*
X153633333Y-135414819D02*
X153728571Y-135367200D01*
X153728571Y-135367200D02*
X153776190Y-135319580D01*
X154585714Y-134891009D02*
X154252381Y-134891009D01*
X154252381Y-135414819D02*
X154252381Y-134414819D01*
X154252381Y-134414819D02*
X154728571Y-134414819D01*
D11*
X152758333Y-133889765D02*
X152746429Y-133901670D01*
X152746429Y-133901670D02*
X152710714Y-133913574D01*
X152710714Y-133913574D02*
X152686905Y-133913574D01*
X152686905Y-133913574D02*
X152651191Y-133901670D01*
X152651191Y-133901670D02*
X152627381Y-133877860D01*
X152627381Y-133877860D02*
X152615476Y-133854050D01*
X152615476Y-133854050D02*
X152603572Y-133806431D01*
X152603572Y-133806431D02*
X152603572Y-133770717D01*
X152603572Y-133770717D02*
X152615476Y-133723098D01*
X152615476Y-133723098D02*
X152627381Y-133699289D01*
X152627381Y-133699289D02*
X152651191Y-133675479D01*
X152651191Y-133675479D02*
X152686905Y-133663574D01*
X152686905Y-133663574D02*
X152710714Y-133663574D01*
X152710714Y-133663574D02*
X152746429Y-133675479D01*
X152746429Y-133675479D02*
X152758333Y-133687384D01*
X152853572Y-133687384D02*
X152865476Y-133675479D01*
X152865476Y-133675479D02*
X152889286Y-133663574D01*
X152889286Y-133663574D02*
X152948810Y-133663574D01*
X152948810Y-133663574D02*
X152972619Y-133675479D01*
X152972619Y-133675479D02*
X152984524Y-133687384D01*
X152984524Y-133687384D02*
X152996429Y-133711193D01*
X152996429Y-133711193D02*
X152996429Y-133735003D01*
X152996429Y-133735003D02*
X152984524Y-133770717D01*
X152984524Y-133770717D02*
X152841667Y-133913574D01*
X152841667Y-133913574D02*
X152996429Y-133913574D01*
D10*
X150254819Y-132295238D02*
X150254819Y-132866666D01*
X150254819Y-132580952D02*
X149254819Y-132580952D01*
X149254819Y-132580952D02*
X149397676Y-132676190D01*
X149397676Y-132676190D02*
X149492914Y-132771428D01*
X149492914Y-132771428D02*
X149540533Y-132866666D01*
X149588152Y-131438095D02*
X150254819Y-131438095D01*
X149588152Y-131866666D02*
X150111961Y-131866666D01*
X150111961Y-131866666D02*
X150207200Y-131819047D01*
X150207200Y-131819047D02*
X150254819Y-131723809D01*
X150254819Y-131723809D02*
X150254819Y-131580952D01*
X150254819Y-131580952D02*
X150207200Y-131485714D01*
X150207200Y-131485714D02*
X150159580Y-131438095D01*
X149731009Y-130628571D02*
X149731009Y-130961904D01*
X150254819Y-130961904D02*
X149254819Y-130961904D01*
X149254819Y-130961904D02*
X149254819Y-130485714D01*
D11*
X150789765Y-131741666D02*
X150801670Y-131753570D01*
X150801670Y-131753570D02*
X150813574Y-131789285D01*
X150813574Y-131789285D02*
X150813574Y-131813094D01*
X150813574Y-131813094D02*
X150801670Y-131848808D01*
X150801670Y-131848808D02*
X150777860Y-131872618D01*
X150777860Y-131872618D02*
X150754050Y-131884523D01*
X150754050Y-131884523D02*
X150706431Y-131896427D01*
X150706431Y-131896427D02*
X150670717Y-131896427D01*
X150670717Y-131896427D02*
X150623098Y-131884523D01*
X150623098Y-131884523D02*
X150599289Y-131872618D01*
X150599289Y-131872618D02*
X150575479Y-131848808D01*
X150575479Y-131848808D02*
X150563574Y-131813094D01*
X150563574Y-131813094D02*
X150563574Y-131789285D01*
X150563574Y-131789285D02*
X150575479Y-131753570D01*
X150575479Y-131753570D02*
X150587384Y-131741666D01*
X150813574Y-131503570D02*
X150813574Y-131646427D01*
X150813574Y-131574999D02*
X150563574Y-131574999D01*
X150563574Y-131574999D02*
X150599289Y-131598808D01*
X150599289Y-131598808D02*
X150623098Y-131622618D01*
X150623098Y-131622618D02*
X150635003Y-131646427D01*
D10*
X146466666Y-55931009D02*
X146133333Y-55931009D01*
X146133333Y-56454819D02*
X146133333Y-55454819D01*
X146133333Y-55454819D02*
X146609523Y-55454819D01*
X146990476Y-56454819D02*
X146990476Y-55454819D01*
X146990476Y-55454819D02*
X147371428Y-55454819D01*
X147371428Y-55454819D02*
X147466666Y-55502438D01*
X147466666Y-55502438D02*
X147514285Y-55550057D01*
X147514285Y-55550057D02*
X147561904Y-55645295D01*
X147561904Y-55645295D02*
X147561904Y-55788152D01*
X147561904Y-55788152D02*
X147514285Y-55883390D01*
X147514285Y-55883390D02*
X147466666Y-55931009D01*
X147466666Y-55931009D02*
X147371428Y-55978628D01*
X147371428Y-55978628D02*
X146990476Y-55978628D01*
X148561904Y-56359580D02*
X148514285Y-56407200D01*
X148514285Y-56407200D02*
X148371428Y-56454819D01*
X148371428Y-56454819D02*
X148276190Y-56454819D01*
X148276190Y-56454819D02*
X148133333Y-56407200D01*
X148133333Y-56407200D02*
X148038095Y-56311961D01*
X148038095Y-56311961D02*
X147990476Y-56216723D01*
X147990476Y-56216723D02*
X147942857Y-56026247D01*
X147942857Y-56026247D02*
X147942857Y-55883390D01*
X147942857Y-55883390D02*
X147990476Y-55692914D01*
X147990476Y-55692914D02*
X148038095Y-55597676D01*
X148038095Y-55597676D02*
X148133333Y-55502438D01*
X148133333Y-55502438D02*
X148276190Y-55454819D01*
X148276190Y-55454819D02*
X148371428Y-55454819D01*
X148371428Y-55454819D02*
X148514285Y-55502438D01*
X148514285Y-55502438D02*
X148561904Y-55550057D01*
X150180952Y-56407200D02*
X150085714Y-56454819D01*
X150085714Y-56454819D02*
X149895238Y-56454819D01*
X149895238Y-56454819D02*
X149800000Y-56407200D01*
X149800000Y-56407200D02*
X149752381Y-56359580D01*
X149752381Y-56359580D02*
X149704762Y-56264342D01*
X149704762Y-56264342D02*
X149704762Y-55978628D01*
X149704762Y-55978628D02*
X149752381Y-55883390D01*
X149752381Y-55883390D02*
X149800000Y-55835771D01*
X149800000Y-55835771D02*
X149895238Y-55788152D01*
X149895238Y-55788152D02*
X150085714Y-55788152D01*
X150085714Y-55788152D02*
X150180952Y-55835771D01*
X150752381Y-56454819D02*
X150657143Y-56407200D01*
X150657143Y-56407200D02*
X150609524Y-56359580D01*
X150609524Y-56359580D02*
X150561905Y-56264342D01*
X150561905Y-56264342D02*
X150561905Y-55978628D01*
X150561905Y-55978628D02*
X150609524Y-55883390D01*
X150609524Y-55883390D02*
X150657143Y-55835771D01*
X150657143Y-55835771D02*
X150752381Y-55788152D01*
X150752381Y-55788152D02*
X150895238Y-55788152D01*
X150895238Y-55788152D02*
X150990476Y-55835771D01*
X150990476Y-55835771D02*
X151038095Y-55883390D01*
X151038095Y-55883390D02*
X151085714Y-55978628D01*
X151085714Y-55978628D02*
X151085714Y-56264342D01*
X151085714Y-56264342D02*
X151038095Y-56359580D01*
X151038095Y-56359580D02*
X150990476Y-56407200D01*
X150990476Y-56407200D02*
X150895238Y-56454819D01*
X150895238Y-56454819D02*
X150752381Y-56454819D01*
X151514286Y-55788152D02*
X151514286Y-56454819D01*
X151514286Y-55883390D02*
X151561905Y-55835771D01*
X151561905Y-55835771D02*
X151657143Y-55788152D01*
X151657143Y-55788152D02*
X151800000Y-55788152D01*
X151800000Y-55788152D02*
X151895238Y-55835771D01*
X151895238Y-55835771D02*
X151942857Y-55931009D01*
X151942857Y-55931009D02*
X151942857Y-56454819D01*
X152276191Y-55788152D02*
X152657143Y-55788152D01*
X152419048Y-55454819D02*
X152419048Y-56311961D01*
X152419048Y-56311961D02*
X152466667Y-56407200D01*
X152466667Y-56407200D02*
X152561905Y-56454819D01*
X152561905Y-56454819D02*
X152657143Y-56454819D01*
X153419048Y-56454819D02*
X153419048Y-55931009D01*
X153419048Y-55931009D02*
X153371429Y-55835771D01*
X153371429Y-55835771D02*
X153276191Y-55788152D01*
X153276191Y-55788152D02*
X153085715Y-55788152D01*
X153085715Y-55788152D02*
X152990477Y-55835771D01*
X153419048Y-56407200D02*
X153323810Y-56454819D01*
X153323810Y-56454819D02*
X153085715Y-56454819D01*
X153085715Y-56454819D02*
X152990477Y-56407200D01*
X152990477Y-56407200D02*
X152942858Y-56311961D01*
X152942858Y-56311961D02*
X152942858Y-56216723D01*
X152942858Y-56216723D02*
X152990477Y-56121485D01*
X152990477Y-56121485D02*
X153085715Y-56073866D01*
X153085715Y-56073866D02*
X153323810Y-56073866D01*
X153323810Y-56073866D02*
X153419048Y-56026247D01*
X154323810Y-56407200D02*
X154228572Y-56454819D01*
X154228572Y-56454819D02*
X154038096Y-56454819D01*
X154038096Y-56454819D02*
X153942858Y-56407200D01*
X153942858Y-56407200D02*
X153895239Y-56359580D01*
X153895239Y-56359580D02*
X153847620Y-56264342D01*
X153847620Y-56264342D02*
X153847620Y-55978628D01*
X153847620Y-55978628D02*
X153895239Y-55883390D01*
X153895239Y-55883390D02*
X153942858Y-55835771D01*
X153942858Y-55835771D02*
X154038096Y-55788152D01*
X154038096Y-55788152D02*
X154228572Y-55788152D01*
X154228572Y-55788152D02*
X154323810Y-55835771D01*
X154609525Y-55788152D02*
X154990477Y-55788152D01*
X154752382Y-55454819D02*
X154752382Y-56311961D01*
X154752382Y-56311961D02*
X154800001Y-56407200D01*
X154800001Y-56407200D02*
X154895239Y-56454819D01*
X154895239Y-56454819D02*
X154990477Y-56454819D01*
X155276192Y-56407200D02*
X155371430Y-56454819D01*
X155371430Y-56454819D02*
X155561906Y-56454819D01*
X155561906Y-56454819D02*
X155657144Y-56407200D01*
X155657144Y-56407200D02*
X155704763Y-56311961D01*
X155704763Y-56311961D02*
X155704763Y-56264342D01*
X155704763Y-56264342D02*
X155657144Y-56169104D01*
X155657144Y-56169104D02*
X155561906Y-56121485D01*
X155561906Y-56121485D02*
X155419049Y-56121485D01*
X155419049Y-56121485D02*
X155323811Y-56073866D01*
X155323811Y-56073866D02*
X155276192Y-55978628D01*
X155276192Y-55978628D02*
X155276192Y-55931009D01*
X155276192Y-55931009D02*
X155323811Y-55835771D01*
X155323811Y-55835771D02*
X155419049Y-55788152D01*
X155419049Y-55788152D02*
X155561906Y-55788152D01*
X155561906Y-55788152D02*
X155657144Y-55835771D01*
X157085716Y-55454819D02*
X157180954Y-55454819D01*
X157180954Y-55454819D02*
X157276192Y-55502438D01*
X157276192Y-55502438D02*
X157323811Y-55550057D01*
X157323811Y-55550057D02*
X157371430Y-55645295D01*
X157371430Y-55645295D02*
X157419049Y-55835771D01*
X157419049Y-55835771D02*
X157419049Y-56073866D01*
X157419049Y-56073866D02*
X157371430Y-56264342D01*
X157371430Y-56264342D02*
X157323811Y-56359580D01*
X157323811Y-56359580D02*
X157276192Y-56407200D01*
X157276192Y-56407200D02*
X157180954Y-56454819D01*
X157180954Y-56454819D02*
X157085716Y-56454819D01*
X157085716Y-56454819D02*
X156990478Y-56407200D01*
X156990478Y-56407200D02*
X156942859Y-56359580D01*
X156942859Y-56359580D02*
X156895240Y-56264342D01*
X156895240Y-56264342D02*
X156847621Y-56073866D01*
X156847621Y-56073866D02*
X156847621Y-55835771D01*
X156847621Y-55835771D02*
X156895240Y-55645295D01*
X156895240Y-55645295D02*
X156942859Y-55550057D01*
X156942859Y-55550057D02*
X156990478Y-55502438D01*
X156990478Y-55502438D02*
X157085716Y-55454819D01*
X157847621Y-56359580D02*
X157895240Y-56407200D01*
X157895240Y-56407200D02*
X157847621Y-56454819D01*
X157847621Y-56454819D02*
X157800002Y-56407200D01*
X157800002Y-56407200D02*
X157847621Y-56359580D01*
X157847621Y-56359580D02*
X157847621Y-56454819D01*
X158228573Y-55454819D02*
X158847620Y-55454819D01*
X158847620Y-55454819D02*
X158514287Y-55835771D01*
X158514287Y-55835771D02*
X158657144Y-55835771D01*
X158657144Y-55835771D02*
X158752382Y-55883390D01*
X158752382Y-55883390D02*
X158800001Y-55931009D01*
X158800001Y-55931009D02*
X158847620Y-56026247D01*
X158847620Y-56026247D02*
X158847620Y-56264342D01*
X158847620Y-56264342D02*
X158800001Y-56359580D01*
X158800001Y-56359580D02*
X158752382Y-56407200D01*
X158752382Y-56407200D02*
X158657144Y-56454819D01*
X158657144Y-56454819D02*
X158371430Y-56454819D01*
X158371430Y-56454819D02*
X158276192Y-56407200D01*
X158276192Y-56407200D02*
X158228573Y-56359580D01*
X159276192Y-56454819D02*
X159276192Y-55788152D01*
X159276192Y-55883390D02*
X159323811Y-55835771D01*
X159323811Y-55835771D02*
X159419049Y-55788152D01*
X159419049Y-55788152D02*
X159561906Y-55788152D01*
X159561906Y-55788152D02*
X159657144Y-55835771D01*
X159657144Y-55835771D02*
X159704763Y-55931009D01*
X159704763Y-55931009D02*
X159704763Y-56454819D01*
X159704763Y-55931009D02*
X159752382Y-55835771D01*
X159752382Y-55835771D02*
X159847620Y-55788152D01*
X159847620Y-55788152D02*
X159990477Y-55788152D01*
X159990477Y-55788152D02*
X160085716Y-55835771D01*
X160085716Y-55835771D02*
X160133335Y-55931009D01*
X160133335Y-55931009D02*
X160133335Y-56454819D01*
X160609525Y-56454819D02*
X160609525Y-55788152D01*
X160609525Y-55883390D02*
X160657144Y-55835771D01*
X160657144Y-55835771D02*
X160752382Y-55788152D01*
X160752382Y-55788152D02*
X160895239Y-55788152D01*
X160895239Y-55788152D02*
X160990477Y-55835771D01*
X160990477Y-55835771D02*
X161038096Y-55931009D01*
X161038096Y-55931009D02*
X161038096Y-56454819D01*
X161038096Y-55931009D02*
X161085715Y-55835771D01*
X161085715Y-55835771D02*
X161180953Y-55788152D01*
X161180953Y-55788152D02*
X161323810Y-55788152D01*
X161323810Y-55788152D02*
X161419049Y-55835771D01*
X161419049Y-55835771D02*
X161466668Y-55931009D01*
X161466668Y-55931009D02*
X161466668Y-56454819D01*
X152796666Y-54304819D02*
X152796666Y-55019104D01*
X152796666Y-55019104D02*
X152749047Y-55161961D01*
X152749047Y-55161961D02*
X152653809Y-55257200D01*
X152653809Y-55257200D02*
X152510952Y-55304819D01*
X152510952Y-55304819D02*
X152415714Y-55304819D01*
X153796666Y-55304819D02*
X153225238Y-55304819D01*
X153510952Y-55304819D02*
X153510952Y-54304819D01*
X153510952Y-54304819D02*
X153415714Y-54447676D01*
X153415714Y-54447676D02*
X153320476Y-54542914D01*
X153320476Y-54542914D02*
X153225238Y-54590533D01*
D12*
%TO.C,U1*%
X151781708Y-130671300D02*
X151781708Y-132728700D01*
X151781708Y-132728700D02*
X153839108Y-132728700D01*
X153839108Y-130671300D02*
X151781708Y-130671300D01*
X153839108Y-131458700D02*
X152569108Y-132728700D01*
X153839108Y-132728700D02*
X153839108Y-130671300D01*
D13*
%TO.C,C2*%
X152300000Y-133550000D02*
X153300000Y-133550000D01*
X152300000Y-134050000D02*
X152300000Y-133550000D01*
X153300000Y-133550000D02*
X153300000Y-134050000D01*
X153300000Y-134050000D02*
X152300000Y-134050000D01*
%TO.C,C1*%
X150450000Y-131200000D02*
X150950000Y-131200000D01*
X150450000Y-132200000D02*
X150450000Y-131200000D01*
X150950000Y-131200000D02*
X150950000Y-132200000D01*
X150950000Y-132200000D02*
X150450000Y-132200000D01*
%TD*%
M02*
