%TF.GenerationSoftware,KiCad,Pcbnew,8.0.5-8.0.5-0~ubuntu24.04.1*%
%TF.CreationDate,2024-09-15T15:15:15-06:00*%
%TF.ProjectId,MA735 encoder board,4d413733-3520-4656-9e63-6f6465722062,rev?*%
%TF.SameCoordinates,Original*%
%TF.FileFunction,Legend,Top*%
%TF.FilePolarity,Positive*%
%FSLAX46Y46*%
G04 Gerber Fmt 4.6, Leading zero omitted, Abs format (unit mm)*
G04 Created by KiCad (PCBNEW 8.0.5-8.0.5-0~ubuntu24.04.1) date 2024-09-15 15:15:15*
%MOMM*%
%LPD*%
G01*
G04 APERTURE LIST*
G04 Aperture macros list*
%AMRoundRect*
0 Rectangle with rounded corners*
0 $1 Rounding radius*
0 $2 $3 $4 $5 $6 $7 $8 $9 X,Y pos of 4 corners*
0 Add a 4 corners polygon primitive as box body*
4,1,4,$2,$3,$4,$5,$6,$7,$8,$9,$2,$3,0*
0 Add four circle primitives for the rounded corners*
1,1,$1+$1,$2,$3*
1,1,$1+$1,$4,$5*
1,1,$1+$1,$6,$7*
1,1,$1+$1,$8,$9*
0 Add four rect primitives between the rounded corners*
20,1,$1+$1,$2,$3,$4,$5,0*
20,1,$1+$1,$4,$5,$6,$7,0*
20,1,$1+$1,$6,$7,$8,$9,0*
20,1,$1+$1,$8,$9,$2,$3,0*%
%AMOutline5P*
0 Free polygon, 5 corners , with rotation*
0 The origin of the aperture is its center*
0 number of corners: always 5*
0 $1 to $10 corner X, Y*
0 $11 Rotation angle, in degrees counterclockwise*
0 create outline with 5 corners*
4,1,5,$1,$2,$3,$4,$5,$6,$7,$8,$9,$10,$1,$2,$11*%
%AMOutline6P*
0 Free polygon, 6 corners , with rotation*
0 The origin of the aperture is its center*
0 number of corners: always 6*
0 $1 to $12 corner X, Y*
0 $13 Rotation angle, in degrees counterclockwise*
0 create outline with 6 corners*
4,1,6,$1,$2,$3,$4,$5,$6,$7,$8,$9,$10,$11,$12,$1,$2,$13*%
%AMOutline7P*
0 Free polygon, 7 corners , with rotation*
0 The origin of the aperture is its center*
0 number of corners: always 7*
0 $1 to $14 corner X, Y*
0 $15 Rotation angle, in degrees counterclockwise*
0 create outline with 7 corners*
4,1,7,$1,$2,$3,$4,$5,$6,$7,$8,$9,$10,$11,$12,$13,$14,$1,$2,$15*%
%AMOutline8P*
0 Free polygon, 8 corners , with rotation*
0 The origin of the aperture is its center*
0 number of corners: always 8*
0 $1 to $16 corner X, Y*
0 $17 Rotation angle, in degrees counterclockwise*
0 create outline with 8 corners*
4,1,8,$1,$2,$3,$4,$5,$6,$7,$8,$9,$10,$11,$12,$13,$14,$15,$16,$1,$2,$17*%
%AMFreePoly0*
4,1,25,0.050000,0.970000,0.060000,0.940000,0.080000,0.910000,0.120000,0.890000,0.150000,0.880000,0.150000,0.350000,0.050000,0.250000,0.050000,-0.500000,0.100000,-0.550000,0.100000,-1.000000,0.050000,-1.000000,-0.050000,-1.000000,-0.100000,-1.000000,-0.100000,-0.550000,-0.050000,-0.500000,-0.050000,0.250000,-0.150000,0.350000,-0.150000,0.880000,-0.120000,0.890000,-0.080000,0.910000,
-0.060000,0.940000,-0.050000,0.970000,-0.050000,1.000000,0.050000,1.000000,0.050000,0.970000,0.050000,0.970000,$1*%
%AMFreePoly1*
4,1,15,0.050000,0.350000,0.150000,0.250000,0.150000,-0.350000,0.100000,-0.450000,0.100000,-1.000000,0.050000,-1.000000,-0.050000,-1.000000,-0.100000,-1.000000,-0.100000,-0.450000,-0.150000,-0.350000,-0.150000,0.250000,-0.050000,0.350000,-0.050000,1.000000,0.050000,1.000000,0.050000,0.350000,0.050000,0.350000,$1*%
G04 Aperture macros list end*
%ADD10C,0.100000*%
%ADD11C,0.150000*%
%ADD12C,0.152400*%
%ADD13C,0.120000*%
%ADD14Outline5P,-0.350000X0.099999X0.250001X0.099999X0.350000X0.000000X0.350000X-0.099999X-0.350000X-0.099999X180.000000*%
%ADD15R,0.700000X0.200000*%
%ADD16Outline5P,-0.350000X0.100000X0.350000X0.100000X0.350000X0.000000X0.250000X-0.100000X-0.350000X-0.100000X180.000000*%
%ADD17Outline5P,-0.350000X0.100000X0.250000X0.100000X0.350000X0.000000X0.350000X-0.100000X-0.350000X-0.100000X270.000000*%
%ADD18R,0.200000X0.700000*%
%ADD19Outline5P,-0.350000X0.100000X0.350000X0.100000X0.350000X0.000000X0.250000X-0.100000X-0.350000X-0.100000X270.000000*%
%ADD20Outline5P,-0.350000X0.100000X0.350000X0.100000X0.350000X-0.100000X-0.250000X-0.100000X-0.350000X0.000000X180.000000*%
%ADD21Outline5P,-0.350000X0.000000X-0.250000X0.100000X0.350000X0.100000X0.350000X-0.100000X-0.350000X-0.100000X180.000000*%
%ADD22Outline5P,-0.350000X0.099999X0.350000X0.099999X0.350000X-0.099999X-0.250001X-0.099999X-0.350000X0.000000X270.000000*%
%ADD23Outline5P,-0.350000X0.000000X-0.250001X0.099999X0.350000X0.099999X0.350000X-0.099999X-0.350000X-0.099999X270.000000*%
%ADD24RoundRect,0.140000X-0.140000X-0.170000X0.140000X-0.170000X0.140000X0.170000X-0.140000X0.170000X0*%
%ADD25RoundRect,0.140000X0.170000X-0.140000X0.170000X0.140000X-0.170000X0.140000X-0.170000X-0.140000X0*%
%ADD26FreePoly0,0.000000*%
%ADD27FreePoly1,0.000000*%
G04 APERTURE END LIST*
D10*
X152622819Y-59425312D02*
X152575200Y-59377693D01*
X152575200Y-59377693D02*
X152527580Y-59234836D01*
X152527580Y-59234836D02*
X152527580Y-59139598D01*
X152527580Y-59139598D02*
X152575200Y-58996741D01*
X152575200Y-58996741D02*
X152670438Y-58901503D01*
X152670438Y-58901503D02*
X152765676Y-58853884D01*
X152765676Y-58853884D02*
X152956152Y-58806265D01*
X152956152Y-58806265D02*
X153099009Y-58806265D01*
X153099009Y-58806265D02*
X153289485Y-58853884D01*
X153289485Y-58853884D02*
X153384723Y-58901503D01*
X153384723Y-58901503D02*
X153479961Y-58996741D01*
X153479961Y-58996741D02*
X153527580Y-59139598D01*
X153527580Y-59139598D02*
X153527580Y-59234836D01*
X153527580Y-59234836D02*
X153479961Y-59377693D01*
X153479961Y-59377693D02*
X153432342Y-59425312D01*
X152527580Y-59996741D02*
X152575200Y-59901503D01*
X152575200Y-59901503D02*
X152622819Y-59853884D01*
X152622819Y-59853884D02*
X152718057Y-59806265D01*
X152718057Y-59806265D02*
X153003771Y-59806265D01*
X153003771Y-59806265D02*
X153099009Y-59853884D01*
X153099009Y-59853884D02*
X153146628Y-59901503D01*
X153146628Y-59901503D02*
X153194247Y-59996741D01*
X153194247Y-59996741D02*
X153194247Y-60139598D01*
X153194247Y-60139598D02*
X153146628Y-60234836D01*
X153146628Y-60234836D02*
X153099009Y-60282455D01*
X153099009Y-60282455D02*
X153003771Y-60330074D01*
X153003771Y-60330074D02*
X152718057Y-60330074D01*
X152718057Y-60330074D02*
X152622819Y-60282455D01*
X152622819Y-60282455D02*
X152575200Y-60234836D01*
X152575200Y-60234836D02*
X152527580Y-60139598D01*
X152527580Y-60139598D02*
X152527580Y-59996741D01*
X153194247Y-60758646D02*
X152527580Y-60758646D01*
X153099009Y-60758646D02*
X153146628Y-60806265D01*
X153146628Y-60806265D02*
X153194247Y-60901503D01*
X153194247Y-60901503D02*
X153194247Y-61044360D01*
X153194247Y-61044360D02*
X153146628Y-61139598D01*
X153146628Y-61139598D02*
X153051390Y-61187217D01*
X153051390Y-61187217D02*
X152527580Y-61187217D01*
X153194247Y-61520551D02*
X153194247Y-61901503D01*
X153527580Y-61663408D02*
X152670438Y-61663408D01*
X152670438Y-61663408D02*
X152575200Y-61711027D01*
X152575200Y-61711027D02*
X152527580Y-61806265D01*
X152527580Y-61806265D02*
X152527580Y-61901503D01*
X152527580Y-62663408D02*
X153051390Y-62663408D01*
X153051390Y-62663408D02*
X153146628Y-62615789D01*
X153146628Y-62615789D02*
X153194247Y-62520551D01*
X153194247Y-62520551D02*
X153194247Y-62330075D01*
X153194247Y-62330075D02*
X153146628Y-62234837D01*
X152575200Y-62663408D02*
X152527580Y-62568170D01*
X152527580Y-62568170D02*
X152527580Y-62330075D01*
X152527580Y-62330075D02*
X152575200Y-62234837D01*
X152575200Y-62234837D02*
X152670438Y-62187218D01*
X152670438Y-62187218D02*
X152765676Y-62187218D01*
X152765676Y-62187218D02*
X152860914Y-62234837D01*
X152860914Y-62234837D02*
X152908533Y-62330075D01*
X152908533Y-62330075D02*
X152908533Y-62568170D01*
X152908533Y-62568170D02*
X152956152Y-62663408D01*
X152575200Y-63568170D02*
X152527580Y-63472932D01*
X152527580Y-63472932D02*
X152527580Y-63282456D01*
X152527580Y-63282456D02*
X152575200Y-63187218D01*
X152575200Y-63187218D02*
X152622819Y-63139599D01*
X152622819Y-63139599D02*
X152718057Y-63091980D01*
X152718057Y-63091980D02*
X153003771Y-63091980D01*
X153003771Y-63091980D02*
X153099009Y-63139599D01*
X153099009Y-63139599D02*
X153146628Y-63187218D01*
X153146628Y-63187218D02*
X153194247Y-63282456D01*
X153194247Y-63282456D02*
X153194247Y-63472932D01*
X153194247Y-63472932D02*
X153146628Y-63568170D01*
X153194247Y-63853885D02*
X153194247Y-64234837D01*
X153527580Y-63996742D02*
X152670438Y-63996742D01*
X152670438Y-63996742D02*
X152575200Y-64044361D01*
X152575200Y-64044361D02*
X152527580Y-64139599D01*
X152527580Y-64139599D02*
X152527580Y-64234837D01*
X152575200Y-64520552D02*
X152527580Y-64615790D01*
X152527580Y-64615790D02*
X152527580Y-64806266D01*
X152527580Y-64806266D02*
X152575200Y-64901504D01*
X152575200Y-64901504D02*
X152670438Y-64949123D01*
X152670438Y-64949123D02*
X152718057Y-64949123D01*
X152718057Y-64949123D02*
X152813295Y-64901504D01*
X152813295Y-64901504D02*
X152860914Y-64806266D01*
X152860914Y-64806266D02*
X152860914Y-64663409D01*
X152860914Y-64663409D02*
X152908533Y-64568171D01*
X152908533Y-64568171D02*
X153003771Y-64520552D01*
X153003771Y-64520552D02*
X153051390Y-64520552D01*
X153051390Y-64520552D02*
X153146628Y-64568171D01*
X153146628Y-64568171D02*
X153194247Y-64663409D01*
X153194247Y-64663409D02*
X153194247Y-64806266D01*
X153194247Y-64806266D02*
X153146628Y-64901504D01*
X153194247Y-65996743D02*
X153194247Y-66377695D01*
X152527580Y-66139600D02*
X153384723Y-66139600D01*
X153384723Y-66139600D02*
X153479961Y-66187219D01*
X153479961Y-66187219D02*
X153527580Y-66282457D01*
X153527580Y-66282457D02*
X153527580Y-66377695D01*
X152527580Y-67139600D02*
X153051390Y-67139600D01*
X153051390Y-67139600D02*
X153146628Y-67091981D01*
X153146628Y-67091981D02*
X153194247Y-66996743D01*
X153194247Y-66996743D02*
X153194247Y-66806267D01*
X153194247Y-66806267D02*
X153146628Y-66711029D01*
X152575200Y-67139600D02*
X152527580Y-67044362D01*
X152527580Y-67044362D02*
X152527580Y-66806267D01*
X152527580Y-66806267D02*
X152575200Y-66711029D01*
X152575200Y-66711029D02*
X152670438Y-66663410D01*
X152670438Y-66663410D02*
X152765676Y-66663410D01*
X152765676Y-66663410D02*
X152860914Y-66711029D01*
X152860914Y-66711029D02*
X152908533Y-66806267D01*
X152908533Y-66806267D02*
X152908533Y-67044362D01*
X152908533Y-67044362D02*
X152956152Y-67139600D01*
X152575200Y-68044362D02*
X152527580Y-67949124D01*
X152527580Y-67949124D02*
X152527580Y-67758648D01*
X152527580Y-67758648D02*
X152575200Y-67663410D01*
X152575200Y-67663410D02*
X152622819Y-67615791D01*
X152622819Y-67615791D02*
X152718057Y-67568172D01*
X152718057Y-67568172D02*
X153003771Y-67568172D01*
X153003771Y-67568172D02*
X153099009Y-67615791D01*
X153099009Y-67615791D02*
X153146628Y-67663410D01*
X153146628Y-67663410D02*
X153194247Y-67758648D01*
X153194247Y-67758648D02*
X153194247Y-67949124D01*
X153194247Y-67949124D02*
X153146628Y-68044362D01*
X152527580Y-68472934D02*
X153194247Y-68472934D01*
X153527580Y-68472934D02*
X153479961Y-68425315D01*
X153479961Y-68425315D02*
X153432342Y-68472934D01*
X153432342Y-68472934D02*
X153479961Y-68520553D01*
X153479961Y-68520553D02*
X153527580Y-68472934D01*
X153527580Y-68472934D02*
X153432342Y-68472934D01*
X153194247Y-68949124D02*
X152527580Y-68949124D01*
X153099009Y-68949124D02*
X153146628Y-68996743D01*
X153146628Y-68996743D02*
X153194247Y-69091981D01*
X153194247Y-69091981D02*
X153194247Y-69234838D01*
X153194247Y-69234838D02*
X153146628Y-69330076D01*
X153146628Y-69330076D02*
X153051390Y-69377695D01*
X153051390Y-69377695D02*
X152527580Y-69377695D01*
X153194247Y-70282457D02*
X152384723Y-70282457D01*
X152384723Y-70282457D02*
X152289485Y-70234838D01*
X152289485Y-70234838D02*
X152241866Y-70187219D01*
X152241866Y-70187219D02*
X152194247Y-70091981D01*
X152194247Y-70091981D02*
X152194247Y-69949124D01*
X152194247Y-69949124D02*
X152241866Y-69853886D01*
X152575200Y-70282457D02*
X152527580Y-70187219D01*
X152527580Y-70187219D02*
X152527580Y-69996743D01*
X152527580Y-69996743D02*
X152575200Y-69901505D01*
X152575200Y-69901505D02*
X152622819Y-69853886D01*
X152622819Y-69853886D02*
X152718057Y-69806267D01*
X152718057Y-69806267D02*
X153003771Y-69806267D01*
X153003771Y-69806267D02*
X153099009Y-69853886D01*
X153099009Y-69853886D02*
X153146628Y-69901505D01*
X153146628Y-69901505D02*
X153194247Y-69996743D01*
X153194247Y-69996743D02*
X153194247Y-70187219D01*
X153194247Y-70187219D02*
X153146628Y-70282457D01*
X152527580Y-71520553D02*
X153527580Y-71520553D01*
X153527580Y-71520553D02*
X153527580Y-71901505D01*
X153527580Y-71901505D02*
X153479961Y-71996743D01*
X153479961Y-71996743D02*
X153432342Y-72044362D01*
X153432342Y-72044362D02*
X153337104Y-72091981D01*
X153337104Y-72091981D02*
X153194247Y-72091981D01*
X153194247Y-72091981D02*
X153099009Y-72044362D01*
X153099009Y-72044362D02*
X153051390Y-71996743D01*
X153051390Y-71996743D02*
X153003771Y-71901505D01*
X153003771Y-71901505D02*
X153003771Y-71520553D01*
X152622819Y-73091981D02*
X152575200Y-73044362D01*
X152575200Y-73044362D02*
X152527580Y-72901505D01*
X152527580Y-72901505D02*
X152527580Y-72806267D01*
X152527580Y-72806267D02*
X152575200Y-72663410D01*
X152575200Y-72663410D02*
X152670438Y-72568172D01*
X152670438Y-72568172D02*
X152765676Y-72520553D01*
X152765676Y-72520553D02*
X152956152Y-72472934D01*
X152956152Y-72472934D02*
X153099009Y-72472934D01*
X153099009Y-72472934D02*
X153289485Y-72520553D01*
X153289485Y-72520553D02*
X153384723Y-72568172D01*
X153384723Y-72568172D02*
X153479961Y-72663410D01*
X153479961Y-72663410D02*
X153527580Y-72806267D01*
X153527580Y-72806267D02*
X153527580Y-72901505D01*
X153527580Y-72901505D02*
X153479961Y-73044362D01*
X153479961Y-73044362D02*
X153432342Y-73091981D01*
X153051390Y-73853886D02*
X153003771Y-73996743D01*
X153003771Y-73996743D02*
X152956152Y-74044362D01*
X152956152Y-74044362D02*
X152860914Y-74091981D01*
X152860914Y-74091981D02*
X152718057Y-74091981D01*
X152718057Y-74091981D02*
X152622819Y-74044362D01*
X152622819Y-74044362D02*
X152575200Y-73996743D01*
X152575200Y-73996743D02*
X152527580Y-73901505D01*
X152527580Y-73901505D02*
X152527580Y-73520553D01*
X152527580Y-73520553D02*
X153527580Y-73520553D01*
X153527580Y-73520553D02*
X153527580Y-73853886D01*
X153527580Y-73853886D02*
X153479961Y-73949124D01*
X153479961Y-73949124D02*
X153432342Y-73996743D01*
X153432342Y-73996743D02*
X153337104Y-74044362D01*
X153337104Y-74044362D02*
X153241866Y-74044362D01*
X153241866Y-74044362D02*
X153146628Y-73996743D01*
X153146628Y-73996743D02*
X153099009Y-73949124D01*
X153099009Y-73949124D02*
X153051390Y-73853886D01*
X153051390Y-73853886D02*
X153051390Y-73520553D01*
X153189485Y-100963408D02*
X153237104Y-100868169D01*
X153237104Y-100868169D02*
X153237104Y-100677693D01*
X153237104Y-100677693D02*
X153189485Y-100582455D01*
X153189485Y-100582455D02*
X153094247Y-100487217D01*
X153094247Y-100487217D02*
X152999009Y-100439598D01*
X152999009Y-100439598D02*
X152808533Y-100439598D01*
X152808533Y-100439598D02*
X152713295Y-100487217D01*
X152713295Y-100487217D02*
X152618057Y-100582455D01*
X152618057Y-100582455D02*
X152570438Y-100677693D01*
X152570438Y-100677693D02*
X152570438Y-100868169D01*
X152570438Y-100868169D02*
X152618057Y-100963408D01*
X153570438Y-100772931D02*
X153522819Y-100534836D01*
X153522819Y-100534836D02*
X153379961Y-100296741D01*
X153379961Y-100296741D02*
X153141866Y-100153884D01*
X153141866Y-100153884D02*
X152903771Y-100106265D01*
X152903771Y-100106265D02*
X152665676Y-100153884D01*
X152665676Y-100153884D02*
X152427580Y-100296741D01*
X152427580Y-100296741D02*
X152284723Y-100534836D01*
X152284723Y-100534836D02*
X152237104Y-100772931D01*
X152237104Y-100772931D02*
X152284723Y-101011027D01*
X152284723Y-101011027D02*
X152427580Y-101249122D01*
X152427580Y-101249122D02*
X152665676Y-101391979D01*
X152665676Y-101391979D02*
X152903771Y-101439598D01*
X152903771Y-101439598D02*
X153141866Y-101391979D01*
X153141866Y-101391979D02*
X153379961Y-101249122D01*
X153379961Y-101249122D02*
X153522819Y-101011027D01*
X153522819Y-101011027D02*
X153570438Y-100772931D01*
X153332342Y-102582456D02*
X153379961Y-102630075D01*
X153379961Y-102630075D02*
X153427580Y-102725313D01*
X153427580Y-102725313D02*
X153427580Y-102963408D01*
X153427580Y-102963408D02*
X153379961Y-103058646D01*
X153379961Y-103058646D02*
X153332342Y-103106265D01*
X153332342Y-103106265D02*
X153237104Y-103153884D01*
X153237104Y-103153884D02*
X153141866Y-103153884D01*
X153141866Y-103153884D02*
X152999009Y-103106265D01*
X152999009Y-103106265D02*
X152427580Y-102534837D01*
X152427580Y-102534837D02*
X152427580Y-103153884D01*
X153427580Y-103772932D02*
X153427580Y-103868170D01*
X153427580Y-103868170D02*
X153379961Y-103963408D01*
X153379961Y-103963408D02*
X153332342Y-104011027D01*
X153332342Y-104011027D02*
X153237104Y-104058646D01*
X153237104Y-104058646D02*
X153046628Y-104106265D01*
X153046628Y-104106265D02*
X152808533Y-104106265D01*
X152808533Y-104106265D02*
X152618057Y-104058646D01*
X152618057Y-104058646D02*
X152522819Y-104011027D01*
X152522819Y-104011027D02*
X152475200Y-103963408D01*
X152475200Y-103963408D02*
X152427580Y-103868170D01*
X152427580Y-103868170D02*
X152427580Y-103772932D01*
X152427580Y-103772932D02*
X152475200Y-103677694D01*
X152475200Y-103677694D02*
X152522819Y-103630075D01*
X152522819Y-103630075D02*
X152618057Y-103582456D01*
X152618057Y-103582456D02*
X152808533Y-103534837D01*
X152808533Y-103534837D02*
X153046628Y-103534837D01*
X153046628Y-103534837D02*
X153237104Y-103582456D01*
X153237104Y-103582456D02*
X153332342Y-103630075D01*
X153332342Y-103630075D02*
X153379961Y-103677694D01*
X153379961Y-103677694D02*
X153427580Y-103772932D01*
X153332342Y-104487218D02*
X153379961Y-104534837D01*
X153379961Y-104534837D02*
X153427580Y-104630075D01*
X153427580Y-104630075D02*
X153427580Y-104868170D01*
X153427580Y-104868170D02*
X153379961Y-104963408D01*
X153379961Y-104963408D02*
X153332342Y-105011027D01*
X153332342Y-105011027D02*
X153237104Y-105058646D01*
X153237104Y-105058646D02*
X153141866Y-105058646D01*
X153141866Y-105058646D02*
X152999009Y-105011027D01*
X152999009Y-105011027D02*
X152427580Y-104439599D01*
X152427580Y-104439599D02*
X152427580Y-105058646D01*
X153094247Y-105915789D02*
X152427580Y-105915789D01*
X153475200Y-105677694D02*
X152760914Y-105439599D01*
X152760914Y-105439599D02*
X152760914Y-106058646D01*
X152713295Y-107153885D02*
X152713295Y-107630075D01*
X152427580Y-107058647D02*
X153427580Y-107391980D01*
X153427580Y-107391980D02*
X152427580Y-107725313D01*
X152475200Y-108011028D02*
X152427580Y-108106266D01*
X152427580Y-108106266D02*
X152427580Y-108296742D01*
X152427580Y-108296742D02*
X152475200Y-108391980D01*
X152475200Y-108391980D02*
X152570438Y-108439599D01*
X152570438Y-108439599D02*
X152618057Y-108439599D01*
X152618057Y-108439599D02*
X152713295Y-108391980D01*
X152713295Y-108391980D02*
X152760914Y-108296742D01*
X152760914Y-108296742D02*
X152760914Y-108153885D01*
X152760914Y-108153885D02*
X152808533Y-108058647D01*
X152808533Y-108058647D02*
X152903771Y-108011028D01*
X152903771Y-108011028D02*
X152951390Y-108011028D01*
X152951390Y-108011028D02*
X153046628Y-108058647D01*
X153046628Y-108058647D02*
X153094247Y-108153885D01*
X153094247Y-108153885D02*
X153094247Y-108296742D01*
X153094247Y-108296742D02*
X153046628Y-108391980D01*
X152427580Y-108868171D02*
X153427580Y-108868171D01*
X152427580Y-109296742D02*
X152951390Y-109296742D01*
X152951390Y-109296742D02*
X153046628Y-109249123D01*
X153046628Y-109249123D02*
X153094247Y-109153885D01*
X153094247Y-109153885D02*
X153094247Y-109011028D01*
X153094247Y-109011028D02*
X153046628Y-108915790D01*
X153046628Y-108915790D02*
X152999009Y-108868171D01*
X152475200Y-110153885D02*
X152427580Y-110058647D01*
X152427580Y-110058647D02*
X152427580Y-109868171D01*
X152427580Y-109868171D02*
X152475200Y-109772933D01*
X152475200Y-109772933D02*
X152570438Y-109725314D01*
X152570438Y-109725314D02*
X152951390Y-109725314D01*
X152951390Y-109725314D02*
X153046628Y-109772933D01*
X153046628Y-109772933D02*
X153094247Y-109868171D01*
X153094247Y-109868171D02*
X153094247Y-110058647D01*
X153094247Y-110058647D02*
X153046628Y-110153885D01*
X153046628Y-110153885D02*
X152951390Y-110201504D01*
X152951390Y-110201504D02*
X152856152Y-110201504D01*
X152856152Y-110201504D02*
X152760914Y-109725314D01*
X152427580Y-110630076D02*
X153094247Y-110630076D01*
X152903771Y-110630076D02*
X152999009Y-110677695D01*
X152999009Y-110677695D02*
X153046628Y-110725314D01*
X153046628Y-110725314D02*
X153094247Y-110820552D01*
X153094247Y-110820552D02*
X153094247Y-110915790D01*
X152951390Y-112011029D02*
X152951390Y-112344362D01*
X152427580Y-112487219D02*
X152427580Y-112011029D01*
X152427580Y-112011029D02*
X153427580Y-112011029D01*
X153427580Y-112011029D02*
X153427580Y-112487219D01*
X152427580Y-113344362D02*
X153427580Y-113344362D01*
X152475200Y-113344362D02*
X152427580Y-113249124D01*
X152427580Y-113249124D02*
X152427580Y-113058648D01*
X152427580Y-113058648D02*
X152475200Y-112963410D01*
X152475200Y-112963410D02*
X152522819Y-112915791D01*
X152522819Y-112915791D02*
X152618057Y-112868172D01*
X152618057Y-112868172D02*
X152903771Y-112868172D01*
X152903771Y-112868172D02*
X152999009Y-112915791D01*
X152999009Y-112915791D02*
X153046628Y-112963410D01*
X153046628Y-112963410D02*
X153094247Y-113058648D01*
X153094247Y-113058648D02*
X153094247Y-113249124D01*
X153094247Y-113249124D02*
X153046628Y-113344362D01*
X153094247Y-113725315D02*
X152427580Y-113915791D01*
X152427580Y-113915791D02*
X152903771Y-114106267D01*
X152903771Y-114106267D02*
X152427580Y-114296743D01*
X152427580Y-114296743D02*
X153094247Y-114487219D01*
X152427580Y-115296743D02*
X152951390Y-115296743D01*
X152951390Y-115296743D02*
X153046628Y-115249124D01*
X153046628Y-115249124D02*
X153094247Y-115153886D01*
X153094247Y-115153886D02*
X153094247Y-114963410D01*
X153094247Y-114963410D02*
X153046628Y-114868172D01*
X152475200Y-115296743D02*
X152427580Y-115201505D01*
X152427580Y-115201505D02*
X152427580Y-114963410D01*
X152427580Y-114963410D02*
X152475200Y-114868172D01*
X152475200Y-114868172D02*
X152570438Y-114820553D01*
X152570438Y-114820553D02*
X152665676Y-114820553D01*
X152665676Y-114820553D02*
X152760914Y-114868172D01*
X152760914Y-114868172D02*
X152808533Y-114963410D01*
X152808533Y-114963410D02*
X152808533Y-115201505D01*
X152808533Y-115201505D02*
X152856152Y-115296743D01*
X152427580Y-115772934D02*
X153094247Y-115772934D01*
X152903771Y-115772934D02*
X152999009Y-115820553D01*
X152999009Y-115820553D02*
X153046628Y-115868172D01*
X153046628Y-115868172D02*
X153094247Y-115963410D01*
X153094247Y-115963410D02*
X153094247Y-116058648D01*
X152427580Y-116820553D02*
X153427580Y-116820553D01*
X152475200Y-116820553D02*
X152427580Y-116725315D01*
X152427580Y-116725315D02*
X152427580Y-116534839D01*
X152427580Y-116534839D02*
X152475200Y-116439601D01*
X152475200Y-116439601D02*
X152522819Y-116391982D01*
X152522819Y-116391982D02*
X152618057Y-116344363D01*
X152618057Y-116344363D02*
X152903771Y-116344363D01*
X152903771Y-116344363D02*
X152999009Y-116391982D01*
X152999009Y-116391982D02*
X153046628Y-116439601D01*
X153046628Y-116439601D02*
X153094247Y-116534839D01*
X153094247Y-116534839D02*
X153094247Y-116725315D01*
X153094247Y-116725315D02*
X153046628Y-116820553D01*
X152475200Y-117249125D02*
X152427580Y-117344363D01*
X152427580Y-117344363D02*
X152427580Y-117534839D01*
X152427580Y-117534839D02*
X152475200Y-117630077D01*
X152475200Y-117630077D02*
X152570438Y-117677696D01*
X152570438Y-117677696D02*
X152618057Y-117677696D01*
X152618057Y-117677696D02*
X152713295Y-117630077D01*
X152713295Y-117630077D02*
X152760914Y-117534839D01*
X152760914Y-117534839D02*
X152760914Y-117391982D01*
X152760914Y-117391982D02*
X152808533Y-117296744D01*
X152808533Y-117296744D02*
X152903771Y-117249125D01*
X152903771Y-117249125D02*
X152951390Y-117249125D01*
X152951390Y-117249125D02*
X153046628Y-117296744D01*
X153046628Y-117296744D02*
X153094247Y-117391982D01*
X153094247Y-117391982D02*
X153094247Y-117534839D01*
X153094247Y-117534839D02*
X153046628Y-117630077D01*
D11*
X154700000Y-132054819D02*
X154700000Y-132292914D01*
X154461905Y-132197676D02*
X154700000Y-132292914D01*
X154700000Y-132292914D02*
X154938095Y-132197676D01*
X154557143Y-132483390D02*
X154700000Y-132292914D01*
X154700000Y-132292914D02*
X154842857Y-132483390D01*
D12*
%TO.C,U1*%
X151654708Y-130544300D02*
X151654708Y-130867261D01*
X151654708Y-132532739D02*
X151654708Y-132855700D01*
X153966108Y-130867261D02*
X153966108Y-130544300D01*
X153966108Y-132855700D02*
X153966108Y-132532739D01*
D13*
%TO.C,C2*%
X152692164Y-133440000D02*
X152907836Y-133440000D01*
X152692164Y-134160000D02*
X152907836Y-134160000D01*
%TO.C,C1*%
X150340000Y-131807836D02*
X150340000Y-131592164D01*
X151060000Y-131807836D02*
X151060000Y-131592164D01*
%TD*%
%LPC*%
%TO.C,J1*%
G36*
X151600000Y-54100000D02*
G01*
X154000000Y-54100000D01*
X154000000Y-56100000D01*
X151600000Y-56100000D01*
X151600000Y-54100000D01*
G37*
%TD*%
D14*
%TO.C,U1*%
X153810408Y-132100000D03*
D15*
X153810409Y-131700000D03*
D16*
X153810408Y-131300000D03*
D17*
X153410408Y-130700000D03*
D18*
X153010408Y-130699999D03*
X152610408Y-130699999D03*
D19*
X152210409Y-130700000D03*
D20*
X151810408Y-131300001D03*
D15*
X151810407Y-131700000D03*
D21*
X151810408Y-132100000D03*
D22*
X152210408Y-132700000D03*
D18*
X152610408Y-132700001D03*
X153010408Y-132700001D03*
D23*
X153410408Y-132700000D03*
%TD*%
D24*
%TO.C,C2*%
X152320000Y-133800000D03*
X153280000Y-133800000D03*
%TD*%
D25*
%TO.C,C1*%
X150700000Y-132180000D03*
X150700000Y-131220000D03*
%TD*%
D26*
%TO.C,J1*%
X151900000Y-55100000D03*
D27*
X152200000Y-55100000D03*
D26*
X152500000Y-55100000D03*
D27*
X152800000Y-55100000D03*
D26*
X153100000Y-55100000D03*
D27*
X153400000Y-55100000D03*
D26*
X153700000Y-55100000D03*
%TD*%
%LPD*%
M02*
