%TF.GenerationSoftware,KiCad,Pcbnew,8.0.5-8.0.5-0~ubuntu24.04.1*%
%TF.CreationDate,2024-09-15T15:15:15-06:00*%
%TF.ProjectId,MA735 encoder board,4d413733-3520-4656-9e63-6f6465722062,rev?*%
%TF.SameCoordinates,Original*%
%TF.FileFunction,Copper,L1,Top*%
%TF.FilePolarity,Positive*%
%FSLAX46Y46*%
G04 Gerber Fmt 4.6, Leading zero omitted, Abs format (unit mm)*
G04 Created by KiCad (PCBNEW 8.0.5-8.0.5-0~ubuntu24.04.1) date 2024-09-15 15:15:15*
%MOMM*%
%LPD*%
G01*
G04 APERTURE LIST*
G04 Aperture macros list*
%AMRoundRect*
0 Rectangle with rounded corners*
0 $1 Rounding radius*
0 $2 $3 $4 $5 $6 $7 $8 $9 X,Y pos of 4 corners*
0 Add a 4 corners polygon primitive as box body*
4,1,4,$2,$3,$4,$5,$6,$7,$8,$9,$2,$3,0*
0 Add four circle primitives for the rounded corners*
1,1,$1+$1,$2,$3*
1,1,$1+$1,$4,$5*
1,1,$1+$1,$6,$7*
1,1,$1+$1,$8,$9*
0 Add four rect primitives between the rounded corners*
20,1,$1+$1,$2,$3,$4,$5,0*
20,1,$1+$1,$4,$5,$6,$7,0*
20,1,$1+$1,$6,$7,$8,$9,0*
20,1,$1+$1,$8,$9,$2,$3,0*%
%AMOutline5P*
0 Free polygon, 5 corners , with rotation*
0 The origin of the aperture is its center*
0 number of corners: always 5*
0 $1 to $10 corner X, Y*
0 $11 Rotation angle, in degrees counterclockwise*
0 create outline with 5 corners*
4,1,5,$1,$2,$3,$4,$5,$6,$7,$8,$9,$10,$1,$2,$11*%
%AMOutline6P*
0 Free polygon, 6 corners , with rotation*
0 The origin of the aperture is its center*
0 number of corners: always 6*
0 $1 to $12 corner X, Y*
0 $13 Rotation angle, in degrees counterclockwise*
0 create outline with 6 corners*
4,1,6,$1,$2,$3,$4,$5,$6,$7,$8,$9,$10,$11,$12,$1,$2,$13*%
%AMOutline7P*
0 Free polygon, 7 corners , with rotation*
0 The origin of the aperture is its center*
0 number of corners: always 7*
0 $1 to $14 corner X, Y*
0 $15 Rotation angle, in degrees counterclockwise*
0 create outline with 7 corners*
4,1,7,$1,$2,$3,$4,$5,$6,$7,$8,$9,$10,$11,$12,$13,$14,$1,$2,$15*%
%AMOutline8P*
0 Free polygon, 8 corners , with rotation*
0 The origin of the aperture is its center*
0 number of corners: always 8*
0 $1 to $16 corner X, Y*
0 $17 Rotation angle, in degrees counterclockwise*
0 create outline with 8 corners*
4,1,8,$1,$2,$3,$4,$5,$6,$7,$8,$9,$10,$11,$12,$13,$14,$15,$16,$1,$2,$17*%
%AMFreePoly0*
4,1,25,0.050000,0.970000,0.060000,0.940000,0.080000,0.910000,0.120000,0.890000,0.150000,0.880000,0.150000,0.350000,0.050000,0.250000,0.050000,-0.500000,0.100000,-0.550000,0.100000,-1.000000,0.050000,-1.000000,-0.050000,-1.000000,-0.100000,-1.000000,-0.100000,-0.550000,-0.050000,-0.500000,-0.050000,0.250000,-0.150000,0.350000,-0.150000,0.880000,-0.120000,0.890000,-0.080000,0.910000,
-0.060000,0.940000,-0.050000,0.970000,-0.050000,1.000000,0.050000,1.000000,0.050000,0.970000,0.050000,0.970000,$1*%
%AMFreePoly1*
4,1,15,0.050000,0.350000,0.150000,0.250000,0.150000,-0.350000,0.100000,-0.450000,0.100000,-1.000000,0.050000,-1.000000,-0.050000,-1.000000,-0.100000,-1.000000,-0.100000,-0.450000,-0.150000,-0.350000,-0.150000,0.250000,-0.050000,0.350000,-0.050000,1.000000,0.050000,1.000000,0.050000,0.350000,0.050000,0.350000,$1*%
G04 Aperture macros list end*
%TA.AperFunction,SMDPad,CuDef*%
%ADD10Outline5P,-0.350000X0.099999X0.250001X0.099999X0.350000X0.000000X0.350000X-0.099999X-0.350000X-0.099999X180.000000*%
%TD*%
%TA.AperFunction,SMDPad,CuDef*%
%ADD11R,0.700000X0.200000*%
%TD*%
%TA.AperFunction,SMDPad,CuDef*%
%ADD12Outline5P,-0.350000X0.100000X0.350000X0.100000X0.350000X0.000000X0.250000X-0.100000X-0.350000X-0.100000X180.000000*%
%TD*%
%TA.AperFunction,SMDPad,CuDef*%
%ADD13Outline5P,-0.350000X0.100000X0.250000X0.100000X0.350000X0.000000X0.350000X-0.100000X-0.350000X-0.100000X270.000000*%
%TD*%
%TA.AperFunction,SMDPad,CuDef*%
%ADD14R,0.200000X0.700000*%
%TD*%
%TA.AperFunction,SMDPad,CuDef*%
%ADD15Outline5P,-0.350000X0.100000X0.350000X0.100000X0.350000X0.000000X0.250000X-0.100000X-0.350000X-0.100000X270.000000*%
%TD*%
%TA.AperFunction,SMDPad,CuDef*%
%ADD16Outline5P,-0.350000X0.100000X0.350000X0.100000X0.350000X-0.100000X-0.250000X-0.100000X-0.350000X0.000000X180.000000*%
%TD*%
%TA.AperFunction,SMDPad,CuDef*%
%ADD17Outline5P,-0.350000X0.000000X-0.250000X0.100000X0.350000X0.100000X0.350000X-0.100000X-0.350000X-0.100000X180.000000*%
%TD*%
%TA.AperFunction,SMDPad,CuDef*%
%ADD18Outline5P,-0.350000X0.099999X0.350000X0.099999X0.350000X-0.099999X-0.250001X-0.099999X-0.350000X0.000000X270.000000*%
%TD*%
%TA.AperFunction,SMDPad,CuDef*%
%ADD19Outline5P,-0.350000X0.000000X-0.250001X0.099999X0.350000X0.099999X0.350000X-0.099999X-0.350000X-0.099999X270.000000*%
%TD*%
%TA.AperFunction,SMDPad,CuDef*%
%ADD20RoundRect,0.140000X-0.140000X-0.170000X0.140000X-0.170000X0.140000X0.170000X-0.140000X0.170000X0*%
%TD*%
%TA.AperFunction,SMDPad,CuDef*%
%ADD21RoundRect,0.140000X0.170000X-0.140000X0.170000X0.140000X-0.170000X0.140000X-0.170000X-0.140000X0*%
%TD*%
%TA.AperFunction,ConnectorPad*%
%ADD22FreePoly0,0.000000*%
%TD*%
%TA.AperFunction,ConnectorPad*%
%ADD23FreePoly1,0.000000*%
%TD*%
%TA.AperFunction,ViaPad*%
%ADD24C,0.600000*%
%TD*%
%TA.AperFunction,Conductor*%
%ADD25C,0.200000*%
%TD*%
%TA.AperFunction,Conductor*%
%ADD26C,0.101600*%
%TD*%
G04 APERTURE END LIST*
D10*
%TO.P,U1,1,SCLK*%
%TO.N,/SCK*%
X153810408Y-132100000D03*
D11*
%TO.P,U1,2,TEST*%
%TO.N,GND*%
X153810409Y-131700000D03*
D12*
%TO.P,U1,3,PWM*%
%TO.N,unconnected-(U1-PWM-Pad3)*%
X153810408Y-131300000D03*
D13*
%TO.P,U1,4,GND*%
%TO.N,GND*%
X153410408Y-130700000D03*
D14*
%TO.P,U1,5,MISO*%
%TO.N,/MISO*%
X153010408Y-130699999D03*
%TO.P,U1,6,B*%
%TO.N,unconnected-(U1-B-Pad6)*%
X152610408Y-130699999D03*
D15*
%TO.P,U1,7,CS*%
%TO.N,/CS*%
X152210409Y-130700000D03*
D16*
%TO.P,U1,8,MOSI*%
%TO.N,/MOSI*%
X151810408Y-131300001D03*
D11*
%TO.P,U1,9,Z*%
%TO.N,unconnected-(U1-Z-Pad9)*%
X151810407Y-131700000D03*
D17*
%TO.P,U1,10,A*%
%TO.N,unconnected-(U1-A-Pad10)*%
X151810408Y-132100000D03*
D18*
%TO.P,U1,11,SSD*%
%TO.N,unconnected-(U1-SSD-Pad11)*%
X152210408Y-132700000D03*
D14*
%TO.P,U1,12,MGH*%
%TO.N,unconnected-(U1-MGH-Pad12)*%
X152610408Y-132700001D03*
%TO.P,U1,13,VDD*%
%TO.N,+3V3*%
X153010408Y-132700001D03*
D19*
%TO.P,U1,14,SSCK*%
%TO.N,unconnected-(U1-SSCK-Pad14)*%
X153410408Y-132700000D03*
%TD*%
D20*
%TO.P,C2,1*%
%TO.N,+3V3*%
X152320000Y-133800000D03*
%TO.P,C2,2*%
%TO.N,GND*%
X153280000Y-133800000D03*
%TD*%
D21*
%TO.P,C1,1*%
%TO.N,+3V3*%
X150700000Y-132180000D03*
%TO.P,C1,2*%
%TO.N,GND*%
X150700000Y-131220000D03*
%TD*%
D22*
%TO.P,J1,1,Pin_1*%
%TO.N,GND*%
X151900000Y-55100000D03*
D23*
%TO.P,J1,2,Pin_2*%
%TO.N,/MOSI*%
X152200000Y-55100000D03*
D22*
%TO.P,J1,3,Pin_3*%
%TO.N,/CS*%
X152500000Y-55100000D03*
D23*
%TO.P,J1,4,Pin_4*%
%TO.N,/MISO*%
X152800000Y-55100000D03*
D22*
%TO.P,J1,5,Pin_5*%
%TO.N,GND*%
X153100000Y-55100000D03*
D23*
%TO.P,J1,6,Pin_6*%
%TO.N,/SCK*%
X153400000Y-55100000D03*
D22*
%TO.P,J1,7,Pin_7*%
%TO.N,+3V3*%
X153700000Y-55100000D03*
%TD*%
D24*
%TO.N,GND*%
X150900000Y-130500000D03*
X154300000Y-133400000D03*
X152700000Y-131700000D03*
%TO.N,+3V3*%
X154900000Y-132500000D03*
X151500000Y-132800000D03*
%TD*%
D25*
%TO.N,GND*%
X153100000Y-56100000D02*
X153100000Y-129801006D01*
X153200000Y-131700000D02*
X152900000Y-131700000D01*
D26*
X153100000Y-55100000D02*
X153100000Y-56100000D01*
D25*
X153280000Y-133800000D02*
X153900000Y-133800000D01*
X152900000Y-131700000D02*
X152700000Y-131700000D01*
X153200000Y-131277564D02*
X153200000Y-131700000D01*
X150700000Y-130500000D02*
X150900000Y-130500000D01*
X153410408Y-130700000D02*
X153410408Y-131067156D01*
X153810409Y-131700000D02*
X153200000Y-131700000D01*
D26*
X151900000Y-55100000D02*
X151900000Y-56100000D01*
D25*
X150900000Y-130400000D02*
X150900000Y-130500000D01*
X150900000Y-130500000D02*
X150900000Y-131020000D01*
X151900000Y-129400000D02*
X150900000Y-130400000D01*
X153410408Y-130111414D02*
X153410408Y-130700000D01*
X153410408Y-131067156D02*
X153200000Y-131277564D01*
X151900000Y-56100000D02*
X151900000Y-129400000D01*
X150900000Y-131020000D02*
X150700000Y-131220000D01*
X153900000Y-133800000D02*
X154300000Y-133400000D01*
X153100000Y-129801006D02*
X153410408Y-130111414D01*
%TO.N,+3V3*%
X152320000Y-133800000D02*
X151673449Y-133800000D01*
D26*
X153700000Y-55100000D02*
X153700000Y-56100000D01*
D25*
X155000000Y-130600000D02*
X155000000Y-132400000D01*
X153010408Y-132700001D02*
X153010408Y-133109592D01*
X151500000Y-132900000D02*
X151136724Y-133263276D01*
X153700000Y-129300000D02*
X155000000Y-130600000D01*
X153700000Y-56100000D02*
X153700000Y-129300000D01*
X151136724Y-133263276D02*
X150700000Y-132826551D01*
X155000000Y-132400000D02*
X154900000Y-132500000D01*
X150700000Y-132826551D02*
X150700000Y-132180000D01*
X151500000Y-132800000D02*
X151500000Y-132900000D01*
X153010408Y-133109592D02*
X152320000Y-133800000D01*
X151673449Y-133800000D02*
X151136724Y-133263276D01*
%TO.N,/MOSI*%
X151810408Y-131300001D02*
X151700000Y-131189593D01*
X151700000Y-131189593D02*
X151700000Y-130100000D01*
X152200000Y-129600000D02*
X152200000Y-56100000D01*
D26*
X152200000Y-55100000D02*
X152200000Y-56100000D01*
D25*
X151700000Y-130100000D02*
X152200000Y-129600000D01*
%TO.N,/MISO*%
X153010408Y-130236684D02*
X152800000Y-130026276D01*
X152800000Y-130026276D02*
X152800000Y-56100000D01*
D26*
X152800000Y-55100000D02*
X152800000Y-56100000D01*
D25*
X153010408Y-130699999D02*
X153010408Y-130236684D01*
%TO.N,/CS*%
X152500000Y-56100000D02*
X152500000Y-129900000D01*
D26*
X152500000Y-55100000D02*
X152500000Y-56100000D01*
D25*
X152500000Y-129900000D02*
X152210409Y-130189591D01*
X152210409Y-130189591D02*
X152210409Y-130700000D01*
%TO.N,/SCK*%
X154500000Y-130700000D02*
X153400000Y-129600000D01*
X153400000Y-129600000D02*
X153400000Y-56100000D01*
X154260409Y-132100000D02*
X154500000Y-131860409D01*
X154500000Y-131860409D02*
X154500000Y-130700000D01*
D26*
X153400000Y-55100000D02*
X153400000Y-56100000D01*
D25*
X153810408Y-132100000D02*
X154260409Y-132100000D01*
%TD*%
M02*
