%TF.GenerationSoftware,KiCad,Pcbnew,8.0.5-8.0.5-0~ubuntu24.04.1*%
%TF.CreationDate,2024-09-15T15:15:16-06:00*%
%TF.ProjectId,MA735 encoder board,4d413733-3520-4656-9e63-6f6465722062,rev?*%
%TF.SameCoordinates,Original*%
%TF.FileFunction,Other,User*%
%FSLAX46Y46*%
G04 Gerber Fmt 4.6, Leading zero omitted, Abs format (unit mm)*
G04 Created by KiCad (PCBNEW 8.0.5-8.0.5-0~ubuntu24.04.1) date 2024-09-15 15:15:16*
%MOMM*%
%LPD*%
G01*
G04 APERTURE LIST*
%ADD10C,0.152400*%
%ADD11C,0.050000*%
G04 APERTURE END LIST*
D10*
%TO.C,U1*%
X151206408Y-130946000D02*
X151527708Y-130946000D01*
X151206408Y-132454000D02*
X151206408Y-130946000D01*
X151527708Y-130417300D02*
X151856408Y-130417300D01*
X151527708Y-130946000D02*
X151527708Y-130417300D01*
X151527708Y-132454000D02*
X151206408Y-132454000D01*
X151527708Y-132982700D02*
X151527708Y-132454000D01*
X151856408Y-130096000D02*
X153764408Y-130096000D01*
X151856408Y-130417300D02*
X151856408Y-130096000D01*
X151856408Y-132982700D02*
X151527708Y-132982700D01*
X151856408Y-133304000D02*
X151856408Y-132982700D01*
X153764408Y-130096000D02*
X153764408Y-130417300D01*
X153764408Y-130417300D02*
X154093108Y-130417300D01*
X153764408Y-132982700D02*
X153764408Y-133304000D01*
X153764408Y-133304000D02*
X151856408Y-133304000D01*
X154093108Y-130417300D02*
X154093108Y-130946000D01*
X154093108Y-130946000D02*
X154414408Y-130946000D01*
X154093108Y-132454000D02*
X154093108Y-132982700D01*
X154093108Y-132982700D02*
X153764408Y-132982700D01*
X154414408Y-130946000D02*
X154414408Y-132454000D01*
X154414408Y-132454000D02*
X154093108Y-132454000D01*
D11*
%TO.C,C2*%
X151890000Y-133340000D02*
X153710000Y-133340000D01*
X151890000Y-134260000D02*
X151890000Y-133340000D01*
X153710000Y-133340000D02*
X153710000Y-134260000D01*
X153710000Y-134260000D02*
X151890000Y-134260000D01*
%TO.C,C1*%
X150240000Y-130790000D02*
X151160000Y-130790000D01*
X150240000Y-132610000D02*
X150240000Y-130790000D01*
X151160000Y-130790000D02*
X151160000Y-132610000D01*
X151160000Y-132610000D02*
X150240000Y-132610000D01*
%TD*%
M02*
