%TF.GenerationSoftware,KiCad,Pcbnew,8.0.3-8.0.3-0~ubuntu22.04.1*%
%TF.CreationDate,2024-06-15T18:18:28-06:00*%
%TF.ProjectId,stm32g070 and DRV8311 single motor board - V1 Alpha,73746d33-3267-4303-9730-20616e642044,rev?*%
%TF.SameCoordinates,Original*%
%TF.FileFunction,Copper,L3,Inr*%
%TF.FilePolarity,Positive*%
%FSLAX46Y46*%
G04 Gerber Fmt 4.6, Leading zero omitted, Abs format (unit mm)*
G04 Created by KiCad (PCBNEW 8.0.3-8.0.3-0~ubuntu22.04.1) date 2024-06-15 18:18:28*
%MOMM*%
%LPD*%
G01*
G04 APERTURE LIST*
G04 Aperture macros list*
%AMRoundRect*
0 Rectangle with rounded corners*
0 $1 Rounding radius*
0 $2 $3 $4 $5 $6 $7 $8 $9 X,Y pos of 4 corners*
0 Add a 4 corners polygon primitive as box body*
4,1,4,$2,$3,$4,$5,$6,$7,$8,$9,$2,$3,0*
0 Add four circle primitives for the rounded corners*
1,1,$1+$1,$2,$3*
1,1,$1+$1,$4,$5*
1,1,$1+$1,$6,$7*
1,1,$1+$1,$8,$9*
0 Add four rect primitives between the rounded corners*
20,1,$1+$1,$2,$3,$4,$5,0*
20,1,$1+$1,$4,$5,$6,$7,0*
20,1,$1+$1,$6,$7,$8,$9,0*
20,1,$1+$1,$8,$9,$2,$3,0*%
G04 Aperture macros list end*
%TA.AperFunction,ComponentPad*%
%ADD10RoundRect,0.200000X0.450000X-0.200000X0.450000X0.200000X-0.450000X0.200000X-0.450000X-0.200000X0*%
%TD*%
%TA.AperFunction,ComponentPad*%
%ADD11O,1.300000X0.800000*%
%TD*%
%TA.AperFunction,ComponentPad*%
%ADD12C,1.200000*%
%TD*%
%TA.AperFunction,ComponentPad*%
%ADD13C,0.600000*%
%TD*%
%TA.AperFunction,ComponentPad*%
%ADD14R,1.700000X1.700000*%
%TD*%
%TA.AperFunction,ComponentPad*%
%ADD15O,1.700000X1.700000*%
%TD*%
%TA.AperFunction,ViaPad*%
%ADD16C,0.600000*%
%TD*%
%TA.AperFunction,Conductor*%
%ADD17C,0.200000*%
%TD*%
%TA.AperFunction,Conductor*%
%ADD18C,2.814000*%
%TD*%
G04 APERTURE END LIST*
D10*
%TO.N,Net-(J3-Pin_1)*%
%TO.C,J3*%
X156400000Y-96900000D03*
D11*
%TO.N,Net-(J3-Pin_2)*%
X156400000Y-95650000D03*
%TO.N,Net-(J3-Pin_3)*%
X156400000Y-94400000D03*
%TD*%
D12*
%TO.N,/MOTORPWR*%
%TO.C,C15*%
X152800000Y-110900000D03*
%TO.N,GNDPWR*%
X150800000Y-110900000D03*
%TD*%
D13*
%TO.N,GNDPWR*%
%TO.C,U4*%
X132262500Y-124737500D03*
X132262500Y-125687500D03*
X132262500Y-126637500D03*
%TD*%
D14*
%TO.N,/USART1_TX*%
%TO.C,J4*%
X144525000Y-90000000D03*
D15*
%TO.N,/USART1_RX*%
X147065000Y-90000000D03*
%TD*%
D13*
%TO.N,GNDPWR*%
%TO.C,U2*%
X149162498Y-98100001D03*
X150562500Y-98100001D03*
X149862499Y-97374600D03*
X149162498Y-96699999D03*
X150562500Y-96699999D03*
%TD*%
D16*
%TO.N,VDD*%
X129600000Y-102636000D03*
X147213896Y-95473287D03*
X131000000Y-94700000D03*
%TO.N,GND*%
X124000000Y-99300000D03*
X123800000Y-108900000D03*
X146000000Y-103400000D03*
X131800000Y-91800000D03*
X126600000Y-127100000D03*
X135000000Y-125600000D03*
X132900000Y-104500000D03*
X136800000Y-89700000D03*
X141000000Y-98600000D03*
X131600000Y-112200000D03*
%TO.N,/MOTORPWR*%
X158600000Y-103400000D03*
X158600000Y-105300000D03*
X142600000Y-115200000D03*
X159600000Y-103400000D03*
X142600000Y-117200000D03*
X143500000Y-115200000D03*
X141700000Y-115200000D03*
X158600000Y-104400000D03*
X141700000Y-116200000D03*
X141700000Y-117200000D03*
X159600000Y-105300000D03*
X160600000Y-104400000D03*
X140800000Y-117200000D03*
X143500000Y-116200000D03*
X160600000Y-103400000D03*
X160600000Y-105300000D03*
X142600000Y-116200000D03*
X140800000Y-116200000D03*
X159600000Y-104400000D03*
X140800000Y-115200000D03*
X143500000Y-117200000D03*
%TO.N,GNDPWR*%
X158900000Y-116500000D03*
X131400000Y-119000000D03*
X124350000Y-126300000D03*
X152800000Y-90800000D03*
X132400000Y-118100000D03*
X153500000Y-106800000D03*
X124350000Y-127150000D03*
X154800000Y-90800000D03*
X157900000Y-117400000D03*
X130400000Y-117100000D03*
X159900000Y-116500000D03*
X132400000Y-117100000D03*
X153800000Y-89800000D03*
X132400000Y-119000000D03*
X154800000Y-89800000D03*
X157900000Y-115500000D03*
X159900000Y-117400000D03*
X153500000Y-104900000D03*
X152500000Y-106800000D03*
X152800000Y-89800000D03*
X131400000Y-118100000D03*
X159900000Y-115500000D03*
X152500000Y-105900000D03*
X153500000Y-105900000D03*
X158900000Y-115500000D03*
X153800000Y-90800000D03*
X152800000Y-91700000D03*
X151500000Y-105900000D03*
X154800000Y-91700000D03*
X151500000Y-104900000D03*
X130400000Y-118100000D03*
X151500000Y-106800000D03*
X131400000Y-117100000D03*
X157900000Y-116500000D03*
X158900000Y-117400000D03*
X153800000Y-91700000D03*
X152500000Y-104900000D03*
X130400000Y-119000000D03*
%TO.N,/SWC*%
X137500000Y-101100000D03*
%TO.N,/SWD*%
X138000000Y-101900000D03*
%TO.N,Net-(U2-SLEEP_N)*%
X147756784Y-99259725D03*
%TO.N,/PSU/LDO 4.9v*%
X127912500Y-124700000D03*
X124000000Y-118700000D03*
%TO.N,/1CSA-B*%
X147600000Y-101200000D03*
X134000000Y-110000000D03*
%TO.N,/1CSA-A*%
X132700000Y-110000000D03*
X148200000Y-101900000D03*
%TO.N,/1CSA-C*%
X135300000Y-109800000D03*
X147200000Y-100400000D03*
%TO.N,/CS1*%
X133049998Y-92649998D03*
X137800000Y-96300000D03*
%TO.N,/PSU/BATT+*%
X142100000Y-129000000D03*
X159900000Y-120500000D03*
%TO.N,Net-(D1-A)*%
X124100000Y-114325000D03*
%TO.N,/PSU/~{CHG}*%
X135321200Y-124421200D03*
X127824265Y-117575735D03*
%TO.N,Net-(D2-A)*%
X127200000Y-116800000D03*
%TO.N,/SDA1*%
X128125000Y-98300000D03*
X126500000Y-96500000D03*
%TO.N,/PSU/BATT-*%
X151000000Y-126200000D03*
X160500000Y-128600000D03*
%TO.N,Net-(Q1-G)*%
X159400000Y-129300000D03*
X148000000Y-128800000D03*
X151100000Y-124000000D03*
%TO.N,/NRST*%
X126900000Y-111200000D03*
X132780603Y-105480603D03*
%TO.N,Net-(U3-PACK)*%
X146600000Y-129000000D03*
X158600000Y-128700000D03*
%TO.N,Net-(J1-Pin_2)*%
X127700000Y-91900000D03*
%TO.N,Net-(J2-Pin_2)*%
X139200000Y-91600000D03*
%TO.N,/USART1_TX*%
X133800000Y-97200000D03*
%TO.N,/USART1_RX*%
X132800000Y-97300000D03*
%TO.N,/ADC11*%
X136500000Y-106000000D03*
%TO.N,/ADC10{slash}VBATT*%
X137400000Y-109500000D03*
%TO.N,Net-(D3-A)*%
X143000000Y-112300000D03*
%TO.N,/LED*%
X137600000Y-105600000D03*
X146200000Y-109800000D03*
%TO.N,Net-(U1-VREF+)*%
X132400000Y-103100000D03*
%TD*%
D17*
%TO.N,GND*%
X125300000Y-110400000D02*
X125300000Y-117700000D01*
X126600000Y-124500000D02*
X129150000Y-121950000D01*
X132500000Y-123600000D02*
X134500000Y-125600000D01*
X129150000Y-121950000D02*
X129150000Y-121550000D01*
X126600000Y-127100000D02*
X126600000Y-124500000D01*
X134500000Y-125600000D02*
X135000000Y-125600000D01*
X123800000Y-108900000D02*
X125300000Y-110400000D01*
X131200000Y-123600000D02*
X132500000Y-123600000D01*
X125300000Y-117700000D02*
X131200000Y-123600000D01*
D18*
%TO.N,/MOTORPWR*%
X159600000Y-99900000D02*
X159600000Y-108900000D01*
D17*
%TO.N,/PSU/LDO 4.9v*%
X127300000Y-129300000D02*
X127912500Y-128687500D01*
X127912500Y-128687500D02*
X127912500Y-124700000D01*
X125600000Y-128700000D02*
X126200000Y-129300000D01*
X124400000Y-118700000D02*
X125600000Y-119900000D01*
X124000000Y-118700000D02*
X124400000Y-118700000D01*
X126200000Y-129300000D02*
X127300000Y-129300000D01*
X125600000Y-119900000D02*
X125600000Y-128700000D01*
%TO.N,/1CSA-B*%
X135900000Y-112800000D02*
X139265686Y-112800000D01*
X134000000Y-110900000D02*
X135900000Y-112800000D01*
X134000000Y-110000000D02*
X134000000Y-110900000D01*
X147300000Y-104765686D02*
X147300000Y-101500000D01*
X139265686Y-112800000D02*
X147300000Y-104765686D01*
X147300000Y-101500000D02*
X147600000Y-101200000D01*
%TO.N,/1CSA-A*%
X135900000Y-113400000D02*
X139231372Y-113400000D01*
X147700000Y-104931372D02*
X147700000Y-102400000D01*
X147700000Y-102400000D02*
X148200000Y-101900000D01*
X132700000Y-110000000D02*
X132700000Y-110200000D01*
X132700000Y-110200000D02*
X135900000Y-113400000D01*
X139231372Y-113400000D02*
X147700000Y-104931372D01*
%TO.N,/1CSA-C*%
X136200000Y-112400000D02*
X139100000Y-112400000D01*
X139100000Y-112400000D02*
X146900000Y-104600000D01*
X135100000Y-111300000D02*
X136200000Y-112400000D01*
X135100000Y-110000000D02*
X135100000Y-111300000D01*
X146900000Y-100700000D02*
X147200000Y-100400000D01*
X146900000Y-104600000D02*
X146900000Y-100700000D01*
X135300000Y-109800000D02*
X135100000Y-110000000D01*
%TO.N,/CS1*%
X137800000Y-96300000D02*
X134149998Y-92649998D01*
X134149998Y-92649998D02*
X133049998Y-92649998D01*
%TO.N,/PSU/~{CHG}*%
X131600000Y-123000000D02*
X133900000Y-123000000D01*
X127824265Y-117575735D02*
X127824265Y-119224265D01*
X133900000Y-123000000D02*
X135321200Y-124421200D01*
X127824265Y-119224265D02*
X131600000Y-123000000D01*
%TO.N,/SDA1*%
X126500000Y-96500000D02*
X128125000Y-98125000D01*
X128125000Y-98125000D02*
X128125000Y-98300000D01*
%TO.N,/USART1_TX*%
X133800000Y-97200000D02*
X139299314Y-97200000D01*
X139299314Y-97200000D02*
X144525000Y-91974314D01*
X144525000Y-91974314D02*
X144525000Y-90000000D01*
%TO.N,/USART1_RX*%
X132800000Y-97300000D02*
X133300000Y-97800000D01*
X133300000Y-97800000D02*
X139265000Y-97800000D01*
X139265000Y-97800000D02*
X147065000Y-90000000D01*
%TD*%
%TA.AperFunction,Conductor*%
%TO.N,GNDPWR*%
G36*
X139174753Y-113919685D02*
G01*
X139214752Y-113961400D01*
X139253447Y-114027563D01*
X139253452Y-114027571D01*
X139299208Y-114080376D01*
X139299218Y-114080387D01*
X139343934Y-114122548D01*
X139343936Y-114122549D01*
X139343940Y-114122553D01*
X139444016Y-114173439D01*
X139511055Y-114193124D01*
X139597127Y-114205500D01*
X139597130Y-114205500D01*
X147975990Y-114205500D01*
X147976000Y-114205500D01*
X148040941Y-114198518D01*
X148092452Y-114187312D01*
X148130658Y-114176354D01*
X148227571Y-114119675D01*
X148280375Y-114073920D01*
X148280382Y-114073912D01*
X148280387Y-114073908D01*
X148322548Y-114029192D01*
X148322553Y-114029187D01*
X148373439Y-113929111D01*
X148381987Y-113900000D01*
X161323500Y-113900000D01*
X161323500Y-128395532D01*
X161303815Y-128462571D01*
X161251011Y-128508326D01*
X161181853Y-128518270D01*
X161118297Y-128489245D01*
X161084939Y-128442985D01*
X161065283Y-128395532D01*
X161024536Y-128297159D01*
X160928282Y-128171718D01*
X160802841Y-128075464D01*
X160656762Y-128014956D01*
X160656760Y-128014955D01*
X160500001Y-127994318D01*
X160499999Y-127994318D01*
X160343239Y-128014955D01*
X160343237Y-128014956D01*
X160197160Y-128075463D01*
X160071718Y-128171718D01*
X159975463Y-128297160D01*
X159914956Y-128443237D01*
X159914955Y-128443239D01*
X159894318Y-128599998D01*
X159894318Y-128600001D01*
X159902456Y-128661815D01*
X159891690Y-128730850D01*
X159845310Y-128783106D01*
X159778042Y-128801991D01*
X159711241Y-128781510D01*
X159704037Y-128776381D01*
X159702842Y-128775464D01*
X159556762Y-128714956D01*
X159556760Y-128714955D01*
X159400001Y-128694318D01*
X159399999Y-128694318D01*
X159331196Y-128703376D01*
X159262161Y-128692610D01*
X159209905Y-128646230D01*
X159192072Y-128596622D01*
X159185044Y-128543239D01*
X159185044Y-128543238D01*
X159124536Y-128397159D01*
X159028282Y-128271718D01*
X158902841Y-128175464D01*
X158893797Y-128171718D01*
X158756762Y-128114956D01*
X158756760Y-128114955D01*
X158600001Y-128094318D01*
X158599999Y-128094318D01*
X158443239Y-128114955D01*
X158443237Y-128114956D01*
X158297160Y-128175463D01*
X158171718Y-128271718D01*
X158075463Y-128397160D01*
X158014956Y-128543237D01*
X158014955Y-128543239D01*
X157994318Y-128699998D01*
X157994318Y-128700001D01*
X158014955Y-128856760D01*
X158014956Y-128856762D01*
X158074287Y-129000001D01*
X158075464Y-129002841D01*
X158171718Y-129128282D01*
X158297159Y-129224536D01*
X158443238Y-129285044D01*
X158600000Y-129305682D01*
X158668805Y-129296623D01*
X158737837Y-129307388D01*
X158790093Y-129353767D01*
X158807927Y-129403375D01*
X158813502Y-129445724D01*
X158814956Y-129456762D01*
X158875464Y-129602841D01*
X158950400Y-129700500D01*
X158971719Y-129728283D01*
X159060132Y-129796124D01*
X159101335Y-129852552D01*
X159105490Y-129922298D01*
X159071278Y-129983218D01*
X159009561Y-130015971D01*
X158984646Y-130018500D01*
X123006500Y-130018500D01*
X122939461Y-129998815D01*
X122893706Y-129946011D01*
X122882500Y-129894500D01*
X122882500Y-114329500D01*
X122902185Y-114262461D01*
X122954989Y-114216706D01*
X123006500Y-114205500D01*
X123370318Y-114205500D01*
X123437357Y-114225185D01*
X123483112Y-114277989D01*
X123491632Y-114317155D01*
X123493257Y-114316942D01*
X123514955Y-114481760D01*
X123514956Y-114481762D01*
X123575464Y-114627841D01*
X123671718Y-114753282D01*
X123797159Y-114849536D01*
X123943238Y-114910044D01*
X124021619Y-114920363D01*
X124099999Y-114930682D01*
X124100000Y-114930682D01*
X124100001Y-114930682D01*
X124152254Y-114923802D01*
X124256762Y-114910044D01*
X124402841Y-114849536D01*
X124528282Y-114753282D01*
X124624536Y-114627841D01*
X124660939Y-114539955D01*
X124704780Y-114485552D01*
X124771074Y-114463487D01*
X124838773Y-114480766D01*
X124886384Y-114531903D01*
X124899500Y-114587408D01*
X124899500Y-117752726D01*
X124926793Y-117854589D01*
X124953156Y-117900250D01*
X124979520Y-117945913D01*
X124979522Y-117945915D01*
X128695926Y-121662319D01*
X128729411Y-121723642D01*
X128724427Y-121793334D01*
X128695926Y-121837681D01*
X126279522Y-124254084D01*
X126279517Y-124254090D01*
X126231887Y-124336589D01*
X126181320Y-124384805D01*
X126112713Y-124398027D01*
X126047848Y-124372059D01*
X126007320Y-124315145D01*
X126000500Y-124274589D01*
X126000500Y-119847275D01*
X126000500Y-119847273D01*
X125973207Y-119745413D01*
X125973207Y-119745412D01*
X125920480Y-119654087D01*
X124645913Y-118379520D01*
X124554588Y-118326793D01*
X124489379Y-118309320D01*
X124433796Y-118277231D01*
X124428288Y-118271724D01*
X124428284Y-118271721D01*
X124428282Y-118271718D01*
X124302841Y-118175464D01*
X124156762Y-118114956D01*
X124156760Y-118114955D01*
X124000001Y-118094318D01*
X123999999Y-118094318D01*
X123843239Y-118114955D01*
X123843237Y-118114956D01*
X123697160Y-118175463D01*
X123571718Y-118271718D01*
X123475463Y-118397160D01*
X123414956Y-118543237D01*
X123414955Y-118543239D01*
X123394318Y-118699998D01*
X123394318Y-118700001D01*
X123414955Y-118856760D01*
X123414956Y-118856762D01*
X123475464Y-119002841D01*
X123571718Y-119128282D01*
X123697159Y-119224536D01*
X123843238Y-119285044D01*
X123921619Y-119295363D01*
X123999999Y-119305682D01*
X124000000Y-119305682D01*
X124000001Y-119305682D01*
X124052254Y-119298802D01*
X124156762Y-119285044D01*
X124265399Y-119240044D01*
X124334867Y-119232576D01*
X124397347Y-119263851D01*
X124400532Y-119266925D01*
X125163181Y-120029574D01*
X125196666Y-120090897D01*
X125199500Y-120117255D01*
X125199500Y-128647273D01*
X125199500Y-128752727D01*
X125212167Y-128800001D01*
X125226793Y-128854589D01*
X125230248Y-128860573D01*
X125279520Y-128945913D01*
X125954087Y-129620480D01*
X126045412Y-129673207D01*
X126147273Y-129700500D01*
X126147275Y-129700500D01*
X127352725Y-129700500D01*
X127352727Y-129700500D01*
X127454588Y-129673207D01*
X127545913Y-129620480D01*
X128166395Y-128999998D01*
X141494318Y-128999998D01*
X141494318Y-129000001D01*
X141514955Y-129156760D01*
X141514956Y-129156762D01*
X141574287Y-129300001D01*
X141575464Y-129302841D01*
X141671718Y-129428282D01*
X141797159Y-129524536D01*
X141943238Y-129585044D01*
X142021619Y-129595363D01*
X142099999Y-129605682D01*
X142100000Y-129605682D01*
X142100001Y-129605682D01*
X142152254Y-129598802D01*
X142256762Y-129585044D01*
X142402841Y-129524536D01*
X142528282Y-129428282D01*
X142624536Y-129302841D01*
X142685044Y-129156762D01*
X142705682Y-129000000D01*
X142705682Y-128999998D01*
X145994318Y-128999998D01*
X145994318Y-129000001D01*
X146014955Y-129156760D01*
X146014956Y-129156762D01*
X146074287Y-129300001D01*
X146075464Y-129302841D01*
X146171718Y-129428282D01*
X146297159Y-129524536D01*
X146443238Y-129585044D01*
X146521619Y-129595363D01*
X146599999Y-129605682D01*
X146600000Y-129605682D01*
X146600001Y-129605682D01*
X146652254Y-129598802D01*
X146756762Y-129585044D01*
X146902841Y-129524536D01*
X147028282Y-129428282D01*
X147124536Y-129302841D01*
X147185044Y-129156762D01*
X147200070Y-129042623D01*
X147228336Y-128978728D01*
X147286661Y-128940257D01*
X147356525Y-128939426D01*
X147415749Y-128976498D01*
X147437570Y-129011357D01*
X147475464Y-129102841D01*
X147571718Y-129228282D01*
X147697159Y-129324536D01*
X147843238Y-129385044D01*
X147921619Y-129395363D01*
X147999999Y-129405682D01*
X148000000Y-129405682D01*
X148000001Y-129405682D01*
X148052254Y-129398802D01*
X148156762Y-129385044D01*
X148302841Y-129324536D01*
X148428282Y-129228282D01*
X148524536Y-129102841D01*
X148585044Y-128956762D01*
X148605682Y-128800000D01*
X148599458Y-128752727D01*
X148585044Y-128643239D01*
X148585044Y-128643238D01*
X148524536Y-128497159D01*
X148428282Y-128371718D01*
X148302841Y-128275464D01*
X148293797Y-128271718D01*
X148156762Y-128214956D01*
X148156760Y-128214955D01*
X148000001Y-128194318D01*
X147999999Y-128194318D01*
X147843239Y-128214955D01*
X147843237Y-128214956D01*
X147697160Y-128275463D01*
X147571718Y-128371718D01*
X147475463Y-128497160D01*
X147414956Y-128643237D01*
X147414956Y-128643239D01*
X147399929Y-128757375D01*
X147371662Y-128821271D01*
X147313337Y-128859742D01*
X147243473Y-128860573D01*
X147184249Y-128823500D01*
X147162429Y-128788641D01*
X147124537Y-128697161D01*
X147124536Y-128697160D01*
X147124536Y-128697159D01*
X147028282Y-128571718D01*
X146902841Y-128475464D01*
X146890241Y-128470245D01*
X146756762Y-128414956D01*
X146756760Y-128414955D01*
X146600001Y-128394318D01*
X146599999Y-128394318D01*
X146443239Y-128414955D01*
X146443237Y-128414956D01*
X146297160Y-128475463D01*
X146171718Y-128571718D01*
X146075463Y-128697160D01*
X146014956Y-128843237D01*
X146014955Y-128843239D01*
X145994318Y-128999998D01*
X142705682Y-128999998D01*
X142699989Y-128956760D01*
X142688793Y-128871718D01*
X142685044Y-128843238D01*
X142624536Y-128697159D01*
X142528282Y-128571718D01*
X142402841Y-128475464D01*
X142390241Y-128470245D01*
X142256762Y-128414956D01*
X142256760Y-128414955D01*
X142100001Y-128394318D01*
X142099999Y-128394318D01*
X141943239Y-128414955D01*
X141943237Y-128414956D01*
X141797160Y-128475463D01*
X141671718Y-128571718D01*
X141575463Y-128697160D01*
X141514956Y-128843237D01*
X141514955Y-128843239D01*
X141494318Y-128999998D01*
X128166395Y-128999998D01*
X128232980Y-128933413D01*
X128285707Y-128842088D01*
X128313000Y-128740227D01*
X128313000Y-128634773D01*
X128313000Y-125206580D01*
X128332685Y-125139541D01*
X128338624Y-125131093D01*
X128340779Y-125128283D01*
X128340782Y-125128282D01*
X128437036Y-125002841D01*
X128497544Y-124856762D01*
X128518182Y-124700000D01*
X128518181Y-124699995D01*
X128497544Y-124543239D01*
X128497544Y-124543238D01*
X128437036Y-124397159D01*
X128340782Y-124271718D01*
X128215341Y-124175464D01*
X128170190Y-124156762D01*
X128069262Y-124114956D01*
X128069260Y-124114955D01*
X127912502Y-124094318D01*
X127912500Y-124094318D01*
X127896531Y-124096420D01*
X127882624Y-124098251D01*
X127813589Y-124087483D01*
X127761334Y-124041102D01*
X127742450Y-123973833D01*
X127762932Y-123907033D01*
X127778752Y-123887639D01*
X129262318Y-122404072D01*
X129323641Y-122370588D01*
X129393333Y-122375572D01*
X129437680Y-122404073D01*
X130954087Y-123920480D01*
X131045412Y-123973207D01*
X131147273Y-124000500D01*
X131252727Y-124000500D01*
X132282745Y-124000500D01*
X132349784Y-124020185D01*
X132370426Y-124036819D01*
X134254087Y-125920480D01*
X134345412Y-125973207D01*
X134447273Y-126000500D01*
X134493420Y-126000500D01*
X134560459Y-126020185D01*
X134568907Y-126026124D01*
X134571716Y-126028279D01*
X134571718Y-126028282D01*
X134697159Y-126124536D01*
X134843238Y-126185044D01*
X134921619Y-126195363D01*
X134999999Y-126205682D01*
X135000000Y-126205682D01*
X135000001Y-126205682D01*
X135043170Y-126199998D01*
X150394318Y-126199998D01*
X150394318Y-126200001D01*
X150414955Y-126356760D01*
X150414956Y-126356762D01*
X150475464Y-126502841D01*
X150571718Y-126628282D01*
X150697159Y-126724536D01*
X150843238Y-126785044D01*
X150921619Y-126795363D01*
X150999999Y-126805682D01*
X151000000Y-126805682D01*
X151000001Y-126805682D01*
X151064754Y-126797157D01*
X151156762Y-126785044D01*
X151302841Y-126724536D01*
X151428282Y-126628282D01*
X151524536Y-126502841D01*
X151585044Y-126356762D01*
X151605682Y-126200000D01*
X151585044Y-126043238D01*
X151524536Y-125897159D01*
X151428282Y-125771718D01*
X151302841Y-125675464D01*
X151156762Y-125614956D01*
X151156760Y-125614955D01*
X151000001Y-125594318D01*
X150999999Y-125594318D01*
X150843239Y-125614955D01*
X150843237Y-125614956D01*
X150697160Y-125675463D01*
X150571718Y-125771718D01*
X150475463Y-125897160D01*
X150414956Y-126043237D01*
X150414955Y-126043239D01*
X150394318Y-126199998D01*
X135043170Y-126199998D01*
X135052254Y-126198802D01*
X135156762Y-126185044D01*
X135302841Y-126124536D01*
X135428282Y-126028282D01*
X135524536Y-125902841D01*
X135585044Y-125756762D01*
X135605682Y-125600000D01*
X135585044Y-125443238D01*
X135524536Y-125297159D01*
X135442287Y-125189970D01*
X135417095Y-125124805D01*
X135431133Y-125056360D01*
X135479947Y-125006370D01*
X135493201Y-124999931D01*
X135624041Y-124945736D01*
X135749482Y-124849482D01*
X135845736Y-124724041D01*
X135906244Y-124577962D01*
X135920002Y-124473454D01*
X135926882Y-124421201D01*
X135926882Y-124421198D01*
X135906244Y-124264439D01*
X135906244Y-124264438D01*
X135845736Y-124118359D01*
X135754915Y-123999998D01*
X150494318Y-123999998D01*
X150494318Y-124000001D01*
X150514955Y-124156760D01*
X150514956Y-124156762D01*
X150563761Y-124274589D01*
X150575464Y-124302841D01*
X150671718Y-124428282D01*
X150797159Y-124524536D01*
X150943238Y-124585044D01*
X151021619Y-124595363D01*
X151099999Y-124605682D01*
X151100000Y-124605682D01*
X151100001Y-124605682D01*
X151152254Y-124598802D01*
X151256762Y-124585044D01*
X151402841Y-124524536D01*
X151528282Y-124428282D01*
X151624536Y-124302841D01*
X151685044Y-124156762D01*
X151705682Y-124000000D01*
X151692077Y-123896663D01*
X151685044Y-123843239D01*
X151685044Y-123843238D01*
X151624536Y-123697159D01*
X151528282Y-123571718D01*
X151402841Y-123475464D01*
X151256762Y-123414956D01*
X151256760Y-123414955D01*
X151100001Y-123394318D01*
X151099999Y-123394318D01*
X150943239Y-123414955D01*
X150943237Y-123414956D01*
X150797160Y-123475463D01*
X150671718Y-123571718D01*
X150575463Y-123697160D01*
X150514956Y-123843237D01*
X150514955Y-123843239D01*
X150494318Y-123999998D01*
X135754915Y-123999998D01*
X135749482Y-123992918D01*
X135624041Y-123896664D01*
X135477962Y-123836156D01*
X135421777Y-123828759D01*
X135317685Y-123815055D01*
X135253789Y-123786788D01*
X135246190Y-123779797D01*
X134145915Y-122679522D01*
X134145913Y-122679520D01*
X134100250Y-122653156D01*
X134054589Y-122626793D01*
X134003657Y-122613146D01*
X133952727Y-122599500D01*
X133952726Y-122599500D01*
X131817254Y-122599500D01*
X131750215Y-122579815D01*
X131729573Y-122563181D01*
X129666391Y-120499998D01*
X159294318Y-120499998D01*
X159294318Y-120500001D01*
X159314955Y-120656760D01*
X159314956Y-120656762D01*
X159375464Y-120802841D01*
X159471718Y-120928282D01*
X159597159Y-121024536D01*
X159743238Y-121085044D01*
X159821619Y-121095363D01*
X159899999Y-121105682D01*
X159900000Y-121105682D01*
X159900001Y-121105682D01*
X159952254Y-121098802D01*
X160056762Y-121085044D01*
X160202841Y-121024536D01*
X160328282Y-120928282D01*
X160424536Y-120802841D01*
X160485044Y-120656762D01*
X160505682Y-120500000D01*
X160485044Y-120343238D01*
X160424536Y-120197159D01*
X160328282Y-120071718D01*
X160202841Y-119975464D01*
X160056762Y-119914956D01*
X160056760Y-119914955D01*
X159900001Y-119894318D01*
X159899999Y-119894318D01*
X159743239Y-119914955D01*
X159743237Y-119914956D01*
X159597160Y-119975463D01*
X159471718Y-120071718D01*
X159375463Y-120197160D01*
X159314956Y-120343237D01*
X159314955Y-120343239D01*
X159294318Y-120499998D01*
X129666391Y-120499998D01*
X128261084Y-119094691D01*
X128227599Y-119033368D01*
X128224765Y-119007010D01*
X128224765Y-118082315D01*
X128244450Y-118015276D01*
X128250389Y-118006828D01*
X128252544Y-118004018D01*
X128252547Y-118004017D01*
X128348801Y-117878576D01*
X128409309Y-117732497D01*
X128429947Y-117575735D01*
X128409309Y-117418973D01*
X128348801Y-117272894D01*
X128252547Y-117147453D01*
X128127106Y-117051199D01*
X128107886Y-117043238D01*
X128084319Y-117033476D01*
X127981027Y-116990691D01*
X127906929Y-116980935D01*
X127843034Y-116952669D01*
X127804563Y-116894345D01*
X127800177Y-116841813D01*
X127805682Y-116800000D01*
X127800169Y-116758128D01*
X127785044Y-116643239D01*
X127785044Y-116643238D01*
X127724536Y-116497159D01*
X127628282Y-116371718D01*
X127502841Y-116275464D01*
X127356762Y-116214956D01*
X127356760Y-116214955D01*
X127200001Y-116194318D01*
X127199999Y-116194318D01*
X127043239Y-116214955D01*
X127043237Y-116214956D01*
X126897160Y-116275463D01*
X126771718Y-116371718D01*
X126675463Y-116497160D01*
X126614956Y-116643237D01*
X126614955Y-116643239D01*
X126594318Y-116799998D01*
X126594318Y-116800001D01*
X126614955Y-116956760D01*
X126614956Y-116956762D01*
X126650775Y-117043238D01*
X126675464Y-117102841D01*
X126771718Y-117228282D01*
X126897159Y-117324536D01*
X127043238Y-117385044D01*
X127117333Y-117394798D01*
X127181229Y-117423064D01*
X127219701Y-117481388D01*
X127224087Y-117533921D01*
X127218583Y-117575732D01*
X127218583Y-117575736D01*
X127239220Y-117732495D01*
X127239221Y-117732497D01*
X127299729Y-117878576D01*
X127395983Y-118004017D01*
X127395985Y-118004018D01*
X127398141Y-118006828D01*
X127423335Y-118071998D01*
X127423765Y-118082315D01*
X127423765Y-118958010D01*
X127404080Y-119025049D01*
X127351276Y-119070804D01*
X127282118Y-119080748D01*
X127218562Y-119051723D01*
X127212084Y-119045691D01*
X125736819Y-117570426D01*
X125703334Y-117509103D01*
X125700500Y-117482745D01*
X125700500Y-115199998D01*
X140194318Y-115199998D01*
X140194318Y-115200001D01*
X140214955Y-115356760D01*
X140214956Y-115356762D01*
X140275464Y-115502842D01*
X140368826Y-115624514D01*
X140394020Y-115689683D01*
X140379981Y-115758128D01*
X140368826Y-115775486D01*
X140275464Y-115897157D01*
X140214956Y-116043237D01*
X140214955Y-116043239D01*
X140194318Y-116199998D01*
X140194318Y-116200001D01*
X140214955Y-116356760D01*
X140214956Y-116356762D01*
X140275464Y-116502842D01*
X140368826Y-116624514D01*
X140394020Y-116689683D01*
X140379981Y-116758128D01*
X140368826Y-116775486D01*
X140275464Y-116897157D01*
X140214956Y-117043237D01*
X140214955Y-117043239D01*
X140194318Y-117199998D01*
X140194318Y-117200001D01*
X140214955Y-117356760D01*
X140214956Y-117356762D01*
X140275464Y-117502841D01*
X140371718Y-117628282D01*
X140497159Y-117724536D01*
X140643238Y-117785044D01*
X140721619Y-117795363D01*
X140799999Y-117805682D01*
X140800000Y-117805682D01*
X140800001Y-117805682D01*
X140852254Y-117798802D01*
X140956762Y-117785044D01*
X141102841Y-117724536D01*
X141174513Y-117669539D01*
X141239682Y-117644345D01*
X141308127Y-117658383D01*
X141325487Y-117669540D01*
X141397157Y-117724535D01*
X141397158Y-117724535D01*
X141397159Y-117724536D01*
X141543238Y-117785044D01*
X141621619Y-117795363D01*
X141699999Y-117805682D01*
X141700000Y-117805682D01*
X141700001Y-117805682D01*
X141752254Y-117798802D01*
X141856762Y-117785044D01*
X142002841Y-117724536D01*
X142074513Y-117669539D01*
X142139682Y-117644345D01*
X142208127Y-117658383D01*
X142225487Y-117669540D01*
X142297157Y-117724535D01*
X142297158Y-117724535D01*
X142297159Y-117724536D01*
X142443238Y-117785044D01*
X142521619Y-117795363D01*
X142599999Y-117805682D01*
X142600000Y-117805682D01*
X142600001Y-117805682D01*
X142652254Y-117798802D01*
X142756762Y-117785044D01*
X142902841Y-117724536D01*
X142974513Y-117669539D01*
X143039682Y-117644345D01*
X143108127Y-117658383D01*
X143125487Y-117669540D01*
X143197157Y-117724535D01*
X143197158Y-117724535D01*
X143197159Y-117724536D01*
X143343238Y-117785044D01*
X143421619Y-117795363D01*
X143499999Y-117805682D01*
X143500000Y-117805682D01*
X143500001Y-117805682D01*
X143552254Y-117798802D01*
X143656762Y-117785044D01*
X143802841Y-117724536D01*
X143928282Y-117628282D01*
X144024536Y-117502841D01*
X144085044Y-117356762D01*
X144105682Y-117200000D01*
X144085044Y-117043238D01*
X144024536Y-116897159D01*
X143931171Y-116775484D01*
X143905979Y-116710317D01*
X143920017Y-116641873D01*
X143931167Y-116624521D01*
X144024536Y-116502841D01*
X144085044Y-116356762D01*
X144105682Y-116200000D01*
X144085044Y-116043238D01*
X144024536Y-115897159D01*
X143931171Y-115775484D01*
X143905979Y-115710317D01*
X143920017Y-115641873D01*
X143931167Y-115624521D01*
X144024536Y-115502841D01*
X144085044Y-115356762D01*
X144105682Y-115200000D01*
X144085044Y-115043238D01*
X144024536Y-114897159D01*
X143928282Y-114771718D01*
X143802841Y-114675464D01*
X143656762Y-114614956D01*
X143656760Y-114614955D01*
X143500001Y-114594318D01*
X143499999Y-114594318D01*
X143343239Y-114614955D01*
X143343237Y-114614956D01*
X143197157Y-114675464D01*
X143125486Y-114730460D01*
X143060317Y-114755654D01*
X142991872Y-114741615D01*
X142974514Y-114730460D01*
X142902842Y-114675464D01*
X142756762Y-114614956D01*
X142756760Y-114614955D01*
X142600001Y-114594318D01*
X142599999Y-114594318D01*
X142443239Y-114614955D01*
X142443237Y-114614956D01*
X142297157Y-114675464D01*
X142225486Y-114730460D01*
X142160317Y-114755654D01*
X142091872Y-114741615D01*
X142074514Y-114730460D01*
X142002842Y-114675464D01*
X141856762Y-114614956D01*
X141856760Y-114614955D01*
X141700001Y-114594318D01*
X141699999Y-114594318D01*
X141543239Y-114614955D01*
X141543237Y-114614956D01*
X141397157Y-114675464D01*
X141325486Y-114730460D01*
X141260317Y-114755654D01*
X141191872Y-114741615D01*
X141174514Y-114730460D01*
X141102842Y-114675464D01*
X140956762Y-114614956D01*
X140956760Y-114614955D01*
X140800001Y-114594318D01*
X140799999Y-114594318D01*
X140643239Y-114614955D01*
X140643237Y-114614956D01*
X140497160Y-114675463D01*
X140371718Y-114771718D01*
X140275463Y-114897160D01*
X140214956Y-115043237D01*
X140214955Y-115043239D01*
X140194318Y-115199998D01*
X125700500Y-115199998D01*
X125700500Y-114329500D01*
X125720185Y-114262461D01*
X125772989Y-114216706D01*
X125824500Y-114205500D01*
X135534249Y-114205500D01*
X135534930Y-114205487D01*
X135545151Y-114205305D01*
X135553997Y-114204989D01*
X135649853Y-114185922D01*
X135715317Y-114161505D01*
X135770466Y-114134333D01*
X135853118Y-114058349D01*
X135894990Y-114002416D01*
X135920486Y-113960056D01*
X135971922Y-113912769D01*
X136026727Y-113900000D01*
X139107714Y-113900000D01*
X139174753Y-113919685D01*
G37*
%TD.AperFunction*%
%TD*%
%TA.AperFunction,Conductor*%
%TO.N,GNDPWR*%
G36*
X161266539Y-88358185D02*
G01*
X161312294Y-88410989D01*
X161323500Y-88462500D01*
X161323500Y-99007415D01*
X161303815Y-99074454D01*
X161251011Y-99120209D01*
X161181853Y-99130153D01*
X161118297Y-99101128D01*
X161092113Y-99069415D01*
X161022781Y-98949328D01*
X160886522Y-98771752D01*
X160886516Y-98771745D01*
X160728254Y-98613483D01*
X160728247Y-98613477D01*
X160550671Y-98477218D01*
X160356831Y-98365305D01*
X160356821Y-98365300D01*
X160199172Y-98300000D01*
X160150036Y-98279647D01*
X159933832Y-98221716D01*
X159933826Y-98221715D01*
X159933821Y-98221714D01*
X159711924Y-98192501D01*
X159711921Y-98192500D01*
X159711915Y-98192500D01*
X159488085Y-98192500D01*
X159488079Y-98192500D01*
X159488075Y-98192501D01*
X159266178Y-98221714D01*
X159266171Y-98221715D01*
X159266168Y-98221716D01*
X159194100Y-98241026D01*
X159049970Y-98279645D01*
X159049966Y-98279646D01*
X159049964Y-98279647D01*
X159049957Y-98279650D01*
X158843178Y-98365300D01*
X158843168Y-98365305D01*
X158649328Y-98477218D01*
X158471752Y-98613477D01*
X158471745Y-98613483D01*
X158313483Y-98771745D01*
X158313477Y-98771752D01*
X158177218Y-98949328D01*
X158065305Y-99143168D01*
X158065300Y-99143178D01*
X157979650Y-99349957D01*
X157979645Y-99349970D01*
X157921717Y-99566165D01*
X157921714Y-99566178D01*
X157892501Y-99788075D01*
X157892500Y-99788091D01*
X157892500Y-109011908D01*
X157892501Y-109011924D01*
X157921714Y-109233821D01*
X157921715Y-109233826D01*
X157921716Y-109233832D01*
X157979647Y-109450036D01*
X158005559Y-109512592D01*
X158065300Y-109656821D01*
X158065305Y-109656831D01*
X158177218Y-109850671D01*
X158313477Y-110028247D01*
X158313483Y-110028254D01*
X158471745Y-110186516D01*
X158471752Y-110186522D01*
X158649328Y-110322781D01*
X158843168Y-110434694D01*
X158843178Y-110434699D01*
X158880587Y-110450194D01*
X159049964Y-110520353D01*
X159266168Y-110578284D01*
X159488085Y-110607500D01*
X159488092Y-110607500D01*
X159711908Y-110607500D01*
X159711915Y-110607500D01*
X159933832Y-110578284D01*
X160150036Y-110520353D01*
X160356828Y-110434696D01*
X160550672Y-110322781D01*
X160728249Y-110186521D01*
X160886521Y-110028249D01*
X161022781Y-109850672D01*
X161092113Y-109730583D01*
X161142679Y-109682369D01*
X161211286Y-109669145D01*
X161276151Y-109695113D01*
X161316680Y-109752027D01*
X161323500Y-109792584D01*
X161323500Y-113900000D01*
X148381987Y-113900000D01*
X148393124Y-113862072D01*
X148405500Y-113776000D01*
X148405500Y-111834240D01*
X150219311Y-111834240D01*
X150307585Y-111888897D01*
X150497678Y-111962539D01*
X150698072Y-112000000D01*
X150901928Y-112000000D01*
X151102322Y-111962539D01*
X151292412Y-111888899D01*
X151292416Y-111888897D01*
X151380686Y-111834241D01*
X151380686Y-111834240D01*
X150800001Y-111253553D01*
X150800000Y-111253553D01*
X150219311Y-111834240D01*
X148405500Y-111834240D01*
X148405500Y-110899999D01*
X149695287Y-110899999D01*
X149695287Y-110900000D01*
X149714096Y-111102989D01*
X149714097Y-111102992D01*
X149769883Y-111299063D01*
X149769886Y-111299069D01*
X149860751Y-111481551D01*
X149862533Y-111483911D01*
X150446446Y-110900000D01*
X150446446Y-110899999D01*
X150406951Y-110860504D01*
X150500000Y-110860504D01*
X150500000Y-110939496D01*
X150520444Y-111015796D01*
X150559940Y-111084205D01*
X150615795Y-111140060D01*
X150684204Y-111179556D01*
X150760504Y-111200000D01*
X150839496Y-111200000D01*
X150915796Y-111179556D01*
X150984205Y-111140060D01*
X151040060Y-111084205D01*
X151079556Y-111015796D01*
X151100000Y-110939496D01*
X151100000Y-110900000D01*
X151153553Y-110900000D01*
X151737465Y-111483912D01*
X151739247Y-111481553D01*
X151739251Y-111481547D01*
X151801500Y-111356534D01*
X151849002Y-111305297D01*
X151916665Y-111287875D01*
X151983006Y-111309800D01*
X152019887Y-111349805D01*
X152067467Y-111432216D01*
X152124822Y-111495915D01*
X152194129Y-111572888D01*
X152347265Y-111684148D01*
X152347270Y-111684151D01*
X152520192Y-111761142D01*
X152520197Y-111761144D01*
X152705354Y-111800500D01*
X152705355Y-111800500D01*
X152894644Y-111800500D01*
X152894646Y-111800500D01*
X153079803Y-111761144D01*
X153252730Y-111684151D01*
X153405871Y-111572888D01*
X153532533Y-111432216D01*
X153627179Y-111268284D01*
X153685674Y-111088256D01*
X153705460Y-110900000D01*
X153685674Y-110711744D01*
X153627179Y-110531716D01*
X153532533Y-110367784D01*
X153405871Y-110227112D01*
X153405870Y-110227111D01*
X153252734Y-110115851D01*
X153252729Y-110115848D01*
X153079807Y-110038857D01*
X153079802Y-110038855D01*
X152931469Y-110007327D01*
X152894646Y-109999500D01*
X152705354Y-109999500D01*
X152672897Y-110006398D01*
X152520197Y-110038855D01*
X152520192Y-110038857D01*
X152347270Y-110115848D01*
X152347265Y-110115851D01*
X152194129Y-110227111D01*
X152067465Y-110367785D01*
X152019887Y-110450194D01*
X151969320Y-110498410D01*
X151900713Y-110511632D01*
X151835848Y-110485664D01*
X151801500Y-110443466D01*
X151739249Y-110318449D01*
X151739247Y-110318447D01*
X151737465Y-110316087D01*
X151153553Y-110900000D01*
X151100000Y-110900000D01*
X151100000Y-110860504D01*
X151079556Y-110784204D01*
X151040060Y-110715795D01*
X150984205Y-110659940D01*
X150915796Y-110620444D01*
X150839496Y-110600000D01*
X150760504Y-110600000D01*
X150684204Y-110620444D01*
X150615795Y-110659940D01*
X150559940Y-110715795D01*
X150520444Y-110784204D01*
X150500000Y-110860504D01*
X150406951Y-110860504D01*
X149862533Y-110316087D01*
X149860755Y-110318442D01*
X149860754Y-110318443D01*
X149769886Y-110500930D01*
X149769883Y-110500936D01*
X149714097Y-110697007D01*
X149714096Y-110697010D01*
X149695287Y-110899999D01*
X148405500Y-110899999D01*
X148405500Y-109965758D01*
X150219311Y-109965758D01*
X150800000Y-110546446D01*
X150800001Y-110546446D01*
X151380687Y-109965758D01*
X151292413Y-109911101D01*
X151292411Y-109911100D01*
X151102321Y-109837460D01*
X150901928Y-109800000D01*
X150698072Y-109800000D01*
X150497678Y-109837460D01*
X150307588Y-109911100D01*
X150307581Y-109911104D01*
X150219312Y-109965757D01*
X150219311Y-109965758D01*
X148405500Y-109965758D01*
X148405500Y-105397125D01*
X148405305Y-105386219D01*
X148404989Y-105377373D01*
X148385922Y-105281517D01*
X148361505Y-105216053D01*
X148334333Y-105160904D01*
X148258349Y-105078252D01*
X148202416Y-105036380D01*
X148202409Y-105036375D01*
X148202404Y-105036372D01*
X148202402Y-105036371D01*
X148160556Y-105011184D01*
X148113269Y-104959748D01*
X148100501Y-104904944D01*
X148100501Y-104871050D01*
X148100500Y-104871032D01*
X148100500Y-102627526D01*
X148120185Y-102560487D01*
X148172989Y-102514732D01*
X148208312Y-102504587D01*
X148356762Y-102485044D01*
X148502841Y-102424536D01*
X148628282Y-102328282D01*
X148724536Y-102202841D01*
X148785044Y-102056762D01*
X148805682Y-101900000D01*
X148805681Y-101899996D01*
X148785044Y-101743239D01*
X148785044Y-101743238D01*
X148724536Y-101597159D01*
X148628282Y-101471718D01*
X148502841Y-101375464D01*
X148356762Y-101314956D01*
X148312752Y-101309162D01*
X148248856Y-101280895D01*
X148210385Y-101222571D01*
X148205999Y-101202408D01*
X148199043Y-101149575D01*
X148185044Y-101043238D01*
X148185043Y-101043237D01*
X148183983Y-101035180D01*
X148186422Y-101034858D01*
X148187782Y-100977437D01*
X148224698Y-100921465D01*
X148227565Y-100918980D01*
X148227571Y-100918977D01*
X148280375Y-100873222D01*
X148280382Y-100873213D01*
X148280387Y-100873210D01*
X148322548Y-100828494D01*
X148322553Y-100828489D01*
X148373439Y-100728413D01*
X148393124Y-100661374D01*
X148405500Y-100575302D01*
X148405500Y-99953116D01*
X148403118Y-99915041D01*
X148399266Y-99884375D01*
X148397454Y-99872002D01*
X148397453Y-99872000D01*
X148397453Y-99871997D01*
X148358883Y-99766565D01*
X148358883Y-99766564D01*
X148323231Y-99706475D01*
X148323223Y-99706464D01*
X148323219Y-99706458D01*
X148299834Y-99674806D01*
X148275829Y-99609189D01*
X148285004Y-99553670D01*
X148341828Y-99416487D01*
X148362466Y-99259725D01*
X148341828Y-99102963D01*
X148285080Y-98965963D01*
X148277612Y-98896496D01*
X148308887Y-98834016D01*
X148309221Y-98833659D01*
X148322553Y-98819520D01*
X148373439Y-98719444D01*
X148393124Y-98652405D01*
X148405500Y-98566333D01*
X148405500Y-94468995D01*
X155449499Y-94468995D01*
X155476418Y-94604322D01*
X155476421Y-94604332D01*
X155529221Y-94731804D01*
X155529228Y-94731817D01*
X155605885Y-94846541D01*
X155605888Y-94846545D01*
X155696662Y-94937319D01*
X155730147Y-94998642D01*
X155725163Y-95068334D01*
X155696662Y-95112681D01*
X155605888Y-95203454D01*
X155605885Y-95203458D01*
X155529228Y-95318182D01*
X155529221Y-95318195D01*
X155476421Y-95445667D01*
X155476418Y-95445677D01*
X155449500Y-95581004D01*
X155449500Y-95581007D01*
X155449500Y-95718993D01*
X155449500Y-95718995D01*
X155449499Y-95718995D01*
X155476418Y-95854322D01*
X155476421Y-95854332D01*
X155529221Y-95981804D01*
X155529228Y-95981817D01*
X155605885Y-96096541D01*
X155605888Y-96096545D01*
X155639579Y-96130236D01*
X155673064Y-96191559D01*
X155668080Y-96261251D01*
X155626212Y-96317182D01*
X155606041Y-96332282D01*
X155592454Y-96342454D01*
X155592453Y-96342455D01*
X155592452Y-96342456D01*
X155506206Y-96457664D01*
X155506202Y-96457671D01*
X155455910Y-96592513D01*
X155455909Y-96592517D01*
X155449500Y-96652127D01*
X155449500Y-96652134D01*
X155449500Y-96652135D01*
X155449500Y-97147870D01*
X155449501Y-97147876D01*
X155455908Y-97207483D01*
X155506202Y-97342328D01*
X155506206Y-97342335D01*
X155592452Y-97457544D01*
X155592455Y-97457547D01*
X155707664Y-97543793D01*
X155707671Y-97543797D01*
X155842517Y-97594091D01*
X155842516Y-97594091D01*
X155849444Y-97594835D01*
X155902127Y-97600500D01*
X156897872Y-97600499D01*
X156957483Y-97594091D01*
X157092331Y-97543796D01*
X157207546Y-97457546D01*
X157293796Y-97342331D01*
X157344091Y-97207483D01*
X157350500Y-97147873D01*
X157350499Y-96652128D01*
X157344091Y-96592517D01*
X157342839Y-96589161D01*
X157293797Y-96457671D01*
X157293793Y-96457664D01*
X157207548Y-96342456D01*
X157207546Y-96342455D01*
X157207546Y-96342454D01*
X157173787Y-96317182D01*
X157131918Y-96261248D01*
X157126935Y-96191556D01*
X157160421Y-96130235D01*
X157194111Y-96096545D01*
X157194114Y-96096542D01*
X157270775Y-95981811D01*
X157274327Y-95973237D01*
X157308632Y-95890416D01*
X157323580Y-95854328D01*
X157350500Y-95718993D01*
X157350500Y-95581007D01*
X157350500Y-95581004D01*
X157323581Y-95445677D01*
X157323580Y-95445676D01*
X157323580Y-95445672D01*
X157323578Y-95445667D01*
X157270778Y-95318195D01*
X157270771Y-95318182D01*
X157194114Y-95203458D01*
X157194111Y-95203454D01*
X157103338Y-95112681D01*
X157069853Y-95051358D01*
X157074837Y-94981666D01*
X157103338Y-94937319D01*
X157194111Y-94846545D01*
X157194114Y-94846542D01*
X157270775Y-94731811D01*
X157323580Y-94604328D01*
X157334143Y-94551227D01*
X157350500Y-94468995D01*
X157350500Y-94331004D01*
X157323581Y-94195677D01*
X157323580Y-94195676D01*
X157323580Y-94195672D01*
X157323578Y-94195667D01*
X157270778Y-94068195D01*
X157270771Y-94068182D01*
X157194114Y-93953458D01*
X157194111Y-93953454D01*
X157096545Y-93855888D01*
X157096541Y-93855885D01*
X156981817Y-93779228D01*
X156981804Y-93779221D01*
X156854332Y-93726421D01*
X156854322Y-93726418D01*
X156718995Y-93699500D01*
X156718993Y-93699500D01*
X156081007Y-93699500D01*
X156081005Y-93699500D01*
X155945677Y-93726418D01*
X155945667Y-93726421D01*
X155818195Y-93779221D01*
X155818182Y-93779228D01*
X155703458Y-93855885D01*
X155703454Y-93855888D01*
X155605888Y-93953454D01*
X155605885Y-93953458D01*
X155529228Y-94068182D01*
X155529221Y-94068195D01*
X155476421Y-94195667D01*
X155476418Y-94195677D01*
X155449500Y-94331004D01*
X155449500Y-94331007D01*
X155449500Y-94468993D01*
X155449500Y-94468995D01*
X155449499Y-94468995D01*
X148405500Y-94468995D01*
X148405500Y-90894120D01*
X148405476Y-90890308D01*
X148405437Y-90887183D01*
X148390824Y-90797565D01*
X148369456Y-90731043D01*
X148344857Y-90674694D01*
X148272770Y-90588623D01*
X148272769Y-90588622D01*
X148272765Y-90588618D01*
X148218841Y-90544223D01*
X148218829Y-90544213D01*
X148199483Y-90531315D01*
X148154623Y-90477753D01*
X148145842Y-90408438D01*
X148148996Y-90394222D01*
X148200756Y-90212310D01*
X148220429Y-90000000D01*
X148200756Y-89787690D01*
X148148402Y-89603687D01*
X148148988Y-89533821D01*
X148187255Y-89475362D01*
X148205068Y-89462715D01*
X148211164Y-89459149D01*
X148227571Y-89449554D01*
X148280375Y-89403799D01*
X148280382Y-89403791D01*
X148280387Y-89403787D01*
X148322548Y-89359071D01*
X148322553Y-89359066D01*
X148373439Y-89258990D01*
X148393124Y-89191951D01*
X148405500Y-89105879D01*
X148405500Y-88462500D01*
X148425185Y-88395461D01*
X148477989Y-88349706D01*
X148529500Y-88338500D01*
X161199500Y-88338500D01*
X161266539Y-88358185D01*
G37*
%TD.AperFunction*%
%TD*%
%TA.AperFunction,Conductor*%
%TO.N,GND*%
G36*
X148043039Y-88358185D02*
G01*
X148088794Y-88410989D01*
X148100000Y-88462500D01*
X148100000Y-89105879D01*
X148080315Y-89172918D01*
X148027511Y-89218673D01*
X147958353Y-89228617D01*
X147894797Y-89199592D01*
X147892462Y-89197516D01*
X147763562Y-89080008D01*
X147761302Y-89077948D01*
X147580019Y-88965702D01*
X147580017Y-88965701D01*
X147480608Y-88927190D01*
X147381198Y-88888679D01*
X147171610Y-88849500D01*
X146958390Y-88849500D01*
X146748802Y-88888679D01*
X146748799Y-88888679D01*
X146748799Y-88888680D01*
X146549982Y-88965701D01*
X146549980Y-88965702D01*
X146368699Y-89077947D01*
X146211127Y-89221593D01*
X146082632Y-89391746D01*
X145987596Y-89582605D01*
X145987596Y-89582607D01*
X145929244Y-89787689D01*
X145922970Y-89855398D01*
X145897184Y-89920335D01*
X145840384Y-89961023D01*
X145770603Y-89964543D01*
X145709996Y-89929778D01*
X145677806Y-89867765D01*
X145675499Y-89843957D01*
X145675499Y-89105143D01*
X145675499Y-89105136D01*
X145675497Y-89105117D01*
X145672586Y-89080012D01*
X145672585Y-89080010D01*
X145672585Y-89080009D01*
X145627206Y-88977235D01*
X145547765Y-88897794D01*
X145527124Y-88888680D01*
X145444992Y-88852415D01*
X145419865Y-88849500D01*
X143630143Y-88849500D01*
X143630117Y-88849502D01*
X143605012Y-88852413D01*
X143605008Y-88852415D01*
X143502235Y-88897793D01*
X143422794Y-88977234D01*
X143377415Y-89080006D01*
X143377415Y-89080008D01*
X143374500Y-89105131D01*
X143374500Y-90894856D01*
X143374502Y-90894882D01*
X143377413Y-90919987D01*
X143377415Y-90919991D01*
X143422793Y-91022764D01*
X143422794Y-91022765D01*
X143502235Y-91102206D01*
X143605009Y-91147585D01*
X143630135Y-91150500D01*
X144000500Y-91150499D01*
X144067539Y-91170183D01*
X144113294Y-91222987D01*
X144124500Y-91274499D01*
X144124500Y-91757059D01*
X144104815Y-91824098D01*
X144088181Y-91844740D01*
X139169740Y-96763181D01*
X139108417Y-96796666D01*
X139082059Y-96799500D01*
X138425082Y-96799500D01*
X138358043Y-96779815D01*
X138312288Y-96727011D01*
X138302344Y-96657853D01*
X138322141Y-96610845D01*
X138320472Y-96609881D01*
X138324534Y-96602843D01*
X138324536Y-96602841D01*
X138385044Y-96456762D01*
X138405682Y-96300000D01*
X138385044Y-96143238D01*
X138324536Y-95997159D01*
X138228282Y-95871718D01*
X138102841Y-95775464D01*
X137956762Y-95714956D01*
X137900577Y-95707559D01*
X137796485Y-95693855D01*
X137732589Y-95665588D01*
X137724990Y-95658597D01*
X134395913Y-92329520D01*
X134395911Y-92329518D01*
X134350248Y-92303154D01*
X134304587Y-92276791D01*
X134253655Y-92263144D01*
X134202725Y-92249498D01*
X134202724Y-92249498D01*
X133556578Y-92249498D01*
X133489539Y-92229813D01*
X133481091Y-92223874D01*
X133478281Y-92221718D01*
X133478280Y-92221716D01*
X133352839Y-92125462D01*
X133350603Y-92124536D01*
X133206760Y-92064954D01*
X133206758Y-92064953D01*
X133049999Y-92044316D01*
X133049997Y-92044316D01*
X132893237Y-92064953D01*
X132893235Y-92064954D01*
X132747158Y-92125461D01*
X132621716Y-92221716D01*
X132525461Y-92347158D01*
X132464954Y-92493235D01*
X132464953Y-92493237D01*
X132444316Y-92649996D01*
X132444316Y-92649999D01*
X132464953Y-92806758D01*
X132464954Y-92806760D01*
X132525462Y-92952839D01*
X132621716Y-93078280D01*
X132747157Y-93174534D01*
X132893236Y-93235042D01*
X132971617Y-93245361D01*
X133049997Y-93255680D01*
X133049998Y-93255680D01*
X133049999Y-93255680D01*
X133102252Y-93248800D01*
X133206760Y-93235042D01*
X133352839Y-93174534D01*
X133478280Y-93078280D01*
X133478281Y-93078277D01*
X133481091Y-93076122D01*
X133546261Y-93050928D01*
X133556578Y-93050498D01*
X133932743Y-93050498D01*
X133999782Y-93070183D01*
X134020424Y-93086817D01*
X137158597Y-96224990D01*
X137192082Y-96286313D01*
X137193855Y-96296485D01*
X137194318Y-96299998D01*
X137194318Y-96300000D01*
X137214956Y-96456762D01*
X137247246Y-96534718D01*
X137275465Y-96602843D01*
X137279528Y-96609881D01*
X137277551Y-96611022D01*
X137298489Y-96665193D01*
X137284445Y-96733637D01*
X137235627Y-96783623D01*
X137174918Y-96799500D01*
X134306580Y-96799500D01*
X134239541Y-96779815D01*
X134231093Y-96773876D01*
X134228283Y-96771720D01*
X134228282Y-96771718D01*
X134102841Y-96675464D01*
X134060324Y-96657853D01*
X133956762Y-96614956D01*
X133956760Y-96614955D01*
X133800001Y-96594318D01*
X133799999Y-96594318D01*
X133643239Y-96614955D01*
X133643237Y-96614956D01*
X133497160Y-96675463D01*
X133371715Y-96771720D01*
X133345751Y-96805558D01*
X133289323Y-96846761D01*
X133219577Y-96850915D01*
X133171891Y-96828448D01*
X133102841Y-96775464D01*
X133099007Y-96773876D01*
X132956762Y-96714956D01*
X132956760Y-96714955D01*
X132800001Y-96694318D01*
X132799999Y-96694318D01*
X132643239Y-96714955D01*
X132643237Y-96714956D01*
X132497160Y-96775463D01*
X132371718Y-96871718D01*
X132275463Y-96997160D01*
X132214956Y-97143237D01*
X132214955Y-97143239D01*
X132194318Y-97299998D01*
X132194318Y-97300001D01*
X132214955Y-97456760D01*
X132214956Y-97456762D01*
X132275464Y-97602841D01*
X132371718Y-97728282D01*
X132497159Y-97824536D01*
X132643238Y-97885044D01*
X132800000Y-97905682D01*
X132800001Y-97905681D01*
X132803512Y-97906144D01*
X132867409Y-97934410D01*
X132875008Y-97941401D01*
X132975184Y-98041576D01*
X132975189Y-98041582D01*
X132979520Y-98045913D01*
X133054087Y-98120480D01*
X133093505Y-98143238D01*
X133145412Y-98173207D01*
X133247273Y-98200500D01*
X133247275Y-98200500D01*
X139317725Y-98200500D01*
X139317727Y-98200500D01*
X139419588Y-98173207D01*
X139510913Y-98120480D01*
X142158107Y-95473285D01*
X146608214Y-95473285D01*
X146608214Y-95473288D01*
X146628851Y-95630047D01*
X146628852Y-95630049D01*
X146689084Y-95775463D01*
X146689360Y-95776128D01*
X146785614Y-95901569D01*
X146911055Y-95997823D01*
X147057134Y-96058331D01*
X147135515Y-96068650D01*
X147213895Y-96078969D01*
X147213896Y-96078969D01*
X147213897Y-96078969D01*
X147268973Y-96071718D01*
X147370658Y-96058331D01*
X147516737Y-95997823D01*
X147642178Y-95901569D01*
X147738432Y-95776128D01*
X147798940Y-95630049D01*
X147819578Y-95473287D01*
X147798940Y-95316525D01*
X147738432Y-95170446D01*
X147642178Y-95045005D01*
X147516737Y-94948751D01*
X147370658Y-94888243D01*
X147370656Y-94888242D01*
X147213897Y-94867605D01*
X147213895Y-94867605D01*
X147057135Y-94888242D01*
X147057133Y-94888243D01*
X146911056Y-94948750D01*
X146785614Y-95045005D01*
X146689359Y-95170447D01*
X146628852Y-95316524D01*
X146628851Y-95316526D01*
X146608214Y-95473285D01*
X142158107Y-95473285D01*
X146526806Y-91104584D01*
X146588127Y-91071101D01*
X146657819Y-91076085D01*
X146659278Y-91076640D01*
X146725273Y-91102206D01*
X146748802Y-91111321D01*
X146958390Y-91150500D01*
X146958392Y-91150500D01*
X147171608Y-91150500D01*
X147171610Y-91150500D01*
X147381198Y-91111321D01*
X147580019Y-91034298D01*
X147761302Y-90922052D01*
X147892463Y-90802481D01*
X147955265Y-90771866D01*
X148024652Y-90780063D01*
X148078593Y-90824473D01*
X148099961Y-90890995D01*
X148100000Y-90894120D01*
X148100000Y-98566333D01*
X148080315Y-98633372D01*
X148027511Y-98679127D01*
X147958353Y-98689071D01*
X147928551Y-98680896D01*
X147913546Y-98674681D01*
X147913544Y-98674680D01*
X147756785Y-98654043D01*
X147756783Y-98654043D01*
X147600023Y-98674680D01*
X147600021Y-98674681D01*
X147453944Y-98735188D01*
X147328502Y-98831443D01*
X147232247Y-98956885D01*
X147171740Y-99102962D01*
X147171739Y-99102964D01*
X147151102Y-99259723D01*
X147151102Y-99259726D01*
X147171739Y-99416485D01*
X147171740Y-99416487D01*
X147232248Y-99562567D01*
X147260055Y-99598805D01*
X147285250Y-99663974D01*
X147271212Y-99732419D01*
X147222398Y-99782409D01*
X147177866Y-99797231D01*
X147059168Y-99812858D01*
X147043238Y-99814956D01*
X147043237Y-99814956D01*
X146897160Y-99875463D01*
X146771718Y-99971718D01*
X146675463Y-100097160D01*
X146614956Y-100243237D01*
X146614955Y-100243239D01*
X146593257Y-100408057D01*
X146590961Y-100407754D01*
X146577705Y-100457229D01*
X146526793Y-100545411D01*
X146523753Y-100556759D01*
X146523752Y-100556762D01*
X146499500Y-100647273D01*
X146499500Y-104382745D01*
X146479815Y-104449784D01*
X146463181Y-104470426D01*
X138970426Y-111963181D01*
X138909103Y-111996666D01*
X138882745Y-111999500D01*
X136417255Y-111999500D01*
X136350216Y-111979815D01*
X136329574Y-111963181D01*
X135536819Y-111170426D01*
X135503334Y-111109103D01*
X135500500Y-111082745D01*
X135500500Y-110449781D01*
X135520185Y-110382742D01*
X135572989Y-110336987D01*
X135577048Y-110335220D01*
X135588610Y-110330430D01*
X135602841Y-110324536D01*
X135728282Y-110228282D01*
X135824536Y-110102841D01*
X135885044Y-109956762D01*
X135905682Y-109800000D01*
X135905675Y-109799949D01*
X135885044Y-109643239D01*
X135885044Y-109643238D01*
X135825712Y-109499998D01*
X136794318Y-109499998D01*
X136794318Y-109500001D01*
X136814955Y-109656760D01*
X136814956Y-109656762D01*
X136874287Y-109800001D01*
X136875464Y-109802841D01*
X136971718Y-109928282D01*
X137097159Y-110024536D01*
X137243238Y-110085044D01*
X137321619Y-110095363D01*
X137399999Y-110105682D01*
X137400000Y-110105682D01*
X137400001Y-110105682D01*
X137452254Y-110098802D01*
X137556762Y-110085044D01*
X137702841Y-110024536D01*
X137828282Y-109928282D01*
X137924536Y-109802841D01*
X137985044Y-109656762D01*
X138005682Y-109500000D01*
X137985044Y-109343238D01*
X137924536Y-109197159D01*
X137828282Y-109071718D01*
X137702841Y-108975464D01*
X137556762Y-108914956D01*
X137556760Y-108914955D01*
X137400001Y-108894318D01*
X137399999Y-108894318D01*
X137243239Y-108914955D01*
X137243237Y-108914956D01*
X137097160Y-108975463D01*
X136971718Y-109071718D01*
X136875463Y-109197160D01*
X136814956Y-109343237D01*
X136814955Y-109343239D01*
X136794318Y-109499998D01*
X135825712Y-109499998D01*
X135824536Y-109497159D01*
X135728282Y-109371718D01*
X135602841Y-109275464D01*
X135456762Y-109214956D01*
X135456760Y-109214955D01*
X135300001Y-109194318D01*
X135299999Y-109194318D01*
X135143239Y-109214955D01*
X135143237Y-109214956D01*
X134997160Y-109275463D01*
X134871718Y-109371718D01*
X134775463Y-109497160D01*
X134715886Y-109640993D01*
X134672045Y-109695396D01*
X134605751Y-109717461D01*
X134538051Y-109700182D01*
X134502950Y-109669028D01*
X134428282Y-109571718D01*
X134302841Y-109475464D01*
X134156762Y-109414956D01*
X134156760Y-109414955D01*
X134000001Y-109394318D01*
X133999999Y-109394318D01*
X133843239Y-109414955D01*
X133843237Y-109414956D01*
X133697160Y-109475463D01*
X133571718Y-109571718D01*
X133475463Y-109697160D01*
X133464561Y-109723481D01*
X133420720Y-109777884D01*
X133354425Y-109799949D01*
X133286726Y-109782670D01*
X133239116Y-109731532D01*
X133235439Y-109723481D01*
X133224536Y-109697160D01*
X133224536Y-109697159D01*
X133128282Y-109571718D01*
X133002841Y-109475464D01*
X132856762Y-109414956D01*
X132856760Y-109414955D01*
X132700001Y-109394318D01*
X132699999Y-109394318D01*
X132543239Y-109414955D01*
X132543237Y-109414956D01*
X132397160Y-109475463D01*
X132271718Y-109571718D01*
X132175463Y-109697160D01*
X132114956Y-109843237D01*
X132114955Y-109843239D01*
X132094318Y-109999998D01*
X132094318Y-110000001D01*
X132114955Y-110156760D01*
X132114956Y-110156762D01*
X132175464Y-110302841D01*
X132271718Y-110428282D01*
X132397159Y-110524536D01*
X132397160Y-110524536D01*
X132397161Y-110524537D01*
X132478477Y-110558219D01*
X132518706Y-110585099D01*
X135621926Y-113688319D01*
X135655411Y-113749642D01*
X135650427Y-113819334D01*
X135608555Y-113875267D01*
X135543091Y-113899684D01*
X135534245Y-113900000D01*
X124574652Y-113900000D01*
X124507613Y-113880315D01*
X124499166Y-113874376D01*
X124402842Y-113800464D01*
X124256762Y-113739956D01*
X124256760Y-113739955D01*
X124100001Y-113719318D01*
X124099999Y-113719318D01*
X123943239Y-113739955D01*
X123943237Y-113739956D01*
X123797157Y-113800464D01*
X123700834Y-113874376D01*
X123635665Y-113899570D01*
X123625348Y-113900000D01*
X123006500Y-113900000D01*
X122939461Y-113880315D01*
X122893706Y-113827511D01*
X122882500Y-113776000D01*
X122882500Y-111199998D01*
X126294318Y-111199998D01*
X126294318Y-111200001D01*
X126314955Y-111356760D01*
X126314956Y-111356762D01*
X126375464Y-111502841D01*
X126471718Y-111628282D01*
X126597159Y-111724536D01*
X126743238Y-111785044D01*
X126821619Y-111795363D01*
X126899999Y-111805682D01*
X126900000Y-111805682D01*
X126900001Y-111805682D01*
X126952254Y-111798802D01*
X127056762Y-111785044D01*
X127202841Y-111724536D01*
X127328282Y-111628282D01*
X127424536Y-111502841D01*
X127485044Y-111356762D01*
X127505682Y-111200000D01*
X127485044Y-111043238D01*
X127424536Y-110897159D01*
X127328282Y-110771718D01*
X127202841Y-110675464D01*
X127056762Y-110614956D01*
X127056760Y-110614955D01*
X126900001Y-110594318D01*
X126899999Y-110594318D01*
X126743239Y-110614955D01*
X126743237Y-110614956D01*
X126597160Y-110675463D01*
X126471718Y-110771718D01*
X126375463Y-110897160D01*
X126314956Y-111043237D01*
X126314955Y-111043239D01*
X126294318Y-111199998D01*
X122882500Y-111199998D01*
X122882500Y-105480601D01*
X132174921Y-105480601D01*
X132174921Y-105480604D01*
X132195558Y-105637363D01*
X132195559Y-105637365D01*
X132220326Y-105697159D01*
X132256067Y-105783444D01*
X132352321Y-105908885D01*
X132477762Y-106005139D01*
X132623841Y-106065647D01*
X132702222Y-106075966D01*
X132780602Y-106086285D01*
X132780603Y-106086285D01*
X132780604Y-106086285D01*
X132832857Y-106079405D01*
X132937365Y-106065647D01*
X133083444Y-106005139D01*
X133090144Y-105999998D01*
X135894318Y-105999998D01*
X135894318Y-106000001D01*
X135914955Y-106156760D01*
X135914956Y-106156762D01*
X135975464Y-106302841D01*
X136071718Y-106428282D01*
X136197159Y-106524536D01*
X136343238Y-106585044D01*
X136421619Y-106595363D01*
X136499999Y-106605682D01*
X136500000Y-106605682D01*
X136500001Y-106605682D01*
X136552254Y-106598802D01*
X136656762Y-106585044D01*
X136802841Y-106524536D01*
X136928282Y-106428282D01*
X137024536Y-106302841D01*
X137084489Y-106158100D01*
X137128330Y-106103697D01*
X137194624Y-106081632D01*
X137262323Y-106098911D01*
X137274536Y-106107177D01*
X137297157Y-106124535D01*
X137297158Y-106124535D01*
X137297159Y-106124536D01*
X137443238Y-106185044D01*
X137521619Y-106195363D01*
X137599999Y-106205682D01*
X137600000Y-106205682D01*
X137600001Y-106205682D01*
X137652254Y-106198802D01*
X137756762Y-106185044D01*
X137902841Y-106124536D01*
X138028282Y-106028282D01*
X138124536Y-105902841D01*
X138185044Y-105756762D01*
X138205682Y-105600000D01*
X138185044Y-105443238D01*
X138124536Y-105297159D01*
X138028282Y-105171718D01*
X137902841Y-105075464D01*
X137756762Y-105014956D01*
X137756760Y-105014955D01*
X137600001Y-104994318D01*
X137599999Y-104994318D01*
X137443239Y-105014955D01*
X137443237Y-105014956D01*
X137297160Y-105075463D01*
X137171718Y-105171718D01*
X137075463Y-105297160D01*
X137015510Y-105441899D01*
X136971669Y-105496302D01*
X136905374Y-105518367D01*
X136837675Y-105501087D01*
X136825463Y-105492822D01*
X136802842Y-105475464D01*
X136656762Y-105414956D01*
X136656760Y-105414955D01*
X136500001Y-105394318D01*
X136499999Y-105394318D01*
X136343239Y-105414955D01*
X136343237Y-105414956D01*
X136197160Y-105475463D01*
X136071718Y-105571718D01*
X135975463Y-105697160D01*
X135914956Y-105843237D01*
X135914955Y-105843239D01*
X135894318Y-105999998D01*
X133090144Y-105999998D01*
X133208885Y-105908885D01*
X133305139Y-105783444D01*
X133365647Y-105637365D01*
X133386285Y-105480603D01*
X133385608Y-105475464D01*
X133365647Y-105323842D01*
X133365647Y-105323841D01*
X133305139Y-105177762D01*
X133208885Y-105052321D01*
X133083444Y-104956067D01*
X132937365Y-104895559D01*
X132937363Y-104895558D01*
X132780604Y-104874921D01*
X132780602Y-104874921D01*
X132623842Y-104895558D01*
X132623840Y-104895559D01*
X132477763Y-104956066D01*
X132352321Y-105052321D01*
X132256066Y-105177763D01*
X132195559Y-105323840D01*
X132195558Y-105323842D01*
X132174921Y-105480601D01*
X122882500Y-105480601D01*
X122882500Y-102635998D01*
X128994318Y-102635998D01*
X128994318Y-102636001D01*
X129014955Y-102792760D01*
X129014956Y-102792762D01*
X129075464Y-102938841D01*
X129171718Y-103064282D01*
X129297159Y-103160536D01*
X129443238Y-103221044D01*
X129521619Y-103231363D01*
X129599999Y-103241682D01*
X129600000Y-103241682D01*
X129600001Y-103241682D01*
X129652254Y-103234802D01*
X129756762Y-103221044D01*
X129902841Y-103160536D01*
X129981736Y-103099998D01*
X131794318Y-103099998D01*
X131794318Y-103100001D01*
X131814955Y-103256760D01*
X131814956Y-103256762D01*
X131875464Y-103402841D01*
X131971718Y-103528282D01*
X132097159Y-103624536D01*
X132243238Y-103685044D01*
X132321619Y-103695363D01*
X132399999Y-103705682D01*
X132400000Y-103705682D01*
X132400001Y-103705682D01*
X132452254Y-103698802D01*
X132556762Y-103685044D01*
X132702841Y-103624536D01*
X132828282Y-103528282D01*
X132924536Y-103402841D01*
X132985044Y-103256762D01*
X133005682Y-103100000D01*
X132985044Y-102943238D01*
X132924536Y-102797159D01*
X132828282Y-102671718D01*
X132702841Y-102575464D01*
X132679732Y-102565892D01*
X132556762Y-102514956D01*
X132556760Y-102514955D01*
X132400001Y-102494318D01*
X132399999Y-102494318D01*
X132243239Y-102514955D01*
X132243237Y-102514956D01*
X132097160Y-102575463D01*
X131971718Y-102671718D01*
X131875463Y-102797160D01*
X131814956Y-102943237D01*
X131814955Y-102943239D01*
X131794318Y-103099998D01*
X129981736Y-103099998D01*
X130028282Y-103064282D01*
X130124536Y-102938841D01*
X130185044Y-102792762D01*
X130205682Y-102636000D01*
X130185044Y-102479238D01*
X130124536Y-102333159D01*
X130028282Y-102207718D01*
X129902841Y-102111464D01*
X129756762Y-102050956D01*
X129756760Y-102050955D01*
X129600001Y-102030318D01*
X129599999Y-102030318D01*
X129443239Y-102050955D01*
X129443237Y-102050956D01*
X129297160Y-102111463D01*
X129171718Y-102207718D01*
X129075463Y-102333160D01*
X129014956Y-102479237D01*
X129014955Y-102479239D01*
X128994318Y-102635998D01*
X122882500Y-102635998D01*
X122882500Y-101099998D01*
X136894318Y-101099998D01*
X136894318Y-101100001D01*
X136914955Y-101256760D01*
X136914956Y-101256762D01*
X136934105Y-101302993D01*
X136975464Y-101402841D01*
X137071718Y-101528282D01*
X137197159Y-101624536D01*
X137330607Y-101679812D01*
X137385010Y-101723651D01*
X137407075Y-101789945D01*
X137406093Y-101810557D01*
X137394318Y-101899998D01*
X137394318Y-101900001D01*
X137414955Y-102056760D01*
X137414956Y-102056762D01*
X137475464Y-102202841D01*
X137571718Y-102328282D01*
X137697159Y-102424536D01*
X137843238Y-102485044D01*
X137913681Y-102494318D01*
X137999999Y-102505682D01*
X138000000Y-102505682D01*
X138000001Y-102505682D01*
X138052254Y-102498802D01*
X138156762Y-102485044D01*
X138302841Y-102424536D01*
X138428282Y-102328282D01*
X138524536Y-102202841D01*
X138585044Y-102056762D01*
X138605682Y-101900000D01*
X138585044Y-101743238D01*
X138524536Y-101597159D01*
X138428282Y-101471718D01*
X138302841Y-101375464D01*
X138169390Y-101320187D01*
X138114989Y-101276347D01*
X138092924Y-101210053D01*
X138093905Y-101189452D01*
X138105682Y-101100000D01*
X138085044Y-100943238D01*
X138024536Y-100797159D01*
X137928282Y-100671718D01*
X137802841Y-100575464D01*
X137757690Y-100556762D01*
X137656762Y-100514956D01*
X137656760Y-100514955D01*
X137500001Y-100494318D01*
X137499999Y-100494318D01*
X137343239Y-100514955D01*
X137343237Y-100514956D01*
X137197160Y-100575463D01*
X137071718Y-100671718D01*
X136975463Y-100797160D01*
X136914956Y-100943237D01*
X136914955Y-100943239D01*
X136894318Y-101099998D01*
X122882500Y-101099998D01*
X122882500Y-96499998D01*
X125894318Y-96499998D01*
X125894318Y-96500001D01*
X125914955Y-96656760D01*
X125914956Y-96656762D01*
X125967503Y-96783623D01*
X125975464Y-96802841D01*
X126071718Y-96928282D01*
X126197159Y-97024536D01*
X126343238Y-97085044D01*
X126500000Y-97105682D01*
X126500001Y-97105681D01*
X126503513Y-97106144D01*
X126567410Y-97134410D01*
X126575009Y-97141402D01*
X127501008Y-98067401D01*
X127534493Y-98128724D01*
X127536266Y-98171267D01*
X127519318Y-98299998D01*
X127519318Y-98300001D01*
X127539955Y-98456760D01*
X127539956Y-98456762D01*
X127600464Y-98602841D01*
X127696718Y-98728282D01*
X127822159Y-98824536D01*
X127968238Y-98885044D01*
X128046619Y-98895363D01*
X128124999Y-98905682D01*
X128125000Y-98905682D01*
X128125001Y-98905682D01*
X128177254Y-98898802D01*
X128281762Y-98885044D01*
X128427841Y-98824536D01*
X128553282Y-98728282D01*
X128649536Y-98602841D01*
X128710044Y-98456762D01*
X128730682Y-98300000D01*
X128713989Y-98173207D01*
X128710044Y-98143238D01*
X128710043Y-98143236D01*
X128678631Y-98067401D01*
X128649536Y-97997159D01*
X128553282Y-97871718D01*
X128427841Y-97775464D01*
X128313934Y-97728282D01*
X128303843Y-97724102D01*
X128263615Y-97697222D01*
X127141402Y-96575009D01*
X127107917Y-96513686D01*
X127106144Y-96503513D01*
X127105681Y-96499998D01*
X127085044Y-96343238D01*
X127024536Y-96197159D01*
X126928282Y-96071718D01*
X126802841Y-95975464D01*
X126656762Y-95914956D01*
X126656760Y-95914955D01*
X126500001Y-95894318D01*
X126499999Y-95894318D01*
X126343239Y-95914955D01*
X126343237Y-95914956D01*
X126197160Y-95975463D01*
X126071718Y-96071718D01*
X125975463Y-96197160D01*
X125914956Y-96343237D01*
X125914955Y-96343239D01*
X125894318Y-96499998D01*
X122882500Y-96499998D01*
X122882500Y-94699998D01*
X130394318Y-94699998D01*
X130394318Y-94700001D01*
X130414955Y-94856760D01*
X130414956Y-94856762D01*
X130475464Y-95002841D01*
X130571718Y-95128282D01*
X130697159Y-95224536D01*
X130843238Y-95285044D01*
X130921619Y-95295363D01*
X130999999Y-95305682D01*
X131000000Y-95305682D01*
X131000001Y-95305682D01*
X131052254Y-95298802D01*
X131156762Y-95285044D01*
X131302841Y-95224536D01*
X131428282Y-95128282D01*
X131524536Y-95002841D01*
X131585044Y-94856762D01*
X131605682Y-94700000D01*
X131585044Y-94543238D01*
X131524536Y-94397159D01*
X131428282Y-94271718D01*
X131302841Y-94175464D01*
X131156762Y-94114956D01*
X131156760Y-94114955D01*
X131000001Y-94094318D01*
X130999999Y-94094318D01*
X130843239Y-94114955D01*
X130843237Y-94114956D01*
X130697160Y-94175463D01*
X130571718Y-94271718D01*
X130475463Y-94397160D01*
X130414956Y-94543237D01*
X130414955Y-94543239D01*
X130394318Y-94699998D01*
X122882500Y-94699998D01*
X122882500Y-91899998D01*
X127094318Y-91899998D01*
X127094318Y-91900001D01*
X127114955Y-92056760D01*
X127114956Y-92056762D01*
X127143412Y-92125462D01*
X127175464Y-92202841D01*
X127271718Y-92328282D01*
X127397159Y-92424536D01*
X127543238Y-92485044D01*
X127621619Y-92495363D01*
X127699999Y-92505682D01*
X127700000Y-92505682D01*
X127700001Y-92505682D01*
X127752254Y-92498802D01*
X127856762Y-92485044D01*
X128002841Y-92424536D01*
X128128282Y-92328282D01*
X128224536Y-92202841D01*
X128285044Y-92056762D01*
X128305682Y-91900000D01*
X128285044Y-91743238D01*
X128225712Y-91599998D01*
X138594318Y-91599998D01*
X138594318Y-91600001D01*
X138614955Y-91756760D01*
X138614956Y-91756762D01*
X138674287Y-91900001D01*
X138675464Y-91902841D01*
X138771718Y-92028282D01*
X138897159Y-92124536D01*
X139043238Y-92185044D01*
X139121619Y-92195363D01*
X139199999Y-92205682D01*
X139200000Y-92205682D01*
X139200001Y-92205682D01*
X139252254Y-92198802D01*
X139356762Y-92185044D01*
X139502841Y-92124536D01*
X139628282Y-92028282D01*
X139724536Y-91902841D01*
X139785044Y-91756762D01*
X139805682Y-91600000D01*
X139802141Y-91573107D01*
X139785044Y-91443239D01*
X139785044Y-91443238D01*
X139724536Y-91297159D01*
X139628282Y-91171718D01*
X139502841Y-91075464D01*
X139356762Y-91014956D01*
X139356760Y-91014955D01*
X139200001Y-90994318D01*
X139199999Y-90994318D01*
X139043239Y-91014955D01*
X139043237Y-91014956D01*
X138897160Y-91075463D01*
X138771718Y-91171718D01*
X138675463Y-91297160D01*
X138614956Y-91443237D01*
X138614955Y-91443239D01*
X138594318Y-91599998D01*
X128225712Y-91599998D01*
X128224536Y-91597159D01*
X128128282Y-91471718D01*
X128002841Y-91375464D01*
X127856762Y-91314956D01*
X127856760Y-91314955D01*
X127700001Y-91294318D01*
X127699999Y-91294318D01*
X127543239Y-91314955D01*
X127543237Y-91314956D01*
X127397160Y-91375463D01*
X127271718Y-91471718D01*
X127175463Y-91597160D01*
X127114956Y-91743237D01*
X127114955Y-91743239D01*
X127094318Y-91899998D01*
X122882500Y-91899998D01*
X122882500Y-88462500D01*
X122902185Y-88395461D01*
X122954989Y-88349706D01*
X123006500Y-88338500D01*
X147976000Y-88338500D01*
X148043039Y-88358185D01*
G37*
%TD.AperFunction*%
%TD*%
M02*
