%TF.GenerationSoftware,KiCad,Pcbnew,8.0.3-8.0.3-0~ubuntu22.04.1*%
%TF.CreationDate,2024-06-15T18:18:23-06:00*%
%TF.ProjectId,stm32g070 and DRV8311 single motor board - V1 Alpha,73746d33-3267-4303-9730-20616e642044,rev?*%
%TF.SameCoordinates,Original*%
%TF.FileFunction,Drillmap*%
%TF.FilePolarity,Positive*%
%FSLAX45Y45*%
G04 Gerber Fmt 4.5, Leading zero omitted, Abs format (unit mm)*
G04 Created by KiCad (PCBNEW 8.0.3-8.0.3-0~ubuntu22.04.1) date 2024-06-15 18:18:23*
%MOMM*%
%LPD*%
G01*
G04 APERTURE LIST*
%ADD10C,0.050000*%
%ADD11C,0.200000*%
%ADD12C,0.100000*%
G04 APERTURE END LIST*
D10*
X12268200Y-8813800D02*
X16152400Y-8813800D01*
X16152400Y-13021900D01*
X12268200Y-13021900D01*
X12268200Y-8813800D01*
D11*
D12*
X12365000Y-10875000D02*
X12395000Y-10905000D01*
X12395000Y-10875000D02*
X12365000Y-10905000D01*
X12385000Y-9915000D02*
X12415000Y-9945000D01*
X12415000Y-9915000D02*
X12385000Y-9945000D01*
X12385000Y-11855000D02*
X12415000Y-11885000D01*
X12415000Y-11855000D02*
X12385000Y-11885000D01*
X12395000Y-11417500D02*
X12425000Y-11447500D01*
X12425000Y-11417500D02*
X12395000Y-11447500D01*
X12420000Y-12615000D02*
X12450000Y-12645000D01*
X12450000Y-12615000D02*
X12420000Y-12645000D01*
X12420000Y-12700000D02*
X12450000Y-12730000D01*
X12450000Y-12700000D02*
X12420000Y-12730000D01*
X12635000Y-9635000D02*
X12665000Y-9665000D01*
X12665000Y-9635000D02*
X12635000Y-9665000D01*
X12645000Y-12695000D02*
X12675000Y-12725000D01*
X12675000Y-12695000D02*
X12645000Y-12725000D01*
X12675000Y-11105000D02*
X12705000Y-11135000D01*
X12705000Y-11105000D02*
X12675000Y-11135000D01*
X12705000Y-11665000D02*
X12735000Y-11695000D01*
X12735000Y-11665000D02*
X12705000Y-11695000D01*
X12755000Y-9175000D02*
X12785000Y-9205000D01*
X12785000Y-9175000D02*
X12755000Y-9205000D01*
X12767426Y-11742573D02*
X12797426Y-11772573D01*
X12797426Y-11742573D02*
X12767426Y-11772573D01*
X12776250Y-12455000D02*
X12806250Y-12485000D01*
X12806250Y-12455000D02*
X12776250Y-12485000D01*
X12797500Y-9815000D02*
X12827500Y-9845000D01*
X12827500Y-9815000D02*
X12797500Y-9845000D01*
X12945000Y-10248600D02*
X12975000Y-10278600D01*
X12975000Y-10248600D02*
X12945000Y-10278600D01*
X13025000Y-11695000D02*
X13055000Y-11725000D01*
X13055000Y-11695000D02*
X13025000Y-11725000D01*
X13025000Y-11795000D02*
X13055000Y-11825000D01*
X13055000Y-11795000D02*
X13025000Y-11825000D01*
X13025000Y-11885000D02*
X13055000Y-11915000D01*
X13055000Y-11885000D02*
X13025000Y-11915000D01*
X13085000Y-9455000D02*
X13115000Y-9485000D01*
X13115000Y-9455000D02*
X13085000Y-9485000D01*
X13125000Y-11695000D02*
X13155000Y-11725000D01*
X13155000Y-11695000D02*
X13125000Y-11725000D01*
X13125000Y-11795000D02*
X13155000Y-11825000D01*
X13155000Y-11795000D02*
X13125000Y-11825000D01*
X13125000Y-11885000D02*
X13155000Y-11915000D01*
X13155000Y-11885000D02*
X13125000Y-11915000D01*
X13145000Y-11205000D02*
X13175000Y-11235000D01*
X13175000Y-11205000D02*
X13145000Y-11235000D01*
X13165000Y-9165000D02*
X13195000Y-9195000D01*
X13195000Y-9165000D02*
X13165000Y-9195000D01*
X13225000Y-10295000D02*
X13255000Y-10325000D01*
X13255000Y-10295000D02*
X13225000Y-10325000D01*
X13225000Y-11695000D02*
X13255000Y-11725000D01*
X13255000Y-11695000D02*
X13225000Y-11725000D01*
X13225000Y-11795000D02*
X13255000Y-11825000D01*
X13255000Y-11795000D02*
X13225000Y-11825000D01*
X13225000Y-11885000D02*
X13255000Y-11915000D01*
X13255000Y-11885000D02*
X13225000Y-11915000D01*
X13255000Y-10985000D02*
X13285000Y-11015000D01*
X13285000Y-10985000D02*
X13255000Y-11015000D01*
X13263060Y-10533060D02*
X13293060Y-10563060D01*
X13293060Y-10533060D02*
X13263060Y-10563060D01*
X13265000Y-9715000D02*
X13295000Y-9745000D01*
X13295000Y-9715000D02*
X13265000Y-9745000D01*
X13275000Y-10435000D02*
X13305000Y-10465000D01*
X13305000Y-10435000D02*
X13275000Y-10465000D01*
X13290000Y-9250000D02*
X13320000Y-9280000D01*
X13320000Y-9250000D02*
X13290000Y-9280000D01*
X13365000Y-9705000D02*
X13395000Y-9735000D01*
X13395000Y-9705000D02*
X13365000Y-9735000D01*
X13385000Y-10985000D02*
X13415000Y-11015000D01*
X13415000Y-10985000D02*
X13385000Y-11015000D01*
X13485000Y-12545000D02*
X13515000Y-12575000D01*
X13515000Y-12545000D02*
X13485000Y-12575000D01*
X13515000Y-10965000D02*
X13545000Y-10995000D01*
X13545000Y-10965000D02*
X13515000Y-10995000D01*
X13517120Y-12427120D02*
X13547120Y-12457120D01*
X13547120Y-12427120D02*
X13517120Y-12457120D01*
X13635000Y-10585000D02*
X13665000Y-10615000D01*
X13665000Y-10585000D02*
X13635000Y-10615000D01*
X13665000Y-8955000D02*
X13695000Y-8985000D01*
X13695000Y-8955000D02*
X13665000Y-8985000D01*
X13725000Y-10935000D02*
X13755000Y-10965000D01*
X13755000Y-10935000D02*
X13725000Y-10965000D01*
X13735000Y-10095000D02*
X13765000Y-10125000D01*
X13765000Y-10095000D02*
X13735000Y-10125000D01*
X13745000Y-10545000D02*
X13775000Y-10575000D01*
X13775000Y-10545000D02*
X13745000Y-10575000D01*
X13765000Y-9615000D02*
X13795000Y-9645000D01*
X13795000Y-9615000D02*
X13765000Y-9645000D01*
X13785000Y-10175000D02*
X13815000Y-10205000D01*
X13815000Y-10175000D02*
X13785000Y-10205000D01*
X13905000Y-9145000D02*
X13935000Y-9175000D01*
X13935000Y-9145000D02*
X13905000Y-9175000D01*
X14065000Y-11505000D02*
X14095000Y-11535000D01*
X14095000Y-11505000D02*
X14065000Y-11535000D01*
X14065000Y-11605000D02*
X14095000Y-11635000D01*
X14095000Y-11605000D02*
X14065000Y-11635000D01*
X14065000Y-11705000D02*
X14095000Y-11735000D01*
X14095000Y-11705000D02*
X14065000Y-11735000D01*
X14085000Y-9845000D02*
X14115000Y-9875000D01*
X14115000Y-9845000D02*
X14085000Y-9875000D01*
X14155000Y-11505000D02*
X14185000Y-11535000D01*
X14185000Y-11505000D02*
X14155000Y-11535000D01*
X14155000Y-11605000D02*
X14185000Y-11635000D01*
X14185000Y-11605000D02*
X14155000Y-11635000D01*
X14155000Y-11705000D02*
X14185000Y-11735000D01*
X14185000Y-11705000D02*
X14155000Y-11735000D01*
X14195000Y-12885000D02*
X14225000Y-12915000D01*
X14225000Y-12885000D02*
X14195000Y-12915000D01*
X14245000Y-11505000D02*
X14275000Y-11535000D01*
X14275000Y-11505000D02*
X14245000Y-11535000D01*
X14245000Y-11605000D02*
X14275000Y-11635000D01*
X14275000Y-11605000D02*
X14245000Y-11635000D01*
X14245000Y-11705000D02*
X14275000Y-11735000D01*
X14275000Y-11705000D02*
X14245000Y-11735000D01*
X14285000Y-11215000D02*
X14315000Y-11245000D01*
X14315000Y-11215000D02*
X14285000Y-11245000D01*
X14335000Y-11505000D02*
X14365000Y-11535000D01*
X14365000Y-11505000D02*
X14335000Y-11535000D01*
X14335000Y-11605000D02*
X14365000Y-11635000D01*
X14365000Y-11605000D02*
X14335000Y-11635000D01*
X14335000Y-11705000D02*
X14365000Y-11735000D01*
X14365000Y-11705000D02*
X14335000Y-11735000D01*
X14585000Y-10325000D02*
X14615000Y-10355000D01*
X14615000Y-10325000D02*
X14585000Y-10355000D01*
X14605000Y-10965000D02*
X14635000Y-10995000D01*
X14635000Y-10965000D02*
X14605000Y-10995000D01*
X14645000Y-12885000D02*
X14675000Y-12915000D01*
X14675000Y-12885000D02*
X14645000Y-12915000D01*
X14705000Y-10025000D02*
X14735000Y-10055000D01*
X14735000Y-10025000D02*
X14705000Y-10055000D01*
X14706390Y-9532329D02*
X14736390Y-9562329D01*
X14736390Y-9532329D02*
X14706390Y-9562329D01*
X14745000Y-10105000D02*
X14775000Y-10135000D01*
X14775000Y-10105000D02*
X14745000Y-10135000D01*
X14760678Y-9910973D02*
X14790678Y-9940973D01*
X14790678Y-9910973D02*
X14760678Y-9940973D01*
X14785000Y-12865000D02*
X14815000Y-12895000D01*
X14815000Y-12865000D02*
X14785000Y-12895000D01*
X14805000Y-10175000D02*
X14835000Y-10205000D01*
X14835000Y-10175000D02*
X14805000Y-10205000D01*
X15085000Y-12605000D02*
X15115000Y-12635000D01*
X15115000Y-12605000D02*
X15085000Y-12635000D01*
X15095000Y-12385000D02*
X15125000Y-12415000D01*
X15125000Y-12385000D02*
X15095000Y-12415000D01*
X15135000Y-10475000D02*
X15165000Y-10505000D01*
X15165000Y-10475000D02*
X15135000Y-10505000D01*
X15135000Y-10575000D02*
X15165000Y-10605000D01*
X15165000Y-10575000D02*
X15135000Y-10605000D01*
X15135000Y-10665000D02*
X15165000Y-10695000D01*
X15165000Y-10665000D02*
X15135000Y-10695000D01*
X15235000Y-10475000D02*
X15265000Y-10505000D01*
X15265000Y-10475000D02*
X15235000Y-10505000D01*
X15235000Y-10575000D02*
X15265000Y-10605000D01*
X15265000Y-10575000D02*
X15235000Y-10605000D01*
X15235000Y-10665000D02*
X15265000Y-10695000D01*
X15265000Y-10665000D02*
X15235000Y-10695000D01*
X15265000Y-8965000D02*
X15295000Y-8995000D01*
X15295000Y-8965000D02*
X15265000Y-8995000D01*
X15265000Y-9065000D02*
X15295000Y-9095000D01*
X15295000Y-9065000D02*
X15265000Y-9095000D01*
X15265000Y-9155000D02*
X15295000Y-9185000D01*
X15295000Y-9155000D02*
X15265000Y-9185000D01*
X15335000Y-10475000D02*
X15365000Y-10505000D01*
X15365000Y-10475000D02*
X15335000Y-10505000D01*
X15335000Y-10575000D02*
X15365000Y-10605000D01*
X15365000Y-10575000D02*
X15335000Y-10605000D01*
X15335000Y-10665000D02*
X15365000Y-10695000D01*
X15365000Y-10665000D02*
X15335000Y-10695000D01*
X15365000Y-8965000D02*
X15395000Y-8995000D01*
X15395000Y-8965000D02*
X15365000Y-8995000D01*
X15365000Y-9065000D02*
X15395000Y-9095000D01*
X15395000Y-9065000D02*
X15365000Y-9095000D01*
X15365000Y-9155000D02*
X15395000Y-9185000D01*
X15395000Y-9155000D02*
X15365000Y-9185000D01*
X15465000Y-8965000D02*
X15495000Y-8995000D01*
X15495000Y-8965000D02*
X15465000Y-8995000D01*
X15465000Y-9065000D02*
X15495000Y-9095000D01*
X15495000Y-9065000D02*
X15465000Y-9095000D01*
X15465000Y-9155000D02*
X15495000Y-9185000D01*
X15495000Y-9155000D02*
X15465000Y-9185000D01*
X15775000Y-11535000D02*
X15805000Y-11565000D01*
X15805000Y-11535000D02*
X15775000Y-11565000D01*
X15775000Y-11635000D02*
X15805000Y-11665000D01*
X15805000Y-11635000D02*
X15775000Y-11665000D01*
X15775000Y-11725000D02*
X15805000Y-11755000D01*
X15805000Y-11725000D02*
X15775000Y-11755000D01*
X15845000Y-10325000D02*
X15875000Y-10355000D01*
X15875000Y-10325000D02*
X15845000Y-10355000D01*
X15845000Y-10425000D02*
X15875000Y-10455000D01*
X15875000Y-10425000D02*
X15845000Y-10455000D01*
X15845000Y-10515000D02*
X15875000Y-10545000D01*
X15875000Y-10515000D02*
X15845000Y-10545000D01*
X15845000Y-12855000D02*
X15875000Y-12885000D01*
X15875000Y-12855000D02*
X15845000Y-12885000D01*
X15875000Y-11535000D02*
X15905000Y-11565000D01*
X15905000Y-11535000D02*
X15875000Y-11565000D01*
X15875000Y-11635000D02*
X15905000Y-11665000D01*
X15905000Y-11635000D02*
X15875000Y-11665000D01*
X15875000Y-11725000D02*
X15905000Y-11755000D01*
X15905000Y-11725000D02*
X15875000Y-11755000D01*
X15925000Y-12915000D02*
X15955000Y-12945000D01*
X15955000Y-12915000D02*
X15925000Y-12945000D01*
X15945000Y-10325000D02*
X15975000Y-10355000D01*
X15975000Y-10325000D02*
X15945000Y-10355000D01*
X15945000Y-10425000D02*
X15975000Y-10455000D01*
X15975000Y-10425000D02*
X15945000Y-10455000D01*
X15945000Y-10515000D02*
X15975000Y-10545000D01*
X15975000Y-10515000D02*
X15945000Y-10545000D01*
X15975000Y-11535000D02*
X16005000Y-11565000D01*
X16005000Y-11535000D02*
X15975000Y-11565000D01*
X15975000Y-11635000D02*
X16005000Y-11665000D01*
X16005000Y-11635000D02*
X15975000Y-11665000D01*
X15975000Y-11725000D02*
X16005000Y-11755000D01*
X16005000Y-11725000D02*
X15975000Y-11755000D01*
X15975000Y-12035000D02*
X16005000Y-12065000D01*
X16005000Y-12035000D02*
X15975000Y-12065000D01*
X16035000Y-12845000D02*
X16065000Y-12875000D01*
X16065000Y-12845000D02*
X16035000Y-12875000D01*
X16045000Y-10325000D02*
X16075000Y-10355000D01*
X16075000Y-10325000D02*
X16045000Y-10355000D01*
X16045000Y-10425000D02*
X16075000Y-10455000D01*
X16075000Y-10425000D02*
X16045000Y-10455000D01*
X16045000Y-10515000D02*
X16075000Y-10545000D01*
X16075000Y-10515000D02*
X16045000Y-10545000D01*
X13241250Y-12473750D02*
G75*
G02*
X13211250Y-12473750I-15000J0D01*
G01*
X13211250Y-12473750D02*
G75*
G02*
X13241250Y-12473750I15000J0D01*
G01*
X13241250Y-12568750D02*
G75*
G02*
X13211250Y-12568750I-15000J0D01*
G01*
X13211250Y-12568750D02*
G75*
G02*
X13241250Y-12568750I15000J0D01*
G01*
X13241250Y-12663750D02*
G75*
G02*
X13211250Y-12663750I-15000J0D01*
G01*
X13211250Y-12663750D02*
G75*
G02*
X13241250Y-12663750I15000J0D01*
G01*
X14931250Y-9670000D02*
G75*
G02*
X14901250Y-9670000I-15000J0D01*
G01*
X14901250Y-9670000D02*
G75*
G02*
X14931250Y-9670000I15000J0D01*
G01*
X14931250Y-9810000D02*
G75*
G02*
X14901250Y-9810000I-15000J0D01*
G01*
X14901250Y-9810000D02*
G75*
G02*
X14931250Y-9810000I15000J0D01*
G01*
X15001250Y-9737460D02*
G75*
G02*
X14971250Y-9737460I-15000J0D01*
G01*
X14971250Y-9737460D02*
G75*
G02*
X15001250Y-9737460I15000J0D01*
G01*
X15071250Y-9670000D02*
G75*
G02*
X15041250Y-9670000I-15000J0D01*
G01*
X15041250Y-9670000D02*
G75*
G02*
X15071250Y-9670000I15000J0D01*
G01*
X15071250Y-9810000D02*
G75*
G02*
X15041250Y-9810000I-15000J0D01*
G01*
X15041250Y-9810000D02*
G75*
G02*
X15071250Y-9810000I15000J0D01*
G01*
X15640000Y-9415000D02*
X15640000Y-9465000D01*
X15615000Y-9440000D02*
X15665000Y-9440000D01*
X15640000Y-9540000D02*
X15640000Y-9590000D01*
X15615000Y-9565000D02*
X15665000Y-9565000D01*
X15640000Y-9665000D02*
X15640000Y-9715000D01*
X15615000Y-9690000D02*
X15665000Y-9690000D01*
X15101213Y-11111213D02*
X15101213Y-11068787D01*
X15058787Y-11068787D01*
X15058787Y-11111213D01*
X15101213Y-11111213D01*
X15301213Y-11111213D02*
X15301213Y-11068787D01*
X15258787Y-11068787D01*
X15258787Y-11111213D01*
X15301213Y-11111213D01*
X14452500Y-9050000D02*
X14502500Y-9000000D01*
X14452500Y-8950000D01*
X14402500Y-9000000D01*
X14452500Y-9050000D01*
X14706500Y-9050000D02*
X14756500Y-9000000D01*
X14706500Y-8950000D01*
X14656500Y-9000000D01*
X14706500Y-9050000D01*
D11*
X12526477Y-13335884D02*
X12526477Y-13135884D01*
X12526477Y-13135884D02*
X12574096Y-13135884D01*
X12574096Y-13135884D02*
X12602667Y-13145408D01*
X12602667Y-13145408D02*
X12621715Y-13164455D01*
X12621715Y-13164455D02*
X12631239Y-13183503D01*
X12631239Y-13183503D02*
X12640762Y-13221598D01*
X12640762Y-13221598D02*
X12640762Y-13250169D01*
X12640762Y-13250169D02*
X12631239Y-13288265D01*
X12631239Y-13288265D02*
X12621715Y-13307312D01*
X12621715Y-13307312D02*
X12602667Y-13326360D01*
X12602667Y-13326360D02*
X12574096Y-13335884D01*
X12574096Y-13335884D02*
X12526477Y-13335884D01*
X12726477Y-13335884D02*
X12726477Y-13202550D01*
X12726477Y-13240646D02*
X12736001Y-13221598D01*
X12736001Y-13221598D02*
X12745524Y-13212074D01*
X12745524Y-13212074D02*
X12764572Y-13202550D01*
X12764572Y-13202550D02*
X12783620Y-13202550D01*
X12850286Y-13335884D02*
X12850286Y-13202550D01*
X12850286Y-13135884D02*
X12840762Y-13145408D01*
X12840762Y-13145408D02*
X12850286Y-13154931D01*
X12850286Y-13154931D02*
X12859810Y-13145408D01*
X12859810Y-13145408D02*
X12850286Y-13135884D01*
X12850286Y-13135884D02*
X12850286Y-13154931D01*
X12974096Y-13335884D02*
X12955048Y-13326360D01*
X12955048Y-13326360D02*
X12945524Y-13307312D01*
X12945524Y-13307312D02*
X12945524Y-13135884D01*
X13078858Y-13335884D02*
X13059810Y-13326360D01*
X13059810Y-13326360D02*
X13050286Y-13307312D01*
X13050286Y-13307312D02*
X13050286Y-13135884D01*
X13307429Y-13335884D02*
X13307429Y-13135884D01*
X13307429Y-13135884D02*
X13374096Y-13278741D01*
X13374096Y-13278741D02*
X13440762Y-13135884D01*
X13440762Y-13135884D02*
X13440762Y-13335884D01*
X13621715Y-13335884D02*
X13621715Y-13231122D01*
X13621715Y-13231122D02*
X13612191Y-13212074D01*
X13612191Y-13212074D02*
X13593143Y-13202550D01*
X13593143Y-13202550D02*
X13555048Y-13202550D01*
X13555048Y-13202550D02*
X13536001Y-13212074D01*
X13621715Y-13326360D02*
X13602667Y-13335884D01*
X13602667Y-13335884D02*
X13555048Y-13335884D01*
X13555048Y-13335884D02*
X13536001Y-13326360D01*
X13536001Y-13326360D02*
X13526477Y-13307312D01*
X13526477Y-13307312D02*
X13526477Y-13288265D01*
X13526477Y-13288265D02*
X13536001Y-13269217D01*
X13536001Y-13269217D02*
X13555048Y-13259693D01*
X13555048Y-13259693D02*
X13602667Y-13259693D01*
X13602667Y-13259693D02*
X13621715Y-13250169D01*
X13716953Y-13202550D02*
X13716953Y-13402550D01*
X13716953Y-13212074D02*
X13736001Y-13202550D01*
X13736001Y-13202550D02*
X13774096Y-13202550D01*
X13774096Y-13202550D02*
X13793143Y-13212074D01*
X13793143Y-13212074D02*
X13802667Y-13221598D01*
X13802667Y-13221598D02*
X13812191Y-13240646D01*
X13812191Y-13240646D02*
X13812191Y-13297788D01*
X13812191Y-13297788D02*
X13802667Y-13316836D01*
X13802667Y-13316836D02*
X13793143Y-13326360D01*
X13793143Y-13326360D02*
X13774096Y-13335884D01*
X13774096Y-13335884D02*
X13736001Y-13335884D01*
X13736001Y-13335884D02*
X13716953Y-13326360D01*
X13897905Y-13316836D02*
X13907429Y-13326360D01*
X13907429Y-13326360D02*
X13897905Y-13335884D01*
X13897905Y-13335884D02*
X13888382Y-13326360D01*
X13888382Y-13326360D02*
X13897905Y-13316836D01*
X13897905Y-13316836D02*
X13897905Y-13335884D01*
X13897905Y-13212074D02*
X13907429Y-13221598D01*
X13907429Y-13221598D02*
X13897905Y-13231122D01*
X13897905Y-13231122D02*
X13888382Y-13221598D01*
X13888382Y-13221598D02*
X13897905Y-13212074D01*
X13897905Y-13212074D02*
X13897905Y-13231122D01*
D12*
X12235700Y-13649400D02*
X12265700Y-13679400D01*
X12265700Y-13649400D02*
X12235700Y-13679400D01*
D11*
X12564572Y-13555884D02*
X12583620Y-13555884D01*
X12583620Y-13555884D02*
X12602667Y-13565408D01*
X12602667Y-13565408D02*
X12612191Y-13574931D01*
X12612191Y-13574931D02*
X12621715Y-13593979D01*
X12621715Y-13593979D02*
X12631239Y-13632074D01*
X12631239Y-13632074D02*
X12631239Y-13679693D01*
X12631239Y-13679693D02*
X12621715Y-13717788D01*
X12621715Y-13717788D02*
X12612191Y-13736836D01*
X12612191Y-13736836D02*
X12602667Y-13746360D01*
X12602667Y-13746360D02*
X12583620Y-13755884D01*
X12583620Y-13755884D02*
X12564572Y-13755884D01*
X12564572Y-13755884D02*
X12545524Y-13746360D01*
X12545524Y-13746360D02*
X12536001Y-13736836D01*
X12536001Y-13736836D02*
X12526477Y-13717788D01*
X12526477Y-13717788D02*
X12516953Y-13679693D01*
X12516953Y-13679693D02*
X12516953Y-13632074D01*
X12516953Y-13632074D02*
X12526477Y-13593979D01*
X12526477Y-13593979D02*
X12536001Y-13574931D01*
X12536001Y-13574931D02*
X12545524Y-13565408D01*
X12545524Y-13565408D02*
X12564572Y-13555884D01*
X12716953Y-13736836D02*
X12726477Y-13746360D01*
X12726477Y-13746360D02*
X12716953Y-13755884D01*
X12716953Y-13755884D02*
X12707429Y-13746360D01*
X12707429Y-13746360D02*
X12716953Y-13736836D01*
X12716953Y-13736836D02*
X12716953Y-13755884D01*
X12793143Y-13555884D02*
X12916953Y-13555884D01*
X12916953Y-13555884D02*
X12850286Y-13632074D01*
X12850286Y-13632074D02*
X12878858Y-13632074D01*
X12878858Y-13632074D02*
X12897905Y-13641598D01*
X12897905Y-13641598D02*
X12907429Y-13651122D01*
X12907429Y-13651122D02*
X12916953Y-13670169D01*
X12916953Y-13670169D02*
X12916953Y-13717788D01*
X12916953Y-13717788D02*
X12907429Y-13736836D01*
X12907429Y-13736836D02*
X12897905Y-13746360D01*
X12897905Y-13746360D02*
X12878858Y-13755884D01*
X12878858Y-13755884D02*
X12821715Y-13755884D01*
X12821715Y-13755884D02*
X12802667Y-13746360D01*
X12802667Y-13746360D02*
X12793143Y-13736836D01*
X13040762Y-13555884D02*
X13059810Y-13555884D01*
X13059810Y-13555884D02*
X13078858Y-13565408D01*
X13078858Y-13565408D02*
X13088382Y-13574931D01*
X13088382Y-13574931D02*
X13097905Y-13593979D01*
X13097905Y-13593979D02*
X13107429Y-13632074D01*
X13107429Y-13632074D02*
X13107429Y-13679693D01*
X13107429Y-13679693D02*
X13097905Y-13717788D01*
X13097905Y-13717788D02*
X13088382Y-13736836D01*
X13088382Y-13736836D02*
X13078858Y-13746360D01*
X13078858Y-13746360D02*
X13059810Y-13755884D01*
X13059810Y-13755884D02*
X13040762Y-13755884D01*
X13040762Y-13755884D02*
X13021715Y-13746360D01*
X13021715Y-13746360D02*
X13012191Y-13736836D01*
X13012191Y-13736836D02*
X13002667Y-13717788D01*
X13002667Y-13717788D02*
X12993143Y-13679693D01*
X12993143Y-13679693D02*
X12993143Y-13632074D01*
X12993143Y-13632074D02*
X13002667Y-13593979D01*
X13002667Y-13593979D02*
X13012191Y-13574931D01*
X13012191Y-13574931D02*
X13021715Y-13565408D01*
X13021715Y-13565408D02*
X13040762Y-13555884D01*
X13231239Y-13555884D02*
X13250286Y-13555884D01*
X13250286Y-13555884D02*
X13269334Y-13565408D01*
X13269334Y-13565408D02*
X13278858Y-13574931D01*
X13278858Y-13574931D02*
X13288382Y-13593979D01*
X13288382Y-13593979D02*
X13297905Y-13632074D01*
X13297905Y-13632074D02*
X13297905Y-13679693D01*
X13297905Y-13679693D02*
X13288382Y-13717788D01*
X13288382Y-13717788D02*
X13278858Y-13736836D01*
X13278858Y-13736836D02*
X13269334Y-13746360D01*
X13269334Y-13746360D02*
X13250286Y-13755884D01*
X13250286Y-13755884D02*
X13231239Y-13755884D01*
X13231239Y-13755884D02*
X13212191Y-13746360D01*
X13212191Y-13746360D02*
X13202667Y-13736836D01*
X13202667Y-13736836D02*
X13193143Y-13717788D01*
X13193143Y-13717788D02*
X13183620Y-13679693D01*
X13183620Y-13679693D02*
X13183620Y-13632074D01*
X13183620Y-13632074D02*
X13193143Y-13593979D01*
X13193143Y-13593979D02*
X13202667Y-13574931D01*
X13202667Y-13574931D02*
X13212191Y-13565408D01*
X13212191Y-13565408D02*
X13231239Y-13555884D01*
X13383620Y-13755884D02*
X13383620Y-13622550D01*
X13383620Y-13641598D02*
X13393143Y-13632074D01*
X13393143Y-13632074D02*
X13412191Y-13622550D01*
X13412191Y-13622550D02*
X13440763Y-13622550D01*
X13440763Y-13622550D02*
X13459810Y-13632074D01*
X13459810Y-13632074D02*
X13469334Y-13651122D01*
X13469334Y-13651122D02*
X13469334Y-13755884D01*
X13469334Y-13651122D02*
X13478858Y-13632074D01*
X13478858Y-13632074D02*
X13497905Y-13622550D01*
X13497905Y-13622550D02*
X13526477Y-13622550D01*
X13526477Y-13622550D02*
X13545524Y-13632074D01*
X13545524Y-13632074D02*
X13555048Y-13651122D01*
X13555048Y-13651122D02*
X13555048Y-13755884D01*
X13650286Y-13755884D02*
X13650286Y-13622550D01*
X13650286Y-13641598D02*
X13659810Y-13632074D01*
X13659810Y-13632074D02*
X13678858Y-13622550D01*
X13678858Y-13622550D02*
X13707429Y-13622550D01*
X13707429Y-13622550D02*
X13726477Y-13632074D01*
X13726477Y-13632074D02*
X13736001Y-13651122D01*
X13736001Y-13651122D02*
X13736001Y-13755884D01*
X13736001Y-13651122D02*
X13745524Y-13632074D01*
X13745524Y-13632074D02*
X13764572Y-13622550D01*
X13764572Y-13622550D02*
X13793143Y-13622550D01*
X13793143Y-13622550D02*
X13812191Y-13632074D01*
X13812191Y-13632074D02*
X13821715Y-13651122D01*
X13821715Y-13651122D02*
X13821715Y-13755884D01*
X14212191Y-13546360D02*
X14040763Y-13803503D01*
X14469334Y-13555884D02*
X14488382Y-13555884D01*
X14488382Y-13555884D02*
X14507429Y-13565408D01*
X14507429Y-13565408D02*
X14516953Y-13574931D01*
X14516953Y-13574931D02*
X14526477Y-13593979D01*
X14526477Y-13593979D02*
X14536001Y-13632074D01*
X14536001Y-13632074D02*
X14536001Y-13679693D01*
X14536001Y-13679693D02*
X14526477Y-13717788D01*
X14526477Y-13717788D02*
X14516953Y-13736836D01*
X14516953Y-13736836D02*
X14507429Y-13746360D01*
X14507429Y-13746360D02*
X14488382Y-13755884D01*
X14488382Y-13755884D02*
X14469334Y-13755884D01*
X14469334Y-13755884D02*
X14450286Y-13746360D01*
X14450286Y-13746360D02*
X14440763Y-13736836D01*
X14440763Y-13736836D02*
X14431239Y-13717788D01*
X14431239Y-13717788D02*
X14421715Y-13679693D01*
X14421715Y-13679693D02*
X14421715Y-13632074D01*
X14421715Y-13632074D02*
X14431239Y-13593979D01*
X14431239Y-13593979D02*
X14440763Y-13574931D01*
X14440763Y-13574931D02*
X14450286Y-13565408D01*
X14450286Y-13565408D02*
X14469334Y-13555884D01*
X14621715Y-13736836D02*
X14631239Y-13746360D01*
X14631239Y-13746360D02*
X14621715Y-13755884D01*
X14621715Y-13755884D02*
X14612191Y-13746360D01*
X14612191Y-13746360D02*
X14621715Y-13736836D01*
X14621715Y-13736836D02*
X14621715Y-13755884D01*
X14755048Y-13555884D02*
X14774096Y-13555884D01*
X14774096Y-13555884D02*
X14793144Y-13565408D01*
X14793144Y-13565408D02*
X14802667Y-13574931D01*
X14802667Y-13574931D02*
X14812191Y-13593979D01*
X14812191Y-13593979D02*
X14821715Y-13632074D01*
X14821715Y-13632074D02*
X14821715Y-13679693D01*
X14821715Y-13679693D02*
X14812191Y-13717788D01*
X14812191Y-13717788D02*
X14802667Y-13736836D01*
X14802667Y-13736836D02*
X14793144Y-13746360D01*
X14793144Y-13746360D02*
X14774096Y-13755884D01*
X14774096Y-13755884D02*
X14755048Y-13755884D01*
X14755048Y-13755884D02*
X14736001Y-13746360D01*
X14736001Y-13746360D02*
X14726477Y-13736836D01*
X14726477Y-13736836D02*
X14716953Y-13717788D01*
X14716953Y-13717788D02*
X14707429Y-13679693D01*
X14707429Y-13679693D02*
X14707429Y-13632074D01*
X14707429Y-13632074D02*
X14716953Y-13593979D01*
X14716953Y-13593979D02*
X14726477Y-13574931D01*
X14726477Y-13574931D02*
X14736001Y-13565408D01*
X14736001Y-13565408D02*
X14755048Y-13555884D01*
X15012191Y-13755884D02*
X14897906Y-13755884D01*
X14955048Y-13755884D02*
X14955048Y-13555884D01*
X14955048Y-13555884D02*
X14936001Y-13584455D01*
X14936001Y-13584455D02*
X14916953Y-13603503D01*
X14916953Y-13603503D02*
X14897906Y-13613027D01*
X15202667Y-13755884D02*
X15088382Y-13755884D01*
X15145525Y-13755884D02*
X15145525Y-13555884D01*
X15145525Y-13555884D02*
X15126477Y-13584455D01*
X15126477Y-13584455D02*
X15107429Y-13603503D01*
X15107429Y-13603503D02*
X15088382Y-13613027D01*
X15316953Y-13641598D02*
X15297906Y-13632074D01*
X15297906Y-13632074D02*
X15288382Y-13622550D01*
X15288382Y-13622550D02*
X15278858Y-13603503D01*
X15278858Y-13603503D02*
X15278858Y-13593979D01*
X15278858Y-13593979D02*
X15288382Y-13574931D01*
X15288382Y-13574931D02*
X15297906Y-13565408D01*
X15297906Y-13565408D02*
X15316953Y-13555884D01*
X15316953Y-13555884D02*
X15355048Y-13555884D01*
X15355048Y-13555884D02*
X15374096Y-13565408D01*
X15374096Y-13565408D02*
X15383620Y-13574931D01*
X15383620Y-13574931D02*
X15393144Y-13593979D01*
X15393144Y-13593979D02*
X15393144Y-13603503D01*
X15393144Y-13603503D02*
X15383620Y-13622550D01*
X15383620Y-13622550D02*
X15374096Y-13632074D01*
X15374096Y-13632074D02*
X15355048Y-13641598D01*
X15355048Y-13641598D02*
X15316953Y-13641598D01*
X15316953Y-13641598D02*
X15297906Y-13651122D01*
X15297906Y-13651122D02*
X15288382Y-13660646D01*
X15288382Y-13660646D02*
X15278858Y-13679693D01*
X15278858Y-13679693D02*
X15278858Y-13717788D01*
X15278858Y-13717788D02*
X15288382Y-13736836D01*
X15288382Y-13736836D02*
X15297906Y-13746360D01*
X15297906Y-13746360D02*
X15316953Y-13755884D01*
X15316953Y-13755884D02*
X15355048Y-13755884D01*
X15355048Y-13755884D02*
X15374096Y-13746360D01*
X15374096Y-13746360D02*
X15383620Y-13736836D01*
X15383620Y-13736836D02*
X15393144Y-13717788D01*
X15393144Y-13717788D02*
X15393144Y-13679693D01*
X15393144Y-13679693D02*
X15383620Y-13660646D01*
X15383620Y-13660646D02*
X15374096Y-13651122D01*
X15374096Y-13651122D02*
X15355048Y-13641598D01*
X15469334Y-13555884D02*
X15469334Y-13593979D01*
X15545525Y-13555884D02*
X15545525Y-13593979D01*
X15840763Y-13832074D02*
X15831239Y-13822550D01*
X15831239Y-13822550D02*
X15812191Y-13793979D01*
X15812191Y-13793979D02*
X15802668Y-13774931D01*
X15802668Y-13774931D02*
X15793144Y-13746360D01*
X15793144Y-13746360D02*
X15783620Y-13698741D01*
X15783620Y-13698741D02*
X15783620Y-13660646D01*
X15783620Y-13660646D02*
X15793144Y-13613027D01*
X15793144Y-13613027D02*
X15802668Y-13584455D01*
X15802668Y-13584455D02*
X15812191Y-13565408D01*
X15812191Y-13565408D02*
X15831239Y-13536836D01*
X15831239Y-13536836D02*
X15840763Y-13527312D01*
X16021715Y-13755884D02*
X15907429Y-13755884D01*
X15964572Y-13755884D02*
X15964572Y-13555884D01*
X15964572Y-13555884D02*
X15945525Y-13584455D01*
X15945525Y-13584455D02*
X15926477Y-13603503D01*
X15926477Y-13603503D02*
X15907429Y-13613027D01*
X16212191Y-13755884D02*
X16097906Y-13755884D01*
X16155048Y-13755884D02*
X16155048Y-13555884D01*
X16155048Y-13555884D02*
X16136001Y-13584455D01*
X16136001Y-13584455D02*
X16116953Y-13603503D01*
X16116953Y-13603503D02*
X16097906Y-13613027D01*
X16288382Y-13574931D02*
X16297906Y-13565408D01*
X16297906Y-13565408D02*
X16316953Y-13555884D01*
X16316953Y-13555884D02*
X16364572Y-13555884D01*
X16364572Y-13555884D02*
X16383620Y-13565408D01*
X16383620Y-13565408D02*
X16393144Y-13574931D01*
X16393144Y-13574931D02*
X16402668Y-13593979D01*
X16402668Y-13593979D02*
X16402668Y-13613027D01*
X16402668Y-13613027D02*
X16393144Y-13641598D01*
X16393144Y-13641598D02*
X16278858Y-13755884D01*
X16278858Y-13755884D02*
X16402668Y-13755884D01*
X16640763Y-13755884D02*
X16640763Y-13555884D01*
X16726477Y-13755884D02*
X16726477Y-13651122D01*
X16726477Y-13651122D02*
X16716953Y-13632074D01*
X16716953Y-13632074D02*
X16697906Y-13622550D01*
X16697906Y-13622550D02*
X16669334Y-13622550D01*
X16669334Y-13622550D02*
X16650287Y-13632074D01*
X16650287Y-13632074D02*
X16640763Y-13641598D01*
X16850287Y-13755884D02*
X16831239Y-13746360D01*
X16831239Y-13746360D02*
X16821715Y-13736836D01*
X16821715Y-13736836D02*
X16812192Y-13717788D01*
X16812192Y-13717788D02*
X16812192Y-13660646D01*
X16812192Y-13660646D02*
X16821715Y-13641598D01*
X16821715Y-13641598D02*
X16831239Y-13632074D01*
X16831239Y-13632074D02*
X16850287Y-13622550D01*
X16850287Y-13622550D02*
X16878858Y-13622550D01*
X16878858Y-13622550D02*
X16897906Y-13632074D01*
X16897906Y-13632074D02*
X16907430Y-13641598D01*
X16907430Y-13641598D02*
X16916953Y-13660646D01*
X16916953Y-13660646D02*
X16916953Y-13717788D01*
X16916953Y-13717788D02*
X16907430Y-13736836D01*
X16907430Y-13736836D02*
X16897906Y-13746360D01*
X16897906Y-13746360D02*
X16878858Y-13755884D01*
X16878858Y-13755884D02*
X16850287Y-13755884D01*
X17031239Y-13755884D02*
X17012192Y-13746360D01*
X17012192Y-13746360D02*
X17002668Y-13727312D01*
X17002668Y-13727312D02*
X17002668Y-13555884D01*
X17183620Y-13746360D02*
X17164573Y-13755884D01*
X17164573Y-13755884D02*
X17126477Y-13755884D01*
X17126477Y-13755884D02*
X17107430Y-13746360D01*
X17107430Y-13746360D02*
X17097906Y-13727312D01*
X17097906Y-13727312D02*
X17097906Y-13651122D01*
X17097906Y-13651122D02*
X17107430Y-13632074D01*
X17107430Y-13632074D02*
X17126477Y-13622550D01*
X17126477Y-13622550D02*
X17164573Y-13622550D01*
X17164573Y-13622550D02*
X17183620Y-13632074D01*
X17183620Y-13632074D02*
X17193144Y-13651122D01*
X17193144Y-13651122D02*
X17193144Y-13670169D01*
X17193144Y-13670169D02*
X17097906Y-13689217D01*
X17269334Y-13746360D02*
X17288382Y-13755884D01*
X17288382Y-13755884D02*
X17326477Y-13755884D01*
X17326477Y-13755884D02*
X17345525Y-13746360D01*
X17345525Y-13746360D02*
X17355049Y-13727312D01*
X17355049Y-13727312D02*
X17355049Y-13717788D01*
X17355049Y-13717788D02*
X17345525Y-13698741D01*
X17345525Y-13698741D02*
X17326477Y-13689217D01*
X17326477Y-13689217D02*
X17297906Y-13689217D01*
X17297906Y-13689217D02*
X17278858Y-13679693D01*
X17278858Y-13679693D02*
X17269334Y-13660646D01*
X17269334Y-13660646D02*
X17269334Y-13651122D01*
X17269334Y-13651122D02*
X17278858Y-13632074D01*
X17278858Y-13632074D02*
X17297906Y-13622550D01*
X17297906Y-13622550D02*
X17326477Y-13622550D01*
X17326477Y-13622550D02*
X17345525Y-13632074D01*
X17421715Y-13832074D02*
X17431239Y-13822550D01*
X17431239Y-13822550D02*
X17450287Y-13793979D01*
X17450287Y-13793979D02*
X17459811Y-13774931D01*
X17459811Y-13774931D02*
X17469334Y-13746360D01*
X17469334Y-13746360D02*
X17478858Y-13698741D01*
X17478858Y-13698741D02*
X17478858Y-13660646D01*
X17478858Y-13660646D02*
X17469334Y-13613027D01*
X17469334Y-13613027D02*
X17459811Y-13584455D01*
X17459811Y-13584455D02*
X17450287Y-13565408D01*
X17450287Y-13565408D02*
X17431239Y-13536836D01*
X17431239Y-13536836D02*
X17421715Y-13527312D01*
D12*
X12265700Y-13928400D02*
G75*
G02*
X12235700Y-13928400I-15000J0D01*
G01*
X12235700Y-13928400D02*
G75*
G02*
X12265700Y-13928400I15000J0D01*
G01*
D11*
X12564572Y-13819884D02*
X12583620Y-13819884D01*
X12583620Y-13819884D02*
X12602667Y-13829408D01*
X12602667Y-13829408D02*
X12612191Y-13838931D01*
X12612191Y-13838931D02*
X12621715Y-13857979D01*
X12621715Y-13857979D02*
X12631239Y-13896074D01*
X12631239Y-13896074D02*
X12631239Y-13943693D01*
X12631239Y-13943693D02*
X12621715Y-13981788D01*
X12621715Y-13981788D02*
X12612191Y-14000836D01*
X12612191Y-14000836D02*
X12602667Y-14010360D01*
X12602667Y-14010360D02*
X12583620Y-14019884D01*
X12583620Y-14019884D02*
X12564572Y-14019884D01*
X12564572Y-14019884D02*
X12545524Y-14010360D01*
X12545524Y-14010360D02*
X12536001Y-14000836D01*
X12536001Y-14000836D02*
X12526477Y-13981788D01*
X12526477Y-13981788D02*
X12516953Y-13943693D01*
X12516953Y-13943693D02*
X12516953Y-13896074D01*
X12516953Y-13896074D02*
X12526477Y-13857979D01*
X12526477Y-13857979D02*
X12536001Y-13838931D01*
X12536001Y-13838931D02*
X12545524Y-13829408D01*
X12545524Y-13829408D02*
X12564572Y-13819884D01*
X12716953Y-14000836D02*
X12726477Y-14010360D01*
X12726477Y-14010360D02*
X12716953Y-14019884D01*
X12716953Y-14019884D02*
X12707429Y-14010360D01*
X12707429Y-14010360D02*
X12716953Y-14000836D01*
X12716953Y-14000836D02*
X12716953Y-14019884D01*
X12793143Y-13819884D02*
X12916953Y-13819884D01*
X12916953Y-13819884D02*
X12850286Y-13896074D01*
X12850286Y-13896074D02*
X12878858Y-13896074D01*
X12878858Y-13896074D02*
X12897905Y-13905598D01*
X12897905Y-13905598D02*
X12907429Y-13915122D01*
X12907429Y-13915122D02*
X12916953Y-13934169D01*
X12916953Y-13934169D02*
X12916953Y-13981788D01*
X12916953Y-13981788D02*
X12907429Y-14000836D01*
X12907429Y-14000836D02*
X12897905Y-14010360D01*
X12897905Y-14010360D02*
X12878858Y-14019884D01*
X12878858Y-14019884D02*
X12821715Y-14019884D01*
X12821715Y-14019884D02*
X12802667Y-14010360D01*
X12802667Y-14010360D02*
X12793143Y-14000836D01*
X13040762Y-13819884D02*
X13059810Y-13819884D01*
X13059810Y-13819884D02*
X13078858Y-13829408D01*
X13078858Y-13829408D02*
X13088382Y-13838931D01*
X13088382Y-13838931D02*
X13097905Y-13857979D01*
X13097905Y-13857979D02*
X13107429Y-13896074D01*
X13107429Y-13896074D02*
X13107429Y-13943693D01*
X13107429Y-13943693D02*
X13097905Y-13981788D01*
X13097905Y-13981788D02*
X13088382Y-14000836D01*
X13088382Y-14000836D02*
X13078858Y-14010360D01*
X13078858Y-14010360D02*
X13059810Y-14019884D01*
X13059810Y-14019884D02*
X13040762Y-14019884D01*
X13040762Y-14019884D02*
X13021715Y-14010360D01*
X13021715Y-14010360D02*
X13012191Y-14000836D01*
X13012191Y-14000836D02*
X13002667Y-13981788D01*
X13002667Y-13981788D02*
X12993143Y-13943693D01*
X12993143Y-13943693D02*
X12993143Y-13896074D01*
X12993143Y-13896074D02*
X13002667Y-13857979D01*
X13002667Y-13857979D02*
X13012191Y-13838931D01*
X13012191Y-13838931D02*
X13021715Y-13829408D01*
X13021715Y-13829408D02*
X13040762Y-13819884D01*
X13231239Y-13819884D02*
X13250286Y-13819884D01*
X13250286Y-13819884D02*
X13269334Y-13829408D01*
X13269334Y-13829408D02*
X13278858Y-13838931D01*
X13278858Y-13838931D02*
X13288382Y-13857979D01*
X13288382Y-13857979D02*
X13297905Y-13896074D01*
X13297905Y-13896074D02*
X13297905Y-13943693D01*
X13297905Y-13943693D02*
X13288382Y-13981788D01*
X13288382Y-13981788D02*
X13278858Y-14000836D01*
X13278858Y-14000836D02*
X13269334Y-14010360D01*
X13269334Y-14010360D02*
X13250286Y-14019884D01*
X13250286Y-14019884D02*
X13231239Y-14019884D01*
X13231239Y-14019884D02*
X13212191Y-14010360D01*
X13212191Y-14010360D02*
X13202667Y-14000836D01*
X13202667Y-14000836D02*
X13193143Y-13981788D01*
X13193143Y-13981788D02*
X13183620Y-13943693D01*
X13183620Y-13943693D02*
X13183620Y-13896074D01*
X13183620Y-13896074D02*
X13193143Y-13857979D01*
X13193143Y-13857979D02*
X13202667Y-13838931D01*
X13202667Y-13838931D02*
X13212191Y-13829408D01*
X13212191Y-13829408D02*
X13231239Y-13819884D01*
X13383620Y-14019884D02*
X13383620Y-13886550D01*
X13383620Y-13905598D02*
X13393143Y-13896074D01*
X13393143Y-13896074D02*
X13412191Y-13886550D01*
X13412191Y-13886550D02*
X13440763Y-13886550D01*
X13440763Y-13886550D02*
X13459810Y-13896074D01*
X13459810Y-13896074D02*
X13469334Y-13915122D01*
X13469334Y-13915122D02*
X13469334Y-14019884D01*
X13469334Y-13915122D02*
X13478858Y-13896074D01*
X13478858Y-13896074D02*
X13497905Y-13886550D01*
X13497905Y-13886550D02*
X13526477Y-13886550D01*
X13526477Y-13886550D02*
X13545524Y-13896074D01*
X13545524Y-13896074D02*
X13555048Y-13915122D01*
X13555048Y-13915122D02*
X13555048Y-14019884D01*
X13650286Y-14019884D02*
X13650286Y-13886550D01*
X13650286Y-13905598D02*
X13659810Y-13896074D01*
X13659810Y-13896074D02*
X13678858Y-13886550D01*
X13678858Y-13886550D02*
X13707429Y-13886550D01*
X13707429Y-13886550D02*
X13726477Y-13896074D01*
X13726477Y-13896074D02*
X13736001Y-13915122D01*
X13736001Y-13915122D02*
X13736001Y-14019884D01*
X13736001Y-13915122D02*
X13745524Y-13896074D01*
X13745524Y-13896074D02*
X13764572Y-13886550D01*
X13764572Y-13886550D02*
X13793143Y-13886550D01*
X13793143Y-13886550D02*
X13812191Y-13896074D01*
X13812191Y-13896074D02*
X13821715Y-13915122D01*
X13821715Y-13915122D02*
X13821715Y-14019884D01*
X14212191Y-13810360D02*
X14040763Y-14067503D01*
X14469334Y-13819884D02*
X14488382Y-13819884D01*
X14488382Y-13819884D02*
X14507429Y-13829408D01*
X14507429Y-13829408D02*
X14516953Y-13838931D01*
X14516953Y-13838931D02*
X14526477Y-13857979D01*
X14526477Y-13857979D02*
X14536001Y-13896074D01*
X14536001Y-13896074D02*
X14536001Y-13943693D01*
X14536001Y-13943693D02*
X14526477Y-13981788D01*
X14526477Y-13981788D02*
X14516953Y-14000836D01*
X14516953Y-14000836D02*
X14507429Y-14010360D01*
X14507429Y-14010360D02*
X14488382Y-14019884D01*
X14488382Y-14019884D02*
X14469334Y-14019884D01*
X14469334Y-14019884D02*
X14450286Y-14010360D01*
X14450286Y-14010360D02*
X14440763Y-14000836D01*
X14440763Y-14000836D02*
X14431239Y-13981788D01*
X14431239Y-13981788D02*
X14421715Y-13943693D01*
X14421715Y-13943693D02*
X14421715Y-13896074D01*
X14421715Y-13896074D02*
X14431239Y-13857979D01*
X14431239Y-13857979D02*
X14440763Y-13838931D01*
X14440763Y-13838931D02*
X14450286Y-13829408D01*
X14450286Y-13829408D02*
X14469334Y-13819884D01*
X14621715Y-14000836D02*
X14631239Y-14010360D01*
X14631239Y-14010360D02*
X14621715Y-14019884D01*
X14621715Y-14019884D02*
X14612191Y-14010360D01*
X14612191Y-14010360D02*
X14621715Y-14000836D01*
X14621715Y-14000836D02*
X14621715Y-14019884D01*
X14755048Y-13819884D02*
X14774096Y-13819884D01*
X14774096Y-13819884D02*
X14793144Y-13829408D01*
X14793144Y-13829408D02*
X14802667Y-13838931D01*
X14802667Y-13838931D02*
X14812191Y-13857979D01*
X14812191Y-13857979D02*
X14821715Y-13896074D01*
X14821715Y-13896074D02*
X14821715Y-13943693D01*
X14821715Y-13943693D02*
X14812191Y-13981788D01*
X14812191Y-13981788D02*
X14802667Y-14000836D01*
X14802667Y-14000836D02*
X14793144Y-14010360D01*
X14793144Y-14010360D02*
X14774096Y-14019884D01*
X14774096Y-14019884D02*
X14755048Y-14019884D01*
X14755048Y-14019884D02*
X14736001Y-14010360D01*
X14736001Y-14010360D02*
X14726477Y-14000836D01*
X14726477Y-14000836D02*
X14716953Y-13981788D01*
X14716953Y-13981788D02*
X14707429Y-13943693D01*
X14707429Y-13943693D02*
X14707429Y-13896074D01*
X14707429Y-13896074D02*
X14716953Y-13857979D01*
X14716953Y-13857979D02*
X14726477Y-13838931D01*
X14726477Y-13838931D02*
X14736001Y-13829408D01*
X14736001Y-13829408D02*
X14755048Y-13819884D01*
X15012191Y-14019884D02*
X14897906Y-14019884D01*
X14955048Y-14019884D02*
X14955048Y-13819884D01*
X14955048Y-13819884D02*
X14936001Y-13848455D01*
X14936001Y-13848455D02*
X14916953Y-13867503D01*
X14916953Y-13867503D02*
X14897906Y-13877027D01*
X15202667Y-14019884D02*
X15088382Y-14019884D01*
X15145525Y-14019884D02*
X15145525Y-13819884D01*
X15145525Y-13819884D02*
X15126477Y-13848455D01*
X15126477Y-13848455D02*
X15107429Y-13867503D01*
X15107429Y-13867503D02*
X15088382Y-13877027D01*
X15316953Y-13905598D02*
X15297906Y-13896074D01*
X15297906Y-13896074D02*
X15288382Y-13886550D01*
X15288382Y-13886550D02*
X15278858Y-13867503D01*
X15278858Y-13867503D02*
X15278858Y-13857979D01*
X15278858Y-13857979D02*
X15288382Y-13838931D01*
X15288382Y-13838931D02*
X15297906Y-13829408D01*
X15297906Y-13829408D02*
X15316953Y-13819884D01*
X15316953Y-13819884D02*
X15355048Y-13819884D01*
X15355048Y-13819884D02*
X15374096Y-13829408D01*
X15374096Y-13829408D02*
X15383620Y-13838931D01*
X15383620Y-13838931D02*
X15393144Y-13857979D01*
X15393144Y-13857979D02*
X15393144Y-13867503D01*
X15393144Y-13867503D02*
X15383620Y-13886550D01*
X15383620Y-13886550D02*
X15374096Y-13896074D01*
X15374096Y-13896074D02*
X15355048Y-13905598D01*
X15355048Y-13905598D02*
X15316953Y-13905598D01*
X15316953Y-13905598D02*
X15297906Y-13915122D01*
X15297906Y-13915122D02*
X15288382Y-13924646D01*
X15288382Y-13924646D02*
X15278858Y-13943693D01*
X15278858Y-13943693D02*
X15278858Y-13981788D01*
X15278858Y-13981788D02*
X15288382Y-14000836D01*
X15288382Y-14000836D02*
X15297906Y-14010360D01*
X15297906Y-14010360D02*
X15316953Y-14019884D01*
X15316953Y-14019884D02*
X15355048Y-14019884D01*
X15355048Y-14019884D02*
X15374096Y-14010360D01*
X15374096Y-14010360D02*
X15383620Y-14000836D01*
X15383620Y-14000836D02*
X15393144Y-13981788D01*
X15393144Y-13981788D02*
X15393144Y-13943693D01*
X15393144Y-13943693D02*
X15383620Y-13924646D01*
X15383620Y-13924646D02*
X15374096Y-13915122D01*
X15374096Y-13915122D02*
X15355048Y-13905598D01*
X15469334Y-13819884D02*
X15469334Y-13857979D01*
X15545525Y-13819884D02*
X15545525Y-13857979D01*
X15840763Y-14096074D02*
X15831239Y-14086550D01*
X15831239Y-14086550D02*
X15812191Y-14057979D01*
X15812191Y-14057979D02*
X15802668Y-14038931D01*
X15802668Y-14038931D02*
X15793144Y-14010360D01*
X15793144Y-14010360D02*
X15783620Y-13962741D01*
X15783620Y-13962741D02*
X15783620Y-13924646D01*
X15783620Y-13924646D02*
X15793144Y-13877027D01*
X15793144Y-13877027D02*
X15802668Y-13848455D01*
X15802668Y-13848455D02*
X15812191Y-13829408D01*
X15812191Y-13829408D02*
X15831239Y-13800836D01*
X15831239Y-13800836D02*
X15840763Y-13791312D01*
X15945525Y-13905598D02*
X15926477Y-13896074D01*
X15926477Y-13896074D02*
X15916953Y-13886550D01*
X15916953Y-13886550D02*
X15907429Y-13867503D01*
X15907429Y-13867503D02*
X15907429Y-13857979D01*
X15907429Y-13857979D02*
X15916953Y-13838931D01*
X15916953Y-13838931D02*
X15926477Y-13829408D01*
X15926477Y-13829408D02*
X15945525Y-13819884D01*
X15945525Y-13819884D02*
X15983620Y-13819884D01*
X15983620Y-13819884D02*
X16002668Y-13829408D01*
X16002668Y-13829408D02*
X16012191Y-13838931D01*
X16012191Y-13838931D02*
X16021715Y-13857979D01*
X16021715Y-13857979D02*
X16021715Y-13867503D01*
X16021715Y-13867503D02*
X16012191Y-13886550D01*
X16012191Y-13886550D02*
X16002668Y-13896074D01*
X16002668Y-13896074D02*
X15983620Y-13905598D01*
X15983620Y-13905598D02*
X15945525Y-13905598D01*
X15945525Y-13905598D02*
X15926477Y-13915122D01*
X15926477Y-13915122D02*
X15916953Y-13924646D01*
X15916953Y-13924646D02*
X15907429Y-13943693D01*
X15907429Y-13943693D02*
X15907429Y-13981788D01*
X15907429Y-13981788D02*
X15916953Y-14000836D01*
X15916953Y-14000836D02*
X15926477Y-14010360D01*
X15926477Y-14010360D02*
X15945525Y-14019884D01*
X15945525Y-14019884D02*
X15983620Y-14019884D01*
X15983620Y-14019884D02*
X16002668Y-14010360D01*
X16002668Y-14010360D02*
X16012191Y-14000836D01*
X16012191Y-14000836D02*
X16021715Y-13981788D01*
X16021715Y-13981788D02*
X16021715Y-13943693D01*
X16021715Y-13943693D02*
X16012191Y-13924646D01*
X16012191Y-13924646D02*
X16002668Y-13915122D01*
X16002668Y-13915122D02*
X15983620Y-13905598D01*
X16259810Y-14019884D02*
X16259810Y-13819884D01*
X16345525Y-14019884D02*
X16345525Y-13915122D01*
X16345525Y-13915122D02*
X16336001Y-13896074D01*
X16336001Y-13896074D02*
X16316953Y-13886550D01*
X16316953Y-13886550D02*
X16288382Y-13886550D01*
X16288382Y-13886550D02*
X16269334Y-13896074D01*
X16269334Y-13896074D02*
X16259810Y-13905598D01*
X16469334Y-14019884D02*
X16450287Y-14010360D01*
X16450287Y-14010360D02*
X16440763Y-14000836D01*
X16440763Y-14000836D02*
X16431239Y-13981788D01*
X16431239Y-13981788D02*
X16431239Y-13924646D01*
X16431239Y-13924646D02*
X16440763Y-13905598D01*
X16440763Y-13905598D02*
X16450287Y-13896074D01*
X16450287Y-13896074D02*
X16469334Y-13886550D01*
X16469334Y-13886550D02*
X16497906Y-13886550D01*
X16497906Y-13886550D02*
X16516953Y-13896074D01*
X16516953Y-13896074D02*
X16526477Y-13905598D01*
X16526477Y-13905598D02*
X16536001Y-13924646D01*
X16536001Y-13924646D02*
X16536001Y-13981788D01*
X16536001Y-13981788D02*
X16526477Y-14000836D01*
X16526477Y-14000836D02*
X16516953Y-14010360D01*
X16516953Y-14010360D02*
X16497906Y-14019884D01*
X16497906Y-14019884D02*
X16469334Y-14019884D01*
X16650287Y-14019884D02*
X16631239Y-14010360D01*
X16631239Y-14010360D02*
X16621715Y-13991312D01*
X16621715Y-13991312D02*
X16621715Y-13819884D01*
X16802668Y-14010360D02*
X16783620Y-14019884D01*
X16783620Y-14019884D02*
X16745525Y-14019884D01*
X16745525Y-14019884D02*
X16726477Y-14010360D01*
X16726477Y-14010360D02*
X16716953Y-13991312D01*
X16716953Y-13991312D02*
X16716953Y-13915122D01*
X16716953Y-13915122D02*
X16726477Y-13896074D01*
X16726477Y-13896074D02*
X16745525Y-13886550D01*
X16745525Y-13886550D02*
X16783620Y-13886550D01*
X16783620Y-13886550D02*
X16802668Y-13896074D01*
X16802668Y-13896074D02*
X16812192Y-13915122D01*
X16812192Y-13915122D02*
X16812192Y-13934169D01*
X16812192Y-13934169D02*
X16716953Y-13953217D01*
X16888382Y-14010360D02*
X16907430Y-14019884D01*
X16907430Y-14019884D02*
X16945525Y-14019884D01*
X16945525Y-14019884D02*
X16964573Y-14010360D01*
X16964573Y-14010360D02*
X16974096Y-13991312D01*
X16974096Y-13991312D02*
X16974096Y-13981788D01*
X16974096Y-13981788D02*
X16964573Y-13962741D01*
X16964573Y-13962741D02*
X16945525Y-13953217D01*
X16945525Y-13953217D02*
X16916953Y-13953217D01*
X16916953Y-13953217D02*
X16897906Y-13943693D01*
X16897906Y-13943693D02*
X16888382Y-13924646D01*
X16888382Y-13924646D02*
X16888382Y-13915122D01*
X16888382Y-13915122D02*
X16897906Y-13896074D01*
X16897906Y-13896074D02*
X16916953Y-13886550D01*
X16916953Y-13886550D02*
X16945525Y-13886550D01*
X16945525Y-13886550D02*
X16964573Y-13896074D01*
X17040763Y-14096074D02*
X17050287Y-14086550D01*
X17050287Y-14086550D02*
X17069334Y-14057979D01*
X17069334Y-14057979D02*
X17078858Y-14038931D01*
X17078858Y-14038931D02*
X17088382Y-14010360D01*
X17088382Y-14010360D02*
X17097906Y-13962741D01*
X17097906Y-13962741D02*
X17097906Y-13924646D01*
X17097906Y-13924646D02*
X17088382Y-13877027D01*
X17088382Y-13877027D02*
X17078858Y-13848455D01*
X17078858Y-13848455D02*
X17069334Y-13829408D01*
X17069334Y-13829408D02*
X17050287Y-13800836D01*
X17050287Y-13800836D02*
X17040763Y-13791312D01*
D12*
X12240700Y-14167400D02*
X12240700Y-14217400D01*
X12215700Y-14192400D02*
X12265700Y-14192400D01*
D11*
X12564572Y-14083884D02*
X12583620Y-14083884D01*
X12583620Y-14083884D02*
X12602667Y-14093408D01*
X12602667Y-14093408D02*
X12612191Y-14102931D01*
X12612191Y-14102931D02*
X12621715Y-14121979D01*
X12621715Y-14121979D02*
X12631239Y-14160074D01*
X12631239Y-14160074D02*
X12631239Y-14207693D01*
X12631239Y-14207693D02*
X12621715Y-14245788D01*
X12621715Y-14245788D02*
X12612191Y-14264836D01*
X12612191Y-14264836D02*
X12602667Y-14274360D01*
X12602667Y-14274360D02*
X12583620Y-14283884D01*
X12583620Y-14283884D02*
X12564572Y-14283884D01*
X12564572Y-14283884D02*
X12545524Y-14274360D01*
X12545524Y-14274360D02*
X12536001Y-14264836D01*
X12536001Y-14264836D02*
X12526477Y-14245788D01*
X12526477Y-14245788D02*
X12516953Y-14207693D01*
X12516953Y-14207693D02*
X12516953Y-14160074D01*
X12516953Y-14160074D02*
X12526477Y-14121979D01*
X12526477Y-14121979D02*
X12536001Y-14102931D01*
X12536001Y-14102931D02*
X12545524Y-14093408D01*
X12545524Y-14093408D02*
X12564572Y-14083884D01*
X12716953Y-14264836D02*
X12726477Y-14274360D01*
X12726477Y-14274360D02*
X12716953Y-14283884D01*
X12716953Y-14283884D02*
X12707429Y-14274360D01*
X12707429Y-14274360D02*
X12716953Y-14264836D01*
X12716953Y-14264836D02*
X12716953Y-14283884D01*
X12907429Y-14083884D02*
X12812191Y-14083884D01*
X12812191Y-14083884D02*
X12802667Y-14179122D01*
X12802667Y-14179122D02*
X12812191Y-14169598D01*
X12812191Y-14169598D02*
X12831239Y-14160074D01*
X12831239Y-14160074D02*
X12878858Y-14160074D01*
X12878858Y-14160074D02*
X12897905Y-14169598D01*
X12897905Y-14169598D02*
X12907429Y-14179122D01*
X12907429Y-14179122D02*
X12916953Y-14198169D01*
X12916953Y-14198169D02*
X12916953Y-14245788D01*
X12916953Y-14245788D02*
X12907429Y-14264836D01*
X12907429Y-14264836D02*
X12897905Y-14274360D01*
X12897905Y-14274360D02*
X12878858Y-14283884D01*
X12878858Y-14283884D02*
X12831239Y-14283884D01*
X12831239Y-14283884D02*
X12812191Y-14274360D01*
X12812191Y-14274360D02*
X12802667Y-14264836D01*
X13040762Y-14083884D02*
X13059810Y-14083884D01*
X13059810Y-14083884D02*
X13078858Y-14093408D01*
X13078858Y-14093408D02*
X13088382Y-14102931D01*
X13088382Y-14102931D02*
X13097905Y-14121979D01*
X13097905Y-14121979D02*
X13107429Y-14160074D01*
X13107429Y-14160074D02*
X13107429Y-14207693D01*
X13107429Y-14207693D02*
X13097905Y-14245788D01*
X13097905Y-14245788D02*
X13088382Y-14264836D01*
X13088382Y-14264836D02*
X13078858Y-14274360D01*
X13078858Y-14274360D02*
X13059810Y-14283884D01*
X13059810Y-14283884D02*
X13040762Y-14283884D01*
X13040762Y-14283884D02*
X13021715Y-14274360D01*
X13021715Y-14274360D02*
X13012191Y-14264836D01*
X13012191Y-14264836D02*
X13002667Y-14245788D01*
X13002667Y-14245788D02*
X12993143Y-14207693D01*
X12993143Y-14207693D02*
X12993143Y-14160074D01*
X12993143Y-14160074D02*
X13002667Y-14121979D01*
X13002667Y-14121979D02*
X13012191Y-14102931D01*
X13012191Y-14102931D02*
X13021715Y-14093408D01*
X13021715Y-14093408D02*
X13040762Y-14083884D01*
X13231239Y-14083884D02*
X13250286Y-14083884D01*
X13250286Y-14083884D02*
X13269334Y-14093408D01*
X13269334Y-14093408D02*
X13278858Y-14102931D01*
X13278858Y-14102931D02*
X13288382Y-14121979D01*
X13288382Y-14121979D02*
X13297905Y-14160074D01*
X13297905Y-14160074D02*
X13297905Y-14207693D01*
X13297905Y-14207693D02*
X13288382Y-14245788D01*
X13288382Y-14245788D02*
X13278858Y-14264836D01*
X13278858Y-14264836D02*
X13269334Y-14274360D01*
X13269334Y-14274360D02*
X13250286Y-14283884D01*
X13250286Y-14283884D02*
X13231239Y-14283884D01*
X13231239Y-14283884D02*
X13212191Y-14274360D01*
X13212191Y-14274360D02*
X13202667Y-14264836D01*
X13202667Y-14264836D02*
X13193143Y-14245788D01*
X13193143Y-14245788D02*
X13183620Y-14207693D01*
X13183620Y-14207693D02*
X13183620Y-14160074D01*
X13183620Y-14160074D02*
X13193143Y-14121979D01*
X13193143Y-14121979D02*
X13202667Y-14102931D01*
X13202667Y-14102931D02*
X13212191Y-14093408D01*
X13212191Y-14093408D02*
X13231239Y-14083884D01*
X13383620Y-14283884D02*
X13383620Y-14150550D01*
X13383620Y-14169598D02*
X13393143Y-14160074D01*
X13393143Y-14160074D02*
X13412191Y-14150550D01*
X13412191Y-14150550D02*
X13440763Y-14150550D01*
X13440763Y-14150550D02*
X13459810Y-14160074D01*
X13459810Y-14160074D02*
X13469334Y-14179122D01*
X13469334Y-14179122D02*
X13469334Y-14283884D01*
X13469334Y-14179122D02*
X13478858Y-14160074D01*
X13478858Y-14160074D02*
X13497905Y-14150550D01*
X13497905Y-14150550D02*
X13526477Y-14150550D01*
X13526477Y-14150550D02*
X13545524Y-14160074D01*
X13545524Y-14160074D02*
X13555048Y-14179122D01*
X13555048Y-14179122D02*
X13555048Y-14283884D01*
X13650286Y-14283884D02*
X13650286Y-14150550D01*
X13650286Y-14169598D02*
X13659810Y-14160074D01*
X13659810Y-14160074D02*
X13678858Y-14150550D01*
X13678858Y-14150550D02*
X13707429Y-14150550D01*
X13707429Y-14150550D02*
X13726477Y-14160074D01*
X13726477Y-14160074D02*
X13736001Y-14179122D01*
X13736001Y-14179122D02*
X13736001Y-14283884D01*
X13736001Y-14179122D02*
X13745524Y-14160074D01*
X13745524Y-14160074D02*
X13764572Y-14150550D01*
X13764572Y-14150550D02*
X13793143Y-14150550D01*
X13793143Y-14150550D02*
X13812191Y-14160074D01*
X13812191Y-14160074D02*
X13821715Y-14179122D01*
X13821715Y-14179122D02*
X13821715Y-14283884D01*
X14212191Y-14074360D02*
X14040763Y-14331503D01*
X14469334Y-14083884D02*
X14488382Y-14083884D01*
X14488382Y-14083884D02*
X14507429Y-14093408D01*
X14507429Y-14093408D02*
X14516953Y-14102931D01*
X14516953Y-14102931D02*
X14526477Y-14121979D01*
X14526477Y-14121979D02*
X14536001Y-14160074D01*
X14536001Y-14160074D02*
X14536001Y-14207693D01*
X14536001Y-14207693D02*
X14526477Y-14245788D01*
X14526477Y-14245788D02*
X14516953Y-14264836D01*
X14516953Y-14264836D02*
X14507429Y-14274360D01*
X14507429Y-14274360D02*
X14488382Y-14283884D01*
X14488382Y-14283884D02*
X14469334Y-14283884D01*
X14469334Y-14283884D02*
X14450286Y-14274360D01*
X14450286Y-14274360D02*
X14440763Y-14264836D01*
X14440763Y-14264836D02*
X14431239Y-14245788D01*
X14431239Y-14245788D02*
X14421715Y-14207693D01*
X14421715Y-14207693D02*
X14421715Y-14160074D01*
X14421715Y-14160074D02*
X14431239Y-14121979D01*
X14431239Y-14121979D02*
X14440763Y-14102931D01*
X14440763Y-14102931D02*
X14450286Y-14093408D01*
X14450286Y-14093408D02*
X14469334Y-14083884D01*
X14621715Y-14264836D02*
X14631239Y-14274360D01*
X14631239Y-14274360D02*
X14621715Y-14283884D01*
X14621715Y-14283884D02*
X14612191Y-14274360D01*
X14612191Y-14274360D02*
X14621715Y-14264836D01*
X14621715Y-14264836D02*
X14621715Y-14283884D01*
X14755048Y-14083884D02*
X14774096Y-14083884D01*
X14774096Y-14083884D02*
X14793144Y-14093408D01*
X14793144Y-14093408D02*
X14802667Y-14102931D01*
X14802667Y-14102931D02*
X14812191Y-14121979D01*
X14812191Y-14121979D02*
X14821715Y-14160074D01*
X14821715Y-14160074D02*
X14821715Y-14207693D01*
X14821715Y-14207693D02*
X14812191Y-14245788D01*
X14812191Y-14245788D02*
X14802667Y-14264836D01*
X14802667Y-14264836D02*
X14793144Y-14274360D01*
X14793144Y-14274360D02*
X14774096Y-14283884D01*
X14774096Y-14283884D02*
X14755048Y-14283884D01*
X14755048Y-14283884D02*
X14736001Y-14274360D01*
X14736001Y-14274360D02*
X14726477Y-14264836D01*
X14726477Y-14264836D02*
X14716953Y-14245788D01*
X14716953Y-14245788D02*
X14707429Y-14207693D01*
X14707429Y-14207693D02*
X14707429Y-14160074D01*
X14707429Y-14160074D02*
X14716953Y-14121979D01*
X14716953Y-14121979D02*
X14726477Y-14102931D01*
X14726477Y-14102931D02*
X14736001Y-14093408D01*
X14736001Y-14093408D02*
X14755048Y-14083884D01*
X15012191Y-14283884D02*
X14897906Y-14283884D01*
X14955048Y-14283884D02*
X14955048Y-14083884D01*
X14955048Y-14083884D02*
X14936001Y-14112455D01*
X14936001Y-14112455D02*
X14916953Y-14131503D01*
X14916953Y-14131503D02*
X14897906Y-14141027D01*
X15107429Y-14283884D02*
X15145525Y-14283884D01*
X15145525Y-14283884D02*
X15164572Y-14274360D01*
X15164572Y-14274360D02*
X15174096Y-14264836D01*
X15174096Y-14264836D02*
X15193144Y-14236265D01*
X15193144Y-14236265D02*
X15202667Y-14198169D01*
X15202667Y-14198169D02*
X15202667Y-14121979D01*
X15202667Y-14121979D02*
X15193144Y-14102931D01*
X15193144Y-14102931D02*
X15183620Y-14093408D01*
X15183620Y-14093408D02*
X15164572Y-14083884D01*
X15164572Y-14083884D02*
X15126477Y-14083884D01*
X15126477Y-14083884D02*
X15107429Y-14093408D01*
X15107429Y-14093408D02*
X15097906Y-14102931D01*
X15097906Y-14102931D02*
X15088382Y-14121979D01*
X15088382Y-14121979D02*
X15088382Y-14169598D01*
X15088382Y-14169598D02*
X15097906Y-14188646D01*
X15097906Y-14188646D02*
X15107429Y-14198169D01*
X15107429Y-14198169D02*
X15126477Y-14207693D01*
X15126477Y-14207693D02*
X15164572Y-14207693D01*
X15164572Y-14207693D02*
X15183620Y-14198169D01*
X15183620Y-14198169D02*
X15193144Y-14188646D01*
X15193144Y-14188646D02*
X15202667Y-14169598D01*
X15269334Y-14083884D02*
X15402667Y-14083884D01*
X15402667Y-14083884D02*
X15316953Y-14283884D01*
X15469334Y-14083884D02*
X15469334Y-14121979D01*
X15545525Y-14083884D02*
X15545525Y-14121979D01*
X15840763Y-14360074D02*
X15831239Y-14350550D01*
X15831239Y-14350550D02*
X15812191Y-14321979D01*
X15812191Y-14321979D02*
X15802668Y-14302931D01*
X15802668Y-14302931D02*
X15793144Y-14274360D01*
X15793144Y-14274360D02*
X15783620Y-14226741D01*
X15783620Y-14226741D02*
X15783620Y-14188646D01*
X15783620Y-14188646D02*
X15793144Y-14141027D01*
X15793144Y-14141027D02*
X15802668Y-14112455D01*
X15802668Y-14112455D02*
X15812191Y-14093408D01*
X15812191Y-14093408D02*
X15831239Y-14064836D01*
X15831239Y-14064836D02*
X15840763Y-14055312D01*
X15897906Y-14083884D02*
X16021715Y-14083884D01*
X16021715Y-14083884D02*
X15955048Y-14160074D01*
X15955048Y-14160074D02*
X15983620Y-14160074D01*
X15983620Y-14160074D02*
X16002668Y-14169598D01*
X16002668Y-14169598D02*
X16012191Y-14179122D01*
X16012191Y-14179122D02*
X16021715Y-14198169D01*
X16021715Y-14198169D02*
X16021715Y-14245788D01*
X16021715Y-14245788D02*
X16012191Y-14264836D01*
X16012191Y-14264836D02*
X16002668Y-14274360D01*
X16002668Y-14274360D02*
X15983620Y-14283884D01*
X15983620Y-14283884D02*
X15926477Y-14283884D01*
X15926477Y-14283884D02*
X15907429Y-14274360D01*
X15907429Y-14274360D02*
X15897906Y-14264836D01*
X16259810Y-14283884D02*
X16259810Y-14083884D01*
X16345525Y-14283884D02*
X16345525Y-14179122D01*
X16345525Y-14179122D02*
X16336001Y-14160074D01*
X16336001Y-14160074D02*
X16316953Y-14150550D01*
X16316953Y-14150550D02*
X16288382Y-14150550D01*
X16288382Y-14150550D02*
X16269334Y-14160074D01*
X16269334Y-14160074D02*
X16259810Y-14169598D01*
X16469334Y-14283884D02*
X16450287Y-14274360D01*
X16450287Y-14274360D02*
X16440763Y-14264836D01*
X16440763Y-14264836D02*
X16431239Y-14245788D01*
X16431239Y-14245788D02*
X16431239Y-14188646D01*
X16431239Y-14188646D02*
X16440763Y-14169598D01*
X16440763Y-14169598D02*
X16450287Y-14160074D01*
X16450287Y-14160074D02*
X16469334Y-14150550D01*
X16469334Y-14150550D02*
X16497906Y-14150550D01*
X16497906Y-14150550D02*
X16516953Y-14160074D01*
X16516953Y-14160074D02*
X16526477Y-14169598D01*
X16526477Y-14169598D02*
X16536001Y-14188646D01*
X16536001Y-14188646D02*
X16536001Y-14245788D01*
X16536001Y-14245788D02*
X16526477Y-14264836D01*
X16526477Y-14264836D02*
X16516953Y-14274360D01*
X16516953Y-14274360D02*
X16497906Y-14283884D01*
X16497906Y-14283884D02*
X16469334Y-14283884D01*
X16650287Y-14283884D02*
X16631239Y-14274360D01*
X16631239Y-14274360D02*
X16621715Y-14255312D01*
X16621715Y-14255312D02*
X16621715Y-14083884D01*
X16802668Y-14274360D02*
X16783620Y-14283884D01*
X16783620Y-14283884D02*
X16745525Y-14283884D01*
X16745525Y-14283884D02*
X16726477Y-14274360D01*
X16726477Y-14274360D02*
X16716953Y-14255312D01*
X16716953Y-14255312D02*
X16716953Y-14179122D01*
X16716953Y-14179122D02*
X16726477Y-14160074D01*
X16726477Y-14160074D02*
X16745525Y-14150550D01*
X16745525Y-14150550D02*
X16783620Y-14150550D01*
X16783620Y-14150550D02*
X16802668Y-14160074D01*
X16802668Y-14160074D02*
X16812192Y-14179122D01*
X16812192Y-14179122D02*
X16812192Y-14198169D01*
X16812192Y-14198169D02*
X16716953Y-14217217D01*
X16888382Y-14274360D02*
X16907430Y-14283884D01*
X16907430Y-14283884D02*
X16945525Y-14283884D01*
X16945525Y-14283884D02*
X16964573Y-14274360D01*
X16964573Y-14274360D02*
X16974096Y-14255312D01*
X16974096Y-14255312D02*
X16974096Y-14245788D01*
X16974096Y-14245788D02*
X16964573Y-14226741D01*
X16964573Y-14226741D02*
X16945525Y-14217217D01*
X16945525Y-14217217D02*
X16916953Y-14217217D01*
X16916953Y-14217217D02*
X16897906Y-14207693D01*
X16897906Y-14207693D02*
X16888382Y-14188646D01*
X16888382Y-14188646D02*
X16888382Y-14179122D01*
X16888382Y-14179122D02*
X16897906Y-14160074D01*
X16897906Y-14160074D02*
X16916953Y-14150550D01*
X16916953Y-14150550D02*
X16945525Y-14150550D01*
X16945525Y-14150550D02*
X16964573Y-14160074D01*
X17040763Y-14360074D02*
X17050287Y-14350550D01*
X17050287Y-14350550D02*
X17069334Y-14321979D01*
X17069334Y-14321979D02*
X17078858Y-14302931D01*
X17078858Y-14302931D02*
X17088382Y-14274360D01*
X17088382Y-14274360D02*
X17097906Y-14226741D01*
X17097906Y-14226741D02*
X17097906Y-14188646D01*
X17097906Y-14188646D02*
X17088382Y-14141027D01*
X17088382Y-14141027D02*
X17078858Y-14112455D01*
X17078858Y-14112455D02*
X17069334Y-14093408D01*
X17069334Y-14093408D02*
X17050287Y-14064836D01*
X17050287Y-14064836D02*
X17040763Y-14055312D01*
D12*
X12256913Y-14477613D02*
X12256913Y-14435187D01*
X12214487Y-14435187D01*
X12214487Y-14477613D01*
X12256913Y-14477613D01*
D11*
X12564572Y-14347884D02*
X12583620Y-14347884D01*
X12583620Y-14347884D02*
X12602667Y-14357408D01*
X12602667Y-14357408D02*
X12612191Y-14366931D01*
X12612191Y-14366931D02*
X12621715Y-14385979D01*
X12621715Y-14385979D02*
X12631239Y-14424074D01*
X12631239Y-14424074D02*
X12631239Y-14471693D01*
X12631239Y-14471693D02*
X12621715Y-14509788D01*
X12621715Y-14509788D02*
X12612191Y-14528836D01*
X12612191Y-14528836D02*
X12602667Y-14538360D01*
X12602667Y-14538360D02*
X12583620Y-14547884D01*
X12583620Y-14547884D02*
X12564572Y-14547884D01*
X12564572Y-14547884D02*
X12545524Y-14538360D01*
X12545524Y-14538360D02*
X12536001Y-14528836D01*
X12536001Y-14528836D02*
X12526477Y-14509788D01*
X12526477Y-14509788D02*
X12516953Y-14471693D01*
X12516953Y-14471693D02*
X12516953Y-14424074D01*
X12516953Y-14424074D02*
X12526477Y-14385979D01*
X12526477Y-14385979D02*
X12536001Y-14366931D01*
X12536001Y-14366931D02*
X12545524Y-14357408D01*
X12545524Y-14357408D02*
X12564572Y-14347884D01*
X12716953Y-14528836D02*
X12726477Y-14538360D01*
X12726477Y-14538360D02*
X12716953Y-14547884D01*
X12716953Y-14547884D02*
X12707429Y-14538360D01*
X12707429Y-14538360D02*
X12716953Y-14528836D01*
X12716953Y-14528836D02*
X12716953Y-14547884D01*
X12897905Y-14347884D02*
X12859810Y-14347884D01*
X12859810Y-14347884D02*
X12840762Y-14357408D01*
X12840762Y-14357408D02*
X12831239Y-14366931D01*
X12831239Y-14366931D02*
X12812191Y-14395503D01*
X12812191Y-14395503D02*
X12802667Y-14433598D01*
X12802667Y-14433598D02*
X12802667Y-14509788D01*
X12802667Y-14509788D02*
X12812191Y-14528836D01*
X12812191Y-14528836D02*
X12821715Y-14538360D01*
X12821715Y-14538360D02*
X12840762Y-14547884D01*
X12840762Y-14547884D02*
X12878858Y-14547884D01*
X12878858Y-14547884D02*
X12897905Y-14538360D01*
X12897905Y-14538360D02*
X12907429Y-14528836D01*
X12907429Y-14528836D02*
X12916953Y-14509788D01*
X12916953Y-14509788D02*
X12916953Y-14462169D01*
X12916953Y-14462169D02*
X12907429Y-14443122D01*
X12907429Y-14443122D02*
X12897905Y-14433598D01*
X12897905Y-14433598D02*
X12878858Y-14424074D01*
X12878858Y-14424074D02*
X12840762Y-14424074D01*
X12840762Y-14424074D02*
X12821715Y-14433598D01*
X12821715Y-14433598D02*
X12812191Y-14443122D01*
X12812191Y-14443122D02*
X12802667Y-14462169D01*
X13040762Y-14347884D02*
X13059810Y-14347884D01*
X13059810Y-14347884D02*
X13078858Y-14357408D01*
X13078858Y-14357408D02*
X13088382Y-14366931D01*
X13088382Y-14366931D02*
X13097905Y-14385979D01*
X13097905Y-14385979D02*
X13107429Y-14424074D01*
X13107429Y-14424074D02*
X13107429Y-14471693D01*
X13107429Y-14471693D02*
X13097905Y-14509788D01*
X13097905Y-14509788D02*
X13088382Y-14528836D01*
X13088382Y-14528836D02*
X13078858Y-14538360D01*
X13078858Y-14538360D02*
X13059810Y-14547884D01*
X13059810Y-14547884D02*
X13040762Y-14547884D01*
X13040762Y-14547884D02*
X13021715Y-14538360D01*
X13021715Y-14538360D02*
X13012191Y-14528836D01*
X13012191Y-14528836D02*
X13002667Y-14509788D01*
X13002667Y-14509788D02*
X12993143Y-14471693D01*
X12993143Y-14471693D02*
X12993143Y-14424074D01*
X12993143Y-14424074D02*
X13002667Y-14385979D01*
X13002667Y-14385979D02*
X13012191Y-14366931D01*
X13012191Y-14366931D02*
X13021715Y-14357408D01*
X13021715Y-14357408D02*
X13040762Y-14347884D01*
X13231239Y-14347884D02*
X13250286Y-14347884D01*
X13250286Y-14347884D02*
X13269334Y-14357408D01*
X13269334Y-14357408D02*
X13278858Y-14366931D01*
X13278858Y-14366931D02*
X13288382Y-14385979D01*
X13288382Y-14385979D02*
X13297905Y-14424074D01*
X13297905Y-14424074D02*
X13297905Y-14471693D01*
X13297905Y-14471693D02*
X13288382Y-14509788D01*
X13288382Y-14509788D02*
X13278858Y-14528836D01*
X13278858Y-14528836D02*
X13269334Y-14538360D01*
X13269334Y-14538360D02*
X13250286Y-14547884D01*
X13250286Y-14547884D02*
X13231239Y-14547884D01*
X13231239Y-14547884D02*
X13212191Y-14538360D01*
X13212191Y-14538360D02*
X13202667Y-14528836D01*
X13202667Y-14528836D02*
X13193143Y-14509788D01*
X13193143Y-14509788D02*
X13183620Y-14471693D01*
X13183620Y-14471693D02*
X13183620Y-14424074D01*
X13183620Y-14424074D02*
X13193143Y-14385979D01*
X13193143Y-14385979D02*
X13202667Y-14366931D01*
X13202667Y-14366931D02*
X13212191Y-14357408D01*
X13212191Y-14357408D02*
X13231239Y-14347884D01*
X13383620Y-14547884D02*
X13383620Y-14414550D01*
X13383620Y-14433598D02*
X13393143Y-14424074D01*
X13393143Y-14424074D02*
X13412191Y-14414550D01*
X13412191Y-14414550D02*
X13440763Y-14414550D01*
X13440763Y-14414550D02*
X13459810Y-14424074D01*
X13459810Y-14424074D02*
X13469334Y-14443122D01*
X13469334Y-14443122D02*
X13469334Y-14547884D01*
X13469334Y-14443122D02*
X13478858Y-14424074D01*
X13478858Y-14424074D02*
X13497905Y-14414550D01*
X13497905Y-14414550D02*
X13526477Y-14414550D01*
X13526477Y-14414550D02*
X13545524Y-14424074D01*
X13545524Y-14424074D02*
X13555048Y-14443122D01*
X13555048Y-14443122D02*
X13555048Y-14547884D01*
X13650286Y-14547884D02*
X13650286Y-14414550D01*
X13650286Y-14433598D02*
X13659810Y-14424074D01*
X13659810Y-14424074D02*
X13678858Y-14414550D01*
X13678858Y-14414550D02*
X13707429Y-14414550D01*
X13707429Y-14414550D02*
X13726477Y-14424074D01*
X13726477Y-14424074D02*
X13736001Y-14443122D01*
X13736001Y-14443122D02*
X13736001Y-14547884D01*
X13736001Y-14443122D02*
X13745524Y-14424074D01*
X13745524Y-14424074D02*
X13764572Y-14414550D01*
X13764572Y-14414550D02*
X13793143Y-14414550D01*
X13793143Y-14414550D02*
X13812191Y-14424074D01*
X13812191Y-14424074D02*
X13821715Y-14443122D01*
X13821715Y-14443122D02*
X13821715Y-14547884D01*
X14212191Y-14338360D02*
X14040763Y-14595503D01*
X14469334Y-14347884D02*
X14488382Y-14347884D01*
X14488382Y-14347884D02*
X14507429Y-14357408D01*
X14507429Y-14357408D02*
X14516953Y-14366931D01*
X14516953Y-14366931D02*
X14526477Y-14385979D01*
X14526477Y-14385979D02*
X14536001Y-14424074D01*
X14536001Y-14424074D02*
X14536001Y-14471693D01*
X14536001Y-14471693D02*
X14526477Y-14509788D01*
X14526477Y-14509788D02*
X14516953Y-14528836D01*
X14516953Y-14528836D02*
X14507429Y-14538360D01*
X14507429Y-14538360D02*
X14488382Y-14547884D01*
X14488382Y-14547884D02*
X14469334Y-14547884D01*
X14469334Y-14547884D02*
X14450286Y-14538360D01*
X14450286Y-14538360D02*
X14440763Y-14528836D01*
X14440763Y-14528836D02*
X14431239Y-14509788D01*
X14431239Y-14509788D02*
X14421715Y-14471693D01*
X14421715Y-14471693D02*
X14421715Y-14424074D01*
X14421715Y-14424074D02*
X14431239Y-14385979D01*
X14431239Y-14385979D02*
X14440763Y-14366931D01*
X14440763Y-14366931D02*
X14450286Y-14357408D01*
X14450286Y-14357408D02*
X14469334Y-14347884D01*
X14621715Y-14528836D02*
X14631239Y-14538360D01*
X14631239Y-14538360D02*
X14621715Y-14547884D01*
X14621715Y-14547884D02*
X14612191Y-14538360D01*
X14612191Y-14538360D02*
X14621715Y-14528836D01*
X14621715Y-14528836D02*
X14621715Y-14547884D01*
X14755048Y-14347884D02*
X14774096Y-14347884D01*
X14774096Y-14347884D02*
X14793144Y-14357408D01*
X14793144Y-14357408D02*
X14802667Y-14366931D01*
X14802667Y-14366931D02*
X14812191Y-14385979D01*
X14812191Y-14385979D02*
X14821715Y-14424074D01*
X14821715Y-14424074D02*
X14821715Y-14471693D01*
X14821715Y-14471693D02*
X14812191Y-14509788D01*
X14812191Y-14509788D02*
X14802667Y-14528836D01*
X14802667Y-14528836D02*
X14793144Y-14538360D01*
X14793144Y-14538360D02*
X14774096Y-14547884D01*
X14774096Y-14547884D02*
X14755048Y-14547884D01*
X14755048Y-14547884D02*
X14736001Y-14538360D01*
X14736001Y-14538360D02*
X14726477Y-14528836D01*
X14726477Y-14528836D02*
X14716953Y-14509788D01*
X14716953Y-14509788D02*
X14707429Y-14471693D01*
X14707429Y-14471693D02*
X14707429Y-14424074D01*
X14707429Y-14424074D02*
X14716953Y-14385979D01*
X14716953Y-14385979D02*
X14726477Y-14366931D01*
X14726477Y-14366931D02*
X14736001Y-14357408D01*
X14736001Y-14357408D02*
X14755048Y-14347884D01*
X14897906Y-14366931D02*
X14907429Y-14357408D01*
X14907429Y-14357408D02*
X14926477Y-14347884D01*
X14926477Y-14347884D02*
X14974096Y-14347884D01*
X14974096Y-14347884D02*
X14993144Y-14357408D01*
X14993144Y-14357408D02*
X15002667Y-14366931D01*
X15002667Y-14366931D02*
X15012191Y-14385979D01*
X15012191Y-14385979D02*
X15012191Y-14405027D01*
X15012191Y-14405027D02*
X15002667Y-14433598D01*
X15002667Y-14433598D02*
X14888382Y-14547884D01*
X14888382Y-14547884D02*
X15012191Y-14547884D01*
X15078858Y-14347884D02*
X15202667Y-14347884D01*
X15202667Y-14347884D02*
X15136001Y-14424074D01*
X15136001Y-14424074D02*
X15164572Y-14424074D01*
X15164572Y-14424074D02*
X15183620Y-14433598D01*
X15183620Y-14433598D02*
X15193144Y-14443122D01*
X15193144Y-14443122D02*
X15202667Y-14462169D01*
X15202667Y-14462169D02*
X15202667Y-14509788D01*
X15202667Y-14509788D02*
X15193144Y-14528836D01*
X15193144Y-14528836D02*
X15183620Y-14538360D01*
X15183620Y-14538360D02*
X15164572Y-14547884D01*
X15164572Y-14547884D02*
X15107429Y-14547884D01*
X15107429Y-14547884D02*
X15088382Y-14538360D01*
X15088382Y-14538360D02*
X15078858Y-14528836D01*
X15374096Y-14347884D02*
X15336001Y-14347884D01*
X15336001Y-14347884D02*
X15316953Y-14357408D01*
X15316953Y-14357408D02*
X15307429Y-14366931D01*
X15307429Y-14366931D02*
X15288382Y-14395503D01*
X15288382Y-14395503D02*
X15278858Y-14433598D01*
X15278858Y-14433598D02*
X15278858Y-14509788D01*
X15278858Y-14509788D02*
X15288382Y-14528836D01*
X15288382Y-14528836D02*
X15297906Y-14538360D01*
X15297906Y-14538360D02*
X15316953Y-14547884D01*
X15316953Y-14547884D02*
X15355048Y-14547884D01*
X15355048Y-14547884D02*
X15374096Y-14538360D01*
X15374096Y-14538360D02*
X15383620Y-14528836D01*
X15383620Y-14528836D02*
X15393144Y-14509788D01*
X15393144Y-14509788D02*
X15393144Y-14462169D01*
X15393144Y-14462169D02*
X15383620Y-14443122D01*
X15383620Y-14443122D02*
X15374096Y-14433598D01*
X15374096Y-14433598D02*
X15355048Y-14424074D01*
X15355048Y-14424074D02*
X15316953Y-14424074D01*
X15316953Y-14424074D02*
X15297906Y-14433598D01*
X15297906Y-14433598D02*
X15288382Y-14443122D01*
X15288382Y-14443122D02*
X15278858Y-14462169D01*
X15469334Y-14347884D02*
X15469334Y-14385979D01*
X15545525Y-14347884D02*
X15545525Y-14385979D01*
X15840763Y-14624074D02*
X15831239Y-14614550D01*
X15831239Y-14614550D02*
X15812191Y-14585979D01*
X15812191Y-14585979D02*
X15802668Y-14566931D01*
X15802668Y-14566931D02*
X15793144Y-14538360D01*
X15793144Y-14538360D02*
X15783620Y-14490741D01*
X15783620Y-14490741D02*
X15783620Y-14452646D01*
X15783620Y-14452646D02*
X15793144Y-14405027D01*
X15793144Y-14405027D02*
X15802668Y-14376455D01*
X15802668Y-14376455D02*
X15812191Y-14357408D01*
X15812191Y-14357408D02*
X15831239Y-14328836D01*
X15831239Y-14328836D02*
X15840763Y-14319312D01*
X15907429Y-14366931D02*
X15916953Y-14357408D01*
X15916953Y-14357408D02*
X15936001Y-14347884D01*
X15936001Y-14347884D02*
X15983620Y-14347884D01*
X15983620Y-14347884D02*
X16002668Y-14357408D01*
X16002668Y-14357408D02*
X16012191Y-14366931D01*
X16012191Y-14366931D02*
X16021715Y-14385979D01*
X16021715Y-14385979D02*
X16021715Y-14405027D01*
X16021715Y-14405027D02*
X16012191Y-14433598D01*
X16012191Y-14433598D02*
X15897906Y-14547884D01*
X15897906Y-14547884D02*
X16021715Y-14547884D01*
X16259810Y-14547884D02*
X16259810Y-14347884D01*
X16345525Y-14547884D02*
X16345525Y-14443122D01*
X16345525Y-14443122D02*
X16336001Y-14424074D01*
X16336001Y-14424074D02*
X16316953Y-14414550D01*
X16316953Y-14414550D02*
X16288382Y-14414550D01*
X16288382Y-14414550D02*
X16269334Y-14424074D01*
X16269334Y-14424074D02*
X16259810Y-14433598D01*
X16469334Y-14547884D02*
X16450287Y-14538360D01*
X16450287Y-14538360D02*
X16440763Y-14528836D01*
X16440763Y-14528836D02*
X16431239Y-14509788D01*
X16431239Y-14509788D02*
X16431239Y-14452646D01*
X16431239Y-14452646D02*
X16440763Y-14433598D01*
X16440763Y-14433598D02*
X16450287Y-14424074D01*
X16450287Y-14424074D02*
X16469334Y-14414550D01*
X16469334Y-14414550D02*
X16497906Y-14414550D01*
X16497906Y-14414550D02*
X16516953Y-14424074D01*
X16516953Y-14424074D02*
X16526477Y-14433598D01*
X16526477Y-14433598D02*
X16536001Y-14452646D01*
X16536001Y-14452646D02*
X16536001Y-14509788D01*
X16536001Y-14509788D02*
X16526477Y-14528836D01*
X16526477Y-14528836D02*
X16516953Y-14538360D01*
X16516953Y-14538360D02*
X16497906Y-14547884D01*
X16497906Y-14547884D02*
X16469334Y-14547884D01*
X16650287Y-14547884D02*
X16631239Y-14538360D01*
X16631239Y-14538360D02*
X16621715Y-14519312D01*
X16621715Y-14519312D02*
X16621715Y-14347884D01*
X16802668Y-14538360D02*
X16783620Y-14547884D01*
X16783620Y-14547884D02*
X16745525Y-14547884D01*
X16745525Y-14547884D02*
X16726477Y-14538360D01*
X16726477Y-14538360D02*
X16716953Y-14519312D01*
X16716953Y-14519312D02*
X16716953Y-14443122D01*
X16716953Y-14443122D02*
X16726477Y-14424074D01*
X16726477Y-14424074D02*
X16745525Y-14414550D01*
X16745525Y-14414550D02*
X16783620Y-14414550D01*
X16783620Y-14414550D02*
X16802668Y-14424074D01*
X16802668Y-14424074D02*
X16812192Y-14443122D01*
X16812192Y-14443122D02*
X16812192Y-14462169D01*
X16812192Y-14462169D02*
X16716953Y-14481217D01*
X16888382Y-14538360D02*
X16907430Y-14547884D01*
X16907430Y-14547884D02*
X16945525Y-14547884D01*
X16945525Y-14547884D02*
X16964573Y-14538360D01*
X16964573Y-14538360D02*
X16974096Y-14519312D01*
X16974096Y-14519312D02*
X16974096Y-14509788D01*
X16974096Y-14509788D02*
X16964573Y-14490741D01*
X16964573Y-14490741D02*
X16945525Y-14481217D01*
X16945525Y-14481217D02*
X16916953Y-14481217D01*
X16916953Y-14481217D02*
X16897906Y-14471693D01*
X16897906Y-14471693D02*
X16888382Y-14452646D01*
X16888382Y-14452646D02*
X16888382Y-14443122D01*
X16888382Y-14443122D02*
X16897906Y-14424074D01*
X16897906Y-14424074D02*
X16916953Y-14414550D01*
X16916953Y-14414550D02*
X16945525Y-14414550D01*
X16945525Y-14414550D02*
X16964573Y-14424074D01*
X17040763Y-14624074D02*
X17050287Y-14614550D01*
X17050287Y-14614550D02*
X17069334Y-14585979D01*
X17069334Y-14585979D02*
X17078858Y-14566931D01*
X17078858Y-14566931D02*
X17088382Y-14538360D01*
X17088382Y-14538360D02*
X17097906Y-14490741D01*
X17097906Y-14490741D02*
X17097906Y-14452646D01*
X17097906Y-14452646D02*
X17088382Y-14405027D01*
X17088382Y-14405027D02*
X17078858Y-14376455D01*
X17078858Y-14376455D02*
X17069334Y-14357408D01*
X17069334Y-14357408D02*
X17050287Y-14328836D01*
X17050287Y-14328836D02*
X17040763Y-14319312D01*
D12*
X12215700Y-14770400D02*
X12265700Y-14720400D01*
X12215700Y-14670400D01*
X12165700Y-14720400D01*
X12215700Y-14770400D01*
D11*
X12631239Y-14811884D02*
X12516953Y-14811884D01*
X12574096Y-14811884D02*
X12574096Y-14611884D01*
X12574096Y-14611884D02*
X12555048Y-14640455D01*
X12555048Y-14640455D02*
X12536001Y-14659503D01*
X12536001Y-14659503D02*
X12516953Y-14669027D01*
X12716953Y-14792836D02*
X12726477Y-14802360D01*
X12726477Y-14802360D02*
X12716953Y-14811884D01*
X12716953Y-14811884D02*
X12707429Y-14802360D01*
X12707429Y-14802360D02*
X12716953Y-14792836D01*
X12716953Y-14792836D02*
X12716953Y-14811884D01*
X12850286Y-14611884D02*
X12869334Y-14611884D01*
X12869334Y-14611884D02*
X12888382Y-14621408D01*
X12888382Y-14621408D02*
X12897905Y-14630931D01*
X12897905Y-14630931D02*
X12907429Y-14649979D01*
X12907429Y-14649979D02*
X12916953Y-14688074D01*
X12916953Y-14688074D02*
X12916953Y-14735693D01*
X12916953Y-14735693D02*
X12907429Y-14773788D01*
X12907429Y-14773788D02*
X12897905Y-14792836D01*
X12897905Y-14792836D02*
X12888382Y-14802360D01*
X12888382Y-14802360D02*
X12869334Y-14811884D01*
X12869334Y-14811884D02*
X12850286Y-14811884D01*
X12850286Y-14811884D02*
X12831239Y-14802360D01*
X12831239Y-14802360D02*
X12821715Y-14792836D01*
X12821715Y-14792836D02*
X12812191Y-14773788D01*
X12812191Y-14773788D02*
X12802667Y-14735693D01*
X12802667Y-14735693D02*
X12802667Y-14688074D01*
X12802667Y-14688074D02*
X12812191Y-14649979D01*
X12812191Y-14649979D02*
X12821715Y-14630931D01*
X12821715Y-14630931D02*
X12831239Y-14621408D01*
X12831239Y-14621408D02*
X12850286Y-14611884D01*
X13040762Y-14611884D02*
X13059810Y-14611884D01*
X13059810Y-14611884D02*
X13078858Y-14621408D01*
X13078858Y-14621408D02*
X13088382Y-14630931D01*
X13088382Y-14630931D02*
X13097905Y-14649979D01*
X13097905Y-14649979D02*
X13107429Y-14688074D01*
X13107429Y-14688074D02*
X13107429Y-14735693D01*
X13107429Y-14735693D02*
X13097905Y-14773788D01*
X13097905Y-14773788D02*
X13088382Y-14792836D01*
X13088382Y-14792836D02*
X13078858Y-14802360D01*
X13078858Y-14802360D02*
X13059810Y-14811884D01*
X13059810Y-14811884D02*
X13040762Y-14811884D01*
X13040762Y-14811884D02*
X13021715Y-14802360D01*
X13021715Y-14802360D02*
X13012191Y-14792836D01*
X13012191Y-14792836D02*
X13002667Y-14773788D01*
X13002667Y-14773788D02*
X12993143Y-14735693D01*
X12993143Y-14735693D02*
X12993143Y-14688074D01*
X12993143Y-14688074D02*
X13002667Y-14649979D01*
X13002667Y-14649979D02*
X13012191Y-14630931D01*
X13012191Y-14630931D02*
X13021715Y-14621408D01*
X13021715Y-14621408D02*
X13040762Y-14611884D01*
X13231239Y-14611884D02*
X13250286Y-14611884D01*
X13250286Y-14611884D02*
X13269334Y-14621408D01*
X13269334Y-14621408D02*
X13278858Y-14630931D01*
X13278858Y-14630931D02*
X13288382Y-14649979D01*
X13288382Y-14649979D02*
X13297905Y-14688074D01*
X13297905Y-14688074D02*
X13297905Y-14735693D01*
X13297905Y-14735693D02*
X13288382Y-14773788D01*
X13288382Y-14773788D02*
X13278858Y-14792836D01*
X13278858Y-14792836D02*
X13269334Y-14802360D01*
X13269334Y-14802360D02*
X13250286Y-14811884D01*
X13250286Y-14811884D02*
X13231239Y-14811884D01*
X13231239Y-14811884D02*
X13212191Y-14802360D01*
X13212191Y-14802360D02*
X13202667Y-14792836D01*
X13202667Y-14792836D02*
X13193143Y-14773788D01*
X13193143Y-14773788D02*
X13183620Y-14735693D01*
X13183620Y-14735693D02*
X13183620Y-14688074D01*
X13183620Y-14688074D02*
X13193143Y-14649979D01*
X13193143Y-14649979D02*
X13202667Y-14630931D01*
X13202667Y-14630931D02*
X13212191Y-14621408D01*
X13212191Y-14621408D02*
X13231239Y-14611884D01*
X13383620Y-14811884D02*
X13383620Y-14678550D01*
X13383620Y-14697598D02*
X13393143Y-14688074D01*
X13393143Y-14688074D02*
X13412191Y-14678550D01*
X13412191Y-14678550D02*
X13440763Y-14678550D01*
X13440763Y-14678550D02*
X13459810Y-14688074D01*
X13459810Y-14688074D02*
X13469334Y-14707122D01*
X13469334Y-14707122D02*
X13469334Y-14811884D01*
X13469334Y-14707122D02*
X13478858Y-14688074D01*
X13478858Y-14688074D02*
X13497905Y-14678550D01*
X13497905Y-14678550D02*
X13526477Y-14678550D01*
X13526477Y-14678550D02*
X13545524Y-14688074D01*
X13545524Y-14688074D02*
X13555048Y-14707122D01*
X13555048Y-14707122D02*
X13555048Y-14811884D01*
X13650286Y-14811884D02*
X13650286Y-14678550D01*
X13650286Y-14697598D02*
X13659810Y-14688074D01*
X13659810Y-14688074D02*
X13678858Y-14678550D01*
X13678858Y-14678550D02*
X13707429Y-14678550D01*
X13707429Y-14678550D02*
X13726477Y-14688074D01*
X13726477Y-14688074D02*
X13736001Y-14707122D01*
X13736001Y-14707122D02*
X13736001Y-14811884D01*
X13736001Y-14707122D02*
X13745524Y-14688074D01*
X13745524Y-14688074D02*
X13764572Y-14678550D01*
X13764572Y-14678550D02*
X13793143Y-14678550D01*
X13793143Y-14678550D02*
X13812191Y-14688074D01*
X13812191Y-14688074D02*
X13821715Y-14707122D01*
X13821715Y-14707122D02*
X13821715Y-14811884D01*
X14212191Y-14602360D02*
X14040763Y-14859503D01*
X14469334Y-14611884D02*
X14488382Y-14611884D01*
X14488382Y-14611884D02*
X14507429Y-14621408D01*
X14507429Y-14621408D02*
X14516953Y-14630931D01*
X14516953Y-14630931D02*
X14526477Y-14649979D01*
X14526477Y-14649979D02*
X14536001Y-14688074D01*
X14536001Y-14688074D02*
X14536001Y-14735693D01*
X14536001Y-14735693D02*
X14526477Y-14773788D01*
X14526477Y-14773788D02*
X14516953Y-14792836D01*
X14516953Y-14792836D02*
X14507429Y-14802360D01*
X14507429Y-14802360D02*
X14488382Y-14811884D01*
X14488382Y-14811884D02*
X14469334Y-14811884D01*
X14469334Y-14811884D02*
X14450286Y-14802360D01*
X14450286Y-14802360D02*
X14440763Y-14792836D01*
X14440763Y-14792836D02*
X14431239Y-14773788D01*
X14431239Y-14773788D02*
X14421715Y-14735693D01*
X14421715Y-14735693D02*
X14421715Y-14688074D01*
X14421715Y-14688074D02*
X14431239Y-14649979D01*
X14431239Y-14649979D02*
X14440763Y-14630931D01*
X14440763Y-14630931D02*
X14450286Y-14621408D01*
X14450286Y-14621408D02*
X14469334Y-14611884D01*
X14621715Y-14792836D02*
X14631239Y-14802360D01*
X14631239Y-14802360D02*
X14621715Y-14811884D01*
X14621715Y-14811884D02*
X14612191Y-14802360D01*
X14612191Y-14802360D02*
X14621715Y-14792836D01*
X14621715Y-14792836D02*
X14621715Y-14811884D01*
X14755048Y-14611884D02*
X14774096Y-14611884D01*
X14774096Y-14611884D02*
X14793144Y-14621408D01*
X14793144Y-14621408D02*
X14802667Y-14630931D01*
X14802667Y-14630931D02*
X14812191Y-14649979D01*
X14812191Y-14649979D02*
X14821715Y-14688074D01*
X14821715Y-14688074D02*
X14821715Y-14735693D01*
X14821715Y-14735693D02*
X14812191Y-14773788D01*
X14812191Y-14773788D02*
X14802667Y-14792836D01*
X14802667Y-14792836D02*
X14793144Y-14802360D01*
X14793144Y-14802360D02*
X14774096Y-14811884D01*
X14774096Y-14811884D02*
X14755048Y-14811884D01*
X14755048Y-14811884D02*
X14736001Y-14802360D01*
X14736001Y-14802360D02*
X14726477Y-14792836D01*
X14726477Y-14792836D02*
X14716953Y-14773788D01*
X14716953Y-14773788D02*
X14707429Y-14735693D01*
X14707429Y-14735693D02*
X14707429Y-14688074D01*
X14707429Y-14688074D02*
X14716953Y-14649979D01*
X14716953Y-14649979D02*
X14726477Y-14630931D01*
X14726477Y-14630931D02*
X14736001Y-14621408D01*
X14736001Y-14621408D02*
X14755048Y-14611884D01*
X14888382Y-14611884D02*
X15012191Y-14611884D01*
X15012191Y-14611884D02*
X14945525Y-14688074D01*
X14945525Y-14688074D02*
X14974096Y-14688074D01*
X14974096Y-14688074D02*
X14993144Y-14697598D01*
X14993144Y-14697598D02*
X15002667Y-14707122D01*
X15002667Y-14707122D02*
X15012191Y-14726169D01*
X15012191Y-14726169D02*
X15012191Y-14773788D01*
X15012191Y-14773788D02*
X15002667Y-14792836D01*
X15002667Y-14792836D02*
X14993144Y-14802360D01*
X14993144Y-14802360D02*
X14974096Y-14811884D01*
X14974096Y-14811884D02*
X14916953Y-14811884D01*
X14916953Y-14811884D02*
X14897906Y-14802360D01*
X14897906Y-14802360D02*
X14888382Y-14792836D01*
X15107429Y-14811884D02*
X15145525Y-14811884D01*
X15145525Y-14811884D02*
X15164572Y-14802360D01*
X15164572Y-14802360D02*
X15174096Y-14792836D01*
X15174096Y-14792836D02*
X15193144Y-14764265D01*
X15193144Y-14764265D02*
X15202667Y-14726169D01*
X15202667Y-14726169D02*
X15202667Y-14649979D01*
X15202667Y-14649979D02*
X15193144Y-14630931D01*
X15193144Y-14630931D02*
X15183620Y-14621408D01*
X15183620Y-14621408D02*
X15164572Y-14611884D01*
X15164572Y-14611884D02*
X15126477Y-14611884D01*
X15126477Y-14611884D02*
X15107429Y-14621408D01*
X15107429Y-14621408D02*
X15097906Y-14630931D01*
X15097906Y-14630931D02*
X15088382Y-14649979D01*
X15088382Y-14649979D02*
X15088382Y-14697598D01*
X15088382Y-14697598D02*
X15097906Y-14716646D01*
X15097906Y-14716646D02*
X15107429Y-14726169D01*
X15107429Y-14726169D02*
X15126477Y-14735693D01*
X15126477Y-14735693D02*
X15164572Y-14735693D01*
X15164572Y-14735693D02*
X15183620Y-14726169D01*
X15183620Y-14726169D02*
X15193144Y-14716646D01*
X15193144Y-14716646D02*
X15202667Y-14697598D01*
X15374096Y-14678550D02*
X15374096Y-14811884D01*
X15326477Y-14602360D02*
X15278858Y-14745217D01*
X15278858Y-14745217D02*
X15402667Y-14745217D01*
X15469334Y-14611884D02*
X15469334Y-14649979D01*
X15545525Y-14611884D02*
X15545525Y-14649979D01*
X15840763Y-14888074D02*
X15831239Y-14878550D01*
X15831239Y-14878550D02*
X15812191Y-14849979D01*
X15812191Y-14849979D02*
X15802668Y-14830931D01*
X15802668Y-14830931D02*
X15793144Y-14802360D01*
X15793144Y-14802360D02*
X15783620Y-14754741D01*
X15783620Y-14754741D02*
X15783620Y-14716646D01*
X15783620Y-14716646D02*
X15793144Y-14669027D01*
X15793144Y-14669027D02*
X15802668Y-14640455D01*
X15802668Y-14640455D02*
X15812191Y-14621408D01*
X15812191Y-14621408D02*
X15831239Y-14592836D01*
X15831239Y-14592836D02*
X15840763Y-14583312D01*
X15907429Y-14630931D02*
X15916953Y-14621408D01*
X15916953Y-14621408D02*
X15936001Y-14611884D01*
X15936001Y-14611884D02*
X15983620Y-14611884D01*
X15983620Y-14611884D02*
X16002668Y-14621408D01*
X16002668Y-14621408D02*
X16012191Y-14630931D01*
X16012191Y-14630931D02*
X16021715Y-14649979D01*
X16021715Y-14649979D02*
X16021715Y-14669027D01*
X16021715Y-14669027D02*
X16012191Y-14697598D01*
X16012191Y-14697598D02*
X15897906Y-14811884D01*
X15897906Y-14811884D02*
X16021715Y-14811884D01*
X16259810Y-14811884D02*
X16259810Y-14611884D01*
X16345525Y-14811884D02*
X16345525Y-14707122D01*
X16345525Y-14707122D02*
X16336001Y-14688074D01*
X16336001Y-14688074D02*
X16316953Y-14678550D01*
X16316953Y-14678550D02*
X16288382Y-14678550D01*
X16288382Y-14678550D02*
X16269334Y-14688074D01*
X16269334Y-14688074D02*
X16259810Y-14697598D01*
X16469334Y-14811884D02*
X16450287Y-14802360D01*
X16450287Y-14802360D02*
X16440763Y-14792836D01*
X16440763Y-14792836D02*
X16431239Y-14773788D01*
X16431239Y-14773788D02*
X16431239Y-14716646D01*
X16431239Y-14716646D02*
X16440763Y-14697598D01*
X16440763Y-14697598D02*
X16450287Y-14688074D01*
X16450287Y-14688074D02*
X16469334Y-14678550D01*
X16469334Y-14678550D02*
X16497906Y-14678550D01*
X16497906Y-14678550D02*
X16516953Y-14688074D01*
X16516953Y-14688074D02*
X16526477Y-14697598D01*
X16526477Y-14697598D02*
X16536001Y-14716646D01*
X16536001Y-14716646D02*
X16536001Y-14773788D01*
X16536001Y-14773788D02*
X16526477Y-14792836D01*
X16526477Y-14792836D02*
X16516953Y-14802360D01*
X16516953Y-14802360D02*
X16497906Y-14811884D01*
X16497906Y-14811884D02*
X16469334Y-14811884D01*
X16650287Y-14811884D02*
X16631239Y-14802360D01*
X16631239Y-14802360D02*
X16621715Y-14783312D01*
X16621715Y-14783312D02*
X16621715Y-14611884D01*
X16802668Y-14802360D02*
X16783620Y-14811884D01*
X16783620Y-14811884D02*
X16745525Y-14811884D01*
X16745525Y-14811884D02*
X16726477Y-14802360D01*
X16726477Y-14802360D02*
X16716953Y-14783312D01*
X16716953Y-14783312D02*
X16716953Y-14707122D01*
X16716953Y-14707122D02*
X16726477Y-14688074D01*
X16726477Y-14688074D02*
X16745525Y-14678550D01*
X16745525Y-14678550D02*
X16783620Y-14678550D01*
X16783620Y-14678550D02*
X16802668Y-14688074D01*
X16802668Y-14688074D02*
X16812192Y-14707122D01*
X16812192Y-14707122D02*
X16812192Y-14726169D01*
X16812192Y-14726169D02*
X16716953Y-14745217D01*
X16888382Y-14802360D02*
X16907430Y-14811884D01*
X16907430Y-14811884D02*
X16945525Y-14811884D01*
X16945525Y-14811884D02*
X16964573Y-14802360D01*
X16964573Y-14802360D02*
X16974096Y-14783312D01*
X16974096Y-14783312D02*
X16974096Y-14773788D01*
X16974096Y-14773788D02*
X16964573Y-14754741D01*
X16964573Y-14754741D02*
X16945525Y-14745217D01*
X16945525Y-14745217D02*
X16916953Y-14745217D01*
X16916953Y-14745217D02*
X16897906Y-14735693D01*
X16897906Y-14735693D02*
X16888382Y-14716646D01*
X16888382Y-14716646D02*
X16888382Y-14707122D01*
X16888382Y-14707122D02*
X16897906Y-14688074D01*
X16897906Y-14688074D02*
X16916953Y-14678550D01*
X16916953Y-14678550D02*
X16945525Y-14678550D01*
X16945525Y-14678550D02*
X16964573Y-14688074D01*
X17040763Y-14888074D02*
X17050287Y-14878550D01*
X17050287Y-14878550D02*
X17069334Y-14849979D01*
X17069334Y-14849979D02*
X17078858Y-14830931D01*
X17078858Y-14830931D02*
X17088382Y-14802360D01*
X17088382Y-14802360D02*
X17097906Y-14754741D01*
X17097906Y-14754741D02*
X17097906Y-14716646D01*
X17097906Y-14716646D02*
X17088382Y-14669027D01*
X17088382Y-14669027D02*
X17078858Y-14640455D01*
X17078858Y-14640455D02*
X17069334Y-14621408D01*
X17069334Y-14621408D02*
X17050287Y-14592836D01*
X17050287Y-14592836D02*
X17040763Y-14583312D01*
M02*
