%TF.GenerationSoftware,KiCad,Pcbnew,8.0.5-8.0.5-0~ubuntu24.04.1*%
%TF.CreationDate,2024-09-15T15:23:13-06:00*%
%TF.ProjectId,DRV8311 on motor driver,44525638-3331-4312-906f-6e206d6f746f,rev?*%
%TF.SameCoordinates,Original*%
%TF.FileFunction,AssemblyDrawing,Top*%
%FSLAX46Y46*%
G04 Gerber Fmt 4.6, Leading zero omitted, Abs format (unit mm)*
G04 Created by KiCad (PCBNEW 8.0.5-8.0.5-0~ubuntu24.04.1) date 2024-09-15 15:23:13*
%MOMM*%
%LPD*%
G01*
G04 APERTURE LIST*
%ADD10C,0.150000*%
%ADD11C,0.040000*%
%ADD12C,0.100000*%
G04 APERTURE END LIST*
D10*
X168029523Y-105679580D02*
X167981904Y-105727200D01*
X167981904Y-105727200D02*
X167839047Y-105774819D01*
X167839047Y-105774819D02*
X167743809Y-105774819D01*
X167743809Y-105774819D02*
X167600952Y-105727200D01*
X167600952Y-105727200D02*
X167505714Y-105631961D01*
X167505714Y-105631961D02*
X167458095Y-105536723D01*
X167458095Y-105536723D02*
X167410476Y-105346247D01*
X167410476Y-105346247D02*
X167410476Y-105203390D01*
X167410476Y-105203390D02*
X167458095Y-105012914D01*
X167458095Y-105012914D02*
X167505714Y-104917676D01*
X167505714Y-104917676D02*
X167600952Y-104822438D01*
X167600952Y-104822438D02*
X167743809Y-104774819D01*
X167743809Y-104774819D02*
X167839047Y-104774819D01*
X167839047Y-104774819D02*
X167981904Y-104822438D01*
X167981904Y-104822438D02*
X168029523Y-104870057D01*
X167054819Y-104418333D02*
X167769104Y-104418333D01*
X167769104Y-104418333D02*
X167911961Y-104465952D01*
X167911961Y-104465952D02*
X168007200Y-104561190D01*
X168007200Y-104561190D02*
X168054819Y-104704047D01*
X168054819Y-104704047D02*
X168054819Y-104799285D01*
X167054819Y-104037380D02*
X167054819Y-103418333D01*
X167054819Y-103418333D02*
X167435771Y-103751666D01*
X167435771Y-103751666D02*
X167435771Y-103608809D01*
X167435771Y-103608809D02*
X167483390Y-103513571D01*
X167483390Y-103513571D02*
X167531009Y-103465952D01*
X167531009Y-103465952D02*
X167626247Y-103418333D01*
X167626247Y-103418333D02*
X167864342Y-103418333D01*
X167864342Y-103418333D02*
X167959580Y-103465952D01*
X167959580Y-103465952D02*
X168007200Y-103513571D01*
X168007200Y-103513571D02*
X168054819Y-103608809D01*
X168054819Y-103608809D02*
X168054819Y-103894523D01*
X168054819Y-103894523D02*
X168007200Y-103989761D01*
X168007200Y-103989761D02*
X167959580Y-104037380D01*
X172969364Y-101159564D02*
X172636031Y-101736915D01*
X172953644Y-100710602D02*
X172390305Y-101210144D01*
X172390305Y-101210144D02*
X172926416Y-101519668D01*
X173137282Y-101916341D02*
X173154712Y-101981390D01*
X173154712Y-101981390D02*
X173089663Y-101998819D01*
X173089663Y-101998819D02*
X173072234Y-101933771D01*
X173072234Y-101933771D02*
X173137282Y-101916341D01*
X173137282Y-101916341D02*
X173089663Y-101998819D01*
X173919577Y-101323270D02*
X174496928Y-101656603D01*
X174496928Y-101656603D02*
X173625774Y-102308343D01*
X175031329Y-102350040D02*
X174697996Y-102927391D01*
X174660175Y-102135755D02*
X174398271Y-102589387D01*
X174398271Y-102589387D02*
X174391891Y-102695675D01*
X174391891Y-102695675D02*
X174450560Y-102784534D01*
X174450560Y-102784534D02*
X174574278Y-102855962D01*
X174574278Y-102855962D02*
X174680566Y-102862342D01*
X174680566Y-102862342D02*
X174745615Y-102844912D01*
X175660969Y-102878520D02*
X175372294Y-102711854D01*
X175110389Y-103165486D02*
X175610389Y-102299461D01*
X175610389Y-102299461D02*
X176022782Y-102537556D01*
D11*
X173419033Y-103106905D02*
X173402771Y-103111263D01*
X173402771Y-103111263D02*
X173365889Y-103103716D01*
X173365889Y-103103716D02*
X173345269Y-103091811D01*
X173345269Y-103091811D02*
X173320292Y-103063644D01*
X173320292Y-103063644D02*
X173311577Y-103031119D01*
X173311577Y-103031119D02*
X173313172Y-103004547D01*
X173313172Y-103004547D02*
X173326672Y-102957356D01*
X173326672Y-102957356D02*
X173344529Y-102926426D01*
X173344529Y-102926426D02*
X173378648Y-102891139D01*
X173378648Y-102891139D02*
X173400863Y-102876472D01*
X173400863Y-102876472D02*
X173433387Y-102867757D01*
X173433387Y-102867757D02*
X173470269Y-102875304D01*
X173470269Y-102875304D02*
X173490889Y-102887209D01*
X173490889Y-102887209D02*
X173515866Y-102915376D01*
X173515866Y-102915376D02*
X173520224Y-102931638D01*
X173613325Y-103246573D02*
X173489607Y-103175144D01*
X173551466Y-103210858D02*
X173676466Y-102994352D01*
X173676466Y-102994352D02*
X173637989Y-103013377D01*
X173637989Y-103013377D02*
X173605465Y-103022092D01*
X173605465Y-103022092D02*
X173578893Y-103020497D01*
D10*
X171988095Y-97952438D02*
X171892857Y-97904819D01*
X171892857Y-97904819D02*
X171750000Y-97904819D01*
X171750000Y-97904819D02*
X171607143Y-97952438D01*
X171607143Y-97952438D02*
X171511905Y-98047676D01*
X171511905Y-98047676D02*
X171464286Y-98142914D01*
X171464286Y-98142914D02*
X171416667Y-98333390D01*
X171416667Y-98333390D02*
X171416667Y-98476247D01*
X171416667Y-98476247D02*
X171464286Y-98666723D01*
X171464286Y-98666723D02*
X171511905Y-98761961D01*
X171511905Y-98761961D02*
X171607143Y-98857200D01*
X171607143Y-98857200D02*
X171750000Y-98904819D01*
X171750000Y-98904819D02*
X171845238Y-98904819D01*
X171845238Y-98904819D02*
X171988095Y-98857200D01*
X171988095Y-98857200D02*
X172035714Y-98809580D01*
X172035714Y-98809580D02*
X172035714Y-98476247D01*
X172035714Y-98476247D02*
X171845238Y-98476247D01*
X172464286Y-98904819D02*
X172464286Y-97904819D01*
X172464286Y-97904819D02*
X173035714Y-98904819D01*
X173035714Y-98904819D02*
X173035714Y-97904819D01*
X173511905Y-98904819D02*
X173511905Y-97904819D01*
X173511905Y-97904819D02*
X173750000Y-97904819D01*
X173750000Y-97904819D02*
X173892857Y-97952438D01*
X173892857Y-97952438D02*
X173988095Y-98047676D01*
X173988095Y-98047676D02*
X174035714Y-98142914D01*
X174035714Y-98142914D02*
X174083333Y-98333390D01*
X174083333Y-98333390D02*
X174083333Y-98476247D01*
X174083333Y-98476247D02*
X174035714Y-98666723D01*
X174035714Y-98666723D02*
X173988095Y-98761961D01*
X173988095Y-98761961D02*
X173892857Y-98857200D01*
X173892857Y-98857200D02*
X173750000Y-98904819D01*
X173750000Y-98904819D02*
X173511905Y-98904819D01*
X171488095Y-93854819D02*
X172059523Y-93854819D01*
X171773809Y-94854819D02*
X171773809Y-93854819D01*
X172392857Y-94854819D02*
X172392857Y-93854819D01*
X172392857Y-93854819D02*
X172773809Y-93854819D01*
X172773809Y-93854819D02*
X172869047Y-93902438D01*
X172869047Y-93902438D02*
X172916666Y-93950057D01*
X172916666Y-93950057D02*
X172964285Y-94045295D01*
X172964285Y-94045295D02*
X172964285Y-94188152D01*
X172964285Y-94188152D02*
X172916666Y-94283390D01*
X172916666Y-94283390D02*
X172869047Y-94331009D01*
X172869047Y-94331009D02*
X172773809Y-94378628D01*
X172773809Y-94378628D02*
X172392857Y-94378628D01*
X173345238Y-93950057D02*
X173392857Y-93902438D01*
X173392857Y-93902438D02*
X173488095Y-93854819D01*
X173488095Y-93854819D02*
X173726190Y-93854819D01*
X173726190Y-93854819D02*
X173821428Y-93902438D01*
X173821428Y-93902438D02*
X173869047Y-93950057D01*
X173869047Y-93950057D02*
X173916666Y-94045295D01*
X173916666Y-94045295D02*
X173916666Y-94140533D01*
X173916666Y-94140533D02*
X173869047Y-94283390D01*
X173869047Y-94283390D02*
X173297619Y-94854819D01*
X173297619Y-94854819D02*
X173916666Y-94854819D01*
X169314819Y-100395237D02*
X169314819Y-100299999D01*
X169314819Y-100299999D02*
X169362438Y-100204761D01*
X169362438Y-100204761D02*
X169410057Y-100157142D01*
X169410057Y-100157142D02*
X169505295Y-100109523D01*
X169505295Y-100109523D02*
X169695771Y-100061904D01*
X169695771Y-100061904D02*
X169933866Y-100061904D01*
X169933866Y-100061904D02*
X170124342Y-100109523D01*
X170124342Y-100109523D02*
X170219580Y-100157142D01*
X170219580Y-100157142D02*
X170267200Y-100204761D01*
X170267200Y-100204761D02*
X170314819Y-100299999D01*
X170314819Y-100299999D02*
X170314819Y-100395237D01*
X170314819Y-100395237D02*
X170267200Y-100490475D01*
X170267200Y-100490475D02*
X170219580Y-100538094D01*
X170219580Y-100538094D02*
X170124342Y-100585713D01*
X170124342Y-100585713D02*
X169933866Y-100633332D01*
X169933866Y-100633332D02*
X169695771Y-100633332D01*
X169695771Y-100633332D02*
X169505295Y-100585713D01*
X169505295Y-100585713D02*
X169410057Y-100538094D01*
X169410057Y-100538094D02*
X169362438Y-100490475D01*
X169362438Y-100490475D02*
X169314819Y-100395237D01*
X170219580Y-99633332D02*
X170267200Y-99585713D01*
X170267200Y-99585713D02*
X170314819Y-99633332D01*
X170314819Y-99633332D02*
X170267200Y-99680951D01*
X170267200Y-99680951D02*
X170219580Y-99633332D01*
X170219580Y-99633332D02*
X170314819Y-99633332D01*
X170314819Y-98633333D02*
X170314819Y-99204761D01*
X170314819Y-98919047D02*
X169314819Y-98919047D01*
X169314819Y-98919047D02*
X169457676Y-99014285D01*
X169457676Y-99014285D02*
X169552914Y-99109523D01*
X169552914Y-99109523D02*
X169600533Y-99204761D01*
X169648152Y-97776190D02*
X170314819Y-97776190D01*
X169648152Y-98204761D02*
X170171961Y-98204761D01*
X170171961Y-98204761D02*
X170267200Y-98157142D01*
X170267200Y-98157142D02*
X170314819Y-98061904D01*
X170314819Y-98061904D02*
X170314819Y-97919047D01*
X170314819Y-97919047D02*
X170267200Y-97823809D01*
X170267200Y-97823809D02*
X170219580Y-97776190D01*
X169791009Y-96966666D02*
X169791009Y-97299999D01*
X170314819Y-97299999D02*
X169314819Y-97299999D01*
X169314819Y-97299999D02*
X169314819Y-96823809D01*
X170267200Y-96395237D02*
X170314819Y-96395237D01*
X170314819Y-96395237D02*
X170410057Y-96442856D01*
X170410057Y-96442856D02*
X170457676Y-96490475D01*
X170314819Y-94680952D02*
X170314819Y-95252380D01*
X170314819Y-94966666D02*
X169314819Y-94966666D01*
X169314819Y-94966666D02*
X169457676Y-95061904D01*
X169457676Y-95061904D02*
X169552914Y-95157142D01*
X169552914Y-95157142D02*
X169600533Y-95252380D01*
X169314819Y-93823809D02*
X169314819Y-94014285D01*
X169314819Y-94014285D02*
X169362438Y-94109523D01*
X169362438Y-94109523D02*
X169410057Y-94157142D01*
X169410057Y-94157142D02*
X169552914Y-94252380D01*
X169552914Y-94252380D02*
X169743390Y-94299999D01*
X169743390Y-94299999D02*
X170124342Y-94299999D01*
X170124342Y-94299999D02*
X170219580Y-94252380D01*
X170219580Y-94252380D02*
X170267200Y-94204761D01*
X170267200Y-94204761D02*
X170314819Y-94109523D01*
X170314819Y-94109523D02*
X170314819Y-93919047D01*
X170314819Y-93919047D02*
X170267200Y-93823809D01*
X170267200Y-93823809D02*
X170219580Y-93776190D01*
X170219580Y-93776190D02*
X170124342Y-93728571D01*
X170124342Y-93728571D02*
X169886247Y-93728571D01*
X169886247Y-93728571D02*
X169791009Y-93776190D01*
X169791009Y-93776190D02*
X169743390Y-93823809D01*
X169743390Y-93823809D02*
X169695771Y-93919047D01*
X169695771Y-93919047D02*
X169695771Y-94109523D01*
X169695771Y-94109523D02*
X169743390Y-94204761D01*
X169743390Y-94204761D02*
X169791009Y-94252380D01*
X169791009Y-94252380D02*
X169886247Y-94299999D01*
X169648152Y-93395237D02*
X170314819Y-93157142D01*
X170314819Y-93157142D02*
X169648152Y-92919047D01*
D11*
X168789765Y-96841666D02*
X168801670Y-96853570D01*
X168801670Y-96853570D02*
X168813574Y-96889285D01*
X168813574Y-96889285D02*
X168813574Y-96913094D01*
X168813574Y-96913094D02*
X168801670Y-96948808D01*
X168801670Y-96948808D02*
X168777860Y-96972618D01*
X168777860Y-96972618D02*
X168754050Y-96984523D01*
X168754050Y-96984523D02*
X168706431Y-96996427D01*
X168706431Y-96996427D02*
X168670717Y-96996427D01*
X168670717Y-96996427D02*
X168623098Y-96984523D01*
X168623098Y-96984523D02*
X168599289Y-96972618D01*
X168599289Y-96972618D02*
X168575479Y-96948808D01*
X168575479Y-96948808D02*
X168563574Y-96913094D01*
X168563574Y-96913094D02*
X168563574Y-96889285D01*
X168563574Y-96889285D02*
X168575479Y-96853570D01*
X168575479Y-96853570D02*
X168587384Y-96841666D01*
X168563574Y-96758332D02*
X168563574Y-96603570D01*
X168563574Y-96603570D02*
X168658812Y-96686904D01*
X168658812Y-96686904D02*
X168658812Y-96651189D01*
X168658812Y-96651189D02*
X168670717Y-96627380D01*
X168670717Y-96627380D02*
X168682622Y-96615475D01*
X168682622Y-96615475D02*
X168706431Y-96603570D01*
X168706431Y-96603570D02*
X168765955Y-96603570D01*
X168765955Y-96603570D02*
X168789765Y-96615475D01*
X168789765Y-96615475D02*
X168801670Y-96627380D01*
X168801670Y-96627380D02*
X168813574Y-96651189D01*
X168813574Y-96651189D02*
X168813574Y-96722618D01*
X168813574Y-96722618D02*
X168801670Y-96746427D01*
X168801670Y-96746427D02*
X168789765Y-96758332D01*
D10*
X175265580Y-94526323D02*
X176265580Y-94526323D01*
X176265580Y-94526323D02*
X176265580Y-94764418D01*
X176265580Y-94764418D02*
X176217961Y-94907275D01*
X176217961Y-94907275D02*
X176122723Y-95002513D01*
X176122723Y-95002513D02*
X176027485Y-95050132D01*
X176027485Y-95050132D02*
X175837009Y-95097751D01*
X175837009Y-95097751D02*
X175694152Y-95097751D01*
X175694152Y-95097751D02*
X175503676Y-95050132D01*
X175503676Y-95050132D02*
X175408438Y-95002513D01*
X175408438Y-95002513D02*
X175313200Y-94907275D01*
X175313200Y-94907275D02*
X175265580Y-94764418D01*
X175265580Y-94764418D02*
X175265580Y-94526323D01*
X175265580Y-96097751D02*
X175741771Y-95764418D01*
X175265580Y-95526323D02*
X176265580Y-95526323D01*
X176265580Y-95526323D02*
X176265580Y-95907275D01*
X176265580Y-95907275D02*
X176217961Y-96002513D01*
X176217961Y-96002513D02*
X176170342Y-96050132D01*
X176170342Y-96050132D02*
X176075104Y-96097751D01*
X176075104Y-96097751D02*
X175932247Y-96097751D01*
X175932247Y-96097751D02*
X175837009Y-96050132D01*
X175837009Y-96050132D02*
X175789390Y-96002513D01*
X175789390Y-96002513D02*
X175741771Y-95907275D01*
X175741771Y-95907275D02*
X175741771Y-95526323D01*
X176265580Y-96383466D02*
X175265580Y-96716799D01*
X175265580Y-96716799D02*
X176265580Y-97050132D01*
X175837009Y-97526323D02*
X175884628Y-97431085D01*
X175884628Y-97431085D02*
X175932247Y-97383466D01*
X175932247Y-97383466D02*
X176027485Y-97335847D01*
X176027485Y-97335847D02*
X176075104Y-97335847D01*
X176075104Y-97335847D02*
X176170342Y-97383466D01*
X176170342Y-97383466D02*
X176217961Y-97431085D01*
X176217961Y-97431085D02*
X176265580Y-97526323D01*
X176265580Y-97526323D02*
X176265580Y-97716799D01*
X176265580Y-97716799D02*
X176217961Y-97812037D01*
X176217961Y-97812037D02*
X176170342Y-97859656D01*
X176170342Y-97859656D02*
X176075104Y-97907275D01*
X176075104Y-97907275D02*
X176027485Y-97907275D01*
X176027485Y-97907275D02*
X175932247Y-97859656D01*
X175932247Y-97859656D02*
X175884628Y-97812037D01*
X175884628Y-97812037D02*
X175837009Y-97716799D01*
X175837009Y-97716799D02*
X175837009Y-97526323D01*
X175837009Y-97526323D02*
X175789390Y-97431085D01*
X175789390Y-97431085D02*
X175741771Y-97383466D01*
X175741771Y-97383466D02*
X175646533Y-97335847D01*
X175646533Y-97335847D02*
X175456057Y-97335847D01*
X175456057Y-97335847D02*
X175360819Y-97383466D01*
X175360819Y-97383466D02*
X175313200Y-97431085D01*
X175313200Y-97431085D02*
X175265580Y-97526323D01*
X175265580Y-97526323D02*
X175265580Y-97716799D01*
X175265580Y-97716799D02*
X175313200Y-97812037D01*
X175313200Y-97812037D02*
X175360819Y-97859656D01*
X175360819Y-97859656D02*
X175456057Y-97907275D01*
X175456057Y-97907275D02*
X175646533Y-97907275D01*
X175646533Y-97907275D02*
X175741771Y-97859656D01*
X175741771Y-97859656D02*
X175789390Y-97812037D01*
X175789390Y-97812037D02*
X175837009Y-97716799D01*
X176265580Y-98240609D02*
X176265580Y-98859656D01*
X176265580Y-98859656D02*
X175884628Y-98526323D01*
X175884628Y-98526323D02*
X175884628Y-98669180D01*
X175884628Y-98669180D02*
X175837009Y-98764418D01*
X175837009Y-98764418D02*
X175789390Y-98812037D01*
X175789390Y-98812037D02*
X175694152Y-98859656D01*
X175694152Y-98859656D02*
X175456057Y-98859656D01*
X175456057Y-98859656D02*
X175360819Y-98812037D01*
X175360819Y-98812037D02*
X175313200Y-98764418D01*
X175313200Y-98764418D02*
X175265580Y-98669180D01*
X175265580Y-98669180D02*
X175265580Y-98383466D01*
X175265580Y-98383466D02*
X175313200Y-98288228D01*
X175313200Y-98288228D02*
X175360819Y-98240609D01*
X175265580Y-99812037D02*
X175265580Y-99240609D01*
X175265580Y-99526323D02*
X176265580Y-99526323D01*
X176265580Y-99526323D02*
X176122723Y-99431085D01*
X176122723Y-99431085D02*
X176027485Y-99335847D01*
X176027485Y-99335847D02*
X175979866Y-99240609D01*
X175265580Y-100764418D02*
X175265580Y-100192990D01*
X175265580Y-100478704D02*
X176265580Y-100478704D01*
X176265580Y-100478704D02*
X176122723Y-100383466D01*
X176122723Y-100383466D02*
X176027485Y-100288228D01*
X176027485Y-100288228D02*
X175979866Y-100192990D01*
X175265580Y-101192990D02*
X176265580Y-101192990D01*
X175789390Y-101192990D02*
X175789390Y-101764418D01*
X175265580Y-101764418D02*
X176265580Y-101764418D01*
X175265580Y-102812037D02*
X175741771Y-102478704D01*
X175265580Y-102240609D02*
X176265580Y-102240609D01*
X176265580Y-102240609D02*
X176265580Y-102621561D01*
X176265580Y-102621561D02*
X176217961Y-102716799D01*
X176217961Y-102716799D02*
X176170342Y-102764418D01*
X176170342Y-102764418D02*
X176075104Y-102812037D01*
X176075104Y-102812037D02*
X175932247Y-102812037D01*
X175932247Y-102812037D02*
X175837009Y-102764418D01*
X175837009Y-102764418D02*
X175789390Y-102716799D01*
X175789390Y-102716799D02*
X175741771Y-102621561D01*
X175741771Y-102621561D02*
X175741771Y-102240609D01*
X175265580Y-103812037D02*
X175741771Y-103478704D01*
X175265580Y-103240609D02*
X176265580Y-103240609D01*
X176265580Y-103240609D02*
X176265580Y-103621561D01*
X176265580Y-103621561D02*
X176217961Y-103716799D01*
X176217961Y-103716799D02*
X176170342Y-103764418D01*
X176170342Y-103764418D02*
X176075104Y-103812037D01*
X176075104Y-103812037D02*
X175932247Y-103812037D01*
X175932247Y-103812037D02*
X175837009Y-103764418D01*
X175837009Y-103764418D02*
X175789390Y-103716799D01*
X175789390Y-103716799D02*
X175741771Y-103621561D01*
X175741771Y-103621561D02*
X175741771Y-103240609D01*
X176265580Y-104145371D02*
X175265580Y-104383466D01*
X175265580Y-104383466D02*
X175979866Y-104573942D01*
X175979866Y-104573942D02*
X175265580Y-104764418D01*
X175265580Y-104764418D02*
X176265580Y-105002514D01*
X175265580Y-105954894D02*
X175741771Y-105621561D01*
X175265580Y-105383466D02*
X176265580Y-105383466D01*
X176265580Y-105383466D02*
X176265580Y-105764418D01*
X176265580Y-105764418D02*
X176217961Y-105859656D01*
X176217961Y-105859656D02*
X176170342Y-105907275D01*
X176170342Y-105907275D02*
X176075104Y-105954894D01*
X176075104Y-105954894D02*
X175932247Y-105954894D01*
X175932247Y-105954894D02*
X175837009Y-105907275D01*
X175837009Y-105907275D02*
X175789390Y-105859656D01*
X175789390Y-105859656D02*
X175741771Y-105764418D01*
X175741771Y-105764418D02*
X175741771Y-105383466D01*
X168848780Y-99454894D02*
X168039257Y-99454894D01*
X168039257Y-99454894D02*
X167944019Y-99502513D01*
X167944019Y-99502513D02*
X167896400Y-99550132D01*
X167896400Y-99550132D02*
X167848780Y-99645370D01*
X167848780Y-99645370D02*
X167848780Y-99835846D01*
X167848780Y-99835846D02*
X167896400Y-99931084D01*
X167896400Y-99931084D02*
X167944019Y-99978703D01*
X167944019Y-99978703D02*
X168039257Y-100026322D01*
X168039257Y-100026322D02*
X168848780Y-100026322D01*
X167848780Y-101026322D02*
X167848780Y-100454894D01*
X167848780Y-100740608D02*
X168848780Y-100740608D01*
X168848780Y-100740608D02*
X168705923Y-100645370D01*
X168705923Y-100645370D02*
X168610685Y-100550132D01*
X168610685Y-100550132D02*
X168563066Y-100454894D01*
X167091428Y-104151009D02*
X167234285Y-104198628D01*
X167234285Y-104198628D02*
X167281904Y-104246247D01*
X167281904Y-104246247D02*
X167329523Y-104341485D01*
X167329523Y-104341485D02*
X167329523Y-104484342D01*
X167329523Y-104484342D02*
X167281904Y-104579580D01*
X167281904Y-104579580D02*
X167234285Y-104627200D01*
X167234285Y-104627200D02*
X167139047Y-104674819D01*
X167139047Y-104674819D02*
X166758095Y-104674819D01*
X166758095Y-104674819D02*
X166758095Y-103674819D01*
X166758095Y-103674819D02*
X167091428Y-103674819D01*
X167091428Y-103674819D02*
X167186666Y-103722438D01*
X167186666Y-103722438D02*
X167234285Y-103770057D01*
X167234285Y-103770057D02*
X167281904Y-103865295D01*
X167281904Y-103865295D02*
X167281904Y-103960533D01*
X167281904Y-103960533D02*
X167234285Y-104055771D01*
X167234285Y-104055771D02*
X167186666Y-104103390D01*
X167186666Y-104103390D02*
X167091428Y-104151009D01*
X167091428Y-104151009D02*
X166758095Y-104151009D01*
X166354819Y-103318333D02*
X167069104Y-103318333D01*
X167069104Y-103318333D02*
X167211961Y-103365952D01*
X167211961Y-103365952D02*
X167307200Y-103461190D01*
X167307200Y-103461190D02*
X167354819Y-103604047D01*
X167354819Y-103604047D02*
X167354819Y-103699285D01*
X167354819Y-102318333D02*
X167354819Y-102889761D01*
X167354819Y-102604047D02*
X166354819Y-102604047D01*
X166354819Y-102604047D02*
X166497676Y-102699285D01*
X166497676Y-102699285D02*
X166592914Y-102794523D01*
X166592914Y-102794523D02*
X166640533Y-102889761D01*
X175571428Y-104181009D02*
X175714285Y-104228628D01*
X175714285Y-104228628D02*
X175761904Y-104276247D01*
X175761904Y-104276247D02*
X175809523Y-104371485D01*
X175809523Y-104371485D02*
X175809523Y-104514342D01*
X175809523Y-104514342D02*
X175761904Y-104609580D01*
X175761904Y-104609580D02*
X175714285Y-104657200D01*
X175714285Y-104657200D02*
X175619047Y-104704819D01*
X175619047Y-104704819D02*
X175238095Y-104704819D01*
X175238095Y-104704819D02*
X175238095Y-103704819D01*
X175238095Y-103704819D02*
X175571428Y-103704819D01*
X175571428Y-103704819D02*
X175666666Y-103752438D01*
X175666666Y-103752438D02*
X175714285Y-103800057D01*
X175714285Y-103800057D02*
X175761904Y-103895295D01*
X175761904Y-103895295D02*
X175761904Y-103990533D01*
X175761904Y-103990533D02*
X175714285Y-104085771D01*
X175714285Y-104085771D02*
X175666666Y-104133390D01*
X175666666Y-104133390D02*
X175571428Y-104181009D01*
X175571428Y-104181009D02*
X175238095Y-104181009D01*
X174238095Y-100704819D02*
X174809523Y-100704819D01*
X174523809Y-101704819D02*
X174523809Y-100704819D01*
X175142857Y-101704819D02*
X175142857Y-100704819D01*
X175142857Y-100704819D02*
X175523809Y-100704819D01*
X175523809Y-100704819D02*
X175619047Y-100752438D01*
X175619047Y-100752438D02*
X175666666Y-100800057D01*
X175666666Y-100800057D02*
X175714285Y-100895295D01*
X175714285Y-100895295D02*
X175714285Y-101038152D01*
X175714285Y-101038152D02*
X175666666Y-101133390D01*
X175666666Y-101133390D02*
X175619047Y-101181009D01*
X175619047Y-101181009D02*
X175523809Y-101228628D01*
X175523809Y-101228628D02*
X175142857Y-101228628D01*
X176047619Y-100704819D02*
X176714285Y-100704819D01*
X176714285Y-100704819D02*
X176285714Y-101704819D01*
X173459523Y-106759580D02*
X173411904Y-106807200D01*
X173411904Y-106807200D02*
X173269047Y-106854819D01*
X173269047Y-106854819D02*
X173173809Y-106854819D01*
X173173809Y-106854819D02*
X173030952Y-106807200D01*
X173030952Y-106807200D02*
X172935714Y-106711961D01*
X172935714Y-106711961D02*
X172888095Y-106616723D01*
X172888095Y-106616723D02*
X172840476Y-106426247D01*
X172840476Y-106426247D02*
X172840476Y-106283390D01*
X172840476Y-106283390D02*
X172888095Y-106092914D01*
X172888095Y-106092914D02*
X172935714Y-105997676D01*
X172935714Y-105997676D02*
X173030952Y-105902438D01*
X173030952Y-105902438D02*
X173173809Y-105854819D01*
X173173809Y-105854819D02*
X173269047Y-105854819D01*
X173269047Y-105854819D02*
X173411904Y-105902438D01*
X173411904Y-105902438D02*
X173459523Y-105950057D01*
X171888095Y-102854819D02*
X172459523Y-102854819D01*
X172173809Y-103854819D02*
X172173809Y-102854819D01*
X172792857Y-103854819D02*
X172792857Y-102854819D01*
X172792857Y-102854819D02*
X173173809Y-102854819D01*
X173173809Y-102854819D02*
X173269047Y-102902438D01*
X173269047Y-102902438D02*
X173316666Y-102950057D01*
X173316666Y-102950057D02*
X173364285Y-103045295D01*
X173364285Y-103045295D02*
X173364285Y-103188152D01*
X173364285Y-103188152D02*
X173316666Y-103283390D01*
X173316666Y-103283390D02*
X173269047Y-103331009D01*
X173269047Y-103331009D02*
X173173809Y-103378628D01*
X173173809Y-103378628D02*
X172792857Y-103378628D01*
X173935714Y-103283390D02*
X173840476Y-103235771D01*
X173840476Y-103235771D02*
X173792857Y-103188152D01*
X173792857Y-103188152D02*
X173745238Y-103092914D01*
X173745238Y-103092914D02*
X173745238Y-103045295D01*
X173745238Y-103045295D02*
X173792857Y-102950057D01*
X173792857Y-102950057D02*
X173840476Y-102902438D01*
X173840476Y-102902438D02*
X173935714Y-102854819D01*
X173935714Y-102854819D02*
X174126190Y-102854819D01*
X174126190Y-102854819D02*
X174221428Y-102902438D01*
X174221428Y-102902438D02*
X174269047Y-102950057D01*
X174269047Y-102950057D02*
X174316666Y-103045295D01*
X174316666Y-103045295D02*
X174316666Y-103092914D01*
X174316666Y-103092914D02*
X174269047Y-103188152D01*
X174269047Y-103188152D02*
X174221428Y-103235771D01*
X174221428Y-103235771D02*
X174126190Y-103283390D01*
X174126190Y-103283390D02*
X173935714Y-103283390D01*
X173935714Y-103283390D02*
X173840476Y-103331009D01*
X173840476Y-103331009D02*
X173792857Y-103378628D01*
X173792857Y-103378628D02*
X173745238Y-103473866D01*
X173745238Y-103473866D02*
X173745238Y-103664342D01*
X173745238Y-103664342D02*
X173792857Y-103759580D01*
X173792857Y-103759580D02*
X173840476Y-103807200D01*
X173840476Y-103807200D02*
X173935714Y-103854819D01*
X173935714Y-103854819D02*
X174126190Y-103854819D01*
X174126190Y-103854819D02*
X174221428Y-103807200D01*
X174221428Y-103807200D02*
X174269047Y-103759580D01*
X174269047Y-103759580D02*
X174316666Y-103664342D01*
X174316666Y-103664342D02*
X174316666Y-103473866D01*
X174316666Y-103473866D02*
X174269047Y-103378628D01*
X174269047Y-103378628D02*
X174221428Y-103331009D01*
X174221428Y-103331009D02*
X174126190Y-103283390D01*
X166481905Y-103139104D02*
X166958095Y-103139104D01*
X166386667Y-103424819D02*
X166720000Y-102424819D01*
X166720000Y-102424819D02*
X167053333Y-103424819D01*
X166054819Y-101758333D02*
X166769104Y-101758333D01*
X166769104Y-101758333D02*
X166911961Y-101805952D01*
X166911961Y-101805952D02*
X167007200Y-101901190D01*
X167007200Y-101901190D02*
X167054819Y-102044047D01*
X167054819Y-102044047D02*
X167054819Y-102139285D01*
X166150057Y-101329761D02*
X166102438Y-101282142D01*
X166102438Y-101282142D02*
X166054819Y-101186904D01*
X166054819Y-101186904D02*
X166054819Y-100948809D01*
X166054819Y-100948809D02*
X166102438Y-100853571D01*
X166102438Y-100853571D02*
X166150057Y-100805952D01*
X166150057Y-100805952D02*
X166245295Y-100758333D01*
X166245295Y-100758333D02*
X166340533Y-100758333D01*
X166340533Y-100758333D02*
X166483390Y-100805952D01*
X166483390Y-100805952D02*
X167054819Y-101377380D01*
X167054819Y-101377380D02*
X167054819Y-100758333D01*
X174734546Y-102627046D02*
X175311896Y-102960379D01*
X174285584Y-102642766D02*
X174785126Y-103206105D01*
X174785126Y-103206105D02*
X175094650Y-102669994D01*
X174660157Y-102089225D02*
X174993490Y-101511875D01*
X174993490Y-101511875D02*
X175645230Y-102383029D01*
X176049991Y-101681961D02*
X175183966Y-101181961D01*
X175767696Y-101409006D02*
X176240468Y-101352046D01*
X175663117Y-101018713D02*
X175802556Y-101539103D01*
D11*
X174330698Y-101646627D02*
X174180143Y-101659778D01*
X174256412Y-101775294D02*
X174031246Y-101645294D01*
X174031246Y-101645294D02*
X174080770Y-101559516D01*
X174080770Y-101559516D02*
X174103873Y-101544262D01*
X174103873Y-101544262D02*
X174120785Y-101539730D01*
X174120785Y-101539730D02*
X174148420Y-101541389D01*
X174148420Y-101541389D02*
X174180587Y-101559961D01*
X174180587Y-101559961D02*
X174195841Y-101583064D01*
X174195841Y-101583064D02*
X174200373Y-101599976D01*
X174200373Y-101599976D02*
X174198714Y-101627611D01*
X174198714Y-101627611D02*
X174149190Y-101713389D01*
X174148865Y-101441572D02*
X174229341Y-101302183D01*
X174229341Y-101302183D02*
X174271785Y-101426762D01*
X174271785Y-101426762D02*
X174290357Y-101394596D01*
X174290357Y-101394596D02*
X174313460Y-101379342D01*
X174313460Y-101379342D02*
X174330373Y-101374810D01*
X174330373Y-101374810D02*
X174358008Y-101376469D01*
X174358008Y-101376469D02*
X174411619Y-101407421D01*
X174411619Y-101407421D02*
X174426873Y-101430524D01*
X174426873Y-101430524D02*
X174431404Y-101447437D01*
X174431404Y-101447437D02*
X174429746Y-101475072D01*
X174429746Y-101475072D02*
X174392603Y-101539405D01*
X174392603Y-101539405D02*
X174369500Y-101554659D01*
X174369500Y-101554659D02*
X174352587Y-101559191D01*
D10*
X170564819Y-100545237D02*
X170564819Y-100449999D01*
X170564819Y-100449999D02*
X170612438Y-100354761D01*
X170612438Y-100354761D02*
X170660057Y-100307142D01*
X170660057Y-100307142D02*
X170755295Y-100259523D01*
X170755295Y-100259523D02*
X170945771Y-100211904D01*
X170945771Y-100211904D02*
X171183866Y-100211904D01*
X171183866Y-100211904D02*
X171374342Y-100259523D01*
X171374342Y-100259523D02*
X171469580Y-100307142D01*
X171469580Y-100307142D02*
X171517200Y-100354761D01*
X171517200Y-100354761D02*
X171564819Y-100449999D01*
X171564819Y-100449999D02*
X171564819Y-100545237D01*
X171564819Y-100545237D02*
X171517200Y-100640475D01*
X171517200Y-100640475D02*
X171469580Y-100688094D01*
X171469580Y-100688094D02*
X171374342Y-100735713D01*
X171374342Y-100735713D02*
X171183866Y-100783332D01*
X171183866Y-100783332D02*
X170945771Y-100783332D01*
X170945771Y-100783332D02*
X170755295Y-100735713D01*
X170755295Y-100735713D02*
X170660057Y-100688094D01*
X170660057Y-100688094D02*
X170612438Y-100640475D01*
X170612438Y-100640475D02*
X170564819Y-100545237D01*
X171469580Y-99783332D02*
X171517200Y-99735713D01*
X171517200Y-99735713D02*
X171564819Y-99783332D01*
X171564819Y-99783332D02*
X171517200Y-99830951D01*
X171517200Y-99830951D02*
X171469580Y-99783332D01*
X171469580Y-99783332D02*
X171564819Y-99783332D01*
X171564819Y-98783333D02*
X171564819Y-99354761D01*
X171564819Y-99069047D02*
X170564819Y-99069047D01*
X170564819Y-99069047D02*
X170707676Y-99164285D01*
X170707676Y-99164285D02*
X170802914Y-99259523D01*
X170802914Y-99259523D02*
X170850533Y-99354761D01*
X170898152Y-97926190D02*
X171564819Y-97926190D01*
X170898152Y-98354761D02*
X171421961Y-98354761D01*
X171421961Y-98354761D02*
X171517200Y-98307142D01*
X171517200Y-98307142D02*
X171564819Y-98211904D01*
X171564819Y-98211904D02*
X171564819Y-98069047D01*
X171564819Y-98069047D02*
X171517200Y-97973809D01*
X171517200Y-97973809D02*
X171469580Y-97926190D01*
X171041009Y-97116666D02*
X171041009Y-97449999D01*
X171564819Y-97449999D02*
X170564819Y-97449999D01*
X170564819Y-97449999D02*
X170564819Y-96973809D01*
X171517200Y-96545237D02*
X171564819Y-96545237D01*
X171564819Y-96545237D02*
X171660057Y-96592856D01*
X171660057Y-96592856D02*
X171707676Y-96640475D01*
X171564819Y-94830952D02*
X171564819Y-95402380D01*
X171564819Y-95116666D02*
X170564819Y-95116666D01*
X170564819Y-95116666D02*
X170707676Y-95211904D01*
X170707676Y-95211904D02*
X170802914Y-95307142D01*
X170802914Y-95307142D02*
X170850533Y-95402380D01*
X170564819Y-93973809D02*
X170564819Y-94164285D01*
X170564819Y-94164285D02*
X170612438Y-94259523D01*
X170612438Y-94259523D02*
X170660057Y-94307142D01*
X170660057Y-94307142D02*
X170802914Y-94402380D01*
X170802914Y-94402380D02*
X170993390Y-94449999D01*
X170993390Y-94449999D02*
X171374342Y-94449999D01*
X171374342Y-94449999D02*
X171469580Y-94402380D01*
X171469580Y-94402380D02*
X171517200Y-94354761D01*
X171517200Y-94354761D02*
X171564819Y-94259523D01*
X171564819Y-94259523D02*
X171564819Y-94069047D01*
X171564819Y-94069047D02*
X171517200Y-93973809D01*
X171517200Y-93973809D02*
X171469580Y-93926190D01*
X171469580Y-93926190D02*
X171374342Y-93878571D01*
X171374342Y-93878571D02*
X171136247Y-93878571D01*
X171136247Y-93878571D02*
X171041009Y-93926190D01*
X171041009Y-93926190D02*
X170993390Y-93973809D01*
X170993390Y-93973809D02*
X170945771Y-94069047D01*
X170945771Y-94069047D02*
X170945771Y-94259523D01*
X170945771Y-94259523D02*
X170993390Y-94354761D01*
X170993390Y-94354761D02*
X171041009Y-94402380D01*
X171041009Y-94402380D02*
X171136247Y-94449999D01*
X170898152Y-93545237D02*
X171564819Y-93307142D01*
X171564819Y-93307142D02*
X170898152Y-93069047D01*
D11*
X170039765Y-96991666D02*
X170051670Y-97003570D01*
X170051670Y-97003570D02*
X170063574Y-97039285D01*
X170063574Y-97039285D02*
X170063574Y-97063094D01*
X170063574Y-97063094D02*
X170051670Y-97098808D01*
X170051670Y-97098808D02*
X170027860Y-97122618D01*
X170027860Y-97122618D02*
X170004050Y-97134523D01*
X170004050Y-97134523D02*
X169956431Y-97146427D01*
X169956431Y-97146427D02*
X169920717Y-97146427D01*
X169920717Y-97146427D02*
X169873098Y-97134523D01*
X169873098Y-97134523D02*
X169849289Y-97122618D01*
X169849289Y-97122618D02*
X169825479Y-97098808D01*
X169825479Y-97098808D02*
X169813574Y-97063094D01*
X169813574Y-97063094D02*
X169813574Y-97039285D01*
X169813574Y-97039285D02*
X169825479Y-97003570D01*
X169825479Y-97003570D02*
X169837384Y-96991666D01*
X169837384Y-96896427D02*
X169825479Y-96884523D01*
X169825479Y-96884523D02*
X169813574Y-96860713D01*
X169813574Y-96860713D02*
X169813574Y-96801189D01*
X169813574Y-96801189D02*
X169825479Y-96777380D01*
X169825479Y-96777380D02*
X169837384Y-96765475D01*
X169837384Y-96765475D02*
X169861193Y-96753570D01*
X169861193Y-96753570D02*
X169885003Y-96753570D01*
X169885003Y-96753570D02*
X169920717Y-96765475D01*
X169920717Y-96765475D02*
X170063574Y-96908332D01*
X170063574Y-96908332D02*
X170063574Y-96753570D01*
D10*
X175811905Y-102419104D02*
X176288095Y-102419104D01*
X175716667Y-102704819D02*
X176050000Y-101704819D01*
X176050000Y-101704819D02*
X176383333Y-102704819D01*
X174788095Y-98704819D02*
X175359523Y-98704819D01*
X175073809Y-99704819D02*
X175073809Y-98704819D01*
X175692857Y-99704819D02*
X175692857Y-98704819D01*
X175692857Y-98704819D02*
X176073809Y-98704819D01*
X176073809Y-98704819D02*
X176169047Y-98752438D01*
X176169047Y-98752438D02*
X176216666Y-98800057D01*
X176216666Y-98800057D02*
X176264285Y-98895295D01*
X176264285Y-98895295D02*
X176264285Y-99038152D01*
X176264285Y-99038152D02*
X176216666Y-99133390D01*
X176216666Y-99133390D02*
X176169047Y-99181009D01*
X176169047Y-99181009D02*
X176073809Y-99228628D01*
X176073809Y-99228628D02*
X175692857Y-99228628D01*
X177169047Y-98704819D02*
X176692857Y-98704819D01*
X176692857Y-98704819D02*
X176645238Y-99181009D01*
X176645238Y-99181009D02*
X176692857Y-99133390D01*
X176692857Y-99133390D02*
X176788095Y-99085771D01*
X176788095Y-99085771D02*
X177026190Y-99085771D01*
X177026190Y-99085771D02*
X177121428Y-99133390D01*
X177121428Y-99133390D02*
X177169047Y-99181009D01*
X177169047Y-99181009D02*
X177216666Y-99276247D01*
X177216666Y-99276247D02*
X177216666Y-99514342D01*
X177216666Y-99514342D02*
X177169047Y-99609580D01*
X177169047Y-99609580D02*
X177121428Y-99657200D01*
X177121428Y-99657200D02*
X177026190Y-99704819D01*
X177026190Y-99704819D02*
X176788095Y-99704819D01*
X176788095Y-99704819D02*
X176692857Y-99657200D01*
X176692857Y-99657200D02*
X176645238Y-99609580D01*
X170674819Y-105171428D02*
X170674819Y-105742856D01*
X170674819Y-105457142D02*
X169674819Y-105457142D01*
X169674819Y-105457142D02*
X169817676Y-105552380D01*
X169817676Y-105552380D02*
X169912914Y-105647618D01*
X169912914Y-105647618D02*
X169960533Y-105742856D01*
X169674819Y-104552380D02*
X169674819Y-104457142D01*
X169674819Y-104457142D02*
X169722438Y-104361904D01*
X169722438Y-104361904D02*
X169770057Y-104314285D01*
X169770057Y-104314285D02*
X169865295Y-104266666D01*
X169865295Y-104266666D02*
X170055771Y-104219047D01*
X170055771Y-104219047D02*
X170293866Y-104219047D01*
X170293866Y-104219047D02*
X170484342Y-104266666D01*
X170484342Y-104266666D02*
X170579580Y-104314285D01*
X170579580Y-104314285D02*
X170627200Y-104361904D01*
X170627200Y-104361904D02*
X170674819Y-104457142D01*
X170674819Y-104457142D02*
X170674819Y-104552380D01*
X170674819Y-104552380D02*
X170627200Y-104647618D01*
X170627200Y-104647618D02*
X170579580Y-104695237D01*
X170579580Y-104695237D02*
X170484342Y-104742856D01*
X170484342Y-104742856D02*
X170293866Y-104790475D01*
X170293866Y-104790475D02*
X170055771Y-104790475D01*
X170055771Y-104790475D02*
X169865295Y-104742856D01*
X169865295Y-104742856D02*
X169770057Y-104695237D01*
X169770057Y-104695237D02*
X169722438Y-104647618D01*
X169722438Y-104647618D02*
X169674819Y-104552380D01*
X169674819Y-103599999D02*
X169674819Y-103504761D01*
X169674819Y-103504761D02*
X169722438Y-103409523D01*
X169722438Y-103409523D02*
X169770057Y-103361904D01*
X169770057Y-103361904D02*
X169865295Y-103314285D01*
X169865295Y-103314285D02*
X170055771Y-103266666D01*
X170055771Y-103266666D02*
X170293866Y-103266666D01*
X170293866Y-103266666D02*
X170484342Y-103314285D01*
X170484342Y-103314285D02*
X170579580Y-103361904D01*
X170579580Y-103361904D02*
X170627200Y-103409523D01*
X170627200Y-103409523D02*
X170674819Y-103504761D01*
X170674819Y-103504761D02*
X170674819Y-103599999D01*
X170674819Y-103599999D02*
X170627200Y-103695237D01*
X170627200Y-103695237D02*
X170579580Y-103742856D01*
X170579580Y-103742856D02*
X170484342Y-103790475D01*
X170484342Y-103790475D02*
X170293866Y-103838094D01*
X170293866Y-103838094D02*
X170055771Y-103838094D01*
X170055771Y-103838094D02*
X169865295Y-103790475D01*
X169865295Y-103790475D02*
X169770057Y-103742856D01*
X169770057Y-103742856D02*
X169722438Y-103695237D01*
X169722438Y-103695237D02*
X169674819Y-103599999D01*
X170674819Y-102838094D02*
X169674819Y-102838094D01*
X170293866Y-102742856D02*
X170674819Y-102457142D01*
X170008152Y-102457142D02*
X170389104Y-102838094D01*
D11*
X169168200Y-104143332D02*
X169044391Y-104229999D01*
X169168200Y-104291904D02*
X168908200Y-104291904D01*
X168908200Y-104291904D02*
X168908200Y-104192856D01*
X168908200Y-104192856D02*
X168920581Y-104168094D01*
X168920581Y-104168094D02*
X168932962Y-104155713D01*
X168932962Y-104155713D02*
X168957724Y-104143332D01*
X168957724Y-104143332D02*
X168994867Y-104143332D01*
X168994867Y-104143332D02*
X169019629Y-104155713D01*
X169019629Y-104155713D02*
X169032010Y-104168094D01*
X169032010Y-104168094D02*
X169044391Y-104192856D01*
X169044391Y-104192856D02*
X169044391Y-104291904D01*
X168932962Y-104044285D02*
X168920581Y-104031904D01*
X168920581Y-104031904D02*
X168908200Y-104007142D01*
X168908200Y-104007142D02*
X168908200Y-103945237D01*
X168908200Y-103945237D02*
X168920581Y-103920475D01*
X168920581Y-103920475D02*
X168932962Y-103908094D01*
X168932962Y-103908094D02*
X168957724Y-103895713D01*
X168957724Y-103895713D02*
X168982486Y-103895713D01*
X168982486Y-103895713D02*
X169019629Y-103908094D01*
X169019629Y-103908094D02*
X169168200Y-104056666D01*
X169168200Y-104056666D02*
X169168200Y-103895713D01*
D12*
%TO.C,C1*%
X172941987Y-103016506D02*
X173191987Y-102583494D01*
X173191987Y-102583494D02*
X174058013Y-103083494D01*
X173808013Y-103516506D02*
X172941987Y-103016506D01*
X174058013Y-103083494D02*
X173808013Y-103516506D01*
%TO.C,C3*%
X168450000Y-96300000D02*
X168950000Y-96300000D01*
X168450000Y-97300000D02*
X168450000Y-96300000D01*
X168950000Y-96300000D02*
X168950000Y-97300000D01*
X168950000Y-97300000D02*
X168450000Y-97300000D01*
D10*
%TO.C,U1*%
X169700001Y-98870000D02*
X169700001Y-101969998D01*
X169700001Y-98870000D02*
X172799999Y-98870000D01*
X169700001Y-101969998D02*
X172799999Y-101969998D01*
X172799999Y-98870000D02*
X172799999Y-101969998D01*
D12*
%TO.C,R3*%
X173753673Y-101869663D02*
X174278673Y-100960337D01*
X174221327Y-102139663D02*
X173753673Y-101869663D01*
X174278673Y-100960337D02*
X174746327Y-101230337D01*
X174746327Y-101230337D02*
X174221327Y-102139663D01*
%TO.C,C2*%
X169700000Y-96450000D02*
X170200000Y-96450000D01*
X169700000Y-97450000D02*
X169700000Y-96450000D01*
X170200000Y-96450000D02*
X170200000Y-97450000D01*
X170200000Y-97450000D02*
X169700000Y-97450000D01*
%TO.C,R2*%
X168780000Y-103575000D02*
X169320000Y-103575000D01*
X168780000Y-104625000D02*
X168780000Y-103575000D01*
X169320000Y-103575000D02*
X169320000Y-104625000D01*
X169320000Y-104625000D02*
X168780000Y-104625000D01*
%TD*%
M02*
