M48
; DRILL file {KiCad 8.0.5-8.0.5-0~ubuntu24.04.1} date 2024-09-15T15:22:37-0600
; FORMAT={-:-/ absolute / metric / decimal}
; #@! TF.CreationDate,2024-09-15T15:22:37-06:00
; #@! TF.GenerationSoftware,Kicad,Pcbnew,8.0.5-8.0.5-0~ubuntu24.04.1
; #@! TF.FileFunction,Plated,1,4,PTH
FMAT,2
METRIC
; #@! TA.AperFunction,Plated,PTH,ViaDrill
T1C0.300
; #@! TA.AperFunction,Plated,PTH,ComponentDrill
T2C0.300
; #@! TA.AperFunction,Plated,PTH,ComponentDrill
T3C0.650
%
G90
G05
T1
X166.6Y-99.85
X166.65Y-98.85
X167.4Y-99.9
X167.805Y-96.86
X169.4Y-103.861
X169.475Y-96.676
X169.706Y-105.175
X170.0Y-96.05
X170.328Y-102.598
X170.674Y-97.893
X171.268Y-97.259
X171.319Y-95.95
X171.88Y-97.872
X172.8Y-98.147
X173.116Y-102.216
X173.77Y-100.676
X173.908Y-102.556
X174.05Y-97.3
X174.14Y-104.551
X174.543Y-100.25
X174.6Y-96.7
X175.05Y-97.4
X175.172Y-103.595
X175.65Y-98.05
X175.85Y-98.85
X175.996Y-101.832
X176.247Y-99.72
T2
X170.55Y-99.72
X170.55Y-101.12
X171.25Y-100.445
X171.95Y-99.72
X171.95Y-101.12
T3
X166.6Y-101.1
X166.9Y-102.35
X167.6Y-103.45
M30
