%TF.GenerationSoftware,KiCad,Pcbnew,8.0.5-8.0.5-0~ubuntu24.04.1*%
%TF.CreationDate,2024-09-15T15:23:13-06:00*%
%TF.ProjectId,DRV8311 on motor driver,44525638-3331-4312-906f-6e206d6f746f,rev?*%
%TF.SameCoordinates,Original*%
%TF.FileFunction,Soldermask,Top*%
%TF.FilePolarity,Negative*%
%FSLAX46Y46*%
G04 Gerber Fmt 4.6, Leading zero omitted, Abs format (unit mm)*
G04 Created by KiCad (PCBNEW 8.0.5-8.0.5-0~ubuntu24.04.1) date 2024-09-15 15:23:13*
%MOMM*%
%LPD*%
G01*
G04 APERTURE LIST*
G04 Aperture macros list*
%AMRoundRect*
0 Rectangle with rounded corners*
0 $1 Rounding radius*
0 $2 $3 $4 $5 $6 $7 $8 $9 X,Y pos of 4 corners*
0 Add a 4 corners polygon primitive as box body*
4,1,4,$2,$3,$4,$5,$6,$7,$8,$9,$2,$3,0*
0 Add four circle primitives for the rounded corners*
1,1,$1+$1,$2,$3*
1,1,$1+$1,$4,$5*
1,1,$1+$1,$6,$7*
1,1,$1+$1,$8,$9*
0 Add four rect primitives between the rounded corners*
20,1,$1+$1,$2,$3,$4,$5,0*
20,1,$1+$1,$4,$5,$6,$7,0*
20,1,$1+$1,$6,$7,$8,$9,0*
20,1,$1+$1,$8,$9,$2,$3,0*%
G04 Aperture macros list end*
%ADD10O,1.000000X1.000000*%
%ADD11RoundRect,0.140000X0.206244X0.077224X-0.036244X0.217224X-0.206244X-0.077224X0.036244X-0.217224X0*%
%ADD12C,2.000000*%
%ADD13RoundRect,0.140000X0.170000X-0.140000X0.170000X0.140000X-0.170000X0.140000X-0.170000X-0.140000X0*%
%ADD14R,0.200000X0.469999*%
%ADD15R,0.469999X0.200000*%
%ADD16C,0.600000*%
%ADD17R,1.899999X1.899999*%
%ADD18C,1.000000*%
%ADD19RoundRect,0.135000X0.092715X-0.209413X0.227715X0.024413X-0.092715X0.209413X-0.227715X-0.024413X0*%
%ADD20RoundRect,0.135000X0.185000X-0.135000X0.185000X0.135000X-0.185000X0.135000X-0.185000X-0.135000X0*%
G04 APERTURE END LIST*
D10*
%TO.C,J3*%
X167600000Y-103450000D03*
%TD*%
D11*
%TO.C,C1*%
X173915692Y-103290000D03*
X173084308Y-102810000D03*
%TD*%
D12*
%TO.C,TP2*%
X172750000Y-96400000D03*
%TD*%
D13*
%TO.C,C3*%
X168700000Y-97280000D03*
X168700000Y-96320000D03*
%TD*%
D14*
%TO.C,U1*%
X172450000Y-98954998D03*
X172050001Y-98954998D03*
X171649999Y-98954998D03*
X171250000Y-98954998D03*
X170850001Y-98954998D03*
X170449999Y-98954998D03*
X170050000Y-98954998D03*
D15*
X169784999Y-99749998D03*
X169784999Y-100150000D03*
X169784999Y-100549999D03*
X169784999Y-100949998D03*
X169784999Y-101350000D03*
D14*
X170050000Y-101885000D03*
X170449999Y-101885000D03*
X170850001Y-101885000D03*
X171250000Y-101885000D03*
X171649999Y-101885000D03*
X172050001Y-101885000D03*
X172450000Y-101885000D03*
D15*
X172715001Y-101350000D03*
X172715001Y-100949998D03*
X172715001Y-100549999D03*
X172715001Y-100150000D03*
X172715001Y-99749998D03*
D16*
X171950001Y-99719998D03*
X170549999Y-99719998D03*
D17*
X171250000Y-100419999D03*
D16*
X171250000Y-100445399D03*
X171950001Y-101120000D03*
X170549999Y-101120000D03*
%TD*%
D10*
%TO.C,J1*%
X166900000Y-102350000D03*
%TD*%
D18*
%TO.C,TP7*%
X175500000Y-102700000D03*
%TD*%
%TO.C,TP8*%
X173150000Y-104850000D03*
%TD*%
D10*
%TO.C,J2*%
X166600000Y-101100000D03*
%TD*%
D19*
%TO.C,R3*%
X173995000Y-101991673D03*
X174505000Y-101108327D03*
%TD*%
D13*
%TO.C,C2*%
X169950000Y-97430000D03*
X169950000Y-96470000D03*
%TD*%
D18*
%TO.C,TP5*%
X176050000Y-100700000D03*
%TD*%
D20*
%TO.C,R2*%
X169050000Y-104609999D03*
X169050000Y-103590001D03*
%TD*%
M02*
