%TF.GenerationSoftware,KiCad,Pcbnew,8.0.5-8.0.5-0~ubuntu24.04.1*%
%TF.CreationDate,2024-09-15T15:23:13-06:00*%
%TF.ProjectId,DRV8311 on motor driver,44525638-3331-4312-906f-6e206d6f746f,rev?*%
%TF.SameCoordinates,Original*%
%TF.FileFunction,Copper,L2,Inr*%
%TF.FilePolarity,Positive*%
%FSLAX46Y46*%
G04 Gerber Fmt 4.6, Leading zero omitted, Abs format (unit mm)*
G04 Created by KiCad (PCBNEW 8.0.5-8.0.5-0~ubuntu24.04.1) date 2024-09-15 15:23:13*
%MOMM*%
%LPD*%
G01*
G04 APERTURE LIST*
%TA.AperFunction,ComponentPad*%
%ADD10O,1.000000X1.000000*%
%TD*%
%TA.AperFunction,ComponentPad*%
%ADD11C,0.600000*%
%TD*%
%TA.AperFunction,ViaPad*%
%ADD12C,0.600000*%
%TD*%
%TA.AperFunction,Conductor*%
%ADD13C,0.200000*%
%TD*%
G04 APERTURE END LIST*
D10*
%TO.N,Net-(J3-Pin_1)*%
%TO.C,J3*%
X167600000Y-103450000D03*
%TD*%
D11*
%TO.N,GND*%
%TO.C,U1*%
X171950001Y-99719998D03*
X170549999Y-99719998D03*
X171250000Y-100445399D03*
X171950001Y-101120000D03*
X170549999Y-101120000D03*
%TD*%
D10*
%TO.N,Net-(J1-Pin_1)*%
%TO.C,J1*%
X166900000Y-102350000D03*
%TD*%
%TO.N,Net-(J2-Pin_1)*%
%TO.C,J2*%
X166600000Y-101100000D03*
%TD*%
D12*
%TO.N,+3.3V*%
X172799751Y-98147108D03*
X173116373Y-102216373D03*
X173769874Y-100675546D03*
%TO.N,GND*%
X167804580Y-96860461D03*
X175850000Y-98850000D03*
X175650000Y-98050000D03*
X174600000Y-96700000D03*
X169705640Y-105174954D03*
X174050000Y-97300000D03*
X173908365Y-102555608D03*
X175050000Y-97400000D03*
%TO.N,VDD*%
X170000000Y-96050000D03*
X169475248Y-96675624D03*
X166650000Y-98850000D03*
X167400000Y-99900000D03*
X166600000Y-99850000D03*
X171319090Y-95950000D03*
%TO.N,Net-(U1-SLEEP_N)*%
X174543328Y-100249977D03*
X169400000Y-103860612D03*
%TO.N,Net-(U1-SOA)*%
X170673748Y-97893002D03*
X174140084Y-104551384D03*
%TO.N,Net-(U1-SOB)*%
X171268000Y-97258800D03*
X175996140Y-101831754D03*
%TO.N,Net-(U1-SOC)*%
X171879907Y-97871564D03*
X176247018Y-99719598D03*
%TO.N,Net-(U1-INHB)*%
X170327877Y-102597695D03*
X175172494Y-103594849D03*
%TD*%
D13*
%TO.N,+3.3V*%
X172850000Y-98197357D02*
X172850000Y-99350000D01*
X173769874Y-100269874D02*
X173769874Y-100675546D01*
X172850000Y-99350000D02*
X173769874Y-100269874D01*
X172799751Y-98147108D02*
X172850000Y-98197357D01*
%TD*%
%TA.AperFunction,Conductor*%
%TO.N,GND*%
G36*
X171752984Y-95156740D02*
G01*
X171756825Y-95156908D01*
X171765864Y-95157699D01*
X172215230Y-95216859D01*
X172224144Y-95218430D01*
X172666656Y-95316533D01*
X172675419Y-95318881D01*
X173107691Y-95455176D01*
X173116218Y-95458280D01*
X173534948Y-95631724D01*
X173543161Y-95635553D01*
X173611570Y-95671165D01*
X173945198Y-95844840D01*
X173953053Y-95849375D01*
X174086041Y-95934098D01*
X174335316Y-96092904D01*
X174342748Y-96098108D01*
X174702324Y-96374019D01*
X174709272Y-96379848D01*
X174861285Y-96519143D01*
X175043442Y-96686060D01*
X175049856Y-96692474D01*
X175269458Y-96932127D01*
X175356066Y-97026642D01*
X175361898Y-97033593D01*
X175637809Y-97393169D01*
X175643013Y-97400601D01*
X175886541Y-97782862D01*
X175891077Y-97790719D01*
X176100361Y-98192751D01*
X176104195Y-98200974D01*
X176277637Y-98619700D01*
X176280741Y-98628226D01*
X176417036Y-99060498D01*
X176419383Y-99069258D01*
X176422338Y-99082585D01*
X176416180Y-99146565D01*
X176373591Y-99194706D01*
X176320804Y-99209098D01*
X176320417Y-99209098D01*
X176173619Y-99209098D01*
X176173617Y-99209098D01*
X176173613Y-99209099D01*
X176032769Y-99250454D01*
X175909275Y-99329819D01*
X175909274Y-99329819D01*
X175909274Y-99329820D01*
X175866239Y-99379484D01*
X175813140Y-99440763D01*
X175752159Y-99574292D01*
X175752157Y-99574299D01*
X175731268Y-99719594D01*
X175731268Y-99719601D01*
X175752157Y-99864896D01*
X175752159Y-99864903D01*
X175813140Y-99998432D01*
X175813141Y-99998434D01*
X175909274Y-100109376D01*
X176032768Y-100188741D01*
X176173619Y-100230098D01*
X176173622Y-100230098D01*
X176320414Y-100230098D01*
X176320417Y-100230098D01*
X176417648Y-100201548D01*
X176459147Y-100189364D01*
X176523396Y-100191199D01*
X176574296Y-100230449D01*
X176592348Y-100284614D01*
X176598779Y-100431903D01*
X176598779Y-100440976D01*
X176579009Y-100893787D01*
X176578218Y-100902826D01*
X176519060Y-101352181D01*
X176517485Y-101361117D01*
X176510553Y-101392384D01*
X176477930Y-101447765D01*
X176418985Y-101473394D01*
X176356233Y-101459482D01*
X176340160Y-101446091D01*
X176339506Y-101446847D01*
X176333885Y-101441976D01*
X176210388Y-101362610D01*
X176069544Y-101321255D01*
X176069541Y-101321254D01*
X176069539Y-101321254D01*
X175922741Y-101321254D01*
X175922739Y-101321254D01*
X175922735Y-101321255D01*
X175781891Y-101362610D01*
X175658397Y-101441975D01*
X175562262Y-101552919D01*
X175501281Y-101686448D01*
X175501279Y-101686455D01*
X175480390Y-101831750D01*
X175480390Y-101831757D01*
X175501279Y-101977052D01*
X175501281Y-101977059D01*
X175551579Y-102087195D01*
X175562263Y-102110590D01*
X175658396Y-102221532D01*
X175781890Y-102300897D01*
X175922741Y-102342254D01*
X175922744Y-102342254D01*
X176069538Y-102342254D01*
X176069539Y-102342254D01*
X176069539Y-102342253D01*
X176070804Y-102342072D01*
X176071856Y-102342254D01*
X176076977Y-102342254D01*
X176076977Y-102343140D01*
X176134138Y-102353031D01*
X176178935Y-102399124D01*
X176188084Y-102462745D01*
X176181691Y-102484812D01*
X176104191Y-102671915D01*
X176100356Y-102680138D01*
X175891077Y-103082160D01*
X175886541Y-103090017D01*
X175759814Y-103288937D01*
X175710217Y-103329822D01*
X175646061Y-103333745D01*
X175593505Y-103301165D01*
X175510238Y-103205071D01*
X175386744Y-103125706D01*
X175386743Y-103125705D01*
X175386742Y-103125705D01*
X175245898Y-103084350D01*
X175245895Y-103084349D01*
X175245893Y-103084349D01*
X175099095Y-103084349D01*
X175099093Y-103084349D01*
X175099089Y-103084350D01*
X174958245Y-103125705D01*
X174834751Y-103205070D01*
X174738616Y-103316014D01*
X174677635Y-103449543D01*
X174677633Y-103449550D01*
X174656744Y-103594845D01*
X174656744Y-103594852D01*
X174677633Y-103740147D01*
X174677635Y-103740154D01*
X174700652Y-103790553D01*
X174738617Y-103873685D01*
X174834750Y-103984627D01*
X174958244Y-104063992D01*
X174958247Y-104063993D01*
X174961755Y-104065595D01*
X174964130Y-104067775D01*
X174964502Y-104068014D01*
X174964460Y-104068078D01*
X175009111Y-104109056D01*
X175021876Y-104172051D01*
X174995177Y-104230519D01*
X174988815Y-104236875D01*
X174790313Y-104418769D01*
X174731825Y-104445423D01*
X174668840Y-104432609D01*
X174625451Y-104385296D01*
X174573961Y-104272548D01*
X174477828Y-104161606D01*
X174354334Y-104082241D01*
X174354333Y-104082240D01*
X174354332Y-104082240D01*
X174213488Y-104040885D01*
X174213485Y-104040884D01*
X174213483Y-104040884D01*
X174066685Y-104040884D01*
X174066683Y-104040884D01*
X174066679Y-104040885D01*
X173925835Y-104082240D01*
X173802341Y-104161605D01*
X173706206Y-104272549D01*
X173645225Y-104406078D01*
X173645223Y-104406085D01*
X173624334Y-104551380D01*
X173624334Y-104551387D01*
X173645223Y-104696682D01*
X173645225Y-104696688D01*
X173706207Y-104830220D01*
X173775007Y-104909618D01*
X173802341Y-104941163D01*
X173802956Y-104941696D01*
X173803305Y-104942276D01*
X173807211Y-104946783D01*
X173806430Y-104947458D01*
X173836146Y-104996740D01*
X173830644Y-105060779D01*
X173788551Y-105109354D01*
X173782870Y-105112541D01*
X173543166Y-105237323D01*
X173534943Y-105241157D01*
X173116217Y-105414599D01*
X173107691Y-105417703D01*
X172675419Y-105553998D01*
X172666656Y-105556346D01*
X172224154Y-105654447D01*
X172215219Y-105656022D01*
X171765864Y-105715180D01*
X171756825Y-105715971D01*
X171304014Y-105735741D01*
X171294942Y-105735741D01*
X170842130Y-105715971D01*
X170833091Y-105715180D01*
X170383736Y-105656022D01*
X170374801Y-105654447D01*
X169932299Y-105556346D01*
X169923536Y-105553998D01*
X169491264Y-105417703D01*
X169482738Y-105414599D01*
X169064012Y-105241157D01*
X169055789Y-105237323D01*
X168653757Y-105028039D01*
X168645900Y-105023503D01*
X168263639Y-104779975D01*
X168256207Y-104774771D01*
X167896631Y-104498860D01*
X167889680Y-104493028D01*
X167703757Y-104322660D01*
X167672107Y-104266717D01*
X167679383Y-104202855D01*
X167722807Y-104155466D01*
X167749124Y-104145007D01*
X167853797Y-104119208D01*
X167896320Y-104096890D01*
X168006567Y-104039028D01*
X168006569Y-104039026D01*
X168006574Y-104039024D01*
X168135723Y-103924609D01*
X168179900Y-103860608D01*
X168884250Y-103860608D01*
X168884250Y-103860615D01*
X168905139Y-104005910D01*
X168905141Y-104005917D01*
X168952243Y-104109056D01*
X168966123Y-104139448D01*
X169062256Y-104250390D01*
X169185750Y-104329755D01*
X169326601Y-104371112D01*
X169326604Y-104371112D01*
X169473396Y-104371112D01*
X169473399Y-104371112D01*
X169614250Y-104329755D01*
X169737744Y-104250390D01*
X169833877Y-104139448D01*
X169894859Y-104005916D01*
X169905316Y-103933183D01*
X169933675Y-103875505D01*
X169990522Y-103845509D01*
X170054143Y-103854656D01*
X170100238Y-103899452D01*
X170111813Y-103938390D01*
X170114884Y-103971533D01*
X170175769Y-104185523D01*
X170175770Y-104185525D01*
X170175771Y-104185528D01*
X170184399Y-104202855D01*
X170274938Y-104384682D01*
X170274942Y-104384689D01*
X170400826Y-104551387D01*
X170409021Y-104562238D01*
X170409023Y-104562241D01*
X170487762Y-104634020D01*
X170573438Y-104712124D01*
X170762599Y-104829247D01*
X170970060Y-104909618D01*
X171188749Y-104950499D01*
X171188755Y-104950499D01*
X171188757Y-104950500D01*
X171188758Y-104950500D01*
X171411242Y-104950500D01*
X171411243Y-104950500D01*
X171411245Y-104950499D01*
X171411250Y-104950499D01*
X171547431Y-104925041D01*
X171629940Y-104909618D01*
X171837401Y-104829247D01*
X172026562Y-104712124D01*
X172190981Y-104562236D01*
X172325058Y-104384689D01*
X172424229Y-104185528D01*
X172485115Y-103971536D01*
X172505643Y-103750000D01*
X172502428Y-103715308D01*
X172485115Y-103528466D01*
X172485115Y-103528464D01*
X172424229Y-103314472D01*
X172325058Y-103115311D01*
X172190981Y-102937764D01*
X172190978Y-102937761D01*
X172190976Y-102937758D01*
X172026564Y-102787878D01*
X172026562Y-102787876D01*
X171837401Y-102670753D01*
X171837399Y-102670752D01*
X171629939Y-102590381D01*
X171411250Y-102549500D01*
X171411243Y-102549500D01*
X171188757Y-102549500D01*
X171188749Y-102549500D01*
X170970067Y-102590380D01*
X170965440Y-102591697D01*
X170965038Y-102590284D01*
X170907010Y-102593493D01*
X170853004Y-102558642D01*
X170830696Y-102507762D01*
X170822736Y-102452391D01*
X170761754Y-102318859D01*
X170672945Y-102216369D01*
X172600623Y-102216369D01*
X172600623Y-102216376D01*
X172621512Y-102361671D01*
X172621514Y-102361678D01*
X172662944Y-102452396D01*
X172682496Y-102495209D01*
X172778629Y-102606151D01*
X172902123Y-102685516D01*
X173042974Y-102726873D01*
X173042977Y-102726873D01*
X173189769Y-102726873D01*
X173189772Y-102726873D01*
X173330623Y-102685516D01*
X173454117Y-102606151D01*
X173550250Y-102495209D01*
X173611232Y-102361677D01*
X173625950Y-102259311D01*
X173632123Y-102216376D01*
X173632123Y-102216369D01*
X173611233Y-102071074D01*
X173611231Y-102071067D01*
X173568299Y-101977059D01*
X173550250Y-101937537D01*
X173454117Y-101826595D01*
X173330623Y-101747230D01*
X173330622Y-101747229D01*
X173330621Y-101747229D01*
X173189777Y-101705874D01*
X173189774Y-101705873D01*
X173189772Y-101705873D01*
X173042974Y-101705873D01*
X173042972Y-101705873D01*
X173042968Y-101705874D01*
X172902124Y-101747229D01*
X172778630Y-101826594D01*
X172778629Y-101826594D01*
X172778629Y-101826595D01*
X172736343Y-101875395D01*
X172682495Y-101937538D01*
X172621514Y-102071067D01*
X172621512Y-102071074D01*
X172600623Y-102216369D01*
X170672945Y-102216369D01*
X170665621Y-102207917D01*
X170542127Y-102128552D01*
X170542126Y-102128551D01*
X170542125Y-102128551D01*
X170401281Y-102087196D01*
X170401278Y-102087195D01*
X170401276Y-102087195D01*
X170254478Y-102087195D01*
X170254476Y-102087195D01*
X170254472Y-102087196D01*
X170113628Y-102128551D01*
X169990134Y-102207916D01*
X169893999Y-102318860D01*
X169833018Y-102452389D01*
X169833016Y-102452396D01*
X169812127Y-102597691D01*
X169812127Y-102597698D01*
X169833016Y-102742993D01*
X169833018Y-102743000D01*
X169886894Y-102860971D01*
X169894000Y-102876531D01*
X169990133Y-102987473D01*
X170113627Y-103066838D01*
X170156275Y-103079360D01*
X170209331Y-103115638D01*
X170230932Y-103176175D01*
X170220071Y-103225503D01*
X170175775Y-103314463D01*
X170175769Y-103314476D01*
X170114884Y-103528466D01*
X170099110Y-103698696D01*
X170073692Y-103757732D01*
X170018428Y-103790553D01*
X169954427Y-103784623D01*
X169906135Y-103742206D01*
X169895765Y-103718396D01*
X169894859Y-103715313D01*
X169894859Y-103715308D01*
X169833877Y-103581776D01*
X169737744Y-103470834D01*
X169614250Y-103391469D01*
X169614249Y-103391468D01*
X169614248Y-103391468D01*
X169473404Y-103350113D01*
X169473401Y-103350112D01*
X169473399Y-103350112D01*
X169326601Y-103350112D01*
X169326599Y-103350112D01*
X169326595Y-103350113D01*
X169185751Y-103391468D01*
X169062257Y-103470833D01*
X168966122Y-103581777D01*
X168905141Y-103715306D01*
X168905139Y-103715313D01*
X168884250Y-103860608D01*
X168179900Y-103860608D01*
X168233737Y-103782611D01*
X168294921Y-103621283D01*
X168315718Y-103450000D01*
X168294921Y-103278717D01*
X168233737Y-103117389D01*
X168135723Y-102975391D01*
X168082347Y-102928104D01*
X168006576Y-102860977D01*
X168006567Y-102860971D01*
X167853801Y-102780793D01*
X167853797Y-102780792D01*
X167686270Y-102739500D01*
X167662832Y-102739500D01*
X167601702Y-102719638D01*
X167563922Y-102667638D01*
X167563922Y-102603362D01*
X167565590Y-102598621D01*
X167565940Y-102597698D01*
X167594921Y-102521283D01*
X167615718Y-102350000D01*
X167594921Y-102178717D01*
X167533737Y-102017389D01*
X167435723Y-101875391D01*
X167380642Y-101826594D01*
X167306576Y-101760977D01*
X167306570Y-101760973D01*
X167190672Y-101700145D01*
X167145775Y-101654150D01*
X167136489Y-101590548D01*
X167153414Y-101548979D01*
X167233737Y-101432611D01*
X167294921Y-101271283D01*
X167315718Y-101100000D01*
X167294921Y-100928717D01*
X167233737Y-100767389D01*
X167135723Y-100625391D01*
X167082347Y-100578104D01*
X167006576Y-100510977D01*
X167006567Y-100510971D01*
X166894557Y-100452184D01*
X166849660Y-100406189D01*
X166840372Y-100342588D01*
X166870243Y-100285675D01*
X166886661Y-100272607D01*
X166914081Y-100254984D01*
X166976245Y-100238646D01*
X167036141Y-100261965D01*
X167048904Y-100274370D01*
X167062254Y-100289777D01*
X167062256Y-100289778D01*
X167185750Y-100369143D01*
X167326601Y-100410500D01*
X167326604Y-100410500D01*
X167473396Y-100410500D01*
X167473399Y-100410500D01*
X167614250Y-100369143D01*
X167737744Y-100289778D01*
X167833877Y-100178836D01*
X167894859Y-100045304D01*
X167899805Y-100010900D01*
X167928163Y-99953221D01*
X167985009Y-99923225D01*
X168040313Y-99928723D01*
X168120060Y-99959618D01*
X168150424Y-99965294D01*
X168338749Y-100000499D01*
X168338755Y-100000499D01*
X168338757Y-100000500D01*
X168338758Y-100000500D01*
X168561242Y-100000500D01*
X168561243Y-100000500D01*
X168561245Y-100000499D01*
X168561250Y-100000499D01*
X168749576Y-99965294D01*
X168779940Y-99959618D01*
X168987401Y-99879247D01*
X169176562Y-99762124D01*
X169340981Y-99612236D01*
X169475058Y-99434689D01*
X169574229Y-99235528D01*
X169635115Y-99021536D01*
X169655643Y-98800000D01*
X169635115Y-98578464D01*
X169574229Y-98364472D01*
X169475058Y-98165311D01*
X169340981Y-97987764D01*
X169340978Y-97987761D01*
X169340976Y-97987758D01*
X169237028Y-97892998D01*
X170157998Y-97892998D01*
X170157998Y-97893005D01*
X170178887Y-98038300D01*
X170178889Y-98038307D01*
X170236890Y-98165310D01*
X170239871Y-98171838D01*
X170336004Y-98282780D01*
X170459498Y-98362145D01*
X170600349Y-98403502D01*
X170600352Y-98403502D01*
X170747144Y-98403502D01*
X170747147Y-98403502D01*
X170887998Y-98362145D01*
X171011492Y-98282780D01*
X171107625Y-98171838D01*
X171168607Y-98038306D01*
X171175427Y-97990868D01*
X171203785Y-97933190D01*
X171260632Y-97903193D01*
X171324253Y-97912340D01*
X171370348Y-97957135D01*
X171381309Y-97990868D01*
X171385046Y-98016863D01*
X171385048Y-98016869D01*
X171413731Y-98079675D01*
X171446030Y-98150400D01*
X171542163Y-98261342D01*
X171665657Y-98340707D01*
X171806508Y-98382064D01*
X171806511Y-98382064D01*
X171953303Y-98382064D01*
X171953306Y-98382064D01*
X172094157Y-98340707D01*
X172173158Y-98289935D01*
X172235320Y-98273596D01*
X172295217Y-98296915D01*
X172323985Y-98334221D01*
X172345283Y-98380857D01*
X172365875Y-98425946D01*
X172462006Y-98536885D01*
X172462010Y-98536888D01*
X172491725Y-98555984D01*
X172532413Y-98605741D01*
X172539500Y-98643475D01*
X172539500Y-99390883D01*
X172560659Y-99469847D01*
X172560661Y-99469852D01*
X172575189Y-99495014D01*
X172587415Y-99516191D01*
X172601539Y-99540653D01*
X173324308Y-100263422D01*
X173353489Y-100320692D01*
X173343434Y-100384176D01*
X173338264Y-100393180D01*
X173336000Y-100396703D01*
X173275015Y-100530240D01*
X173275013Y-100530247D01*
X173254124Y-100675542D01*
X173254124Y-100675549D01*
X173275013Y-100820844D01*
X173275015Y-100820850D01*
X173335997Y-100954382D01*
X173432130Y-101065324D01*
X173555624Y-101144689D01*
X173696475Y-101186046D01*
X173696478Y-101186046D01*
X173843270Y-101186046D01*
X173843273Y-101186046D01*
X173984124Y-101144689D01*
X174107618Y-101065324D01*
X174203751Y-100954382D01*
X174264733Y-100820850D01*
X174264734Y-100820844D01*
X174266828Y-100813714D01*
X174268994Y-100814350D01*
X174292651Y-100766234D01*
X174349497Y-100736238D01*
X174396534Y-100738927D01*
X174443013Y-100752573D01*
X174469929Y-100760477D01*
X174469932Y-100760477D01*
X174616724Y-100760477D01*
X174616727Y-100760477D01*
X174757578Y-100719120D01*
X174881072Y-100639755D01*
X174977205Y-100528813D01*
X175038187Y-100395281D01*
X175047348Y-100331562D01*
X175059078Y-100249980D01*
X175059078Y-100249973D01*
X175038188Y-100104678D01*
X175038186Y-100104671D01*
X175011075Y-100045305D01*
X174977205Y-99971141D01*
X174977204Y-99971140D01*
X174977204Y-99971139D01*
X174898014Y-99879751D01*
X174872993Y-99820546D01*
X174887550Y-99757941D01*
X174906543Y-99734792D01*
X175040981Y-99612236D01*
X175175058Y-99434689D01*
X175274229Y-99235528D01*
X175335115Y-99021536D01*
X175355643Y-98800000D01*
X175335115Y-98578464D01*
X175274229Y-98364472D01*
X175175058Y-98165311D01*
X175040981Y-97987764D01*
X175040978Y-97987761D01*
X175040976Y-97987758D01*
X174876564Y-97837878D01*
X174876562Y-97837876D01*
X174687401Y-97720753D01*
X174687399Y-97720752D01*
X174479939Y-97640381D01*
X174261250Y-97599500D01*
X174261243Y-97599500D01*
X174038757Y-97599500D01*
X174038749Y-97599500D01*
X173820060Y-97640381D01*
X173612600Y-97720752D01*
X173423438Y-97837875D01*
X173381497Y-97876109D01*
X173322940Y-97902613D01*
X173259988Y-97889635D01*
X173232837Y-97867357D01*
X173137496Y-97757330D01*
X173051970Y-97702366D01*
X173014001Y-97677965D01*
X173014000Y-97677964D01*
X173013999Y-97677964D01*
X172873155Y-97636609D01*
X172873152Y-97636608D01*
X172873150Y-97636608D01*
X172726352Y-97636608D01*
X172726350Y-97636608D01*
X172726346Y-97636609D01*
X172585502Y-97677963D01*
X172506499Y-97728736D01*
X172444335Y-97745075D01*
X172384439Y-97721755D01*
X172355671Y-97684448D01*
X172352710Y-97677964D01*
X172313784Y-97592728D01*
X172217651Y-97481786D01*
X172094157Y-97402421D01*
X172094156Y-97402420D01*
X172094155Y-97402420D01*
X171953311Y-97361065D01*
X171953308Y-97361064D01*
X171953306Y-97361064D01*
X171887750Y-97361064D01*
X171826620Y-97341202D01*
X171788840Y-97289202D01*
X171785182Y-97266108D01*
X171784809Y-97266162D01*
X171762860Y-97113501D01*
X171762858Y-97113494D01*
X171740895Y-97065402D01*
X171701877Y-96979964D01*
X171605744Y-96869022D01*
X171482250Y-96789657D01*
X171482249Y-96789656D01*
X171482248Y-96789656D01*
X171341404Y-96748301D01*
X171341401Y-96748300D01*
X171341399Y-96748300D01*
X171194601Y-96748300D01*
X171194599Y-96748300D01*
X171194595Y-96748301D01*
X171053751Y-96789656D01*
X170930257Y-96869021D01*
X170834122Y-96979965D01*
X170773141Y-97113494D01*
X170773139Y-97113501D01*
X170752250Y-97258796D01*
X170752250Y-97258799D01*
X170752955Y-97263704D01*
X170741993Y-97327038D01*
X170695898Y-97371833D01*
X170650013Y-97382502D01*
X170600349Y-97382502D01*
X170600347Y-97382502D01*
X170600343Y-97382503D01*
X170459499Y-97423858D01*
X170336005Y-97503223D01*
X170239870Y-97614167D01*
X170178889Y-97747696D01*
X170178887Y-97747703D01*
X170157998Y-97892998D01*
X169237028Y-97892998D01*
X169176564Y-97837878D01*
X169176562Y-97837876D01*
X168987401Y-97720753D01*
X168987399Y-97720752D01*
X168779939Y-97640381D01*
X168561250Y-97599500D01*
X168561243Y-97599500D01*
X168338757Y-97599500D01*
X168338749Y-97599500D01*
X168120060Y-97640381D01*
X167912600Y-97720752D01*
X167723435Y-97837878D01*
X167559023Y-97987758D01*
X167559021Y-97987761D01*
X167424942Y-98165310D01*
X167424938Y-98165317D01*
X167325773Y-98364468D01*
X167325770Y-98364474D01*
X167273798Y-98547135D01*
X167237964Y-98600495D01*
X167177610Y-98622602D01*
X167115789Y-98605012D01*
X167086277Y-98574899D01*
X167083877Y-98571165D01*
X167083877Y-98571164D01*
X166987744Y-98460222D01*
X166864250Y-98380857D01*
X166864249Y-98380856D01*
X166864248Y-98380856D01*
X166723404Y-98339501D01*
X166723401Y-98339500D01*
X166723399Y-98339500D01*
X166593589Y-98339500D01*
X166532459Y-98319638D01*
X166494679Y-98267638D01*
X166494679Y-98203362D01*
X166501340Y-98187478D01*
X166644567Y-97912340D01*
X166707884Y-97790707D01*
X166712407Y-97782873D01*
X166955949Y-97400590D01*
X166961139Y-97393178D01*
X167237069Y-97033578D01*
X167242876Y-97026656D01*
X167549110Y-96692462D01*
X167555500Y-96686072D01*
X167566906Y-96675620D01*
X168959498Y-96675620D01*
X168959498Y-96675627D01*
X168980387Y-96820922D01*
X168980389Y-96820929D01*
X169031172Y-96932127D01*
X169041371Y-96954460D01*
X169137504Y-97065402D01*
X169260998Y-97144767D01*
X169401849Y-97186124D01*
X169401852Y-97186124D01*
X169548644Y-97186124D01*
X169548647Y-97186124D01*
X169689498Y-97144767D01*
X169812992Y-97065402D01*
X169909125Y-96954460D01*
X169970107Y-96820928D01*
X169980549Y-96748300D01*
X169990998Y-96675627D01*
X169990998Y-96668186D01*
X169992844Y-96668186D01*
X170002203Y-96614059D01*
X170048290Y-96569256D01*
X170066560Y-96563613D01*
X170066262Y-96562596D01*
X170127743Y-96544543D01*
X170214250Y-96519143D01*
X170337744Y-96439778D01*
X170433877Y-96328836D01*
X170494859Y-96195304D01*
X170499198Y-96165124D01*
X170515750Y-96050003D01*
X170515750Y-96049996D01*
X170501372Y-95949996D01*
X170803340Y-95949996D01*
X170803340Y-95950003D01*
X170824229Y-96095298D01*
X170824231Y-96095305D01*
X170869897Y-96195298D01*
X170885213Y-96228836D01*
X170981346Y-96339778D01*
X171104840Y-96419143D01*
X171245691Y-96460500D01*
X171245694Y-96460500D01*
X171392486Y-96460500D01*
X171392489Y-96460500D01*
X171533340Y-96419143D01*
X171656834Y-96339778D01*
X171752967Y-96228836D01*
X171813949Y-96095304D01*
X171834840Y-95950000D01*
X171834840Y-95949996D01*
X171813950Y-95804701D01*
X171813948Y-95804694D01*
X171752967Y-95671165D01*
X171752967Y-95671164D01*
X171656834Y-95560222D01*
X171533340Y-95480857D01*
X171533339Y-95480856D01*
X171533338Y-95480856D01*
X171392494Y-95439501D01*
X171392491Y-95439500D01*
X171392489Y-95439500D01*
X171245691Y-95439500D01*
X171245689Y-95439500D01*
X171245685Y-95439501D01*
X171104841Y-95480856D01*
X170981347Y-95560221D01*
X170981346Y-95560221D01*
X170981346Y-95560222D01*
X170933279Y-95615693D01*
X170885212Y-95671165D01*
X170824231Y-95804694D01*
X170824229Y-95804701D01*
X170803340Y-95949996D01*
X170501372Y-95949996D01*
X170494860Y-95904701D01*
X170494858Y-95904694D01*
X170468482Y-95846938D01*
X170433877Y-95771164D01*
X170337744Y-95660222D01*
X170214250Y-95580857D01*
X170214249Y-95580856D01*
X170214248Y-95580856D01*
X170073404Y-95539501D01*
X170073401Y-95539500D01*
X170073399Y-95539500D01*
X169926601Y-95539500D01*
X169926599Y-95539500D01*
X169926595Y-95539501D01*
X169785751Y-95580856D01*
X169662257Y-95660221D01*
X169566122Y-95771165D01*
X169505141Y-95904694D01*
X169505139Y-95904701D01*
X169484250Y-96049996D01*
X169484250Y-96057438D01*
X169482406Y-96057438D01*
X169473037Y-96111578D01*
X169426943Y-96156374D01*
X169408689Y-96162017D01*
X169408986Y-96163028D01*
X169260999Y-96206480D01*
X169137505Y-96285845D01*
X169137504Y-96285845D01*
X169137504Y-96285846D01*
X169090771Y-96339778D01*
X169041370Y-96396789D01*
X168980389Y-96530318D01*
X168980387Y-96530325D01*
X168959498Y-96675620D01*
X167566906Y-96675620D01*
X167889694Y-96379838D01*
X167896616Y-96374031D01*
X168256216Y-96098101D01*
X168263628Y-96092911D01*
X168645911Y-95849369D01*
X168653745Y-95844846D01*
X169055802Y-95635549D01*
X169063998Y-95631728D01*
X169482745Y-95458277D01*
X169491258Y-95455178D01*
X169923541Y-95318879D01*
X169932294Y-95316534D01*
X170374815Y-95218429D01*
X170383721Y-95216859D01*
X170833093Y-95157698D01*
X170842129Y-95156908D01*
X171294943Y-95137138D01*
X171304013Y-95137138D01*
X171752984Y-95156740D01*
G37*
%TD.AperFunction*%
%TD*%
M02*
