%TF.GenerationSoftware,KiCad,Pcbnew,8.0.5-8.0.5-0~ubuntu24.04.1*%
%TF.CreationDate,2024-09-15T15:23:13-06:00*%
%TF.ProjectId,DRV8311 on motor driver,44525638-3331-4312-906f-6e206d6f746f,rev?*%
%TF.SameCoordinates,Original*%
%TF.FileFunction,AssemblyDrawing,Bot*%
%FSLAX46Y46*%
G04 Gerber Fmt 4.6, Leading zero omitted, Abs format (unit mm)*
G04 Created by KiCad (PCBNEW 8.0.5-8.0.5-0~ubuntu24.04.1) date 2024-09-15 15:23:13*
%MOMM*%
%LPD*%
G01*
G04 APERTURE LIST*
%ADD10C,0.150000*%
%ADD11C,0.040000*%
%ADD12C,0.100000*%
G04 APERTURE END LIST*
D10*
X169674819Y-102409524D02*
X169674819Y-103028571D01*
X169674819Y-103028571D02*
X170055771Y-102695238D01*
X170055771Y-102695238D02*
X170055771Y-102838095D01*
X170055771Y-102838095D02*
X170103390Y-102933333D01*
X170103390Y-102933333D02*
X170151009Y-102980952D01*
X170151009Y-102980952D02*
X170246247Y-103028571D01*
X170246247Y-103028571D02*
X170484342Y-103028571D01*
X170484342Y-103028571D02*
X170579580Y-102980952D01*
X170579580Y-102980952D02*
X170627200Y-102933333D01*
X170627200Y-102933333D02*
X170674819Y-102838095D01*
X170674819Y-102838095D02*
X170674819Y-102552381D01*
X170674819Y-102552381D02*
X170627200Y-102457143D01*
X170627200Y-102457143D02*
X170579580Y-102409524D01*
X169674819Y-103647619D02*
X169674819Y-103742857D01*
X169674819Y-103742857D02*
X169722438Y-103838095D01*
X169722438Y-103838095D02*
X169770057Y-103885714D01*
X169770057Y-103885714D02*
X169865295Y-103933333D01*
X169865295Y-103933333D02*
X170055771Y-103980952D01*
X170055771Y-103980952D02*
X170293866Y-103980952D01*
X170293866Y-103980952D02*
X170484342Y-103933333D01*
X170484342Y-103933333D02*
X170579580Y-103885714D01*
X170579580Y-103885714D02*
X170627200Y-103838095D01*
X170627200Y-103838095D02*
X170674819Y-103742857D01*
X170674819Y-103742857D02*
X170674819Y-103647619D01*
X170674819Y-103647619D02*
X170627200Y-103552381D01*
X170627200Y-103552381D02*
X170579580Y-103504762D01*
X170579580Y-103504762D02*
X170484342Y-103457143D01*
X170484342Y-103457143D02*
X170293866Y-103409524D01*
X170293866Y-103409524D02*
X170055771Y-103409524D01*
X170055771Y-103409524D02*
X169865295Y-103457143D01*
X169865295Y-103457143D02*
X169770057Y-103504762D01*
X169770057Y-103504762D02*
X169722438Y-103552381D01*
X169722438Y-103552381D02*
X169674819Y-103647619D01*
X169674819Y-104600000D02*
X169674819Y-104695238D01*
X169674819Y-104695238D02*
X169722438Y-104790476D01*
X169722438Y-104790476D02*
X169770057Y-104838095D01*
X169770057Y-104838095D02*
X169865295Y-104885714D01*
X169865295Y-104885714D02*
X170055771Y-104933333D01*
X170055771Y-104933333D02*
X170293866Y-104933333D01*
X170293866Y-104933333D02*
X170484342Y-104885714D01*
X170484342Y-104885714D02*
X170579580Y-104838095D01*
X170579580Y-104838095D02*
X170627200Y-104790476D01*
X170627200Y-104790476D02*
X170674819Y-104695238D01*
X170674819Y-104695238D02*
X170674819Y-104600000D01*
X170674819Y-104600000D02*
X170627200Y-104504762D01*
X170627200Y-104504762D02*
X170579580Y-104457143D01*
X170579580Y-104457143D02*
X170484342Y-104409524D01*
X170484342Y-104409524D02*
X170293866Y-104361905D01*
X170293866Y-104361905D02*
X170055771Y-104361905D01*
X170055771Y-104361905D02*
X169865295Y-104409524D01*
X169865295Y-104409524D02*
X169770057Y-104457143D01*
X169770057Y-104457143D02*
X169722438Y-104504762D01*
X169722438Y-104504762D02*
X169674819Y-104600000D01*
X170674819Y-105361905D02*
X169674819Y-105361905D01*
X170293866Y-105457143D02*
X170674819Y-105742857D01*
X170008152Y-105742857D02*
X170389104Y-105361905D01*
D11*
X169168200Y-104056667D02*
X169044391Y-103970000D01*
X169168200Y-103908095D02*
X168908200Y-103908095D01*
X168908200Y-103908095D02*
X168908200Y-104007143D01*
X168908200Y-104007143D02*
X168920581Y-104031905D01*
X168920581Y-104031905D02*
X168932962Y-104044286D01*
X168932962Y-104044286D02*
X168957724Y-104056667D01*
X168957724Y-104056667D02*
X168994867Y-104056667D01*
X168994867Y-104056667D02*
X169019629Y-104044286D01*
X169019629Y-104044286D02*
X169032010Y-104031905D01*
X169032010Y-104031905D02*
X169044391Y-104007143D01*
X169044391Y-104007143D02*
X169044391Y-103908095D01*
X169168200Y-104304286D02*
X169168200Y-104155714D01*
X169168200Y-104230000D02*
X168908200Y-104230000D01*
X168908200Y-104230000D02*
X168945343Y-104205238D01*
X168945343Y-104205238D02*
X168970105Y-104180476D01*
X168970105Y-104180476D02*
X168982486Y-104155714D01*
D10*
X175953876Y-100384653D02*
X175906257Y-100467132D01*
X175906257Y-100467132D02*
X175899877Y-100573420D01*
X175899877Y-100573420D02*
X175917307Y-100638469D01*
X175917307Y-100638469D02*
X175975976Y-100727327D01*
X175975976Y-100727327D02*
X176117124Y-100863805D01*
X176117124Y-100863805D02*
X176323321Y-100982852D01*
X176323321Y-100982852D02*
X176512087Y-101036851D01*
X176512087Y-101036851D02*
X176618375Y-101043231D01*
X176618375Y-101043231D02*
X176683424Y-101025801D01*
X176683424Y-101025801D02*
X176772283Y-100967132D01*
X176772283Y-100967132D02*
X176819902Y-100884653D01*
X176819902Y-100884653D02*
X176826281Y-100778365D01*
X176826281Y-100778365D02*
X176808852Y-100713317D01*
X176808852Y-100713317D02*
X176750183Y-100624458D01*
X176750183Y-100624458D02*
X176609035Y-100487981D01*
X176609035Y-100487981D02*
X176402838Y-100368933D01*
X176402838Y-100368933D02*
X176214072Y-100314934D01*
X176214072Y-100314934D02*
X176107783Y-100308555D01*
X176107783Y-100308555D02*
X176042735Y-100325984D01*
X176042735Y-100325984D02*
X175953876Y-100384653D01*
X176356471Y-101496863D02*
X176373900Y-101561912D01*
X176373900Y-101561912D02*
X176438949Y-101544482D01*
X176438949Y-101544482D02*
X176421519Y-101479434D01*
X176421519Y-101479434D02*
X176356471Y-101496863D01*
X176356471Y-101496863D02*
X176438949Y-101544482D01*
X175938949Y-102410507D02*
X176224664Y-101915636D01*
X176081807Y-102163072D02*
X175215781Y-101663072D01*
X175215781Y-101663072D02*
X175387118Y-101652022D01*
X175387118Y-101652022D02*
X175517216Y-101617162D01*
X175517216Y-101617162D02*
X175606074Y-101558493D01*
X174933028Y-102819482D02*
X175510378Y-103152815D01*
X175147313Y-102448328D02*
X175600946Y-102710233D01*
X175600946Y-102710233D02*
X175659615Y-102799091D01*
X175659615Y-102799091D02*
X175653235Y-102905379D01*
X175653235Y-102905379D02*
X175581807Y-103029097D01*
X175581807Y-103029097D02*
X175492948Y-103087766D01*
X175492948Y-103087766D02*
X175427899Y-103105196D01*
X174651984Y-103591978D02*
X174818650Y-103303303D01*
X175272283Y-103565208D02*
X174406257Y-103065208D01*
X174406257Y-103065208D02*
X174168162Y-103477601D01*
D11*
X174698572Y-101508798D02*
X174714834Y-101504441D01*
X174714834Y-101504441D02*
X174743001Y-101479464D01*
X174743001Y-101479464D02*
X174754905Y-101458844D01*
X174754905Y-101458844D02*
X174762453Y-101421962D01*
X174762453Y-101421962D02*
X174753738Y-101389438D01*
X174753738Y-101389438D02*
X174739071Y-101367223D01*
X174739071Y-101367223D02*
X174703784Y-101333104D01*
X174703784Y-101333104D02*
X174672854Y-101315247D01*
X174672854Y-101315247D02*
X174625663Y-101301747D01*
X174625663Y-101301747D02*
X174599090Y-101300152D01*
X174599090Y-101300152D02*
X174566566Y-101308867D01*
X174566566Y-101308867D02*
X174538399Y-101333844D01*
X174538399Y-101333844D02*
X174526494Y-101354464D01*
X174526494Y-101354464D02*
X174518947Y-101391346D01*
X174518947Y-101391346D02*
X174523304Y-101407608D01*
X174461018Y-101467872D02*
X174377685Y-101612209D01*
X174377685Y-101612209D02*
X174647763Y-101644421D01*
D10*
X174792857Y-106759580D02*
X174840476Y-106807200D01*
X174840476Y-106807200D02*
X174983333Y-106854819D01*
X174983333Y-106854819D02*
X175078571Y-106854819D01*
X175078571Y-106854819D02*
X175221428Y-106807200D01*
X175221428Y-106807200D02*
X175316666Y-106711961D01*
X175316666Y-106711961D02*
X175364285Y-106616723D01*
X175364285Y-106616723D02*
X175411904Y-106426247D01*
X175411904Y-106426247D02*
X175411904Y-106283390D01*
X175411904Y-106283390D02*
X175364285Y-106092914D01*
X175364285Y-106092914D02*
X175316666Y-105997676D01*
X175316666Y-105997676D02*
X175221428Y-105902438D01*
X175221428Y-105902438D02*
X175078571Y-105854819D01*
X175078571Y-105854819D02*
X174983333Y-105854819D01*
X174983333Y-105854819D02*
X174840476Y-105902438D01*
X174840476Y-105902438D02*
X174792857Y-105950057D01*
X174411904Y-106807200D02*
X174269047Y-106854819D01*
X174269047Y-106854819D02*
X174030952Y-106854819D01*
X174030952Y-106854819D02*
X173935714Y-106807200D01*
X173935714Y-106807200D02*
X173888095Y-106759580D01*
X173888095Y-106759580D02*
X173840476Y-106664342D01*
X173840476Y-106664342D02*
X173840476Y-106569104D01*
X173840476Y-106569104D02*
X173888095Y-106473866D01*
X173888095Y-106473866D02*
X173935714Y-106426247D01*
X173935714Y-106426247D02*
X174030952Y-106378628D01*
X174030952Y-106378628D02*
X174221428Y-106331009D01*
X174221428Y-106331009D02*
X174316666Y-106283390D01*
X174316666Y-106283390D02*
X174364285Y-106235771D01*
X174364285Y-106235771D02*
X174411904Y-106140533D01*
X174411904Y-106140533D02*
X174411904Y-106045295D01*
X174411904Y-106045295D02*
X174364285Y-105950057D01*
X174364285Y-105950057D02*
X174316666Y-105902438D01*
X174316666Y-105902438D02*
X174221428Y-105854819D01*
X174221428Y-105854819D02*
X173983333Y-105854819D01*
X173983333Y-105854819D02*
X173840476Y-105902438D01*
X173459523Y-106569104D02*
X172983333Y-106569104D01*
X173554761Y-106854819D02*
X173221428Y-105854819D01*
X173221428Y-105854819D02*
X172888095Y-106854819D01*
X172554761Y-106473866D02*
X171792857Y-106473866D01*
X171364285Y-106569104D02*
X170888095Y-106569104D01*
X171459523Y-106854819D02*
X171126190Y-105854819D01*
X171126190Y-105854819D02*
X170792857Y-106854819D01*
X174411904Y-102854819D02*
X173840476Y-102854819D01*
X174126190Y-103854819D02*
X174126190Y-102854819D01*
X173507142Y-103854819D02*
X173507142Y-102854819D01*
X173507142Y-102854819D02*
X173126190Y-102854819D01*
X173126190Y-102854819D02*
X173030952Y-102902438D01*
X173030952Y-102902438D02*
X172983333Y-102950057D01*
X172983333Y-102950057D02*
X172935714Y-103045295D01*
X172935714Y-103045295D02*
X172935714Y-103188152D01*
X172935714Y-103188152D02*
X172983333Y-103283390D01*
X172983333Y-103283390D02*
X173030952Y-103331009D01*
X173030952Y-103331009D02*
X173126190Y-103378628D01*
X173126190Y-103378628D02*
X173507142Y-103378628D01*
X172602380Y-102854819D02*
X171983333Y-102854819D01*
X171983333Y-102854819D02*
X172316666Y-103235771D01*
X172316666Y-103235771D02*
X172173809Y-103235771D01*
X172173809Y-103235771D02*
X172078571Y-103283390D01*
X172078571Y-103283390D02*
X172030952Y-103331009D01*
X172030952Y-103331009D02*
X171983333Y-103426247D01*
X171983333Y-103426247D02*
X171983333Y-103664342D01*
X171983333Y-103664342D02*
X172030952Y-103759580D01*
X172030952Y-103759580D02*
X172078571Y-103807200D01*
X172078571Y-103807200D02*
X172173809Y-103854819D01*
X172173809Y-103854819D02*
X172459523Y-103854819D01*
X172459523Y-103854819D02*
X172554761Y-103807200D01*
X172554761Y-103807200D02*
X172602380Y-103759580D01*
X174110057Y-95107143D02*
X174062438Y-95154762D01*
X174062438Y-95154762D02*
X174014819Y-95250000D01*
X174014819Y-95250000D02*
X174014819Y-95488095D01*
X174014819Y-95488095D02*
X174062438Y-95583333D01*
X174062438Y-95583333D02*
X174110057Y-95630952D01*
X174110057Y-95630952D02*
X174205295Y-95678571D01*
X174205295Y-95678571D02*
X174300533Y-95678571D01*
X174300533Y-95678571D02*
X174443390Y-95630952D01*
X174443390Y-95630952D02*
X175014819Y-95059524D01*
X175014819Y-95059524D02*
X175014819Y-95678571D01*
X174110057Y-96059524D02*
X174062438Y-96107143D01*
X174062438Y-96107143D02*
X174014819Y-96202381D01*
X174014819Y-96202381D02*
X174014819Y-96440476D01*
X174014819Y-96440476D02*
X174062438Y-96535714D01*
X174062438Y-96535714D02*
X174110057Y-96583333D01*
X174110057Y-96583333D02*
X174205295Y-96630952D01*
X174205295Y-96630952D02*
X174300533Y-96630952D01*
X174300533Y-96630952D02*
X174443390Y-96583333D01*
X174443390Y-96583333D02*
X175014819Y-96011905D01*
X175014819Y-96011905D02*
X175014819Y-96630952D01*
X174348152Y-97488095D02*
X175014819Y-97488095D01*
X174348152Y-97059524D02*
X174871961Y-97059524D01*
X174871961Y-97059524D02*
X174967200Y-97107143D01*
X174967200Y-97107143D02*
X175014819Y-97202381D01*
X175014819Y-97202381D02*
X175014819Y-97345238D01*
X175014819Y-97345238D02*
X174967200Y-97440476D01*
X174967200Y-97440476D02*
X174919580Y-97488095D01*
X174491009Y-98297619D02*
X174491009Y-97964286D01*
X175014819Y-97964286D02*
X174014819Y-97964286D01*
X174014819Y-97964286D02*
X174014819Y-98440476D01*
D11*
X173489765Y-96708333D02*
X173501670Y-96696429D01*
X173501670Y-96696429D02*
X173513574Y-96660714D01*
X173513574Y-96660714D02*
X173513574Y-96636905D01*
X173513574Y-96636905D02*
X173501670Y-96601191D01*
X173501670Y-96601191D02*
X173477860Y-96577381D01*
X173477860Y-96577381D02*
X173454050Y-96565476D01*
X173454050Y-96565476D02*
X173406431Y-96553572D01*
X173406431Y-96553572D02*
X173370717Y-96553572D01*
X173370717Y-96553572D02*
X173323098Y-96565476D01*
X173323098Y-96565476D02*
X173299289Y-96577381D01*
X173299289Y-96577381D02*
X173275479Y-96601191D01*
X173275479Y-96601191D02*
X173263574Y-96636905D01*
X173263574Y-96636905D02*
X173263574Y-96660714D01*
X173263574Y-96660714D02*
X173275479Y-96696429D01*
X173275479Y-96696429D02*
X173287384Y-96708333D01*
X173263574Y-96934524D02*
X173263574Y-96815476D01*
X173263574Y-96815476D02*
X173382622Y-96803572D01*
X173382622Y-96803572D02*
X173370717Y-96815476D01*
X173370717Y-96815476D02*
X173358812Y-96839286D01*
X173358812Y-96839286D02*
X173358812Y-96898810D01*
X173358812Y-96898810D02*
X173370717Y-96922619D01*
X173370717Y-96922619D02*
X173382622Y-96934524D01*
X173382622Y-96934524D02*
X173406431Y-96946429D01*
X173406431Y-96946429D02*
X173465955Y-96946429D01*
X173465955Y-96946429D02*
X173489765Y-96934524D01*
X173489765Y-96934524D02*
X173501670Y-96922619D01*
X173501670Y-96922619D02*
X173513574Y-96898810D01*
X173513574Y-96898810D02*
X173513574Y-96839286D01*
X173513574Y-96839286D02*
X173501670Y-96815476D01*
X173501670Y-96815476D02*
X173489765Y-96803572D01*
D10*
X171574348Y-104010976D02*
X171526729Y-103928497D01*
X171526729Y-103928497D02*
X171437870Y-103869828D01*
X171437870Y-103869828D02*
X171372822Y-103852399D01*
X171372822Y-103852399D02*
X171266533Y-103858778D01*
X171266533Y-103858778D02*
X171077767Y-103912777D01*
X171077767Y-103912777D02*
X170871570Y-104031825D01*
X170871570Y-104031825D02*
X170730423Y-104168302D01*
X170730423Y-104168302D02*
X170671753Y-104257161D01*
X170671753Y-104257161D02*
X170654324Y-104322209D01*
X170654324Y-104322209D02*
X170660703Y-104428497D01*
X170660703Y-104428497D02*
X170708322Y-104510976D01*
X170708322Y-104510976D02*
X170797181Y-104569645D01*
X170797181Y-104569645D02*
X170862230Y-104587075D01*
X170862230Y-104587075D02*
X170968518Y-104580695D01*
X170968518Y-104580695D02*
X171157284Y-104526696D01*
X171157284Y-104526696D02*
X171363481Y-104407649D01*
X171363481Y-104407649D02*
X171504629Y-104271171D01*
X171504629Y-104271171D02*
X171563298Y-104182313D01*
X171563298Y-104182313D02*
X171580728Y-104117264D01*
X171580728Y-104117264D02*
X171574348Y-104010976D01*
X170409849Y-103803528D02*
X170344800Y-103786098D01*
X170344800Y-103786098D02*
X170327370Y-103851147D01*
X170327370Y-103851147D02*
X170392419Y-103868577D01*
X170392419Y-103868577D02*
X170409849Y-103803528D01*
X170409849Y-103803528D02*
X170327370Y-103851147D01*
X169827370Y-102985122D02*
X170113085Y-103479994D01*
X169970227Y-103232558D02*
X170836253Y-102732558D01*
X170836253Y-102732558D02*
X170760154Y-102886465D01*
X170760154Y-102886465D02*
X170725294Y-103016563D01*
X170725294Y-103016563D02*
X170731674Y-103122851D01*
X169976149Y-101909481D02*
X169398799Y-102242815D01*
X170190435Y-102280635D02*
X169736802Y-102542540D01*
X169736802Y-102542540D02*
X169630514Y-102548920D01*
X169630514Y-102548920D02*
X169541656Y-102490250D01*
X169541656Y-102490250D02*
X169470227Y-102366533D01*
X169470227Y-102366533D02*
X169463848Y-102260244D01*
X169463848Y-102260244D02*
X169481277Y-102195196D01*
X169447669Y-101279842D02*
X169614336Y-101568517D01*
X169160704Y-101830422D02*
X170026729Y-101330422D01*
X170026729Y-101330422D02*
X169788634Y-100918028D01*
X168749562Y-101023065D02*
X168708323Y-101046875D01*
X168708323Y-101046875D02*
X168649653Y-101135733D01*
X168649653Y-101135733D02*
X168632224Y-101200782D01*
X167851180Y-99562260D02*
X168136894Y-100057131D01*
X167994037Y-99809696D02*
X168860062Y-99309696D01*
X168860062Y-99309696D02*
X168783963Y-99463603D01*
X168783963Y-99463603D02*
X168749104Y-99593700D01*
X168749104Y-99593700D02*
X168755484Y-99699989D01*
X168288634Y-98319952D02*
X168383872Y-98484910D01*
X168383872Y-98484910D02*
X168390252Y-98591198D01*
X168390252Y-98591198D02*
X168372822Y-98656246D01*
X168372822Y-98656246D02*
X168296723Y-98810154D01*
X168296723Y-98810154D02*
X168155575Y-98946631D01*
X168155575Y-98946631D02*
X167825661Y-99137107D01*
X167825661Y-99137107D02*
X167719373Y-99143487D01*
X167719373Y-99143487D02*
X167654324Y-99126057D01*
X167654324Y-99126057D02*
X167565465Y-99067388D01*
X167565465Y-99067388D02*
X167470227Y-98902431D01*
X167470227Y-98902431D02*
X167463848Y-98796143D01*
X167463848Y-98796143D02*
X167481277Y-98731094D01*
X167481277Y-98731094D02*
X167539946Y-98642236D01*
X167539946Y-98642236D02*
X167746143Y-98523188D01*
X167746143Y-98523188D02*
X167852431Y-98516808D01*
X167852431Y-98516808D02*
X167917480Y-98534238D01*
X167917480Y-98534238D02*
X168006338Y-98592907D01*
X168006338Y-98592907D02*
X168101576Y-98757864D01*
X168101576Y-98757864D02*
X168107956Y-98864152D01*
X168107956Y-98864152D02*
X168090526Y-98929201D01*
X168090526Y-98929201D02*
X168031857Y-99018060D01*
X167785673Y-98115465D02*
X167089275Y-98242602D01*
X167089275Y-98242602D02*
X167547578Y-97703072D01*
D11*
X168243094Y-101830966D02*
X168238736Y-101847228D01*
X168238736Y-101847228D02*
X168246283Y-101884110D01*
X168246283Y-101884110D02*
X168258188Y-101904730D01*
X168258188Y-101904730D02*
X168286355Y-101929707D01*
X168286355Y-101929707D02*
X168318880Y-101938422D01*
X168318880Y-101938422D02*
X168345452Y-101936827D01*
X168345452Y-101936827D02*
X168392643Y-101923327D01*
X168392643Y-101923327D02*
X168423573Y-101905470D01*
X168423573Y-101905470D02*
X168458860Y-101871351D01*
X168458860Y-101871351D02*
X168473527Y-101849136D01*
X168473527Y-101849136D02*
X168482242Y-101816612D01*
X168482242Y-101816612D02*
X168474695Y-101779730D01*
X168474695Y-101779730D02*
X168462790Y-101759110D01*
X168462790Y-101759110D02*
X168434623Y-101734133D01*
X168434623Y-101734133D02*
X168418361Y-101729775D01*
X168331837Y-101532294D02*
X168355647Y-101573533D01*
X168355647Y-101573533D02*
X168357242Y-101600105D01*
X168357242Y-101600105D02*
X168352884Y-101616367D01*
X168352884Y-101616367D02*
X168333860Y-101654844D01*
X168333860Y-101654844D02*
X168298573Y-101688964D01*
X168298573Y-101688964D02*
X168216094Y-101736583D01*
X168216094Y-101736583D02*
X168189522Y-101738178D01*
X168189522Y-101738178D02*
X168173260Y-101733820D01*
X168173260Y-101733820D02*
X168151045Y-101719153D01*
X168151045Y-101719153D02*
X168127236Y-101677914D01*
X168127236Y-101677914D02*
X168125641Y-101651341D01*
X168125641Y-101651341D02*
X168129998Y-101635079D01*
X168129998Y-101635079D02*
X168144666Y-101612865D01*
X168144666Y-101612865D02*
X168196215Y-101583103D01*
X168196215Y-101583103D02*
X168222787Y-101581508D01*
X168222787Y-101581508D02*
X168239049Y-101585865D01*
X168239049Y-101585865D02*
X168261264Y-101600533D01*
X168261264Y-101600533D02*
X168285073Y-101641772D01*
X168285073Y-101641772D02*
X168286668Y-101668344D01*
X168286668Y-101668344D02*
X168282311Y-101684606D01*
X168282311Y-101684606D02*
X168267643Y-101706821D01*
D10*
X171776190Y-98954819D02*
X171776190Y-97954819D01*
X171776190Y-97954819D02*
X171395238Y-97954819D01*
X171395238Y-97954819D02*
X171300000Y-98002438D01*
X171300000Y-98002438D02*
X171252381Y-98050057D01*
X171252381Y-98050057D02*
X171204762Y-98145295D01*
X171204762Y-98145295D02*
X171204762Y-98288152D01*
X171204762Y-98288152D02*
X171252381Y-98383390D01*
X171252381Y-98383390D02*
X171300000Y-98431009D01*
X171300000Y-98431009D02*
X171395238Y-98478628D01*
X171395238Y-98478628D02*
X171776190Y-98478628D01*
X170633333Y-98954819D02*
X170728571Y-98907200D01*
X170728571Y-98907200D02*
X170776190Y-98859580D01*
X170776190Y-98859580D02*
X170823809Y-98764342D01*
X170823809Y-98764342D02*
X170823809Y-98478628D01*
X170823809Y-98478628D02*
X170776190Y-98383390D01*
X170776190Y-98383390D02*
X170728571Y-98335771D01*
X170728571Y-98335771D02*
X170633333Y-98288152D01*
X170633333Y-98288152D02*
X170490476Y-98288152D01*
X170490476Y-98288152D02*
X170395238Y-98335771D01*
X170395238Y-98335771D02*
X170347619Y-98383390D01*
X170347619Y-98383390D02*
X170300000Y-98478628D01*
X170300000Y-98478628D02*
X170300000Y-98764342D01*
X170300000Y-98764342D02*
X170347619Y-98859580D01*
X170347619Y-98859580D02*
X170395238Y-98907200D01*
X170395238Y-98907200D02*
X170490476Y-98954819D01*
X170490476Y-98954819D02*
X170633333Y-98954819D01*
X169966666Y-98288152D02*
X169776190Y-98954819D01*
X169776190Y-98954819D02*
X169585714Y-98478628D01*
X169585714Y-98478628D02*
X169395238Y-98954819D01*
X169395238Y-98954819D02*
X169204762Y-98288152D01*
X168442857Y-98907200D02*
X168538095Y-98954819D01*
X168538095Y-98954819D02*
X168728571Y-98954819D01*
X168728571Y-98954819D02*
X168823809Y-98907200D01*
X168823809Y-98907200D02*
X168871428Y-98811961D01*
X168871428Y-98811961D02*
X168871428Y-98431009D01*
X168871428Y-98431009D02*
X168823809Y-98335771D01*
X168823809Y-98335771D02*
X168728571Y-98288152D01*
X168728571Y-98288152D02*
X168538095Y-98288152D01*
X168538095Y-98288152D02*
X168442857Y-98335771D01*
X168442857Y-98335771D02*
X168395238Y-98431009D01*
X168395238Y-98431009D02*
X168395238Y-98526247D01*
X168395238Y-98526247D02*
X168871428Y-98621485D01*
X167966666Y-98954819D02*
X167966666Y-98288152D01*
X167966666Y-98478628D02*
X167919047Y-98383390D01*
X167919047Y-98383390D02*
X167871428Y-98335771D01*
X167871428Y-98335771D02*
X167776190Y-98288152D01*
X167776190Y-98288152D02*
X167680952Y-98288152D01*
X171061904Y-93904819D02*
X170490476Y-93904819D01*
X170776190Y-94904819D02*
X170776190Y-93904819D01*
X170157142Y-94904819D02*
X170157142Y-93904819D01*
X170157142Y-93904819D02*
X169776190Y-93904819D01*
X169776190Y-93904819D02*
X169680952Y-93952438D01*
X169680952Y-93952438D02*
X169633333Y-94000057D01*
X169633333Y-94000057D02*
X169585714Y-94095295D01*
X169585714Y-94095295D02*
X169585714Y-94238152D01*
X169585714Y-94238152D02*
X169633333Y-94333390D01*
X169633333Y-94333390D02*
X169680952Y-94381009D01*
X169680952Y-94381009D02*
X169776190Y-94428628D01*
X169776190Y-94428628D02*
X170157142Y-94428628D01*
X168633333Y-94904819D02*
X169204761Y-94904819D01*
X168919047Y-94904819D02*
X168919047Y-93904819D01*
X168919047Y-93904819D02*
X169014285Y-94047676D01*
X169014285Y-94047676D02*
X169109523Y-94142914D01*
X169109523Y-94142914D02*
X169204761Y-94190533D01*
X173160057Y-95107143D02*
X173112438Y-95154762D01*
X173112438Y-95154762D02*
X173064819Y-95250000D01*
X173064819Y-95250000D02*
X173064819Y-95488095D01*
X173064819Y-95488095D02*
X173112438Y-95583333D01*
X173112438Y-95583333D02*
X173160057Y-95630952D01*
X173160057Y-95630952D02*
X173255295Y-95678571D01*
X173255295Y-95678571D02*
X173350533Y-95678571D01*
X173350533Y-95678571D02*
X173493390Y-95630952D01*
X173493390Y-95630952D02*
X174064819Y-95059524D01*
X174064819Y-95059524D02*
X174064819Y-95678571D01*
X173160057Y-96059524D02*
X173112438Y-96107143D01*
X173112438Y-96107143D02*
X173064819Y-96202381D01*
X173064819Y-96202381D02*
X173064819Y-96440476D01*
X173064819Y-96440476D02*
X173112438Y-96535714D01*
X173112438Y-96535714D02*
X173160057Y-96583333D01*
X173160057Y-96583333D02*
X173255295Y-96630952D01*
X173255295Y-96630952D02*
X173350533Y-96630952D01*
X173350533Y-96630952D02*
X173493390Y-96583333D01*
X173493390Y-96583333D02*
X174064819Y-96011905D01*
X174064819Y-96011905D02*
X174064819Y-96630952D01*
X173398152Y-97488095D02*
X174064819Y-97488095D01*
X173398152Y-97059524D02*
X173921961Y-97059524D01*
X173921961Y-97059524D02*
X174017200Y-97107143D01*
X174017200Y-97107143D02*
X174064819Y-97202381D01*
X174064819Y-97202381D02*
X174064819Y-97345238D01*
X174064819Y-97345238D02*
X174017200Y-97440476D01*
X174017200Y-97440476D02*
X173969580Y-97488095D01*
X173541009Y-98297619D02*
X173541009Y-97964286D01*
X174064819Y-97964286D02*
X173064819Y-97964286D01*
X173064819Y-97964286D02*
X173064819Y-98440476D01*
D11*
X172539765Y-96708333D02*
X172551670Y-96696429D01*
X172551670Y-96696429D02*
X172563574Y-96660714D01*
X172563574Y-96660714D02*
X172563574Y-96636905D01*
X172563574Y-96636905D02*
X172551670Y-96601191D01*
X172551670Y-96601191D02*
X172527860Y-96577381D01*
X172527860Y-96577381D02*
X172504050Y-96565476D01*
X172504050Y-96565476D02*
X172456431Y-96553572D01*
X172456431Y-96553572D02*
X172420717Y-96553572D01*
X172420717Y-96553572D02*
X172373098Y-96565476D01*
X172373098Y-96565476D02*
X172349289Y-96577381D01*
X172349289Y-96577381D02*
X172325479Y-96601191D01*
X172325479Y-96601191D02*
X172313574Y-96636905D01*
X172313574Y-96636905D02*
X172313574Y-96660714D01*
X172313574Y-96660714D02*
X172325479Y-96696429D01*
X172325479Y-96696429D02*
X172337384Y-96708333D01*
X172396908Y-96922619D02*
X172563574Y-96922619D01*
X172301670Y-96863095D02*
X172480241Y-96803572D01*
X172480241Y-96803572D02*
X172480241Y-96958333D01*
D10*
X177764285Y-102609580D02*
X177811904Y-102657200D01*
X177811904Y-102657200D02*
X177954761Y-102704819D01*
X177954761Y-102704819D02*
X178049999Y-102704819D01*
X178049999Y-102704819D02*
X178192856Y-102657200D01*
X178192856Y-102657200D02*
X178288094Y-102561961D01*
X178288094Y-102561961D02*
X178335713Y-102466723D01*
X178335713Y-102466723D02*
X178383332Y-102276247D01*
X178383332Y-102276247D02*
X178383332Y-102133390D01*
X178383332Y-102133390D02*
X178335713Y-101942914D01*
X178335713Y-101942914D02*
X178288094Y-101847676D01*
X178288094Y-101847676D02*
X178192856Y-101752438D01*
X178192856Y-101752438D02*
X178049999Y-101704819D01*
X178049999Y-101704819D02*
X177954761Y-101704819D01*
X177954761Y-101704819D02*
X177811904Y-101752438D01*
X177811904Y-101752438D02*
X177764285Y-101800057D01*
X177383332Y-102657200D02*
X177240475Y-102704819D01*
X177240475Y-102704819D02*
X177002380Y-102704819D01*
X177002380Y-102704819D02*
X176907142Y-102657200D01*
X176907142Y-102657200D02*
X176859523Y-102609580D01*
X176859523Y-102609580D02*
X176811904Y-102514342D01*
X176811904Y-102514342D02*
X176811904Y-102419104D01*
X176811904Y-102419104D02*
X176859523Y-102323866D01*
X176859523Y-102323866D02*
X176907142Y-102276247D01*
X176907142Y-102276247D02*
X177002380Y-102228628D01*
X177002380Y-102228628D02*
X177192856Y-102181009D01*
X177192856Y-102181009D02*
X177288094Y-102133390D01*
X177288094Y-102133390D02*
X177335713Y-102085771D01*
X177335713Y-102085771D02*
X177383332Y-101990533D01*
X177383332Y-101990533D02*
X177383332Y-101895295D01*
X177383332Y-101895295D02*
X177335713Y-101800057D01*
X177335713Y-101800057D02*
X177288094Y-101752438D01*
X177288094Y-101752438D02*
X177192856Y-101704819D01*
X177192856Y-101704819D02*
X176954761Y-101704819D01*
X176954761Y-101704819D02*
X176811904Y-101752438D01*
X176430951Y-102419104D02*
X175954761Y-102419104D01*
X176526189Y-102704819D02*
X176192856Y-101704819D01*
X176192856Y-101704819D02*
X175859523Y-102704819D01*
X175526189Y-102323866D02*
X174764285Y-102323866D01*
X173716666Y-102609580D02*
X173764285Y-102657200D01*
X173764285Y-102657200D02*
X173907142Y-102704819D01*
X173907142Y-102704819D02*
X174002380Y-102704819D01*
X174002380Y-102704819D02*
X174145237Y-102657200D01*
X174145237Y-102657200D02*
X174240475Y-102561961D01*
X174240475Y-102561961D02*
X174288094Y-102466723D01*
X174288094Y-102466723D02*
X174335713Y-102276247D01*
X174335713Y-102276247D02*
X174335713Y-102133390D01*
X174335713Y-102133390D02*
X174288094Y-101942914D01*
X174288094Y-101942914D02*
X174240475Y-101847676D01*
X174240475Y-101847676D02*
X174145237Y-101752438D01*
X174145237Y-101752438D02*
X174002380Y-101704819D01*
X174002380Y-101704819D02*
X173907142Y-101704819D01*
X173907142Y-101704819D02*
X173764285Y-101752438D01*
X173764285Y-101752438D02*
X173716666Y-101800057D01*
X177311904Y-98704819D02*
X176740476Y-98704819D01*
X177026190Y-99704819D02*
X177026190Y-98704819D01*
X176407142Y-99704819D02*
X176407142Y-98704819D01*
X176407142Y-98704819D02*
X176026190Y-98704819D01*
X176026190Y-98704819D02*
X175930952Y-98752438D01*
X175930952Y-98752438D02*
X175883333Y-98800057D01*
X175883333Y-98800057D02*
X175835714Y-98895295D01*
X175835714Y-98895295D02*
X175835714Y-99038152D01*
X175835714Y-99038152D02*
X175883333Y-99133390D01*
X175883333Y-99133390D02*
X175930952Y-99181009D01*
X175930952Y-99181009D02*
X176026190Y-99228628D01*
X176026190Y-99228628D02*
X176407142Y-99228628D01*
X174978571Y-98704819D02*
X175169047Y-98704819D01*
X175169047Y-98704819D02*
X175264285Y-98752438D01*
X175264285Y-98752438D02*
X175311904Y-98800057D01*
X175311904Y-98800057D02*
X175407142Y-98942914D01*
X175407142Y-98942914D02*
X175454761Y-99133390D01*
X175454761Y-99133390D02*
X175454761Y-99514342D01*
X175454761Y-99514342D02*
X175407142Y-99609580D01*
X175407142Y-99609580D02*
X175359523Y-99657200D01*
X175359523Y-99657200D02*
X175264285Y-99704819D01*
X175264285Y-99704819D02*
X175073809Y-99704819D01*
X175073809Y-99704819D02*
X174978571Y-99657200D01*
X174978571Y-99657200D02*
X174930952Y-99609580D01*
X174930952Y-99609580D02*
X174883333Y-99514342D01*
X174883333Y-99514342D02*
X174883333Y-99276247D01*
X174883333Y-99276247D02*
X174930952Y-99181009D01*
X174930952Y-99181009D02*
X174978571Y-99133390D01*
X174978571Y-99133390D02*
X175073809Y-99085771D01*
X175073809Y-99085771D02*
X175264285Y-99085771D01*
X175264285Y-99085771D02*
X175359523Y-99133390D01*
X175359523Y-99133390D02*
X175407142Y-99181009D01*
X175407142Y-99181009D02*
X175454761Y-99276247D01*
X177214285Y-104559580D02*
X177261904Y-104607200D01*
X177261904Y-104607200D02*
X177404761Y-104654819D01*
X177404761Y-104654819D02*
X177499999Y-104654819D01*
X177499999Y-104654819D02*
X177642856Y-104607200D01*
X177642856Y-104607200D02*
X177738094Y-104511961D01*
X177738094Y-104511961D02*
X177785713Y-104416723D01*
X177785713Y-104416723D02*
X177833332Y-104226247D01*
X177833332Y-104226247D02*
X177833332Y-104083390D01*
X177833332Y-104083390D02*
X177785713Y-103892914D01*
X177785713Y-103892914D02*
X177738094Y-103797676D01*
X177738094Y-103797676D02*
X177642856Y-103702438D01*
X177642856Y-103702438D02*
X177499999Y-103654819D01*
X177499999Y-103654819D02*
X177404761Y-103654819D01*
X177404761Y-103654819D02*
X177261904Y-103702438D01*
X177261904Y-103702438D02*
X177214285Y-103750057D01*
X176833332Y-104607200D02*
X176690475Y-104654819D01*
X176690475Y-104654819D02*
X176452380Y-104654819D01*
X176452380Y-104654819D02*
X176357142Y-104607200D01*
X176357142Y-104607200D02*
X176309523Y-104559580D01*
X176309523Y-104559580D02*
X176261904Y-104464342D01*
X176261904Y-104464342D02*
X176261904Y-104369104D01*
X176261904Y-104369104D02*
X176309523Y-104273866D01*
X176309523Y-104273866D02*
X176357142Y-104226247D01*
X176357142Y-104226247D02*
X176452380Y-104178628D01*
X176452380Y-104178628D02*
X176642856Y-104131009D01*
X176642856Y-104131009D02*
X176738094Y-104083390D01*
X176738094Y-104083390D02*
X176785713Y-104035771D01*
X176785713Y-104035771D02*
X176833332Y-103940533D01*
X176833332Y-103940533D02*
X176833332Y-103845295D01*
X176833332Y-103845295D02*
X176785713Y-103750057D01*
X176785713Y-103750057D02*
X176738094Y-103702438D01*
X176738094Y-103702438D02*
X176642856Y-103654819D01*
X176642856Y-103654819D02*
X176404761Y-103654819D01*
X176404761Y-103654819D02*
X176261904Y-103702438D01*
X175880951Y-104369104D02*
X175404761Y-104369104D01*
X175976189Y-104654819D02*
X175642856Y-103654819D01*
X175642856Y-103654819D02*
X175309523Y-104654819D01*
X174976189Y-104273866D02*
X174214285Y-104273866D01*
X173404761Y-104131009D02*
X173261904Y-104178628D01*
X173261904Y-104178628D02*
X173214285Y-104226247D01*
X173214285Y-104226247D02*
X173166666Y-104321485D01*
X173166666Y-104321485D02*
X173166666Y-104464342D01*
X173166666Y-104464342D02*
X173214285Y-104559580D01*
X173214285Y-104559580D02*
X173261904Y-104607200D01*
X173261904Y-104607200D02*
X173357142Y-104654819D01*
X173357142Y-104654819D02*
X173738094Y-104654819D01*
X173738094Y-104654819D02*
X173738094Y-103654819D01*
X173738094Y-103654819D02*
X173404761Y-103654819D01*
X173404761Y-103654819D02*
X173309523Y-103702438D01*
X173309523Y-103702438D02*
X173261904Y-103750057D01*
X173261904Y-103750057D02*
X173214285Y-103845295D01*
X173214285Y-103845295D02*
X173214285Y-103940533D01*
X173214285Y-103940533D02*
X173261904Y-104035771D01*
X173261904Y-104035771D02*
X173309523Y-104083390D01*
X173309523Y-104083390D02*
X173404761Y-104131009D01*
X173404761Y-104131009D02*
X173738094Y-104131009D01*
X176761904Y-100654819D02*
X176190476Y-100654819D01*
X176476190Y-101654819D02*
X176476190Y-100654819D01*
X175857142Y-101654819D02*
X175857142Y-100654819D01*
X175857142Y-100654819D02*
X175476190Y-100654819D01*
X175476190Y-100654819D02*
X175380952Y-100702438D01*
X175380952Y-100702438D02*
X175333333Y-100750057D01*
X175333333Y-100750057D02*
X175285714Y-100845295D01*
X175285714Y-100845295D02*
X175285714Y-100988152D01*
X175285714Y-100988152D02*
X175333333Y-101083390D01*
X175333333Y-101083390D02*
X175380952Y-101131009D01*
X175380952Y-101131009D02*
X175476190Y-101178628D01*
X175476190Y-101178628D02*
X175857142Y-101178628D01*
X174428571Y-100988152D02*
X174428571Y-101654819D01*
X174666666Y-100607200D02*
X174904761Y-101321485D01*
X174904761Y-101321485D02*
X174285714Y-101321485D01*
D12*
%TO.C,R1*%
X168780000Y-103575000D02*
X169319999Y-103575000D01*
X168780001Y-104625000D02*
X168780000Y-103575000D01*
X169319999Y-103575000D02*
X169320000Y-104625000D01*
X169320000Y-104625000D02*
X168780001Y-104625000D01*
%TO.C,C7*%
X174133494Y-101808013D02*
X174633494Y-100941987D01*
X174566506Y-102058013D02*
X174133494Y-101808013D01*
X174633494Y-100941987D02*
X175066506Y-101191987D01*
X175066506Y-101191987D02*
X174566506Y-102058013D01*
%TO.C,C5*%
X173150000Y-96250000D02*
X173650000Y-96250000D01*
X173150000Y-97250000D02*
X173150000Y-96250000D01*
X173650000Y-96250000D02*
X173650000Y-97250000D01*
X173650000Y-97250000D02*
X173150000Y-97250000D01*
%TO.C,C6*%
X167833494Y-101441987D02*
X168266506Y-101191987D01*
X168266506Y-101191987D02*
X168766506Y-102058013D01*
X168333494Y-102308013D02*
X167833494Y-101441987D01*
X168766506Y-102058013D02*
X168333494Y-102308013D01*
%TO.C,C4*%
X172200000Y-96250000D02*
X172700000Y-96250000D01*
X172200000Y-97250000D02*
X172200000Y-96250000D01*
X172700000Y-96250000D02*
X172700000Y-97250000D01*
X172700000Y-97250000D02*
X172200000Y-97250000D01*
%TD*%
M02*
