%TF.GenerationSoftware,KiCad,Pcbnew,8.0.5-8.0.5-0~ubuntu24.04.1*%
%TF.CreationDate,2024-09-15T15:23:13-06:00*%
%TF.ProjectId,DRV8311 on motor driver,44525638-3331-4312-906f-6e206d6f746f,rev?*%
%TF.SameCoordinates,Original*%
%TF.FileFunction,Copper,L1,Top*%
%TF.FilePolarity,Positive*%
%FSLAX46Y46*%
G04 Gerber Fmt 4.6, Leading zero omitted, Abs format (unit mm)*
G04 Created by KiCad (PCBNEW 8.0.5-8.0.5-0~ubuntu24.04.1) date 2024-09-15 15:23:13*
%MOMM*%
%LPD*%
G01*
G04 APERTURE LIST*
G04 Aperture macros list*
%AMRoundRect*
0 Rectangle with rounded corners*
0 $1 Rounding radius*
0 $2 $3 $4 $5 $6 $7 $8 $9 X,Y pos of 4 corners*
0 Add a 4 corners polygon primitive as box body*
4,1,4,$2,$3,$4,$5,$6,$7,$8,$9,$2,$3,0*
0 Add four circle primitives for the rounded corners*
1,1,$1+$1,$2,$3*
1,1,$1+$1,$4,$5*
1,1,$1+$1,$6,$7*
1,1,$1+$1,$8,$9*
0 Add four rect primitives between the rounded corners*
20,1,$1+$1,$2,$3,$4,$5,0*
20,1,$1+$1,$4,$5,$6,$7,0*
20,1,$1+$1,$6,$7,$8,$9,0*
20,1,$1+$1,$8,$9,$2,$3,0*%
G04 Aperture macros list end*
%TA.AperFunction,ComponentPad*%
%ADD10O,1.000000X1.000000*%
%TD*%
%TA.AperFunction,SMDPad,CuDef*%
%ADD11RoundRect,0.140000X0.206244X0.077224X-0.036244X0.217224X-0.206244X-0.077224X0.036244X-0.217224X0*%
%TD*%
%TA.AperFunction,SMDPad,CuDef*%
%ADD12C,2.000000*%
%TD*%
%TA.AperFunction,SMDPad,CuDef*%
%ADD13RoundRect,0.140000X0.170000X-0.140000X0.170000X0.140000X-0.170000X0.140000X-0.170000X-0.140000X0*%
%TD*%
%TA.AperFunction,SMDPad,CuDef*%
%ADD14R,0.200000X0.469999*%
%TD*%
%TA.AperFunction,SMDPad,CuDef*%
%ADD15R,0.469999X0.200000*%
%TD*%
%TA.AperFunction,ComponentPad*%
%ADD16C,0.600000*%
%TD*%
%TA.AperFunction,SMDPad,CuDef*%
%ADD17R,1.899999X1.899999*%
%TD*%
%TA.AperFunction,SMDPad,CuDef*%
%ADD18C,1.000000*%
%TD*%
%TA.AperFunction,SMDPad,CuDef*%
%ADD19RoundRect,0.135000X0.092715X-0.209413X0.227715X0.024413X-0.092715X0.209413X-0.227715X-0.024413X0*%
%TD*%
%TA.AperFunction,SMDPad,CuDef*%
%ADD20RoundRect,0.135000X0.185000X-0.135000X0.185000X0.135000X-0.185000X0.135000X-0.185000X-0.135000X0*%
%TD*%
%TA.AperFunction,ViaPad*%
%ADD21C,0.600000*%
%TD*%
%TA.AperFunction,Conductor*%
%ADD22C,0.200000*%
%TD*%
G04 APERTURE END LIST*
D10*
%TO.P,J3,1,Pin_1*%
%TO.N,Net-(J3-Pin_1)*%
X167600000Y-103450000D03*
%TD*%
D11*
%TO.P,C1,1*%
%TO.N,GND*%
X173915692Y-103290000D03*
%TO.P,C1,2*%
%TO.N,+3.3V*%
X173084308Y-102810000D03*
%TD*%
D12*
%TO.P,TP2,1,1*%
%TO.N,GND*%
X172750000Y-96400000D03*
%TD*%
D13*
%TO.P,C3,1*%
%TO.N,VDD*%
X168700000Y-97280000D03*
%TO.P,C3,2*%
%TO.N,GND*%
X168700000Y-96320000D03*
%TD*%
D14*
%TO.P,U1,1,FAULT_N*%
%TO.N,unconnected-(U1-FAULT_N-Pad1)*%
X172450000Y-98954998D03*
%TO.P,U1,2,CSAREF*%
%TO.N,+3.3V*%
X172050001Y-98954998D03*
%TO.P,U1,3,SOC*%
%TO.N,Net-(U1-SOC)*%
X171649999Y-98954998D03*
%TO.P,U1,4,SOB*%
%TO.N,Net-(U1-SOB)*%
X171250000Y-98954998D03*
%TO.P,U1,5,SOA*%
%TO.N,Net-(U1-SOA)*%
X170850001Y-98954998D03*
%TO.P,U1,6,CP*%
%TO.N,Net-(U1-CP)*%
X170449999Y-98954998D03*
%TO.P,U1,7,VIN_AVDD*%
%TO.N,VDD*%
X170050000Y-98954998D03*
D15*
%TO.P,U1,8,VM*%
X169784999Y-99749998D03*
%TO.P,U1,9,PGND*%
%TO.N,GND*%
X169784999Y-100150000D03*
%TO.P,U1,10,OUTA*%
%TO.N,Net-(J2-Pin_1)*%
X169784999Y-100549999D03*
%TO.P,U1,11,OUTB*%
%TO.N,Net-(J1-Pin_1)*%
X169784999Y-100949998D03*
%TO.P,U1,12,OUTC*%
%TO.N,Net-(J3-Pin_1)*%
X169784999Y-101350000D03*
D14*
%TO.P,U1,13,INHC*%
%TO.N,Net-(U1-INHC)*%
X170050000Y-101885000D03*
%TO.P,U1,14,INHB*%
%TO.N,Net-(U1-INHB)*%
X170449999Y-101885000D03*
%TO.P,U1,15,INHA*%
%TO.N,Net-(U1-INHA)*%
X170850001Y-101885000D03*
%TO.P,U1,16,AGND*%
%TO.N,GND*%
X171250000Y-101885000D03*
%TO.P,U1,17,AVDD*%
%TO.N,+3.3V*%
X171649999Y-101885000D03*
%TO.P,U1,18,INLA*%
X172050001Y-101885000D03*
%TO.P,U1,19,INLB*%
X172450000Y-101885000D03*
D15*
%TO.P,U1,20,INLC*%
X172715001Y-101350000D03*
%TO.P,U1,21,GAIN*%
%TO.N,Net-(U1-GAIN)*%
X172715001Y-100949998D03*
%TO.P,U1,22,SLEW*%
%TO.N,unconnected-(U1-SLEW-Pad22)*%
X172715001Y-100549999D03*
%TO.P,U1,23,MODE*%
%TO.N,+3.3V*%
X172715001Y-100150000D03*
%TO.P,U1,24,SLEEP_N*%
%TO.N,Net-(U1-SLEEP_N)*%
X172715001Y-99749998D03*
D16*
%TO.P,U1,25,PowerPAD*%
%TO.N,GND*%
X171950001Y-99719998D03*
X170549999Y-99719998D03*
D17*
X171250000Y-100419999D03*
D16*
X171250000Y-100445399D03*
X171950001Y-101120000D03*
X170549999Y-101120000D03*
%TD*%
D10*
%TO.P,J1,1,Pin_1*%
%TO.N,Net-(J1-Pin_1)*%
X166900000Y-102350000D03*
%TD*%
D18*
%TO.P,TP7,1,1*%
%TO.N,Net-(U1-INHB)*%
X175500000Y-102700000D03*
%TD*%
%TO.P,TP8,1,1*%
%TO.N,Net-(U1-INHC)*%
X173150000Y-104850000D03*
%TD*%
D10*
%TO.P,J2,1,Pin_1*%
%TO.N,Net-(J2-Pin_1)*%
X166600000Y-101100000D03*
%TD*%
D19*
%TO.P,R3,1*%
%TO.N,GND*%
X173995000Y-101991673D03*
%TO.P,R3,2*%
%TO.N,Net-(U1-GAIN)*%
X174505000Y-101108327D03*
%TD*%
D13*
%TO.P,C2,1*%
%TO.N,Net-(U1-CP)*%
X169950000Y-97430000D03*
%TO.P,C2,2*%
%TO.N,VDD*%
X169950000Y-96470000D03*
%TD*%
D18*
%TO.P,TP5,1,1*%
%TO.N,Net-(U1-INHA)*%
X176050000Y-100700000D03*
%TD*%
D20*
%TO.P,R2,1*%
%TO.N,GND*%
X169050000Y-104609999D03*
%TO.P,R2,2*%
%TO.N,Net-(U1-SLEEP_N)*%
X169050000Y-103590001D03*
%TD*%
D21*
%TO.N,+3.3V*%
X172799751Y-98147108D03*
X173116373Y-102216373D03*
X173769874Y-100675546D03*
%TO.N,GND*%
X167804580Y-96860461D03*
X175850000Y-98850000D03*
X175650000Y-98050000D03*
X174600000Y-96700000D03*
X169705640Y-105174954D03*
X174050000Y-97300000D03*
X173908365Y-102555608D03*
X175050000Y-97400000D03*
%TO.N,VDD*%
X170000000Y-96050000D03*
X169475248Y-96675624D03*
X166650000Y-98850000D03*
X167400000Y-99900000D03*
X166600000Y-99850000D03*
X171319090Y-95950000D03*
%TO.N,Net-(U1-SLEEP_N)*%
X174543328Y-100249977D03*
X169400000Y-103860612D03*
%TO.N,Net-(U1-SOA)*%
X170673748Y-97893002D03*
X174140084Y-104551384D03*
%TO.N,Net-(U1-SOB)*%
X171268000Y-97258800D03*
X175996140Y-101831754D03*
%TO.N,Net-(U1-SOC)*%
X171879907Y-97871564D03*
X176247018Y-99719598D03*
%TO.N,Net-(U1-INHB)*%
X170327877Y-102597695D03*
X175172494Y-103594849D03*
%TD*%
D22*
%TO.N,+3.3V*%
X173143120Y-100173483D02*
X173112782Y-100150000D01*
X172715001Y-101750000D02*
X172715001Y-101350000D01*
X173250000Y-100256215D02*
X173143120Y-100173483D01*
X172580001Y-101885000D02*
X172715001Y-101750000D01*
X172785000Y-101885000D02*
X172450000Y-101885000D01*
X173769874Y-100675546D02*
X173487030Y-100675546D01*
X173250000Y-100438516D02*
X173250000Y-100256215D01*
X173116373Y-102216373D02*
X172785000Y-101885000D01*
X173487030Y-100675546D02*
X173250000Y-100438516D01*
X171649999Y-101885000D02*
X172450000Y-101885000D01*
X172450000Y-101885000D02*
X172580001Y-101885000D01*
X173112782Y-100150000D02*
X172715001Y-100150000D01*
X173084308Y-102248438D02*
X173084308Y-102810000D01*
X172799751Y-98147108D02*
X172452892Y-98147108D01*
X172050001Y-98549999D02*
X172050001Y-98954998D01*
X173116373Y-102216373D02*
X173084308Y-102248438D01*
X172452892Y-98147108D02*
X172050001Y-98549999D01*
%TO.N,GND*%
X169849271Y-95450000D02*
X170666688Y-95450000D01*
X168700000Y-96320000D02*
X168345041Y-96320000D01*
X173908365Y-102555608D02*
X173995000Y-102468973D01*
X169705640Y-105174954D02*
X169705640Y-104935640D01*
X169427328Y-95592672D02*
X169568078Y-95536114D01*
X170666688Y-95450000D02*
X170766688Y-95350000D01*
X168700000Y-96320000D02*
X169427328Y-95592672D01*
X173995000Y-102468973D02*
X173995000Y-101991673D01*
X169568078Y-95536114D02*
X169849271Y-95450000D01*
X172648529Y-96400000D02*
X172750000Y-96400000D01*
X173908365Y-102555608D02*
X173915692Y-102562935D01*
X170319996Y-100150000D02*
X170549999Y-99919997D01*
X170766688Y-95350000D02*
X171598529Y-95350000D01*
X171250000Y-101885000D02*
X171250000Y-100419999D01*
X170915000Y-100250000D02*
X171184999Y-100519999D01*
X171598529Y-95350000D02*
X172648529Y-96400000D01*
X169784999Y-100150000D02*
X170319996Y-100150000D01*
X170549999Y-99919997D02*
X170549999Y-99719998D01*
X173915692Y-102562935D02*
X173915692Y-103290000D01*
X168345041Y-96320000D02*
X167804580Y-96860461D01*
X169705640Y-104935640D02*
X169400000Y-104630000D01*
%TO.N,VDD*%
X169699114Y-98408089D02*
X169594653Y-98164668D01*
X166650000Y-98850000D02*
X166650000Y-98749175D01*
X169475248Y-96675624D02*
X169744376Y-96675624D01*
X169744376Y-96675624D02*
X169950000Y-96470000D01*
X170050000Y-98954998D02*
X169749817Y-98654815D01*
X168700000Y-97280000D02*
X169240000Y-97280000D01*
X169594653Y-98164668D02*
X169443328Y-97947253D01*
X169749817Y-98654815D02*
X169699114Y-98408089D01*
X168519539Y-97460461D02*
X168700000Y-97280000D01*
X170000000Y-96050000D02*
X170000000Y-96420000D01*
X166857472Y-100107472D02*
X168983546Y-100107472D01*
X170000000Y-96420000D02*
X169950000Y-96470000D01*
X169310000Y-97350000D02*
X169310000Y-97110000D01*
X169310000Y-97110000D02*
X169950000Y-96470000D01*
X169341020Y-99749998D02*
X169784999Y-99749998D01*
X168983546Y-100107472D02*
X169341020Y-99749998D01*
X169443328Y-97947253D02*
X169310000Y-97820515D01*
X166600000Y-99850000D02*
X166857472Y-100107472D01*
X169240000Y-97280000D02*
X169310000Y-97350000D01*
X169310000Y-97820515D02*
X169310000Y-97350000D01*
%TO.N,Net-(U1-CP)*%
X170449999Y-98549999D02*
X170073748Y-98173748D01*
X170073748Y-98173748D02*
X170073748Y-97553748D01*
X170449999Y-98954998D02*
X170449999Y-98549999D01*
X170073748Y-97553748D02*
X169950000Y-97430000D01*
%TO.N,Net-(U1-SLEEP_N)*%
X173951758Y-100094055D02*
X173892562Y-100078728D01*
X173781608Y-100050000D02*
X173695326Y-100027660D01*
X173695326Y-100027660D02*
X173457505Y-99911003D01*
X174543328Y-100249977D02*
X174393351Y-100100000D01*
X169320611Y-103860612D02*
X169050000Y-103590001D01*
X173249504Y-99749998D02*
X172715001Y-99749998D01*
X173892562Y-100078728D02*
X173781608Y-100050000D01*
X174393351Y-100100000D02*
X173957703Y-100100000D01*
X169400000Y-103860612D02*
X169320611Y-103860612D01*
X173957703Y-100100000D02*
X173951758Y-100094055D01*
X173457505Y-99911003D02*
X173249504Y-99749998D01*
%TO.N,Net-(U1-GAIN)*%
X173521344Y-101275546D02*
X173195796Y-100949998D01*
X173195796Y-100949998D02*
X172715001Y-100949998D01*
X174505000Y-101108327D02*
X174337781Y-101275546D01*
X174337781Y-101275546D02*
X173521344Y-101275546D01*
%TO.N,Net-(U1-SOA)*%
X170850001Y-98069255D02*
X170850001Y-98954998D01*
X170673748Y-97893002D02*
X170850001Y-98069255D01*
%TO.N,Net-(U1-SOB)*%
X171268000Y-97258800D02*
X171273748Y-97264548D01*
X171250000Y-98165279D02*
X171250000Y-98954998D01*
X171273748Y-98141531D02*
X171250000Y-98165279D01*
X171273748Y-97264548D02*
X171273748Y-98141531D01*
%TO.N,Net-(U1-INHA)*%
X171838603Y-102442528D02*
X171021239Y-102442528D01*
X174600000Y-102228029D02*
X174600000Y-103318814D01*
X174600000Y-103318814D02*
X174572494Y-103346320D01*
X176050000Y-100778029D02*
X174600000Y-102228029D01*
X174572494Y-103577506D02*
X174201254Y-103948746D01*
X171021239Y-102442528D02*
X170850001Y-102271290D01*
X172864821Y-103468746D02*
X172835179Y-103468746D01*
X174572494Y-103346320D02*
X174572494Y-103577506D01*
X176050000Y-100700000D02*
X176050000Y-100778029D01*
X172835179Y-103468746D02*
X172436543Y-103070110D01*
X173344821Y-103948746D02*
X172864821Y-103468746D01*
X170850001Y-102271290D02*
X170850001Y-101885000D01*
X172436543Y-103040468D02*
X171838603Y-102442528D01*
X172436543Y-103070110D02*
X172436543Y-103040468D01*
X174201254Y-103948746D02*
X173344821Y-103948746D01*
%TO.N,Net-(U1-SOC)*%
X171649999Y-98330966D02*
X171879907Y-98101058D01*
X171879907Y-98101058D02*
X171879907Y-97871564D01*
X171649999Y-98954998D02*
X171649999Y-98330966D01*
%TO.N,Net-(U1-INHB)*%
X170327877Y-102597695D02*
X170449999Y-102475573D01*
X175172494Y-103594849D02*
X175172494Y-103027506D01*
X175172494Y-103027506D02*
X175500000Y-102700000D01*
X170449999Y-102475573D02*
X170449999Y-101885000D01*
%TO.N,Net-(U1-INHC)*%
X170000000Y-104620785D02*
X170000000Y-103118347D01*
X173150000Y-104850000D02*
X172900000Y-105100000D01*
X170479215Y-105100000D02*
X170000000Y-104620785D01*
X170000000Y-103118347D02*
X169720290Y-102838637D01*
X172900000Y-105100000D02*
X170479215Y-105100000D01*
X169720290Y-102214710D02*
X170050000Y-101885000D01*
X169720290Y-102838637D02*
X169720290Y-102214710D01*
%TD*%
%TA.AperFunction,Conductor*%
%TO.N,Net-(J2-Pin_1)*%
G36*
X169970558Y-100453868D02*
G01*
X169973926Y-100462000D01*
X169970558Y-100470132D01*
X169966929Y-100472582D01*
X169563906Y-100644081D01*
X169559403Y-100644999D01*
X169550683Y-100644999D01*
X169514613Y-100648189D01*
X169514611Y-100648190D01*
X169510641Y-100648897D01*
X169510639Y-100648898D01*
X169475686Y-100658374D01*
X169475669Y-100658379D01*
X169124338Y-100787816D01*
X169124333Y-100787818D01*
X169084798Y-100802383D01*
X169084403Y-100802521D01*
X166664313Y-101595310D01*
X166655537Y-101594640D01*
X166649804Y-101587961D01*
X166649248Y-101584960D01*
X166602410Y-100648190D01*
X166600854Y-100617074D01*
X166603812Y-100608784D01*
X166611766Y-100605014D01*
X166612340Y-100605000D01*
X166658710Y-100605000D01*
X166661462Y-100605334D01*
X166677833Y-100609369D01*
X166677835Y-100609369D01*
X166677842Y-100609371D01*
X166707818Y-100614443D01*
X166711196Y-100614760D01*
X166741588Y-100615354D01*
X168448508Y-100522249D01*
X168717594Y-100507572D01*
X168724848Y-100507047D01*
X168725658Y-100506974D01*
X168733087Y-100506169D01*
X168733095Y-100506167D01*
X168733104Y-100506167D01*
X168743146Y-100504893D01*
X168743147Y-100504892D01*
X168774412Y-100500930D01*
X168788922Y-100498561D01*
X168790535Y-100498238D01*
X168804855Y-100494833D01*
X168834503Y-100486650D01*
X168836953Y-100486255D01*
X169539851Y-100450514D01*
X169540435Y-100450500D01*
X169745437Y-100450500D01*
X169962426Y-100450500D01*
X169970558Y-100453868D01*
G37*
%TD.AperFunction*%
%TD*%
%TA.AperFunction,Conductor*%
%TO.N,GND*%
G36*
X170300000Y-100900000D02*
G01*
X170214280Y-100701010D01*
X170220499Y-100669747D01*
X170220499Y-100430251D01*
X170208866Y-100371768D01*
X170182300Y-100332011D01*
X170164551Y-100305446D01*
X170124794Y-100278881D01*
X170098230Y-100261132D01*
X170039747Y-100249499D01*
X170039744Y-100249499D01*
X170019999Y-100249499D01*
X170019999Y-100050498D01*
X170039744Y-100050498D01*
X170039747Y-100050498D01*
X170098230Y-100038865D01*
X170164551Y-99994550D01*
X170187435Y-99960301D01*
X170300000Y-99900000D01*
X170300000Y-100900000D01*
G37*
%TD.AperFunction*%
%TD*%
%TA.AperFunction,Conductor*%
%TO.N,Net-(J3-Pin_1)*%
G36*
X169556319Y-101252689D02*
G01*
X169812952Y-101361895D01*
X169966931Y-101427418D01*
X169973094Y-101433702D01*
X169973010Y-101442503D01*
X169966726Y-101448666D01*
X169962428Y-101449500D01*
X169930252Y-101449500D01*
X169906988Y-101454127D01*
X169871771Y-101461132D01*
X169871767Y-101461134D01*
X169805449Y-101505446D01*
X169805446Y-101505449D01*
X169761134Y-101571767D01*
X169761132Y-101571771D01*
X169749500Y-101630253D01*
X169749500Y-101751040D01*
X169746609Y-101758665D01*
X169709999Y-101799998D01*
X169709522Y-101800505D01*
X169535779Y-101974250D01*
X169479829Y-102030199D01*
X169440268Y-102098722D01*
X169440267Y-102098724D01*
X169438735Y-102104438D01*
X169436237Y-102109084D01*
X167860038Y-103888666D01*
X167852125Y-103892520D01*
X167843804Y-103889650D01*
X167841776Y-103887290D01*
X167305649Y-103058730D01*
X167304059Y-103050073D01*
X167308118Y-103043504D01*
X169544634Y-101254291D01*
X169553088Y-101251842D01*
X169556319Y-101252689D01*
G37*
%TD.AperFunction*%
%TD*%
%TA.AperFunction,Conductor*%
%TO.N,VDD*%
G36*
X168841789Y-97000167D02*
G01*
X168939564Y-97017068D01*
X168943251Y-97018382D01*
X169028806Y-97066630D01*
X169031837Y-97069103D01*
X169088040Y-97133835D01*
X169096893Y-97144031D01*
X169098048Y-97145618D01*
X169672992Y-98096486D01*
X170023570Y-98676287D01*
X170024032Y-98677129D01*
X170045632Y-98720695D01*
X170046338Y-98722480D01*
X170060390Y-98769029D01*
X170060629Y-98769959D01*
X170134408Y-99116718D01*
X170134615Y-99118096D01*
X170140836Y-99188302D01*
X170140745Y-99191083D01*
X170129922Y-99260730D01*
X170129625Y-99262091D01*
X170042099Y-99571797D01*
X170019999Y-99649998D01*
X170019715Y-99690479D01*
X170019715Y-99690482D01*
X170019309Y-99748228D01*
X170018751Y-99751685D01*
X169993996Y-99828242D01*
X169989983Y-99833882D01*
X169972371Y-99847178D01*
X169965442Y-99849500D01*
X169530251Y-99849500D01*
X169506987Y-99854127D01*
X169471770Y-99861132D01*
X169471766Y-99861134D01*
X169405448Y-99905446D01*
X169405445Y-99905449D01*
X169361133Y-99971767D01*
X169361131Y-99971771D01*
X169349499Y-100030253D01*
X169349499Y-100079220D01*
X169346131Y-100087352D01*
X169341844Y-100090058D01*
X168791159Y-100285399D01*
X168790373Y-100285647D01*
X168750185Y-100296738D01*
X168748572Y-100297061D01*
X168710986Y-100301825D01*
X168707212Y-100302304D01*
X168706402Y-100302377D01*
X168437316Y-100317054D01*
X166730396Y-100410159D01*
X166727018Y-100409842D01*
X166697622Y-100402597D01*
X166685056Y-100399500D01*
X166514944Y-100399500D01*
X166399220Y-100428021D01*
X166397095Y-100428338D01*
X166364594Y-100430112D01*
X166362569Y-100430044D01*
X166261139Y-100417625D01*
X166257284Y-100416440D01*
X166167306Y-100370224D01*
X166164099Y-100367781D01*
X166129860Y-100330556D01*
X166095620Y-100293331D01*
X166093453Y-100289930D01*
X166091644Y-100285541D01*
X166054904Y-100196409D01*
X166054045Y-100192473D01*
X166050129Y-100090347D01*
X166050229Y-100088346D01*
X166083334Y-99849998D01*
X166165080Y-99261422D01*
X166201569Y-98998701D01*
X166201985Y-98996857D01*
X166264054Y-98800000D01*
X167244357Y-98800000D01*
X167264884Y-99021533D01*
X167325771Y-99235529D01*
X167424942Y-99434690D01*
X167424944Y-99434693D01*
X167559011Y-99612227D01*
X167559014Y-99612230D01*
X167559019Y-99612236D01*
X167723438Y-99762124D01*
X167912599Y-99879247D01*
X168120060Y-99959618D01*
X168338754Y-100000499D01*
X168338755Y-100000500D01*
X168338757Y-100000500D01*
X168561245Y-100000500D01*
X168561245Y-100000499D01*
X168779940Y-99959618D01*
X168987401Y-99879247D01*
X169176562Y-99762124D01*
X169340981Y-99612236D01*
X169367182Y-99577541D01*
X169475055Y-99434693D01*
X169475057Y-99434690D01*
X169475056Y-99434690D01*
X169475058Y-99434689D01*
X169574229Y-99235528D01*
X169635115Y-99021536D01*
X169655643Y-98800000D01*
X169635115Y-98578464D01*
X169574229Y-98364472D01*
X169475058Y-98165311D01*
X169475057Y-98165310D01*
X169475057Y-98165309D01*
X169475055Y-98165306D01*
X169340988Y-97987772D01*
X169340984Y-97987769D01*
X169340981Y-97987764D01*
X169176562Y-97837876D01*
X169176561Y-97837875D01*
X169035517Y-97750545D01*
X168987401Y-97720753D01*
X168987396Y-97720751D01*
X168987390Y-97720748D01*
X168779942Y-97640382D01*
X168561245Y-97599500D01*
X168561243Y-97599500D01*
X168338757Y-97599500D01*
X168338754Y-97599500D01*
X168120058Y-97640382D01*
X168120057Y-97640382D01*
X167912609Y-97720748D01*
X167912597Y-97720754D01*
X167723438Y-97837875D01*
X167643773Y-97910500D01*
X167559019Y-97987764D01*
X167559017Y-97987766D01*
X167559011Y-97987772D01*
X167424944Y-98165306D01*
X167424942Y-98165309D01*
X167325771Y-98364470D01*
X167264884Y-98578466D01*
X167244357Y-98800000D01*
X166264054Y-98800000D01*
X166319427Y-98624377D01*
X166319768Y-98623442D01*
X166320326Y-98622095D01*
X166435325Y-98344464D01*
X166436099Y-98342935D01*
X166469146Y-98288409D01*
X167161908Y-97145349D01*
X167163065Y-97143765D01*
X167228115Y-97068975D01*
X167231148Y-97066502D01*
X167313547Y-97020089D01*
X167322284Y-97019034D01*
X167329210Y-97024466D01*
X167329651Y-97025333D01*
X167379203Y-97133834D01*
X167379203Y-97133835D01*
X167473451Y-97242603D01*
X167473455Y-97242606D01*
X167587496Y-97315896D01*
X167594527Y-97320414D01*
X167675216Y-97344106D01*
X167732618Y-97360961D01*
X167732619Y-97360961D01*
X167876541Y-97360961D01*
X168014633Y-97320414D01*
X168135708Y-97242604D01*
X168229957Y-97133834D01*
X168288007Y-97006722D01*
X168294449Y-97000725D01*
X168298468Y-97000000D01*
X168839831Y-97000000D01*
X168841789Y-97000167D01*
G37*
%TD.AperFunction*%
%TD*%
%TA.AperFunction,Conductor*%
%TO.N,Net-(J1-Pin_1)*%
G36*
X169970558Y-100853867D02*
G01*
X169973926Y-100861999D01*
X169970558Y-100870131D01*
X169966929Y-100872581D01*
X169553326Y-101048582D01*
X169548823Y-101049500D01*
X169530251Y-101049500D01*
X169527090Y-101050128D01*
X169509957Y-101053535D01*
X169508377Y-101053737D01*
X169495908Y-101054456D01*
X169487458Y-101056905D01*
X169487449Y-101056908D01*
X169485440Y-101057950D01*
X169482392Y-101059019D01*
X169471769Y-101061132D01*
X169471768Y-101061133D01*
X169446194Y-101078220D01*
X169445099Y-101078867D01*
X169416257Y-101093822D01*
X169416257Y-101093823D01*
X168760624Y-101618328D01*
X168760160Y-101618681D01*
X167062279Y-102841158D01*
X167053711Y-102843176D01*
X167046226Y-102838545D01*
X167044770Y-102835805D01*
X166703975Y-101910789D01*
X166704324Y-101901996D01*
X166710788Y-101896025D01*
X169196551Y-100980215D01*
X169546715Y-100851208D01*
X169550691Y-100850499D01*
X169962426Y-100850499D01*
X169970558Y-100853867D01*
G37*
%TD.AperFunction*%
%TD*%
%TA.AperFunction,Conductor*%
%TO.N,GND*%
G36*
X171636428Y-101449500D02*
G01*
X171530251Y-101449500D01*
X171471768Y-101461133D01*
X171405446Y-101505447D01*
X171361132Y-101571769D01*
X171349499Y-101630252D01*
X171349499Y-101630255D01*
X171349499Y-101650000D01*
X171150501Y-101650000D01*
X171150501Y-101630252D01*
X171138868Y-101571769D01*
X171112302Y-101532012D01*
X171094553Y-101505447D01*
X171050001Y-101475679D01*
X171028232Y-101461133D01*
X170969749Y-101449500D01*
X170863572Y-101449500D01*
X170750000Y-101369999D01*
X171750000Y-101369999D01*
X171636428Y-101449500D01*
G37*
%TD.AperFunction*%
%TD*%
%TA.AperFunction,Conductor*%
%TO.N,GND*%
G36*
X168457023Y-103648054D02*
G01*
X168505139Y-103690671D01*
X168519500Y-103743405D01*
X168519500Y-103765497D01*
X168526123Y-103815801D01*
X168577614Y-103926225D01*
X168577617Y-103926229D01*
X168663771Y-104012383D01*
X168663775Y-104012386D01*
X168774199Y-104063877D01*
X168824503Y-104070500D01*
X168824510Y-104070500D01*
X168824514Y-104070501D01*
X168867799Y-104070501D01*
X168928929Y-104090363D01*
X168962400Y-104131295D01*
X168966123Y-104139448D01*
X169062256Y-104250390D01*
X169185750Y-104329755D01*
X169326601Y-104371112D01*
X169326604Y-104371112D01*
X169473396Y-104371112D01*
X169473399Y-104371112D01*
X169549950Y-104348635D01*
X169556200Y-104346800D01*
X169620449Y-104348635D01*
X169671349Y-104387885D01*
X169689500Y-104446587D01*
X169689500Y-104661668D01*
X169710659Y-104740632D01*
X169710661Y-104740637D01*
X169727405Y-104769638D01*
X169751538Y-104811437D01*
X170288563Y-105348462D01*
X170329441Y-105372062D01*
X170359367Y-105389340D01*
X170383800Y-105395886D01*
X170417177Y-105404830D01*
X170417176Y-105404831D01*
X170417183Y-105404831D01*
X170429999Y-105408265D01*
X170438335Y-105410500D01*
X170438336Y-105410500D01*
X170438337Y-105410500D01*
X172374911Y-105410500D01*
X172436041Y-105430362D01*
X172473821Y-105482362D01*
X172473821Y-105546638D01*
X172436041Y-105598638D01*
X172397421Y-105616035D01*
X172224154Y-105654447D01*
X172215219Y-105656022D01*
X171765864Y-105715180D01*
X171756825Y-105715971D01*
X171304014Y-105735741D01*
X171294942Y-105735741D01*
X170842130Y-105715971D01*
X170833091Y-105715180D01*
X170383736Y-105656022D01*
X170374801Y-105654447D01*
X169932299Y-105556346D01*
X169923536Y-105553998D01*
X169491264Y-105417703D01*
X169482738Y-105414599D01*
X169064012Y-105241157D01*
X169055789Y-105237323D01*
X168653757Y-105028039D01*
X168645900Y-105023503D01*
X168263639Y-104779975D01*
X168256207Y-104774771D01*
X167896631Y-104498860D01*
X167889680Y-104493028D01*
X167822834Y-104431775D01*
X167761299Y-104375388D01*
X167703757Y-104322660D01*
X167672107Y-104266717D01*
X167679383Y-104202855D01*
X167722807Y-104155466D01*
X167749124Y-104145007D01*
X167853797Y-104119208D01*
X167878536Y-104106223D01*
X167901754Y-104097388D01*
X167946487Y-104086262D01*
X167954400Y-104082408D01*
X167973666Y-104067775D01*
X168021353Y-104031555D01*
X168021354Y-104031553D01*
X168021359Y-104031550D01*
X168040324Y-104010136D01*
X168049198Y-104001261D01*
X168135723Y-103924609D01*
X168201533Y-103829264D01*
X168209254Y-103819409D01*
X168337647Y-103674448D01*
X168393047Y-103641858D01*
X168457023Y-103648054D01*
G37*
%TD.AperFunction*%
%TA.AperFunction,Conductor*%
G36*
X173437494Y-101574532D02*
G01*
X173480461Y-101586045D01*
X173480464Y-101586045D01*
X173480466Y-101586046D01*
X174296902Y-101586046D01*
X174343567Y-101586046D01*
X174395566Y-101599979D01*
X174459445Y-101636859D01*
X174460027Y-101637195D01*
X174506913Y-101656616D01*
X174506916Y-101656616D01*
X174508528Y-101657011D01*
X174509867Y-101657839D01*
X174514264Y-101659661D01*
X174513967Y-101660377D01*
X174563184Y-101690835D01*
X174587520Y-101750326D01*
X174572241Y-101812759D01*
X174557345Y-101831569D01*
X174351540Y-102037374D01*
X174310660Y-102108179D01*
X174310658Y-102108185D01*
X174292933Y-102174338D01*
X174292933Y-102174339D01*
X174289500Y-102187149D01*
X174289500Y-103190464D01*
X174283713Y-103219565D01*
X174284918Y-103219888D01*
X174267386Y-103285318D01*
X174261994Y-103305438D01*
X174261994Y-103405814D01*
X174242132Y-103466944D01*
X174231533Y-103479353D01*
X174103101Y-103607785D01*
X174045831Y-103636966D01*
X174029562Y-103638246D01*
X173516512Y-103638246D01*
X173455382Y-103618384D01*
X173442973Y-103607785D01*
X173308088Y-103472900D01*
X173278907Y-103415630D01*
X173288962Y-103352146D01*
X173323549Y-103313089D01*
X173364800Y-103285320D01*
X173407463Y-103231278D01*
X173610723Y-102879222D01*
X173636193Y-102815253D01*
X173644246Y-102698555D01*
X173613970Y-102585564D01*
X173613970Y-102585563D01*
X173583940Y-102540954D01*
X173566280Y-102479152D01*
X173575612Y-102439673D01*
X173611230Y-102361681D01*
X173611232Y-102361677D01*
X173615669Y-102330816D01*
X173632123Y-102216376D01*
X173632123Y-102216369D01*
X173611233Y-102071074D01*
X173611231Y-102071067D01*
X173586717Y-102017389D01*
X173550250Y-101937537D01*
X173454117Y-101826595D01*
X173454116Y-101826594D01*
X173354349Y-101762478D01*
X173313662Y-101712720D01*
X173309993Y-101648549D01*
X173344743Y-101594477D01*
X173404639Y-101571158D01*
X173437494Y-101574532D01*
G37*
%TD.AperFunction*%
%TA.AperFunction,Conductor*%
G36*
X170729268Y-99400498D02*
G01*
X170970733Y-99400497D01*
X171029716Y-99388766D01*
X171070285Y-99388766D01*
X171129267Y-99400498D01*
X171370732Y-99400497D01*
X171429715Y-99388766D01*
X171470284Y-99388766D01*
X171529266Y-99400498D01*
X171770731Y-99400497D01*
X171829714Y-99388766D01*
X171870286Y-99388766D01*
X171929268Y-99400498D01*
X172170733Y-99400497D01*
X172181441Y-99398367D01*
X172245271Y-99405920D01*
X172292471Y-99449549D01*
X172305012Y-99512589D01*
X172288207Y-99558145D01*
X172281716Y-99567859D01*
X172281715Y-99567862D01*
X172281714Y-99567864D01*
X172281714Y-99567865D01*
X172269501Y-99629265D01*
X172269501Y-99629267D01*
X172269501Y-99870728D01*
X172269502Y-99870734D01*
X172281233Y-99929711D01*
X172281233Y-99970285D01*
X172271015Y-100021657D01*
X172269501Y-100029269D01*
X172269501Y-100270730D01*
X172269502Y-100270738D01*
X172281232Y-100329714D01*
X172281232Y-100370289D01*
X172269501Y-100429266D01*
X172269501Y-100670729D01*
X172269502Y-100670737D01*
X172281232Y-100729713D01*
X172281232Y-100770288D01*
X172269501Y-100829265D01*
X172269501Y-101070728D01*
X172269502Y-101070734D01*
X172275846Y-101102626D01*
X172281081Y-101128950D01*
X172281233Y-101129711D01*
X172281233Y-101170285D01*
X172280352Y-101174716D01*
X172269501Y-101229269D01*
X172269501Y-101335500D01*
X172249639Y-101396630D01*
X172197639Y-101434410D01*
X172165501Y-101439500D01*
X171929270Y-101439500D01*
X171929259Y-101439502D01*
X171870284Y-101451231D01*
X171829710Y-101451231D01*
X171812647Y-101447837D01*
X171770732Y-101439500D01*
X171770729Y-101439500D01*
X171650713Y-101439500D01*
X171750000Y-101369999D01*
X170750000Y-101369999D01*
X170849287Y-101439500D01*
X170729270Y-101439500D01*
X170729259Y-101439502D01*
X170670284Y-101451231D01*
X170629710Y-101451231D01*
X170597284Y-101444781D01*
X170570732Y-101439500D01*
X170570731Y-101439500D01*
X170334498Y-101439500D01*
X170273368Y-101419638D01*
X170235588Y-101367638D01*
X170230498Y-101335500D01*
X170230498Y-101229269D01*
X170230497Y-101229263D01*
X170218767Y-101170285D01*
X170218767Y-101129711D01*
X170230499Y-101070731D01*
X170230498Y-100829266D01*
X170218767Y-100770283D01*
X170218767Y-100729713D01*
X170221255Y-100717201D01*
X170300000Y-100900000D01*
X170300000Y-99900000D01*
X170206168Y-99950266D01*
X170218284Y-99932135D01*
X170218284Y-99932133D01*
X170218286Y-99932131D01*
X170230499Y-99870731D01*
X170230498Y-99800551D01*
X170231828Y-99783973D01*
X170232055Y-99782566D01*
X170234802Y-99749763D01*
X170234804Y-99749743D01*
X170235191Y-99694640D01*
X170239108Y-99667090D01*
X170249477Y-99630404D01*
X170254612Y-99612236D01*
X170282772Y-99512589D01*
X170293052Y-99476213D01*
X170328790Y-99422790D01*
X170389104Y-99400575D01*
X170393094Y-99400497D01*
X170570731Y-99400497D01*
X170629714Y-99388766D01*
X170670286Y-99388766D01*
X170729268Y-99400498D01*
G37*
%TD.AperFunction*%
%TA.AperFunction,Conductor*%
G36*
X171752984Y-95156740D02*
G01*
X171756825Y-95156908D01*
X171765864Y-95157699D01*
X172215230Y-95216859D01*
X172224144Y-95218430D01*
X172666656Y-95316533D01*
X172675419Y-95318881D01*
X173107691Y-95455176D01*
X173116218Y-95458280D01*
X173534948Y-95631724D01*
X173543161Y-95635553D01*
X173611570Y-95671165D01*
X173945198Y-95844840D01*
X173953053Y-95849375D01*
X174086041Y-95934098D01*
X174335316Y-96092904D01*
X174342748Y-96098108D01*
X174601611Y-96296740D01*
X174702324Y-96374019D01*
X174709272Y-96379848D01*
X175043442Y-96686060D01*
X175049856Y-96692474D01*
X175353222Y-97023539D01*
X175356066Y-97026642D01*
X175361898Y-97033593D01*
X175637809Y-97393169D01*
X175643013Y-97400601D01*
X175886541Y-97782862D01*
X175891077Y-97790719D01*
X176100361Y-98192751D01*
X176104195Y-98200974D01*
X176277637Y-98619700D01*
X176280741Y-98628226D01*
X176417036Y-99060498D01*
X176419383Y-99069258D01*
X176422338Y-99082585D01*
X176416180Y-99146565D01*
X176373591Y-99194706D01*
X176320804Y-99209098D01*
X176320417Y-99209098D01*
X176173619Y-99209098D01*
X176173617Y-99209098D01*
X176173613Y-99209099D01*
X176032769Y-99250454D01*
X175909275Y-99329819D01*
X175909274Y-99329819D01*
X175909274Y-99329820D01*
X175861207Y-99385291D01*
X175813140Y-99440763D01*
X175752159Y-99574292D01*
X175752157Y-99574299D01*
X175731268Y-99719594D01*
X175731268Y-99719601D01*
X175752157Y-99864896D01*
X175752159Y-99864903D01*
X175780893Y-99927821D01*
X175788220Y-99991677D01*
X175756613Y-100047645D01*
X175734623Y-100063111D01*
X175643429Y-100110973D01*
X175643423Y-100110977D01*
X175514280Y-100225388D01*
X175514273Y-100225395D01*
X175416263Y-100367389D01*
X175355079Y-100528717D01*
X175334282Y-100700000D01*
X175355079Y-100871284D01*
X175375932Y-100926268D01*
X175379037Y-100990468D01*
X175352229Y-101036685D01*
X175259964Y-101128950D01*
X175202694Y-101158131D01*
X175139210Y-101148076D01*
X175093760Y-101102626D01*
X175085897Y-101062147D01*
X175083003Y-101062401D01*
X175082210Y-101053337D01*
X175065008Y-100989139D01*
X175050675Y-100935647D01*
X174980789Y-100835839D01*
X174980787Y-100835838D01*
X174980787Y-100835837D01*
X174940533Y-100804949D01*
X174940529Y-100804947D01*
X174940527Y-100804945D01*
X174914569Y-100789958D01*
X174871562Y-100742192D01*
X174864845Y-100678268D01*
X174887971Y-100631792D01*
X174977205Y-100528813D01*
X175038187Y-100395281D01*
X175041780Y-100370289D01*
X175059078Y-100249980D01*
X175059078Y-100249973D01*
X175038188Y-100104678D01*
X175038186Y-100104671D01*
X175018013Y-100060497D01*
X174977205Y-99971141D01*
X174977204Y-99971140D01*
X174977204Y-99971139D01*
X174898014Y-99879751D01*
X174872993Y-99820546D01*
X174887550Y-99757941D01*
X174906543Y-99734792D01*
X175040981Y-99612236D01*
X175175058Y-99434689D01*
X175274229Y-99235528D01*
X175335115Y-99021536D01*
X175355643Y-98800000D01*
X175335115Y-98578464D01*
X175274229Y-98364472D01*
X175175058Y-98165311D01*
X175040981Y-97987764D01*
X175040978Y-97987761D01*
X175040976Y-97987758D01*
X174876564Y-97837878D01*
X174876562Y-97837876D01*
X174687401Y-97720753D01*
X174687399Y-97720752D01*
X174479939Y-97640381D01*
X174261250Y-97599500D01*
X174261243Y-97599500D01*
X174038757Y-97599500D01*
X174038749Y-97599500D01*
X173820060Y-97640381D01*
X173612600Y-97720752D01*
X173423438Y-97837875D01*
X173381497Y-97876109D01*
X173322940Y-97902613D01*
X173259988Y-97889635D01*
X173232837Y-97867357D01*
X173137496Y-97757330D01*
X173051970Y-97702366D01*
X173014001Y-97677965D01*
X173014000Y-97677964D01*
X173013999Y-97677964D01*
X172873155Y-97636609D01*
X172873152Y-97636608D01*
X172873150Y-97636608D01*
X172726352Y-97636608D01*
X172726350Y-97636608D01*
X172726346Y-97636609D01*
X172585502Y-97677963D01*
X172506499Y-97728736D01*
X172444335Y-97745075D01*
X172384439Y-97721755D01*
X172355671Y-97684448D01*
X172352710Y-97677964D01*
X172313784Y-97592728D01*
X172217651Y-97481786D01*
X172094157Y-97402421D01*
X172094156Y-97402420D01*
X172094155Y-97402420D01*
X171953311Y-97361065D01*
X171953308Y-97361064D01*
X171953306Y-97361064D01*
X171887750Y-97361064D01*
X171826620Y-97341202D01*
X171788840Y-97289202D01*
X171785182Y-97266108D01*
X171784809Y-97266162D01*
X171762860Y-97113501D01*
X171762858Y-97113494D01*
X171749167Y-97083514D01*
X171701877Y-96979964D01*
X171605744Y-96869022D01*
X171482250Y-96789657D01*
X171482249Y-96789656D01*
X171482248Y-96789656D01*
X171341404Y-96748301D01*
X171341401Y-96748300D01*
X171341399Y-96748300D01*
X171194601Y-96748300D01*
X171194599Y-96748300D01*
X171194595Y-96748301D01*
X171053751Y-96789656D01*
X170930257Y-96869021D01*
X170930256Y-96869021D01*
X170930256Y-96869022D01*
X170904108Y-96899198D01*
X170834122Y-96979965D01*
X170773141Y-97113494D01*
X170773139Y-97113501D01*
X170752250Y-97258796D01*
X170752250Y-97258799D01*
X170752955Y-97263704D01*
X170741993Y-97327038D01*
X170695898Y-97371833D01*
X170650013Y-97382502D01*
X170600349Y-97382502D01*
X170600346Y-97382502D01*
X170592986Y-97383561D01*
X170592642Y-97381171D01*
X170539543Y-97379650D01*
X170488646Y-97340397D01*
X170470500Y-97281701D01*
X170470500Y-97256740D01*
X170470499Y-97256733D01*
X170460574Y-97188610D01*
X170460573Y-97188608D01*
X170430251Y-97126583D01*
X170409198Y-97083517D01*
X170349220Y-97023539D01*
X170320039Y-96966269D01*
X170330094Y-96902785D01*
X170349220Y-96876461D01*
X170376697Y-96848984D01*
X170409198Y-96816483D01*
X170460573Y-96711393D01*
X170463330Y-96692475D01*
X170470499Y-96643266D01*
X170470500Y-96643259D01*
X170470500Y-96296740D01*
X170469606Y-96290606D01*
X170477916Y-96232402D01*
X170494859Y-96195304D01*
X170499198Y-96165124D01*
X170515750Y-96050003D01*
X170515750Y-96049996D01*
X170501372Y-95949996D01*
X170803340Y-95949996D01*
X170803340Y-95950003D01*
X170824229Y-96095298D01*
X170824231Y-96095305D01*
X170869897Y-96195298D01*
X170885213Y-96228836D01*
X170981346Y-96339778D01*
X171104840Y-96419143D01*
X171245691Y-96460500D01*
X171245694Y-96460500D01*
X171392486Y-96460500D01*
X171392489Y-96460500D01*
X171533340Y-96419143D01*
X171656834Y-96339778D01*
X171752967Y-96228836D01*
X171813949Y-96095304D01*
X171814294Y-96092904D01*
X171834840Y-95950003D01*
X171834840Y-95949996D01*
X171813950Y-95804701D01*
X171813948Y-95804694D01*
X171752967Y-95671165D01*
X171752967Y-95671164D01*
X171656834Y-95560222D01*
X171533340Y-95480857D01*
X171533339Y-95480856D01*
X171533338Y-95480856D01*
X171392494Y-95439501D01*
X171392491Y-95439500D01*
X171392489Y-95439500D01*
X171245691Y-95439500D01*
X171245689Y-95439500D01*
X171245685Y-95439501D01*
X171104841Y-95480856D01*
X170981347Y-95560221D01*
X170981346Y-95560221D01*
X170981346Y-95560222D01*
X170933279Y-95615693D01*
X170885212Y-95671165D01*
X170824231Y-95804694D01*
X170824229Y-95804701D01*
X170803340Y-95949996D01*
X170501372Y-95949996D01*
X170494860Y-95904701D01*
X170494858Y-95904694D01*
X170468482Y-95846938D01*
X170433877Y-95771164D01*
X170337744Y-95660222D01*
X170214250Y-95580857D01*
X170214249Y-95580856D01*
X170214248Y-95580856D01*
X170073404Y-95539501D01*
X170073401Y-95539500D01*
X170073399Y-95539500D01*
X169926601Y-95539500D01*
X169926599Y-95539500D01*
X169926595Y-95539501D01*
X169785751Y-95580856D01*
X169662257Y-95660221D01*
X169566122Y-95771165D01*
X169505141Y-95904694D01*
X169505139Y-95904701D01*
X169484250Y-96049996D01*
X169484250Y-96057437D01*
X169482407Y-96057437D01*
X169473036Y-96111580D01*
X169426940Y-96156375D01*
X169408689Y-96162017D01*
X169408986Y-96163028D01*
X169260999Y-96206480D01*
X169137505Y-96285845D01*
X169041370Y-96396789D01*
X168980389Y-96530318D01*
X168980387Y-96530325D01*
X168959498Y-96675620D01*
X168959498Y-96681072D01*
X168939636Y-96742202D01*
X168887636Y-96779982D01*
X168851080Y-96784978D01*
X168839838Y-96784500D01*
X168839831Y-96784500D01*
X168298468Y-96784500D01*
X168298467Y-96784500D01*
X168260220Y-96787922D01*
X168260215Y-96787922D01*
X168260211Y-96787923D01*
X168260207Y-96787923D01*
X168260197Y-96787925D01*
X168256195Y-96788647D01*
X168256185Y-96788649D01*
X168224466Y-96796904D01*
X168224464Y-96796905D01*
X168147612Y-96842993D01*
X168147609Y-96842995D01*
X168141175Y-96848984D01*
X168141172Y-96848988D01*
X168091978Y-96917203D01*
X168053011Y-97002528D01*
X168037008Y-97027429D01*
X168002925Y-97066763D01*
X167980552Y-97086149D01*
X167936767Y-97114287D01*
X167909846Y-97126582D01*
X167859908Y-97141247D01*
X167830604Y-97145461D01*
X167778553Y-97145461D01*
X167749255Y-97141248D01*
X167740362Y-97138637D01*
X167740355Y-97138635D01*
X167699313Y-97126583D01*
X167672389Y-97114287D01*
X167628605Y-97086149D01*
X167606234Y-97066765D01*
X167589191Y-97047097D01*
X167572147Y-97027427D01*
X167556146Y-97002528D01*
X167532157Y-96950000D01*
X167525674Y-96935803D01*
X167521742Y-96927654D01*
X167521731Y-96927631D01*
X167521290Y-96926764D01*
X167519673Y-96923650D01*
X167491039Y-96889395D01*
X167467073Y-96829755D01*
X167482740Y-96767418D01*
X167494157Y-96752433D01*
X167531766Y-96711391D01*
X167549099Y-96692474D01*
X167555500Y-96686072D01*
X167889694Y-96379838D01*
X167896616Y-96374031D01*
X168256216Y-96098101D01*
X168263628Y-96092911D01*
X168645911Y-95849369D01*
X168653745Y-95844846D01*
X169055802Y-95635549D01*
X169063998Y-95631728D01*
X169482745Y-95458277D01*
X169491258Y-95455178D01*
X169923541Y-95318879D01*
X169932294Y-95316534D01*
X170374815Y-95218429D01*
X170383721Y-95216859D01*
X170833093Y-95157698D01*
X170842129Y-95156908D01*
X171294943Y-95137138D01*
X171304013Y-95137138D01*
X171752984Y-95156740D01*
G37*
%TD.AperFunction*%
%TD*%
M02*
