%TF.GenerationSoftware,KiCad,Pcbnew,8.0.5-8.0.5-0~ubuntu24.04.1*%
%TF.CreationDate,2024-09-15T15:23:13-06:00*%
%TF.ProjectId,DRV8311 on motor driver,44525638-3331-4312-906f-6e206d6f746f,rev?*%
%TF.SameCoordinates,Original*%
%TF.FileFunction,Legend,Top*%
%TF.FilePolarity,Positive*%
%FSLAX46Y46*%
G04 Gerber Fmt 4.6, Leading zero omitted, Abs format (unit mm)*
G04 Created by KiCad (PCBNEW 8.0.5-8.0.5-0~ubuntu24.04.1) date 2024-09-15 15:23:13*
%MOMM*%
%LPD*%
G01*
G04 APERTURE LIST*
G04 Aperture macros list*
%AMRoundRect*
0 Rectangle with rounded corners*
0 $1 Rounding radius*
0 $2 $3 $4 $5 $6 $7 $8 $9 X,Y pos of 4 corners*
0 Add a 4 corners polygon primitive as box body*
4,1,4,$2,$3,$4,$5,$6,$7,$8,$9,$2,$3,0*
0 Add four circle primitives for the rounded corners*
1,1,$1+$1,$2,$3*
1,1,$1+$1,$4,$5*
1,1,$1+$1,$6,$7*
1,1,$1+$1,$8,$9*
0 Add four rect primitives between the rounded corners*
20,1,$1+$1,$2,$3,$4,$5,0*
20,1,$1+$1,$4,$5,$6,$7,0*
20,1,$1+$1,$6,$7,$8,$9,0*
20,1,$1+$1,$8,$9,$2,$3,0*%
G04 Aperture macros list end*
%ADD10C,0.150000*%
%ADD11C,0.120000*%
%ADD12C,0.250000*%
%ADD13O,1.000000X1.000000*%
%ADD14RoundRect,0.140000X0.206244X0.077224X-0.036244X0.217224X-0.206244X-0.077224X0.036244X-0.217224X0*%
%ADD15C,2.000000*%
%ADD16RoundRect,0.140000X0.170000X-0.140000X0.170000X0.140000X-0.170000X0.140000X-0.170000X-0.140000X0*%
%ADD17R,0.200000X0.469999*%
%ADD18R,0.469999X0.200000*%
%ADD19C,0.600000*%
%ADD20R,1.899999X1.899999*%
%ADD21C,1.000000*%
%ADD22RoundRect,0.135000X0.092715X-0.209413X0.227715X0.024413X-0.092715X0.209413X-0.227715X-0.024413X0*%
%ADD23RoundRect,0.135000X0.185000X-0.135000X0.185000X0.135000X-0.185000X0.135000X-0.185000X-0.135000X0*%
G04 APERTURE END LIST*
D10*
X172577849Y-105461875D02*
X172554816Y-105525157D01*
X172554816Y-105525157D02*
X172445468Y-105628689D01*
X172445468Y-105628689D02*
X172359153Y-105668938D01*
X172359153Y-105668938D02*
X172209556Y-105686155D01*
X172209556Y-105686155D02*
X172082992Y-105640089D01*
X172082992Y-105640089D02*
X171999585Y-105573899D01*
X171999585Y-105573899D02*
X171875929Y-105421393D01*
X171875929Y-105421393D02*
X171815555Y-105291921D01*
X171815555Y-105291921D02*
X171778213Y-105099166D01*
X171778213Y-105099166D02*
X171781122Y-104992727D01*
X171781122Y-104992727D02*
X171827187Y-104866162D01*
X171827187Y-104866162D02*
X171936535Y-104762631D01*
X171936535Y-104762631D02*
X172022850Y-104722381D01*
X172022850Y-104722381D02*
X172172447Y-104705165D01*
X172172447Y-104705165D02*
X172235730Y-104728198D01*
X174748643Y-103575962D02*
X174869589Y-103486253D01*
X174869589Y-103486253D02*
X174935910Y-103474559D01*
X174935910Y-103474559D02*
X175041237Y-103490178D01*
X175041237Y-103490178D02*
X175158259Y-103572118D01*
X175158259Y-103572118D02*
X175208960Y-103665751D01*
X175208960Y-103665751D02*
X175220655Y-103732072D01*
X175220655Y-103732072D02*
X175205035Y-103837399D01*
X175205035Y-103837399D02*
X174986530Y-104149457D01*
X174986530Y-104149457D02*
X174167378Y-103575881D01*
X174167378Y-103575881D02*
X174358570Y-103302830D01*
X174358570Y-103302830D02*
X174452204Y-103252129D01*
X174452204Y-103252129D02*
X174518524Y-103240435D01*
X174518524Y-103240435D02*
X174623852Y-103256054D01*
X174623852Y-103256054D02*
X174701866Y-103310680D01*
X174701866Y-103310680D02*
X174752568Y-103404314D01*
X174752568Y-103404314D02*
X174764262Y-103470634D01*
X174764262Y-103470634D02*
X174748643Y-103575962D01*
X174748643Y-103575962D02*
X174557450Y-103849013D01*
X176034104Y-99760839D02*
X176034104Y-99284649D01*
X176319819Y-99856077D02*
X175319819Y-99522744D01*
X175319819Y-99522744D02*
X176319819Y-99189411D01*
X170786779Y-95688866D02*
X171548684Y-95688866D01*
X167416666Y-101424819D02*
X167416666Y-102139104D01*
X167416666Y-102139104D02*
X167369047Y-102281961D01*
X167369047Y-102281961D02*
X167273809Y-102377200D01*
X167273809Y-102377200D02*
X167130952Y-102424819D01*
X167130952Y-102424819D02*
X167035714Y-102424819D01*
X167797619Y-101424819D02*
X168416666Y-101424819D01*
X168416666Y-101424819D02*
X168083333Y-101805771D01*
X168083333Y-101805771D02*
X168226190Y-101805771D01*
X168226190Y-101805771D02*
X168321428Y-101853390D01*
X168321428Y-101853390D02*
X168369047Y-101901009D01*
X168369047Y-101901009D02*
X168416666Y-101996247D01*
X168416666Y-101996247D02*
X168416666Y-102234342D01*
X168416666Y-102234342D02*
X168369047Y-102329580D01*
X168369047Y-102329580D02*
X168321428Y-102377200D01*
X168321428Y-102377200D02*
X168226190Y-102424819D01*
X168226190Y-102424819D02*
X167940476Y-102424819D01*
X167940476Y-102424819D02*
X167845238Y-102377200D01*
X167845238Y-102377200D02*
X167797619Y-102329580D01*
X166716666Y-100324819D02*
X166716666Y-101039104D01*
X166716666Y-101039104D02*
X166669047Y-101181961D01*
X166669047Y-101181961D02*
X166573809Y-101277200D01*
X166573809Y-101277200D02*
X166430952Y-101324819D01*
X166430952Y-101324819D02*
X166335714Y-101324819D01*
X167716666Y-101324819D02*
X167145238Y-101324819D01*
X167430952Y-101324819D02*
X167430952Y-100324819D01*
X167430952Y-100324819D02*
X167335714Y-100467676D01*
X167335714Y-100467676D02*
X167240476Y-100562914D01*
X167240476Y-100562914D02*
X167145238Y-100610533D01*
X166416666Y-99074819D02*
X166416666Y-99789104D01*
X166416666Y-99789104D02*
X166369047Y-99931961D01*
X166369047Y-99931961D02*
X166273809Y-100027200D01*
X166273809Y-100027200D02*
X166130952Y-100074819D01*
X166130952Y-100074819D02*
X166035714Y-100074819D01*
X166845238Y-99170057D02*
X166892857Y-99122438D01*
X166892857Y-99122438D02*
X166988095Y-99074819D01*
X166988095Y-99074819D02*
X167226190Y-99074819D01*
X167226190Y-99074819D02*
X167321428Y-99122438D01*
X167321428Y-99122438D02*
X167369047Y-99170057D01*
X167369047Y-99170057D02*
X167416666Y-99265295D01*
X167416666Y-99265295D02*
X167416666Y-99360533D01*
X167416666Y-99360533D02*
X167369047Y-99503390D01*
X167369047Y-99503390D02*
X166797619Y-100074819D01*
X166797619Y-100074819D02*
X167416666Y-100074819D01*
D11*
%TO.C,C1*%
X173413389Y-103415687D02*
X173226611Y-103307851D01*
X173773389Y-102792149D02*
X173586611Y-102684313D01*
%TO.C,TP2*%
X173950000Y-96400000D02*
G75*
G02*
X171550000Y-96400000I-1200000J0D01*
G01*
X171550000Y-96400000D02*
G75*
G02*
X173950000Y-96400000I1200000J0D01*
G01*
%TO.C,C3*%
X168340000Y-96907836D02*
X168340000Y-96692164D01*
X169060000Y-96907836D02*
X169060000Y-96692164D01*
D10*
%TO.C,U1*%
X169175000Y-98344999D02*
X169175000Y-102494999D01*
X169175000Y-98344999D02*
X173325000Y-98344999D01*
X169175000Y-102494999D02*
X173325000Y-102494999D01*
X173325000Y-98344999D02*
X173325000Y-102494999D01*
D12*
X172575001Y-97769999D02*
G75*
G02*
X172324999Y-97769999I-125001J0D01*
G01*
X172324999Y-97769999D02*
G75*
G02*
X172575001Y-97769999I125001J0D01*
G01*
D11*
%TO.C,TP7*%
X176200000Y-102700000D02*
G75*
G02*
X174800000Y-102700000I-700000J0D01*
G01*
X174800000Y-102700000D02*
G75*
G02*
X176200000Y-102700000I700000J0D01*
G01*
%TO.C,TP8*%
X173850000Y-104850000D02*
G75*
G02*
X172450000Y-104850000I-700000J0D01*
G01*
X172450000Y-104850000D02*
G75*
G02*
X173850000Y-104850000I700000J0D01*
G01*
%TO.C,R3*%
X173844090Y-101493057D02*
X173997731Y-101226943D01*
X174502269Y-101873057D02*
X174655910Y-101606943D01*
%TO.C,C2*%
X169590000Y-97057836D02*
X169590000Y-96842164D01*
X170310000Y-97057836D02*
X170310000Y-96842164D01*
%TO.C,TP5*%
X176750000Y-100700000D02*
G75*
G02*
X175350000Y-100700000I-700000J0D01*
G01*
X175350000Y-100700000D02*
G75*
G02*
X176750000Y-100700000I700000J0D01*
G01*
%TO.C,R2*%
X168670000Y-104253641D02*
X168670000Y-103946359D01*
X169430000Y-104253641D02*
X169430000Y-103946359D01*
%TD*%
%LPC*%
D13*
%TO.C,J3*%
X167600000Y-103450000D03*
%TD*%
D14*
%TO.C,C1*%
X173915692Y-103290000D03*
X173084308Y-102810000D03*
%TD*%
D15*
%TO.C,TP2*%
X172750000Y-96400000D03*
%TD*%
D16*
%TO.C,C3*%
X168700000Y-97280000D03*
X168700000Y-96320000D03*
%TD*%
D17*
%TO.C,U1*%
X172450000Y-98954998D03*
X172050001Y-98954998D03*
X171649999Y-98954998D03*
X171250000Y-98954998D03*
X170850001Y-98954998D03*
X170449999Y-98954998D03*
X170050000Y-98954998D03*
D18*
X169784999Y-99749998D03*
X169784999Y-100150000D03*
X169784999Y-100549999D03*
X169784999Y-100949998D03*
X169784999Y-101350000D03*
D17*
X170050000Y-101885000D03*
X170449999Y-101885000D03*
X170850001Y-101885000D03*
X171250000Y-101885000D03*
X171649999Y-101885000D03*
X172050001Y-101885000D03*
X172450000Y-101885000D03*
D18*
X172715001Y-101350000D03*
X172715001Y-100949998D03*
X172715001Y-100549999D03*
X172715001Y-100150000D03*
X172715001Y-99749998D03*
D19*
X171950001Y-99719998D03*
X170549999Y-99719998D03*
D20*
X171250000Y-100419999D03*
D19*
X171250000Y-100445399D03*
X171950001Y-101120000D03*
X170549999Y-101120000D03*
%TD*%
D13*
%TO.C,J1*%
X166900000Y-102350000D03*
%TD*%
D21*
%TO.C,TP7*%
X175500000Y-102700000D03*
%TD*%
%TO.C,TP8*%
X173150000Y-104850000D03*
%TD*%
D13*
%TO.C,J2*%
X166600000Y-101100000D03*
%TD*%
D22*
%TO.C,R3*%
X173995000Y-101991673D03*
X174505000Y-101108327D03*
%TD*%
D16*
%TO.C,C2*%
X169950000Y-97430000D03*
X169950000Y-96470000D03*
%TD*%
D21*
%TO.C,TP5*%
X176050000Y-100700000D03*
%TD*%
D23*
%TO.C,R2*%
X169050000Y-104609999D03*
X169050000Y-103590001D03*
%TD*%
%LPD*%
M02*
