%TF.GenerationSoftware,KiCad,Pcbnew,8.0.5-8.0.5-0~ubuntu24.04.1*%
%TF.CreationDate,2024-09-15T15:23:13-06:00*%
%TF.ProjectId,DRV8311 on motor driver,44525638-3331-4312-906f-6e206d6f746f,rev?*%
%TF.SameCoordinates,Original*%
%TF.FileFunction,Other,User*%
%FSLAX46Y46*%
G04 Gerber Fmt 4.6, Leading zero omitted, Abs format (unit mm)*
G04 Created by KiCad (PCBNEW 8.0.5-8.0.5-0~ubuntu24.04.1) date 2024-09-15 15:23:13*
%MOMM*%
%LPD*%
G01*
G04 APERTURE LIST*
%ADD10C,0.050000*%
G04 APERTURE END LIST*
D10*
%TO.C,J3*%
X168240000Y-103450000D02*
G75*
G02*
X166960000Y-103450000I-640000J0D01*
G01*
X166960000Y-103450000D02*
G75*
G02*
X168240000Y-103450000I640000J0D01*
G01*
%TO.C,C1*%
X172481917Y-102993372D02*
X172941917Y-102196628D01*
X172941917Y-102196628D02*
X174518083Y-103106628D01*
X174058083Y-103903372D02*
X172481917Y-102993372D01*
X174518083Y-103106628D02*
X174058083Y-103903372D01*
%TO.C,TP2*%
X174250000Y-96400000D02*
G75*
G02*
X171250000Y-96400000I-1500000J0D01*
G01*
X171250000Y-96400000D02*
G75*
G02*
X174250000Y-96400000I1500000J0D01*
G01*
%TO.C,C3*%
X168240000Y-95890000D02*
X169160000Y-95890000D01*
X168240000Y-97710000D02*
X168240000Y-95890000D01*
X169160000Y-95890000D02*
X169160000Y-97710000D01*
X169160000Y-97710000D02*
X168240000Y-97710000D01*
%TO.C,J1*%
X167540000Y-102350000D02*
G75*
G02*
X166260000Y-102350000I-640000J0D01*
G01*
X166260000Y-102350000D02*
G75*
G02*
X167540000Y-102350000I640000J0D01*
G01*
%TO.C,J2*%
X167240000Y-101100000D02*
G75*
G02*
X165960000Y-101100000I-640000J0D01*
G01*
X165960000Y-101100000D02*
G75*
G02*
X167240000Y-101100000I640000J0D01*
G01*
%TO.C,R3*%
X173377968Y-102120404D02*
X174307968Y-100509596D01*
X174192032Y-102590404D02*
X173377968Y-102120404D01*
X174307968Y-100509596D02*
X175122032Y-100979596D01*
X175122032Y-100979596D02*
X174192032Y-102590404D01*
%TO.C,C2*%
X169490000Y-96040000D02*
X170410000Y-96040000D01*
X169490000Y-97860000D02*
X169490000Y-96040000D01*
X170410000Y-96040000D02*
X170410000Y-97860000D01*
X170410000Y-97860000D02*
X169490000Y-97860000D01*
%TO.C,R2*%
X168580000Y-103170000D02*
X169520000Y-103170000D01*
X168580000Y-105030000D02*
X168580000Y-103170000D01*
X169520000Y-103170000D02*
X169520000Y-105030000D01*
X169520000Y-105030000D02*
X168580000Y-105030000D01*
%TD*%
M02*
