%TF.GenerationSoftware,KiCad,Pcbnew,8.0.5-8.0.5-0~ubuntu24.04.1*%
%TF.CreationDate,2024-09-15T17:00:47-06:00*%
%TF.ProjectId,esp32-s3 single motor & battery controller,65737033-322d-4733-9320-73696e676c65,rev?*%
%TF.SameCoordinates,Original*%
%TF.FileFunction,Soldermask,Bot*%
%TF.FilePolarity,Negative*%
%FSLAX46Y46*%
G04 Gerber Fmt 4.6, Leading zero omitted, Abs format (unit mm)*
G04 Created by KiCad (PCBNEW 8.0.5-8.0.5-0~ubuntu24.04.1) date 2024-09-15 17:00:47*
%MOMM*%
%LPD*%
G01*
G04 APERTURE LIST*
G04 Aperture macros list*
%AMRoundRect*
0 Rectangle with rounded corners*
0 $1 Rounding radius*
0 $2 $3 $4 $5 $6 $7 $8 $9 X,Y pos of 4 corners*
0 Add a 4 corners polygon primitive as box body*
4,1,4,$2,$3,$4,$5,$6,$7,$8,$9,$2,$3,0*
0 Add four circle primitives for the rounded corners*
1,1,$1+$1,$2,$3*
1,1,$1+$1,$4,$5*
1,1,$1+$1,$6,$7*
1,1,$1+$1,$8,$9*
0 Add four rect primitives between the rounded corners*
20,1,$1+$1,$2,$3,$4,$5,0*
20,1,$1+$1,$4,$5,$6,$7,0*
20,1,$1+$1,$6,$7,$8,$9,0*
20,1,$1+$1,$8,$9,$2,$3,0*%
%AMFreePoly0*
4,1,9,2.350000,2.000000,2.100000,2.000000,2.100000,-1.100000,-2.100000,-1.100000,-2.100000,2.000000,-2.350000,2.000000,-2.350000,3.500000,2.350000,3.500000,2.350000,2.000000,2.350000,2.000000,$1*%
G04 Aperture macros list end*
%ADD10R,1.000000X1.000000*%
%ADD11O,1.000000X1.000000*%
%ADD12C,0.600000*%
%ADD13RoundRect,0.250000X0.725000X-0.600000X0.725000X0.600000X-0.725000X0.600000X-0.725000X-0.600000X0*%
%ADD14O,1.950000X1.700000*%
%ADD15C,1.000000*%
%ADD16RoundRect,0.200000X0.275000X-0.200000X0.275000X0.200000X-0.275000X0.200000X-0.275000X-0.200000X0*%
%ADD17RoundRect,0.200000X0.200000X0.275000X-0.200000X0.275000X-0.200000X-0.275000X0.200000X-0.275000X0*%
%ADD18R,1.500000X1.000000*%
%ADD19RoundRect,0.200000X0.053033X-0.335876X0.335876X-0.053033X-0.053033X0.335876X-0.335876X0.053033X0*%
%ADD20RoundRect,0.200000X-0.200000X-0.275000X0.200000X-0.275000X0.200000X0.275000X-0.200000X0.275000X0*%
%ADD21RoundRect,0.225000X-0.250000X0.225000X-0.250000X-0.225000X0.250000X-0.225000X0.250000X0.225000X0*%
%ADD22RoundRect,0.225000X-0.225000X-0.250000X0.225000X-0.250000X0.225000X0.250000X-0.225000X0.250000X0*%
%ADD23RoundRect,0.225000X0.225000X0.250000X-0.225000X0.250000X-0.225000X-0.250000X0.225000X-0.250000X0*%
%ADD24RoundRect,0.237500X-0.237500X0.300000X-0.237500X-0.300000X0.237500X-0.300000X0.237500X0.300000X0*%
%ADD25RoundRect,0.147500X0.147500X0.172500X-0.147500X0.172500X-0.147500X-0.172500X0.147500X-0.172500X0*%
%ADD26RoundRect,0.175000X-0.400000X0.175000X-0.400000X-0.175000X0.400000X-0.175000X0.400000X0.175000X0*%
%ADD27FreePoly0,270.000000*%
%ADD28RoundRect,0.250000X-0.375000X-0.850000X0.375000X-0.850000X0.375000X0.850000X-0.375000X0.850000X0*%
%ADD29RoundRect,0.237500X0.300000X0.237500X-0.300000X0.237500X-0.300000X-0.237500X0.300000X-0.237500X0*%
%ADD30RoundRect,0.225000X0.250000X-0.225000X0.250000X0.225000X-0.250000X0.225000X-0.250000X-0.225000X0*%
%ADD31RoundRect,0.250001X-1.262499X-1.974999X1.262499X-1.974999X1.262499X1.974999X-1.262499X1.974999X0*%
%ADD32R,3.000000X3.000000*%
%ADD33R,0.230000X0.440000*%
%ADD34R,0.230000X0.340000*%
%ADD35RoundRect,0.218750X-0.218750X-0.256250X0.218750X-0.256250X0.218750X0.256250X-0.218750X0.256250X0*%
%ADD36RoundRect,0.147500X-0.172500X0.147500X-0.172500X-0.147500X0.172500X-0.147500X0.172500X0.147500X0*%
%ADD37RoundRect,0.200000X-0.275000X0.200000X-0.275000X-0.200000X0.275000X-0.200000X0.275000X0.200000X0*%
%ADD38R,0.812800X0.254000*%
%ADD39R,0.254000X0.812800*%
%ADD40R,2.159000X2.159000*%
%ADD41RoundRect,0.150000X0.512500X0.150000X-0.512500X0.150000X-0.512500X-0.150000X0.512500X-0.150000X0*%
G04 APERTURE END LIST*
D10*
%TO.C,J4*%
X149000000Y-98870000D03*
D11*
X149000000Y-97600000D03*
X149000000Y-96330000D03*
%TD*%
D12*
%TO.C,U4*%
X112000000Y-126350000D03*
X113050000Y-127400000D03*
X112000000Y-127400000D03*
X110950000Y-127400000D03*
X112000000Y-128450000D03*
%TD*%
D13*
%TO.C,J5*%
X143372548Y-125072800D03*
D14*
X143372548Y-122572800D03*
X143372548Y-120072800D03*
%TD*%
D10*
%TO.C,J3*%
X149000000Y-94000000D03*
D11*
X149000000Y-92730000D03*
X149000000Y-91460000D03*
%TD*%
D15*
%TO.C,TP1*%
X136950000Y-102800000D03*
%TD*%
D16*
%TO.C,R11*%
X114550000Y-120625000D03*
X114550000Y-118975000D03*
%TD*%
D17*
%TO.C,R35*%
X147375000Y-124700000D03*
X145725000Y-124700000D03*
%TD*%
D18*
%TO.C,L1*%
X128000000Y-113450000D03*
X128000000Y-114750000D03*
%TD*%
D19*
%TO.C,R4*%
X133416637Y-98583363D03*
X134583363Y-97416637D03*
%TD*%
D20*
%TO.C,R10*%
X119075000Y-120600000D03*
X120725000Y-120600000D03*
%TD*%
D19*
%TO.C,R5*%
X135616637Y-98483363D03*
X136783363Y-97316637D03*
%TD*%
D21*
%TO.C,C28*%
X133300000Y-121725000D03*
X133300000Y-123275000D03*
%TD*%
D22*
%TO.C,C2*%
X133525000Y-105600000D03*
X135075000Y-105600000D03*
%TD*%
D21*
%TO.C,C40*%
X127700000Y-121112500D03*
X127700000Y-122662500D03*
%TD*%
D23*
%TO.C,C33*%
X138475000Y-125900000D03*
X136925000Y-125900000D03*
%TD*%
%TO.C,C34*%
X147225000Y-120000000D03*
X145675000Y-120000000D03*
%TD*%
D17*
%TO.C,R33*%
X147275000Y-118500000D03*
X145625000Y-118500000D03*
%TD*%
D24*
%TO.C,C13*%
X113050000Y-119087500D03*
X113050000Y-120812500D03*
%TD*%
D17*
%TO.C,R14*%
X129625000Y-97100000D03*
X127975000Y-97100000D03*
%TD*%
D25*
%TO.C,D2*%
X117285000Y-119050000D03*
X116315000Y-119050000D03*
%TD*%
D26*
%TO.C,Q7*%
X126675000Y-130105000D03*
X126675000Y-128835000D03*
X126675000Y-127565000D03*
X126675000Y-126295000D03*
D27*
X129400000Y-128200000D03*
%TD*%
D28*
%TO.C,L3*%
X129525000Y-118937500D03*
X131675000Y-118937500D03*
%TD*%
D23*
%TO.C,C39*%
X147325000Y-126200000D03*
X145775000Y-126200000D03*
%TD*%
D22*
%TO.C,C26*%
X133525000Y-107100000D03*
X135075000Y-107100000D03*
%TD*%
D20*
%TO.C,R20*%
X127775000Y-108800000D03*
X129425000Y-108800000D03*
%TD*%
D21*
%TO.C,C12*%
X119150000Y-122075000D03*
X119150000Y-123625000D03*
%TD*%
D29*
%TO.C,C18*%
X126262501Y-108800000D03*
X124537499Y-108800000D03*
%TD*%
D30*
%TO.C,C36*%
X150400000Y-126175000D03*
X150400000Y-124625000D03*
%TD*%
D22*
%TO.C,C23*%
X142525000Y-103200000D03*
X144075000Y-103200000D03*
%TD*%
D17*
%TO.C,R29*%
X141525000Y-125900000D03*
X139875000Y-125900000D03*
%TD*%
D19*
%TO.C,R3*%
X131916637Y-97883363D03*
X133083363Y-96716637D03*
%TD*%
D22*
%TO.C,C1*%
X133525000Y-104100000D03*
X135075000Y-104100000D03*
%TD*%
D20*
%TO.C,R8*%
X115775000Y-129500000D03*
X117425000Y-129500000D03*
%TD*%
D31*
%TO.C,R27*%
X135387500Y-129200000D03*
X140412500Y-129200000D03*
%TD*%
D32*
%TO.C,H4*%
X110150000Y-119500000D03*
%TD*%
D23*
%TO.C,C37*%
X147325000Y-123200000D03*
X145775000Y-123200000D03*
%TD*%
D15*
%TO.C,TP5*%
X144300000Y-110600000D03*
%TD*%
D16*
%TO.C,R2*%
X109200000Y-126025000D03*
X109200000Y-124375000D03*
%TD*%
D33*
%TO.C,J2*%
X137650000Y-90650000D03*
D34*
X137950000Y-93410000D03*
D33*
X138250000Y-90650000D03*
D34*
X138550000Y-93410000D03*
D33*
X138850000Y-90650000D03*
D34*
X139150000Y-93410000D03*
D33*
X139450000Y-90650000D03*
%TD*%
D35*
%TO.C,FB1*%
X130512500Y-104100000D03*
X132087500Y-104100000D03*
%TD*%
D17*
%TO.C,R34*%
X147375000Y-121700000D03*
X145725000Y-121700000D03*
%TD*%
D36*
%TO.C,D4*%
X120650000Y-122365000D03*
X120650000Y-123335000D03*
%TD*%
D30*
%TO.C,C27*%
X133300000Y-120175000D03*
X133300000Y-118625000D03*
%TD*%
D23*
%TO.C,C38*%
X126975000Y-124500000D03*
X125425000Y-124500000D03*
%TD*%
D22*
%TO.C,C19*%
X130525000Y-105600000D03*
X132075000Y-105600000D03*
%TD*%
D37*
%TO.C,R7*%
X109100000Y-128975000D03*
X109100000Y-130625000D03*
%TD*%
D20*
%TO.C,R28*%
X115975000Y-120550000D03*
X117625000Y-120550000D03*
%TD*%
D38*
%TO.C,U3*%
X139727200Y-120999748D03*
X139727200Y-121499874D03*
X139727200Y-122000000D03*
X139727200Y-122500126D03*
X139727200Y-123000252D03*
D39*
X139000252Y-123727200D03*
X138500126Y-123727200D03*
X138000000Y-123727200D03*
X137499874Y-123727200D03*
X136999748Y-123727200D03*
D38*
X136272800Y-123000252D03*
X136272800Y-122500126D03*
X136272800Y-122000000D03*
X136272800Y-121499874D03*
X136272800Y-120999748D03*
D39*
X136999748Y-120272800D03*
X137499874Y-120272800D03*
X138000000Y-120272800D03*
X138500126Y-120272800D03*
X139000252Y-120272800D03*
D40*
X138000000Y-122000000D03*
%TD*%
D41*
%TO.C,U2*%
X131637500Y-121087500D03*
X131637500Y-122037500D03*
X131637500Y-122987500D03*
X129362500Y-122987500D03*
X129362500Y-122037500D03*
X129362500Y-121087500D03*
%TD*%
D16*
%TO.C,R19*%
X125450000Y-105475000D03*
X125450000Y-103825000D03*
%TD*%
D21*
%TO.C,C6*%
X114600000Y-122025000D03*
X114600000Y-123575000D03*
%TD*%
D37*
%TO.C,R6*%
X142400000Y-93625000D03*
X142400000Y-95275000D03*
%TD*%
D17*
%TO.C,R18*%
X117425000Y-131000000D03*
X115775000Y-131000000D03*
%TD*%
D21*
%TO.C,C31*%
X117100000Y-122025000D03*
X117100000Y-123575000D03*
%TD*%
D22*
%TO.C,C24*%
X142525000Y-104700000D03*
X144075000Y-104700000D03*
%TD*%
D32*
%TO.C,H2*%
X150200000Y-130000000D03*
%TD*%
D20*
%TO.C,R30*%
X133875000Y-125900000D03*
X135525000Y-125900000D03*
%TD*%
D17*
%TO.C,R15*%
X129625000Y-95550000D03*
X127975000Y-95550000D03*
%TD*%
M02*
