%TF.GenerationSoftware,KiCad,Pcbnew,8.0.5-8.0.5-0~ubuntu24.04.1*%
%TF.CreationDate,2024-09-15T17:00:47-06:00*%
%TF.ProjectId,esp32-s3 single motor & battery controller,65737033-322d-4733-9320-73696e676c65,rev?*%
%TF.SameCoordinates,Original*%
%TF.FileFunction,Other,User*%
%FSLAX46Y46*%
G04 Gerber Fmt 4.6, Leading zero omitted, Abs format (unit mm)*
G04 Created by KiCad (PCBNEW 8.0.5-8.0.5-0~ubuntu24.04.1) date 2024-09-15 17:00:47*
%MOMM*%
%LPD*%
G01*
G04 APERTURE LIST*
%ADD10C,0.050000*%
%ADD11C,0.152400*%
G04 APERTURE END LIST*
D10*
%TO.C,TP1*%
X137950000Y-102800000D02*
G75*
G02*
X135950000Y-102800000I-1000000J0D01*
G01*
X135950000Y-102800000D02*
G75*
G02*
X137950000Y-102800000I1000000J0D01*
G01*
%TO.C,R11*%
X113820000Y-118320000D02*
X115280000Y-118320000D01*
X113820000Y-121280000D02*
X113820000Y-118320000D01*
X115280000Y-118320000D02*
X115280000Y-121280000D01*
X115280000Y-121280000D02*
X113820000Y-121280000D01*
%TO.C,R35*%
X145070000Y-123970000D02*
X148030000Y-123970000D01*
X145070000Y-125430000D02*
X145070000Y-123970000D01*
X148030000Y-123970000D02*
X148030000Y-125430000D01*
X148030000Y-125430000D02*
X145070000Y-125430000D01*
%TO.C,L1*%
X126750000Y-115750000D02*
X126750000Y-112450000D01*
X126750000Y-115750000D02*
X129250000Y-115750000D01*
X129250000Y-112450000D02*
X126750000Y-112450000D01*
X129250000Y-112450000D02*
X129250000Y-115750000D01*
%TO.C,R4*%
X132437294Y-98530330D02*
X134530330Y-96437294D01*
X133469670Y-99562706D02*
X132437294Y-98530330D01*
X134530330Y-96437294D02*
X135562706Y-97469670D01*
X135562706Y-97469670D02*
X133469670Y-99562706D01*
%TO.C,R10*%
X118420000Y-119870000D02*
X121380000Y-119870000D01*
X118420000Y-121330000D02*
X118420000Y-119870000D01*
X121380000Y-119870000D02*
X121380000Y-121330000D01*
X121380000Y-121330000D02*
X118420000Y-121330000D01*
%TO.C,R5*%
X134637294Y-98430330D02*
X136730330Y-96337294D01*
X135669670Y-99462706D02*
X134637294Y-98430330D01*
X136730330Y-96337294D02*
X137762706Y-97369670D01*
X137762706Y-97369670D02*
X135669670Y-99462706D01*
%TO.C,C28*%
X132570000Y-121020000D02*
X134030000Y-121020000D01*
X132570000Y-123980000D02*
X132570000Y-121020000D01*
X134030000Y-121020000D02*
X134030000Y-123980000D01*
X134030000Y-123980000D02*
X132570000Y-123980000D01*
%TO.C,C2*%
X132820000Y-104870000D02*
X135780000Y-104870000D01*
X132820000Y-106330000D02*
X132820000Y-104870000D01*
X135780000Y-104870000D02*
X135780000Y-106330000D01*
X135780000Y-106330000D02*
X132820000Y-106330000D01*
%TO.C,C40*%
X126970000Y-120407500D02*
X128430000Y-120407500D01*
X126970000Y-123367500D02*
X126970000Y-120407500D01*
X128430000Y-120407500D02*
X128430000Y-123367500D01*
X128430000Y-123367500D02*
X126970000Y-123367500D01*
%TO.C,C33*%
X136220000Y-125170000D02*
X139180000Y-125170000D01*
X136220000Y-126630000D02*
X136220000Y-125170000D01*
X139180000Y-125170000D02*
X139180000Y-126630000D01*
X139180000Y-126630000D02*
X136220000Y-126630000D01*
%TO.C,C34*%
X144970000Y-119270000D02*
X147930000Y-119270000D01*
X144970000Y-120730000D02*
X144970000Y-119270000D01*
X147930000Y-119270000D02*
X147930000Y-120730000D01*
X147930000Y-120730000D02*
X144970000Y-120730000D01*
%TO.C,R33*%
X144970000Y-117770000D02*
X147930000Y-117770000D01*
X144970000Y-119230000D02*
X144970000Y-117770000D01*
X147930000Y-117770000D02*
X147930000Y-119230000D01*
X147930000Y-119230000D02*
X144970000Y-119230000D01*
%TO.C,C13*%
X112320000Y-118300000D02*
X113780000Y-118300000D01*
X112320000Y-121600000D02*
X112320000Y-118300000D01*
X113780000Y-118300000D02*
X113780000Y-121600000D01*
X113780000Y-121600000D02*
X112320000Y-121600000D01*
%TO.C,R14*%
X127320000Y-96370000D02*
X130280000Y-96370000D01*
X127320000Y-97830000D02*
X127320000Y-96370000D01*
X130280000Y-96370000D02*
X130280000Y-97830000D01*
X130280000Y-97830000D02*
X127320000Y-97830000D01*
%TO.C,D2*%
X115870000Y-118580000D02*
X117730000Y-118580000D01*
X115870000Y-119520000D02*
X115870000Y-118580000D01*
X117730000Y-118580000D02*
X117730000Y-119520000D01*
X117730000Y-119520000D02*
X115870000Y-119520000D01*
%TO.C,Q7*%
X133150000Y-125300000D02*
X125850000Y-125300000D01*
X125850000Y-131100000D01*
X133150000Y-131100000D01*
X133150000Y-125300000D01*
%TO.C,L3*%
X128650000Y-117587500D02*
X132550000Y-117587500D01*
X128650000Y-120287500D02*
X128650000Y-117587500D01*
X132550000Y-117587500D02*
X132550000Y-120287500D01*
X132550000Y-120287500D02*
X128650000Y-120287500D01*
%TO.C,C39*%
X145070000Y-125470000D02*
X148030000Y-125470000D01*
X145070000Y-126930000D02*
X145070000Y-125470000D01*
X148030000Y-125470000D02*
X148030000Y-126930000D01*
X148030000Y-126930000D02*
X145070000Y-126930000D01*
%TO.C,C26*%
X132820000Y-106370000D02*
X135780000Y-106370000D01*
X132820000Y-107830000D02*
X132820000Y-106370000D01*
X135780000Y-106370000D02*
X135780000Y-107830000D01*
X135780000Y-107830000D02*
X132820000Y-107830000D01*
%TO.C,R20*%
X127120000Y-108070000D02*
X130080000Y-108070000D01*
X127120000Y-109530000D02*
X127120000Y-108070000D01*
X130080000Y-108070000D02*
X130080000Y-109530000D01*
X130080000Y-109530000D02*
X127120000Y-109530000D01*
%TO.C,C12*%
X118420000Y-121370000D02*
X119880000Y-121370000D01*
X118420000Y-124330000D02*
X118420000Y-121370000D01*
X119880000Y-121370000D02*
X119880000Y-124330000D01*
X119880000Y-124330000D02*
X118420000Y-124330000D01*
%TO.C,C18*%
X123750000Y-108070000D02*
X127050000Y-108070000D01*
X123750000Y-109530000D02*
X123750000Y-108070000D01*
X127050000Y-108070000D02*
X127050000Y-109530000D01*
X127050000Y-109530000D02*
X123750000Y-109530000D01*
%TO.C,C36*%
X149670000Y-123920000D02*
X151130000Y-123920000D01*
X149670000Y-126880000D02*
X149670000Y-123920000D01*
X151130000Y-123920000D02*
X151130000Y-126880000D01*
X151130000Y-126880000D02*
X149670000Y-126880000D01*
%TO.C,C23*%
X141820000Y-102470000D02*
X144780000Y-102470000D01*
X141820000Y-103930000D02*
X141820000Y-102470000D01*
X144780000Y-102470000D02*
X144780000Y-103930000D01*
X144780000Y-103930000D02*
X141820000Y-103930000D01*
%TO.C,R29*%
X139220000Y-125170000D02*
X142180000Y-125170000D01*
X139220000Y-126630000D02*
X139220000Y-125170000D01*
X142180000Y-125170000D02*
X142180000Y-126630000D01*
X142180000Y-126630000D02*
X139220000Y-126630000D01*
%TO.C,R3*%
X130937294Y-97830330D02*
X133030330Y-95737294D01*
X131969670Y-98862706D02*
X130937294Y-97830330D01*
X133030330Y-95737294D02*
X134062706Y-96769670D01*
X134062706Y-96769670D02*
X131969670Y-98862706D01*
%TO.C,C1*%
X132820000Y-103370000D02*
X135780000Y-103370000D01*
X132820000Y-104830000D02*
X132820000Y-103370000D01*
X135780000Y-103370000D02*
X135780000Y-104830000D01*
X135780000Y-104830000D02*
X132820000Y-104830000D01*
%TO.C,R8*%
X115120000Y-128770000D02*
X118080000Y-128770000D01*
X115120000Y-130230000D02*
X115120000Y-128770000D01*
X118080000Y-128770000D02*
X118080000Y-130230000D01*
X118080000Y-130230000D02*
X115120000Y-130230000D01*
%TO.C,R27*%
X133620000Y-126720000D02*
X142180000Y-126720000D01*
X133620000Y-131680000D02*
X133620000Y-126720000D01*
X142180000Y-126720000D02*
X142180000Y-131680000D01*
X142180000Y-131680000D02*
X133620000Y-131680000D01*
%TO.C,H4*%
X108150000Y-121500000D02*
X108150000Y-117500000D01*
X108150000Y-121500000D02*
X112150000Y-121500000D01*
X112150000Y-117500000D02*
X108150000Y-117500000D01*
X112150000Y-117500000D02*
X112150000Y-121500000D01*
%TO.C,C37*%
X145070000Y-122470000D02*
X148030000Y-122470000D01*
X145070000Y-123930000D02*
X145070000Y-122470000D01*
X148030000Y-122470000D02*
X148030000Y-123930000D01*
X148030000Y-123930000D02*
X145070000Y-123930000D01*
%TO.C,TP5*%
X145300000Y-110600000D02*
G75*
G02*
X143300000Y-110600000I-1000000J0D01*
G01*
X143300000Y-110600000D02*
G75*
G02*
X145300000Y-110600000I1000000J0D01*
G01*
%TO.C,R2*%
X108470000Y-123720000D02*
X109930000Y-123720000D01*
X108470000Y-126680000D02*
X108470000Y-123720000D01*
X109930000Y-123720000D02*
X109930000Y-126680000D01*
X109930000Y-126680000D02*
X108470000Y-126680000D01*
%TO.C,J2*%
X140350000Y-90300000D02*
X136750000Y-90300000D01*
X136750000Y-93700000D01*
X140350000Y-93700000D01*
X140350000Y-90300000D01*
%TO.C,FB1*%
X129820000Y-103370000D02*
X132780000Y-103370000D01*
X129820000Y-104830000D02*
X129820000Y-103370000D01*
X132780000Y-103370000D02*
X132780000Y-104830000D01*
X132780000Y-104830000D02*
X129820000Y-104830000D01*
%TO.C,R34*%
X145070000Y-120970000D02*
X148030000Y-120970000D01*
X145070000Y-122430000D02*
X145070000Y-120970000D01*
X148030000Y-120970000D02*
X148030000Y-122430000D01*
X148030000Y-122430000D02*
X145070000Y-122430000D01*
%TO.C,D4*%
X120180000Y-121920000D02*
X121120000Y-121920000D01*
X120180000Y-123780000D02*
X120180000Y-121920000D01*
X121120000Y-121920000D02*
X121120000Y-123780000D01*
X121120000Y-123780000D02*
X120180000Y-123780000D01*
%TO.C,C27*%
X132570000Y-117920000D02*
X134030000Y-117920000D01*
X132570000Y-120880000D02*
X132570000Y-117920000D01*
X134030000Y-117920000D02*
X134030000Y-120880000D01*
X134030000Y-120880000D02*
X132570000Y-120880000D01*
%TO.C,C38*%
X124720000Y-123770000D02*
X127680000Y-123770000D01*
X124720000Y-125230000D02*
X124720000Y-123770000D01*
X127680000Y-123770000D02*
X127680000Y-125230000D01*
X127680000Y-125230000D02*
X124720000Y-125230000D01*
%TO.C,C19*%
X129820000Y-104870000D02*
X132780000Y-104870000D01*
X129820000Y-106330000D02*
X129820000Y-104870000D01*
X132780000Y-104870000D02*
X132780000Y-106330000D01*
X132780000Y-106330000D02*
X129820000Y-106330000D01*
%TO.C,R7*%
X108370000Y-128320000D02*
X109830000Y-128320000D01*
X108370000Y-131280000D02*
X108370000Y-128320000D01*
X109830000Y-128320000D02*
X109830000Y-131280000D01*
X109830000Y-131280000D02*
X108370000Y-131280000D01*
%TO.C,R28*%
X115320000Y-119820000D02*
X118280000Y-119820000D01*
X115320000Y-121280000D02*
X115320000Y-119820000D01*
X118280000Y-119820000D02*
X118280000Y-121280000D01*
X118280000Y-121280000D02*
X115320000Y-121280000D01*
D11*
%TO.C,U3*%
X135612400Y-120618748D02*
X135917200Y-120618748D01*
X135612400Y-123381252D02*
X135612400Y-120618748D01*
X135917200Y-119917200D02*
X136618748Y-119917200D01*
X135917200Y-120618748D02*
X135917200Y-119917200D01*
X135917200Y-123381252D02*
X135612400Y-123381252D01*
X135917200Y-124082800D02*
X135917200Y-123381252D01*
X136618748Y-119612400D02*
X139381252Y-119612400D01*
X136618748Y-119917200D02*
X136618748Y-119612400D01*
X136618748Y-124082800D02*
X135917200Y-124082800D01*
X136618748Y-124387600D02*
X136618748Y-124082800D01*
X139381252Y-119612400D02*
X139381252Y-119917200D01*
X139381252Y-119917200D02*
X140082800Y-119917200D01*
X139381252Y-124082800D02*
X139381252Y-124387600D01*
X139381252Y-124387600D02*
X136618748Y-124387600D01*
X140082800Y-119917200D02*
X140082800Y-120618748D01*
X140082800Y-120618748D02*
X140387600Y-120618748D01*
X140082800Y-123381252D02*
X140082800Y-124082800D01*
X140082800Y-124082800D02*
X139381252Y-124082800D01*
X140387600Y-120618748D02*
X140387600Y-123381252D01*
X140387600Y-123381252D02*
X140082800Y-123381252D01*
D10*
%TO.C,U2*%
X128450000Y-120337500D02*
X128450000Y-123737500D01*
X128450000Y-123737500D02*
X132550000Y-123737500D01*
X132550000Y-120337500D02*
X128450000Y-120337500D01*
X132550000Y-123737500D02*
X132550000Y-120337500D01*
%TO.C,R19*%
X124720000Y-103170000D02*
X126180000Y-103170000D01*
X124720000Y-106130000D02*
X124720000Y-103170000D01*
X126180000Y-103170000D02*
X126180000Y-106130000D01*
X126180000Y-106130000D02*
X124720000Y-106130000D01*
%TO.C,C6*%
X113870000Y-121320000D02*
X115330000Y-121320000D01*
X113870000Y-124280000D02*
X113870000Y-121320000D01*
X115330000Y-121320000D02*
X115330000Y-124280000D01*
X115330000Y-124280000D02*
X113870000Y-124280000D01*
%TO.C,R6*%
X141670000Y-92970000D02*
X143130000Y-92970000D01*
X141670000Y-95930000D02*
X141670000Y-92970000D01*
X143130000Y-92970000D02*
X143130000Y-95930000D01*
X143130000Y-95930000D02*
X141670000Y-95930000D01*
%TO.C,R18*%
X115120000Y-130270000D02*
X118080000Y-130270000D01*
X115120000Y-131730000D02*
X115120000Y-130270000D01*
X118080000Y-130270000D02*
X118080000Y-131730000D01*
X118080000Y-131730000D02*
X115120000Y-131730000D01*
%TO.C,C31*%
X116370000Y-121320000D02*
X117830000Y-121320000D01*
X116370000Y-124280000D02*
X116370000Y-121320000D01*
X117830000Y-121320000D02*
X117830000Y-124280000D01*
X117830000Y-124280000D02*
X116370000Y-124280000D01*
%TO.C,C24*%
X141820000Y-103970000D02*
X144780000Y-103970000D01*
X141820000Y-105430000D02*
X141820000Y-103970000D01*
X144780000Y-103970000D02*
X144780000Y-105430000D01*
X144780000Y-105430000D02*
X141820000Y-105430000D01*
%TO.C,H2*%
X148200000Y-128000000D02*
X148200000Y-132000000D01*
X148200000Y-128000000D02*
X152200000Y-128000000D01*
X152200000Y-132000000D02*
X148200000Y-132000000D01*
X152200000Y-132000000D02*
X152200000Y-128000000D01*
%TO.C,R30*%
X133220000Y-125170000D02*
X136180000Y-125170000D01*
X133220000Y-126630000D02*
X133220000Y-125170000D01*
X136180000Y-125170000D02*
X136180000Y-126630000D01*
X136180000Y-126630000D02*
X133220000Y-126630000D01*
%TO.C,R15*%
X127320000Y-94820000D02*
X130280000Y-94820000D01*
X127320000Y-96280000D02*
X127320000Y-94820000D01*
X130280000Y-94820000D02*
X130280000Y-96280000D01*
X130280000Y-96280000D02*
X127320000Y-96280000D01*
%TD*%
M02*
