%TF.GenerationSoftware,KiCad,Pcbnew,8.0.5-8.0.5-0~ubuntu24.04.1*%
%TF.CreationDate,2024-09-15T17:00:47-06:00*%
%TF.ProjectId,esp32-s3 single motor & battery controller,65737033-322d-4733-9320-73696e676c65,rev?*%
%TF.SameCoordinates,Original*%
%TF.FileFunction,Copper,L1,Top*%
%TF.FilePolarity,Positive*%
%FSLAX46Y46*%
G04 Gerber Fmt 4.6, Leading zero omitted, Abs format (unit mm)*
G04 Created by KiCad (PCBNEW 8.0.5-8.0.5-0~ubuntu24.04.1) date 2024-09-15 17:00:47*
%MOMM*%
%LPD*%
G01*
G04 APERTURE LIST*
G04 Aperture macros list*
%AMRoundRect*
0 Rectangle with rounded corners*
0 $1 Rounding radius*
0 $2 $3 $4 $5 $6 $7 $8 $9 X,Y pos of 4 corners*
0 Add a 4 corners polygon primitive as box body*
4,1,4,$2,$3,$4,$5,$6,$7,$8,$9,$2,$3,0*
0 Add four circle primitives for the rounded corners*
1,1,$1+$1,$2,$3*
1,1,$1+$1,$4,$5*
1,1,$1+$1,$6,$7*
1,1,$1+$1,$8,$9*
0 Add four rect primitives between the rounded corners*
20,1,$1+$1,$2,$3,$4,$5,0*
20,1,$1+$1,$4,$5,$6,$7,0*
20,1,$1+$1,$6,$7,$8,$9,0*
20,1,$1+$1,$8,$9,$2,$3,0*%
%AMRotRect*
0 Rectangle, with rotation*
0 The origin of the aperture is its center*
0 $1 length*
0 $2 width*
0 $3 Rotation angle, in degrees counterclockwise*
0 Add horizontal line*
21,1,$1,$2,0,0,$3*%
%AMOutline5P*
0 Free polygon, 5 corners , with rotation*
0 The origin of the aperture is its center*
0 number of corners: always 5*
0 $1 to $10 corner X, Y*
0 $11 Rotation angle, in degrees counterclockwise*
0 create outline with 5 corners*
4,1,5,$1,$2,$3,$4,$5,$6,$7,$8,$9,$10,$1,$2,$11*%
%AMOutline6P*
0 Free polygon, 6 corners , with rotation*
0 The origin of the aperture is its center*
0 number of corners: always 6*
0 $1 to $12 corner X, Y*
0 $13 Rotation angle, in degrees counterclockwise*
0 create outline with 6 corners*
4,1,6,$1,$2,$3,$4,$5,$6,$7,$8,$9,$10,$11,$12,$1,$2,$13*%
%AMOutline7P*
0 Free polygon, 7 corners , with rotation*
0 The origin of the aperture is its center*
0 number of corners: always 7*
0 $1 to $14 corner X, Y*
0 $15 Rotation angle, in degrees counterclockwise*
0 create outline with 7 corners*
4,1,7,$1,$2,$3,$4,$5,$6,$7,$8,$9,$10,$11,$12,$13,$14,$1,$2,$15*%
%AMOutline8P*
0 Free polygon, 8 corners , with rotation*
0 The origin of the aperture is its center*
0 number of corners: always 8*
0 $1 to $16 corner X, Y*
0 $17 Rotation angle, in degrees counterclockwise*
0 create outline with 8 corners*
4,1,8,$1,$2,$3,$4,$5,$6,$7,$8,$9,$10,$11,$12,$13,$14,$15,$16,$1,$2,$17*%
%AMFreePoly0*
4,1,9,2.100000,-2.000000,2.350000,-2.000000,2.350000,-3.500000,-2.350000,-3.500000,-2.350000,-2.000000,-2.100000,-2.000000,-2.100000,1.100000,2.100000,1.100000,2.100000,-2.000000,2.100000,-2.000000,$1*%
G04 Aperture macros list end*
%TA.AperFunction,SMDPad,CuDef*%
%ADD10RoundRect,0.237500X0.237500X-0.300000X0.237500X0.300000X-0.237500X0.300000X-0.237500X-0.300000X0*%
%TD*%
%TA.AperFunction,SMDPad,CuDef*%
%ADD11C,1.000000*%
%TD*%
%TA.AperFunction,SMDPad,CuDef*%
%ADD12R,1.400000X1.200000*%
%TD*%
%TA.AperFunction,SMDPad,CuDef*%
%ADD13RoundRect,0.225000X-0.225000X-0.250000X0.225000X-0.250000X0.225000X0.250000X-0.225000X0.250000X0*%
%TD*%
%TA.AperFunction,ComponentPad*%
%ADD14R,1.000000X1.000000*%
%TD*%
%TA.AperFunction,ComponentPad*%
%ADD15O,1.000000X1.000000*%
%TD*%
%TA.AperFunction,SMDPad,CuDef*%
%ADD16RoundRect,0.200000X0.200000X0.275000X-0.200000X0.275000X-0.200000X-0.275000X0.200000X-0.275000X0*%
%TD*%
%TA.AperFunction,SMDPad,CuDef*%
%ADD17RoundRect,0.150000X0.150000X0.625000X-0.150000X0.625000X-0.150000X-0.625000X0.150000X-0.625000X0*%
%TD*%
%TA.AperFunction,SMDPad,CuDef*%
%ADD18RoundRect,0.250000X0.350000X0.650000X-0.350000X0.650000X-0.350000X-0.650000X0.350000X-0.650000X0*%
%TD*%
%TA.AperFunction,SMDPad,CuDef*%
%ADD19RoundRect,0.200000X-0.335876X-0.053033X-0.053033X-0.335876X0.335876X0.053033X0.053033X0.335876X0*%
%TD*%
%TA.AperFunction,SMDPad,CuDef*%
%ADD20RoundRect,0.250001X1.262499X1.974999X-1.262499X1.974999X-1.262499X-1.974999X1.262499X-1.974999X0*%
%TD*%
%TA.AperFunction,SMDPad,CuDef*%
%ADD21RoundRect,0.237500X0.237500X-0.287500X0.237500X0.287500X-0.237500X0.287500X-0.237500X-0.287500X0*%
%TD*%
%TA.AperFunction,SMDPad,CuDef*%
%ADD22RoundRect,0.112500X-0.237500X0.112500X-0.237500X-0.112500X0.237500X-0.112500X0.237500X0.112500X0*%
%TD*%
%TA.AperFunction,SMDPad,CuDef*%
%ADD23C,2.000000*%
%TD*%
%TA.AperFunction,SMDPad,CuDef*%
%ADD24RoundRect,0.112500X-0.112500X-0.237500X0.112500X-0.237500X0.112500X0.237500X-0.112500X0.237500X0*%
%TD*%
%TA.AperFunction,SMDPad,CuDef*%
%ADD25O,0.200000X0.599999*%
%TD*%
%TA.AperFunction,SMDPad,CuDef*%
%ADD26O,0.599999X0.200000*%
%TD*%
%TA.AperFunction,ComponentPad*%
%ADD27C,0.600000*%
%TD*%
%TA.AperFunction,SMDPad,CuDef*%
%ADD28R,2.600000X2.600000*%
%TD*%
%TA.AperFunction,SMDPad,CuDef*%
%ADD29R,0.900000X1.000000*%
%TD*%
%TA.AperFunction,SMDPad,CuDef*%
%ADD30RoundRect,0.225000X-0.335876X-0.017678X-0.017678X-0.335876X0.335876X0.017678X0.017678X0.335876X0*%
%TD*%
%TA.AperFunction,SMDPad,CuDef*%
%ADD31Outline6P,-2.900000X0.630000X-2.480000X1.050000X2.480000X1.050000X2.900000X0.630000X2.900000X-1.050000X-2.900000X-1.050000X90.000000*%
%TD*%
%TA.AperFunction,SMDPad,CuDef*%
%ADD32Outline6P,-2.900000X0.630000X-2.480000X1.050000X2.480000X1.050000X2.900000X0.630000X2.900000X-1.050000X-2.900000X-1.050000X270.000000*%
%TD*%
%TA.AperFunction,SMDPad,CuDef*%
%ADD33R,3.000000X3.000000*%
%TD*%
%TA.AperFunction,ComponentPad*%
%ADD34RoundRect,0.250000X0.725000X-0.600000X0.725000X0.600000X-0.725000X0.600000X-0.725000X-0.600000X0*%
%TD*%
%TA.AperFunction,ComponentPad*%
%ADD35O,1.950000X1.700000*%
%TD*%
%TA.AperFunction,SMDPad,CuDef*%
%ADD36RoundRect,0.225000X0.225000X0.250000X-0.225000X0.250000X-0.225000X-0.250000X0.225000X-0.250000X0*%
%TD*%
%TA.AperFunction,SMDPad,CuDef*%
%ADD37RoundRect,0.112500X0.112500X0.237500X-0.112500X0.237500X-0.112500X-0.237500X0.112500X-0.237500X0*%
%TD*%
%TA.AperFunction,SMDPad,CuDef*%
%ADD38RoundRect,0.250000X0.550000X-1.500000X0.550000X1.500000X-0.550000X1.500000X-0.550000X-1.500000X0*%
%TD*%
%TA.AperFunction,SMDPad,CuDef*%
%ADD39RoundRect,0.050000X-0.212132X-0.282843X0.282843X0.212132X0.212132X0.282843X-0.282843X-0.212132X0*%
%TD*%
%TA.AperFunction,SMDPad,CuDef*%
%ADD40RoundRect,0.050000X0.212132X-0.282843X0.282843X-0.212132X-0.212132X0.282843X-0.282843X0.212132X0*%
%TD*%
%TA.AperFunction,HeatsinkPad*%
%ADD41RotRect,4.000000X4.000000X45.000000*%
%TD*%
%TA.AperFunction,SMDPad,CuDef*%
%ADD42RoundRect,0.175000X-0.175000X-0.400000X0.175000X-0.400000X0.175000X0.400000X-0.175000X0.400000X0*%
%TD*%
%TA.AperFunction,SMDPad,CuDef*%
%ADD43FreePoly0,0.000000*%
%TD*%
%TA.AperFunction,SMDPad,CuDef*%
%ADD44RoundRect,0.200000X0.275000X-0.200000X0.275000X0.200000X-0.275000X0.200000X-0.275000X-0.200000X0*%
%TD*%
%TA.AperFunction,SMDPad,CuDef*%
%ADD45RoundRect,0.225000X0.017678X-0.335876X0.335876X-0.017678X-0.017678X0.335876X-0.335876X0.017678X0*%
%TD*%
%TA.AperFunction,SMDPad,CuDef*%
%ADD46RoundRect,0.225000X0.250000X-0.225000X0.250000X0.225000X-0.250000X0.225000X-0.250000X-0.225000X0*%
%TD*%
%TA.AperFunction,SMDPad,CuDef*%
%ADD47RoundRect,0.147500X-0.147500X-0.172500X0.147500X-0.172500X0.147500X0.172500X-0.147500X0.172500X0*%
%TD*%
%TA.AperFunction,SMDPad,CuDef*%
%ADD48RoundRect,0.237500X0.300000X0.237500X-0.300000X0.237500X-0.300000X-0.237500X0.300000X-0.237500X0*%
%TD*%
%TA.AperFunction,SMDPad,CuDef*%
%ADD49RoundRect,0.200000X-0.275000X0.200000X-0.275000X-0.200000X0.275000X-0.200000X0.275000X0.200000X0*%
%TD*%
%TA.AperFunction,SMDPad,CuDef*%
%ADD50RoundRect,0.062500X-0.350000X0.062500X-0.350000X-0.062500X0.350000X-0.062500X0.350000X0.062500X0*%
%TD*%
%TA.AperFunction,SMDPad,CuDef*%
%ADD51RoundRect,0.062500X-0.062500X0.350000X-0.062500X-0.350000X0.062500X-0.350000X0.062500X0.350000X0*%
%TD*%
%TA.AperFunction,HeatsinkPad*%
%ADD52R,2.000000X1.000000*%
%TD*%
%TA.AperFunction,SMDPad,CuDef*%
%ADD53RoundRect,0.225000X-0.250000X0.225000X-0.250000X-0.225000X0.250000X-0.225000X0.250000X0.225000X0*%
%TD*%
%TA.AperFunction,SMDPad,CuDef*%
%ADD54RoundRect,0.200000X-0.200000X-0.275000X0.200000X-0.275000X0.200000X0.275000X-0.200000X0.275000X0*%
%TD*%
%TA.AperFunction,ViaPad*%
%ADD55C,0.600000*%
%TD*%
%TA.AperFunction,Conductor*%
%ADD56C,0.200000*%
%TD*%
%TA.AperFunction,Conductor*%
%ADD57C,0.600000*%
%TD*%
%TA.AperFunction,Conductor*%
%ADD58C,0.280000*%
%TD*%
%TA.AperFunction,Conductor*%
%ADD59C,2.814000*%
%TD*%
G04 APERTURE END LIST*
D10*
%TO.P,C3,1*%
%TO.N,Net-(U5-XTAL_P)*%
X126050000Y-101162501D03*
%TO.P,C3,2*%
%TO.N,GND*%
X126050000Y-99437499D03*
%TD*%
D11*
%TO.P,TP25,1,1*%
%TO.N,Net-(U6-QC)*%
X141700000Y-92950000D03*
%TD*%
D12*
%TO.P,Y1,1,1*%
%TO.N,Net-(U5-XTAL_N)*%
X130000000Y-99400000D03*
%TO.P,Y1,2,2*%
%TO.N,GND*%
X127800000Y-99400000D03*
%TO.P,Y1,3,3*%
%TO.N,Net-(U5-XTAL_P)*%
X127800000Y-101100000D03*
%TO.P,Y1,4,4*%
%TO.N,GND*%
X130000000Y-101100000D03*
%TD*%
D11*
%TO.P,TP12,1,1*%
%TO.N,/1CSA-C*%
X137350000Y-112450000D03*
%TD*%
D13*
%TO.P,C9,1*%
%TO.N,GNDPWR*%
X115125000Y-123200000D03*
%TO.P,C9,2*%
%TO.N,Net-(Q4-D)*%
X116675000Y-123200000D03*
%TD*%
D14*
%TO.P,J4,1,Pin_1*%
%TO.N,/1CSA-A*%
X149000000Y-98870000D03*
D15*
%TO.P,J4,2,Pin_2*%
%TO.N,/1CSA-B*%
X149000000Y-97600000D03*
%TO.P,J4,3,Pin_3*%
%TO.N,/1CSA-C*%
X149000000Y-96330000D03*
%TD*%
D11*
%TO.P,TP11,1,1*%
%TO.N,/1CSA-B*%
X135300000Y-112450000D03*
%TD*%
D16*
%TO.P,R24,1*%
%TO.N,Net-(Q3-S)*%
X128597548Y-123372800D03*
%TO.P,R24,2*%
%TO.N,Net-(U4-BATSRC)*%
X126947548Y-123372800D03*
%TD*%
D13*
%TO.P,C21,1*%
%TO.N,GND*%
X127425000Y-104600000D03*
%TO.P,C21,2*%
%TO.N,VDD*%
X128975000Y-104600000D03*
%TD*%
D16*
%TO.P,R26,1*%
%TO.N,Net-(U4-ILIM)*%
X117625000Y-129350000D03*
%TO.P,R26,2*%
%TO.N,/PSU/REGN*%
X115975000Y-129350000D03*
%TD*%
D11*
%TO.P,TP19,1,1*%
%TO.N,Net-(U5-GPIO19{slash}USB_D-)*%
X142850000Y-107800000D03*
%TD*%
D13*
%TO.P,C15,1*%
%TO.N,GNDPWR*%
X129475000Y-130750000D03*
%TO.P,C15,2*%
%TO.N,Net-(Q3-S)*%
X131025000Y-130750000D03*
%TD*%
D17*
%TO.P,J1,1,Pin_1*%
%TO.N,GND*%
X128650000Y-95450000D03*
%TO.P,J1,2,Pin_2*%
%TO.N,VDD*%
X127650000Y-95450000D03*
%TO.P,J1,3,Pin_3*%
%TO.N,/SDA1*%
X126650000Y-95450000D03*
%TO.P,J1,4,Pin_4*%
%TO.N,/SCL1*%
X125650000Y-95450000D03*
D18*
%TO.P,J1,MP,MountPin*%
%TO.N,GND*%
X129950000Y-91575000D03*
X124350000Y-91575000D03*
%TD*%
D11*
%TO.P,TP6,1,1*%
%TO.N,Net-(U4-BATPRES_N)*%
X109500000Y-130900000D03*
%TD*%
%TO.P,TP3,1,1*%
%TO.N,Net-(U5-GPIO34)*%
X141950000Y-102900000D03*
%TD*%
D19*
%TO.P,R21,1*%
%TO.N,Net-(U5-GPIO3)*%
X132366637Y-108416637D03*
%TO.P,R21,2*%
%TO.N,GND*%
X133533363Y-109583363D03*
%TD*%
D11*
%TO.P,TP14,1,1*%
%TO.N,/UART0_RX*%
X143250000Y-111500000D03*
%TD*%
D20*
%TO.P,R9,1*%
%TO.N,/MOTORPWR*%
X124285048Y-120022800D03*
%TO.P,R9,2*%
%TO.N,Net-(Q4-D)*%
X119260048Y-120022800D03*
%TD*%
D21*
%TO.P,D3,1,K*%
%TO.N,GND*%
X125150000Y-105575000D03*
%TO.P,D3,2,A*%
%TO.N,Net-(D3-A)*%
X125150000Y-103825000D03*
%TD*%
D11*
%TO.P,TP28,1,1*%
%TO.N,Net-(U6-QF)*%
X136950000Y-91350000D03*
%TD*%
D16*
%TO.P,R1,1*%
%TO.N,Net-(Q3-S)*%
X117775000Y-130900000D03*
%TO.P,R1,2*%
%TO.N,Net-(U4-SRP)*%
X116125000Y-130900000D03*
%TD*%
D22*
%TO.P,Q1,1,D*%
%TO.N,/MOTORPWR*%
X119500000Y-124750000D03*
%TO.P,Q1,2,G*%
%TO.N,Net-(Q1-G)*%
X119500000Y-126050000D03*
%TO.P,Q1,3,S*%
%TO.N,Net-(Q1-S)*%
X121500000Y-125400000D03*
%TD*%
D13*
%TO.P,C16,1*%
%TO.N,Net-(Q3-S)*%
X132650000Y-130750000D03*
%TO.P,C16,2*%
%TO.N,/PSU/BATT+*%
X134200000Y-130750000D03*
%TD*%
D11*
%TO.P,TP2,1,1*%
%TO.N,Net-(U5-GPIO33)*%
X143550000Y-101500000D03*
%TD*%
%TO.P,TP8,1,1*%
%TO.N,/1B*%
X140950000Y-99050000D03*
%TD*%
D23*
%TO.P,H6,1,1*%
%TO.N,/MOTORPWR*%
X150300000Y-104800000D03*
%TD*%
D24*
%TO.P,Q5,1,D*%
%TO.N,/PSU/IN*%
X112872548Y-120222800D03*
%TO.P,Q5,2,G*%
%TO.N,Net-(Q4-G)*%
X114172548Y-120222800D03*
%TO.P,Q5,3,S*%
%TO.N,Net-(Q4-S)*%
X113522548Y-118222800D03*
%TD*%
D16*
%TO.P,R25,1*%
%TO.N,Net-(Q3-G)*%
X128597548Y-121872800D03*
%TO.P,R25,2*%
%TO.N,Net-(U4-BATDRV)*%
X126947548Y-121872800D03*
%TD*%
D13*
%TO.P,C10,1*%
%TO.N,Net-(Q4-D)*%
X118125000Y-123272800D03*
%TO.P,C10,2*%
%TO.N,/MOTORPWR*%
X119675000Y-123272800D03*
%TD*%
D25*
%TO.P,U4,1,ACN*%
%TO.N,/MOTORPWR*%
X113200000Y-125500001D03*
%TO.P,U4,2,ACP*%
%TO.N,Net-(Q4-D)*%
X112800001Y-125500001D03*
%TO.P,U4,3,CMSRC*%
%TO.N,Net-(U4-CMSRC)*%
X112399999Y-125500001D03*
%TO.P,U4,4,ACDRV*%
%TO.N,Net-(U4-ACDRV)*%
X112000000Y-125500001D03*
%TO.P,U4,5,ACOK*%
%TO.N,Net-(U4-ACOK)*%
X111600001Y-125500001D03*
%TO.P,U4,6,ACDET*%
%TO.N,Net-(U4-ACDET)*%
X111199999Y-125500001D03*
%TO.P,U4,7,IADP*%
%TO.N,unconnected-(U4-IADP-Pad7)*%
X110800000Y-125500001D03*
D26*
%TO.P,U4,8,IDCHG*%
%TO.N,unconnected-(U4-IDCHG-Pad8)*%
X110100001Y-126200000D03*
%TO.P,U4,9,PMON*%
%TO.N,unconnected-(U4-PMON-Pad9)*%
X110100001Y-126599999D03*
%TO.P,U4,10,PROCHOT_N*%
%TO.N,unconnected-(U4-PROCHOT_N-Pad10)*%
X110100001Y-127000001D03*
%TO.P,U4,11,SDA*%
%TO.N,/SDA1*%
X110100001Y-127400000D03*
%TO.P,U4,12,SCL*%
%TO.N,/SCL1*%
X110100001Y-127799999D03*
%TO.P,U4,13,CMPIN*%
%TO.N,GNDPWR*%
X110100001Y-128200001D03*
%TO.P,U4,14,CMPOUT*%
%TO.N,unconnected-(U4-CMPOUT-Pad14)*%
X110100001Y-128600000D03*
D25*
%TO.P,U4,15,BATPRES_N*%
%TO.N,Net-(U4-BATPRES_N)*%
X110800000Y-129300001D03*
%TO.P,U4,16,TB_STAT_N*%
%TO.N,Net-(U4-TB_STAT_N)*%
X111199999Y-129300001D03*
%TO.P,U4,17,BATSRC*%
%TO.N,Net-(U4-BATSRC)*%
X111600001Y-129300001D03*
%TO.P,U4,18,BATDRV*%
%TO.N,Net-(U4-BATDRV)*%
X112000000Y-129300001D03*
%TO.P,U4,19,SRN*%
%TO.N,Net-(U4-SRN)*%
X112399999Y-129300001D03*
%TO.P,U4,20,SRP*%
%TO.N,Net-(U4-SRP)*%
X112800001Y-129300001D03*
%TO.P,U4,21,ILIM*%
%TO.N,Net-(U4-ILIM)*%
X113200000Y-129300001D03*
D26*
%TO.P,U4,22,GND*%
%TO.N,GNDPWR*%
X113899999Y-128600000D03*
%TO.P,U4,23,LODRV*%
%TO.N,Net-(Q2-G)*%
X113899999Y-128200001D03*
%TO.P,U4,24,REGN*%
%TO.N,/PSU/REGN*%
X113899999Y-127799999D03*
%TO.P,U4,25,BTST*%
%TO.N,Net-(U4-BTST)*%
X113899999Y-127400000D03*
%TO.P,U4,26,HIDRV*%
%TO.N,Net-(Q1-G)*%
X113899999Y-127000001D03*
%TO.P,U4,27,PHASE*%
%TO.N,Net-(Q1-S)*%
X113899999Y-126599999D03*
%TO.P,U4,28,VCC*%
%TO.N,Net-(U4-VCC)*%
X113899999Y-126200000D03*
D27*
%TO.P,U4,29,PAD*%
%TO.N,GNDPWR*%
X112000000Y-126350000D03*
X113050000Y-127400000D03*
X112000000Y-127400000D03*
D28*
X112000000Y-127400000D03*
D27*
X110950000Y-127400000D03*
X112000000Y-128450000D03*
%TD*%
D13*
%TO.P,C5,1*%
%TO.N,Net-(U4-BTST)*%
X116125000Y-126300000D03*
%TO.P,C5,2*%
%TO.N,Net-(Q1-S)*%
X117675000Y-126300000D03*
%TD*%
D11*
%TO.P,TP9,1,1*%
%TO.N,/1C*%
X142400000Y-97600000D03*
%TD*%
D29*
%TO.P,SW2,1,1*%
%TO.N,GND*%
X128950000Y-112900000D03*
X124850000Y-112900000D03*
%TO.P,SW2,2,2*%
%TO.N,Net-(U5-GPIO0)*%
X128950000Y-111300000D03*
X124850000Y-111300000D03*
%TD*%
D30*
%TO.P,C25,1*%
%TO.N,VDD*%
X138651992Y-108151992D03*
%TO.P,C25,2*%
%TO.N,GND*%
X139748008Y-109248008D03*
%TD*%
D31*
%TO.P,L2,1,1*%
%TO.N,Net-(Q1-S)*%
X123500000Y-127350000D03*
D32*
%TO.P,L2,2,2*%
%TO.N,Net-(Q3-S)*%
X127400000Y-127350000D03*
%TD*%
D33*
%TO.P,H3,1,1*%
%TO.N,/PSU/IN*%
X110172548Y-119472800D03*
%TD*%
D11*
%TO.P,TP21,1,1*%
%TO.N,Net-(U5-GPIO21)*%
X143700000Y-105950000D03*
%TD*%
%TO.P,TP29,1,1*%
%TO.N,Net-(U6-QG)*%
X134550000Y-92350000D03*
%TD*%
D34*
%TO.P,J5,1,Pin_1*%
%TO.N,Net-(J5-Pin_1)*%
X143372548Y-125072800D03*
D35*
%TO.P,J5,2,Pin_2*%
%TO.N,Net-(J5-Pin_2)*%
X143372548Y-122572800D03*
%TO.P,J5,3,Pin_3*%
%TO.N,/PSU/BATT+*%
X143372548Y-120072800D03*
%TD*%
D14*
%TO.P,J3,1,Pin_1*%
%TO.N,/1A*%
X149000000Y-94000000D03*
D15*
%TO.P,J3,2,Pin_2*%
%TO.N,/1B*%
X149000000Y-92730000D03*
%TO.P,J3,3,Pin_3*%
%TO.N,/1C*%
X149000000Y-91460000D03*
%TD*%
D13*
%TO.P,C20,1*%
%TO.N,GND*%
X127725000Y-103100000D03*
%TO.P,C20,2*%
%TO.N,VDD*%
X129275000Y-103100000D03*
%TD*%
D36*
%TO.P,C8,1*%
%TO.N,Net-(Q4-S)*%
X116675000Y-121700000D03*
%TO.P,C8,2*%
%TO.N,Net-(Q4-G)*%
X115125000Y-121700000D03*
%TD*%
D16*
%TO.P,R23,1*%
%TO.N,/PSU/BATT+*%
X120825000Y-130850000D03*
%TO.P,R23,2*%
%TO.N,Net-(U4-SRN)*%
X119175000Y-130850000D03*
%TD*%
D37*
%TO.P,Q4,1,D*%
%TO.N,Net-(Q4-D)*%
X116772548Y-118222800D03*
%TO.P,Q4,2,G*%
%TO.N,Net-(Q4-G)*%
X115472548Y-118222800D03*
%TO.P,Q4,3,S*%
%TO.N,Net-(Q4-S)*%
X116122548Y-120222800D03*
%TD*%
D11*
%TO.P,TP15,1,1*%
%TO.N,/UART0_TX*%
X141200000Y-111450000D03*
%TD*%
%TO.P,TP10,1,1*%
%TO.N,/1CSA-A*%
X133250000Y-112450000D03*
%TD*%
%TO.P,TP24,1,1*%
%TO.N,Net-(U6-QB)*%
X143300000Y-94250000D03*
%TD*%
D38*
%TO.P,C41,1*%
%TO.N,/MOTORPWR*%
X147800000Y-114100000D03*
%TO.P,C41,2*%
%TO.N,GNDPWR*%
X147800000Y-108500000D03*
%TD*%
D13*
%TO.P,C11,1*%
%TO.N,/MOTORPWR*%
X124014056Y-123314438D03*
%TO.P,C11,2*%
%TO.N,GNDPWR*%
X125564056Y-123314438D03*
%TD*%
D29*
%TO.P,SW1,1,1*%
%TO.N,GND*%
X128950000Y-109300000D03*
X124850000Y-109300000D03*
%TO.P,SW1,2,2*%
%TO.N,/NRST*%
X128950000Y-107700000D03*
X124850000Y-107700000D03*
%TD*%
D39*
%TO.P,U5,1,LNA_IN*%
%TO.N,unconnected-(U5-LNA_IN-Pad1)*%
X131222004Y-104751041D03*
%TO.P,U5,2,VDD3P3*%
%TO.N,Net-(C19-Pad1)*%
X131504847Y-105033883D03*
%TO.P,U5,3,VDD3P3*%
X131787689Y-105316726D03*
%TO.P,U5,4,CHIP_PU*%
%TO.N,/NRST*%
X132070532Y-105599569D03*
%TO.P,U5,5,GPIO0*%
%TO.N,Net-(U5-GPIO0)*%
X132353375Y-105882412D03*
%TO.P,U5,6,GPIO1*%
%TO.N,/1CSA-A*%
X132636218Y-106165254D03*
%TO.P,U5,7,GPIO2*%
%TO.N,/1CSA-B*%
X132919060Y-106448097D03*
%TO.P,U5,8,GPIO3*%
%TO.N,Net-(U5-GPIO3)*%
X133201903Y-106730940D03*
%TO.P,U5,9,GPIO4*%
%TO.N,/1CSA-C*%
X133484746Y-107013782D03*
%TO.P,U5,10,GPIO5*%
%TO.N,unconnected-(U5-GPIO5-Pad10)*%
X133767588Y-107296625D03*
%TO.P,U5,11,GPIO6*%
%TO.N,unconnected-(U5-GPIO6-Pad11)*%
X134050431Y-107579468D03*
%TO.P,U5,12,GPIO7*%
%TO.N,unconnected-(U5-GPIO7-Pad12)*%
X134333274Y-107862311D03*
%TO.P,U5,13,GPIO8*%
%TO.N,unconnected-(U5-GPIO8-Pad13)*%
X134616117Y-108145153D03*
%TO.P,U5,14,GPIO9*%
%TO.N,Net-(U5-GPIO9)*%
X134898959Y-108427996D03*
D40*
%TO.P,U5,15,GPIO10*%
%TO.N,/SDA1*%
X136101041Y-108427996D03*
%TO.P,U5,16,GPIO11*%
%TO.N,/SCL1*%
X136383883Y-108145153D03*
%TO.P,U5,17,GPIO12*%
%TO.N,unconnected-(U5-GPIO12-Pad17)*%
X136666726Y-107862311D03*
%TO.P,U5,18,GPIO13*%
%TO.N,unconnected-(U5-GPIO13-Pad18)*%
X136949569Y-107579468D03*
%TO.P,U5,19,GPIO14*%
%TO.N,unconnected-(U5-GPIO14-Pad19)*%
X137232412Y-107296625D03*
%TO.P,U5,20,VDD3P3_RTC*%
%TO.N,VDD*%
X137515254Y-107013782D03*
%TO.P,U5,21,XTAL_32K_P*%
%TO.N,/1A*%
X137798097Y-106730940D03*
%TO.P,U5,22,XTAL_32K_N*%
%TO.N,/1B*%
X138080940Y-106448097D03*
%TO.P,U5,23,GPIO17*%
%TO.N,unconnected-(U5-GPIO17-Pad23)*%
X138363782Y-106165254D03*
%TO.P,U5,24,GPIO18*%
%TO.N,Net-(U5-GPIO18)*%
X138646625Y-105882412D03*
%TO.P,U5,25,GPIO19/USB_D-*%
%TO.N,Net-(U5-GPIO19{slash}USB_D-)*%
X138929468Y-105599569D03*
%TO.P,U5,26,GPIO20/USB_D+*%
%TO.N,Net-(U5-GPIO20{slash}USB_D+)*%
X139212311Y-105316726D03*
%TO.P,U5,27,GPIO21*%
%TO.N,Net-(U5-GPIO21)*%
X139495153Y-105033883D03*
%TO.P,U5,28,SPICS1*%
%TO.N,unconnected-(U5-SPICS1-Pad28)*%
X139777996Y-104751041D03*
D39*
%TO.P,U5,29,VDD_SPI*%
%TO.N,VDD*%
X139777996Y-103548959D03*
%TO.P,U5,30,SPIHD*%
%TO.N,unconnected-(U5-SPIHD-Pad30)*%
X139495153Y-103266117D03*
%TO.P,U5,31,SPIWP*%
%TO.N,unconnected-(U5-SPIWP-Pad31)*%
X139212311Y-102983274D03*
%TO.P,U5,32,SPICS0*%
%TO.N,unconnected-(U5-SPICS0-Pad32)*%
X138929468Y-102700431D03*
%TO.P,U5,33,SPICLK*%
%TO.N,unconnected-(U5-SPICLK-Pad33)*%
X138646625Y-102417588D03*
%TO.P,U5,34,SPIQ*%
%TO.N,unconnected-(U5-SPIQ-Pad34)*%
X138363782Y-102134746D03*
%TO.P,U5,35,SPID*%
%TO.N,unconnected-(U5-SPID-Pad35)*%
X138080940Y-101851903D03*
%TO.P,U5,36,SPICLK_N*%
%TO.N,/1C*%
X137798097Y-101569060D03*
%TO.P,U5,37,SPICLK_P*%
%TO.N,unconnected-(U5-SPICLK_P-Pad37)*%
X137515254Y-101286218D03*
%TO.P,U5,38,GPIO33*%
%TO.N,Net-(U5-GPIO33)*%
X137232412Y-101003375D03*
%TO.P,U5,39,GPIO34*%
%TO.N,Net-(U5-GPIO34)*%
X136949569Y-100720532D03*
%TO.P,U5,40,GPIO35*%
%TO.N,Net-(U5-GPIO35)*%
X136666726Y-100437689D03*
%TO.P,U5,41,GPIO36*%
%TO.N,/1A*%
X136383883Y-100154847D03*
%TO.P,U5,42,GPIO37*%
%TO.N,/1B*%
X136101041Y-99872004D03*
D40*
%TO.P,U5,43,GPIO38*%
%TO.N,/1C*%
X134898959Y-99872004D03*
%TO.P,U5,44,MTCK*%
%TO.N,Net-(U5-MTCK)*%
X134616117Y-100154847D03*
%TO.P,U5,45,MTDO*%
%TO.N,Net-(U5-MTDO)*%
X134333274Y-100437689D03*
%TO.P,U5,46,VDD3P3_CPU*%
%TO.N,VDD*%
X134050431Y-100720532D03*
%TO.P,U5,47,MTDI*%
%TO.N,Net-(U5-MTDI)*%
X133767588Y-101003375D03*
%TO.P,U5,48,MTMS*%
%TO.N,/CS0*%
X133484746Y-101286218D03*
%TO.P,U5,49,U0TXD*%
%TO.N,/UART0_TX*%
X133201903Y-101569060D03*
%TO.P,U5,50,U0RXD*%
%TO.N,/UART0_RX*%
X132919060Y-101851903D03*
%TO.P,U5,51,GPIO45*%
%TO.N,/LED*%
X132636218Y-102134746D03*
%TO.P,U5,52,GPIO46*%
%TO.N,Net-(U5-GPIO46)*%
X132353375Y-102417588D03*
%TO.P,U5,53,XTAL_N*%
%TO.N,Net-(U5-XTAL_N)*%
X132070532Y-102700431D03*
%TO.P,U5,54,XTAL_P*%
%TO.N,Net-(U5-XTAL_P)*%
X131787689Y-102983274D03*
%TO.P,U5,55,VDDA*%
%TO.N,VDD*%
X131504847Y-103266117D03*
%TO.P,U5,56,VDDA*%
X131222004Y-103548959D03*
D41*
%TO.P,U5,57,GND*%
%TO.N,GND*%
X135500000Y-104150000D03*
%TD*%
D13*
%TO.P,C14,1*%
%TO.N,/PSU/REGN*%
X116075000Y-127800000D03*
%TO.P,C14,2*%
%TO.N,GNDPWR*%
X117625000Y-127800000D03*
%TD*%
D11*
%TO.P,TP30,1,1*%
%TO.N,Net-(U6-QH)*%
X134750000Y-94400000D03*
%TD*%
D42*
%TO.P,Q3,1,D*%
%TO.N,/MOTORPWR*%
X134112548Y-118422800D03*
%TO.P,Q3,2,D*%
X132842548Y-118422800D03*
%TO.P,Q3,3,D*%
X131572548Y-118422800D03*
%TO.P,Q3,4,G*%
%TO.N,Net-(Q3-G)*%
X130302548Y-118422800D03*
D43*
%TO.P,Q3,5,S*%
%TO.N,Net-(Q3-S)*%
X132207548Y-121147800D03*
%TD*%
D44*
%TO.P,R12,1*%
%TO.N,Net-(U4-ACDET)*%
X110400000Y-124125000D03*
%TO.P,R12,2*%
%TO.N,/PSU/IN*%
X110400000Y-122475000D03*
%TD*%
D37*
%TO.P,Q2,1,D*%
%TO.N,Net-(Q1-S)*%
X121550000Y-127400000D03*
%TO.P,Q2,2,G*%
%TO.N,Net-(Q2-G)*%
X120250000Y-127400000D03*
%TO.P,Q2,3,S*%
%TO.N,GNDPWR*%
X120900000Y-129400000D03*
%TD*%
D11*
%TO.P,TP27,1,1*%
%TO.N,Net-(U6-QE)*%
X138750000Y-92300000D03*
%TD*%
D45*
%TO.P,C22,1*%
%TO.N,VDD*%
X133351992Y-99048008D03*
%TO.P,C22,2*%
%TO.N,GND*%
X134448008Y-97951992D03*
%TD*%
D33*
%TO.P,H1,1,1*%
%TO.N,/PSU/BATT+*%
X150172548Y-130022800D03*
%TD*%
D11*
%TO.P,TP26,1,1*%
%TO.N,Net-(U6-QD)*%
X140550000Y-91250000D03*
%TD*%
D46*
%TO.P,C29,1*%
%TO.N,GNDPWR*%
X128472548Y-120047800D03*
%TO.P,C29,2*%
%TO.N,/MOTORPWR*%
X128472548Y-118497800D03*
%TD*%
D47*
%TO.P,D5,1,K*%
%TO.N,Net-(D5-K)*%
X137915000Y-118600000D03*
%TO.P,D5,2,A*%
%TO.N,/PSU/BATT+*%
X138885000Y-118600000D03*
%TD*%
D48*
%TO.P,C4,1*%
%TO.N,Net-(U5-XTAL_N)*%
X129662501Y-97800000D03*
%TO.P,C4,2*%
%TO.N,GND*%
X127937499Y-97800000D03*
%TD*%
D44*
%TO.P,R16,1*%
%TO.N,VDD*%
X132550000Y-97425000D03*
%TO.P,R16,2*%
%TO.N,/CS1*%
X132550000Y-95775000D03*
%TD*%
D11*
%TO.P,TP18,1,1*%
%TO.N,Net-(U5-GPIO9)*%
X138150000Y-110600000D03*
%TD*%
D23*
%TO.P,H5,1,1*%
%TO.N,GNDPWR*%
X150300000Y-101700000D03*
%TD*%
D49*
%TO.P,R31,1*%
%TO.N,Net-(D5-K)*%
X136100000Y-118475000D03*
%TO.P,R31,2*%
%TO.N,Net-(U3-BAT)*%
X136100000Y-120125000D03*
%TD*%
D13*
%TO.P,C17,1*%
%TO.N,/PSU/BATT+*%
X135825000Y-130750000D03*
%TO.P,C17,2*%
%TO.N,GNDPWR*%
X137375000Y-130750000D03*
%TD*%
D11*
%TO.P,TP4,1,1*%
%TO.N,Net-(U5-GPIO35)*%
X140800000Y-101150000D03*
%TD*%
D49*
%TO.P,R13,1*%
%TO.N,GNDPWR*%
X108900000Y-122475000D03*
%TO.P,R13,2*%
%TO.N,Net-(U4-ACDET)*%
X108900000Y-124125000D03*
%TD*%
D11*
%TO.P,TP20,1,1*%
%TO.N,Net-(U5-GPIO20{slash}USB_D+)*%
X141650000Y-106150000D03*
%TD*%
D50*
%TO.P,U6,1,QB*%
%TO.N,Net-(U6-QB)*%
X140100000Y-94950000D03*
D51*
%TO.P,U6,2,QC*%
%TO.N,Net-(U6-QC)*%
X139662500Y-94012500D03*
%TO.P,U6,3,QD*%
%TO.N,Net-(U6-QD)*%
X139162500Y-94012500D03*
%TO.P,U6,4,QE*%
%TO.N,Net-(U6-QE)*%
X138662500Y-94012500D03*
%TO.P,U6,5,QF*%
%TO.N,Net-(U6-QF)*%
X138162500Y-94012500D03*
%TO.P,U6,6,QG*%
%TO.N,Net-(U6-QG)*%
X137662500Y-94012500D03*
%TO.P,U6,7,QH*%
%TO.N,Net-(U6-QH)*%
X137162500Y-94012500D03*
D50*
%TO.P,U6,8,GND*%
%TO.N,GND*%
X136725000Y-94950000D03*
%TO.P,U6,9,QH'*%
%TO.N,unconnected-(U6-QH'-Pad9)*%
X136725000Y-95450000D03*
D51*
%TO.P,U6,10,~{SRCLR}*%
%TO.N,unconnected-(U6-~{SRCLR}-Pad10)*%
X137162500Y-96387500D03*
%TO.P,U6,11,SRCLK*%
%TO.N,Net-(U5-GPIO19{slash}USB_D-)*%
X137662500Y-96387500D03*
%TO.P,U6,12,RCLK*%
X138162500Y-96387500D03*
%TO.P,U6,13,~{OE}*%
%TO.N,Net-(U5-GPIO21)*%
X138662500Y-96387500D03*
%TO.P,U6,14,SER*%
%TO.N,Net-(U5-GPIO20{slash}USB_D+)*%
X139162500Y-96387500D03*
%TO.P,U6,15,QA*%
%TO.N,Net-(U6-QA)*%
X139662500Y-96387500D03*
D50*
%TO.P,U6,16,VCC*%
%TO.N,VDD*%
X140100000Y-95450000D03*
D52*
%TO.P,U6,17,GND*%
%TO.N,GND*%
X138412500Y-95200000D03*
%TD*%
D11*
%TO.P,TP22,1,1*%
%TO.N,Net-(U5-GPIO46)*%
X124400000Y-98100000D03*
%TD*%
D13*
%TO.P,C7,1*%
%TO.N,/PSU/IN*%
X112125000Y-122300000D03*
%TO.P,C7,2*%
%TO.N,Net-(Q4-G)*%
X113675000Y-122300000D03*
%TD*%
D46*
%TO.P,C30,1*%
%TO.N,GNDPWR*%
X126972548Y-120072800D03*
%TO.P,C30,2*%
%TO.N,/MOTORPWR*%
X126972548Y-118522800D03*
%TD*%
D20*
%TO.P,R22,1*%
%TO.N,/PSU/BATT+*%
X135512500Y-127500000D03*
%TO.P,R22,2*%
%TO.N,Net-(Q3-S)*%
X130487500Y-127500000D03*
%TD*%
D53*
%TO.P,C35,1*%
%TO.N,Net-(U3-BAT)*%
X137600000Y-120725000D03*
%TO.P,C35,2*%
%TO.N,GNDPWR*%
X137600000Y-122275000D03*
%TD*%
D54*
%TO.P,R36,1*%
%TO.N,Net-(U3-DSG)*%
X138225000Y-125950000D03*
%TO.P,R36,2*%
%TO.N,Net-(Q7-G)*%
X139875000Y-125950000D03*
%TD*%
D11*
%TO.P,TP7,1,1*%
%TO.N,/1A*%
X142900000Y-99550000D03*
%TD*%
D55*
%TO.N,VDD*%
X129575000Y-105577817D03*
X140949197Y-103879098D03*
X141149265Y-94850000D03*
X138356629Y-109161887D03*
X131000000Y-94700000D03*
X127700000Y-93850000D03*
%TO.N,GND*%
X123850000Y-100400000D03*
X136300000Y-104350000D03*
X143350000Y-109050000D03*
X145150000Y-102500000D03*
X145100000Y-113400000D03*
X138250000Y-91200000D03*
X125100000Y-93900000D03*
X137500000Y-104300000D03*
X131800000Y-91800000D03*
X138650000Y-95250000D03*
X135900000Y-113600000D03*
X134350000Y-110150000D03*
X123600000Y-106500000D03*
X123600000Y-96600000D03*
X130500000Y-113550000D03*
X145200000Y-108150000D03*
X135000000Y-102750000D03*
X135300000Y-95450000D03*
X126550000Y-112450000D03*
X145850000Y-91700000D03*
%TO.N,/MOTORPWR*%
X134288419Y-119542800D03*
%TO.N,GNDPWR*%
X125600000Y-129400000D03*
X127700000Y-120000000D03*
X125050000Y-128800000D03*
X138500000Y-121400000D03*
X151100000Y-118300000D03*
X150900000Y-98700000D03*
X150100000Y-119200000D03*
X152100000Y-118300000D03*
X110800000Y-121500000D03*
X125600000Y-128200000D03*
X136000000Y-124300000D03*
X150100000Y-117300000D03*
X152100000Y-119200000D03*
X150900000Y-97700000D03*
X112395487Y-123274456D03*
X125600000Y-126900000D03*
X138400000Y-130800000D03*
X109500000Y-123300000D03*
X113700000Y-123300000D03*
X152100000Y-117300000D03*
X151800000Y-97700000D03*
X151800000Y-98700000D03*
X109900000Y-121500000D03*
X138500000Y-122200000D03*
X151100000Y-117300000D03*
X125050000Y-127500000D03*
X151800000Y-96700000D03*
X118900000Y-129200000D03*
X150900000Y-96700000D03*
X125050000Y-130000000D03*
X119700000Y-129400000D03*
X109000000Y-121500000D03*
X135200000Y-124000000D03*
X128873528Y-130925000D03*
X150100000Y-118300000D03*
X151100000Y-119200000D03*
%TO.N,Net-(C19-Pad1)*%
X130500000Y-106300000D03*
%TO.N,/1CSA-B*%
X135100000Y-111300000D03*
%TO.N,/1A*%
X138925001Y-107133076D03*
X142900000Y-99550000D03*
%TO.N,/1CSA-A*%
X133300000Y-111450000D03*
%TO.N,/1CSA-C*%
X136500000Y-110700000D03*
%TO.N,/1C*%
X138900000Y-101400000D03*
X142400000Y-97600000D03*
%TO.N,/CS1*%
X133650000Y-95550000D03*
%TO.N,/1B*%
X140950000Y-99050000D03*
X137401014Y-105825018D03*
%TO.N,/PSU/BATT+*%
X151700000Y-123200000D03*
X122200000Y-123048528D03*
%TO.N,/PSU/IN*%
X112500000Y-118100000D03*
%TO.N,/UART0_TX*%
X139650000Y-110800000D03*
X132750000Y-99850000D03*
%TO.N,/SDA1*%
X136100000Y-109100000D03*
X135288111Y-121904745D03*
X114700000Y-130500000D03*
X126100000Y-96900000D03*
X108778216Y-126909517D03*
%TO.N,/UART0_RX*%
X132250924Y-101049074D03*
X140325000Y-110100000D03*
%TO.N,/SCL1*%
X135372454Y-122795674D03*
X121800000Y-130900000D03*
X137000000Y-109500000D03*
X108800000Y-128000000D03*
X125050000Y-96900000D03*
%TO.N,Net-(U5-MTDI)*%
X134714467Y-101399999D03*
%TO.N,Net-(U5-MTDO)*%
X135350000Y-100800000D03*
%TO.N,Net-(U5-MTCK)*%
X135304681Y-98971407D03*
%TO.N,/NRST*%
X126700000Y-107700000D03*
%TO.N,unconnected-(U5-GPIO12-Pad17)*%
X137650000Y-108550000D03*
%TO.N,/SCK1*%
X135950000Y-93300000D03*
X136960674Y-97800000D03*
%TO.N,/CS0*%
X134057233Y-102057233D03*
%TO.N,Net-(Q4-G)*%
X113625033Y-121772158D03*
X109675735Y-125075735D03*
X114765686Y-118075000D03*
%TO.N,Net-(Q4-S)*%
X109607025Y-129844445D03*
X116045701Y-122164207D03*
%TO.N,Net-(U5-GPIO19{slash}USB_D-)*%
X140550000Y-107500000D03*
X137800000Y-97700000D03*
%TO.N,Net-(U5-GPIO20{slash}USB_D+)*%
X139200000Y-97800000D03*
X140439214Y-106260786D03*
%TO.N,Net-(U5-GPIO21)*%
X140500000Y-105384863D03*
X138600000Y-97200000D03*
%TO.N,Net-(D3-A)*%
X125500000Y-102600000D03*
%TO.N,/LED*%
X133457233Y-102657233D03*
X126300000Y-105900000D03*
%TO.N,Net-(U6-QA)*%
X140650000Y-96350000D03*
%TO.N,Net-(U4-VCC)*%
X118100000Y-125047800D03*
%TO.N,/PSU/REGN*%
X115150000Y-128450000D03*
%TO.N,Net-(U3-BAT)*%
X136776757Y-119248437D03*
%TO.N,/PSU/Low*%
X148200000Y-124100000D03*
X140800000Y-123600000D03*
%TO.N,Net-(Q1-G)*%
X120350000Y-126400000D03*
X115100000Y-126698533D03*
%TO.N,Net-(Q2-G)*%
X114500000Y-129100000D03*
X119575000Y-127500000D03*
%TO.N,Net-(Q7-G)*%
X141500000Y-124440000D03*
X125050000Y-126300000D03*
%TO.N,Net-(U4-ACDRV)*%
X112200000Y-124051471D03*
X108700000Y-125300000D03*
%TO.N,Net-(U4-CMSRC)*%
X113325735Y-124025735D03*
X108696041Y-129736938D03*
%TO.N,Net-(U4-BATSRC)*%
X111300000Y-130500000D03*
X127603298Y-123633643D03*
%TO.N,Net-(U4-BATDRV)*%
X126253064Y-122346936D03*
X112200000Y-130600000D03*
%TO.N,Net-(U3-DSG)*%
X137499873Y-124466433D03*
%TO.N,Net-(U4-ACOK)*%
X111400000Y-124485788D03*
X116800000Y-128700000D03*
%TO.N,Net-(U4-TB_STAT_N)*%
X110600000Y-130900000D03*
%TO.N,Net-(U5-GPIO18)*%
X142650000Y-109650000D03*
X139700000Y-107750000D03*
%TD*%
D56*
%TO.N,VDD*%
X131504847Y-103266117D02*
X131363426Y-103407538D01*
D57*
X129275000Y-103100000D02*
X131055887Y-103100000D01*
D56*
X133351992Y-99048008D02*
X133351992Y-100022093D01*
X141149265Y-94850000D02*
X140549265Y-95450000D01*
X133351992Y-100022093D02*
X134050431Y-100720532D01*
X140108135Y-103879098D02*
X139777996Y-103548959D01*
D57*
X129575000Y-105200000D02*
X128975000Y-104600000D01*
D56*
X131000000Y-94700000D02*
X131000000Y-95850000D01*
X127700000Y-93850000D02*
X127700000Y-95400000D01*
X138651992Y-108866524D02*
X138356629Y-109161887D01*
X138651992Y-108151992D02*
X138651992Y-108150520D01*
D57*
X129575000Y-105577817D02*
X129575000Y-105200000D01*
D56*
X140549265Y-95450000D02*
X140100000Y-95450000D01*
D57*
X128975000Y-103400000D02*
X129275000Y-103100000D01*
D56*
X133351992Y-98226992D02*
X132550000Y-97425000D01*
X138651992Y-108150520D02*
X137515254Y-107013782D01*
D57*
X128975000Y-104600000D02*
X128975000Y-103400000D01*
D56*
X138651992Y-108151992D02*
X138651992Y-108866524D01*
X127700000Y-95400000D02*
X127650000Y-95450000D01*
X133351992Y-99048008D02*
X133351992Y-98226992D01*
D57*
X131055887Y-103100000D02*
X131363426Y-103407539D01*
D56*
X132550000Y-97400000D02*
X132550000Y-97425000D01*
X140949197Y-103879098D02*
X140108135Y-103879098D01*
X131000000Y-95850000D02*
X132550000Y-97400000D01*
X131363426Y-103407538D02*
X131363426Y-103407539D01*
%TO.N,GND*%
X139748008Y-109248008D02*
X139946016Y-109050000D01*
X126050000Y-99437499D02*
X127762501Y-99437499D01*
X138350000Y-94950000D02*
X138650000Y-95250000D01*
X130000000Y-101100000D02*
X129700000Y-101100000D01*
X135800000Y-94950000D02*
X135300000Y-95450000D01*
X127762501Y-99437499D02*
X127800000Y-99400000D01*
X134350000Y-110150000D02*
X134100000Y-110150000D01*
X139946016Y-109050000D02*
X143350000Y-109050000D01*
X136725000Y-94950000D02*
X138350000Y-94950000D01*
X134100000Y-110150000D02*
X133533363Y-109583363D01*
X138412500Y-95200000D02*
X138162500Y-94950000D01*
X127937499Y-97800000D02*
X127937499Y-99262501D01*
X129700000Y-101100000D02*
X128000000Y-99400000D01*
X136725000Y-94950000D02*
X135800000Y-94950000D01*
X127937499Y-99262501D02*
X127800000Y-99400000D01*
X128000000Y-99400000D02*
X127800000Y-99400000D01*
D57*
%TO.N,/MOTORPWR*%
X123014438Y-123314438D02*
X123000000Y-123300000D01*
D58*
X119716638Y-123314438D02*
X119675000Y-123272800D01*
D56*
X122000000Y-122400000D02*
X122000000Y-120600000D01*
X121127200Y-123272800D02*
X122000000Y-122400000D01*
D57*
X119650000Y-124600000D02*
X122012892Y-124600000D01*
D59*
X150300000Y-104800000D02*
X150300000Y-113900000D01*
D56*
X118747800Y-124200000D02*
X119675000Y-123272800D01*
D59*
X150300000Y-113900000D02*
X147993715Y-116206285D01*
D57*
X124014056Y-123314438D02*
X123014438Y-123314438D01*
X134288419Y-119542800D02*
X134112548Y-119366929D01*
X134112548Y-118422800D02*
X131572548Y-118422800D01*
D56*
X119675000Y-123272800D02*
X121127200Y-123272800D01*
D57*
X123000000Y-121307848D02*
X124285048Y-120022800D01*
X123000000Y-123612892D02*
X123000000Y-123300000D01*
X128472548Y-118497800D02*
X125810048Y-118497800D01*
D56*
X113200000Y-125500001D02*
X113399999Y-125500001D01*
X114340000Y-124560000D02*
X115880686Y-124560000D01*
D57*
X125810048Y-118497800D02*
X124285048Y-120022800D01*
D56*
X113399999Y-125500001D02*
X114340000Y-124560000D01*
D57*
X123000000Y-123300000D02*
X123000000Y-121307848D01*
D56*
X122577200Y-120022800D02*
X124285048Y-120022800D01*
D57*
X134112548Y-119366929D02*
X134112548Y-118422800D01*
X122012892Y-124600000D02*
X123000000Y-123612892D01*
D59*
X147993715Y-116206285D02*
X124406285Y-116206285D01*
D56*
X116240686Y-124200000D02*
X118747800Y-124200000D01*
D57*
X119500000Y-124750000D02*
X119650000Y-124600000D01*
D56*
X115880686Y-124560000D02*
X116240686Y-124200000D01*
X122000000Y-120600000D02*
X122577200Y-120022800D01*
%TO.N,GNDPWR*%
X113899999Y-128600000D02*
X113200000Y-128600000D01*
X113200000Y-128600000D02*
X112000000Y-127400000D01*
X115025000Y-123300000D02*
X115125000Y-123200000D01*
X113700000Y-123300000D02*
X109500000Y-123300000D01*
X110100001Y-128200001D02*
X111199999Y-128200001D01*
X113700000Y-123300000D02*
X115025000Y-123300000D01*
D58*
X118900000Y-129200000D02*
X118975000Y-129200000D01*
X117625000Y-127925000D02*
X117625000Y-127800000D01*
X138500000Y-122200000D02*
X138425000Y-122275000D01*
D56*
X128873528Y-130925000D02*
X129300000Y-130925000D01*
D57*
X147800000Y-104400000D02*
X150300000Y-101900000D01*
D56*
X129300000Y-130925000D02*
X129475000Y-130750000D01*
X111199999Y-128200001D02*
X112000000Y-127400000D01*
D58*
X118900000Y-129200000D02*
X117625000Y-127925000D01*
D56*
X137425000Y-130800000D02*
X137375000Y-130750000D01*
D57*
X147800000Y-108500000D02*
X147800000Y-104400000D01*
D56*
X138400000Y-130800000D02*
X137425000Y-130800000D01*
D58*
X138425000Y-122275000D02*
X137600000Y-122275000D01*
D57*
X119175000Y-129400000D02*
X120900000Y-129400000D01*
D58*
X118975000Y-129200000D02*
X119175000Y-129400000D01*
D57*
X150300000Y-101900000D02*
X150300000Y-101700000D01*
D56*
%TO.N,Net-(U5-XTAL_P)*%
X126112501Y-101100000D02*
X126050000Y-101162501D01*
X130854415Y-102050000D02*
X131787689Y-102983274D01*
X128750000Y-102050000D02*
X130854415Y-102050000D01*
X127800000Y-101100000D02*
X126112501Y-101100000D01*
X127800000Y-101100000D02*
X128750000Y-102050000D01*
%TO.N,Net-(U5-XTAL_N)*%
X130000000Y-99400000D02*
X130000000Y-98137499D01*
X131000000Y-101629899D02*
X132070532Y-102700431D01*
X130550000Y-99400000D02*
X131000000Y-99850000D01*
X130000000Y-98137499D02*
X129662501Y-97800000D01*
X131000000Y-99850000D02*
X131000000Y-101629899D01*
X130000000Y-99400000D02*
X130550000Y-99400000D01*
D57*
%TO.N,Net-(C19-Pad1)*%
X130500000Y-106300000D02*
X130521573Y-106300000D01*
X130521573Y-106300000D02*
X131646268Y-105175305D01*
D56*
X131787689Y-105316726D02*
X131787689Y-105316725D01*
%TO.N,Net-(U4-BTST)*%
X115247061Y-127400000D02*
X113899999Y-127400000D01*
X116125000Y-126522061D02*
X115247061Y-127400000D01*
X116125000Y-126300000D02*
X116125000Y-126522061D01*
%TO.N,/1CSA-B*%
X131526843Y-108672861D02*
X131526843Y-107840314D01*
X135100000Y-111300000D02*
X134450000Y-111300000D01*
X135100000Y-111300000D02*
X135100000Y-111100000D01*
X131526843Y-107840314D02*
X132919060Y-106448097D01*
X133553982Y-110700000D02*
X131526843Y-108672861D01*
X135100000Y-112250000D02*
X135300000Y-112450000D01*
X133850000Y-110700000D02*
X133553982Y-110700000D01*
X135100000Y-111300000D02*
X135100000Y-112250000D01*
X134450000Y-111300000D02*
X133850000Y-110700000D01*
%TO.N,/1A*%
X138200233Y-107133076D02*
X137798097Y-106730940D01*
X140600000Y-100000000D02*
X139800000Y-99200000D01*
X137338730Y-99200000D02*
X136383883Y-100154847D01*
X139800000Y-99200000D02*
X137338730Y-99200000D01*
X146300000Y-94000000D02*
X149000000Y-94000000D01*
X143850000Y-99550000D02*
X144800000Y-98600000D01*
X142900000Y-99550000D02*
X142450000Y-100000000D01*
X144800000Y-98600000D02*
X144800000Y-95500000D01*
X144800000Y-95500000D02*
X146300000Y-94000000D01*
X142900000Y-99550000D02*
X143850000Y-99550000D01*
X142450000Y-100000000D02*
X140600000Y-100000000D01*
X138925001Y-107133076D02*
X138200233Y-107133076D01*
%TO.N,/1CSA-A*%
X131026843Y-107774629D02*
X132636218Y-106165254D01*
X133300000Y-111300000D02*
X131026843Y-109026843D01*
X131026843Y-109026843D02*
X131026843Y-107774629D01*
X133300000Y-111450000D02*
X133300000Y-111300000D01*
X133250000Y-111500000D02*
X133250000Y-112450000D01*
X133300000Y-111450000D02*
X133250000Y-111500000D01*
%TO.N,/1CSA-C*%
X135900000Y-110700000D02*
X133050000Y-107850000D01*
X136500000Y-110700000D02*
X136500000Y-111100000D01*
X136500000Y-111100000D02*
X137350000Y-111950000D01*
X133050000Y-107448528D02*
X133484746Y-107013782D01*
X137350000Y-111950000D02*
X137350000Y-112450000D01*
X136500000Y-110700000D02*
X135900000Y-110700000D01*
X133050000Y-107850000D02*
X133050000Y-107448528D01*
%TO.N,/1C*%
X138718081Y-101218081D02*
X138149076Y-101218081D01*
X142400000Y-96768628D02*
X147708628Y-91460000D01*
X140700000Y-97600000D02*
X139900000Y-98400000D01*
X136750000Y-98400000D02*
X135277996Y-99872004D01*
X138900000Y-101400000D02*
X138718081Y-101218081D01*
X142400000Y-97600000D02*
X142400000Y-96768628D01*
X147708628Y-91460000D02*
X149000000Y-91460000D01*
X139900000Y-98400000D02*
X136750000Y-98400000D01*
X135277996Y-99872004D02*
X134898959Y-99872004D01*
X138149076Y-101218081D02*
X137798097Y-101569060D01*
X142400000Y-97600000D02*
X140700000Y-97600000D01*
%TO.N,/CS1*%
X133425000Y-95775000D02*
X133650000Y-95550000D01*
X132550000Y-95775000D02*
X133425000Y-95775000D01*
%TO.N,/1B*%
X137673114Y-106097118D02*
X137729961Y-106097118D01*
X146909314Y-92825000D02*
X143700000Y-96034314D01*
X148825000Y-92825000D02*
X149000000Y-93000000D01*
X137173045Y-98800000D02*
X136101041Y-99872004D01*
X143700000Y-96034314D02*
X143700000Y-97550000D01*
X140700000Y-98800000D02*
X137173045Y-98800000D01*
X142200000Y-99050000D02*
X140950000Y-99050000D01*
X137729961Y-106097118D02*
X138080940Y-106448097D01*
X137401014Y-105825018D02*
X137673114Y-106097118D01*
X140950000Y-99050000D02*
X140700000Y-98800000D01*
X146909314Y-92825000D02*
X148825000Y-92825000D01*
X143700000Y-97550000D02*
X142200000Y-99050000D01*
%TO.N,/PSU/BATT+*%
X135512500Y-127500000D02*
X133800000Y-127500000D01*
X151700000Y-123200000D02*
X150550000Y-123200000D01*
X133200000Y-128100000D02*
X133200000Y-129750000D01*
X135512500Y-127500000D02*
X135512500Y-128242152D01*
D59*
X147422800Y-120072800D02*
X150172548Y-122822548D01*
D58*
X138885000Y-118600000D02*
X139285000Y-119000000D01*
D56*
X135512500Y-127500000D02*
X135512500Y-128612248D01*
X133425000Y-131525000D02*
X134200000Y-130750000D01*
D59*
X135512500Y-127500000D02*
X136412500Y-128400000D01*
D56*
X135512500Y-128812248D02*
X135825000Y-129124748D01*
X135512500Y-127500000D02*
X135512500Y-128812248D01*
X121025000Y-131525000D02*
X133425000Y-131525000D01*
X120825000Y-130850000D02*
X120825000Y-131325000D01*
D58*
X139285000Y-119000000D02*
X142299748Y-119000000D01*
D56*
X135512500Y-128612248D02*
X135825000Y-128924748D01*
X150550000Y-123200000D02*
X150172548Y-122822548D01*
X133800000Y-127500000D02*
X133200000Y-128100000D01*
D58*
X142299748Y-119000000D02*
X143372548Y-120072800D01*
D59*
X148549748Y-128400000D02*
X150172548Y-130022800D01*
D56*
X133200000Y-129750000D02*
X134200000Y-130750000D01*
D59*
X146000000Y-120072800D02*
X147422800Y-120072800D01*
X150172548Y-122822548D02*
X150172548Y-130022800D01*
X136412500Y-128400000D02*
X148549748Y-128400000D01*
D56*
X120825000Y-131325000D02*
X121025000Y-131525000D01*
X135512500Y-128242152D02*
X134200000Y-129554652D01*
X135825000Y-130750000D02*
X134200000Y-130750000D01*
D58*
%TO.N,/PSU/IN*%
X112872548Y-120222800D02*
X112872548Y-121552452D01*
X110400000Y-122475000D02*
X111950000Y-122475000D01*
D57*
X112122548Y-119472800D02*
X110172548Y-119472800D01*
X112500000Y-118100000D02*
X112500000Y-119095348D01*
X112500000Y-119095348D02*
X112122548Y-119472800D01*
D58*
X112872548Y-121552452D02*
X112125000Y-122300000D01*
X111950000Y-122475000D02*
X112125000Y-122300000D01*
D57*
X112872548Y-120222800D02*
X112122548Y-119472800D01*
D58*
%TO.N,Net-(Q1-S)*%
X114539999Y-126382254D02*
X114362252Y-126560001D01*
X121550000Y-127400000D02*
X120600000Y-128350000D01*
X115200000Y-125400000D02*
X114539999Y-126060001D01*
D56*
X113899999Y-126599999D02*
X114350003Y-126599999D01*
D58*
X117675000Y-126275000D02*
X116800000Y-125400000D01*
X117675000Y-126300000D02*
X117675000Y-126275000D01*
X114539999Y-126060001D02*
X114539999Y-126382254D01*
X118415000Y-127615000D02*
X118415000Y-127040000D01*
X116800000Y-125400000D02*
X115200000Y-125400000D01*
X120600000Y-128350000D02*
X119150000Y-128350000D01*
D56*
X117675000Y-126674264D02*
X117675000Y-126300000D01*
D58*
X121500000Y-125400000D02*
X121550000Y-125400000D01*
X123450000Y-127400000D02*
X123500000Y-127350000D01*
X118415000Y-127040000D02*
X117675000Y-126300000D01*
X119150000Y-128350000D02*
X118415000Y-127615000D01*
D56*
%TO.N,/UART0_TX*%
X140300000Y-111450000D02*
X139650000Y-110800000D01*
X132850924Y-99950924D02*
X132850924Y-101218081D01*
X132850924Y-101218081D02*
X133201903Y-101569060D01*
X141200000Y-111450000D02*
X140300000Y-111450000D01*
X132750000Y-99850000D02*
X132850924Y-99950924D01*
%TO.N,/SDA1*%
X136100000Y-109100000D02*
X136101041Y-109098959D01*
X108778216Y-126909517D02*
X109268699Y-127400000D01*
X136101041Y-109098959D02*
X136101041Y-108427996D01*
X109268699Y-127400000D02*
X110100001Y-127400000D01*
X126650000Y-96350000D02*
X126100000Y-96900000D01*
X126650000Y-95450000D02*
X126650000Y-96350000D01*
%TO.N,/UART0_RX*%
X132250924Y-101049074D02*
X132250924Y-101183767D01*
X140325000Y-110100000D02*
X141850000Y-110100000D01*
X132250924Y-101183767D02*
X132919060Y-101851903D01*
X141850000Y-110100000D02*
X143250000Y-111500000D01*
%TO.N,/SCL1*%
X136734862Y-108496133D02*
X136383883Y-108145153D01*
X109000001Y-127799999D02*
X110100001Y-127799999D01*
X108800000Y-128000000D02*
X109000001Y-127799999D01*
X125050000Y-96050000D02*
X125650000Y-95450000D01*
X137000000Y-108761271D02*
X136734862Y-108496133D01*
X125050000Y-96900000D02*
X125050000Y-96050000D01*
X137000000Y-109500000D02*
X137000000Y-108761271D01*
%TO.N,Net-(U5-MTDI)*%
X134714467Y-101399999D02*
X134164212Y-101399999D01*
X134164212Y-101399999D02*
X133767588Y-101003375D01*
%TO.N,Net-(U5-MTDO)*%
X134695585Y-100800000D02*
X134333274Y-100437689D01*
X135350000Y-100800000D02*
X134695585Y-100800000D01*
%TO.N,Net-(U5-MTCK)*%
X134265137Y-99515876D02*
X134809606Y-98971407D01*
X134616117Y-100154847D02*
X134265137Y-99803868D01*
X134809606Y-98971407D02*
X135304681Y-98971407D01*
X134265137Y-99803868D02*
X134265137Y-99515876D01*
%TO.N,/NRST*%
X126700000Y-107700000D02*
X128950000Y-107700000D01*
X129970101Y-107700000D02*
X132070532Y-105599569D01*
X128950000Y-107700000D02*
X129970101Y-107700000D01*
X124850000Y-107700000D02*
X128950000Y-107700000D01*
%TO.N,unconnected-(U5-GPIO12-Pad17)*%
X137650000Y-108550000D02*
X137354415Y-108550000D01*
X137354415Y-108550000D02*
X136666726Y-107862311D01*
%TO.N,Net-(U5-GPIO3)*%
X132366637Y-107566206D02*
X133201903Y-106730940D01*
X132366637Y-108416637D02*
X132366637Y-107566206D01*
%TO.N,Net-(U5-GPIO0)*%
X130600000Y-109650000D02*
X130600000Y-107635787D01*
X128950000Y-111300000D02*
X124850000Y-111300000D01*
X130600000Y-107635787D02*
X132353375Y-105882412D01*
X128950000Y-111300000D02*
X130600000Y-109650000D01*
%TO.N,/CS0*%
X134000000Y-101950000D02*
X134057233Y-102007233D01*
X134057233Y-102007233D02*
X134057233Y-102057233D01*
X133484746Y-101286218D02*
X134000000Y-101801472D01*
X134000000Y-101801472D02*
X134000000Y-101950000D01*
%TO.N,Net-(Q3-G)*%
X129600000Y-119500000D02*
X130302548Y-118797452D01*
X128597548Y-121872800D02*
X129600000Y-120870348D01*
X130302548Y-118797452D02*
X130302548Y-118422800D01*
X129600000Y-120870348D02*
X129600000Y-119500000D01*
%TO.N,Net-(Q4-G)*%
X114765686Y-118075000D02*
X115324748Y-118075000D01*
X115125000Y-121700000D02*
X114275000Y-121700000D01*
X114172548Y-120222800D02*
X114172548Y-120747548D01*
X114172548Y-120747548D02*
X115125000Y-121700000D01*
X114275000Y-121700000D02*
X113675000Y-122300000D01*
X115324748Y-118075000D02*
X115472548Y-118222800D01*
D58*
%TO.N,Net-(Q4-S)*%
X116675000Y-120775252D02*
X116122548Y-120222800D01*
D57*
X113522800Y-118222800D02*
X113522548Y-118222800D01*
D56*
X116045701Y-122164207D02*
X116210793Y-122164207D01*
D57*
X116122548Y-120222800D02*
X115522800Y-120222800D01*
D58*
X116675000Y-121700000D02*
X116675000Y-120775252D01*
D56*
X116210793Y-122164207D02*
X116675000Y-121700000D01*
D57*
X115522800Y-120222800D02*
X113522800Y-118222800D01*
D56*
%TO.N,Net-(U5-GPIO9)*%
X137650000Y-110100000D02*
X138150000Y-110600000D01*
X134898959Y-108427996D02*
X134898959Y-108847488D01*
X136151471Y-110100000D02*
X137650000Y-110100000D01*
X134898959Y-108847488D02*
X136151471Y-110100000D01*
%TO.N,Net-(U5-GPIO19{slash}USB_D-)*%
X137662500Y-97562500D02*
X137662500Y-96387500D01*
X140550000Y-107500000D02*
X140550000Y-107220101D01*
X140850000Y-107800000D02*
X142850000Y-107800000D01*
X140550000Y-107220101D02*
X138929468Y-105599569D01*
X140550000Y-107500000D02*
X140850000Y-107800000D01*
X137800000Y-97700000D02*
X137662500Y-97562500D01*
X138162500Y-96387500D02*
X137662500Y-96387500D01*
%TO.N,Net-(U5-GPIO20{slash}USB_D+)*%
X140439214Y-106260786D02*
X140078428Y-105900000D01*
X140439214Y-106260786D02*
X141539214Y-106260786D01*
X139200000Y-96425000D02*
X139162500Y-96387500D01*
X139200000Y-97800000D02*
X139200000Y-96425000D01*
X141539214Y-106260786D02*
X141650000Y-106150000D01*
X140078428Y-105900000D02*
X139795585Y-105900000D01*
X139795585Y-105900000D02*
X139212311Y-105316726D01*
%TO.N,Net-(U5-GPIO21)*%
X139846133Y-105384863D02*
X139495153Y-105033883D01*
X140500000Y-105384863D02*
X140715137Y-105384863D01*
X140500000Y-105384863D02*
X139846133Y-105384863D01*
X138600000Y-97200000D02*
X138662500Y-97137500D01*
X140715137Y-105384863D02*
X140750000Y-105350000D01*
X143100000Y-105350000D02*
X143700000Y-105950000D01*
X138662500Y-97137500D02*
X138662500Y-96387500D01*
X140750000Y-105350000D02*
X143100000Y-105350000D01*
%TO.N,Net-(U5-GPIO46)*%
X131550000Y-101614213D02*
X131550000Y-98100000D01*
X130250000Y-96800000D02*
X127250000Y-96800000D01*
X125950000Y-98100000D02*
X124400000Y-98100000D01*
X127250000Y-96800000D02*
X125950000Y-98100000D01*
X132353375Y-102417588D02*
X131550000Y-101614213D01*
X131550000Y-98100000D02*
X130250000Y-96800000D01*
%TO.N,Net-(D3-A)*%
X125500000Y-102600000D02*
X125500000Y-103475000D01*
X125500000Y-103475000D02*
X125150000Y-103825000D01*
%TO.N,/LED*%
X133158705Y-102657233D02*
X132636218Y-102134746D01*
X133457233Y-102657233D02*
X133158705Y-102657233D01*
%TO.N,Net-(U6-QA)*%
X140650000Y-96350000D02*
X140612500Y-96387500D01*
X140612500Y-96387500D02*
X139662500Y-96387500D01*
%TO.N,Net-(U6-QB)*%
X140150000Y-94950000D02*
X140850000Y-94250000D01*
X140100000Y-94950000D02*
X140150000Y-94950000D01*
X140850000Y-94250000D02*
X143300000Y-94250000D01*
%TO.N,Net-(U6-QC)*%
X140725000Y-92950000D02*
X141700000Y-92950000D01*
X139662500Y-94012500D02*
X140725000Y-92950000D01*
%TO.N,Net-(U6-QD)*%
X140550000Y-92198114D02*
X140550000Y-91250000D01*
X139162500Y-93585614D02*
X140550000Y-92198114D01*
X139162500Y-94012500D02*
X139162500Y-93585614D01*
%TO.N,Net-(U6-QE)*%
X138662500Y-94012500D02*
X138662500Y-92387500D01*
X138662500Y-92387500D02*
X138750000Y-92300000D01*
%TO.N,Net-(U6-QF)*%
X137750000Y-93084314D02*
X137750000Y-92150000D01*
X138162500Y-93496814D02*
X137750000Y-93084314D01*
X137750000Y-92150000D02*
X136950000Y-91350000D01*
X138162500Y-94012500D02*
X138162500Y-93496814D01*
%TO.N,Net-(U6-QG)*%
X134400000Y-92700000D02*
X134200000Y-92500000D01*
X137075000Y-92975000D02*
X136800000Y-92700000D01*
X137662500Y-94012500D02*
X137662500Y-93562500D01*
X137662500Y-93562500D02*
X137000000Y-92900000D01*
X136800000Y-92700000D02*
X134400000Y-92700000D01*
%TO.N,Net-(U6-QH)*%
X137162500Y-94012500D02*
X135137500Y-94012500D01*
X135137500Y-94012500D02*
X134750000Y-94400000D01*
%TO.N,Net-(Q4-D)*%
X112800000Y-125134316D02*
X112800001Y-125500001D01*
X114174314Y-124160000D02*
X113434313Y-124900001D01*
D58*
X118572548Y-120022800D02*
X119260048Y-120022800D01*
D56*
X115715000Y-124160000D02*
X114174314Y-124160000D01*
D57*
X116772548Y-118222800D02*
X118572548Y-120022800D01*
D56*
X121302200Y-122497800D02*
X119202200Y-122497800D01*
X119260048Y-120022800D02*
X121022800Y-120022800D01*
X119202200Y-122497800D02*
X118427200Y-123272800D01*
X113034315Y-124900001D02*
X112800000Y-125134316D01*
X113434313Y-124900001D02*
X113034315Y-124900001D01*
X121600000Y-122200000D02*
X121302200Y-122497800D01*
X118427200Y-123272800D02*
X118125000Y-123272800D01*
X116675000Y-123200000D02*
X115715000Y-124160000D01*
X121022800Y-120022800D02*
X121600000Y-120600000D01*
X121600000Y-120600000D02*
X121600000Y-122200000D01*
X116747800Y-123272800D02*
X118125000Y-123272800D01*
X116675000Y-123200000D02*
X116747800Y-123272800D01*
%TO.N,Net-(U5-GPIO34)*%
X141418629Y-102900000D02*
X141950000Y-102900000D01*
X140000000Y-101481371D02*
X141418629Y-102900000D01*
X136949569Y-100720532D02*
X137670101Y-100000000D01*
X137670101Y-100000000D02*
X139384314Y-100000000D01*
X139384314Y-100000000D02*
X140000000Y-100615686D01*
X140000000Y-100615686D02*
X140000000Y-101481371D01*
%TO.N,Net-(U5-GPIO35)*%
X140800000Y-100850000D02*
X140800000Y-101150000D01*
X137504415Y-99600000D02*
X139550000Y-99600000D01*
X139550000Y-99600000D02*
X140800000Y-100850000D01*
X136666726Y-100437689D02*
X137504415Y-99600000D01*
%TO.N,Net-(U5-GPIO33)*%
X137232412Y-101003375D02*
X137835787Y-100400000D01*
X139218628Y-100400000D02*
X139600000Y-100781372D01*
X139600000Y-100781372D02*
X139600000Y-101681371D01*
X142281371Y-103700000D02*
X143550000Y-102431371D01*
X141618629Y-103700000D02*
X142281371Y-103700000D01*
X139600000Y-101681371D02*
X141618629Y-103700000D01*
X143550000Y-102431371D02*
X143550000Y-101500000D01*
X137835787Y-100400000D02*
X139218628Y-100400000D01*
%TO.N,Net-(U4-VCC)*%
X114740000Y-124960000D02*
X113899999Y-125800001D01*
X118012200Y-124960000D02*
X114740000Y-124960000D01*
X113899999Y-125800001D02*
X113899999Y-126200000D01*
X118100000Y-125047800D02*
X118012200Y-124960000D01*
%TO.N,/PSU/REGN*%
X115675000Y-128975000D02*
X115675000Y-129350000D01*
X116100000Y-127825000D02*
X116100000Y-129225000D01*
X113899999Y-127799999D02*
X116074999Y-127799999D01*
X115150000Y-128450000D02*
X115675000Y-128975000D01*
X116074999Y-127799999D02*
X116075000Y-127800000D01*
D58*
X116075000Y-127800000D02*
X116100000Y-127825000D01*
D56*
X116100000Y-129225000D02*
X115975000Y-129350000D01*
%TO.N,Net-(Q3-S)*%
X132800000Y-130600000D02*
X132650000Y-130750000D01*
X130487500Y-128462500D02*
X130487500Y-127500000D01*
X128597548Y-123372800D02*
X129982548Y-123372800D01*
X128250000Y-130700000D02*
X130487500Y-128462500D01*
X130487500Y-127500000D02*
X132200000Y-127500000D01*
X122150000Y-130075000D02*
X122775000Y-130700000D01*
X117775000Y-130900000D02*
X118600000Y-130075000D01*
X132200000Y-127500000D02*
X132800000Y-128100000D01*
X122775000Y-130700000D02*
X128250000Y-130700000D01*
X118600000Y-130075000D02*
X122150000Y-130075000D01*
X129982548Y-123372800D02*
X132207548Y-121147800D01*
X132800000Y-128100000D02*
X132800000Y-130600000D01*
X131025000Y-130750000D02*
X132650000Y-130750000D01*
D58*
%TO.N,Net-(U3-BAT)*%
X136100000Y-120125000D02*
X137000000Y-120125000D01*
X137000000Y-120125000D02*
X137600000Y-120725000D01*
X136776757Y-119901757D02*
X137600000Y-120725000D01*
X136776757Y-119248437D02*
X136776757Y-119901757D01*
%TO.N,Net-(D5-K)*%
X137790000Y-118475000D02*
X136100000Y-118475000D01*
X137915000Y-118600000D02*
X137790000Y-118475000D01*
D56*
%TO.N,Net-(Q1-G)*%
X120350000Y-126400000D02*
X119850000Y-126400000D01*
X119850000Y-126400000D02*
X119500000Y-126050000D01*
X115100000Y-126698533D02*
X114798532Y-127000001D01*
X114798532Y-127000001D02*
X113899999Y-127000001D01*
%TO.N,Net-(Q2-G)*%
X114265684Y-128200000D02*
X113899999Y-128200001D01*
X114500000Y-129100000D02*
X114500000Y-128434316D01*
X120150000Y-127500000D02*
X120250000Y-127400000D01*
X119575000Y-127500000D02*
X120150000Y-127500000D01*
X114500000Y-128434316D02*
X114265684Y-128200000D01*
%TO.N,Net-(Q7-G)*%
X139990000Y-125950000D02*
X139875000Y-125950000D01*
X141500000Y-124440000D02*
X139990000Y-125950000D01*
%TO.N,Net-(U4-SRP)*%
X115750000Y-131275000D02*
X116125000Y-130900000D01*
X112800001Y-129700001D02*
X114375000Y-131275000D01*
X112800001Y-129300001D02*
X112800001Y-129700001D01*
X114375000Y-131275000D02*
X115750000Y-131275000D01*
%TO.N,Net-(U4-ACDRV)*%
X112200000Y-124051471D02*
X112000000Y-124251471D01*
X112000000Y-124251471D02*
X112000000Y-125500001D01*
%TO.N,Net-(U4-CMSRC)*%
X112399999Y-124951471D02*
X112399999Y-125500001D01*
X113325735Y-124025735D02*
X112399999Y-124951471D01*
%TO.N,Net-(U4-ACDET)*%
X111199999Y-125500001D02*
X111199999Y-125134315D01*
X110400000Y-124334316D02*
X110400000Y-124125000D01*
X111199999Y-125134315D02*
X110400000Y-124334316D01*
X110400000Y-124125000D02*
X108900000Y-124125000D01*
%TO.N,Net-(U4-SRN)*%
X112399999Y-129865685D02*
X114209314Y-131675000D01*
X112399999Y-129300001D02*
X112399999Y-129865685D01*
X118350000Y-131675000D02*
X119175000Y-130850000D01*
X114209314Y-131675000D02*
X118350000Y-131675000D01*
%TO.N,Net-(U4-BATSRC)*%
X127603298Y-123633643D02*
X127208391Y-123633643D01*
X111300000Y-130150001D02*
X111600001Y-129850000D01*
X111300000Y-130500000D02*
X111300000Y-130150001D01*
X111600001Y-129850000D02*
X111600001Y-129300001D01*
X127208391Y-123633643D02*
X126947548Y-123372800D01*
%TO.N,Net-(U4-BATDRV)*%
X112000000Y-130400000D02*
X112000000Y-129300001D01*
X126727200Y-121872800D02*
X126253064Y-122346936D01*
X126947548Y-121872800D02*
X126727200Y-121872800D01*
X112200000Y-130600000D02*
X112000000Y-130400000D01*
%TO.N,Net-(U4-ILIM)*%
X114748529Y-129700000D02*
X113599999Y-129700000D01*
X116850000Y-130125000D02*
X115173529Y-130125000D01*
X117625000Y-129350000D02*
X116850000Y-130125000D01*
X115173529Y-130125000D02*
X114748529Y-129700000D01*
X113599999Y-129700000D02*
X113200000Y-129300001D01*
%TO.N,Net-(U3-DSG)*%
X137499873Y-124466433D02*
X137499873Y-125224873D01*
X137499873Y-125224873D02*
X138225000Y-125950000D01*
%TO.N,Net-(U4-ACOK)*%
X111600001Y-124685789D02*
X111400000Y-124485788D01*
X111600001Y-125500001D02*
X111600001Y-124685789D01*
%TO.N,Net-(U4-TB_STAT_N)*%
X110600000Y-130265686D02*
X111199999Y-129665687D01*
X111199999Y-129665687D02*
X111199999Y-129300001D01*
X110600000Y-130900000D02*
X110600000Y-130265686D01*
%TO.N,Net-(U5-GPIO18)*%
X139700000Y-107750000D02*
X139700000Y-106935787D01*
X139700000Y-106935787D02*
X138646625Y-105882412D01*
%TO.N,Net-(U4-BATPRES_N)*%
X110800000Y-129300001D02*
X110800000Y-129500001D01*
X110800000Y-129500001D02*
X109500000Y-130800001D01*
X109500000Y-130800001D02*
X109500000Y-130900000D01*
%TD*%
%TA.AperFunction,Conductor*%
%TO.N,/MOTORPWR*%
G36*
X137570134Y-116199795D02*
G01*
X137578241Y-116203219D01*
X137581554Y-116211374D01*
X137578130Y-116219482D01*
X137577708Y-116219878D01*
X135837626Y-117771583D01*
X135829972Y-117774500D01*
X135777127Y-117774500D01*
X135717518Y-117780908D01*
X135717517Y-117780909D01*
X135582669Y-117831204D01*
X135582666Y-117831206D01*
X135467456Y-117917452D01*
X135467452Y-117917456D01*
X135381206Y-118032666D01*
X135381204Y-118032669D01*
X135330909Y-118167518D01*
X135324731Y-118224971D01*
X135320951Y-118232324D01*
X134465819Y-118994883D01*
X134458165Y-118997800D01*
X131222548Y-118997800D01*
X130936839Y-118996288D01*
X130928725Y-118992877D01*
X130925400Y-118984727D01*
X130926123Y-118980778D01*
X130946960Y-118924914D01*
X130953048Y-118868285D01*
X130953047Y-117977316D01*
X130946960Y-117920686D01*
X130899176Y-117792574D01*
X130817235Y-117683113D01*
X130707774Y-117601172D01*
X130579660Y-117553387D01*
X130523033Y-117547300D01*
X130082063Y-117547300D01*
X130025435Y-117553387D01*
X130025434Y-117553388D01*
X129897321Y-117601172D01*
X129787863Y-117683111D01*
X129787859Y-117683115D01*
X129705920Y-117792573D01*
X129658135Y-117920687D01*
X129652048Y-117977314D01*
X129652048Y-118868287D01*
X129652748Y-118874799D01*
X129650267Y-118883243D01*
X129649446Y-118884158D01*
X129548076Y-118985528D01*
X129539944Y-118988896D01*
X129539883Y-118988896D01*
X126501631Y-118972821D01*
X126494393Y-118970208D01*
X123025091Y-116120609D01*
X123020945Y-116112844D01*
X123023503Y-116104423D01*
X123031268Y-116100277D01*
X123032461Y-116100222D01*
X137570134Y-116199795D01*
G37*
%TD.AperFunction*%
%TD*%
%TA.AperFunction,Conductor*%
%TO.N,/PSU/BATT+*%
G36*
X145650656Y-118750807D02*
G01*
X145655514Y-118751917D01*
X145729202Y-118786885D01*
X145733135Y-118789947D01*
X145785110Y-118852805D01*
X145787378Y-118857242D01*
X145808207Y-118937437D01*
X145808567Y-118939909D01*
X145817447Y-119188519D01*
X145890664Y-121238627D01*
X145890457Y-121241245D01*
X145873804Y-121326384D01*
X145871666Y-121331144D01*
X145819923Y-121399075D01*
X145815902Y-121402401D01*
X145739462Y-121440474D01*
X145734385Y-121441680D01*
X145693232Y-121441859D01*
X145647624Y-121442058D01*
X145645029Y-121441770D01*
X144897764Y-121271116D01*
X143529287Y-120958594D01*
X143526856Y-120957744D01*
X143485986Y-120938057D01*
X143450200Y-120920819D01*
X143446202Y-120917630D01*
X143393985Y-120852144D01*
X143391767Y-120847537D01*
X143372836Y-120764586D01*
X143372548Y-120762027D01*
X143372548Y-119385617D01*
X143372842Y-119383035D01*
X143392116Y-119299381D01*
X143394375Y-119294738D01*
X143447469Y-119228990D01*
X143451529Y-119225806D01*
X143529261Y-119189347D01*
X143531717Y-119188519D01*
X145565315Y-118750544D01*
X145567791Y-118750287D01*
X145650656Y-118750807D01*
G37*
%TD.AperFunction*%
%TD*%
%TA.AperFunction,Conductor*%
%TO.N,Net-(Q1-S)*%
G36*
X122774648Y-124922280D02*
G01*
X122798068Y-124951571D01*
X122800000Y-124965196D01*
X122800000Y-127937612D01*
X122785648Y-127972260D01*
X122751000Y-127986612D01*
X122739389Y-127985216D01*
X121775003Y-127750000D01*
X121775000Y-127750000D01*
X121370131Y-127750000D01*
X121335483Y-127735648D01*
X121321296Y-127705022D01*
X121150165Y-125627003D01*
X121150000Y-125622981D01*
X121150000Y-125224000D01*
X121164352Y-125189352D01*
X121199000Y-125175000D01*
X121849997Y-125175000D01*
X121850000Y-125175000D01*
X122737375Y-124918128D01*
X122774648Y-124922280D01*
G37*
%TD.AperFunction*%
%TD*%
%TA.AperFunction,Conductor*%
%TO.N,Net-(Q3-S)*%
G36*
X134358658Y-123148021D02*
G01*
X134382038Y-123152671D01*
X134431842Y-123162577D01*
X134435985Y-123164293D01*
X134438657Y-123166079D01*
X134497066Y-123205108D01*
X134500239Y-123208281D01*
X134541053Y-123269361D01*
X134542770Y-123273506D01*
X134557327Y-123346688D01*
X134557548Y-123348932D01*
X134557548Y-124489638D01*
X134557266Y-124492167D01*
X134538773Y-124574202D01*
X134536603Y-124578771D01*
X134485515Y-124643902D01*
X134481595Y-124647097D01*
X134406329Y-124684593D01*
X134403940Y-124685469D01*
X132074593Y-125256707D01*
X132074592Y-125256707D01*
X132000000Y-125275000D01*
X131956825Y-125338513D01*
X129013538Y-129668306D01*
X129012362Y-129669764D01*
X128969593Y-129714761D01*
X128966617Y-129717013D01*
X128911687Y-129745943D01*
X128909965Y-129746678D01*
X127664540Y-130161819D01*
X127661881Y-130162367D01*
X127572599Y-130169991D01*
X127567271Y-130169178D01*
X127485625Y-130135812D01*
X127481252Y-130132661D01*
X127423778Y-130065754D01*
X127421321Y-130060955D01*
X127400320Y-129973842D01*
X127400000Y-129971147D01*
X127400000Y-124731172D01*
X127400323Y-124728466D01*
X127421496Y-124641016D01*
X127423968Y-124636211D01*
X127481879Y-124569197D01*
X127486275Y-124566054D01*
X127568425Y-124532953D01*
X127573779Y-124532170D01*
X127663369Y-124540441D01*
X127666033Y-124541010D01*
X129300000Y-125100000D01*
X129815772Y-123294069D01*
X129816703Y-123291780D01*
X129855437Y-123219793D01*
X129858638Y-123216061D01*
X129873157Y-123205108D01*
X129922887Y-123167591D01*
X129927350Y-123165541D01*
X130007209Y-123148065D01*
X130009667Y-123147800D01*
X134356415Y-123147800D01*
X134358658Y-123148021D01*
G37*
%TD.AperFunction*%
%TD*%
%TA.AperFunction,Conductor*%
%TO.N,GNDPWR*%
G36*
X151004043Y-90200765D02*
G01*
X151226790Y-90215364D01*
X151242848Y-90217479D01*
X151428875Y-90254482D01*
X151457771Y-90260230D01*
X151473438Y-90264428D01*
X151626569Y-90316409D01*
X151680944Y-90334867D01*
X151695921Y-90341070D01*
X151886791Y-90435196D01*
X151892460Y-90437992D01*
X151906508Y-90446102D01*
X152088712Y-90567848D01*
X152101573Y-90577716D01*
X152189054Y-90654435D01*
X152266328Y-90722202D01*
X152277797Y-90733671D01*
X152388160Y-90859517D01*
X152422280Y-90898423D01*
X152432154Y-90911291D01*
X152553897Y-91093492D01*
X152562007Y-91107539D01*
X152658926Y-91304071D01*
X152665133Y-91319057D01*
X152735571Y-91526561D01*
X152739769Y-91542228D01*
X152782518Y-91757140D01*
X152784636Y-91773221D01*
X152799235Y-91995956D01*
X152799500Y-92004066D01*
X152799500Y-113900000D01*
X152007501Y-113900000D01*
X152007501Y-113784245D01*
X152007500Y-113784211D01*
X152007500Y-104688091D01*
X152007500Y-104688085D01*
X151978284Y-104466168D01*
X151920353Y-104249964D01*
X151861992Y-104109070D01*
X151834699Y-104043178D01*
X151834694Y-104043168D01*
X151722781Y-103849328D01*
X151586522Y-103671752D01*
X151586516Y-103671745D01*
X151428254Y-103513483D01*
X151428247Y-103513477D01*
X151250671Y-103377218D01*
X151056831Y-103265305D01*
X151056821Y-103265300D01*
X151014322Y-103247697D01*
X150959919Y-103203856D01*
X150937854Y-103137562D01*
X150939071Y-103115258D01*
X150947855Y-103054962D01*
X150300001Y-102407107D01*
X150300000Y-102407107D01*
X149652143Y-103054962D01*
X149660928Y-103115259D01*
X149651114Y-103184436D01*
X149605458Y-103237326D01*
X149585678Y-103247696D01*
X149543181Y-103265299D01*
X149543168Y-103265305D01*
X149349328Y-103377218D01*
X149171752Y-103513477D01*
X149171745Y-103513483D01*
X149013483Y-103671745D01*
X149013477Y-103671752D01*
X148877218Y-103849328D01*
X148765305Y-104043168D01*
X148765300Y-104043178D01*
X148679650Y-104249957D01*
X148679645Y-104249970D01*
X148621717Y-104466165D01*
X148621714Y-104466178D01*
X148592501Y-104688075D01*
X148592500Y-104688091D01*
X148592500Y-106132354D01*
X148572815Y-106199393D01*
X148520011Y-106245148D01*
X148455899Y-106255712D01*
X148399991Y-106250000D01*
X148240161Y-106250000D01*
X148173122Y-106230315D01*
X148127367Y-106177511D01*
X148116162Y-106125749D01*
X148125363Y-101699994D01*
X148794859Y-101699994D01*
X148794859Y-101700005D01*
X148815385Y-101947729D01*
X148815387Y-101947738D01*
X148876412Y-102188717D01*
X148945856Y-102347036D01*
X149592893Y-101700000D01*
X149592892Y-101699999D01*
X151007107Y-101699999D01*
X151007107Y-101700000D01*
X151654142Y-102347036D01*
X151654143Y-102347035D01*
X151723587Y-102188719D01*
X151784612Y-101947738D01*
X151784614Y-101947729D01*
X151805141Y-101700005D01*
X151805141Y-101699994D01*
X151784614Y-101452270D01*
X151784612Y-101452261D01*
X151723587Y-101211280D01*
X151654143Y-101052963D01*
X151654142Y-101052962D01*
X151007107Y-101699999D01*
X149592892Y-101699999D01*
X148945856Y-101052963D01*
X148876412Y-101211282D01*
X148815387Y-101452261D01*
X148815385Y-101452270D01*
X148794859Y-101699994D01*
X148125363Y-101699994D01*
X148128180Y-100345036D01*
X149652143Y-100345036D01*
X150300000Y-100992893D01*
X150300001Y-100992893D01*
X150947856Y-100345036D01*
X150947856Y-100345035D01*
X150904619Y-100321637D01*
X150904599Y-100321629D01*
X150669493Y-100240916D01*
X150424293Y-100200000D01*
X150175707Y-100200000D01*
X149930506Y-100240916D01*
X149695392Y-100321631D01*
X149652143Y-100345036D01*
X148128180Y-100345036D01*
X148129476Y-99721718D01*
X148149299Y-99654726D01*
X148202198Y-99609081D01*
X148271377Y-99599281D01*
X148323553Y-99619683D01*
X148327232Y-99622203D01*
X148327235Y-99622206D01*
X148430009Y-99667585D01*
X148455135Y-99670500D01*
X149544864Y-99670499D01*
X149544879Y-99670497D01*
X149544882Y-99670497D01*
X149569987Y-99667586D01*
X149569988Y-99667585D01*
X149569991Y-99667585D01*
X149672765Y-99622206D01*
X149752206Y-99542765D01*
X149797585Y-99439991D01*
X149800500Y-99414865D01*
X149800499Y-98325136D01*
X149800497Y-98325117D01*
X149797586Y-98300012D01*
X149797585Y-98300010D01*
X149797585Y-98300009D01*
X149752206Y-98197235D01*
X149710319Y-98155348D01*
X149676834Y-98094025D01*
X149681818Y-98024333D01*
X149693007Y-98001694D01*
X149725788Y-97949524D01*
X149785368Y-97779254D01*
X149785369Y-97779249D01*
X149805565Y-97600003D01*
X149805565Y-97599996D01*
X149785369Y-97420750D01*
X149785368Y-97420745D01*
X149725788Y-97250476D01*
X149629815Y-97097737D01*
X149584759Y-97052681D01*
X149551274Y-96991358D01*
X149556258Y-96921666D01*
X149584759Y-96877319D01*
X149629816Y-96832262D01*
X149725789Y-96679522D01*
X149785368Y-96509255D01*
X149805565Y-96330000D01*
X149785368Y-96150745D01*
X149725789Y-95980478D01*
X149629816Y-95827738D01*
X149502262Y-95700184D01*
X149349523Y-95604211D01*
X149179254Y-95544631D01*
X149179249Y-95544630D01*
X149000004Y-95524435D01*
X148999996Y-95524435D01*
X148820750Y-95544630D01*
X148820745Y-95544631D01*
X148650476Y-95604211D01*
X148497737Y-95700184D01*
X148370184Y-95827737D01*
X148370181Y-95827741D01*
X148366687Y-95833302D01*
X148314349Y-95879590D01*
X148245295Y-95890234D01*
X148181449Y-95861855D01*
X148143080Y-95803463D01*
X148137698Y-95767074D01*
X148139586Y-94858646D01*
X148159410Y-94791652D01*
X148212309Y-94746007D01*
X148281488Y-94736207D01*
X148315813Y-94749630D01*
X148316725Y-94747565D01*
X148327234Y-94752205D01*
X148327235Y-94752206D01*
X148430009Y-94797585D01*
X148455135Y-94800500D01*
X149544864Y-94800499D01*
X149544879Y-94800497D01*
X149544882Y-94800497D01*
X149569987Y-94797586D01*
X149569988Y-94797585D01*
X149569991Y-94797585D01*
X149672765Y-94752206D01*
X149752206Y-94672765D01*
X149797585Y-94569991D01*
X149800500Y-94544865D01*
X149800499Y-93455136D01*
X149800497Y-93455117D01*
X149797586Y-93430012D01*
X149797585Y-93430010D01*
X149797585Y-93430009D01*
X149752206Y-93327235D01*
X149710319Y-93285348D01*
X149676834Y-93224025D01*
X149681818Y-93154333D01*
X149693007Y-93131694D01*
X149725788Y-93079524D01*
X149785368Y-92909254D01*
X149785369Y-92909249D01*
X149805565Y-92730003D01*
X149805565Y-92729996D01*
X149785369Y-92550750D01*
X149785368Y-92550745D01*
X149725788Y-92380476D01*
X149629815Y-92227737D01*
X149584759Y-92182681D01*
X149551274Y-92121358D01*
X149556258Y-92051666D01*
X149584759Y-92007319D01*
X149596122Y-91995956D01*
X149629816Y-91962262D01*
X149725789Y-91809522D01*
X149785368Y-91639255D01*
X149785369Y-91639249D01*
X149805565Y-91460003D01*
X149805565Y-91459996D01*
X149785369Y-91280750D01*
X149785368Y-91280745D01*
X149725788Y-91110476D01*
X149632650Y-90962249D01*
X149629816Y-90957738D01*
X149502262Y-90830184D01*
X149349523Y-90734211D01*
X149179254Y-90674631D01*
X149179249Y-90674630D01*
X149000004Y-90654435D01*
X148999996Y-90654435D01*
X148820750Y-90674630D01*
X148820745Y-90674631D01*
X148650476Y-90734211D01*
X148497737Y-90830184D01*
X148370182Y-90957739D01*
X148368796Y-90959478D01*
X148367615Y-90960306D01*
X148365260Y-90962662D01*
X148364847Y-90962249D01*
X148311605Y-90999615D01*
X148241794Y-91002460D01*
X148181526Y-90967111D01*
X148149937Y-90904790D01*
X148147854Y-90881906D01*
X148149014Y-90324242D01*
X148168838Y-90257244D01*
X148221737Y-90211599D01*
X148273014Y-90200500D01*
X150960118Y-90200500D01*
X150995933Y-90200500D01*
X151004043Y-90200765D01*
G37*
%TD.AperFunction*%
%TD*%
%TA.AperFunction,Conductor*%
%TO.N,GNDPWR*%
G36*
X147858155Y-130127185D02*
G01*
X147878797Y-130143819D01*
X148335729Y-130600751D01*
X148369214Y-130662074D01*
X148372048Y-130688432D01*
X148372048Y-131567656D01*
X148372050Y-131567682D01*
X148374961Y-131592786D01*
X148374962Y-131592790D01*
X148374963Y-131592791D01*
X148389368Y-131625415D01*
X148398439Y-131694692D01*
X148368615Y-131757877D01*
X148309366Y-131794908D01*
X148275933Y-131799500D01*
X134016255Y-131799500D01*
X133949216Y-131779815D01*
X133903461Y-131727011D01*
X133893517Y-131657853D01*
X133922542Y-131594297D01*
X133928574Y-131587819D01*
X133954574Y-131561819D01*
X134015897Y-131528334D01*
X134042255Y-131525500D01*
X134466138Y-131525500D01*
X134466144Y-131525500D01*
X134550590Y-131515359D01*
X134684975Y-131462364D01*
X134800078Y-131375078D01*
X134887364Y-131259975D01*
X134897145Y-131235171D01*
X134940051Y-131180028D01*
X135005958Y-131156834D01*
X135073943Y-131172954D01*
X135122420Y-131223271D01*
X135127855Y-131235172D01*
X135137635Y-131259975D01*
X135224921Y-131375078D01*
X135340023Y-131462363D01*
X135340024Y-131462363D01*
X135340025Y-131462364D01*
X135474410Y-131515359D01*
X135558856Y-131525500D01*
X135558862Y-131525500D01*
X136091138Y-131525500D01*
X136091144Y-131525500D01*
X136175590Y-131515359D01*
X136309975Y-131462364D01*
X136425078Y-131375078D01*
X136512364Y-131259975D01*
X136565359Y-131125590D01*
X136575500Y-131041144D01*
X136575500Y-130458856D01*
X136565359Y-130374410D01*
X136526940Y-130276989D01*
X136520660Y-130207403D01*
X136552997Y-130145467D01*
X136613686Y-130110846D01*
X136642296Y-130107500D01*
X147791116Y-130107500D01*
X147858155Y-130127185D01*
G37*
%TD.AperFunction*%
%TA.AperFunction,Conductor*%
G36*
X152799500Y-129995933D02*
G01*
X152799235Y-130004043D01*
X152784636Y-130226778D01*
X152782518Y-130242859D01*
X152739769Y-130457771D01*
X152735571Y-130473438D01*
X152665133Y-130680942D01*
X152658926Y-130695928D01*
X152562007Y-130892460D01*
X152553897Y-130906507D01*
X152432154Y-131088708D01*
X152422280Y-131101576D01*
X152277797Y-131266328D01*
X152266328Y-131277797D01*
X152178806Y-131354552D01*
X152115424Y-131383955D01*
X152046208Y-131374423D01*
X151993132Y-131328983D01*
X151973049Y-131262062D01*
X151973047Y-131261324D01*
X151973047Y-128477943D01*
X151973047Y-128477936D01*
X151973045Y-128477917D01*
X151970134Y-128452812D01*
X151970133Y-128452810D01*
X151970133Y-128452809D01*
X151924754Y-128350035D01*
X151916367Y-128341648D01*
X151882882Y-128280325D01*
X151880048Y-128253967D01*
X151880048Y-123858252D01*
X151899733Y-123791213D01*
X151952537Y-123745458D01*
X151956544Y-123743712D01*
X152002841Y-123724536D01*
X152128282Y-123628282D01*
X152224536Y-123502841D01*
X152285044Y-123356762D01*
X152305682Y-123200000D01*
X152302456Y-123175499D01*
X152285044Y-123043239D01*
X152285044Y-123043238D01*
X152224536Y-122897159D01*
X152128282Y-122771718D01*
X152128280Y-122771717D01*
X152128280Y-122771716D01*
X152090242Y-122742529D01*
X152002841Y-122675464D01*
X152002837Y-122675462D01*
X152002838Y-122675462D01*
X151934209Y-122647035D01*
X151879806Y-122603194D01*
X151858724Y-122548659D01*
X151850833Y-122488717D01*
X151824575Y-122390722D01*
X151792901Y-122272512D01*
X151740254Y-122145412D01*
X151734352Y-122131163D01*
X151707249Y-122065728D01*
X151707244Y-122065719D01*
X151704814Y-122061510D01*
X151622128Y-121918294D01*
X151595329Y-121871876D01*
X151493833Y-121739604D01*
X151459071Y-121694301D01*
X151382495Y-121617725D01*
X151300797Y-121536027D01*
X148551049Y-118786279D01*
X148543233Y-118780281D01*
X148525176Y-118766425D01*
X148525176Y-118766424D01*
X148373473Y-118650019D01*
X148314970Y-118616243D01*
X148272141Y-118591516D01*
X148179628Y-118538103D01*
X148179618Y-118538098D01*
X148076233Y-118495275D01*
X148076232Y-118495275D01*
X147972845Y-118452450D01*
X147972838Y-118452448D01*
X147972839Y-118452448D01*
X147972836Y-118452447D01*
X147840571Y-118417007D01*
X147840568Y-118417006D01*
X147756629Y-118394514D01*
X147534716Y-118365300D01*
X147534715Y-118365300D01*
X145888085Y-118365300D01*
X145888079Y-118365300D01*
X145888075Y-118365301D01*
X145666178Y-118394514D01*
X145666171Y-118394515D01*
X145666168Y-118394516D01*
X145513212Y-118435500D01*
X145449964Y-118452447D01*
X145449955Y-118452450D01*
X145407858Y-118469887D01*
X145386514Y-118476545D01*
X143467432Y-118889858D01*
X143467390Y-118889868D01*
X143434123Y-118899027D01*
X143431655Y-118899859D01*
X143398018Y-118913368D01*
X143351808Y-118922300D01*
X143156997Y-118922300D01*
X142978139Y-118950628D01*
X142971299Y-118952851D01*
X142901458Y-118954841D01*
X142845308Y-118922598D01*
X142570223Y-118647514D01*
X142570221Y-118647512D01*
X142519998Y-118618515D01*
X142469776Y-118589519D01*
X142413758Y-118574509D01*
X142357741Y-118559500D01*
X142357740Y-118559500D01*
X139604499Y-118559500D01*
X139537460Y-118539815D01*
X139491705Y-118487011D01*
X139480499Y-118435500D01*
X139480499Y-118373539D01*
X139477662Y-118343275D01*
X139477662Y-118343271D01*
X139433057Y-118215799D01*
X139356020Y-118111417D01*
X139332050Y-118045790D01*
X139347365Y-117977619D01*
X139397106Y-117928551D01*
X139455791Y-117913785D01*
X148105631Y-117913785D01*
X148189003Y-117902809D01*
X148327546Y-117884570D01*
X148433852Y-117856085D01*
X148543751Y-117826638D01*
X148650451Y-117782441D01*
X148750543Y-117740982D01*
X148899679Y-117654878D01*
X148944387Y-117629066D01*
X149121964Y-117492806D01*
X149280236Y-117334534D01*
X151586521Y-115028249D01*
X151722781Y-114850672D01*
X151763744Y-114779719D01*
X151834697Y-114656828D01*
X151888058Y-114528001D01*
X151920353Y-114450036D01*
X151957079Y-114312967D01*
X151978285Y-114233831D01*
X152007501Y-114011915D01*
X152007501Y-113900000D01*
X152799500Y-113900000D01*
X152799500Y-129995933D01*
G37*
%TD.AperFunction*%
%TA.AperFunction,Conductor*%
G36*
X130317701Y-130045184D02*
G01*
X130363456Y-130097988D01*
X130373400Y-130167146D01*
X130349467Y-130224423D01*
X130337636Y-130240024D01*
X130284640Y-130374411D01*
X130279065Y-130420841D01*
X130274500Y-130458856D01*
X130274500Y-130458862D01*
X130274500Y-131000500D01*
X130254815Y-131067539D01*
X130202011Y-131113294D01*
X130150500Y-131124500D01*
X128691255Y-131124500D01*
X128624216Y-131104815D01*
X128578461Y-131052011D01*
X128568517Y-130982853D01*
X128597542Y-130919297D01*
X128603574Y-130912819D01*
X129454574Y-130061818D01*
X129515897Y-130028333D01*
X129542255Y-130025499D01*
X130250662Y-130025499D01*
X130317701Y-130045184D01*
G37*
%TD.AperFunction*%
%TA.AperFunction,Conductor*%
G36*
X125594351Y-122548299D02*
G01*
X125594352Y-122548299D01*
X125594352Y-122548311D01*
X125594425Y-122549537D01*
X125657441Y-122560067D01*
X125709189Y-122607012D01*
X125717936Y-122624207D01*
X125728526Y-122649774D01*
X125728528Y-122649777D01*
X125822094Y-122771716D01*
X125824782Y-122775218D01*
X125950223Y-122871472D01*
X126096302Y-122931980D01*
X126139233Y-122937631D01*
X126203128Y-122965896D01*
X126241600Y-123024220D01*
X126247048Y-123060570D01*
X126247048Y-123695670D01*
X126247049Y-123695676D01*
X126253456Y-123755283D01*
X126303750Y-123890128D01*
X126303754Y-123890135D01*
X126353514Y-123956605D01*
X126377932Y-124022069D01*
X126363081Y-124090342D01*
X126313676Y-124139748D01*
X126286805Y-124150566D01*
X126280006Y-124152415D01*
X126177235Y-124197793D01*
X126097794Y-124277234D01*
X126052415Y-124380006D01*
X126052415Y-124380008D01*
X126052415Y-124380009D01*
X126049500Y-124405135D01*
X126049500Y-127347275D01*
X126049501Y-130175500D01*
X126029816Y-130242539D01*
X125977012Y-130288294D01*
X125925501Y-130299500D01*
X124974500Y-130299500D01*
X124907461Y-130279815D01*
X124861706Y-130227011D01*
X124850500Y-130175500D01*
X124850500Y-128598384D01*
X124850499Y-127020810D01*
X124870184Y-126953772D01*
X124922988Y-126908017D01*
X124990681Y-126897872D01*
X125050000Y-126905682D01*
X125206762Y-126885044D01*
X125352841Y-126824536D01*
X125478282Y-126728282D01*
X125574536Y-126602841D01*
X125635044Y-126456762D01*
X125655177Y-126303835D01*
X125655682Y-126300001D01*
X125655682Y-126299998D01*
X125635044Y-126143239D01*
X125635044Y-126143238D01*
X125574536Y-125997159D01*
X125478282Y-125871718D01*
X125352841Y-125775464D01*
X125298883Y-125753114D01*
X125206762Y-125714956D01*
X125206760Y-125714955D01*
X125050001Y-125694318D01*
X125049999Y-125694318D01*
X124990684Y-125702127D01*
X124921649Y-125691361D01*
X124869393Y-125644981D01*
X124850499Y-125579188D01*
X124850499Y-124405143D01*
X124850499Y-124405137D01*
X124850499Y-124405136D01*
X124849995Y-124400788D01*
X124847586Y-124380012D01*
X124847585Y-124380010D01*
X124847585Y-124380009D01*
X124802206Y-124277235D01*
X124722765Y-124197794D01*
X124713880Y-124193871D01*
X124631436Y-124157468D01*
X124578060Y-124112382D01*
X124557533Y-124045596D01*
X124576372Y-123978314D01*
X124606600Y-123945229D01*
X124614134Y-123939516D01*
X124701420Y-123824413D01*
X124754415Y-123690028D01*
X124764556Y-123605582D01*
X124764556Y-123023294D01*
X124754415Y-122938848D01*
X124701420Y-122804463D01*
X124701419Y-122804462D01*
X124701419Y-122804461D01*
X124658015Y-122747225D01*
X124633191Y-122681913D01*
X124647619Y-122613550D01*
X124696716Y-122563838D01*
X124756818Y-122548299D01*
X125590647Y-122548299D01*
X125594338Y-122548078D01*
X125594351Y-122548299D01*
G37*
%TD.AperFunction*%
%TA.AperFunction,Conductor*%
G36*
X116988224Y-126812492D02*
G01*
X116998804Y-126824702D01*
X117074921Y-126925078D01*
X117190023Y-127012363D01*
X117190024Y-127012363D01*
X117190025Y-127012364D01*
X117324410Y-127065359D01*
X117408856Y-127075500D01*
X117776177Y-127075500D01*
X117843216Y-127095185D01*
X117863858Y-127111819D01*
X117938181Y-127186142D01*
X117971666Y-127247465D01*
X117974500Y-127273823D01*
X117974500Y-127672992D01*
X118004519Y-127785028D01*
X118033515Y-127835250D01*
X118062512Y-127885473D01*
X118879527Y-128702488D01*
X118979973Y-128760481D01*
X119092007Y-128790500D01*
X119092009Y-128790500D01*
X120657991Y-128790500D01*
X120657993Y-128790500D01*
X120770027Y-128760481D01*
X120870473Y-128702488D01*
X121481142Y-128091819D01*
X121542465Y-128058334D01*
X121568823Y-128055500D01*
X121723382Y-128055500D01*
X121752764Y-128059031D01*
X122054883Y-128132718D01*
X122115348Y-128167726D01*
X122147288Y-128229868D01*
X122149500Y-128253186D01*
X122149500Y-129550500D01*
X122129815Y-129617539D01*
X122077011Y-129663294D01*
X122025500Y-129674500D01*
X118547268Y-129674500D01*
X118481590Y-129692098D01*
X118411740Y-129690434D01*
X118353879Y-129651271D01*
X118326376Y-129587042D01*
X118325499Y-129572337D01*
X118325499Y-129027128D01*
X118319091Y-128967517D01*
X118310847Y-128945415D01*
X118268797Y-128832671D01*
X118268793Y-128832664D01*
X118182547Y-128717455D01*
X118182544Y-128717452D01*
X118067335Y-128631206D01*
X118067328Y-128631202D01*
X117932482Y-128580908D01*
X117932483Y-128580908D01*
X117872883Y-128574501D01*
X117872881Y-128574500D01*
X117872873Y-128574500D01*
X117872865Y-128574500D01*
X117480847Y-128574500D01*
X117413808Y-128554815D01*
X117368053Y-128502011D01*
X117366286Y-128497953D01*
X117347587Y-128452809D01*
X117324536Y-128397159D01*
X117228282Y-128271718D01*
X117102841Y-128175464D01*
X117082146Y-128166892D01*
X117034784Y-128147274D01*
X116956762Y-128114956D01*
X116933313Y-128111868D01*
X116869417Y-128083602D01*
X116830947Y-128025277D01*
X116825500Y-127988930D01*
X116825500Y-127508862D01*
X116825500Y-127508856D01*
X116815359Y-127424410D01*
X116762364Y-127290025D01*
X116762363Y-127290024D01*
X116762363Y-127290023D01*
X116678561Y-127179515D01*
X116675078Y-127174922D01*
X116675077Y-127174921D01*
X116665636Y-127167761D01*
X116624113Y-127111569D01*
X116619562Y-127041847D01*
X116653427Y-126980734D01*
X116665637Y-126970154D01*
X116725078Y-126925078D01*
X116768862Y-126867341D01*
X116801196Y-126824701D01*
X116857389Y-126783178D01*
X116927110Y-126778627D01*
X116988224Y-126812492D01*
G37*
%TD.AperFunction*%
%TA.AperFunction,Conductor*%
G36*
X112637551Y-126071144D02*
G01*
X112637563Y-126071103D01*
X112645412Y-126073206D01*
X112645414Y-126073207D01*
X112747274Y-126100500D01*
X112747276Y-126100500D01*
X112852726Y-126100500D01*
X112852728Y-126100500D01*
X112954588Y-126073207D01*
X112954589Y-126073206D01*
X112962439Y-126071103D01*
X112962930Y-126072936D01*
X113022015Y-126066583D01*
X113037551Y-126071143D01*
X113037562Y-126071103D01*
X113045411Y-126073206D01*
X113045413Y-126073207D01*
X113147273Y-126100500D01*
X113147275Y-126100500D01*
X113175500Y-126100500D01*
X113242539Y-126120185D01*
X113288294Y-126172989D01*
X113299500Y-126224500D01*
X113299500Y-126252727D01*
X113326793Y-126354587D01*
X113326794Y-126354588D01*
X113328897Y-126362437D01*
X113327066Y-126362927D01*
X113333413Y-126422032D01*
X113328856Y-126437551D01*
X113328896Y-126437562D01*
X113320920Y-126467330D01*
X113299500Y-126547272D01*
X113299500Y-126652726D01*
X113326793Y-126754586D01*
X113326794Y-126754587D01*
X113328897Y-126762436D01*
X113327065Y-126762926D01*
X113333417Y-126822020D01*
X113328856Y-126837553D01*
X113328897Y-126837564D01*
X113326794Y-126845412D01*
X113326793Y-126845414D01*
X113299500Y-126947274D01*
X113299500Y-127052728D01*
X113326793Y-127154588D01*
X113326794Y-127154589D01*
X113328897Y-127162438D01*
X113327066Y-127162928D01*
X113333413Y-127222033D01*
X113328856Y-127237552D01*
X113328896Y-127237563D01*
X113300870Y-127342159D01*
X113299500Y-127347273D01*
X113299500Y-127452727D01*
X113326793Y-127554587D01*
X113326794Y-127554588D01*
X113328897Y-127562437D01*
X113327066Y-127562927D01*
X113333413Y-127622032D01*
X113328856Y-127637551D01*
X113328896Y-127637562D01*
X113317683Y-127679411D01*
X113299500Y-127747272D01*
X113299500Y-127852726D01*
X113326793Y-127954586D01*
X113326794Y-127954587D01*
X113328897Y-127962436D01*
X113327065Y-127962926D01*
X113333417Y-128022020D01*
X113328856Y-128037553D01*
X113328897Y-128037564D01*
X113326794Y-128045412D01*
X113326793Y-128045414D01*
X113299500Y-128147274D01*
X113299500Y-128252728D01*
X113313595Y-128305329D01*
X113326793Y-128354587D01*
X113326794Y-128354590D01*
X113379521Y-128445915D01*
X113445106Y-128511500D01*
X113478591Y-128572823D01*
X113476763Y-128598384D01*
X113533728Y-128577137D01*
X113574664Y-128581045D01*
X113647273Y-128600501D01*
X113847273Y-128600501D01*
X113874918Y-128600501D01*
X113941957Y-128620186D01*
X113987712Y-128672990D01*
X113997656Y-128742148D01*
X113977855Y-128789153D01*
X113979528Y-128790119D01*
X113975465Y-128797156D01*
X113914956Y-128943237D01*
X113914955Y-128943239D01*
X113894318Y-129099998D01*
X113894318Y-129100004D01*
X113896355Y-129115479D01*
X113885588Y-129184514D01*
X113839207Y-129236769D01*
X113771938Y-129255653D01*
X113705138Y-129235171D01*
X113685735Y-129219343D01*
X113636819Y-129170427D01*
X113603334Y-129109104D01*
X113600500Y-129082746D01*
X113600500Y-129047277D01*
X113600500Y-129047275D01*
X113573207Y-128945415D01*
X113520480Y-128854089D01*
X113454893Y-128788502D01*
X113421408Y-128727179D01*
X113423235Y-128701617D01*
X113366271Y-128722865D01*
X113325333Y-128718956D01*
X113252728Y-128699502D01*
X113252727Y-128699502D01*
X113147273Y-128699502D01*
X113037563Y-128728898D01*
X113037073Y-128727069D01*
X112977960Y-128733414D01*
X112962448Y-128728859D01*
X112962438Y-128728899D01*
X112954589Y-128726796D01*
X112954588Y-128726795D01*
X112852728Y-128699502D01*
X112747274Y-128699502D01*
X112645414Y-128726795D01*
X112645412Y-128726796D01*
X112637564Y-128728899D01*
X112637073Y-128727067D01*
X112577980Y-128733419D01*
X112562446Y-128728858D01*
X112562436Y-128728899D01*
X112554587Y-128726796D01*
X112554586Y-128726795D01*
X112452726Y-128699502D01*
X112347272Y-128699502D01*
X112237562Y-128728898D01*
X112237072Y-128727069D01*
X112177959Y-128733414D01*
X112162447Y-128728859D01*
X112162437Y-128728899D01*
X112154588Y-128726796D01*
X112154587Y-128726795D01*
X112052727Y-128699502D01*
X111947273Y-128699502D01*
X111837563Y-128728898D01*
X111837073Y-128727069D01*
X111777960Y-128733414D01*
X111762448Y-128728859D01*
X111762438Y-128728899D01*
X111754589Y-128726796D01*
X111754588Y-128726795D01*
X111652728Y-128699502D01*
X111547274Y-128699502D01*
X111445414Y-128726795D01*
X111445412Y-128726796D01*
X111437564Y-128728899D01*
X111437073Y-128727067D01*
X111377980Y-128733419D01*
X111362446Y-128728858D01*
X111362436Y-128728899D01*
X111354587Y-128726796D01*
X111354586Y-128726795D01*
X111252726Y-128699502D01*
X111147272Y-128699502D01*
X111037562Y-128728898D01*
X111037072Y-128727069D01*
X110977959Y-128733414D01*
X110962447Y-128728859D01*
X110962437Y-128728899D01*
X110954588Y-128726796D01*
X110954587Y-128726795D01*
X110852727Y-128699502D01*
X110824500Y-128699502D01*
X110757461Y-128679817D01*
X110711706Y-128627013D01*
X110700500Y-128575502D01*
X110700500Y-128547275D01*
X110700500Y-128547273D01*
X110673207Y-128445413D01*
X110620480Y-128354087D01*
X110554073Y-128287680D01*
X110520588Y-128226357D01*
X110525572Y-128156665D01*
X110554069Y-128112322D01*
X110620480Y-128045912D01*
X110673207Y-127954586D01*
X110700500Y-127852726D01*
X110700500Y-127747272D01*
X110673207Y-127645412D01*
X110673206Y-127645410D01*
X110671103Y-127637561D01*
X110672934Y-127637070D01*
X110666584Y-127577976D01*
X110671144Y-127562449D01*
X110671103Y-127562438D01*
X110673529Y-127553385D01*
X110700500Y-127452727D01*
X110700500Y-127347273D01*
X110673207Y-127245413D01*
X110673206Y-127245411D01*
X110671103Y-127237562D01*
X110672934Y-127237071D01*
X110666584Y-127177977D01*
X110671144Y-127162450D01*
X110671103Y-127162439D01*
X110679431Y-127131358D01*
X110700500Y-127052728D01*
X110700500Y-126947274D01*
X110673207Y-126845414D01*
X110673206Y-126845412D01*
X110671103Y-126837563D01*
X110672935Y-126837071D01*
X110666581Y-126777988D01*
X110671144Y-126762448D01*
X110671103Y-126762437D01*
X110673207Y-126754586D01*
X110700500Y-126652726D01*
X110700500Y-126547272D01*
X110673207Y-126445412D01*
X110673206Y-126445410D01*
X110671103Y-126437561D01*
X110672934Y-126437070D01*
X110666584Y-126377976D01*
X110671144Y-126362449D01*
X110671103Y-126362438D01*
X110673207Y-126354587D01*
X110700500Y-126252727D01*
X110700500Y-126224500D01*
X110720185Y-126157461D01*
X110772989Y-126111706D01*
X110824500Y-126100500D01*
X110852725Y-126100500D01*
X110852727Y-126100500D01*
X110954587Y-126073207D01*
X110954588Y-126073206D01*
X110962438Y-126071103D01*
X110962929Y-126072936D01*
X111022014Y-126066583D01*
X111037550Y-126071143D01*
X111037561Y-126071103D01*
X111045410Y-126073206D01*
X111045412Y-126073207D01*
X111147272Y-126100500D01*
X111147274Y-126100500D01*
X111252724Y-126100500D01*
X111252726Y-126100500D01*
X111354586Y-126073207D01*
X111354587Y-126073206D01*
X111362437Y-126071103D01*
X111362928Y-126072935D01*
X111422012Y-126066581D01*
X111437551Y-126071144D01*
X111437563Y-126071103D01*
X111445412Y-126073206D01*
X111445414Y-126073207D01*
X111547274Y-126100500D01*
X111547276Y-126100500D01*
X111652726Y-126100500D01*
X111652728Y-126100500D01*
X111754588Y-126073207D01*
X111754589Y-126073206D01*
X111762439Y-126071103D01*
X111762930Y-126072936D01*
X111822015Y-126066583D01*
X111837551Y-126071143D01*
X111837562Y-126071103D01*
X111845411Y-126073206D01*
X111845413Y-126073207D01*
X111947273Y-126100500D01*
X111947275Y-126100500D01*
X112052725Y-126100500D01*
X112052727Y-126100500D01*
X112154587Y-126073207D01*
X112154588Y-126073206D01*
X112162438Y-126071103D01*
X112162929Y-126072936D01*
X112222014Y-126066583D01*
X112237550Y-126071143D01*
X112237561Y-126071103D01*
X112245410Y-126073206D01*
X112245412Y-126073207D01*
X112347272Y-126100500D01*
X112347274Y-126100500D01*
X112452724Y-126100500D01*
X112452726Y-126100500D01*
X112554586Y-126073207D01*
X112554587Y-126073206D01*
X112562437Y-126071103D01*
X112562928Y-126072935D01*
X112622012Y-126066581D01*
X112637551Y-126071144D01*
G37*
%TD.AperFunction*%
%TA.AperFunction,Conductor*%
G36*
X135286093Y-118769856D02*
G01*
X135339543Y-118814854D01*
X135352375Y-118840038D01*
X135381203Y-118917330D01*
X135381206Y-118917335D01*
X135467452Y-119032544D01*
X135467455Y-119032547D01*
X135582664Y-119118793D01*
X135582671Y-119118797D01*
X135624926Y-119134557D01*
X135717517Y-119169091D01*
X135777127Y-119175500D01*
X136052728Y-119175499D01*
X136119766Y-119195183D01*
X136165521Y-119247987D01*
X136175663Y-119283288D01*
X136175795Y-119284289D01*
X136165044Y-119353326D01*
X136118675Y-119405592D01*
X136052859Y-119424500D01*
X135777130Y-119424500D01*
X135777123Y-119424501D01*
X135717516Y-119430908D01*
X135582671Y-119481202D01*
X135582664Y-119481206D01*
X135467455Y-119567452D01*
X135467452Y-119567455D01*
X135381206Y-119682664D01*
X135381202Y-119682671D01*
X135334099Y-119808963D01*
X135330909Y-119817517D01*
X135324500Y-119877127D01*
X135324500Y-119877134D01*
X135324500Y-119877135D01*
X135324500Y-120372870D01*
X135324501Y-120372876D01*
X135330908Y-120432483D01*
X135381202Y-120567328D01*
X135381206Y-120567335D01*
X135467452Y-120682544D01*
X135467455Y-120682547D01*
X135582664Y-120768793D01*
X135582671Y-120768797D01*
X135627618Y-120785561D01*
X135717517Y-120819091D01*
X135777127Y-120825500D01*
X136422872Y-120825499D01*
X136482483Y-120819091D01*
X136617331Y-120768796D01*
X136626186Y-120762166D01*
X136691649Y-120737747D01*
X136759923Y-120752596D01*
X136809330Y-120802000D01*
X136824500Y-120861431D01*
X136824500Y-120991144D01*
X136828679Y-121025943D01*
X136834640Y-121075588D01*
X136887636Y-121209976D01*
X136974921Y-121325078D01*
X137090023Y-121412363D01*
X137090024Y-121412363D01*
X137090025Y-121412364D01*
X137224410Y-121465359D01*
X137308856Y-121475500D01*
X137308862Y-121475500D01*
X137891138Y-121475500D01*
X137891144Y-121475500D01*
X137975590Y-121465359D01*
X138109975Y-121412364D01*
X138225078Y-121325078D01*
X138312364Y-121209975D01*
X138365359Y-121075590D01*
X138375500Y-120991144D01*
X138375500Y-120458856D01*
X138365359Y-120374410D01*
X138312364Y-120240025D01*
X138312363Y-120240024D01*
X138312363Y-120240023D01*
X138225078Y-120124921D01*
X138109976Y-120037636D01*
X137975588Y-119984640D01*
X137932242Y-119979435D01*
X137891144Y-119974500D01*
X137891138Y-119974500D01*
X137523823Y-119974500D01*
X137456784Y-119954815D01*
X137436142Y-119938181D01*
X137268751Y-119770790D01*
X137235266Y-119709467D01*
X137240250Y-119639775D01*
X137258050Y-119607632D01*
X137301293Y-119551278D01*
X137301294Y-119551273D01*
X137301296Y-119551272D01*
X137330319Y-119481202D01*
X137361801Y-119405199D01*
X137379726Y-119269040D01*
X137407992Y-119205145D01*
X137466317Y-119166674D01*
X137536181Y-119165843D01*
X137546971Y-119170153D01*
X137547029Y-119169988D01*
X137555798Y-119173056D01*
X137555799Y-119173057D01*
X137683271Y-119217662D01*
X137713537Y-119220500D01*
X138116462Y-119220499D01*
X138146729Y-119217662D01*
X138274201Y-119173057D01*
X138326367Y-119134556D01*
X138391995Y-119110586D01*
X138460165Y-119125901D01*
X138473626Y-119134552D01*
X138525799Y-119173057D01*
X138653271Y-119217662D01*
X138683537Y-119220500D01*
X138831175Y-119220499D01*
X138898215Y-119240183D01*
X138918857Y-119256818D01*
X138932512Y-119270473D01*
X139014527Y-119352488D01*
X139056399Y-119376663D01*
X139114973Y-119410481D01*
X139227006Y-119440500D01*
X139227007Y-119440500D01*
X142065925Y-119440500D01*
X142132964Y-119460185D01*
X142153606Y-119476819D01*
X142160369Y-119483582D01*
X142193854Y-119544905D01*
X142188870Y-119614597D01*
X142183174Y-119627556D01*
X142181335Y-119631164D01*
X142125377Y-119803389D01*
X142097048Y-119982248D01*
X142097048Y-120163351D01*
X142125377Y-120342210D01*
X142181335Y-120514436D01*
X142181336Y-120514439D01*
X142263554Y-120675797D01*
X142369989Y-120822294D01*
X142369993Y-120822299D01*
X142498048Y-120950354D01*
X142498053Y-120950358D01*
X142602088Y-121025943D01*
X142644554Y-121056796D01*
X142750032Y-121110540D01*
X142805908Y-121139011D01*
X142805911Y-121139012D01*
X142890439Y-121166476D01*
X142978139Y-121194971D01*
X143002839Y-121198883D01*
X143011954Y-121200327D01*
X143075088Y-121230257D01*
X143112019Y-121289568D01*
X143111021Y-121359431D01*
X143072411Y-121417663D01*
X143011954Y-121445273D01*
X142978137Y-121450629D01*
X142805911Y-121506587D01*
X142805908Y-121506588D01*
X142644550Y-121588806D01*
X142498053Y-121695241D01*
X142498048Y-121695245D01*
X142369993Y-121823300D01*
X142369989Y-121823305D01*
X142263554Y-121969802D01*
X142181336Y-122131160D01*
X142181335Y-122131163D01*
X142125377Y-122303389D01*
X142097048Y-122482248D01*
X142097048Y-122663351D01*
X142125377Y-122842210D01*
X142181335Y-123014436D01*
X142181336Y-123014439D01*
X142234508Y-123118793D01*
X142263402Y-123175500D01*
X142263554Y-123175797D01*
X142369989Y-123322294D01*
X142369993Y-123322299D01*
X142498048Y-123450354D01*
X142498053Y-123450358D01*
X142607422Y-123529818D01*
X142644554Y-123556796D01*
X142729344Y-123599999D01*
X142805908Y-123639011D01*
X142805911Y-123639012D01*
X142933197Y-123680369D01*
X142990872Y-123719806D01*
X143018071Y-123784164D01*
X143006157Y-123853011D01*
X142958913Y-123904487D01*
X142894879Y-123922300D01*
X142604446Y-123922300D01*
X142565401Y-123926988D01*
X142515986Y-123932922D01*
X142375204Y-123988439D01*
X142254624Y-124079878D01*
X142216632Y-124129977D01*
X142160439Y-124171499D01*
X142090718Y-124176050D01*
X142029604Y-124142183D01*
X142019454Y-124130536D01*
X141928283Y-124011719D01*
X141928282Y-124011718D01*
X141802841Y-123915464D01*
X141772366Y-123902841D01*
X141741682Y-123890131D01*
X141656762Y-123854956D01*
X141614880Y-123849442D01*
X141499904Y-123834305D01*
X141436008Y-123806038D01*
X141397537Y-123747714D01*
X141393151Y-123695180D01*
X141393830Y-123690028D01*
X141405682Y-123600000D01*
X141404797Y-123593280D01*
X141388097Y-123466426D01*
X141385044Y-123443238D01*
X141324536Y-123297159D01*
X141228282Y-123171718D01*
X141102841Y-123075464D01*
X141078445Y-123065359D01*
X140956762Y-123014956D01*
X140956760Y-123014955D01*
X140800001Y-122994318D01*
X140799999Y-122994318D01*
X140643239Y-123014955D01*
X140643237Y-123014956D01*
X140497160Y-123075463D01*
X140371718Y-123171718D01*
X140275463Y-123297160D01*
X140214956Y-123443237D01*
X140214955Y-123443239D01*
X140194318Y-123599998D01*
X140194318Y-123600001D01*
X140214955Y-123756760D01*
X140214956Y-123756762D01*
X140272737Y-123896259D01*
X140275464Y-123902841D01*
X140371718Y-124028282D01*
X140497159Y-124124536D01*
X140643238Y-124185044D01*
X140800000Y-124205682D01*
X140800001Y-124205681D01*
X140800094Y-124205694D01*
X140863991Y-124233960D01*
X140902462Y-124292285D01*
X140906848Y-124344818D01*
X140893855Y-124443512D01*
X140865589Y-124507409D01*
X140858597Y-124515008D01*
X140233655Y-125139950D01*
X140172332Y-125173435D01*
X140132724Y-125175559D01*
X140129811Y-125175245D01*
X140122873Y-125174500D01*
X140122870Y-125174500D01*
X139627129Y-125174500D01*
X139627123Y-125174501D01*
X139567516Y-125180908D01*
X139432671Y-125231202D01*
X139432664Y-125231206D01*
X139317455Y-125317452D01*
X139317452Y-125317455D01*
X139231206Y-125432664D01*
X139231202Y-125432671D01*
X139188903Y-125546083D01*
X139180909Y-125567517D01*
X139174500Y-125627127D01*
X139174500Y-125627134D01*
X139174500Y-125627135D01*
X139174500Y-126272870D01*
X139174501Y-126272876D01*
X139180908Y-126332483D01*
X139231202Y-126467328D01*
X139231203Y-126467330D01*
X139251310Y-126494189D01*
X139275727Y-126559653D01*
X139260876Y-126627926D01*
X139211471Y-126677332D01*
X139152043Y-126692500D01*
X138947957Y-126692500D01*
X138880918Y-126672815D01*
X138835163Y-126620011D01*
X138825219Y-126550853D01*
X138848690Y-126494189D01*
X138868796Y-126467331D01*
X138919091Y-126332483D01*
X138925500Y-126272873D01*
X138925499Y-125627128D01*
X138919091Y-125567517D01*
X138908759Y-125539816D01*
X138868797Y-125432671D01*
X138868793Y-125432664D01*
X138782547Y-125317455D01*
X138782544Y-125317452D01*
X138667335Y-125231206D01*
X138667328Y-125231202D01*
X138532482Y-125180908D01*
X138532483Y-125180908D01*
X138472883Y-125174501D01*
X138472881Y-125174500D01*
X138472873Y-125174500D01*
X138472865Y-125174500D01*
X138067255Y-125174500D01*
X138000216Y-125154815D01*
X137979574Y-125138181D01*
X137936692Y-125095299D01*
X137903207Y-125033976D01*
X137900373Y-125007618D01*
X137900373Y-124973013D01*
X137920058Y-124905974D01*
X137925997Y-124897526D01*
X137928152Y-124894716D01*
X137928155Y-124894715D01*
X138024409Y-124769274D01*
X138084917Y-124623195D01*
X138105555Y-124466433D01*
X138102537Y-124443512D01*
X138084917Y-124309672D01*
X138084917Y-124309671D01*
X138024409Y-124163592D01*
X137928155Y-124038151D01*
X137802714Y-123941897D01*
X137781046Y-123932922D01*
X137656635Y-123881389D01*
X137656633Y-123881388D01*
X137499874Y-123860751D01*
X137499872Y-123860751D01*
X137343112Y-123881388D01*
X137343110Y-123881389D01*
X137197033Y-123941896D01*
X137071591Y-124038151D01*
X136975336Y-124163593D01*
X136914829Y-124309670D01*
X136914828Y-124309672D01*
X136894191Y-124466431D01*
X136894191Y-124466434D01*
X136914828Y-124623193D01*
X136914829Y-124623195D01*
X136975337Y-124769275D01*
X136985410Y-124782402D01*
X137010604Y-124847572D01*
X136996565Y-124916016D01*
X136947751Y-124966006D01*
X136879660Y-124981669D01*
X136872249Y-124981003D01*
X136818099Y-124974500D01*
X134931088Y-124974500D01*
X134864049Y-124954815D01*
X134818294Y-124902011D01*
X134808350Y-124832853D01*
X134825661Y-124785222D01*
X134831703Y-124775464D01*
X134842418Y-124758159D01*
X134863048Y-124647800D01*
X134863048Y-123413154D01*
X134882733Y-123346115D01*
X134935537Y-123300360D01*
X135004695Y-123290416D01*
X135062534Y-123314778D01*
X135069613Y-123320210D01*
X135215692Y-123380718D01*
X135275942Y-123388650D01*
X135372453Y-123401356D01*
X135372454Y-123401356D01*
X135372455Y-123401356D01*
X135451936Y-123390892D01*
X135529216Y-123380718D01*
X135675295Y-123320210D01*
X135800736Y-123223956D01*
X135896990Y-123098515D01*
X135957498Y-122952436D01*
X135978136Y-122795674D01*
X135976399Y-122782483D01*
X135957498Y-122638913D01*
X135957498Y-122638912D01*
X135896990Y-122492833D01*
X135896989Y-122492832D01*
X135896989Y-122492831D01*
X135803302Y-122370736D01*
X135778108Y-122305567D01*
X135792146Y-122237122D01*
X135803304Y-122219762D01*
X135803545Y-122219447D01*
X135812647Y-122207586D01*
X135873155Y-122061507D01*
X135893793Y-121904745D01*
X135889465Y-121871874D01*
X135873155Y-121747984D01*
X135873155Y-121747983D01*
X135812647Y-121601904D01*
X135716393Y-121476463D01*
X135590952Y-121380209D01*
X135575672Y-121373880D01*
X135444873Y-121319701D01*
X135444871Y-121319700D01*
X135288112Y-121299063D01*
X135288110Y-121299063D01*
X135131350Y-121319700D01*
X135131348Y-121319701D01*
X134985271Y-121380208D01*
X134951254Y-121406310D01*
X134859829Y-121476463D01*
X134859828Y-121476464D01*
X134859827Y-121476465D01*
X134835423Y-121508269D01*
X134778995Y-121549471D01*
X134709249Y-121553626D01*
X134648329Y-121519413D01*
X134615577Y-121457696D01*
X134613048Y-121432782D01*
X134613048Y-120118297D01*
X134632733Y-120051258D01*
X134652306Y-120029985D01*
X134651387Y-120029066D01*
X134657132Y-120023320D01*
X134657135Y-120023319D01*
X134679466Y-120000986D01*
X134691645Y-119990306D01*
X134716701Y-119971082D01*
X134735925Y-119946026D01*
X134746605Y-119933847D01*
X134768938Y-119911516D01*
X134784722Y-119884176D01*
X134793726Y-119870699D01*
X134812955Y-119845641D01*
X134825038Y-119816468D01*
X134832206Y-119801931D01*
X134847996Y-119774585D01*
X134856166Y-119744090D01*
X134861380Y-119728733D01*
X134869360Y-119709467D01*
X134873463Y-119699562D01*
X134877584Y-119668255D01*
X134880744Y-119652364D01*
X134888919Y-119621857D01*
X134888919Y-119590287D01*
X134889980Y-119574101D01*
X134890137Y-119572913D01*
X134894101Y-119542800D01*
X134892497Y-119530619D01*
X134889980Y-119511497D01*
X134888919Y-119495312D01*
X134888919Y-119463745D01*
X134888919Y-119463743D01*
X134880743Y-119433232D01*
X134877584Y-119417346D01*
X134873463Y-119386038D01*
X134861378Y-119356863D01*
X134856166Y-119341508D01*
X134852315Y-119327134D01*
X134847996Y-119311015D01*
X134832207Y-119283668D01*
X134825037Y-119269130D01*
X134812955Y-119239959D01*
X134812952Y-119239956D01*
X134812952Y-119239954D01*
X134808891Y-119232919D01*
X134811577Y-119231367D01*
X134791677Y-119179903D01*
X134805710Y-119111457D01*
X134832714Y-119077030D01*
X135153666Y-118790823D01*
X135216800Y-118760898D01*
X135286093Y-118769856D01*
G37*
%TD.AperFunction*%
%TA.AperFunction,Conductor*%
G36*
X112178250Y-120378183D02*
G01*
X112184728Y-120384215D01*
X112328670Y-120528157D01*
X112357441Y-120580848D01*
X112359348Y-120580229D01*
X112362363Y-120589508D01*
X112362365Y-120589513D01*
X112362366Y-120589515D01*
X112418533Y-120699750D01*
X112432048Y-120756043D01*
X112432048Y-121318629D01*
X112412363Y-121385668D01*
X112395729Y-121406310D01*
X112313858Y-121488181D01*
X112252535Y-121521666D01*
X112226177Y-121524500D01*
X111858856Y-121524500D01*
X111820841Y-121529065D01*
X111774411Y-121534640D01*
X111640023Y-121587636D01*
X111524921Y-121674921D01*
X111437636Y-121790023D01*
X111384639Y-121924415D01*
X111384535Y-121925286D01*
X111384252Y-121925944D01*
X111382691Y-121932122D01*
X111381709Y-121931873D01*
X111356997Y-121989500D01*
X111299114Y-122028632D01*
X111261420Y-122034500D01*
X111182236Y-122034500D01*
X111115197Y-122014815D01*
X111082969Y-121984811D01*
X111032546Y-121917454D01*
X110971662Y-121871876D01*
X110917335Y-121831206D01*
X110917328Y-121831202D01*
X110782486Y-121780910D01*
X110782485Y-121780909D01*
X110782483Y-121780909D01*
X110722873Y-121774500D01*
X110722863Y-121774500D01*
X110077129Y-121774500D01*
X110077123Y-121774501D01*
X110017516Y-121780908D01*
X109882671Y-121831202D01*
X109882664Y-121831206D01*
X109767455Y-121917452D01*
X109767452Y-121917455D01*
X109681206Y-122032664D01*
X109681202Y-122032671D01*
X109630910Y-122167513D01*
X109630909Y-122167517D01*
X109624500Y-122227127D01*
X109624500Y-122227134D01*
X109624500Y-122227135D01*
X109624500Y-122722870D01*
X109624501Y-122722876D01*
X109630908Y-122782483D01*
X109681202Y-122917328D01*
X109681206Y-122917335D01*
X109767452Y-123032544D01*
X109767455Y-123032547D01*
X109882664Y-123118793D01*
X109882671Y-123118797D01*
X109927618Y-123135561D01*
X110017517Y-123169091D01*
X110077127Y-123175500D01*
X110722872Y-123175499D01*
X110782483Y-123169091D01*
X110917331Y-123118796D01*
X111032546Y-123032546D01*
X111082970Y-122965188D01*
X111138903Y-122923318D01*
X111182236Y-122915500D01*
X111470593Y-122915500D01*
X111537632Y-122935185D01*
X111545513Y-122940693D01*
X111558599Y-122950616D01*
X111640023Y-123012363D01*
X111640024Y-123012363D01*
X111640025Y-123012364D01*
X111774410Y-123065359D01*
X111858856Y-123075500D01*
X111858862Y-123075500D01*
X112391138Y-123075500D01*
X112391144Y-123075500D01*
X112475590Y-123065359D01*
X112609975Y-123012364D01*
X112725078Y-122925078D01*
X112801196Y-122824701D01*
X112857389Y-122783178D01*
X112927110Y-122778627D01*
X112988224Y-122812492D01*
X112998804Y-122824702D01*
X113074921Y-122925078D01*
X113190023Y-123012363D01*
X113190024Y-123012363D01*
X113190025Y-123012364D01*
X113324410Y-123065359D01*
X113408856Y-123075500D01*
X113408862Y-123075500D01*
X113941138Y-123075500D01*
X113941144Y-123075500D01*
X114025590Y-123065359D01*
X114159975Y-123012364D01*
X114275078Y-122925078D01*
X114362364Y-122809975D01*
X114415359Y-122675590D01*
X114425500Y-122591144D01*
X114425500Y-122499338D01*
X114445185Y-122432299D01*
X114497989Y-122386544D01*
X114567147Y-122376600D01*
X114624426Y-122400535D01*
X114640023Y-122412363D01*
X114640024Y-122412363D01*
X114640025Y-122412364D01*
X114774410Y-122465359D01*
X114858856Y-122475500D01*
X114858862Y-122475500D01*
X115391143Y-122475500D01*
X115391144Y-122475500D01*
X115445984Y-122468914D01*
X115514890Y-122480464D01*
X115559143Y-122516542D01*
X115564508Y-122523534D01*
X115616733Y-122591596D01*
X115617419Y-122592489D01*
X115742860Y-122688743D01*
X115854199Y-122734861D01*
X115908602Y-122778702D01*
X115930667Y-122844996D01*
X115929861Y-122864205D01*
X115924500Y-122908856D01*
X115924500Y-122908861D01*
X115924500Y-123332745D01*
X115904815Y-123399784D01*
X115888181Y-123420426D01*
X115585426Y-123723181D01*
X115524103Y-123756666D01*
X115497745Y-123759500D01*
X114121587Y-123759500D01*
X114019727Y-123786793D01*
X114012236Y-123789896D01*
X113942767Y-123797362D01*
X113880288Y-123766085D01*
X113854943Y-123729579D01*
X113854334Y-123729931D01*
X113850274Y-123722898D01*
X113850271Y-123722894D01*
X113754017Y-123597453D01*
X113628576Y-123501199D01*
X113482497Y-123440691D01*
X113482495Y-123440690D01*
X113325736Y-123420053D01*
X113325734Y-123420053D01*
X113168974Y-123440690D01*
X113168972Y-123440691D01*
X113022895Y-123501198D01*
X112897450Y-123597455D01*
X112851368Y-123657511D01*
X112794940Y-123698714D01*
X112725194Y-123702868D01*
X112664274Y-123668655D01*
X112654617Y-123657510D01*
X112628283Y-123623190D01*
X112604731Y-123605118D01*
X112502841Y-123526935D01*
X112473921Y-123514956D01*
X112356762Y-123466427D01*
X112356760Y-123466426D01*
X112200001Y-123445789D01*
X112199999Y-123445789D01*
X112043239Y-123466426D01*
X112043237Y-123466427D01*
X111897160Y-123526934D01*
X111817592Y-123587989D01*
X111771718Y-123623189D01*
X111690083Y-123729579D01*
X111675462Y-123748633D01*
X111645986Y-123819792D01*
X111602145Y-123874195D01*
X111535850Y-123896259D01*
X111515241Y-123895277D01*
X111400001Y-123880106D01*
X111399999Y-123880106D01*
X111300020Y-123893268D01*
X111230984Y-123882502D01*
X111178729Y-123836122D01*
X111167653Y-123813662D01*
X111164809Y-123806038D01*
X111133906Y-123723181D01*
X111118797Y-123682671D01*
X111118793Y-123682664D01*
X111032547Y-123567455D01*
X111032544Y-123567452D01*
X110917335Y-123481206D01*
X110917328Y-123481202D01*
X110782486Y-123430910D01*
X110782485Y-123430909D01*
X110782483Y-123430909D01*
X110722873Y-123424500D01*
X110722863Y-123424500D01*
X110077129Y-123424500D01*
X110077123Y-123424501D01*
X110017516Y-123430908D01*
X109882671Y-123481202D01*
X109882664Y-123481206D01*
X109767455Y-123567452D01*
X109749266Y-123591750D01*
X109693332Y-123633620D01*
X109623640Y-123638604D01*
X109562317Y-123605118D01*
X109550734Y-123591750D01*
X109550603Y-123591575D01*
X109532546Y-123567454D01*
X109532544Y-123567453D01*
X109532544Y-123567452D01*
X109417335Y-123481206D01*
X109417328Y-123481202D01*
X109282486Y-123430910D01*
X109282485Y-123430909D01*
X109282483Y-123430909D01*
X109222873Y-123424500D01*
X109222863Y-123424500D01*
X108577129Y-123424500D01*
X108577123Y-123424501D01*
X108517514Y-123430909D01*
X108467832Y-123449439D01*
X108398140Y-123454423D01*
X108336817Y-123420937D01*
X108303333Y-123359613D01*
X108300500Y-123333257D01*
X108300500Y-121323739D01*
X108320185Y-121256700D01*
X108372989Y-121210945D01*
X108442147Y-121201001D01*
X108494576Y-121221439D01*
X108499782Y-121225005D01*
X108499783Y-121225006D01*
X108602557Y-121270385D01*
X108627683Y-121273300D01*
X111717412Y-121273299D01*
X111717427Y-121273297D01*
X111717430Y-121273297D01*
X111742535Y-121270386D01*
X111742536Y-121270385D01*
X111742539Y-121270385D01*
X111845313Y-121225006D01*
X111924754Y-121145565D01*
X111970133Y-121042791D01*
X111973048Y-121017665D01*
X111973047Y-120471894D01*
X111992731Y-120404857D01*
X112045535Y-120359102D01*
X112114694Y-120349158D01*
X112178250Y-120378183D01*
G37*
%TD.AperFunction*%
%TA.AperFunction,Conductor*%
G36*
X126295517Y-119204192D02*
G01*
X126296138Y-119203291D01*
X126300493Y-119206286D01*
X126382423Y-119252874D01*
X126390657Y-119257556D01*
X126390663Y-119257558D01*
X126390667Y-119257560D01*
X126397889Y-119260167D01*
X126397895Y-119260169D01*
X126500015Y-119278317D01*
X129080172Y-119291967D01*
X129147104Y-119312006D01*
X129192579Y-119365051D01*
X129202157Y-119434261D01*
X129199582Y-119446644D01*
X129199500Y-119447274D01*
X129199500Y-120653092D01*
X129179815Y-120720131D01*
X129163181Y-120740773D01*
X128842972Y-121060981D01*
X128781649Y-121094466D01*
X128755291Y-121097300D01*
X128349677Y-121097300D01*
X128349671Y-121097301D01*
X128290064Y-121103708D01*
X128155219Y-121154002D01*
X128155212Y-121154006D01*
X128040003Y-121240252D01*
X128040000Y-121240255D01*
X127953754Y-121355464D01*
X127953750Y-121355471D01*
X127903458Y-121490313D01*
X127903457Y-121490317D01*
X127897048Y-121549927D01*
X127897048Y-121549934D01*
X127897048Y-121549935D01*
X127897048Y-122195670D01*
X127897049Y-122195676D01*
X127903456Y-122255283D01*
X127953750Y-122390128D01*
X127953754Y-122390135D01*
X128040000Y-122505344D01*
X128040001Y-122505344D01*
X128040002Y-122505346D01*
X128040968Y-122506069D01*
X128064298Y-122523534D01*
X128106168Y-122579468D01*
X128111152Y-122649160D01*
X128077666Y-122710483D01*
X128064298Y-122722066D01*
X128040000Y-122740255D01*
X127953754Y-122855464D01*
X127953751Y-122855469D01*
X127910057Y-122972619D01*
X127868185Y-123028552D01*
X127802721Y-123052969D01*
X127761791Y-123049062D01*
X127760066Y-123048600D01*
X127760060Y-123048599D01*
X127732318Y-123044946D01*
X127668423Y-123016680D01*
X127632323Y-122965340D01*
X127627509Y-122952434D01*
X127619880Y-122931979D01*
X127591346Y-122855473D01*
X127591341Y-122855464D01*
X127505095Y-122740255D01*
X127505094Y-122740254D01*
X127481880Y-122722876D01*
X127480798Y-122722066D01*
X127438927Y-122666134D01*
X127433943Y-122596442D01*
X127467428Y-122535119D01*
X127480799Y-122523533D01*
X127505094Y-122505346D01*
X127591344Y-122390131D01*
X127641639Y-122255283D01*
X127648048Y-122195673D01*
X127648047Y-121549928D01*
X127641639Y-121490317D01*
X127640842Y-121488181D01*
X127591345Y-121355471D01*
X127591341Y-121355464D01*
X127505095Y-121240255D01*
X127505092Y-121240252D01*
X127389883Y-121154006D01*
X127389876Y-121154002D01*
X127255034Y-121103710D01*
X127255033Y-121103709D01*
X127255031Y-121103709D01*
X127195421Y-121097300D01*
X127195411Y-121097300D01*
X126699677Y-121097300D01*
X126699671Y-121097301D01*
X126640064Y-121103708D01*
X126505219Y-121154002D01*
X126505212Y-121154006D01*
X126390003Y-121240252D01*
X126321313Y-121332010D01*
X126265379Y-121373880D01*
X126195687Y-121378864D01*
X126134365Y-121345378D01*
X126100880Y-121284055D01*
X126098047Y-121257698D01*
X126098047Y-119302318D01*
X126117732Y-119235279D01*
X126170536Y-119189524D01*
X126239694Y-119179580D01*
X126295517Y-119204192D01*
G37*
%TD.AperFunction*%
%TD*%
%TA.AperFunction,Conductor*%
%TO.N,GND*%
G36*
X129031516Y-90220185D02*
G01*
X129077271Y-90272989D01*
X129087215Y-90342147D01*
X129058190Y-90405703D01*
X129052158Y-90412181D01*
X129007684Y-90456654D01*
X128915643Y-90605875D01*
X128915641Y-90605880D01*
X128860494Y-90772302D01*
X128860493Y-90772309D01*
X128850000Y-90875013D01*
X128850000Y-91325000D01*
X131049999Y-91325000D01*
X131049999Y-90875028D01*
X131049998Y-90875013D01*
X131039505Y-90772302D01*
X130984358Y-90605880D01*
X130984356Y-90605875D01*
X130892315Y-90456654D01*
X130847842Y-90412181D01*
X130814357Y-90350858D01*
X130819341Y-90281166D01*
X130861213Y-90225233D01*
X130926677Y-90200816D01*
X130935523Y-90200500D01*
X140506957Y-90200500D01*
X140549898Y-90213109D01*
X140571649Y-90202360D01*
X140593043Y-90200500D01*
X147719512Y-90200500D01*
X147786551Y-90220185D01*
X147832306Y-90272989D01*
X147843512Y-90324758D01*
X147842354Y-90881273D01*
X147843612Y-90909606D01*
X147843613Y-90909616D01*
X147844946Y-90924257D01*
X147831421Y-90992805D01*
X147782982Y-91043159D01*
X147721457Y-91059499D01*
X147655901Y-91059499D01*
X147587994Y-91077695D01*
X147554040Y-91086793D01*
X147462712Y-91139522D01*
X147388146Y-91214089D01*
X144312615Y-94289618D01*
X144251292Y-94323103D01*
X144181600Y-94318119D01*
X144125667Y-94276247D01*
X144101714Y-94215820D01*
X144085369Y-94070750D01*
X144085368Y-94070745D01*
X144065765Y-94014724D01*
X144025789Y-93900478D01*
X144024067Y-93897738D01*
X143966263Y-93805743D01*
X143929816Y-93747738D01*
X143802262Y-93620184D01*
X143793426Y-93614632D01*
X143649523Y-93524211D01*
X143479254Y-93464631D01*
X143479249Y-93464630D01*
X143300004Y-93444435D01*
X143299996Y-93444435D01*
X143120750Y-93464630D01*
X143120745Y-93464631D01*
X142950476Y-93524211D01*
X142797737Y-93620184D01*
X142670182Y-93747739D01*
X142642703Y-93791473D01*
X142590369Y-93837763D01*
X142537710Y-93849500D01*
X142203476Y-93849500D01*
X142136437Y-93829815D01*
X142090682Y-93777011D01*
X142080738Y-93707853D01*
X142109763Y-93644297D01*
X142137504Y-93620506D01*
X142202262Y-93579816D01*
X142329816Y-93452262D01*
X142425789Y-93299522D01*
X142485368Y-93129255D01*
X142491392Y-93075789D01*
X142505565Y-92950003D01*
X142505565Y-92949996D01*
X142485369Y-92770750D01*
X142485368Y-92770745D01*
X142460446Y-92699522D01*
X142425789Y-92600478D01*
X142329816Y-92447738D01*
X142202262Y-92320184D01*
X142170143Y-92300002D01*
X142049523Y-92224211D01*
X141879254Y-92164631D01*
X141879249Y-92164630D01*
X141700004Y-92144435D01*
X141699996Y-92144435D01*
X141520750Y-92164630D01*
X141520745Y-92164631D01*
X141350476Y-92224211D01*
X141197737Y-92320184D01*
X141160801Y-92357120D01*
X141099478Y-92390605D01*
X141029786Y-92385619D01*
X140973853Y-92343747D01*
X140949437Y-92278283D01*
X140950183Y-92253246D01*
X140950500Y-92250839D01*
X140950500Y-92012289D01*
X140970185Y-91945250D01*
X141008529Y-91907295D01*
X141052262Y-91879816D01*
X141179816Y-91752262D01*
X141275789Y-91599522D01*
X141335368Y-91429255D01*
X141335469Y-91428361D01*
X141355565Y-91250003D01*
X141355565Y-91249996D01*
X141335369Y-91070750D01*
X141335368Y-91070745D01*
X141325628Y-91042911D01*
X141275789Y-90900478D01*
X141263720Y-90881271D01*
X141195255Y-90772309D01*
X141179816Y-90747738D01*
X141052262Y-90620184D01*
X141029497Y-90605880D01*
X140899523Y-90524211D01*
X140729254Y-90464631D01*
X140729249Y-90464630D01*
X140579160Y-90447720D01*
X140552633Y-90436573D01*
X140541892Y-90443477D01*
X140520840Y-90447720D01*
X140370750Y-90464630D01*
X140370745Y-90464631D01*
X140200476Y-90524211D01*
X140047737Y-90620184D01*
X139920184Y-90747737D01*
X139824211Y-90900476D01*
X139764631Y-91070745D01*
X139764630Y-91070750D01*
X139744435Y-91249996D01*
X139744435Y-91250003D01*
X139764630Y-91429249D01*
X139764631Y-91429254D01*
X139824211Y-91599523D01*
X139920184Y-91752262D01*
X140047739Y-91879817D01*
X140072170Y-91895168D01*
X140118460Y-91947502D01*
X140129108Y-92016556D01*
X140100733Y-92080404D01*
X140093878Y-92087842D01*
X139764728Y-92416992D01*
X139703405Y-92450477D01*
X139633713Y-92445493D01*
X139577780Y-92403621D01*
X139553363Y-92338157D01*
X139553827Y-92315427D01*
X139555565Y-92300002D01*
X139555565Y-92299996D01*
X139535369Y-92120750D01*
X139535368Y-92120745D01*
X139498911Y-92016556D01*
X139475789Y-91950478D01*
X139379816Y-91797738D01*
X139252262Y-91670184D01*
X139252260Y-91670183D01*
X139099523Y-91574211D01*
X138929254Y-91514631D01*
X138929249Y-91514630D01*
X138750004Y-91494435D01*
X138749996Y-91494435D01*
X138570750Y-91514630D01*
X138570745Y-91514631D01*
X138400476Y-91574211D01*
X138247739Y-91670183D01*
X138129838Y-91788084D01*
X138068515Y-91821568D01*
X137998823Y-91816584D01*
X137954476Y-91788083D01*
X137773571Y-91607178D01*
X137740086Y-91545855D01*
X137738032Y-91505613D01*
X137755565Y-91350002D01*
X137755565Y-91349996D01*
X137735369Y-91170750D01*
X137735368Y-91170745D01*
X137700376Y-91070745D01*
X137675789Y-91000478D01*
X137579816Y-90847738D01*
X137452262Y-90720184D01*
X137353434Y-90658086D01*
X137299523Y-90624211D01*
X137129254Y-90564631D01*
X137129249Y-90564630D01*
X136950004Y-90544435D01*
X136949996Y-90544435D01*
X136770750Y-90564630D01*
X136770745Y-90564631D01*
X136600476Y-90624211D01*
X136447737Y-90720184D01*
X136320184Y-90847737D01*
X136224211Y-91000476D01*
X136164631Y-91170745D01*
X136164630Y-91170750D01*
X136144435Y-91349996D01*
X136144435Y-91350003D01*
X136164630Y-91529249D01*
X136164631Y-91529254D01*
X136224211Y-91699523D01*
X136285924Y-91797738D01*
X136320184Y-91852262D01*
X136447738Y-91979816D01*
X136531140Y-92032221D01*
X136592070Y-92070506D01*
X136638361Y-92122841D01*
X136649009Y-92191895D01*
X136620634Y-92255743D01*
X136562244Y-92294115D01*
X136526098Y-92299500D01*
X135460689Y-92299500D01*
X135393650Y-92279815D01*
X135347895Y-92227011D01*
X135337469Y-92189385D01*
X135335369Y-92170749D01*
X135335368Y-92170745D01*
X135275788Y-92000476D01*
X135217238Y-91907295D01*
X135179816Y-91847738D01*
X135052262Y-91720184D01*
X134972686Y-91670183D01*
X134899523Y-91624211D01*
X134729254Y-91564631D01*
X134729249Y-91564630D01*
X134550004Y-91544435D01*
X134549996Y-91544435D01*
X134370750Y-91564630D01*
X134370745Y-91564631D01*
X134200476Y-91624211D01*
X134047737Y-91720184D01*
X133920184Y-91847737D01*
X133824211Y-92000476D01*
X133764631Y-92170745D01*
X133764630Y-92170750D01*
X133744435Y-92349996D01*
X133744435Y-92350003D01*
X133764630Y-92529249D01*
X133764631Y-92529254D01*
X133824211Y-92699523D01*
X133888163Y-92801301D01*
X133920184Y-92852262D01*
X134047738Y-92979816D01*
X134200478Y-93075789D01*
X134353258Y-93129249D01*
X134370745Y-93135368D01*
X134370750Y-93135369D01*
X134549996Y-93155565D01*
X134550000Y-93155565D01*
X134550004Y-93155565D01*
X134729249Y-93135369D01*
X134729252Y-93135368D01*
X134729255Y-93135368D01*
X134809017Y-93107457D01*
X134849972Y-93100500D01*
X135229188Y-93100500D01*
X135296227Y-93120185D01*
X135341982Y-93172989D01*
X135352126Y-93240685D01*
X135351191Y-93247794D01*
X135344318Y-93300000D01*
X135344318Y-93300001D01*
X135350869Y-93349758D01*
X135363888Y-93448653D01*
X135366017Y-93464820D01*
X135364510Y-93465018D01*
X135363063Y-93525761D01*
X135323898Y-93583622D01*
X135259668Y-93611124D01*
X135244952Y-93612000D01*
X135197839Y-93612000D01*
X135197823Y-93611999D01*
X135190227Y-93611999D01*
X135084773Y-93611999D01*
X135084768Y-93611999D01*
X135029380Y-93626840D01*
X134959530Y-93625176D01*
X134956337Y-93624107D01*
X134929257Y-93614632D01*
X134929253Y-93614631D01*
X134750004Y-93594435D01*
X134749996Y-93594435D01*
X134570750Y-93614630D01*
X134570745Y-93614631D01*
X134400476Y-93674211D01*
X134247737Y-93770184D01*
X134120184Y-93897737D01*
X134024211Y-94050476D01*
X133964631Y-94220745D01*
X133964630Y-94220750D01*
X133944435Y-94399996D01*
X133944435Y-94400003D01*
X133964630Y-94579249D01*
X133964631Y-94579254D01*
X134024211Y-94749524D01*
X134076726Y-94833099D01*
X134095727Y-94900336D01*
X134075360Y-94967171D01*
X134022092Y-95012386D01*
X133952836Y-95021624D01*
X133924281Y-95013633D01*
X133806765Y-94964957D01*
X133806760Y-94964955D01*
X133650001Y-94944318D01*
X133649999Y-94944318D01*
X133493239Y-94964955D01*
X133493237Y-94964956D01*
X133347160Y-95025463D01*
X133323356Y-95043728D01*
X133221718Y-95121718D01*
X133221716Y-95121720D01*
X133215271Y-95126666D01*
X133213409Y-95124239D01*
X133164804Y-95150756D01*
X133095114Y-95145745D01*
X133075381Y-95134964D01*
X133075114Y-95135454D01*
X133067328Y-95131202D01*
X132932486Y-95080910D01*
X132932485Y-95080909D01*
X132932483Y-95080909D01*
X132872873Y-95074500D01*
X132872863Y-95074500D01*
X132227129Y-95074500D01*
X132227123Y-95074501D01*
X132167516Y-95080908D01*
X132032671Y-95131202D01*
X132032664Y-95131206D01*
X131917455Y-95217452D01*
X131917452Y-95217455D01*
X131831206Y-95332664D01*
X131831202Y-95332671D01*
X131780910Y-95467513D01*
X131780909Y-95467517D01*
X131774500Y-95527127D01*
X131774500Y-95527134D01*
X131774500Y-95527135D01*
X131774500Y-95758745D01*
X131754815Y-95825784D01*
X131702011Y-95871539D01*
X131632853Y-95881483D01*
X131569297Y-95852458D01*
X131562819Y-95846426D01*
X131436819Y-95720426D01*
X131403334Y-95659103D01*
X131400500Y-95632745D01*
X131400500Y-95206580D01*
X131420185Y-95139541D01*
X131426124Y-95131093D01*
X131428279Y-95128283D01*
X131428282Y-95128282D01*
X131524536Y-95002841D01*
X131585044Y-94856762D01*
X131603678Y-94715219D01*
X131605682Y-94700001D01*
X131605682Y-94699998D01*
X131585044Y-94543239D01*
X131585044Y-94543238D01*
X131524536Y-94397159D01*
X131428282Y-94271718D01*
X131302841Y-94175464D01*
X131299451Y-94174060D01*
X131156762Y-94114956D01*
X131156760Y-94114955D01*
X131000001Y-94094318D01*
X130999999Y-94094318D01*
X130843239Y-94114955D01*
X130843237Y-94114956D01*
X130697160Y-94175463D01*
X130571718Y-94271718D01*
X130475463Y-94397160D01*
X130414956Y-94543237D01*
X130414955Y-94543239D01*
X130394318Y-94699998D01*
X130394318Y-94700001D01*
X130414955Y-94856760D01*
X130414956Y-94856762D01*
X130475464Y-95002841D01*
X130571718Y-95128282D01*
X130571720Y-95128283D01*
X130573876Y-95131093D01*
X130599070Y-95196263D01*
X130599500Y-95206580D01*
X130599500Y-95902726D01*
X130626793Y-96004589D01*
X130637349Y-96022872D01*
X130679520Y-96095913D01*
X130679522Y-96095915D01*
X131738181Y-97154574D01*
X131771666Y-97215897D01*
X131774500Y-97242255D01*
X131774500Y-97458746D01*
X131754815Y-97525785D01*
X131702011Y-97571540D01*
X131632853Y-97581484D01*
X131569297Y-97552459D01*
X131562819Y-97546427D01*
X131141012Y-97124620D01*
X130495913Y-96479520D01*
X130445476Y-96450400D01*
X130404589Y-96426793D01*
X130353657Y-96413146D01*
X130302727Y-96399500D01*
X130302726Y-96399500D01*
X129547753Y-96399500D01*
X129480714Y-96379815D01*
X129434959Y-96327011D01*
X129425015Y-96257853D01*
X129428677Y-96240905D01*
X129447099Y-96177495D01*
X129447100Y-96177489D01*
X129449999Y-96140649D01*
X129450000Y-96140634D01*
X129450000Y-95700000D01*
X128524000Y-95700000D01*
X128456961Y-95680315D01*
X128411206Y-95627511D01*
X128400000Y-95576000D01*
X128400000Y-95200000D01*
X128900000Y-95200000D01*
X129450000Y-95200000D01*
X129450000Y-94759365D01*
X129449999Y-94759350D01*
X129447100Y-94722510D01*
X129447099Y-94722504D01*
X129401283Y-94564806D01*
X129401282Y-94564803D01*
X129317685Y-94423447D01*
X129317678Y-94423438D01*
X129201561Y-94307321D01*
X129201552Y-94307314D01*
X129060196Y-94223717D01*
X129060193Y-94223716D01*
X128902494Y-94177900D01*
X128902497Y-94177900D01*
X128900000Y-94177703D01*
X128900000Y-95200000D01*
X128400000Y-95200000D01*
X128400000Y-94177703D01*
X128396058Y-94174060D01*
X128341369Y-94162594D01*
X128291594Y-94113562D01*
X128276229Y-94045402D01*
X128283356Y-94014724D01*
X128282940Y-94014613D01*
X128285042Y-94006765D01*
X128285044Y-94006762D01*
X128305682Y-93850000D01*
X128299855Y-93805743D01*
X128285044Y-93693239D01*
X128285044Y-93693238D01*
X128224536Y-93547159D01*
X128128282Y-93421718D01*
X128002841Y-93325464D01*
X127856762Y-93264956D01*
X127856760Y-93264955D01*
X127700001Y-93244318D01*
X127699999Y-93244318D01*
X127543239Y-93264955D01*
X127543237Y-93264956D01*
X127397160Y-93325463D01*
X127271718Y-93421718D01*
X127175463Y-93547160D01*
X127114956Y-93693237D01*
X127114955Y-93693239D01*
X127094318Y-93849998D01*
X127094318Y-93850001D01*
X127114955Y-94006760D01*
X127114956Y-94006762D01*
X127175464Y-94152842D01*
X127270882Y-94277193D01*
X127296076Y-94342362D01*
X127282038Y-94410807D01*
X127246142Y-94452447D01*
X127223636Y-94469058D01*
X127158008Y-94493031D01*
X127089837Y-94477717D01*
X127076367Y-94469061D01*
X127062331Y-94458702D01*
X127012882Y-94422207D01*
X127012880Y-94422206D01*
X126884700Y-94377353D01*
X126854270Y-94374500D01*
X126854266Y-94374500D01*
X126445734Y-94374500D01*
X126445730Y-94374500D01*
X126415300Y-94377353D01*
X126415298Y-94377353D01*
X126287119Y-94422206D01*
X126287118Y-94422207D01*
X126244169Y-94453905D01*
X126223633Y-94469061D01*
X126158004Y-94493031D01*
X126089834Y-94477715D01*
X126076367Y-94469061D01*
X126062331Y-94458702D01*
X126012882Y-94422207D01*
X126012880Y-94422206D01*
X125884700Y-94377353D01*
X125854270Y-94374500D01*
X125854266Y-94374500D01*
X125445734Y-94374500D01*
X125445730Y-94374500D01*
X125415300Y-94377353D01*
X125415298Y-94377353D01*
X125287119Y-94422206D01*
X125287117Y-94422207D01*
X125177850Y-94502850D01*
X125097207Y-94612117D01*
X125097206Y-94612119D01*
X125052353Y-94740298D01*
X125052353Y-94740300D01*
X125049500Y-94770730D01*
X125049500Y-95432745D01*
X125029815Y-95499784D01*
X125013181Y-95520426D01*
X124729522Y-95804084D01*
X124729520Y-95804087D01*
X124676793Y-95895411D01*
X124676793Y-95895412D01*
X124654987Y-95976794D01*
X124649500Y-95997273D01*
X124649500Y-95997274D01*
X124649500Y-96393419D01*
X124629815Y-96460458D01*
X124623876Y-96468905D01*
X124525464Y-96597157D01*
X124464956Y-96743237D01*
X124464955Y-96743239D01*
X124444318Y-96899998D01*
X124444318Y-96900001D01*
X124464955Y-97056760D01*
X124464957Y-97056765D01*
X124493063Y-97124620D01*
X124500532Y-97194089D01*
X124469256Y-97256568D01*
X124409167Y-97292220D01*
X124392386Y-97295292D01*
X124220749Y-97314630D01*
X124220745Y-97314631D01*
X124050476Y-97374211D01*
X123897737Y-97470184D01*
X123770184Y-97597737D01*
X123674211Y-97750476D01*
X123614631Y-97920745D01*
X123614630Y-97920750D01*
X123594435Y-98099996D01*
X123594435Y-98100003D01*
X123614630Y-98279249D01*
X123614631Y-98279254D01*
X123674211Y-98449523D01*
X123734203Y-98544999D01*
X123770184Y-98602262D01*
X123897738Y-98729816D01*
X123973148Y-98777199D01*
X124047966Y-98824211D01*
X124050478Y-98825789D01*
X124107995Y-98845915D01*
X124220745Y-98885368D01*
X124220750Y-98885369D01*
X124399996Y-98905565D01*
X124400000Y-98905565D01*
X124400004Y-98905565D01*
X124579249Y-98885369D01*
X124579252Y-98885368D01*
X124579255Y-98885368D01*
X124749522Y-98825789D01*
X124902262Y-98729816D01*
X124933712Y-98698365D01*
X124995032Y-98664881D01*
X125064724Y-98669865D01*
X125120658Y-98711735D01*
X125145076Y-98777199D01*
X125139098Y-98825051D01*
X125085319Y-98987346D01*
X125075000Y-99088344D01*
X125075000Y-99187499D01*
X126557000Y-99187499D01*
X126558180Y-99186319D01*
X126619503Y-99152834D01*
X126645861Y-99150000D01*
X127550000Y-99150000D01*
X127550000Y-98381000D01*
X127569685Y-98313961D01*
X127622489Y-98268206D01*
X127674000Y-98257000D01*
X127687499Y-98257000D01*
X127687499Y-97674000D01*
X127707184Y-97606961D01*
X127759988Y-97561206D01*
X127811499Y-97550000D01*
X128063499Y-97550000D01*
X128130538Y-97569685D01*
X128176293Y-97622489D01*
X128187499Y-97674000D01*
X128187499Y-98694000D01*
X128167814Y-98761039D01*
X128115010Y-98806794D01*
X128063499Y-98818000D01*
X128050000Y-98818000D01*
X128050000Y-99526000D01*
X128030315Y-99593039D01*
X127977511Y-99638794D01*
X127926000Y-99650000D01*
X127068000Y-99650000D01*
X127066820Y-99651180D01*
X127005497Y-99684665D01*
X126979139Y-99687499D01*
X125075001Y-99687499D01*
X125075001Y-99786653D01*
X125085319Y-99887651D01*
X125139546Y-100051299D01*
X125139551Y-100051310D01*
X125230052Y-100198033D01*
X125230055Y-100198037D01*
X125351960Y-100319942D01*
X125369823Y-100330960D01*
X125416549Y-100382908D01*
X125427772Y-100451870D01*
X125403532Y-100511425D01*
X125339139Y-100596340D01*
X125284882Y-100733925D01*
X125284882Y-100733926D01*
X125274500Y-100820382D01*
X125274500Y-101504619D01*
X125284882Y-101591075D01*
X125284882Y-101591076D01*
X125287903Y-101598736D01*
X125336777Y-101722673D01*
X125339139Y-101728661D01*
X125408825Y-101820557D01*
X125433648Y-101885869D01*
X125419220Y-101954233D01*
X125370122Y-102003944D01*
X125350720Y-102011781D01*
X125350747Y-102011846D01*
X125343239Y-102014955D01*
X125343238Y-102014956D01*
X125294908Y-102034974D01*
X125197160Y-102075463D01*
X125071718Y-102171718D01*
X124975463Y-102297160D01*
X124914956Y-102443237D01*
X124914955Y-102443239D01*
X124894318Y-102599998D01*
X124894318Y-102600001D01*
X124914955Y-102756760D01*
X124914957Y-102756765D01*
X124946049Y-102831828D01*
X124953518Y-102901297D01*
X124922243Y-102963776D01*
X124862154Y-102999428D01*
X124846274Y-103002395D01*
X124783925Y-103009882D01*
X124783924Y-103009882D01*
X124646339Y-103064139D01*
X124528499Y-103153499D01*
X124439139Y-103271339D01*
X124384882Y-103408924D01*
X124384882Y-103408925D01*
X124374500Y-103495381D01*
X124374500Y-104154618D01*
X124384882Y-104241074D01*
X124384882Y-104241075D01*
X124408781Y-104301677D01*
X124438996Y-104378299D01*
X124439139Y-104378660D01*
X124529363Y-104497639D01*
X124554186Y-104562951D01*
X124539758Y-104631315D01*
X124495659Y-104678101D01*
X124451961Y-104705055D01*
X124330055Y-104826961D01*
X124330052Y-104826965D01*
X124239551Y-104973688D01*
X124239546Y-104973699D01*
X124185319Y-105137347D01*
X124175000Y-105238345D01*
X124175000Y-105325000D01*
X125276000Y-105325000D01*
X125343039Y-105344685D01*
X125388794Y-105397489D01*
X125400000Y-105449000D01*
X125400000Y-106599999D01*
X125436640Y-106599999D01*
X125436654Y-106599998D01*
X125537652Y-106589680D01*
X125701300Y-106535453D01*
X125701311Y-106535448D01*
X125848036Y-106444946D01*
X125848271Y-106444712D01*
X125848472Y-106444601D01*
X125853706Y-106440464D01*
X125854412Y-106441357D01*
X125909591Y-106411221D01*
X125979283Y-106416199D01*
X125995662Y-106423916D01*
X126007958Y-106429009D01*
X126143238Y-106485044D01*
X126207020Y-106493441D01*
X126299999Y-106505682D01*
X126300000Y-106505682D01*
X126300001Y-106505682D01*
X126352254Y-106498802D01*
X126456762Y-106485044D01*
X126602841Y-106424536D01*
X126728282Y-106328282D01*
X126824536Y-106202841D01*
X126885044Y-106056762D01*
X126905682Y-105900000D01*
X126904878Y-105893895D01*
X126885044Y-105743239D01*
X126885042Y-105743234D01*
X126876502Y-105722615D01*
X126869033Y-105653146D01*
X126900309Y-105590667D01*
X126960398Y-105555015D01*
X127030070Y-105557458D01*
X127052393Y-105564856D01*
X127151683Y-105574999D01*
X127175000Y-105574998D01*
X127175000Y-104850000D01*
X126475001Y-104850000D01*
X126475001Y-104898322D01*
X126485144Y-104997607D01*
X126534176Y-105145577D01*
X126536578Y-105215406D01*
X126500846Y-105275448D01*
X126438325Y-105306640D01*
X126400285Y-105307520D01*
X126300001Y-105294318D01*
X126299997Y-105294318D01*
X126259530Y-105299645D01*
X126190494Y-105288879D01*
X126138239Y-105242498D01*
X126119988Y-105189306D01*
X126114681Y-105137348D01*
X126060453Y-104973699D01*
X126060448Y-104973688D01*
X125969947Y-104826965D01*
X125969944Y-104826961D01*
X125848039Y-104705056D01*
X125804341Y-104678102D01*
X125757618Y-104626153D01*
X125746397Y-104557190D01*
X125770636Y-104497639D01*
X125775459Y-104491279D01*
X125860862Y-104378658D01*
X125915117Y-104241077D01*
X125925500Y-104154618D01*
X125925500Y-103495382D01*
X125915117Y-103408923D01*
X125909143Y-103393775D01*
X125900500Y-103348290D01*
X125900500Y-103106580D01*
X125920185Y-103039541D01*
X125926124Y-103031093D01*
X125928279Y-103028283D01*
X125928282Y-103028282D01*
X126024536Y-102902841D01*
X126085044Y-102756762D01*
X126105682Y-102600000D01*
X126103833Y-102585958D01*
X126085044Y-102443239D01*
X126085044Y-102443238D01*
X126024536Y-102297159D01*
X125949971Y-102199984D01*
X125924779Y-102134819D01*
X125938817Y-102066374D01*
X125987631Y-102016384D01*
X126048349Y-102000501D01*
X126329619Y-102000501D01*
X126356822Y-101997234D01*
X126416077Y-101990118D01*
X126553658Y-101935863D01*
X126671500Y-101846501D01*
X126671500Y-101846500D01*
X126671998Y-101846123D01*
X126737309Y-101821300D01*
X126805673Y-101835728D01*
X126838811Y-101865497D01*
X126839669Y-101864640D01*
X126847794Y-101872765D01*
X126927235Y-101952206D01*
X127030009Y-101997585D01*
X127055135Y-102000500D01*
X127058985Y-102000499D01*
X127126024Y-102020175D01*
X127171786Y-102072972D01*
X127181739Y-102142130D01*
X127152723Y-102205689D01*
X127124097Y-102230037D01*
X127047268Y-102277426D01*
X126927427Y-102397267D01*
X126927424Y-102397271D01*
X126838457Y-102541507D01*
X126838452Y-102541518D01*
X126785144Y-102702393D01*
X126775000Y-102801677D01*
X126775000Y-102850000D01*
X127851000Y-102850000D01*
X127918039Y-102869685D01*
X127963794Y-102922489D01*
X127975000Y-102974000D01*
X127975000Y-103226000D01*
X127955315Y-103293039D01*
X127902511Y-103338794D01*
X127851000Y-103350000D01*
X126775001Y-103350000D01*
X126775001Y-103398322D01*
X126785144Y-103497607D01*
X126824863Y-103617472D01*
X126827265Y-103687301D01*
X126791533Y-103747343D01*
X126772257Y-103762013D01*
X126747266Y-103777428D01*
X126627424Y-103897271D01*
X126538457Y-104041507D01*
X126538452Y-104041518D01*
X126485144Y-104202393D01*
X126475000Y-104301677D01*
X126475000Y-104350000D01*
X127551000Y-104350000D01*
X127618039Y-104369685D01*
X127663794Y-104422489D01*
X127675000Y-104474000D01*
X127675000Y-105574999D01*
X127698308Y-105574999D01*
X127698322Y-105574998D01*
X127797607Y-105564855D01*
X127958481Y-105511547D01*
X127958492Y-105511542D01*
X128102728Y-105422575D01*
X128102732Y-105422572D01*
X128222573Y-105302731D01*
X128232081Y-105287317D01*
X128284029Y-105240592D01*
X128352991Y-105229369D01*
X128412544Y-105253608D01*
X128490025Y-105312364D01*
X128624410Y-105365359D01*
X128708856Y-105375500D01*
X128849903Y-105375500D01*
X128916942Y-105395185D01*
X128937584Y-105411819D01*
X128938181Y-105412416D01*
X128971666Y-105473739D01*
X128974500Y-105500097D01*
X128974500Y-105530329D01*
X128973438Y-105546514D01*
X128969318Y-105577817D01*
X128971864Y-105597159D01*
X128973439Y-105609118D01*
X128974500Y-105625304D01*
X128974500Y-105656874D01*
X128982670Y-105687369D01*
X128985833Y-105703267D01*
X128989956Y-105734581D01*
X129002038Y-105763749D01*
X129007251Y-105779105D01*
X129015422Y-105809598D01*
X129015423Y-105809601D01*
X129031207Y-105836940D01*
X129038379Y-105851485D01*
X129050462Y-105880656D01*
X129050463Y-105880657D01*
X129069682Y-105905704D01*
X129078692Y-105919189D01*
X129094475Y-105946526D01*
X129094482Y-105946535D01*
X129116803Y-105968856D01*
X129127497Y-105981050D01*
X129146717Y-106006098D01*
X129171765Y-106025318D01*
X129183960Y-106036013D01*
X129206284Y-106058337D01*
X129206285Y-106058338D01*
X129206287Y-106058339D01*
X129233625Y-106074122D01*
X129247104Y-106083128D01*
X129272159Y-106102353D01*
X129299009Y-106113474D01*
X129301326Y-106114434D01*
X129315873Y-106121608D01*
X129340072Y-106135579D01*
X129343216Y-106137394D01*
X129373708Y-106145563D01*
X129389060Y-106150774D01*
X129418238Y-106162861D01*
X129449541Y-106166982D01*
X129465441Y-106170144D01*
X129495943Y-106178317D01*
X129527513Y-106178317D01*
X129543697Y-106179377D01*
X129575000Y-106183499D01*
X129606302Y-106179377D01*
X129622487Y-106178317D01*
X129654056Y-106178317D01*
X129654057Y-106178317D01*
X129684555Y-106170144D01*
X129700439Y-106166984D01*
X129731762Y-106162861D01*
X129731769Y-106162857D01*
X129739619Y-106160756D01*
X129740569Y-106164304D01*
X129793022Y-106158313D01*
X129855708Y-106189172D01*
X129891759Y-106249022D01*
X129894756Y-106296670D01*
X129894381Y-106299523D01*
X129894318Y-106300000D01*
X129898041Y-106328282D01*
X129898439Y-106331301D01*
X129899500Y-106347487D01*
X129899500Y-106379057D01*
X129907670Y-106409552D01*
X129910833Y-106425450D01*
X129914956Y-106456764D01*
X129927038Y-106485932D01*
X129932251Y-106501288D01*
X129940422Y-106531781D01*
X129940423Y-106531784D01*
X129956207Y-106559123D01*
X129963379Y-106573668D01*
X129975462Y-106602839D01*
X129975463Y-106602840D01*
X129994682Y-106627887D01*
X130003692Y-106641372D01*
X130019475Y-106668709D01*
X130019482Y-106668718D01*
X130041803Y-106691039D01*
X130052497Y-106703233D01*
X130071717Y-106728281D01*
X130096765Y-106747501D01*
X130108960Y-106758196D01*
X130137031Y-106786267D01*
X130135223Y-106788074D01*
X130168897Y-106834198D01*
X130173047Y-106903945D01*
X130139886Y-106963820D01*
X129907594Y-107196112D01*
X129846271Y-107229597D01*
X129776579Y-107224613D01*
X129720646Y-107182741D01*
X129702926Y-107138226D01*
X129700035Y-107139013D01*
X129697585Y-107130012D01*
X129697585Y-107130009D01*
X129652206Y-107027235D01*
X129572765Y-106947794D01*
X129518614Y-106923884D01*
X129469992Y-106902415D01*
X129444865Y-106899500D01*
X128455143Y-106899500D01*
X128455117Y-106899502D01*
X128430012Y-106902413D01*
X128430008Y-106902415D01*
X128327235Y-106947793D01*
X128247794Y-107027234D01*
X128202415Y-107130006D01*
X128202415Y-107130008D01*
X128199500Y-107155131D01*
X128199500Y-107175500D01*
X128179815Y-107242539D01*
X128127011Y-107288294D01*
X128075500Y-107299500D01*
X127206580Y-107299500D01*
X127139541Y-107279815D01*
X127131093Y-107273876D01*
X127128283Y-107271720D01*
X127128282Y-107271718D01*
X127002841Y-107175464D01*
X126924502Y-107143015D01*
X126856762Y-107114956D01*
X126856760Y-107114955D01*
X126700001Y-107094318D01*
X126699999Y-107094318D01*
X126543239Y-107114955D01*
X126543237Y-107114956D01*
X126397160Y-107175463D01*
X126397159Y-107175464D01*
X126271718Y-107271718D01*
X126271716Y-107271720D01*
X126268907Y-107273876D01*
X126203737Y-107299070D01*
X126193420Y-107299500D01*
X125724499Y-107299500D01*
X125657460Y-107279815D01*
X125611705Y-107227011D01*
X125600499Y-107175500D01*
X125600499Y-107155143D01*
X125600499Y-107155136D01*
X125599094Y-107143017D01*
X125597586Y-107130012D01*
X125597585Y-107130010D01*
X125597585Y-107130009D01*
X125552206Y-107027235D01*
X125472765Y-106947794D01*
X125418614Y-106923884D01*
X125369992Y-106902415D01*
X125344865Y-106899500D01*
X124355143Y-106899500D01*
X124355117Y-106899502D01*
X124330012Y-106902413D01*
X124330008Y-106902415D01*
X124227235Y-106947793D01*
X124147794Y-107027234D01*
X124102415Y-107130006D01*
X124102415Y-107130008D01*
X124099500Y-107155131D01*
X124099500Y-108244856D01*
X124099502Y-108244882D01*
X124102413Y-108269985D01*
X124102414Y-108269986D01*
X124102415Y-108269991D01*
X124105117Y-108276111D01*
X124114185Y-108345388D01*
X124084359Y-108408572D01*
X124065992Y-108425457D01*
X124042814Y-108442807D01*
X124042808Y-108442814D01*
X123956649Y-108557906D01*
X123956645Y-108557913D01*
X123906403Y-108692620D01*
X123906401Y-108692627D01*
X123900000Y-108752155D01*
X123900000Y-109050000D01*
X125800000Y-109050000D01*
X125800000Y-108752172D01*
X125799999Y-108752155D01*
X125793598Y-108692627D01*
X125793596Y-108692620D01*
X125743354Y-108557913D01*
X125743350Y-108557906D01*
X125657190Y-108442812D01*
X125634007Y-108425457D01*
X125592137Y-108369523D01*
X125587153Y-108299831D01*
X125594885Y-108276105D01*
X125597585Y-108269991D01*
X125600500Y-108244865D01*
X125600500Y-108224500D01*
X125620185Y-108157461D01*
X125672989Y-108111706D01*
X125724500Y-108100500D01*
X126193420Y-108100500D01*
X126260459Y-108120185D01*
X126268907Y-108126124D01*
X126271716Y-108128279D01*
X126271718Y-108128282D01*
X126397159Y-108224536D01*
X126543238Y-108285044D01*
X126621619Y-108295363D01*
X126699999Y-108305682D01*
X126700000Y-108305682D01*
X126700001Y-108305682D01*
X126752254Y-108298802D01*
X126856762Y-108285044D01*
X127002841Y-108224536D01*
X127128282Y-108128282D01*
X127128283Y-108128279D01*
X127131093Y-108126124D01*
X127196263Y-108100930D01*
X127206580Y-108100500D01*
X128075501Y-108100500D01*
X128142540Y-108120185D01*
X128188295Y-108172989D01*
X128199501Y-108224500D01*
X128199501Y-108244856D01*
X128199502Y-108244882D01*
X128202413Y-108269985D01*
X128202414Y-108269986D01*
X128202415Y-108269991D01*
X128205117Y-108276111D01*
X128214185Y-108345388D01*
X128184359Y-108408572D01*
X128165992Y-108425457D01*
X128142814Y-108442807D01*
X128142808Y-108442814D01*
X128056649Y-108557906D01*
X128056645Y-108557913D01*
X128006403Y-108692620D01*
X128006401Y-108692627D01*
X128000000Y-108752155D01*
X128000000Y-109050000D01*
X129900000Y-109050000D01*
X129900000Y-108752172D01*
X129899999Y-108752155D01*
X129893598Y-108692627D01*
X129893596Y-108692620D01*
X129843354Y-108557913D01*
X129843350Y-108557906D01*
X129757190Y-108442812D01*
X129734007Y-108425457D01*
X129692137Y-108369523D01*
X129687153Y-108299831D01*
X129694885Y-108276105D01*
X129697585Y-108269991D01*
X129700500Y-108244865D01*
X129700500Y-108224500D01*
X129720185Y-108157461D01*
X129772989Y-108111706D01*
X129824500Y-108100500D01*
X130022826Y-108100500D01*
X130022828Y-108100500D01*
X130043406Y-108094986D01*
X130113254Y-108096647D01*
X130171118Y-108135809D01*
X130198623Y-108200037D01*
X130199500Y-108214760D01*
X130199500Y-109432744D01*
X130179815Y-109499783D01*
X130163181Y-109520425D01*
X130104484Y-109579122D01*
X130043161Y-109612607D01*
X129973469Y-109607623D01*
X129929122Y-109579122D01*
X129900000Y-109550000D01*
X128000000Y-109550000D01*
X128000000Y-109847844D01*
X128006401Y-109907372D01*
X128006403Y-109907379D01*
X128056645Y-110042086D01*
X128056649Y-110042093D01*
X128142809Y-110157187D01*
X128142812Y-110157190D01*
X128257906Y-110243350D01*
X128257913Y-110243354D01*
X128383693Y-110290267D01*
X128439627Y-110332138D01*
X128464044Y-110397602D01*
X128449192Y-110465875D01*
X128399787Y-110515281D01*
X128390447Y-110519883D01*
X128327234Y-110547794D01*
X128247794Y-110627234D01*
X128202415Y-110730006D01*
X128202415Y-110730008D01*
X128199500Y-110755131D01*
X128199500Y-110775500D01*
X128179815Y-110842539D01*
X128127011Y-110888294D01*
X128075500Y-110899500D01*
X125724499Y-110899500D01*
X125657460Y-110879815D01*
X125611705Y-110827011D01*
X125600499Y-110775500D01*
X125600499Y-110755143D01*
X125600499Y-110755136D01*
X125600497Y-110755117D01*
X125597586Y-110730012D01*
X125597585Y-110730010D01*
X125597585Y-110730009D01*
X125552206Y-110627235D01*
X125472765Y-110547794D01*
X125472764Y-110547793D01*
X125409553Y-110519883D01*
X125356176Y-110474797D01*
X125335649Y-110408011D01*
X125354487Y-110340729D01*
X125406711Y-110294313D01*
X125416306Y-110290267D01*
X125542086Y-110243354D01*
X125542093Y-110243350D01*
X125657187Y-110157190D01*
X125657190Y-110157187D01*
X125743350Y-110042093D01*
X125743354Y-110042086D01*
X125793596Y-109907379D01*
X125793598Y-109907372D01*
X125799999Y-109847844D01*
X125800000Y-109847827D01*
X125800000Y-109550000D01*
X123900000Y-109550000D01*
X123900000Y-109847844D01*
X123906401Y-109907372D01*
X123906403Y-109907379D01*
X123956645Y-110042086D01*
X123956649Y-110042093D01*
X124042809Y-110157187D01*
X124042812Y-110157190D01*
X124157906Y-110243350D01*
X124157913Y-110243354D01*
X124283693Y-110290267D01*
X124339627Y-110332138D01*
X124364044Y-110397602D01*
X124349192Y-110465875D01*
X124299787Y-110515281D01*
X124290447Y-110519883D01*
X124227234Y-110547794D01*
X124147794Y-110627234D01*
X124102415Y-110730006D01*
X124102415Y-110730008D01*
X124099500Y-110755131D01*
X124099500Y-111844856D01*
X124099502Y-111844882D01*
X124102413Y-111869985D01*
X124102414Y-111869986D01*
X124102415Y-111869991D01*
X124105117Y-111876111D01*
X124114185Y-111945388D01*
X124084359Y-112008572D01*
X124065992Y-112025457D01*
X124042814Y-112042807D01*
X124042808Y-112042814D01*
X123956649Y-112157906D01*
X123956645Y-112157913D01*
X123906403Y-112292620D01*
X123906401Y-112292627D01*
X123900000Y-112352155D01*
X123900000Y-112650000D01*
X125800000Y-112650000D01*
X125800000Y-112352172D01*
X125799999Y-112352155D01*
X125793598Y-112292627D01*
X125793596Y-112292620D01*
X125743354Y-112157913D01*
X125743350Y-112157906D01*
X125657190Y-112042812D01*
X125634007Y-112025457D01*
X125592137Y-111969523D01*
X125587153Y-111899831D01*
X125594885Y-111876105D01*
X125597585Y-111869991D01*
X125600500Y-111844865D01*
X125600500Y-111824500D01*
X125620185Y-111757461D01*
X125672989Y-111711706D01*
X125724500Y-111700500D01*
X128075501Y-111700500D01*
X128142540Y-111720185D01*
X128188295Y-111772989D01*
X128199501Y-111824500D01*
X128199501Y-111844856D01*
X128199502Y-111844882D01*
X128202413Y-111869985D01*
X128202414Y-111869986D01*
X128202415Y-111869991D01*
X128205117Y-111876111D01*
X128214185Y-111945388D01*
X128184359Y-112008572D01*
X128165992Y-112025457D01*
X128142814Y-112042807D01*
X128142808Y-112042814D01*
X128056649Y-112157906D01*
X128056645Y-112157913D01*
X128006403Y-112292620D01*
X128006401Y-112292627D01*
X128000000Y-112352155D01*
X128000000Y-112650000D01*
X129900000Y-112650000D01*
X129900000Y-112352172D01*
X129899999Y-112352155D01*
X129893598Y-112292627D01*
X129893596Y-112292620D01*
X129843354Y-112157913D01*
X129843350Y-112157906D01*
X129757190Y-112042812D01*
X129734007Y-112025457D01*
X129692137Y-111969523D01*
X129687153Y-111899831D01*
X129694885Y-111876105D01*
X129697585Y-111869991D01*
X129700500Y-111844865D01*
X129700499Y-111167253D01*
X129720183Y-111100215D01*
X129736813Y-111079578D01*
X130920480Y-109895913D01*
X130964031Y-109820480D01*
X130973207Y-109804587D01*
X130973616Y-109803057D01*
X130974314Y-109801912D01*
X130976315Y-109797083D01*
X130977068Y-109797394D01*
X131009978Y-109743397D01*
X131072824Y-109712865D01*
X131142200Y-109721157D01*
X131181073Y-109747466D01*
X132673099Y-111239492D01*
X132706584Y-111300815D01*
X132708357Y-111343358D01*
X132694318Y-111449998D01*
X132694318Y-111450001D01*
X132714955Y-111606760D01*
X132714957Y-111606765D01*
X132755360Y-111704308D01*
X132762829Y-111773777D01*
X132731553Y-111836256D01*
X132728481Y-111839441D01*
X132620183Y-111947739D01*
X132524211Y-112100476D01*
X132464631Y-112270745D01*
X132464630Y-112270750D01*
X132444435Y-112449996D01*
X132444435Y-112450003D01*
X132464630Y-112629249D01*
X132464631Y-112629254D01*
X132524211Y-112799523D01*
X132577751Y-112884730D01*
X132620184Y-112952262D01*
X132747738Y-113079816D01*
X132900478Y-113175789D01*
X133070745Y-113235368D01*
X133070750Y-113235369D01*
X133249996Y-113255565D01*
X133250000Y-113255565D01*
X133250004Y-113255565D01*
X133429249Y-113235369D01*
X133429252Y-113235368D01*
X133429255Y-113235368D01*
X133599522Y-113175789D01*
X133752262Y-113079816D01*
X133879816Y-112952262D01*
X133975789Y-112799522D01*
X134035368Y-112629255D01*
X134043521Y-112556898D01*
X134055565Y-112450003D01*
X134055565Y-112449996D01*
X134035369Y-112270750D01*
X134035368Y-112270745D01*
X134013090Y-112207078D01*
X133975789Y-112100478D01*
X133879816Y-111947738D01*
X133840712Y-111908634D01*
X133807227Y-111847311D01*
X133812211Y-111777619D01*
X133821012Y-111758942D01*
X133824531Y-111752847D01*
X133824536Y-111752841D01*
X133885044Y-111606762D01*
X133887744Y-111586250D01*
X133916007Y-111522359D01*
X133974330Y-111483885D01*
X134044194Y-111483051D01*
X134098363Y-111514756D01*
X134204087Y-111620480D01*
X134295412Y-111673207D01*
X134397273Y-111700500D01*
X134502727Y-111700500D01*
X134575500Y-111700500D01*
X134642539Y-111720185D01*
X134688294Y-111772989D01*
X134699500Y-111824500D01*
X134699500Y-111867587D01*
X134679815Y-111934626D01*
X134672450Y-111944896D01*
X134670186Y-111947734D01*
X134574211Y-112100476D01*
X134514631Y-112270745D01*
X134514630Y-112270750D01*
X134494435Y-112449996D01*
X134494435Y-112450003D01*
X134514630Y-112629249D01*
X134514631Y-112629254D01*
X134574211Y-112799523D01*
X134627751Y-112884730D01*
X134670184Y-112952262D01*
X134797738Y-113079816D01*
X134950478Y-113175789D01*
X135120745Y-113235368D01*
X135120750Y-113235369D01*
X135299996Y-113255565D01*
X135300000Y-113255565D01*
X135300004Y-113255565D01*
X135479249Y-113235369D01*
X135479252Y-113235368D01*
X135479255Y-113235368D01*
X135649522Y-113175789D01*
X135802262Y-113079816D01*
X135929816Y-112952262D01*
X136025789Y-112799522D01*
X136085368Y-112629255D01*
X136093521Y-112556898D01*
X136105565Y-112450003D01*
X136105565Y-112449996D01*
X136085369Y-112270750D01*
X136085368Y-112270745D01*
X136063090Y-112207078D01*
X136025789Y-112100478D01*
X135929816Y-111947738D01*
X135802262Y-111820184D01*
X135802256Y-111820179D01*
X135678464Y-111742395D01*
X135632173Y-111690061D01*
X135621525Y-111621007D01*
X135629873Y-111589956D01*
X135685044Y-111456762D01*
X135702951Y-111320745D01*
X135705682Y-111300001D01*
X135705682Y-111300000D01*
X135701831Y-111270750D01*
X135697502Y-111237868D01*
X135708267Y-111168836D01*
X135754647Y-111116580D01*
X135821916Y-111097694D01*
X135839133Y-111100066D01*
X135839216Y-111099440D01*
X135847272Y-111100500D01*
X135847273Y-111100501D01*
X135847274Y-111100501D01*
X135960323Y-111100501D01*
X135960339Y-111100500D01*
X135990357Y-111100500D01*
X136057396Y-111120185D01*
X136103151Y-111172989D01*
X136110130Y-111192403D01*
X136126793Y-111254588D01*
X136179520Y-111345913D01*
X136179522Y-111345915D01*
X136673861Y-111840254D01*
X136707346Y-111901577D01*
X136702362Y-111971269D01*
X136691174Y-111993907D01*
X136624211Y-112100476D01*
X136564631Y-112270745D01*
X136564630Y-112270750D01*
X136544435Y-112449996D01*
X136544435Y-112450003D01*
X136564630Y-112629249D01*
X136564631Y-112629254D01*
X136624211Y-112799523D01*
X136677751Y-112884730D01*
X136720184Y-112952262D01*
X136847738Y-113079816D01*
X137000478Y-113175789D01*
X137170745Y-113235368D01*
X137170750Y-113235369D01*
X137349996Y-113255565D01*
X137350000Y-113255565D01*
X137350004Y-113255565D01*
X137529249Y-113235369D01*
X137529252Y-113235368D01*
X137529255Y-113235368D01*
X137699522Y-113175789D01*
X137852262Y-113079816D01*
X137979816Y-112952262D01*
X138075789Y-112799522D01*
X138135368Y-112629255D01*
X138143521Y-112556898D01*
X138155565Y-112450003D01*
X138155565Y-112449996D01*
X138135369Y-112270750D01*
X138135368Y-112270745D01*
X138113090Y-112207078D01*
X138075789Y-112100478D01*
X137979816Y-111947738D01*
X137852262Y-111820184D01*
X137699522Y-111724211D01*
X137699519Y-111724210D01*
X137693626Y-111720507D01*
X137694009Y-111719897D01*
X137667422Y-111701028D01*
X137591594Y-111625200D01*
X137591571Y-111625179D01*
X137066925Y-111100532D01*
X137033440Y-111039209D01*
X137038424Y-110969517D01*
X137040045Y-110965398D01*
X137085044Y-110856762D01*
X137105153Y-110704019D01*
X137105682Y-110700001D01*
X137105682Y-110700000D01*
X137097873Y-110640686D01*
X137108638Y-110571650D01*
X137155018Y-110519394D01*
X137220812Y-110500500D01*
X137222411Y-110500500D01*
X137289450Y-110520185D01*
X137335205Y-110572989D01*
X137345631Y-110610617D01*
X137364630Y-110779249D01*
X137364631Y-110779254D01*
X137424211Y-110949523D01*
X137517314Y-111097694D01*
X137520184Y-111102262D01*
X137647738Y-111229816D01*
X137687164Y-111254589D01*
X137798483Y-111324536D01*
X137800478Y-111325789D01*
X137857995Y-111345915D01*
X137970745Y-111385368D01*
X137970750Y-111385369D01*
X138149996Y-111405565D01*
X138150000Y-111405565D01*
X138150004Y-111405565D01*
X138329249Y-111385369D01*
X138329252Y-111385368D01*
X138329255Y-111385368D01*
X138499522Y-111325789D01*
X138652262Y-111229816D01*
X138779816Y-111102262D01*
X138860290Y-110974187D01*
X138912625Y-110927897D01*
X138981678Y-110917249D01*
X139045527Y-110945624D01*
X139079845Y-110992707D01*
X139124507Y-111100532D01*
X139125464Y-111102841D01*
X139221718Y-111228282D01*
X139347159Y-111324536D01*
X139493238Y-111385044D01*
X139650000Y-111405682D01*
X139650001Y-111405681D01*
X139653513Y-111406144D01*
X139717410Y-111434410D01*
X139725009Y-111441402D01*
X140054087Y-111770480D01*
X140145412Y-111823207D01*
X140247273Y-111850500D01*
X140437710Y-111850500D01*
X140504749Y-111870185D01*
X140542703Y-111908527D01*
X140570182Y-111952260D01*
X140570184Y-111952262D01*
X140697738Y-112079816D01*
X140788080Y-112136582D01*
X140822028Y-112157913D01*
X140850478Y-112175789D01*
X140939894Y-112207077D01*
X141020745Y-112235368D01*
X141020750Y-112235369D01*
X141199996Y-112255565D01*
X141200000Y-112255565D01*
X141200004Y-112255565D01*
X141379249Y-112235369D01*
X141379252Y-112235368D01*
X141379255Y-112235368D01*
X141549522Y-112175789D01*
X141702262Y-112079816D01*
X141829816Y-111952262D01*
X141925789Y-111799522D01*
X141985368Y-111629255D01*
X141985825Y-111625200D01*
X142005565Y-111450003D01*
X142005565Y-111449996D01*
X141985369Y-111270750D01*
X141985368Y-111270745D01*
X141925788Y-111100475D01*
X141905556Y-111068277D01*
X141886555Y-111001040D01*
X141906922Y-110934205D01*
X141960190Y-110888991D01*
X142029446Y-110879752D01*
X142092703Y-110909423D01*
X142098230Y-110914623D01*
X142426428Y-111242821D01*
X142459913Y-111304144D01*
X142461967Y-111344385D01*
X142444435Y-111499995D01*
X142444435Y-111500003D01*
X142464630Y-111679249D01*
X142464631Y-111679254D01*
X142524211Y-111849523D01*
X142588767Y-111952262D01*
X142620184Y-112002262D01*
X142747738Y-112129816D01*
X142792443Y-112157906D01*
X142870699Y-112207078D01*
X142900478Y-112225789D01*
X142985573Y-112255565D01*
X143070745Y-112285368D01*
X143070750Y-112285369D01*
X143249996Y-112305565D01*
X143250000Y-112305565D01*
X143250004Y-112305565D01*
X143429249Y-112285369D01*
X143429252Y-112285368D01*
X143429255Y-112285368D01*
X143599522Y-112225789D01*
X143752262Y-112129816D01*
X143879816Y-112002262D01*
X143975789Y-111849522D01*
X144035368Y-111679255D01*
X144035369Y-111679249D01*
X144055565Y-111500003D01*
X144055565Y-111499996D01*
X144035369Y-111320750D01*
X144035368Y-111320745D01*
X144006369Y-111237871D01*
X143975789Y-111150478D01*
X143954489Y-111116580D01*
X143902684Y-111034132D01*
X143879816Y-110997738D01*
X143752262Y-110870184D01*
X143724871Y-110852973D01*
X143599523Y-110774211D01*
X143429254Y-110714631D01*
X143429249Y-110714630D01*
X143250004Y-110694435D01*
X143249996Y-110694435D01*
X143094385Y-110711967D01*
X143025563Y-110699912D01*
X142992821Y-110676428D01*
X142757261Y-110440868D01*
X142723776Y-110379545D01*
X142728760Y-110309853D01*
X142770632Y-110253920D01*
X142799897Y-110239709D01*
X142799253Y-110238154D01*
X142806760Y-110235044D01*
X142806762Y-110235044D01*
X142952841Y-110174536D01*
X143078282Y-110078282D01*
X143174536Y-109952841D01*
X143235044Y-109806762D01*
X143249414Y-109697612D01*
X143255682Y-109650001D01*
X143255682Y-109649998D01*
X143235044Y-109493239D01*
X143235044Y-109493238D01*
X143174536Y-109347159D01*
X143078282Y-109221718D01*
X142952841Y-109125464D01*
X142951979Y-109125107D01*
X142806762Y-109064956D01*
X142806760Y-109064955D01*
X142650001Y-109044318D01*
X142649999Y-109044318D01*
X142493239Y-109064955D01*
X142493237Y-109064956D01*
X142347160Y-109125463D01*
X142221718Y-109221718D01*
X142125463Y-109347160D01*
X142064956Y-109493237D01*
X142064956Y-109493238D01*
X142051654Y-109594275D01*
X142023387Y-109658171D01*
X141965063Y-109696642D01*
X141911171Y-109697612D01*
X141910783Y-109700561D01*
X141902728Y-109699500D01*
X141902727Y-109699500D01*
X141902725Y-109699500D01*
X140860589Y-109699500D01*
X140793550Y-109679815D01*
X140747795Y-109627011D01*
X140737851Y-109557853D01*
X140749779Y-109519848D01*
X140769797Y-109479987D01*
X140808884Y-109315069D01*
X140808884Y-109145591D01*
X140769797Y-108980673D01*
X140693739Y-108829229D01*
X140693734Y-108829222D01*
X140630707Y-108751850D01*
X140630693Y-108751835D01*
X140244176Y-108365319D01*
X140244158Y-108365303D01*
X140177926Y-108311349D01*
X140138382Y-108253747D01*
X140136258Y-108183910D01*
X140157862Y-108139731D01*
X140188553Y-108099733D01*
X140244980Y-108058534D01*
X140314726Y-108054380D01*
X140334370Y-108060660D01*
X140393238Y-108085044D01*
X140468755Y-108094986D01*
X140558058Y-108106743D01*
X140557755Y-108109038D01*
X140607229Y-108122294D01*
X140695412Y-108173207D01*
X140797273Y-108200500D01*
X140902727Y-108200500D01*
X142087710Y-108200500D01*
X142154749Y-108220185D01*
X142192703Y-108258527D01*
X142220182Y-108302260D01*
X142220184Y-108302262D01*
X142347738Y-108429816D01*
X142500478Y-108525789D01*
X142670745Y-108585368D01*
X142670750Y-108585369D01*
X142849996Y-108605565D01*
X142850000Y-108605565D01*
X142850004Y-108605565D01*
X143029249Y-108585369D01*
X143029252Y-108585368D01*
X143029255Y-108585368D01*
X143199522Y-108525789D01*
X143352262Y-108429816D01*
X143479816Y-108302262D01*
X143575789Y-108149522D01*
X143635368Y-107979255D01*
X143635369Y-107979249D01*
X143655565Y-107800003D01*
X143655565Y-107799996D01*
X143635369Y-107620750D01*
X143635368Y-107620745D01*
X143624942Y-107590948D01*
X143575789Y-107450478D01*
X143560320Y-107425860D01*
X143531388Y-107379815D01*
X143479816Y-107297738D01*
X143352262Y-107170184D01*
X143199523Y-107074211D01*
X143029254Y-107014631D01*
X143029249Y-107014630D01*
X142850004Y-106994435D01*
X142849996Y-106994435D01*
X142670750Y-107014630D01*
X142670745Y-107014631D01*
X142500476Y-107074211D01*
X142347737Y-107170184D01*
X142220182Y-107297739D01*
X142192703Y-107341473D01*
X142140369Y-107387763D01*
X142087710Y-107399500D01*
X141241202Y-107399500D01*
X141174163Y-107379815D01*
X141128408Y-107327011D01*
X141126641Y-107322952D01*
X141074537Y-107197161D01*
X141074536Y-107197160D01*
X141074536Y-107197159D01*
X140978282Y-107071718D01*
X140978280Y-107071717D01*
X140978280Y-107071716D01*
X140905401Y-107015795D01*
X140873498Y-106979416D01*
X140870480Y-106974188D01*
X140807837Y-106911545D01*
X140774352Y-106850222D01*
X140779336Y-106780530D01*
X140820032Y-106725488D01*
X140849036Y-106703233D01*
X140867496Y-106689068D01*
X140867496Y-106689067D01*
X140870308Y-106686910D01*
X140935477Y-106661716D01*
X140945794Y-106661286D01*
X140977846Y-106661286D01*
X141044885Y-106680971D01*
X141065527Y-106697605D01*
X141147738Y-106779816D01*
X141234286Y-106834198D01*
X141288775Y-106868436D01*
X141300478Y-106875789D01*
X141436274Y-106923306D01*
X141470745Y-106935368D01*
X141470750Y-106935369D01*
X141649996Y-106955565D01*
X141650000Y-106955565D01*
X141650004Y-106955565D01*
X141829249Y-106935369D01*
X141829252Y-106935368D01*
X141829255Y-106935368D01*
X141999522Y-106875789D01*
X142152262Y-106779816D01*
X142279816Y-106652262D01*
X142375789Y-106499522D01*
X142435368Y-106329255D01*
X142435478Y-106328281D01*
X142455565Y-106150003D01*
X142455565Y-106149996D01*
X142435369Y-105970750D01*
X142435366Y-105970737D01*
X142416022Y-105915455D01*
X142412460Y-105845676D01*
X142447188Y-105785049D01*
X142509182Y-105752821D01*
X142533063Y-105750500D01*
X142778157Y-105750500D01*
X142845196Y-105770185D01*
X142890951Y-105822989D01*
X142901377Y-105888383D01*
X142894435Y-105949996D01*
X142894435Y-105950003D01*
X142914630Y-106129249D01*
X142914631Y-106129254D01*
X142974211Y-106299523D01*
X143053337Y-106425450D01*
X143070184Y-106452262D01*
X143197738Y-106579816D01*
X143281617Y-106632521D01*
X143339224Y-106668718D01*
X143350478Y-106675789D01*
X143492510Y-106725488D01*
X143520745Y-106735368D01*
X143520750Y-106735369D01*
X143699996Y-106755565D01*
X143700000Y-106755565D01*
X143700004Y-106755565D01*
X143879249Y-106735369D01*
X143879252Y-106735368D01*
X143879255Y-106735368D01*
X144049522Y-106675789D01*
X144202262Y-106579816D01*
X144329816Y-106452262D01*
X144425789Y-106299522D01*
X144485368Y-106129255D01*
X144485473Y-106128326D01*
X144505565Y-105950003D01*
X144505565Y-105949996D01*
X144485369Y-105770750D01*
X144485368Y-105770745D01*
X144470690Y-105728799D01*
X144425789Y-105600478D01*
X144419624Y-105590667D01*
X144363381Y-105501157D01*
X144329816Y-105447738D01*
X144202262Y-105320184D01*
X144189817Y-105312364D01*
X144049523Y-105224211D01*
X143879254Y-105164631D01*
X143879249Y-105164630D01*
X143700004Y-105144435D01*
X143699996Y-105144435D01*
X143544385Y-105161967D01*
X143475563Y-105149912D01*
X143442821Y-105126428D01*
X143345915Y-105029522D01*
X143345913Y-105029520D01*
X143290639Y-104997607D01*
X143254589Y-104976793D01*
X143203657Y-104963146D01*
X143152727Y-104949500D01*
X143152726Y-104949500D01*
X140961146Y-104949500D01*
X140894107Y-104929815D01*
X140885660Y-104923876D01*
X140802842Y-104860327D01*
X140656762Y-104799819D01*
X140656760Y-104799818D01*
X140500002Y-104779181D01*
X140499997Y-104779181D01*
X140446695Y-104786198D01*
X140377660Y-104775432D01*
X140336077Y-104741443D01*
X140335142Y-104742253D01*
X140332200Y-104738852D01*
X140084627Y-104491279D01*
X140051142Y-104429956D01*
X140056126Y-104360264D01*
X140097998Y-104304331D01*
X140163462Y-104279914D01*
X140172308Y-104279598D01*
X140442617Y-104279598D01*
X140509656Y-104299283D01*
X140518104Y-104305222D01*
X140520913Y-104307377D01*
X140520915Y-104307380D01*
X140646356Y-104403634D01*
X140792435Y-104464142D01*
X140867314Y-104474000D01*
X140949196Y-104484780D01*
X140949197Y-104484780D01*
X140949198Y-104484780D01*
X141001451Y-104477900D01*
X141105959Y-104464142D01*
X141252038Y-104403634D01*
X141377479Y-104307380D01*
X141473733Y-104181939D01*
X141475759Y-104177046D01*
X141519601Y-104122644D01*
X141585896Y-104100580D01*
X141590320Y-104100501D01*
X141678952Y-104100501D01*
X141678968Y-104100500D01*
X142334096Y-104100500D01*
X142334098Y-104100500D01*
X142435959Y-104073207D01*
X142527284Y-104020480D01*
X143870480Y-102677284D01*
X143878776Y-102662915D01*
X143923207Y-102585958D01*
X143950500Y-102484098D01*
X143950500Y-102262289D01*
X143970185Y-102195250D01*
X144008529Y-102157295D01*
X144052262Y-102129816D01*
X144179816Y-102002262D01*
X144275789Y-101849522D01*
X144335368Y-101679255D01*
X144336695Y-101667476D01*
X144355565Y-101500003D01*
X144355565Y-101499996D01*
X144335369Y-101320750D01*
X144335368Y-101320745D01*
X144303013Y-101228281D01*
X144275789Y-101150478D01*
X144179816Y-100997738D01*
X144052262Y-100870184D01*
X144050212Y-100868896D01*
X143899523Y-100774211D01*
X143729254Y-100714631D01*
X143729249Y-100714630D01*
X143550004Y-100694435D01*
X143549996Y-100694435D01*
X143370750Y-100714630D01*
X143370745Y-100714631D01*
X143200476Y-100774211D01*
X143047737Y-100870184D01*
X142920184Y-100997737D01*
X142824211Y-101150476D01*
X142764631Y-101320745D01*
X142764630Y-101320750D01*
X142744435Y-101499996D01*
X142744435Y-101500003D01*
X142764630Y-101679249D01*
X142764631Y-101679254D01*
X142824211Y-101849523D01*
X142890005Y-101954233D01*
X142920184Y-102002262D01*
X143047738Y-102129816D01*
X143061887Y-102138706D01*
X143108178Y-102191040D01*
X143118827Y-102260094D01*
X143090452Y-102323942D01*
X143083596Y-102331381D01*
X142858557Y-102556420D01*
X142797234Y-102589905D01*
X142727542Y-102584921D01*
X142671609Y-102543049D01*
X142665882Y-102534711D01*
X142613761Y-102451761D01*
X142579816Y-102397738D01*
X142452262Y-102270184D01*
X142299523Y-102174211D01*
X142129254Y-102114631D01*
X142129249Y-102114630D01*
X141950004Y-102094435D01*
X141949996Y-102094435D01*
X141770750Y-102114630D01*
X141770745Y-102114631D01*
X141600476Y-102174211D01*
X141474641Y-102253279D01*
X141407404Y-102272279D01*
X141340569Y-102251911D01*
X141320988Y-102235966D01*
X141143579Y-102058557D01*
X141110094Y-101997234D01*
X141115078Y-101927542D01*
X141156950Y-101871609D01*
X141165278Y-101865888D01*
X141302262Y-101779816D01*
X141429816Y-101652262D01*
X141525789Y-101499522D01*
X141585368Y-101329255D01*
X141585900Y-101324536D01*
X141605565Y-101150003D01*
X141605565Y-101149996D01*
X141585369Y-100970750D01*
X141585368Y-100970745D01*
X141549729Y-100868896D01*
X141525789Y-100800478D01*
X141429816Y-100647738D01*
X141394259Y-100612181D01*
X141360774Y-100550858D01*
X141365758Y-100481166D01*
X141407630Y-100425233D01*
X141473094Y-100400816D01*
X141481940Y-100400500D01*
X142502725Y-100400500D01*
X142502727Y-100400500D01*
X142604588Y-100373207D01*
X142643052Y-100350998D01*
X142710950Y-100334525D01*
X142718936Y-100335165D01*
X142899996Y-100355565D01*
X142900000Y-100355565D01*
X142900004Y-100355565D01*
X143079249Y-100335369D01*
X143079252Y-100335368D01*
X143079255Y-100335368D01*
X143249522Y-100275789D01*
X143402262Y-100179816D01*
X143529816Y-100052262D01*
X143537972Y-100039280D01*
X143557297Y-100008527D01*
X143609631Y-99962237D01*
X143662290Y-99950500D01*
X143902725Y-99950500D01*
X143902727Y-99950500D01*
X144004588Y-99923207D01*
X144095913Y-99870480D01*
X145120480Y-98845913D01*
X145173207Y-98754588D01*
X145200500Y-98652727D01*
X145200500Y-98547273D01*
X145200500Y-95717255D01*
X145220185Y-95650216D01*
X145236819Y-95629574D01*
X146429574Y-94436819D01*
X146490897Y-94403334D01*
X146517255Y-94400500D01*
X147823016Y-94400500D01*
X147890055Y-94420185D01*
X147935810Y-94472989D01*
X147945754Y-94542147D01*
X147920924Y-94596516D01*
X147922680Y-94597757D01*
X147917561Y-94604997D01*
X147888421Y-94662012D01*
X147866466Y-94704968D01*
X147846642Y-94771962D01*
X147834270Y-94856762D01*
X147834087Y-94858014D01*
X147834086Y-94858017D01*
X147832198Y-95766428D01*
X147832199Y-95766444D01*
X147835485Y-95811762D01*
X147835486Y-95811772D01*
X147840868Y-95848161D01*
X147844403Y-95867669D01*
X147844404Y-95867673D01*
X147887765Y-95971225D01*
X147887767Y-95971230D01*
X147909687Y-96004589D01*
X147926135Y-96029620D01*
X147964896Y-96077343D01*
X148057363Y-96141020D01*
X148057364Y-96141020D01*
X148057365Y-96141021D01*
X148063046Y-96143546D01*
X148116310Y-96188764D01*
X148136673Y-96255601D01*
X148136679Y-96257114D01*
X148130493Y-99232311D01*
X148110669Y-99299309D01*
X148068872Y-99339220D01*
X148002619Y-99377783D01*
X148002617Y-99377784D01*
X147949725Y-99423423D01*
X147907449Y-99468074D01*
X147856356Y-99568040D01*
X147856354Y-99568045D01*
X147836532Y-99635033D01*
X147834176Y-99651180D01*
X147825374Y-99711512D01*
X147823977Y-99721086D01*
X147823976Y-99721089D01*
X147823079Y-100152841D01*
X147822681Y-100344401D01*
X147822346Y-100505500D01*
X147820161Y-101556761D01*
X147819864Y-101699391D01*
X147819863Y-101699945D01*
X147819863Y-101699999D01*
X147816154Y-103483505D01*
X147796330Y-103550503D01*
X147779835Y-103570928D01*
X147431286Y-103919478D01*
X147319481Y-104031282D01*
X147319480Y-104031284D01*
X147279518Y-104100501D01*
X147240423Y-104168215D01*
X147199499Y-104320943D01*
X147199499Y-104320945D01*
X147199499Y-104489046D01*
X147199500Y-104489059D01*
X147199500Y-106343761D01*
X147179815Y-106410800D01*
X147127011Y-106456555D01*
X147120990Y-106459115D01*
X146977660Y-106515637D01*
X146977658Y-106515638D01*
X146857077Y-106607077D01*
X146765639Y-106727656D01*
X146710122Y-106868438D01*
X146704487Y-106915367D01*
X146699500Y-106956898D01*
X146699500Y-110043102D01*
X146703725Y-110078282D01*
X146710122Y-110131561D01*
X146710122Y-110131563D01*
X146710123Y-110131564D01*
X146720229Y-110157190D01*
X146765639Y-110272343D01*
X146857077Y-110392922D01*
X146977656Y-110484360D01*
X146977657Y-110484360D01*
X146977658Y-110484361D01*
X147118436Y-110539877D01*
X147206898Y-110550500D01*
X147717843Y-110550500D01*
X147784882Y-110570185D01*
X147830637Y-110622989D01*
X147840581Y-110692147D01*
X147834597Y-110714504D01*
X147834797Y-110714564D01*
X147833170Y-110720059D01*
X147833170Y-110720061D01*
X147830226Y-110730012D01*
X147813345Y-110787059D01*
X147800792Y-110873102D01*
X147800791Y-110873110D01*
X147799524Y-111483051D01*
X147798640Y-111908634D01*
X147798604Y-111925758D01*
X147778780Y-111992756D01*
X147725881Y-112038401D01*
X147674604Y-112049500D01*
X147206898Y-112049500D01*
X147167853Y-112054188D01*
X147118438Y-112060122D01*
X146977656Y-112115639D01*
X146857077Y-112207077D01*
X146765639Y-112327656D01*
X146710122Y-112468438D01*
X146709068Y-112477219D01*
X146699500Y-112556898D01*
X146699500Y-112556903D01*
X146699500Y-113776000D01*
X146679815Y-113843039D01*
X146627011Y-113888794D01*
X146575500Y-113900000D01*
X129898003Y-113900000D01*
X129830964Y-113880315D01*
X129785209Y-113827511D01*
X129775265Y-113758353D01*
X129798737Y-113701689D01*
X129843350Y-113642093D01*
X129843354Y-113642086D01*
X129893596Y-113507379D01*
X129893598Y-113507372D01*
X129899999Y-113447844D01*
X129900000Y-113447827D01*
X129900000Y-113150000D01*
X128000000Y-113150000D01*
X128000000Y-113447844D01*
X128006401Y-113507372D01*
X128006403Y-113507379D01*
X128056645Y-113642086D01*
X128056649Y-113642093D01*
X128101263Y-113701689D01*
X128125681Y-113767153D01*
X128110830Y-113835426D01*
X128061425Y-113884832D01*
X128001997Y-113900000D01*
X125798003Y-113900000D01*
X125730964Y-113880315D01*
X125685209Y-113827511D01*
X125675265Y-113758353D01*
X125698737Y-113701689D01*
X125743350Y-113642093D01*
X125743354Y-113642086D01*
X125793596Y-113507379D01*
X125793598Y-113507372D01*
X125799999Y-113447844D01*
X125800000Y-113447827D01*
X125800000Y-113150000D01*
X123900000Y-113150000D01*
X123900000Y-113447844D01*
X123906401Y-113507372D01*
X123906403Y-113507379D01*
X123956645Y-113642086D01*
X123956649Y-113642093D01*
X124001263Y-113701689D01*
X124025681Y-113767153D01*
X124010830Y-113835426D01*
X123961425Y-113884832D01*
X123901997Y-113900000D01*
X122974500Y-113900000D01*
X122907461Y-113880315D01*
X122861706Y-113827511D01*
X122850500Y-113776000D01*
X122850500Y-105911654D01*
X124175001Y-105911654D01*
X124185319Y-106012652D01*
X124239546Y-106176300D01*
X124239551Y-106176311D01*
X124330052Y-106323034D01*
X124330055Y-106323038D01*
X124451961Y-106444944D01*
X124451965Y-106444947D01*
X124598688Y-106535448D01*
X124598699Y-106535453D01*
X124762347Y-106589680D01*
X124863352Y-106599999D01*
X124900000Y-106599999D01*
X124900000Y-105825000D01*
X124175001Y-105825000D01*
X124175001Y-105911654D01*
X122850500Y-105911654D01*
X122850500Y-92274986D01*
X123250001Y-92274986D01*
X123260494Y-92377697D01*
X123315641Y-92544119D01*
X123315643Y-92544124D01*
X123407684Y-92693345D01*
X123531654Y-92817315D01*
X123680875Y-92909356D01*
X123680880Y-92909358D01*
X123847302Y-92964505D01*
X123847309Y-92964506D01*
X123950019Y-92974999D01*
X124099999Y-92974999D01*
X124600000Y-92974999D01*
X124749972Y-92974999D01*
X124749986Y-92974998D01*
X124852697Y-92964505D01*
X125019119Y-92909358D01*
X125019124Y-92909356D01*
X125168345Y-92817315D01*
X125292315Y-92693345D01*
X125384356Y-92544124D01*
X125384358Y-92544119D01*
X125439505Y-92377697D01*
X125439506Y-92377690D01*
X125449999Y-92274986D01*
X128850001Y-92274986D01*
X128860494Y-92377697D01*
X128915641Y-92544119D01*
X128915643Y-92544124D01*
X129007684Y-92693345D01*
X129131654Y-92817315D01*
X129280875Y-92909356D01*
X129280880Y-92909358D01*
X129447302Y-92964505D01*
X129447309Y-92964506D01*
X129550019Y-92974999D01*
X129699999Y-92974999D01*
X130200000Y-92974999D01*
X130349972Y-92974999D01*
X130349986Y-92974998D01*
X130452697Y-92964505D01*
X130619119Y-92909358D01*
X130619124Y-92909356D01*
X130768345Y-92817315D01*
X130892315Y-92693345D01*
X130984356Y-92544124D01*
X130984358Y-92544119D01*
X131039505Y-92377697D01*
X131039506Y-92377690D01*
X131049999Y-92274986D01*
X131050000Y-92274973D01*
X131050000Y-91825000D01*
X130200000Y-91825000D01*
X130200000Y-92974999D01*
X129699999Y-92974999D01*
X129700000Y-92974998D01*
X129700000Y-91825000D01*
X128850001Y-91825000D01*
X128850001Y-92274986D01*
X125449999Y-92274986D01*
X125450000Y-92274973D01*
X125450000Y-91825000D01*
X124600000Y-91825000D01*
X124600000Y-92974999D01*
X124099999Y-92974999D01*
X124100000Y-92974998D01*
X124100000Y-91825000D01*
X123250001Y-91825000D01*
X123250001Y-92274986D01*
X122850500Y-92274986D01*
X122850500Y-92004066D01*
X122850765Y-91995956D01*
X122853941Y-91947502D01*
X122865364Y-91773207D01*
X122867479Y-91757153D01*
X122910230Y-91542226D01*
X122914428Y-91526561D01*
X122947762Y-91428361D01*
X122984868Y-91319049D01*
X122991065Y-91304089D01*
X123014789Y-91255980D01*
X123062094Y-91204563D01*
X123129690Y-91186882D01*
X123196114Y-91208553D01*
X123240277Y-91262695D01*
X123250000Y-91310827D01*
X123250000Y-91325000D01*
X125449999Y-91325000D01*
X125449999Y-90875028D01*
X125449998Y-90875013D01*
X125439505Y-90772302D01*
X125384358Y-90605880D01*
X125384356Y-90605875D01*
X125292315Y-90456654D01*
X125247842Y-90412181D01*
X125214357Y-90350858D01*
X125219341Y-90281166D01*
X125261213Y-90225233D01*
X125326677Y-90200816D01*
X125335523Y-90200500D01*
X128964477Y-90200500D01*
X129031516Y-90220185D01*
G37*
%TD.AperFunction*%
%TA.AperFunction,Conductor*%
G36*
X133576697Y-109288990D02*
G01*
X133621044Y-109317491D01*
X134346534Y-110042981D01*
X134404215Y-109985301D01*
X134404217Y-109985299D01*
X134414879Y-109972506D01*
X134472920Y-109933608D01*
X134542776Y-109932264D01*
X134597818Y-109964210D01*
X135122054Y-110488447D01*
X135155539Y-110549770D01*
X135150555Y-110619462D01*
X135108683Y-110675395D01*
X135055069Y-110697229D01*
X135055115Y-110697399D01*
X135053770Y-110697759D01*
X135050559Y-110699067D01*
X135047271Y-110699499D01*
X135042201Y-110700858D01*
X135026306Y-110704019D01*
X134943238Y-110714956D01*
X134943237Y-110714956D01*
X134797157Y-110775464D01*
X134710683Y-110841818D01*
X134645513Y-110867012D01*
X134577069Y-110852973D01*
X134547516Y-110831123D01*
X134095915Y-110379522D01*
X134095913Y-110379520D01*
X134004588Y-110326793D01*
X133925555Y-110305616D01*
X133869969Y-110273523D01*
X133267490Y-109671044D01*
X133234005Y-109609721D01*
X133238989Y-109540029D01*
X133267490Y-109495682D01*
X133445682Y-109317491D01*
X133507005Y-109284006D01*
X133576697Y-109288990D01*
G37*
%TD.AperFunction*%
%TA.AperFunction,Conductor*%
G36*
X136103004Y-100877188D02*
G01*
X136141877Y-100903497D01*
X136230275Y-100991895D01*
X136285466Y-101033048D01*
X136293983Y-101037544D01*
X136292526Y-101040302D01*
X136336304Y-101071298D01*
X136348619Y-101093843D01*
X136349710Y-101093268D01*
X136354208Y-101101788D01*
X136354209Y-101101790D01*
X136354993Y-101102841D01*
X136395364Y-101156984D01*
X136513118Y-101274738D01*
X136568309Y-101315891D01*
X136576826Y-101320387D01*
X136575369Y-101323145D01*
X136619147Y-101354141D01*
X136631462Y-101376686D01*
X136632553Y-101376111D01*
X136637051Y-101384631D01*
X136637052Y-101384633D01*
X136649795Y-101401722D01*
X136678207Y-101439827D01*
X136795959Y-101557579D01*
X136812043Y-101569572D01*
X136851154Y-101598735D01*
X136851157Y-101598736D01*
X136859674Y-101603233D01*
X136858217Y-101605991D01*
X136901997Y-101636994D01*
X136914305Y-101659529D01*
X136915395Y-101658954D01*
X136919893Y-101667474D01*
X136919894Y-101667476D01*
X136928677Y-101679255D01*
X136961049Y-101722670D01*
X137078803Y-101840424D01*
X137133994Y-101881577D01*
X137142511Y-101886073D01*
X137141055Y-101888829D01*
X137184842Y-101919838D01*
X137197150Y-101942376D01*
X137198242Y-101941801D01*
X137202735Y-101950312D01*
X137202737Y-101950318D01*
X137219200Y-101972396D01*
X137243892Y-102005512D01*
X137361646Y-102123266D01*
X137416837Y-102164419D01*
X137425354Y-102168915D01*
X137423897Y-102171673D01*
X137467675Y-102202669D01*
X137479990Y-102225214D01*
X137481081Y-102224639D01*
X137485579Y-102233159D01*
X137526735Y-102288355D01*
X137644487Y-102406107D01*
X137660571Y-102418100D01*
X137699682Y-102447263D01*
X137699685Y-102447264D01*
X137708202Y-102451761D01*
X137706745Y-102454519D01*
X137750525Y-102485522D01*
X137762833Y-102508057D01*
X137763923Y-102507482D01*
X137768421Y-102516002D01*
X137809577Y-102571198D01*
X137927331Y-102688952D01*
X137982522Y-102730105D01*
X137991039Y-102734601D01*
X137989583Y-102737357D01*
X138033370Y-102768366D01*
X138045678Y-102790904D01*
X138046770Y-102790329D01*
X138051263Y-102798840D01*
X138051265Y-102798846D01*
X138053376Y-102801677D01*
X138092420Y-102854040D01*
X138210174Y-102971794D01*
X138265365Y-103012947D01*
X138273882Y-103017443D01*
X138272425Y-103020201D01*
X138316203Y-103051197D01*
X138328518Y-103073742D01*
X138329609Y-103073167D01*
X138334107Y-103081687D01*
X138334108Y-103081689D01*
X138336961Y-103085515D01*
X138375263Y-103136883D01*
X138493017Y-103254637D01*
X138548208Y-103295790D01*
X138556725Y-103300286D01*
X138555268Y-103303044D01*
X138599046Y-103334040D01*
X138611361Y-103356585D01*
X138612452Y-103356010D01*
X138616950Y-103364530D01*
X138616951Y-103364532D01*
X138631514Y-103384062D01*
X138658106Y-103419726D01*
X138775858Y-103537478D01*
X138775861Y-103537480D01*
X138831053Y-103578634D01*
X138831056Y-103578635D01*
X138839573Y-103583132D01*
X138838116Y-103585890D01*
X138881896Y-103616893D01*
X138894204Y-103639428D01*
X138895294Y-103638853D01*
X138899792Y-103647373D01*
X138940948Y-103702569D01*
X139058702Y-103820323D01*
X139113893Y-103861476D01*
X139122410Y-103865972D01*
X139120954Y-103868728D01*
X139164741Y-103899737D01*
X139177049Y-103922275D01*
X139178141Y-103921700D01*
X139182634Y-103930211D01*
X139182636Y-103930217D01*
X139199099Y-103952295D01*
X139223791Y-103985411D01*
X139300699Y-104062319D01*
X139334184Y-104123642D01*
X139329200Y-104193334D01*
X139300699Y-104237681D01*
X139223791Y-104314588D01*
X139223789Y-104314590D01*
X139182638Y-104369779D01*
X139178141Y-104378299D01*
X139175387Y-104376845D01*
X139144347Y-104420650D01*
X139121838Y-104432940D01*
X139122412Y-104434028D01*
X139113897Y-104438522D01*
X139113895Y-104438523D01*
X139113893Y-104438524D01*
X139113892Y-104438525D01*
X139058700Y-104479678D01*
X138940948Y-104597430D01*
X138899795Y-104652622D01*
X138895298Y-104661142D01*
X138892544Y-104659688D01*
X138861504Y-104703493D01*
X138838995Y-104715783D01*
X138839569Y-104716871D01*
X138831049Y-104721368D01*
X138775860Y-104762519D01*
X138658106Y-104880273D01*
X138616953Y-104935465D01*
X138612456Y-104943985D01*
X138609702Y-104942531D01*
X138578662Y-104986336D01*
X138556153Y-104998626D01*
X138556727Y-104999714D01*
X138548212Y-105004208D01*
X138548210Y-105004209D01*
X138548208Y-105004210D01*
X138548207Y-105004211D01*
X138493015Y-105045364D01*
X138375263Y-105163116D01*
X138334110Y-105218308D01*
X138329613Y-105226828D01*
X138326859Y-105225374D01*
X138295819Y-105269179D01*
X138273310Y-105281469D01*
X138273884Y-105282557D01*
X138265369Y-105287051D01*
X138265367Y-105287052D01*
X138265365Y-105287053D01*
X138265364Y-105287054D01*
X138210172Y-105328207D01*
X138092420Y-105445959D01*
X138092419Y-105445961D01*
X138079345Y-105463494D01*
X138023489Y-105505469D01*
X137953807Y-105510583D01*
X137892422Y-105477212D01*
X137881569Y-105464859D01*
X137829296Y-105396736D01*
X137703855Y-105300482D01*
X137701834Y-105299645D01*
X137557776Y-105239974D01*
X137557774Y-105239973D01*
X137401015Y-105219336D01*
X137401013Y-105219336D01*
X137244253Y-105239973D01*
X137244251Y-105239974D01*
X137098174Y-105300481D01*
X136972732Y-105396736D01*
X136876477Y-105522178D01*
X136815970Y-105668255D01*
X136815969Y-105668257D01*
X136795332Y-105825016D01*
X136795332Y-105825019D01*
X136815969Y-105981778D01*
X136815970Y-105981780D01*
X136865912Y-106102352D01*
X136876478Y-106127859D01*
X136972732Y-106253300D01*
X137037291Y-106302838D01*
X137078493Y-106359263D01*
X137082648Y-106429009D01*
X137049486Y-106488893D01*
X136961047Y-106577332D01*
X136919896Y-106632521D01*
X136915399Y-106641041D01*
X136912645Y-106639587D01*
X136881605Y-106683392D01*
X136859096Y-106695682D01*
X136859670Y-106696770D01*
X136851150Y-106701267D01*
X136795961Y-106742418D01*
X136678207Y-106860172D01*
X136637054Y-106915364D01*
X136632557Y-106923884D01*
X136629803Y-106922430D01*
X136598763Y-106966235D01*
X136576254Y-106978525D01*
X136576828Y-106979613D01*
X136568313Y-106984107D01*
X136568311Y-106984108D01*
X136568309Y-106984109D01*
X136568308Y-106984110D01*
X136513116Y-107025263D01*
X136395364Y-107143015D01*
X136354211Y-107198207D01*
X136349714Y-107206727D01*
X136346960Y-107205273D01*
X136315920Y-107249078D01*
X136293411Y-107261368D01*
X136293985Y-107262456D01*
X136285470Y-107266950D01*
X136285468Y-107266951D01*
X136285466Y-107266952D01*
X136285465Y-107266953D01*
X136230273Y-107308106D01*
X136112519Y-107425860D01*
X136071368Y-107481049D01*
X136066871Y-107489569D01*
X136064117Y-107488115D01*
X136033077Y-107531920D01*
X136010568Y-107544210D01*
X136011142Y-107545298D01*
X136002627Y-107549792D01*
X136002625Y-107549793D01*
X136002623Y-107549794D01*
X136002622Y-107549795D01*
X135947430Y-107590948D01*
X135829678Y-107708700D01*
X135788525Y-107763892D01*
X135784028Y-107772412D01*
X135781274Y-107770958D01*
X135750234Y-107814763D01*
X135727725Y-107827053D01*
X135728299Y-107828141D01*
X135719779Y-107832638D01*
X135664590Y-107873789D01*
X135664588Y-107873791D01*
X135587681Y-107950699D01*
X135526358Y-107984184D01*
X135456666Y-107979200D01*
X135412319Y-107950699D01*
X135335411Y-107873791D01*
X135302295Y-107849099D01*
X135280217Y-107832636D01*
X135280211Y-107832634D01*
X135271700Y-107828141D01*
X135273155Y-107825384D01*
X135229365Y-107794367D01*
X135217062Y-107771834D01*
X135215972Y-107772410D01*
X135211476Y-107763893D01*
X135170323Y-107708702D01*
X135052569Y-107590948D01*
X135018992Y-107565912D01*
X134997375Y-107549793D01*
X134997373Y-107549792D01*
X134988853Y-107545294D01*
X134990307Y-107542539D01*
X134946514Y-107511513D01*
X134934222Y-107488997D01*
X134933132Y-107489573D01*
X134928635Y-107481056D01*
X134928634Y-107481053D01*
X134887479Y-107425860D01*
X134887478Y-107425858D01*
X134769726Y-107308106D01*
X134720925Y-107271718D01*
X134714532Y-107266951D01*
X134714530Y-107266950D01*
X134706010Y-107262452D01*
X134707464Y-107259697D01*
X134663671Y-107228671D01*
X134651377Y-107206149D01*
X134650286Y-107206725D01*
X134645790Y-107198208D01*
X134604637Y-107143017D01*
X134486883Y-107025263D01*
X134453306Y-107000227D01*
X134431689Y-106984108D01*
X134431687Y-106984107D01*
X134423167Y-106979609D01*
X134424621Y-106976854D01*
X134380828Y-106945828D01*
X134368534Y-106923306D01*
X134367443Y-106923882D01*
X134362947Y-106915365D01*
X134321794Y-106860174D01*
X134204040Y-106742420D01*
X134151485Y-106703233D01*
X134148846Y-106701265D01*
X134148840Y-106701263D01*
X134140329Y-106696770D01*
X134141784Y-106694013D01*
X134097994Y-106662996D01*
X134085691Y-106640463D01*
X134084601Y-106641039D01*
X134080105Y-106632522D01*
X134038952Y-106577331D01*
X133921198Y-106459577D01*
X133873372Y-106423916D01*
X133866004Y-106418422D01*
X133866002Y-106418421D01*
X133857482Y-106413923D01*
X133858936Y-106411168D01*
X133815143Y-106380142D01*
X133802851Y-106357626D01*
X133801761Y-106358202D01*
X133797264Y-106349685D01*
X133797263Y-106349682D01*
X133762332Y-106302836D01*
X133756107Y-106294487D01*
X133638355Y-106176735D01*
X133593431Y-106143238D01*
X133583161Y-106135580D01*
X133583159Y-106135579D01*
X133574639Y-106131081D01*
X133576093Y-106128326D01*
X133532300Y-106097300D01*
X133520006Y-106074778D01*
X133518915Y-106075354D01*
X133514419Y-106066837D01*
X133473266Y-106011646D01*
X133355512Y-105893892D01*
X133310442Y-105860286D01*
X133300318Y-105852737D01*
X133300312Y-105852735D01*
X133291801Y-105848242D01*
X133293256Y-105845485D01*
X133249466Y-105814468D01*
X133237163Y-105791935D01*
X133236073Y-105792511D01*
X133231577Y-105783994D01*
X133190424Y-105728803D01*
X133072670Y-105611049D01*
X133037944Y-105585156D01*
X133017476Y-105569894D01*
X133017474Y-105569893D01*
X133008954Y-105565395D01*
X133010408Y-105562640D01*
X132966615Y-105531614D01*
X132954323Y-105509098D01*
X132953233Y-105509674D01*
X132948736Y-105501157D01*
X132948735Y-105501154D01*
X132909846Y-105449000D01*
X132907579Y-105445959D01*
X132789827Y-105328207D01*
X132734988Y-105287317D01*
X132734633Y-105287052D01*
X132734631Y-105287051D01*
X132726111Y-105282553D01*
X132727565Y-105279798D01*
X132683772Y-105248772D01*
X132671478Y-105226250D01*
X132670387Y-105226826D01*
X132665891Y-105218309D01*
X132624738Y-105163118D01*
X132506984Y-105045364D01*
X132473407Y-105020328D01*
X132451790Y-105004209D01*
X132451788Y-105004208D01*
X132443268Y-104999710D01*
X132444722Y-104996955D01*
X132400929Y-104965929D01*
X132388635Y-104943407D01*
X132387544Y-104943983D01*
X132383048Y-104935466D01*
X132341895Y-104880275D01*
X132224141Y-104762521D01*
X132191025Y-104737829D01*
X132168947Y-104721366D01*
X132168941Y-104721364D01*
X132160430Y-104716871D01*
X132161885Y-104714114D01*
X132118095Y-104683097D01*
X132105792Y-104660564D01*
X132104702Y-104661140D01*
X132100206Y-104652623D01*
X132059053Y-104597432D01*
X131941299Y-104479678D01*
X131901367Y-104449903D01*
X131886105Y-104438523D01*
X131886103Y-104438522D01*
X131877583Y-104434024D01*
X131879037Y-104431269D01*
X131835244Y-104400243D01*
X131822952Y-104377727D01*
X131821862Y-104378303D01*
X131817365Y-104369786D01*
X131817364Y-104369783D01*
X131776209Y-104314590D01*
X131776208Y-104314588D01*
X131699301Y-104237681D01*
X131665816Y-104176358D01*
X131670800Y-104106666D01*
X131699301Y-104062319D01*
X131730338Y-104031282D01*
X131776206Y-103985414D01*
X131817364Y-103930217D01*
X131817364Y-103930214D01*
X131821859Y-103921702D01*
X131824619Y-103923158D01*
X131855603Y-103879388D01*
X131878169Y-103867065D01*
X131877592Y-103865971D01*
X131886102Y-103861477D01*
X131886105Y-103861477D01*
X131941302Y-103820319D01*
X132059049Y-103702572D01*
X132100207Y-103647375D01*
X132100207Y-103647372D01*
X132104701Y-103638862D01*
X132107460Y-103640318D01*
X132138446Y-103596545D01*
X132161009Y-103584223D01*
X132160432Y-103583129D01*
X132168944Y-103578634D01*
X132168947Y-103578634D01*
X132195632Y-103558736D01*
X132224139Y-103537480D01*
X132224140Y-103537478D01*
X132224144Y-103537476D01*
X132341891Y-103419729D01*
X132383049Y-103364532D01*
X132383049Y-103364529D01*
X132387543Y-103356019D01*
X132390302Y-103357475D01*
X132421288Y-103313702D01*
X132443854Y-103301379D01*
X132443277Y-103300285D01*
X132451787Y-103295791D01*
X132451790Y-103295791D01*
X132506987Y-103254633D01*
X132624734Y-103136886D01*
X132665892Y-103081689D01*
X132665892Y-103081686D01*
X132670386Y-103073176D01*
X132673145Y-103074632D01*
X132704131Y-103030859D01*
X132726697Y-103018536D01*
X132726120Y-103017442D01*
X132734629Y-103012950D01*
X132734630Y-103012948D01*
X132734633Y-103012948D01*
X132773578Y-102983908D01*
X132839086Y-102959615D01*
X132907331Y-102974594D01*
X132909704Y-102975929D01*
X132912789Y-102977710D01*
X132912792Y-102977713D01*
X132942313Y-102994757D01*
X132951470Y-103000044D01*
X132987842Y-103031943D01*
X133026014Y-103081688D01*
X133028951Y-103085515D01*
X133154392Y-103181769D01*
X133300471Y-103242277D01*
X133378852Y-103252596D01*
X133457232Y-103262915D01*
X133457233Y-103262915D01*
X133457234Y-103262915D01*
X133520141Y-103254633D01*
X133613995Y-103242277D01*
X133760074Y-103181769D01*
X133885515Y-103085515D01*
X133981769Y-102960074D01*
X134042277Y-102813995D01*
X134049834Y-102756588D01*
X134078100Y-102692692D01*
X134136424Y-102654220D01*
X134156586Y-102649834D01*
X134213995Y-102642277D01*
X134360074Y-102581769D01*
X134485515Y-102485515D01*
X134581769Y-102360074D01*
X134642277Y-102213995D01*
X134656493Y-102106012D01*
X134684759Y-102042116D01*
X134743084Y-102003645D01*
X134763247Y-101999259D01*
X134871229Y-101985043D01*
X135017308Y-101924535D01*
X135142749Y-101828281D01*
X135239003Y-101702840D01*
X135299511Y-101556761D01*
X135306441Y-101504114D01*
X135334706Y-101440220D01*
X135393030Y-101401748D01*
X135413191Y-101397362D01*
X135506762Y-101385044D01*
X135652841Y-101324536D01*
X135778282Y-101228282D01*
X135874536Y-101102841D01*
X135935044Y-100956762D01*
X135935044Y-100956760D01*
X135938154Y-100949253D01*
X135939959Y-100950000D01*
X135970783Y-100899427D01*
X136033628Y-100868896D01*
X136103004Y-100877188D01*
G37*
%TD.AperFunction*%
%TA.AperFunction,Conductor*%
G36*
X135846093Y-94432685D02*
G01*
X135891848Y-94485489D01*
X135901792Y-94554647D01*
X135886443Y-94598996D01*
X135883658Y-94603818D01*
X135826978Y-94740657D01*
X135826978Y-94740659D01*
X135815873Y-94825000D01*
X136163124Y-94825000D01*
X136230163Y-94844685D01*
X136275918Y-94897489D01*
X136285862Y-94966647D01*
X136256837Y-95030203D01*
X136217585Y-95060400D01*
X136213494Y-95062400D01*
X136159033Y-95075000D01*
X135815874Y-95075000D01*
X135826978Y-95159340D01*
X135826978Y-95159342D01*
X135883656Y-95296175D01*
X135973826Y-95413687D01*
X135975687Y-95415548D01*
X135976753Y-95417502D01*
X135978768Y-95420127D01*
X135978358Y-95420441D01*
X136009168Y-95476873D01*
X136012000Y-95503220D01*
X136012000Y-95546949D01*
X136022279Y-95617506D01*
X136022279Y-95617507D01*
X136022280Y-95617509D01*
X136067111Y-95709211D01*
X136075489Y-95726349D01*
X136161151Y-95812011D01*
X136269988Y-95865219D01*
X136269989Y-95865219D01*
X136269991Y-95865220D01*
X136340551Y-95875500D01*
X136613001Y-95875499D01*
X136680039Y-95895183D01*
X136725794Y-95947987D01*
X136737000Y-95999499D01*
X136737000Y-96771950D01*
X136747279Y-96842506D01*
X136747279Y-96842507D01*
X136747280Y-96842509D01*
X136783772Y-96917154D01*
X136800489Y-96951349D01*
X136857244Y-97008104D01*
X136890729Y-97069427D01*
X136885745Y-97139119D01*
X136843873Y-97195052D01*
X136811066Y-97210990D01*
X136811421Y-97211846D01*
X136803913Y-97214955D01*
X136803912Y-97214956D01*
X136775335Y-97226793D01*
X136657834Y-97275463D01*
X136532392Y-97371718D01*
X136436137Y-97497160D01*
X136375630Y-97643237D01*
X136375629Y-97643239D01*
X136354992Y-97799998D01*
X136354992Y-97800001D01*
X136375629Y-97956759D01*
X136375629Y-97956761D01*
X136375630Y-97956762D01*
X136389274Y-97989702D01*
X136417502Y-98057851D01*
X136424970Y-98127321D01*
X136393694Y-98189800D01*
X136390621Y-98192984D01*
X135966460Y-98617145D01*
X135905137Y-98650630D01*
X135835445Y-98645646D01*
X135780404Y-98604952D01*
X135732963Y-98543125D01*
X135607522Y-98446871D01*
X135605299Y-98445950D01*
X135522125Y-98411498D01*
X135467722Y-98367657D01*
X135445657Y-98301362D01*
X135458770Y-98241281D01*
X135469798Y-98219323D01*
X135508884Y-98054408D01*
X135508884Y-97884930D01*
X135469797Y-97720012D01*
X135393739Y-97568568D01*
X135393734Y-97568561D01*
X135330702Y-97491184D01*
X135330690Y-97491170D01*
X135296535Y-97457017D01*
X135296534Y-97457017D01*
X134535688Y-98217863D01*
X134474365Y-98251348D01*
X134404673Y-98246364D01*
X134360326Y-98217863D01*
X133581802Y-97439339D01*
X133581801Y-97439339D01*
X133565326Y-97455816D01*
X133565310Y-97455833D01*
X133545636Y-97479985D01*
X133488033Y-97519528D01*
X133418196Y-97521651D01*
X133358297Y-97485680D01*
X133327354Y-97423035D01*
X133325499Y-97401667D01*
X133325499Y-97177129D01*
X133325498Y-97177123D01*
X133324040Y-97163562D01*
X133319091Y-97117517D01*
X133316923Y-97111705D01*
X133307256Y-97085786D01*
X133935354Y-97085786D01*
X134448006Y-97598438D01*
X134448007Y-97598438D01*
X134942982Y-97103464D01*
X134908821Y-97069303D01*
X134908805Y-97069289D01*
X134831438Y-97006265D01*
X134831431Y-97006260D01*
X134679987Y-96930202D01*
X134515069Y-96891116D01*
X134345592Y-96891116D01*
X134180673Y-96930202D01*
X134029229Y-97006260D01*
X134029222Y-97006265D01*
X133951852Y-97069291D01*
X133951845Y-97069297D01*
X133935354Y-97085786D01*
X133307256Y-97085786D01*
X133268797Y-96982671D01*
X133268793Y-96982664D01*
X133182547Y-96867455D01*
X133182544Y-96867452D01*
X133067335Y-96781206D01*
X133067328Y-96781202D01*
X132932482Y-96730908D01*
X132932483Y-96730908D01*
X132872883Y-96724501D01*
X132872881Y-96724500D01*
X132872873Y-96724500D01*
X132872865Y-96724500D01*
X132492255Y-96724500D01*
X132425216Y-96704815D01*
X132404574Y-96688181D01*
X132403573Y-96687180D01*
X132370088Y-96625857D01*
X132375072Y-96556165D01*
X132416944Y-96500232D01*
X132482408Y-96475815D01*
X132491237Y-96475499D01*
X132872872Y-96475499D01*
X132932483Y-96469091D01*
X133067331Y-96418796D01*
X133182546Y-96332546D01*
X133262914Y-96225188D01*
X133318847Y-96183318D01*
X133362180Y-96175500D01*
X133477724Y-96175500D01*
X133477727Y-96175500D01*
X133560260Y-96153385D01*
X133608531Y-96150222D01*
X133650000Y-96155682D01*
X133806762Y-96135044D01*
X133952841Y-96074536D01*
X134078282Y-95978282D01*
X134174536Y-95852841D01*
X134235044Y-95706762D01*
X134255682Y-95550000D01*
X134255280Y-95546949D01*
X134237981Y-95415548D01*
X134235044Y-95393238D01*
X134175959Y-95250596D01*
X134168491Y-95181129D01*
X134199766Y-95118649D01*
X134259855Y-95082997D01*
X134329680Y-95085491D01*
X134356494Y-95098152D01*
X134400475Y-95125788D01*
X134570745Y-95185368D01*
X134570750Y-95185369D01*
X134749996Y-95205565D01*
X134750000Y-95205565D01*
X134750004Y-95205565D01*
X134929249Y-95185369D01*
X134929252Y-95185368D01*
X134929255Y-95185368D01*
X135099522Y-95125789D01*
X135252262Y-95029816D01*
X135379816Y-94902262D01*
X135475789Y-94749522D01*
X135535368Y-94579255D01*
X135535696Y-94576347D01*
X135541694Y-94523116D01*
X135568761Y-94458702D01*
X135626356Y-94419147D01*
X135664914Y-94413000D01*
X135779054Y-94413000D01*
X135846093Y-94432685D01*
G37*
%TD.AperFunction*%
%TA.AperFunction,Conductor*%
G36*
X138966959Y-94701515D02*
G01*
X138994991Y-94715220D01*
X139065551Y-94725500D01*
X139259448Y-94725499D01*
X139262999Y-94725499D01*
X139330039Y-94745183D01*
X139375794Y-94797987D01*
X139387000Y-94849498D01*
X139387000Y-95046950D01*
X139397279Y-95117507D01*
X139397279Y-95117508D01*
X139410984Y-95145543D01*
X139422741Y-95214416D01*
X139410984Y-95254457D01*
X139397281Y-95282488D01*
X139397280Y-95282491D01*
X139387000Y-95353051D01*
X139387000Y-95353055D01*
X139387000Y-95353056D01*
X139387000Y-95550500D01*
X139367315Y-95617539D01*
X139314511Y-95663294D01*
X139263001Y-95674500D01*
X139065549Y-95674500D01*
X138994992Y-95684779D01*
X138994991Y-95684779D01*
X138966957Y-95698484D01*
X138898084Y-95710241D01*
X138858043Y-95698484D01*
X138830011Y-95684781D01*
X138830009Y-95684780D01*
X138830002Y-95684779D01*
X138759449Y-95674500D01*
X138759443Y-95674500D01*
X138565549Y-95674500D01*
X138494992Y-95684779D01*
X138494991Y-95684779D01*
X138466957Y-95698484D01*
X138398084Y-95710241D01*
X138358043Y-95698484D01*
X138330011Y-95684781D01*
X138330009Y-95684780D01*
X138330002Y-95684779D01*
X138259449Y-95674500D01*
X138259443Y-95674500D01*
X138065549Y-95674500D01*
X137994992Y-95684779D01*
X137994991Y-95684779D01*
X137966957Y-95698484D01*
X137898084Y-95710241D01*
X137858043Y-95698484D01*
X137830011Y-95684781D01*
X137830009Y-95684780D01*
X137830002Y-95684779D01*
X137759449Y-95674500D01*
X137759443Y-95674500D01*
X137561999Y-95674500D01*
X137494960Y-95654815D01*
X137449205Y-95602011D01*
X137437999Y-95550500D01*
X137437999Y-95546955D01*
X137438000Y-95546949D01*
X137437999Y-95503220D01*
X137457684Y-95436184D01*
X137474324Y-95415536D01*
X137476181Y-95413679D01*
X137566342Y-95296178D01*
X137623021Y-95159342D01*
X137623021Y-95159340D01*
X137634126Y-95075000D01*
X137290968Y-95075000D01*
X137236507Y-95062400D01*
X137232416Y-95060400D01*
X137180834Y-95013272D01*
X137162920Y-94945738D01*
X137184361Y-94879239D01*
X137238351Y-94834889D01*
X137286877Y-94825000D01*
X137634126Y-94825000D01*
X137648359Y-94808770D01*
X137650250Y-94796647D01*
X137696631Y-94744392D01*
X137755108Y-94727599D01*
X137754980Y-94725823D01*
X137759444Y-94725499D01*
X137759448Y-94725499D01*
X137830009Y-94715220D01*
X137858039Y-94701516D01*
X137926909Y-94689756D01*
X137966959Y-94701515D01*
X137994991Y-94715220D01*
X138065551Y-94725500D01*
X138259448Y-94725499D01*
X138259450Y-94725499D01*
X138287672Y-94721387D01*
X138330009Y-94715220D01*
X138358039Y-94701516D01*
X138426909Y-94689756D01*
X138466959Y-94701515D01*
X138494991Y-94715220D01*
X138565551Y-94725500D01*
X138759448Y-94725499D01*
X138759450Y-94725499D01*
X138787672Y-94721387D01*
X138830009Y-94715220D01*
X138858039Y-94701516D01*
X138926909Y-94689756D01*
X138966959Y-94701515D01*
G37*
%TD.AperFunction*%
%TD*%
M02*
