%TF.GenerationSoftware,KiCad,Pcbnew,8.0.5-8.0.5-0~ubuntu24.04.1*%
%TF.CreationDate,2024-09-15T17:00:47-06:00*%
%TF.ProjectId,esp32-s3 single motor & battery controller,65737033-322d-4733-9320-73696e676c65,rev?*%
%TF.SameCoordinates,Original*%
%TF.FileFunction,Copper,L2,Inr*%
%TF.FilePolarity,Positive*%
%FSLAX46Y46*%
G04 Gerber Fmt 4.6, Leading zero omitted, Abs format (unit mm)*
G04 Created by KiCad (PCBNEW 8.0.5-8.0.5-0~ubuntu24.04.1) date 2024-09-15 17:00:47*
%MOMM*%
%LPD*%
G01*
G04 APERTURE LIST*
G04 Aperture macros list*
%AMRoundRect*
0 Rectangle with rounded corners*
0 $1 Rounding radius*
0 $2 $3 $4 $5 $6 $7 $8 $9 X,Y pos of 4 corners*
0 Add a 4 corners polygon primitive as box body*
4,1,4,$2,$3,$4,$5,$6,$7,$8,$9,$2,$3,0*
0 Add four circle primitives for the rounded corners*
1,1,$1+$1,$2,$3*
1,1,$1+$1,$4,$5*
1,1,$1+$1,$6,$7*
1,1,$1+$1,$8,$9*
0 Add four rect primitives between the rounded corners*
20,1,$1+$1,$2,$3,$4,$5,0*
20,1,$1+$1,$4,$5,$6,$7,0*
20,1,$1+$1,$6,$7,$8,$9,0*
20,1,$1+$1,$8,$9,$2,$3,0*%
G04 Aperture macros list end*
%TA.AperFunction,ComponentPad*%
%ADD10R,1.000000X1.000000*%
%TD*%
%TA.AperFunction,ComponentPad*%
%ADD11O,1.000000X1.000000*%
%TD*%
%TA.AperFunction,ComponentPad*%
%ADD12C,0.600000*%
%TD*%
%TA.AperFunction,ComponentPad*%
%ADD13RoundRect,0.250000X0.725000X-0.600000X0.725000X0.600000X-0.725000X0.600000X-0.725000X-0.600000X0*%
%TD*%
%TA.AperFunction,ComponentPad*%
%ADD14O,1.950000X1.700000*%
%TD*%
%TA.AperFunction,ViaPad*%
%ADD15C,0.600000*%
%TD*%
%TA.AperFunction,Conductor*%
%ADD16C,0.200000*%
%TD*%
G04 APERTURE END LIST*
D10*
%TO.N,/1CSA-A*%
%TO.C,J4*%
X149000000Y-98870000D03*
D11*
%TO.N,/1CSA-B*%
X149000000Y-97600000D03*
%TO.N,/1CSA-C*%
X149000000Y-96330000D03*
%TD*%
D12*
%TO.N,GNDPWR*%
%TO.C,U4*%
X112000000Y-126350000D03*
X113050000Y-127400000D03*
X112000000Y-127400000D03*
X110950000Y-127400000D03*
X112000000Y-128450000D03*
%TD*%
D13*
%TO.N,Net-(J5-Pin_1)*%
%TO.C,J5*%
X143372548Y-125072800D03*
D14*
%TO.N,Net-(J5-Pin_2)*%
X143372548Y-122572800D03*
%TO.N,/PSU/BATT+*%
X143372548Y-120072800D03*
%TD*%
D10*
%TO.N,/1A*%
%TO.C,J3*%
X149000000Y-94000000D03*
D11*
%TO.N,/1B*%
X149000000Y-92730000D03*
%TO.N,/1C*%
X149000000Y-91460000D03*
%TD*%
D15*
%TO.N,VDD*%
X129575000Y-105577817D03*
X140949197Y-103879098D03*
X141149265Y-94850000D03*
X138356629Y-109161887D03*
X131000000Y-94700000D03*
X127700000Y-93850000D03*
%TO.N,GND*%
X123850000Y-100400000D03*
X136300000Y-104350000D03*
X143350000Y-109050000D03*
X145150000Y-102500000D03*
X145100000Y-113400000D03*
X138250000Y-91200000D03*
X125100000Y-93900000D03*
X137500000Y-104300000D03*
X131800000Y-91800000D03*
X138650000Y-95250000D03*
X135900000Y-113600000D03*
X134350000Y-110150000D03*
X123600000Y-106500000D03*
X123600000Y-96600000D03*
X130500000Y-113550000D03*
X145200000Y-108150000D03*
X135000000Y-102750000D03*
X135300000Y-95450000D03*
X126550000Y-112450000D03*
X145850000Y-91700000D03*
%TO.N,/MOTORPWR*%
X134288419Y-119542800D03*
%TO.N,GNDPWR*%
X125600000Y-129400000D03*
X127700000Y-120000000D03*
X125050000Y-128800000D03*
X138500000Y-121400000D03*
X151100000Y-118300000D03*
X150900000Y-98700000D03*
X150100000Y-119200000D03*
X152100000Y-118300000D03*
X110800000Y-121500000D03*
X125600000Y-128200000D03*
X136000000Y-124300000D03*
X150100000Y-117300000D03*
X152100000Y-119200000D03*
X150900000Y-97700000D03*
X112395487Y-123274456D03*
X125600000Y-126900000D03*
X138400000Y-130800000D03*
X109500000Y-123300000D03*
X113700000Y-123300000D03*
X152100000Y-117300000D03*
X151800000Y-97700000D03*
X151800000Y-98700000D03*
X109900000Y-121500000D03*
X138500000Y-122200000D03*
X151100000Y-117300000D03*
X125050000Y-127500000D03*
X151800000Y-96700000D03*
X118900000Y-129200000D03*
X150900000Y-96700000D03*
X125050000Y-130000000D03*
X119700000Y-129400000D03*
X109000000Y-121500000D03*
X135200000Y-124000000D03*
X128873528Y-130925000D03*
X150100000Y-118300000D03*
X151100000Y-119200000D03*
%TO.N,Net-(C19-Pad1)*%
X130500000Y-106300000D03*
%TO.N,/1CSA-B*%
X135100000Y-111300000D03*
%TO.N,/1A*%
X138925001Y-107133076D03*
X142900000Y-99550000D03*
%TO.N,/1CSA-A*%
X133300000Y-111450000D03*
%TO.N,/1CSA-C*%
X136500000Y-110700000D03*
%TO.N,/1C*%
X138900000Y-101400000D03*
X142400000Y-97600000D03*
%TO.N,/CS1*%
X133650000Y-95550000D03*
%TO.N,/1B*%
X140950000Y-99050000D03*
X137401014Y-105825018D03*
%TO.N,/PSU/BATT+*%
X151700000Y-123200000D03*
X122200000Y-123048528D03*
%TO.N,/PSU/IN*%
X112500000Y-118100000D03*
%TO.N,/UART0_TX*%
X139650000Y-110800000D03*
X132750000Y-99850000D03*
%TO.N,/SDA1*%
X136100000Y-109100000D03*
X135288111Y-121904745D03*
X114700000Y-130500000D03*
X126100000Y-96900000D03*
X108778216Y-126909517D03*
%TO.N,/UART0_RX*%
X132250924Y-101049074D03*
X140325000Y-110100000D03*
%TO.N,/SCL1*%
X135372454Y-122795674D03*
X121800000Y-130900000D03*
X137000000Y-109500000D03*
X108800000Y-128000000D03*
X125050000Y-96900000D03*
%TO.N,Net-(U5-MTDI)*%
X134714467Y-101399999D03*
%TO.N,Net-(U5-MTDO)*%
X135350000Y-100800000D03*
%TO.N,Net-(U5-MTCK)*%
X135304681Y-98971407D03*
%TO.N,/NRST*%
X126700000Y-107700000D03*
%TO.N,unconnected-(U5-GPIO12-Pad17)*%
X137650000Y-108550000D03*
%TO.N,/SCK1*%
X135950000Y-93300000D03*
X136960674Y-97800000D03*
%TO.N,/CS0*%
X134057233Y-102057233D03*
%TO.N,Net-(Q4-G)*%
X113625033Y-121772158D03*
X109675735Y-125075735D03*
X114765686Y-118075000D03*
%TO.N,Net-(Q4-S)*%
X109607025Y-129844445D03*
X116045701Y-122164207D03*
%TO.N,Net-(U5-GPIO19{slash}USB_D-)*%
X140550000Y-107500000D03*
X137800000Y-97700000D03*
%TO.N,Net-(U5-GPIO20{slash}USB_D+)*%
X139200000Y-97800000D03*
X140439214Y-106260786D03*
%TO.N,Net-(U5-GPIO21)*%
X140500000Y-105384863D03*
X138600000Y-97200000D03*
%TO.N,Net-(D3-A)*%
X125500000Y-102600000D03*
%TO.N,/LED*%
X133457233Y-102657233D03*
X126300000Y-105900000D03*
%TO.N,Net-(U6-QA)*%
X140650000Y-96350000D03*
%TO.N,Net-(U4-VCC)*%
X118100000Y-125047800D03*
%TO.N,/PSU/REGN*%
X115150000Y-128450000D03*
%TO.N,Net-(U3-BAT)*%
X136776757Y-119248437D03*
%TO.N,/PSU/Low*%
X148200000Y-124100000D03*
X140800000Y-123600000D03*
%TO.N,Net-(Q1-G)*%
X120350000Y-126400000D03*
X115100000Y-126698533D03*
%TO.N,Net-(Q2-G)*%
X114500000Y-129100000D03*
X119575000Y-127500000D03*
%TO.N,Net-(Q7-G)*%
X141500000Y-124440000D03*
X125050000Y-126300000D03*
%TO.N,Net-(U4-ACDRV)*%
X112200000Y-124051471D03*
X108700000Y-125300000D03*
%TO.N,Net-(U4-CMSRC)*%
X113325735Y-124025735D03*
X108696041Y-129736938D03*
%TO.N,Net-(U4-BATSRC)*%
X111300000Y-130500000D03*
X127603298Y-123633643D03*
%TO.N,Net-(U4-BATDRV)*%
X126253064Y-122346936D03*
X112200000Y-130600000D03*
%TO.N,Net-(U3-DSG)*%
X137499873Y-124466433D03*
%TO.N,Net-(U4-ACOK)*%
X111400000Y-124485788D03*
X116800000Y-128700000D03*
%TO.N,Net-(U4-TB_STAT_N)*%
X110600000Y-130900000D03*
%TO.N,Net-(U5-GPIO18)*%
X142650000Y-109650000D03*
X139700000Y-107750000D03*
%TD*%
D16*
%TO.N,/SDA1*%
X135700000Y-115100000D02*
X137200000Y-113600000D01*
X112400000Y-129900000D02*
X111076796Y-129900000D01*
X111076796Y-129900000D02*
X109400000Y-128223204D01*
X109400000Y-128223204D02*
X109400000Y-127531301D01*
X109400000Y-127531301D02*
X108778216Y-126909517D01*
X135288111Y-121904745D02*
X135700000Y-121492856D01*
X113000000Y-130500000D02*
X112400000Y-129900000D01*
X137200000Y-113600000D02*
X137200000Y-110548528D01*
X135700000Y-121492856D02*
X135700000Y-115100000D01*
X114700000Y-130500000D02*
X113000000Y-130500000D01*
X136100000Y-109448528D02*
X136100000Y-109100000D01*
X137200000Y-110548528D02*
X136100000Y-109448528D01*
%TO.N,/SCL1*%
X110207025Y-130092974D02*
X110000000Y-130299999D01*
X108800000Y-128188890D02*
X110207025Y-129595915D01*
X110207025Y-129595915D02*
X110207025Y-130092974D01*
X136100000Y-122068128D02*
X136100000Y-115300000D01*
X121200000Y-131500000D02*
X121800000Y-130900000D01*
X137600000Y-113800000D02*
X137600000Y-110100000D01*
X136100000Y-115300000D02*
X137600000Y-113800000D01*
X137600000Y-110100000D02*
X137000000Y-109500000D01*
X110000000Y-130299999D02*
X110000000Y-131148529D01*
X110000000Y-131148529D02*
X110351471Y-131500000D01*
X108800000Y-128000000D02*
X108800000Y-128188890D01*
X135372454Y-122795674D02*
X136100000Y-122068128D01*
X110351471Y-131500000D02*
X121200000Y-131500000D01*
%TO.N,/LED*%
X126300000Y-105900000D02*
X129542767Y-102657233D01*
X129542767Y-102657233D02*
X133457233Y-102657233D01*
%TO.N,Net-(U4-ACOK)*%
X115600000Y-129900000D02*
X112965686Y-129900000D01*
X111242482Y-129500000D02*
X109800000Y-128057518D01*
X109800000Y-125800000D02*
X111114212Y-124485788D01*
X111114212Y-124485788D02*
X111400000Y-124485788D01*
X112965686Y-129900000D02*
X112565686Y-129500000D01*
X116800000Y-128700000D02*
X115600000Y-129900000D01*
X112565686Y-129500000D02*
X111242482Y-129500000D01*
X109800000Y-128057518D02*
X109800000Y-125800000D01*
%TO.N,Net-(U4-TB_STAT_N)*%
X110574264Y-130874264D02*
X110425735Y-130874264D01*
X110600000Y-130900000D02*
X110574264Y-130874264D01*
X110425736Y-130874265D02*
X110574265Y-130874265D01*
X110574265Y-130874265D02*
X110600000Y-130900000D01*
%TD*%
%TA.AperFunction,Conductor*%
%TO.N,GNDPWR*%
G36*
X151004043Y-90200765D02*
G01*
X151226790Y-90215364D01*
X151242848Y-90217479D01*
X151428875Y-90254482D01*
X151457771Y-90260230D01*
X151473438Y-90264428D01*
X151626569Y-90316409D01*
X151680944Y-90334867D01*
X151695921Y-90341070D01*
X151886791Y-90435196D01*
X151892460Y-90437992D01*
X151906508Y-90446102D01*
X152088712Y-90567848D01*
X152101573Y-90577716D01*
X152189054Y-90654435D01*
X152266328Y-90722202D01*
X152277797Y-90733671D01*
X152388160Y-90859517D01*
X152422280Y-90898423D01*
X152432154Y-90911291D01*
X152553897Y-91093492D01*
X152562007Y-91107539D01*
X152658926Y-91304071D01*
X152665133Y-91319057D01*
X152735571Y-91526561D01*
X152739769Y-91542228D01*
X152782518Y-91757140D01*
X152784636Y-91773221D01*
X152799235Y-91995956D01*
X152799500Y-92004066D01*
X152799500Y-113900000D01*
X148100000Y-113900000D01*
X148129476Y-99721723D01*
X148149300Y-99654727D01*
X148202199Y-99609082D01*
X148271378Y-99599282D01*
X148323552Y-99619683D01*
X148327234Y-99622205D01*
X148327235Y-99622206D01*
X148430009Y-99667585D01*
X148455135Y-99670500D01*
X149544864Y-99670499D01*
X149544879Y-99670497D01*
X149544882Y-99670497D01*
X149569987Y-99667586D01*
X149569988Y-99667585D01*
X149569991Y-99667585D01*
X149672765Y-99622206D01*
X149752206Y-99542765D01*
X149797585Y-99439991D01*
X149800500Y-99414865D01*
X149800499Y-98325136D01*
X149800497Y-98325117D01*
X149797586Y-98300012D01*
X149797585Y-98300010D01*
X149797585Y-98300009D01*
X149752206Y-98197235D01*
X149710319Y-98155348D01*
X149676834Y-98094025D01*
X149681818Y-98024333D01*
X149693007Y-98001694D01*
X149725788Y-97949524D01*
X149785368Y-97779254D01*
X149785369Y-97779249D01*
X149805565Y-97600003D01*
X149805565Y-97599996D01*
X149785369Y-97420750D01*
X149785368Y-97420745D01*
X149725788Y-97250476D01*
X149629815Y-97097737D01*
X149584759Y-97052681D01*
X149551274Y-96991358D01*
X149556258Y-96921666D01*
X149584759Y-96877319D01*
X149629816Y-96832262D01*
X149725789Y-96679522D01*
X149785368Y-96509255D01*
X149805565Y-96330000D01*
X149785368Y-96150745D01*
X149725789Y-95980478D01*
X149629816Y-95827738D01*
X149502262Y-95700184D01*
X149349523Y-95604211D01*
X149179254Y-95544631D01*
X149179249Y-95544630D01*
X149000004Y-95524435D01*
X148999996Y-95524435D01*
X148820750Y-95544630D01*
X148820745Y-95544631D01*
X148650476Y-95604211D01*
X148497737Y-95700184D01*
X148370184Y-95827737D01*
X148370181Y-95827741D01*
X148366687Y-95833302D01*
X148314349Y-95879590D01*
X148245295Y-95890234D01*
X148181449Y-95861855D01*
X148143080Y-95803463D01*
X148137698Y-95767074D01*
X148139586Y-94858646D01*
X148159410Y-94791652D01*
X148212309Y-94746007D01*
X148281488Y-94736207D01*
X148315813Y-94749630D01*
X148316725Y-94747565D01*
X148327234Y-94752205D01*
X148327235Y-94752206D01*
X148430009Y-94797585D01*
X148455135Y-94800500D01*
X149544864Y-94800499D01*
X149544879Y-94800497D01*
X149544882Y-94800497D01*
X149569987Y-94797586D01*
X149569988Y-94797585D01*
X149569991Y-94797585D01*
X149672765Y-94752206D01*
X149752206Y-94672765D01*
X149797585Y-94569991D01*
X149800500Y-94544865D01*
X149800499Y-93455136D01*
X149800497Y-93455117D01*
X149797586Y-93430012D01*
X149797585Y-93430010D01*
X149797585Y-93430009D01*
X149752206Y-93327235D01*
X149710319Y-93285348D01*
X149676834Y-93224025D01*
X149681818Y-93154333D01*
X149693007Y-93131694D01*
X149725788Y-93079524D01*
X149785368Y-92909254D01*
X149785369Y-92909249D01*
X149805565Y-92730003D01*
X149805565Y-92729996D01*
X149785369Y-92550750D01*
X149785368Y-92550745D01*
X149725788Y-92380476D01*
X149629815Y-92227737D01*
X149584759Y-92182681D01*
X149551274Y-92121358D01*
X149556258Y-92051666D01*
X149584759Y-92007319D01*
X149596122Y-91995956D01*
X149629816Y-91962262D01*
X149725789Y-91809522D01*
X149785368Y-91639255D01*
X149785369Y-91639249D01*
X149805565Y-91460003D01*
X149805565Y-91459996D01*
X149785369Y-91280750D01*
X149785368Y-91280745D01*
X149725788Y-91110476D01*
X149632650Y-90962249D01*
X149629816Y-90957738D01*
X149502262Y-90830184D01*
X149349523Y-90734211D01*
X149179254Y-90674631D01*
X149179249Y-90674630D01*
X149000004Y-90654435D01*
X148999996Y-90654435D01*
X148820750Y-90674630D01*
X148820745Y-90674631D01*
X148650476Y-90734211D01*
X148497737Y-90830184D01*
X148370182Y-90957739D01*
X148368796Y-90959478D01*
X148367615Y-90960306D01*
X148365260Y-90962662D01*
X148364847Y-90962249D01*
X148311605Y-90999615D01*
X148241794Y-91002460D01*
X148181526Y-90967111D01*
X148149937Y-90904790D01*
X148147854Y-90881906D01*
X148149014Y-90324242D01*
X148168838Y-90257244D01*
X148221737Y-90211599D01*
X148273014Y-90200500D01*
X150960118Y-90200500D01*
X150995933Y-90200500D01*
X151004043Y-90200765D01*
G37*
%TD.AperFunction*%
%TD*%
%TA.AperFunction,Conductor*%
%TO.N,GNDPWR*%
G36*
X148100000Y-113900000D02*
G01*
X152799500Y-113900000D01*
X152799500Y-129995933D01*
X152799235Y-130004043D01*
X152784636Y-130226778D01*
X152782518Y-130242859D01*
X152739769Y-130457771D01*
X152735571Y-130473438D01*
X152665133Y-130680942D01*
X152658926Y-130695928D01*
X152562007Y-130892460D01*
X152553897Y-130906507D01*
X152432154Y-131088708D01*
X152422280Y-131101576D01*
X152277797Y-131266328D01*
X152266328Y-131277797D01*
X152101576Y-131422280D01*
X152088708Y-131432154D01*
X151906507Y-131553897D01*
X151892460Y-131562007D01*
X151695928Y-131658926D01*
X151680942Y-131665133D01*
X151473438Y-131735571D01*
X151457771Y-131739769D01*
X151242859Y-131782518D01*
X151226778Y-131784636D01*
X151004043Y-131799235D01*
X150995933Y-131799500D01*
X121766254Y-131799500D01*
X121699215Y-131779815D01*
X121653460Y-131727011D01*
X121643516Y-131657853D01*
X121672541Y-131594297D01*
X121678572Y-131587820D01*
X121724990Y-131541401D01*
X121786311Y-131507917D01*
X121796485Y-131506144D01*
X121799997Y-131505681D01*
X121800000Y-131505682D01*
X121956762Y-131485044D01*
X122102841Y-131424536D01*
X122228282Y-131328282D01*
X122324536Y-131202841D01*
X122385044Y-131056762D01*
X122405682Y-130900000D01*
X122404689Y-130892460D01*
X122385044Y-130743239D01*
X122385044Y-130743238D01*
X122324536Y-130597159D01*
X122228282Y-130471718D01*
X122102841Y-130375464D01*
X122093633Y-130371650D01*
X121956762Y-130314956D01*
X121956760Y-130314955D01*
X121800001Y-130294318D01*
X121799999Y-130294318D01*
X121643239Y-130314955D01*
X121643237Y-130314956D01*
X121497160Y-130375463D01*
X121371718Y-130471718D01*
X121275463Y-130597160D01*
X121214956Y-130743237D01*
X121214956Y-130743238D01*
X121193855Y-130903512D01*
X121165588Y-130967408D01*
X121158598Y-130975006D01*
X121070426Y-131063180D01*
X121009103Y-131096666D01*
X120982744Y-131099500D01*
X115248349Y-131099500D01*
X115181310Y-131079815D01*
X115135555Y-131027011D01*
X115125611Y-130957853D01*
X115149973Y-130900014D01*
X115224535Y-130802842D01*
X115224534Y-130802842D01*
X115224536Y-130802841D01*
X115285044Y-130656762D01*
X115305682Y-130500000D01*
X115297873Y-130440685D01*
X115308638Y-130371650D01*
X115355018Y-130319394D01*
X115420812Y-130300500D01*
X115652725Y-130300500D01*
X115652727Y-130300500D01*
X115754588Y-130273207D01*
X115845913Y-130220480D01*
X116724991Y-129341400D01*
X116786312Y-129307917D01*
X116796485Y-129306144D01*
X116799997Y-129305681D01*
X116800000Y-129305682D01*
X116956762Y-129285044D01*
X117102841Y-129224536D01*
X117228282Y-129128282D01*
X117324536Y-129002841D01*
X117385044Y-128856762D01*
X117405682Y-128700000D01*
X117385044Y-128543238D01*
X117324536Y-128397159D01*
X117228282Y-128271718D01*
X117102841Y-128175464D01*
X116956762Y-128114956D01*
X116956760Y-128114955D01*
X116800001Y-128094318D01*
X116799999Y-128094318D01*
X116643239Y-128114955D01*
X116643237Y-128114956D01*
X116497160Y-128175463D01*
X116371718Y-128271718D01*
X116275463Y-128397160D01*
X116214956Y-128543237D01*
X116214956Y-128543238D01*
X116193855Y-128703513D01*
X116165588Y-128767409D01*
X116158597Y-128775008D01*
X115470426Y-129463181D01*
X115409103Y-129496666D01*
X115382745Y-129499500D01*
X115170078Y-129499500D01*
X115103039Y-129479815D01*
X115057284Y-129427011D01*
X115047340Y-129357853D01*
X115055517Y-129328048D01*
X115073329Y-129285044D01*
X115085044Y-129256762D01*
X115098418Y-129155170D01*
X115126684Y-129091276D01*
X115185008Y-129052804D01*
X115205166Y-129048419D01*
X115306762Y-129035044D01*
X115452841Y-128974536D01*
X115578282Y-128878282D01*
X115674536Y-128752841D01*
X115735044Y-128606762D01*
X115749847Y-128494318D01*
X115755682Y-128450001D01*
X115755682Y-128449998D01*
X115735044Y-128293239D01*
X115735044Y-128293238D01*
X115674536Y-128147159D01*
X115578282Y-128021718D01*
X115452841Y-127925464D01*
X115306762Y-127864956D01*
X115306760Y-127864955D01*
X115150001Y-127844318D01*
X115149999Y-127844318D01*
X114993239Y-127864955D01*
X114993237Y-127864956D01*
X114847160Y-127925463D01*
X114721718Y-128021718D01*
X114625463Y-128147160D01*
X114564956Y-128293237D01*
X114564956Y-128293239D01*
X114551581Y-128394828D01*
X114523314Y-128458724D01*
X114464989Y-128497195D01*
X114444828Y-128501581D01*
X114364639Y-128512138D01*
X114343238Y-128514956D01*
X114343237Y-128514956D01*
X114197160Y-128575463D01*
X114071718Y-128671718D01*
X113975463Y-128797160D01*
X113914956Y-128943237D01*
X113914955Y-128943239D01*
X113894318Y-129099998D01*
X113894318Y-129100001D01*
X113914955Y-129256760D01*
X113914957Y-129256765D01*
X113944483Y-129328048D01*
X113951952Y-129397517D01*
X113920676Y-129459996D01*
X113860587Y-129495648D01*
X113829922Y-129499500D01*
X113182941Y-129499500D01*
X113115902Y-129479815D01*
X113095260Y-129463181D01*
X112811601Y-129179522D01*
X112811599Y-129179520D01*
X112763748Y-129151893D01*
X112720275Y-129126793D01*
X112669343Y-129113146D01*
X112618413Y-129099500D01*
X112618412Y-129099500D01*
X111459736Y-129099500D01*
X111392697Y-129079815D01*
X111372055Y-129063181D01*
X110236819Y-127927944D01*
X110203334Y-127866621D01*
X110200500Y-127840263D01*
X110200500Y-127499998D01*
X118969318Y-127499998D01*
X118969318Y-127500001D01*
X118989955Y-127656760D01*
X118989956Y-127656762D01*
X119050464Y-127802841D01*
X119146718Y-127928282D01*
X119272159Y-128024536D01*
X119418238Y-128085044D01*
X119488681Y-128094318D01*
X119574999Y-128105682D01*
X119575000Y-128105682D01*
X119575001Y-128105682D01*
X119627254Y-128098802D01*
X119731762Y-128085044D01*
X119877841Y-128024536D01*
X120003282Y-127928282D01*
X120099536Y-127802841D01*
X120160044Y-127656762D01*
X120180682Y-127500000D01*
X120160044Y-127343238D01*
X120099536Y-127197159D01*
X120090195Y-127184985D01*
X120065000Y-127119820D01*
X120079037Y-127051375D01*
X120127849Y-127001383D01*
X120195940Y-126985718D01*
X120204748Y-126986559D01*
X120297678Y-126998793D01*
X120349999Y-127005682D01*
X120350000Y-127005682D01*
X120350001Y-127005682D01*
X120402254Y-126998802D01*
X120506762Y-126985044D01*
X120652841Y-126924536D01*
X120778282Y-126828282D01*
X120874536Y-126702841D01*
X120935044Y-126556762D01*
X120955682Y-126400000D01*
X120953891Y-126386398D01*
X120942516Y-126299998D01*
X124444318Y-126299998D01*
X124444318Y-126300001D01*
X124464955Y-126456760D01*
X124464956Y-126456762D01*
X124506376Y-126556760D01*
X124525464Y-126602841D01*
X124621718Y-126728282D01*
X124747159Y-126824536D01*
X124893238Y-126885044D01*
X124963681Y-126894318D01*
X125049999Y-126905682D01*
X125050000Y-126905682D01*
X125050001Y-126905682D01*
X125103672Y-126898616D01*
X125206762Y-126885044D01*
X125352841Y-126824536D01*
X125478282Y-126728282D01*
X125574536Y-126602841D01*
X125635044Y-126456762D01*
X125655177Y-126303835D01*
X125655682Y-126300001D01*
X125655682Y-126299998D01*
X125635044Y-126143239D01*
X125635044Y-126143238D01*
X125574536Y-125997159D01*
X125478282Y-125871718D01*
X125352841Y-125775464D01*
X125206762Y-125714956D01*
X125206760Y-125714955D01*
X125050001Y-125694318D01*
X125049999Y-125694318D01*
X124893239Y-125714955D01*
X124893237Y-125714956D01*
X124747160Y-125775463D01*
X124621718Y-125871718D01*
X124525463Y-125997160D01*
X124464956Y-126143237D01*
X124464955Y-126143239D01*
X124444318Y-126299998D01*
X120942516Y-126299998D01*
X120935044Y-126243239D01*
X120935044Y-126243238D01*
X120874536Y-126097159D01*
X120778282Y-125971718D01*
X120652841Y-125875464D01*
X120643797Y-125871718D01*
X120506762Y-125814956D01*
X120506760Y-125814955D01*
X120350001Y-125794318D01*
X120349999Y-125794318D01*
X120193239Y-125814955D01*
X120193237Y-125814956D01*
X120047160Y-125875463D01*
X119921718Y-125971718D01*
X119825463Y-126097160D01*
X119764956Y-126243237D01*
X119764955Y-126243239D01*
X119744318Y-126399998D01*
X119744318Y-126400001D01*
X119764955Y-126556760D01*
X119764956Y-126556762D01*
X119825464Y-126702842D01*
X119834803Y-126715012D01*
X119859999Y-126780180D01*
X119845962Y-126848625D01*
X119797149Y-126898616D01*
X119729058Y-126914281D01*
X119720244Y-126913439D01*
X119575001Y-126894318D01*
X119574999Y-126894318D01*
X119418239Y-126914955D01*
X119418237Y-126914956D01*
X119272160Y-126975463D01*
X119146718Y-127071718D01*
X119050463Y-127197160D01*
X118989956Y-127343237D01*
X118989955Y-127343239D01*
X118969318Y-127499998D01*
X110200500Y-127499998D01*
X110200500Y-126698531D01*
X114494318Y-126698531D01*
X114494318Y-126698534D01*
X114514955Y-126855293D01*
X114514956Y-126855295D01*
X114537415Y-126909517D01*
X114575464Y-127001374D01*
X114671718Y-127126815D01*
X114797159Y-127223069D01*
X114943238Y-127283577D01*
X115021619Y-127293896D01*
X115099999Y-127304215D01*
X115100000Y-127304215D01*
X115100001Y-127304215D01*
X115152254Y-127297335D01*
X115256762Y-127283577D01*
X115402841Y-127223069D01*
X115528282Y-127126815D01*
X115624536Y-127001374D01*
X115685044Y-126855295D01*
X115698802Y-126750787D01*
X115705682Y-126698534D01*
X115705682Y-126698531D01*
X115691923Y-126594025D01*
X115685044Y-126541771D01*
X115624536Y-126395692D01*
X115528282Y-126270251D01*
X115402841Y-126173997D01*
X115362195Y-126157161D01*
X115256762Y-126113489D01*
X115256760Y-126113488D01*
X115100001Y-126092851D01*
X115099999Y-126092851D01*
X114943239Y-126113488D01*
X114943237Y-126113489D01*
X114797160Y-126173996D01*
X114671718Y-126270251D01*
X114575463Y-126395693D01*
X114514956Y-126541770D01*
X114514955Y-126541772D01*
X114494318Y-126698531D01*
X110200500Y-126698531D01*
X110200500Y-126017254D01*
X110220185Y-125950215D01*
X110236815Y-125929577D01*
X111080229Y-125086162D01*
X111141550Y-125052679D01*
X111211241Y-125057663D01*
X111215326Y-125059270D01*
X111243238Y-125070832D01*
X111321619Y-125081151D01*
X111399999Y-125091470D01*
X111400000Y-125091470D01*
X111400001Y-125091470D01*
X111452254Y-125084590D01*
X111556762Y-125070832D01*
X111612371Y-125047798D01*
X117494318Y-125047798D01*
X117494318Y-125047801D01*
X117514955Y-125204560D01*
X117514956Y-125204562D01*
X117575464Y-125350641D01*
X117671718Y-125476082D01*
X117797159Y-125572336D01*
X117943238Y-125632844D01*
X118021619Y-125643163D01*
X118099999Y-125653482D01*
X118100000Y-125653482D01*
X118100001Y-125653482D01*
X118161298Y-125645412D01*
X118256762Y-125632844D01*
X118402841Y-125572336D01*
X118528282Y-125476082D01*
X118624536Y-125350641D01*
X118685044Y-125204562D01*
X118705682Y-125047800D01*
X118685044Y-124891038D01*
X118624536Y-124744959D01*
X118528282Y-124619518D01*
X118402841Y-124523264D01*
X118297791Y-124479751D01*
X118265634Y-124466431D01*
X136894191Y-124466431D01*
X136894191Y-124466434D01*
X136914828Y-124623193D01*
X136914829Y-124623195D01*
X136975337Y-124769274D01*
X137071591Y-124894715D01*
X137197032Y-124990969D01*
X137343111Y-125051477D01*
X137390099Y-125057663D01*
X137499872Y-125072115D01*
X137499873Y-125072115D01*
X137499874Y-125072115D01*
X137552127Y-125065235D01*
X137656635Y-125051477D01*
X137802714Y-124990969D01*
X137928155Y-124894715D01*
X138024409Y-124769274D01*
X138084917Y-124623195D01*
X138103802Y-124479751D01*
X138105555Y-124466434D01*
X138105555Y-124466431D01*
X138084917Y-124309672D01*
X138084917Y-124309671D01*
X138024409Y-124163592D01*
X137928155Y-124038151D01*
X137802714Y-123941897D01*
X137781046Y-123932922D01*
X137656635Y-123881389D01*
X137656633Y-123881388D01*
X137499874Y-123860751D01*
X137499872Y-123860751D01*
X137343112Y-123881388D01*
X137343110Y-123881389D01*
X137197033Y-123941896D01*
X137071591Y-124038151D01*
X136975336Y-124163593D01*
X136914829Y-124309670D01*
X136914828Y-124309672D01*
X136894191Y-124466431D01*
X118265634Y-124466431D01*
X118256762Y-124462756D01*
X118256760Y-124462755D01*
X118100001Y-124442118D01*
X118099999Y-124442118D01*
X117943239Y-124462755D01*
X117943237Y-124462756D01*
X117797160Y-124523263D01*
X117671718Y-124619518D01*
X117575463Y-124744960D01*
X117514956Y-124891037D01*
X117514955Y-124891039D01*
X117494318Y-125047798D01*
X111612371Y-125047798D01*
X111702841Y-125010324D01*
X111828282Y-124914070D01*
X111924536Y-124788629D01*
X111954012Y-124717466D01*
X111997853Y-124663064D01*
X112064147Y-124640999D01*
X112084755Y-124641980D01*
X112151762Y-124650802D01*
X112199999Y-124657153D01*
X112200000Y-124657153D01*
X112200001Y-124657153D01*
X112273679Y-124647453D01*
X112356762Y-124636515D01*
X112502841Y-124576007D01*
X112628282Y-124479753D01*
X112674367Y-124419693D01*
X112730792Y-124378492D01*
X112800538Y-124374337D01*
X112861459Y-124408549D01*
X112871109Y-124419685D01*
X112897453Y-124454017D01*
X113022894Y-124550271D01*
X113168973Y-124610779D01*
X113235353Y-124619518D01*
X113325734Y-124631417D01*
X113325735Y-124631417D01*
X113325736Y-124631417D01*
X113378002Y-124624536D01*
X113482497Y-124610779D01*
X113628576Y-124550271D01*
X113754017Y-124454017D01*
X113850271Y-124328576D01*
X113910779Y-124182497D01*
X113927234Y-124057506D01*
X113931417Y-124025736D01*
X113931417Y-124025733D01*
X113915238Y-123902841D01*
X113910779Y-123868973D01*
X113850271Y-123722894D01*
X113754017Y-123597453D01*
X113628576Y-123501199D01*
X113569693Y-123476809D01*
X113482497Y-123440691D01*
X113482495Y-123440690D01*
X113325736Y-123420053D01*
X113325734Y-123420053D01*
X113168974Y-123440690D01*
X113168972Y-123440691D01*
X113022895Y-123501198D01*
X112897450Y-123597455D01*
X112851368Y-123657511D01*
X112794940Y-123698714D01*
X112725194Y-123702868D01*
X112664274Y-123668655D01*
X112654617Y-123657510D01*
X112628283Y-123623190D01*
X112628282Y-123623189D01*
X112502841Y-123526935D01*
X112473921Y-123514956D01*
X112356762Y-123466427D01*
X112356760Y-123466426D01*
X112200001Y-123445789D01*
X112199999Y-123445789D01*
X112043239Y-123466426D01*
X112043237Y-123466427D01*
X111897160Y-123526934D01*
X111805258Y-123597453D01*
X111771718Y-123623189D01*
X111694901Y-123723300D01*
X111675462Y-123748633D01*
X111645986Y-123819792D01*
X111602145Y-123874195D01*
X111535850Y-123896259D01*
X111515241Y-123895277D01*
X111400001Y-123880106D01*
X111399999Y-123880106D01*
X111243239Y-123900743D01*
X111243237Y-123900744D01*
X111097160Y-123961251D01*
X110971714Y-124057509D01*
X110920476Y-124124284D01*
X110884105Y-124156182D01*
X110868295Y-124165310D01*
X110326494Y-124707111D01*
X110265171Y-124740596D01*
X110195479Y-124735612D01*
X110140438Y-124694917D01*
X110104019Y-124647455D01*
X110104017Y-124647454D01*
X110104017Y-124647453D01*
X109978576Y-124551199D01*
X109832497Y-124490691D01*
X109832495Y-124490690D01*
X109675736Y-124470053D01*
X109675734Y-124470053D01*
X109518974Y-124490690D01*
X109518972Y-124490691D01*
X109372895Y-124551198D01*
X109313515Y-124596762D01*
X109247453Y-124647453D01*
X109170462Y-124747788D01*
X109114036Y-124788990D01*
X109044290Y-124793145D01*
X109011076Y-124777457D01*
X109009881Y-124779528D01*
X109002843Y-124775465D01*
X108929195Y-124744959D01*
X108856762Y-124714956D01*
X108856760Y-124714955D01*
X108700001Y-124694318D01*
X108699999Y-124694318D01*
X108543239Y-124714955D01*
X108543234Y-124714957D01*
X108471952Y-124744483D01*
X108402483Y-124751952D01*
X108340004Y-124720676D01*
X108304352Y-124660587D01*
X108300500Y-124629922D01*
X108300500Y-123048526D01*
X121594318Y-123048526D01*
X121594318Y-123048529D01*
X121614955Y-123205288D01*
X121614956Y-123205290D01*
X121663423Y-123322301D01*
X121675464Y-123351369D01*
X121771718Y-123476810D01*
X121897159Y-123573064D01*
X122043238Y-123633572D01*
X122121619Y-123643891D01*
X122199999Y-123654210D01*
X122200000Y-123654210D01*
X122200001Y-123654210D01*
X122252254Y-123647330D01*
X122356238Y-123633641D01*
X126997616Y-123633641D01*
X126997616Y-123633644D01*
X127018253Y-123790403D01*
X127018254Y-123790405D01*
X127077286Y-123932922D01*
X127078762Y-123936484D01*
X127175016Y-124061925D01*
X127300457Y-124158179D01*
X127446536Y-124218687D01*
X127524917Y-124229006D01*
X127603297Y-124239325D01*
X127603298Y-124239325D01*
X127603299Y-124239325D01*
X127655552Y-124232445D01*
X127760060Y-124218687D01*
X127906139Y-124158179D01*
X128031580Y-124061925D01*
X128127834Y-123936484D01*
X128188342Y-123790405D01*
X128208980Y-123633643D01*
X128204550Y-123599998D01*
X140194318Y-123599998D01*
X140194318Y-123600001D01*
X140214955Y-123756760D01*
X140214956Y-123756762D01*
X140272737Y-123896259D01*
X140275464Y-123902841D01*
X140371718Y-124028282D01*
X140497159Y-124124536D01*
X140643238Y-124185044D01*
X140800000Y-124205682D01*
X140800001Y-124205681D01*
X140800094Y-124205694D01*
X140863991Y-124233960D01*
X140902462Y-124292285D01*
X140906848Y-124344817D01*
X140894318Y-124439997D01*
X140894318Y-124440001D01*
X140914955Y-124596760D01*
X140914956Y-124596762D01*
X140972469Y-124735612D01*
X140975464Y-124742841D01*
X141071718Y-124868282D01*
X141197159Y-124964536D01*
X141343238Y-125025044D01*
X141362486Y-125027578D01*
X141499999Y-125045682D01*
X141500000Y-125045682D01*
X141500001Y-125045682D01*
X141552254Y-125038802D01*
X141656762Y-125025044D01*
X141802841Y-124964536D01*
X141897563Y-124891852D01*
X141962731Y-124866660D01*
X142031175Y-124880698D01*
X142081165Y-124929512D01*
X142097048Y-124990230D01*
X142097048Y-125715902D01*
X142098535Y-125728282D01*
X142107670Y-125804361D01*
X142163187Y-125945143D01*
X142254625Y-126065722D01*
X142375204Y-126157160D01*
X142375205Y-126157160D01*
X142375206Y-126157161D01*
X142515984Y-126212677D01*
X142604446Y-126223300D01*
X142604451Y-126223300D01*
X144140645Y-126223300D01*
X144140650Y-126223300D01*
X144229112Y-126212677D01*
X144369890Y-126157161D01*
X144490470Y-126065722D01*
X144581909Y-125945142D01*
X144637425Y-125804364D01*
X144648048Y-125715902D01*
X144648048Y-124429698D01*
X144637425Y-124341236D01*
X144581909Y-124200458D01*
X144581908Y-124200457D01*
X144581908Y-124200456D01*
X144505728Y-124099998D01*
X147594318Y-124099998D01*
X147594318Y-124100001D01*
X147614955Y-124256760D01*
X147614956Y-124256762D01*
X147674613Y-124400788D01*
X147675464Y-124402841D01*
X147771718Y-124528282D01*
X147897159Y-124624536D01*
X148043238Y-124685044D01*
X148113681Y-124694318D01*
X148199999Y-124705682D01*
X148200000Y-124705682D01*
X148200001Y-124705682D01*
X148252254Y-124698802D01*
X148356762Y-124685044D01*
X148502841Y-124624536D01*
X148628282Y-124528282D01*
X148724536Y-124402841D01*
X148785044Y-124256762D01*
X148801662Y-124130536D01*
X148805682Y-124100001D01*
X148805682Y-124099998D01*
X148790995Y-123988439D01*
X148785044Y-123943238D01*
X148724536Y-123797159D01*
X148628282Y-123671718D01*
X148502841Y-123575464D01*
X148457765Y-123556793D01*
X148356762Y-123514956D01*
X148356760Y-123514955D01*
X148200001Y-123494318D01*
X148199999Y-123494318D01*
X148043239Y-123514955D01*
X148043237Y-123514956D01*
X147897160Y-123575463D01*
X147771718Y-123671718D01*
X147675463Y-123797160D01*
X147614956Y-123943237D01*
X147614955Y-123943239D01*
X147594318Y-124099998D01*
X144505728Y-124099998D01*
X144490470Y-124079877D01*
X144369891Y-123988439D01*
X144229109Y-123932922D01*
X144183474Y-123927442D01*
X144140650Y-123922300D01*
X143850217Y-123922300D01*
X143783178Y-123902615D01*
X143737423Y-123849811D01*
X143727479Y-123780653D01*
X143756504Y-123717097D01*
X143811899Y-123680369D01*
X143939184Y-123639012D01*
X143939187Y-123639011D01*
X143949726Y-123633641D01*
X144100542Y-123556796D01*
X144247049Y-123450353D01*
X144375101Y-123322301D01*
X144463959Y-123199998D01*
X151094318Y-123199998D01*
X151094318Y-123200001D01*
X151114955Y-123356760D01*
X151114956Y-123356762D01*
X151171933Y-123494318D01*
X151175464Y-123502841D01*
X151271718Y-123628282D01*
X151397159Y-123724536D01*
X151543238Y-123785044D01*
X151621619Y-123795363D01*
X151699999Y-123805682D01*
X151700000Y-123805682D01*
X151700001Y-123805682D01*
X151764739Y-123797159D01*
X151856762Y-123785044D01*
X152002841Y-123724536D01*
X152128282Y-123628282D01*
X152224536Y-123502841D01*
X152285044Y-123356762D01*
X152305682Y-123200000D01*
X152285044Y-123043238D01*
X152224536Y-122897159D01*
X152128282Y-122771718D01*
X152002841Y-122675464D01*
X151940822Y-122649775D01*
X151856762Y-122614956D01*
X151856760Y-122614955D01*
X151700001Y-122594318D01*
X151699999Y-122594318D01*
X151543239Y-122614955D01*
X151543237Y-122614956D01*
X151397160Y-122675463D01*
X151271718Y-122771718D01*
X151175463Y-122897160D01*
X151114956Y-123043237D01*
X151114955Y-123043239D01*
X151094318Y-123199998D01*
X144463959Y-123199998D01*
X144481544Y-123175794D01*
X144563759Y-123014439D01*
X144619719Y-122842209D01*
X144646129Y-122675464D01*
X144648048Y-122663351D01*
X144648048Y-122482248D01*
X144628242Y-122357202D01*
X144619719Y-122303391D01*
X144586268Y-122200439D01*
X144563760Y-122131163D01*
X144563759Y-122131160D01*
X144519396Y-122044095D01*
X144481544Y-121969806D01*
X144444380Y-121918654D01*
X144375106Y-121823305D01*
X144375102Y-121823300D01*
X144247047Y-121695245D01*
X144247042Y-121695241D01*
X144100545Y-121588806D01*
X144100544Y-121588805D01*
X144100542Y-121588804D01*
X144048848Y-121562464D01*
X143939187Y-121506588D01*
X143939184Y-121506587D01*
X143766958Y-121450629D01*
X143733142Y-121445273D01*
X143670007Y-121415344D01*
X143633076Y-121356032D01*
X143634074Y-121286170D01*
X143672684Y-121227937D01*
X143733142Y-121200327D01*
X143740936Y-121199092D01*
X143766957Y-121194971D01*
X143939187Y-121139011D01*
X144100542Y-121056796D01*
X144247049Y-120950353D01*
X144375101Y-120822301D01*
X144481544Y-120675794D01*
X144563759Y-120514439D01*
X144619719Y-120342209D01*
X144634313Y-120250059D01*
X144648048Y-120163351D01*
X144648048Y-119982248D01*
X144626523Y-119846349D01*
X144619719Y-119803391D01*
X144591739Y-119717276D01*
X144563760Y-119631163D01*
X144563759Y-119631160D01*
X144518737Y-119542801D01*
X144481544Y-119469806D01*
X144464216Y-119445956D01*
X144375106Y-119323305D01*
X144375102Y-119323300D01*
X144247047Y-119195245D01*
X144247042Y-119195241D01*
X144100545Y-119088806D01*
X144100544Y-119088805D01*
X144100542Y-119088804D01*
X144048848Y-119062464D01*
X143939187Y-119006588D01*
X143939184Y-119006587D01*
X143766958Y-118950629D01*
X143588099Y-118922300D01*
X143588094Y-118922300D01*
X143157002Y-118922300D01*
X143156997Y-118922300D01*
X142978137Y-118950629D01*
X142805911Y-119006587D01*
X142805908Y-119006588D01*
X142644550Y-119088806D01*
X142498053Y-119195241D01*
X142498048Y-119195245D01*
X142369993Y-119323300D01*
X142369989Y-119323305D01*
X142263554Y-119469802D01*
X142181336Y-119631160D01*
X142181335Y-119631163D01*
X142125377Y-119803389D01*
X142097048Y-119982248D01*
X142097048Y-120163351D01*
X142125377Y-120342210D01*
X142181335Y-120514436D01*
X142181336Y-120514439D01*
X142263554Y-120675797D01*
X142369989Y-120822294D01*
X142369993Y-120822299D01*
X142498048Y-120950354D01*
X142498053Y-120950358D01*
X142625835Y-121043196D01*
X142644554Y-121056796D01*
X142750032Y-121110540D01*
X142805908Y-121139011D01*
X142805911Y-121139012D01*
X142890439Y-121166476D01*
X142978139Y-121194971D01*
X143002839Y-121198883D01*
X143011954Y-121200327D01*
X143075088Y-121230257D01*
X143112019Y-121289568D01*
X143111021Y-121359431D01*
X143072411Y-121417663D01*
X143011954Y-121445273D01*
X142978137Y-121450629D01*
X142805911Y-121506587D01*
X142805908Y-121506588D01*
X142644550Y-121588806D01*
X142498053Y-121695241D01*
X142498048Y-121695245D01*
X142369993Y-121823300D01*
X142369989Y-121823305D01*
X142263554Y-121969802D01*
X142181336Y-122131160D01*
X142181335Y-122131163D01*
X142125377Y-122303389D01*
X142097048Y-122482248D01*
X142097048Y-122663351D01*
X142125377Y-122842210D01*
X142181335Y-123014436D01*
X142181336Y-123014439D01*
X142229573Y-123109107D01*
X142261475Y-123171718D01*
X142263554Y-123175797D01*
X142369989Y-123322294D01*
X142369993Y-123322299D01*
X142498048Y-123450354D01*
X142498053Y-123450358D01*
X142625835Y-123543196D01*
X142644554Y-123556796D01*
X142729344Y-123599999D01*
X142805908Y-123639011D01*
X142805911Y-123639012D01*
X142933197Y-123680369D01*
X142990872Y-123719806D01*
X143018071Y-123784164D01*
X143006157Y-123853011D01*
X142958913Y-123904487D01*
X142894879Y-123922300D01*
X142604446Y-123922300D01*
X142565401Y-123926988D01*
X142515986Y-123932922D01*
X142375204Y-123988439D01*
X142254624Y-124079878D01*
X142216632Y-124129977D01*
X142160439Y-124171499D01*
X142090718Y-124176050D01*
X142029604Y-124142183D01*
X142019454Y-124130536D01*
X141928283Y-124011719D01*
X141862513Y-123961252D01*
X141802841Y-123915464D01*
X141772366Y-123902841D01*
X141752734Y-123894709D01*
X141656762Y-123854956D01*
X141614880Y-123849442D01*
X141499904Y-123834305D01*
X141436008Y-123806038D01*
X141397537Y-123747714D01*
X141393151Y-123695180D01*
X141398111Y-123657511D01*
X141405682Y-123600000D01*
X141385044Y-123443238D01*
X141324536Y-123297159D01*
X141228282Y-123171718D01*
X141102841Y-123075464D01*
X140956762Y-123014956D01*
X140956760Y-123014955D01*
X140800001Y-122994318D01*
X140799999Y-122994318D01*
X140643239Y-123014955D01*
X140643237Y-123014956D01*
X140497160Y-123075463D01*
X140371718Y-123171718D01*
X140275463Y-123297160D01*
X140214956Y-123443237D01*
X140214955Y-123443239D01*
X140194318Y-123599998D01*
X128204550Y-123599998D01*
X128201320Y-123575463D01*
X128193355Y-123514956D01*
X128188342Y-123476881D01*
X128127834Y-123330802D01*
X128031580Y-123205361D01*
X127906139Y-123109107D01*
X127824915Y-123075463D01*
X127760060Y-123048599D01*
X127760058Y-123048598D01*
X127603299Y-123027961D01*
X127603297Y-123027961D01*
X127446537Y-123048598D01*
X127446535Y-123048599D01*
X127300458Y-123109106D01*
X127175016Y-123205361D01*
X127078761Y-123330803D01*
X127018254Y-123476880D01*
X127018253Y-123476882D01*
X126997616Y-123633641D01*
X122356238Y-123633641D01*
X122356762Y-123633572D01*
X122502841Y-123573064D01*
X122628282Y-123476810D01*
X122724536Y-123351369D01*
X122785044Y-123205290D01*
X122805682Y-123048528D01*
X122804985Y-123043237D01*
X122785044Y-122891767D01*
X122785044Y-122891766D01*
X122724536Y-122745687D01*
X122628282Y-122620246D01*
X122502841Y-122523992D01*
X122427609Y-122492830D01*
X122356762Y-122463484D01*
X122356760Y-122463483D01*
X122200001Y-122442846D01*
X122199999Y-122442846D01*
X122043239Y-122463483D01*
X122043237Y-122463484D01*
X121897160Y-122523991D01*
X121771718Y-122620246D01*
X121675463Y-122745688D01*
X121614956Y-122891765D01*
X121614955Y-122891767D01*
X121594318Y-123048526D01*
X108300500Y-123048526D01*
X108300500Y-121772156D01*
X113019351Y-121772156D01*
X113019351Y-121772159D01*
X113039988Y-121928918D01*
X113039989Y-121928920D01*
X113094907Y-122061505D01*
X113100497Y-122074999D01*
X113196751Y-122200440D01*
X113322192Y-122296694D01*
X113468271Y-122357202D01*
X113546652Y-122367521D01*
X113625032Y-122377840D01*
X113625033Y-122377840D01*
X113625034Y-122377840D01*
X113677287Y-122370960D01*
X113781795Y-122357202D01*
X113927874Y-122296694D01*
X114053315Y-122200440D01*
X114081119Y-122164205D01*
X115440019Y-122164205D01*
X115440019Y-122164208D01*
X115460656Y-122320967D01*
X115460657Y-122320969D01*
X115521165Y-122467048D01*
X115617419Y-122592489D01*
X115742860Y-122688743D01*
X115888939Y-122749251D01*
X115967320Y-122759570D01*
X116045700Y-122769889D01*
X116045701Y-122769889D01*
X116045702Y-122769889D01*
X116113562Y-122760955D01*
X116202463Y-122749251D01*
X116348542Y-122688743D01*
X116473983Y-122592489D01*
X116570237Y-122467048D01*
X116619990Y-122346934D01*
X125647382Y-122346934D01*
X125647382Y-122346937D01*
X125668019Y-122503696D01*
X125668020Y-122503698D01*
X125724027Y-122638912D01*
X125728528Y-122649777D01*
X125824782Y-122775218D01*
X125950223Y-122871472D01*
X126096302Y-122931980D01*
X126174683Y-122942299D01*
X126253063Y-122952618D01*
X126253064Y-122952618D01*
X126253065Y-122952618D01*
X126305318Y-122945738D01*
X126409826Y-122931980D01*
X126555905Y-122871472D01*
X126681346Y-122775218D01*
X126777600Y-122649777D01*
X126838108Y-122503698D01*
X126854677Y-122377840D01*
X126858746Y-122346937D01*
X126858746Y-122346934D01*
X126840400Y-122207586D01*
X126838108Y-122190174D01*
X126777600Y-122044095D01*
X126681346Y-121918654D01*
X126555905Y-121822400D01*
X126434605Y-121772156D01*
X126409826Y-121761892D01*
X126409824Y-121761891D01*
X126253065Y-121741254D01*
X126253063Y-121741254D01*
X126096303Y-121761891D01*
X126096301Y-121761892D01*
X125950224Y-121822399D01*
X125824782Y-121918654D01*
X125728527Y-122044096D01*
X125668020Y-122190173D01*
X125668019Y-122190175D01*
X125647382Y-122346934D01*
X116619990Y-122346934D01*
X116630745Y-122320969D01*
X116651383Y-122164207D01*
X116647032Y-122131161D01*
X116630745Y-122007446D01*
X116630745Y-122007445D01*
X116570237Y-121861366D01*
X116473983Y-121735925D01*
X116348542Y-121639671D01*
X116289939Y-121615397D01*
X116202463Y-121579163D01*
X116202461Y-121579162D01*
X116045702Y-121558525D01*
X116045700Y-121558525D01*
X115888940Y-121579162D01*
X115888938Y-121579163D01*
X115742861Y-121639670D01*
X115617419Y-121735925D01*
X115521164Y-121861367D01*
X115460657Y-122007444D01*
X115460656Y-122007446D01*
X115440019Y-122164205D01*
X114081119Y-122164205D01*
X114149569Y-122074999D01*
X114210077Y-121928920D01*
X114230715Y-121772158D01*
X114229363Y-121761892D01*
X114210077Y-121615397D01*
X114210077Y-121615396D01*
X114149569Y-121469317D01*
X114053315Y-121343876D01*
X113927874Y-121247622D01*
X113885951Y-121230257D01*
X113781795Y-121187114D01*
X113781793Y-121187113D01*
X113625034Y-121166476D01*
X113625032Y-121166476D01*
X113468272Y-121187113D01*
X113468270Y-121187114D01*
X113322193Y-121247621D01*
X113196751Y-121343876D01*
X113100496Y-121469318D01*
X113039989Y-121615395D01*
X113039988Y-121615397D01*
X113019351Y-121772156D01*
X108300500Y-121772156D01*
X108300500Y-119542798D01*
X133682737Y-119542798D01*
X133682737Y-119542801D01*
X133703374Y-119699560D01*
X133703375Y-119699562D01*
X133746381Y-119803389D01*
X133763883Y-119845641D01*
X133860137Y-119971082D01*
X133985578Y-120067336D01*
X134131657Y-120127844D01*
X134210038Y-120138163D01*
X134288418Y-120148482D01*
X134288419Y-120148482D01*
X134288420Y-120148482D01*
X134340673Y-120141602D01*
X134445181Y-120127844D01*
X134591260Y-120067336D01*
X134716701Y-119971082D01*
X134812955Y-119845641D01*
X134873463Y-119699562D01*
X134894101Y-119542800D01*
X134873463Y-119386038D01*
X134812955Y-119239959D01*
X134716701Y-119114518D01*
X134591260Y-119018264D01*
X134563069Y-119006587D01*
X134445181Y-118957756D01*
X134445179Y-118957755D01*
X134288420Y-118937118D01*
X134288418Y-118937118D01*
X134131658Y-118957755D01*
X134131656Y-118957756D01*
X133985579Y-119018263D01*
X133860137Y-119114518D01*
X133763882Y-119239960D01*
X133703375Y-119386037D01*
X133703374Y-119386039D01*
X133682737Y-119542798D01*
X108300500Y-119542798D01*
X108300500Y-119454066D01*
X108300765Y-119445956D01*
X108303436Y-119405199D01*
X108315364Y-119223207D01*
X108317479Y-119207153D01*
X108360230Y-118992226D01*
X108364428Y-118976561D01*
X108426349Y-118794148D01*
X108434868Y-118769049D01*
X108441067Y-118754083D01*
X108537995Y-118557533D01*
X108546098Y-118543498D01*
X108667853Y-118361279D01*
X108677710Y-118348433D01*
X108822207Y-118183665D01*
X108833665Y-118172207D01*
X108998433Y-118027710D01*
X109011279Y-118017853D01*
X109193498Y-117896098D01*
X109207533Y-117887995D01*
X109404083Y-117791067D01*
X109419049Y-117784868D01*
X109625945Y-117714637D01*
X109626561Y-117714428D01*
X109642228Y-117710230D01*
X109857153Y-117667479D01*
X109873209Y-117665364D01*
X110078058Y-117651938D01*
X110095958Y-117650765D01*
X110104067Y-117650500D01*
X110139882Y-117650500D01*
X111850633Y-117650500D01*
X111917672Y-117670185D01*
X111963427Y-117722989D01*
X111973371Y-117792147D01*
X111965194Y-117821953D01*
X111914956Y-117943237D01*
X111914955Y-117943239D01*
X111894318Y-118099998D01*
X111894318Y-118100001D01*
X111914955Y-118256760D01*
X111914956Y-118256762D01*
X111955454Y-118354534D01*
X111975464Y-118402841D01*
X112071718Y-118528282D01*
X112197159Y-118624536D01*
X112343238Y-118685044D01*
X112421619Y-118695363D01*
X112499999Y-118705682D01*
X112500000Y-118705682D01*
X112500001Y-118705682D01*
X112552254Y-118698802D01*
X112656762Y-118685044D01*
X112802841Y-118624536D01*
X112928282Y-118528282D01*
X113024536Y-118402841D01*
X113085044Y-118256762D01*
X113105682Y-118100000D01*
X113102390Y-118074998D01*
X113085044Y-117943239D01*
X113085044Y-117943238D01*
X113034805Y-117821952D01*
X113027337Y-117752483D01*
X113058612Y-117690004D01*
X113118701Y-117654352D01*
X113149367Y-117650500D01*
X114105964Y-117650500D01*
X114173003Y-117670185D01*
X114218758Y-117722989D01*
X114228702Y-117792147D01*
X114220525Y-117821953D01*
X114180642Y-117918237D01*
X114180641Y-117918239D01*
X114160004Y-118074998D01*
X114160004Y-118075001D01*
X114180641Y-118231760D01*
X114180642Y-118231762D01*
X114190996Y-118256760D01*
X114241150Y-118377841D01*
X114337404Y-118503282D01*
X114462845Y-118599536D01*
X114608924Y-118660044D01*
X114687305Y-118670363D01*
X114765685Y-118680682D01*
X114765686Y-118680682D01*
X114765687Y-118680682D01*
X114817940Y-118673802D01*
X114922448Y-118660044D01*
X115068527Y-118599536D01*
X115193968Y-118503282D01*
X115290222Y-118377841D01*
X115350730Y-118231762D01*
X115371368Y-118075000D01*
X115365143Y-118027719D01*
X115350730Y-117918239D01*
X115350730Y-117918238D01*
X115310846Y-117821951D01*
X115303378Y-117752484D01*
X115334653Y-117690004D01*
X115394742Y-117654352D01*
X115425408Y-117650500D01*
X120783108Y-117650500D01*
X120823039Y-117645651D01*
X121047376Y-117618412D01*
X121305852Y-117554703D01*
X121554764Y-117460303D01*
X121790483Y-117336589D01*
X122009570Y-117185363D01*
X122208832Y-117008832D01*
X122385363Y-116809570D01*
X122536589Y-116590483D01*
X122660303Y-116354764D01*
X122754703Y-116105852D01*
X122818412Y-115847376D01*
X122850500Y-115583106D01*
X122850500Y-115450000D01*
X122850500Y-115410118D01*
X122850500Y-114329500D01*
X122870185Y-114262461D01*
X122922989Y-114216706D01*
X122974500Y-114205500D01*
X135728745Y-114205500D01*
X135795784Y-114225185D01*
X135841539Y-114277989D01*
X135851483Y-114347147D01*
X135822458Y-114410703D01*
X135816426Y-114417181D01*
X135379522Y-114854084D01*
X135379518Y-114854090D01*
X135326792Y-114945412D01*
X135326793Y-114945413D01*
X135299500Y-115047273D01*
X135299500Y-121188818D01*
X135279815Y-121255857D01*
X135227011Y-121301612D01*
X135191687Y-121311757D01*
X135131349Y-121319701D01*
X135131348Y-121319701D01*
X134985271Y-121380208D01*
X134859829Y-121476463D01*
X134763574Y-121601905D01*
X134703067Y-121747982D01*
X134703066Y-121747984D01*
X134682429Y-121904743D01*
X134682429Y-121904746D01*
X134703066Y-122061505D01*
X134703067Y-122061507D01*
X134763575Y-122207587D01*
X134857262Y-122329682D01*
X134882456Y-122394851D01*
X134868418Y-122463296D01*
X134857264Y-122480651D01*
X134847919Y-122492830D01*
X134787410Y-122638911D01*
X134787409Y-122638913D01*
X134766772Y-122795672D01*
X134766772Y-122795675D01*
X134787409Y-122952434D01*
X134787410Y-122952436D01*
X134838369Y-123075463D01*
X134847918Y-123098515D01*
X134944172Y-123223956D01*
X135069613Y-123320210D01*
X135215692Y-123380718D01*
X135294073Y-123391037D01*
X135372453Y-123401356D01*
X135372454Y-123401356D01*
X135372455Y-123401356D01*
X135424708Y-123394476D01*
X135529216Y-123380718D01*
X135675295Y-123320210D01*
X135800736Y-123223956D01*
X135896990Y-123098515D01*
X135957498Y-122952436D01*
X135978136Y-122795674D01*
X135978135Y-122795671D01*
X135978598Y-122792159D01*
X136006864Y-122728263D01*
X136013843Y-122720676D01*
X136420480Y-122314041D01*
X136445250Y-122271138D01*
X136473207Y-122222715D01*
X136500500Y-122120855D01*
X136500500Y-119959143D01*
X136520185Y-119892104D01*
X136572989Y-119846349D01*
X136640682Y-119836204D01*
X136776757Y-119854119D01*
X136776758Y-119854119D01*
X136841169Y-119845639D01*
X136933519Y-119833481D01*
X137079598Y-119772973D01*
X137205039Y-119676719D01*
X137301293Y-119551278D01*
X137361801Y-119405199D01*
X137382439Y-119248437D01*
X137378052Y-119215118D01*
X137361801Y-119091676D01*
X137361801Y-119091675D01*
X137301293Y-118945596D01*
X137205039Y-118820155D01*
X137079598Y-118723901D01*
X136933519Y-118663393D01*
X136933517Y-118663392D01*
X136776758Y-118642755D01*
X136776756Y-118642755D01*
X136640685Y-118660669D01*
X136571650Y-118649903D01*
X136519394Y-118603523D01*
X136500500Y-118537730D01*
X136500500Y-115517255D01*
X136520185Y-115450216D01*
X136536819Y-115429574D01*
X137430074Y-114536319D01*
X137491397Y-114502834D01*
X137517755Y-114500000D01*
X148300000Y-114500000D01*
X148300000Y-114100000D01*
X148299999Y-114099999D01*
X148188494Y-114100936D01*
X148121292Y-114081815D01*
X148075095Y-114029397D01*
X148064571Y-113960324D01*
X148093062Y-113896527D01*
X148099964Y-113889067D01*
X148100019Y-113889010D01*
X148100022Y-113889010D01*
X148100000Y-113900000D01*
G37*
%TD.AperFunction*%
%TD*%
%TA.AperFunction,Conductor*%
%TO.N,GND*%
G36*
X147786551Y-90220185D02*
G01*
X147832306Y-90272989D01*
X147843512Y-90324758D01*
X147842354Y-90881273D01*
X147843612Y-90909606D01*
X147843612Y-90909612D01*
X147845687Y-90932402D01*
X147845949Y-90935148D01*
X147877442Y-91042908D01*
X147877442Y-91042909D01*
X147909029Y-91105227D01*
X147942208Y-91156999D01*
X147942209Y-91157001D01*
X148026961Y-91230625D01*
X148026962Y-91230626D01*
X148026965Y-91230628D01*
X148061820Y-91251071D01*
X148085570Y-91265002D01*
X148133437Y-91315899D01*
X148146834Y-91372219D01*
X148140604Y-94369237D01*
X148120780Y-94436235D01*
X148078983Y-94476146D01*
X148012730Y-94514709D01*
X148012728Y-94514710D01*
X147959836Y-94560349D01*
X147917560Y-94604999D01*
X147872462Y-94693237D01*
X147866466Y-94704968D01*
X147846642Y-94771962D01*
X147834270Y-94856762D01*
X147834087Y-94858014D01*
X147834086Y-94858017D01*
X147832198Y-95766428D01*
X147832199Y-95766444D01*
X147835485Y-95811762D01*
X147840868Y-95848159D01*
X147844404Y-95867673D01*
X147867035Y-95921718D01*
X147887766Y-95971228D01*
X147926135Y-96029620D01*
X147964896Y-96077343D01*
X148057363Y-96141020D01*
X148057364Y-96141020D01*
X148057365Y-96141021D01*
X148063046Y-96143546D01*
X148116310Y-96188764D01*
X148136673Y-96255601D01*
X148136679Y-96257114D01*
X148130493Y-99232313D01*
X148110669Y-99299311D01*
X148068872Y-99339223D01*
X148002615Y-99377788D01*
X147949725Y-99423425D01*
X147949717Y-99423433D01*
X147907451Y-99468073D01*
X147907449Y-99468075D01*
X147856356Y-99568042D01*
X147856355Y-99568044D01*
X147836530Y-99635043D01*
X147823977Y-99721086D01*
X147823976Y-99721094D01*
X147798814Y-111824536D01*
X147794758Y-113776000D01*
X147794757Y-113776258D01*
X147774933Y-113843256D01*
X147722034Y-113888901D01*
X147670757Y-113900000D01*
X138124500Y-113900000D01*
X138057461Y-113880315D01*
X138011706Y-113827511D01*
X138000500Y-113776000D01*
X138000500Y-110799998D01*
X139044318Y-110799998D01*
X139044318Y-110800001D01*
X139064955Y-110956760D01*
X139064956Y-110956762D01*
X139125464Y-111102841D01*
X139221718Y-111228282D01*
X139347159Y-111324536D01*
X139493238Y-111385044D01*
X139571619Y-111395363D01*
X139649999Y-111405682D01*
X139650000Y-111405682D01*
X139650001Y-111405682D01*
X139702254Y-111398802D01*
X139806762Y-111385044D01*
X139952841Y-111324536D01*
X140078282Y-111228282D01*
X140174536Y-111102841D01*
X140235044Y-110956762D01*
X140254676Y-110807637D01*
X140282942Y-110743742D01*
X140341267Y-110705271D01*
X140361421Y-110700887D01*
X140481762Y-110685044D01*
X140627841Y-110624536D01*
X140753282Y-110528282D01*
X140849536Y-110402841D01*
X140910044Y-110256762D01*
X140923802Y-110152254D01*
X140930682Y-110100001D01*
X140930682Y-110099998D01*
X140910044Y-109943239D01*
X140910044Y-109943238D01*
X140849536Y-109797159D01*
X140753282Y-109671718D01*
X140724976Y-109649998D01*
X142044318Y-109649998D01*
X142044318Y-109650001D01*
X142064955Y-109806760D01*
X142064956Y-109806762D01*
X142125464Y-109952841D01*
X142221718Y-110078282D01*
X142347159Y-110174536D01*
X142493238Y-110235044D01*
X142571619Y-110245363D01*
X142649999Y-110255682D01*
X142650000Y-110255682D01*
X142650001Y-110255682D01*
X142702254Y-110248802D01*
X142806762Y-110235044D01*
X142952841Y-110174536D01*
X143078282Y-110078282D01*
X143174536Y-109952841D01*
X143235044Y-109806762D01*
X143255682Y-109650000D01*
X143235044Y-109493238D01*
X143174536Y-109347159D01*
X143078282Y-109221718D01*
X142952841Y-109125464D01*
X142951979Y-109125107D01*
X142806762Y-109064956D01*
X142806760Y-109064955D01*
X142650001Y-109044318D01*
X142649999Y-109044318D01*
X142493239Y-109064955D01*
X142493237Y-109064956D01*
X142347160Y-109125463D01*
X142221718Y-109221718D01*
X142125463Y-109347160D01*
X142064956Y-109493237D01*
X142064955Y-109493239D01*
X142044318Y-109649998D01*
X140724976Y-109649998D01*
X140627841Y-109575464D01*
X140595606Y-109562112D01*
X140481762Y-109514956D01*
X140481760Y-109514955D01*
X140325001Y-109494318D01*
X140324999Y-109494318D01*
X140168239Y-109514955D01*
X140168237Y-109514956D01*
X140022160Y-109575463D01*
X139896718Y-109671718D01*
X139800463Y-109797160D01*
X139739956Y-109943237D01*
X139739956Y-109943238D01*
X139720323Y-110092361D01*
X139692056Y-110156257D01*
X139633732Y-110194728D01*
X139613569Y-110199114D01*
X139493239Y-110214955D01*
X139493237Y-110214956D01*
X139347160Y-110275463D01*
X139221718Y-110371718D01*
X139125463Y-110497160D01*
X139064956Y-110643237D01*
X139064955Y-110643239D01*
X139044318Y-110799998D01*
X138000500Y-110799998D01*
X138000500Y-110047275D01*
X138000499Y-110047271D01*
X137986217Y-109993967D01*
X137973207Y-109945412D01*
X137933998Y-109877501D01*
X137917526Y-109809603D01*
X137940378Y-109743576D01*
X137995299Y-109700385D01*
X138064852Y-109693743D01*
X138088833Y-109700939D01*
X138199867Y-109746931D01*
X138278248Y-109757250D01*
X138356628Y-109767569D01*
X138356629Y-109767569D01*
X138356630Y-109767569D01*
X138408883Y-109760689D01*
X138513391Y-109746931D01*
X138659470Y-109686423D01*
X138784911Y-109590169D01*
X138881165Y-109464728D01*
X138941673Y-109318649D01*
X138962311Y-109161887D01*
X138954163Y-109100000D01*
X138941673Y-109005126D01*
X138941673Y-109005125D01*
X138881165Y-108859046D01*
X138784911Y-108733605D01*
X138659470Y-108637351D01*
X138513391Y-108576843D01*
X138465215Y-108570500D01*
X138349066Y-108555209D01*
X138285170Y-108526942D01*
X138246699Y-108468618D01*
X138242313Y-108448455D01*
X138235044Y-108393238D01*
X138174536Y-108247159D01*
X138078282Y-108121718D01*
X137952841Y-108025464D01*
X137898224Y-108002841D01*
X137806762Y-107964956D01*
X137806760Y-107964955D01*
X137650001Y-107944318D01*
X137649999Y-107944318D01*
X137493239Y-107964955D01*
X137493237Y-107964956D01*
X137347160Y-108025463D01*
X137221718Y-108121718D01*
X137125463Y-108247160D01*
X137064956Y-108393237D01*
X137064955Y-108393239D01*
X137044318Y-108549998D01*
X137044318Y-108550001D01*
X137064955Y-108706760D01*
X137064957Y-108706765D01*
X137073426Y-108727211D01*
X137080895Y-108796680D01*
X137049619Y-108859159D01*
X136989530Y-108894811D01*
X136975051Y-108897602D01*
X136843238Y-108914956D01*
X136843234Y-108914957D01*
X136812772Y-108927575D01*
X136743302Y-108935044D01*
X136680823Y-108903768D01*
X136650759Y-108860467D01*
X136624536Y-108797160D01*
X136624536Y-108797159D01*
X136528282Y-108671718D01*
X136402841Y-108575464D01*
X136256762Y-108514956D01*
X136256760Y-108514955D01*
X136100001Y-108494318D01*
X136099999Y-108494318D01*
X135943239Y-108514955D01*
X135943237Y-108514956D01*
X135797160Y-108575463D01*
X135671718Y-108671718D01*
X135575463Y-108797160D01*
X135514956Y-108943237D01*
X135514955Y-108943239D01*
X135494318Y-109099998D01*
X135494318Y-109100001D01*
X135514955Y-109256760D01*
X135514956Y-109256762D01*
X135550775Y-109343238D01*
X135575464Y-109402841D01*
X135644828Y-109493238D01*
X135671720Y-109528284D01*
X135682412Y-109536488D01*
X135723615Y-109592916D01*
X135726697Y-109602758D01*
X135726793Y-109603116D01*
X135779520Y-109694441D01*
X135779522Y-109694443D01*
X136133042Y-110047963D01*
X136166527Y-110109286D01*
X136161543Y-110178978D01*
X136120849Y-110234018D01*
X136119513Y-110235044D01*
X136071718Y-110271718D01*
X135975463Y-110397160D01*
X135914956Y-110543237D01*
X135914955Y-110543239D01*
X135894318Y-110699998D01*
X135894318Y-110700001D01*
X135914955Y-110856760D01*
X135914956Y-110856762D01*
X135956376Y-110956760D01*
X135975464Y-111002841D01*
X136071718Y-111128282D01*
X136197159Y-111224536D01*
X136343238Y-111285044D01*
X136405478Y-111293238D01*
X136499999Y-111305682D01*
X136500000Y-111305682D01*
X136656762Y-111285044D01*
X136656765Y-111285042D01*
X136659314Y-111284707D01*
X136728349Y-111295472D01*
X136780605Y-111341852D01*
X136799500Y-111407646D01*
X136799500Y-113382745D01*
X136779815Y-113449784D01*
X136763181Y-113470426D01*
X136369926Y-113863681D01*
X136308603Y-113897166D01*
X136282245Y-113900000D01*
X122974500Y-113900000D01*
X122907461Y-113880315D01*
X122861706Y-113827511D01*
X122850500Y-113776000D01*
X122850500Y-111449998D01*
X132694318Y-111449998D01*
X132694318Y-111450001D01*
X132714955Y-111606760D01*
X132714956Y-111606762D01*
X132775464Y-111752841D01*
X132871718Y-111878282D01*
X132997159Y-111974536D01*
X133143238Y-112035044D01*
X133221619Y-112045363D01*
X133299999Y-112055682D01*
X133300000Y-112055682D01*
X133300001Y-112055682D01*
X133352254Y-112048802D01*
X133456762Y-112035044D01*
X133602841Y-111974536D01*
X133728282Y-111878282D01*
X133824536Y-111752841D01*
X133885044Y-111606762D01*
X133905682Y-111450000D01*
X133899847Y-111405682D01*
X133885934Y-111299998D01*
X134494318Y-111299998D01*
X134494318Y-111300001D01*
X134514955Y-111456760D01*
X134514956Y-111456762D01*
X134575464Y-111602841D01*
X134671718Y-111728282D01*
X134797159Y-111824536D01*
X134943238Y-111885044D01*
X135021619Y-111895363D01*
X135099999Y-111905682D01*
X135100000Y-111905682D01*
X135100001Y-111905682D01*
X135152254Y-111898802D01*
X135256762Y-111885044D01*
X135402841Y-111824536D01*
X135528282Y-111728282D01*
X135624536Y-111602841D01*
X135685044Y-111456762D01*
X135705682Y-111300000D01*
X135685044Y-111143238D01*
X135624536Y-110997159D01*
X135528282Y-110871718D01*
X135402841Y-110775464D01*
X135326257Y-110743742D01*
X135256762Y-110714956D01*
X135256760Y-110714955D01*
X135100001Y-110694318D01*
X135099999Y-110694318D01*
X134943239Y-110714955D01*
X134943237Y-110714956D01*
X134797160Y-110775463D01*
X134671718Y-110871718D01*
X134575463Y-110997160D01*
X134514956Y-111143237D01*
X134514955Y-111143239D01*
X134494318Y-111299998D01*
X133885934Y-111299998D01*
X133885044Y-111293239D01*
X133885044Y-111293238D01*
X133824536Y-111147159D01*
X133728282Y-111021718D01*
X133602841Y-110925464D01*
X133456762Y-110864956D01*
X133456760Y-110864955D01*
X133300001Y-110844318D01*
X133299999Y-110844318D01*
X133143239Y-110864955D01*
X133143237Y-110864956D01*
X132997160Y-110925463D01*
X132871718Y-111021718D01*
X132775463Y-111147160D01*
X132714956Y-111293237D01*
X132714955Y-111293239D01*
X132694318Y-111449998D01*
X122850500Y-111449998D01*
X122850500Y-107699998D01*
X126094318Y-107699998D01*
X126094318Y-107700001D01*
X126114955Y-107856760D01*
X126114956Y-107856762D01*
X126175464Y-108002841D01*
X126271718Y-108128282D01*
X126397159Y-108224536D01*
X126543238Y-108285044D01*
X126621619Y-108295363D01*
X126699999Y-108305682D01*
X126700000Y-108305682D01*
X126700001Y-108305682D01*
X126752254Y-108298802D01*
X126856762Y-108285044D01*
X127002841Y-108224536D01*
X127128282Y-108128282D01*
X127224536Y-108002841D01*
X127285044Y-107856762D01*
X127301308Y-107733223D01*
X127305682Y-107700001D01*
X127305682Y-107699998D01*
X127291923Y-107595492D01*
X127285044Y-107543238D01*
X127224536Y-107397159D01*
X127128282Y-107271718D01*
X127002841Y-107175464D01*
X126995190Y-107172295D01*
X126900503Y-107133074D01*
X138319319Y-107133074D01*
X138319319Y-107133077D01*
X138339956Y-107289836D01*
X138339957Y-107289838D01*
X138400465Y-107435917D01*
X138496719Y-107561358D01*
X138622160Y-107657612D01*
X138768239Y-107718120D01*
X138925001Y-107738758D01*
X138967040Y-107733223D01*
X139036072Y-107743988D01*
X139088329Y-107790367D01*
X139106163Y-107839976D01*
X139108373Y-107856760D01*
X139114956Y-107906762D01*
X139175464Y-108052841D01*
X139271718Y-108178282D01*
X139397159Y-108274536D01*
X139543238Y-108335044D01*
X139621619Y-108345363D01*
X139699999Y-108355682D01*
X139700000Y-108355682D01*
X139700001Y-108355682D01*
X139752254Y-108348802D01*
X139856762Y-108335044D01*
X140002841Y-108274536D01*
X140128282Y-108178282D01*
X140188551Y-108099736D01*
X140244977Y-108058535D01*
X140314723Y-108054380D01*
X140334370Y-108060660D01*
X140393238Y-108085044D01*
X140471619Y-108095363D01*
X140549999Y-108105682D01*
X140550000Y-108105682D01*
X140550001Y-108105682D01*
X140602254Y-108098802D01*
X140706762Y-108085044D01*
X140852841Y-108024536D01*
X140978282Y-107928282D01*
X141074536Y-107802841D01*
X141135044Y-107656762D01*
X141155682Y-107500000D01*
X141135044Y-107343238D01*
X141074536Y-107197159D01*
X140978282Y-107071718D01*
X140852841Y-106975464D01*
X140818389Y-106961193D01*
X140763987Y-106917352D01*
X140741923Y-106851058D01*
X140759203Y-106783359D01*
X140790355Y-106748259D01*
X140867496Y-106689068D01*
X140963750Y-106563627D01*
X141024258Y-106417548D01*
X141044896Y-106260786D01*
X141043910Y-106253300D01*
X141024258Y-106104025D01*
X141024257Y-106104023D01*
X140983696Y-106006098D01*
X140963752Y-105957949D01*
X140963750Y-105957945D01*
X140948383Y-105937918D01*
X140923190Y-105872749D01*
X140937229Y-105804304D01*
X140948378Y-105786955D01*
X141024536Y-105687704D01*
X141085044Y-105541625D01*
X141105682Y-105384863D01*
X141104444Y-105375463D01*
X141085044Y-105228102D01*
X141085044Y-105228101D01*
X141024536Y-105082022D01*
X140928282Y-104956581D01*
X140802841Y-104860327D01*
X140656762Y-104799819D01*
X140656760Y-104799818D01*
X140500001Y-104779181D01*
X140499999Y-104779181D01*
X140343239Y-104799818D01*
X140343237Y-104799819D01*
X140197160Y-104860326D01*
X140071718Y-104956581D01*
X139975463Y-105082023D01*
X139914956Y-105228100D01*
X139914955Y-105228102D01*
X139894318Y-105384861D01*
X139894318Y-105384864D01*
X139914955Y-105541623D01*
X139914957Y-105541628D01*
X139975461Y-105687699D01*
X139975464Y-105687705D01*
X139990829Y-105707728D01*
X140016024Y-105772897D01*
X140001986Y-105841342D01*
X139990830Y-105858701D01*
X139914678Y-105957943D01*
X139854170Y-106104023D01*
X139854169Y-106104025D01*
X139833532Y-106260784D01*
X139833532Y-106260787D01*
X139854169Y-106417546D01*
X139854170Y-106417548D01*
X139914678Y-106563627D01*
X140010932Y-106689068D01*
X140136373Y-106785322D01*
X140136374Y-106785322D01*
X140136375Y-106785323D01*
X140170821Y-106799591D01*
X140225225Y-106843432D01*
X140247290Y-106909726D01*
X140230011Y-106977425D01*
X140198856Y-107012527D01*
X140121718Y-107071717D01*
X140121717Y-107071718D01*
X140061448Y-107150262D01*
X140005020Y-107191465D01*
X139935274Y-107195619D01*
X139915620Y-107189336D01*
X139882130Y-107175464D01*
X139856762Y-107164956D01*
X139856760Y-107164955D01*
X139700001Y-107144318D01*
X139699997Y-107144318D01*
X139657960Y-107149852D01*
X139588925Y-107139086D01*
X139536670Y-107092706D01*
X139518837Y-107043098D01*
X139514812Y-107012527D01*
X139510045Y-106976314D01*
X139449537Y-106830235D01*
X139353283Y-106704794D01*
X139227842Y-106608540D01*
X139214083Y-106602841D01*
X139081763Y-106548032D01*
X139081761Y-106548031D01*
X138925002Y-106527394D01*
X138925000Y-106527394D01*
X138768240Y-106548031D01*
X138768238Y-106548032D01*
X138622161Y-106608539D01*
X138496719Y-106704794D01*
X138400464Y-106830236D01*
X138339957Y-106976313D01*
X138339956Y-106976315D01*
X138319319Y-107133074D01*
X126900503Y-107133074D01*
X126856762Y-107114956D01*
X126856760Y-107114955D01*
X126700001Y-107094318D01*
X126699999Y-107094318D01*
X126543239Y-107114955D01*
X126543237Y-107114956D01*
X126397160Y-107175463D01*
X126271718Y-107271718D01*
X126175463Y-107397160D01*
X126114956Y-107543237D01*
X126114955Y-107543239D01*
X126094318Y-107699998D01*
X122850500Y-107699998D01*
X122850500Y-105899998D01*
X125694318Y-105899998D01*
X125694318Y-105900001D01*
X125714955Y-106056760D01*
X125714956Y-106056762D01*
X125750775Y-106143238D01*
X125775464Y-106202841D01*
X125871718Y-106328282D01*
X125997159Y-106424536D01*
X126143238Y-106485044D01*
X126221619Y-106495363D01*
X126299999Y-106505682D01*
X126300000Y-106505682D01*
X126300001Y-106505682D01*
X126352254Y-106498802D01*
X126456762Y-106485044D01*
X126602841Y-106424536D01*
X126728282Y-106328282D01*
X126824536Y-106202841D01*
X126885044Y-106056762D01*
X126905682Y-105900000D01*
X126905681Y-105899997D01*
X126906144Y-105896485D01*
X126934410Y-105832589D01*
X126941390Y-105825001D01*
X127188576Y-105577815D01*
X128969318Y-105577815D01*
X128969318Y-105577818D01*
X128989955Y-105734577D01*
X128989956Y-105734579D01*
X129044094Y-105865281D01*
X129050464Y-105880658D01*
X129146718Y-106006099D01*
X129272159Y-106102353D01*
X129418238Y-106162861D01*
X129496619Y-106173180D01*
X129574999Y-106183499D01*
X129575000Y-106183499D01*
X129575001Y-106183499D01*
X129627254Y-106176619D01*
X129731762Y-106162861D01*
X129731765Y-106162859D01*
X129739613Y-106160757D01*
X129740568Y-106164324D01*
X129792877Y-106158286D01*
X129855599Y-106189071D01*
X129891721Y-106248879D01*
X129894756Y-106296666D01*
X129894318Y-106300000D01*
X129894318Y-106300002D01*
X129914955Y-106456760D01*
X129914956Y-106456762D01*
X129975464Y-106602841D01*
X130071718Y-106728282D01*
X130197159Y-106824536D01*
X130343238Y-106885044D01*
X130413681Y-106894318D01*
X130499999Y-106905682D01*
X130500000Y-106905682D01*
X130500001Y-106905682D01*
X130552254Y-106898802D01*
X130656762Y-106885044D01*
X130802841Y-106824536D01*
X130928282Y-106728282D01*
X131024536Y-106602841D01*
X131085044Y-106456762D01*
X131105682Y-106300000D01*
X131105243Y-106296668D01*
X131085044Y-106143239D01*
X131085044Y-106143238D01*
X131024536Y-105997159D01*
X130928282Y-105871718D01*
X130867419Y-105825016D01*
X136795332Y-105825016D01*
X136795332Y-105825019D01*
X136815969Y-105981778D01*
X136815970Y-105981780D01*
X136866605Y-106104025D01*
X136876478Y-106127859D01*
X136972732Y-106253300D01*
X137098173Y-106349554D01*
X137244252Y-106410062D01*
X137301099Y-106417546D01*
X137401013Y-106430700D01*
X137401014Y-106430700D01*
X137401015Y-106430700D01*
X137453268Y-106423820D01*
X137557776Y-106410062D01*
X137703855Y-106349554D01*
X137829296Y-106253300D01*
X137925550Y-106127859D01*
X137986058Y-105981780D01*
X138005699Y-105832589D01*
X138006696Y-105825019D01*
X138006696Y-105825016D01*
X137986058Y-105668257D01*
X137986058Y-105668256D01*
X137925550Y-105522177D01*
X137829296Y-105396736D01*
X137703855Y-105300482D01*
X137557776Y-105239974D01*
X137557774Y-105239973D01*
X137401015Y-105219336D01*
X137401013Y-105219336D01*
X137244253Y-105239973D01*
X137244251Y-105239974D01*
X137098174Y-105300481D01*
X136972732Y-105396736D01*
X136876477Y-105522178D01*
X136815970Y-105668255D01*
X136815969Y-105668257D01*
X136795332Y-105825016D01*
X130867419Y-105825016D01*
X130802841Y-105775464D01*
X130661841Y-105717060D01*
X130656762Y-105714956D01*
X130656760Y-105714955D01*
X130500001Y-105694318D01*
X130499999Y-105694318D01*
X130343239Y-105714955D01*
X130335387Y-105717060D01*
X130334482Y-105713684D01*
X130280801Y-105719294D01*
X130218415Y-105687833D01*
X130182943Y-105627638D01*
X130180244Y-105581141D01*
X130180682Y-105577817D01*
X130160044Y-105421055D01*
X130099536Y-105274976D01*
X130003282Y-105149535D01*
X129877841Y-105053281D01*
X129731762Y-104992773D01*
X129731760Y-104992772D01*
X129575001Y-104972135D01*
X129574999Y-104972135D01*
X129418239Y-104992772D01*
X129418237Y-104992773D01*
X129272160Y-105053280D01*
X129146718Y-105149535D01*
X129050463Y-105274977D01*
X128989956Y-105421054D01*
X128989955Y-105421056D01*
X128969318Y-105577815D01*
X127188576Y-105577815D01*
X128887296Y-103879096D01*
X140343515Y-103879096D01*
X140343515Y-103879099D01*
X140364152Y-104035858D01*
X140364153Y-104035860D01*
X140424661Y-104181939D01*
X140520915Y-104307380D01*
X140646356Y-104403634D01*
X140792435Y-104464142D01*
X140870816Y-104474461D01*
X140949196Y-104484780D01*
X140949197Y-104484780D01*
X140949198Y-104484780D01*
X141001451Y-104477900D01*
X141105959Y-104464142D01*
X141252038Y-104403634D01*
X141377479Y-104307380D01*
X141473733Y-104181939D01*
X141534241Y-104035860D01*
X141554879Y-103879098D01*
X141534241Y-103722336D01*
X141473733Y-103576257D01*
X141377479Y-103450816D01*
X141252038Y-103354562D01*
X141105959Y-103294054D01*
X141105957Y-103294053D01*
X140949198Y-103273416D01*
X140949196Y-103273416D01*
X140792436Y-103294053D01*
X140792434Y-103294054D01*
X140646357Y-103354561D01*
X140520915Y-103450816D01*
X140424660Y-103576258D01*
X140364153Y-103722335D01*
X140364152Y-103722337D01*
X140343515Y-103879096D01*
X128887296Y-103879096D01*
X129672341Y-103094052D01*
X129733664Y-103060567D01*
X129760022Y-103057733D01*
X132950653Y-103057733D01*
X133017692Y-103077418D01*
X133026140Y-103083357D01*
X133028949Y-103085512D01*
X133028951Y-103085515D01*
X133154392Y-103181769D01*
X133300471Y-103242277D01*
X133378852Y-103252596D01*
X133457232Y-103262915D01*
X133457233Y-103262915D01*
X133457234Y-103262915D01*
X133509487Y-103256035D01*
X133613995Y-103242277D01*
X133760074Y-103181769D01*
X133885515Y-103085515D01*
X133981769Y-102960074D01*
X134042277Y-102813995D01*
X134049834Y-102756588D01*
X134078100Y-102692692D01*
X134136424Y-102654220D01*
X134156586Y-102649834D01*
X134213995Y-102642277D01*
X134360074Y-102581769D01*
X134485515Y-102485515D01*
X134581769Y-102360074D01*
X134642277Y-102213995D01*
X134656493Y-102106012D01*
X134684759Y-102042116D01*
X134743084Y-102003645D01*
X134763247Y-101999259D01*
X134871229Y-101985043D01*
X135017308Y-101924535D01*
X135142749Y-101828281D01*
X135239003Y-101702840D01*
X135299511Y-101556761D01*
X135306441Y-101504114D01*
X135334706Y-101440220D01*
X135393030Y-101401748D01*
X135401074Y-101399998D01*
X138294318Y-101399998D01*
X138294318Y-101400001D01*
X138314955Y-101556760D01*
X138314956Y-101556762D01*
X138355546Y-101654756D01*
X138375464Y-101702841D01*
X138471718Y-101828282D01*
X138597159Y-101924536D01*
X138743238Y-101985044D01*
X138813681Y-101994318D01*
X138899999Y-102005682D01*
X138900000Y-102005682D01*
X138900001Y-102005682D01*
X138959376Y-101997865D01*
X139056762Y-101985044D01*
X139202841Y-101924536D01*
X139328282Y-101828282D01*
X139424536Y-101702841D01*
X139485044Y-101556762D01*
X139505682Y-101400000D01*
X139485044Y-101243238D01*
X139424536Y-101097159D01*
X139328282Y-100971718D01*
X139202841Y-100875464D01*
X139202836Y-100875462D01*
X139056762Y-100814956D01*
X139056760Y-100814955D01*
X138900001Y-100794318D01*
X138899999Y-100794318D01*
X138743239Y-100814955D01*
X138743237Y-100814956D01*
X138597160Y-100875463D01*
X138471718Y-100971718D01*
X138375463Y-101097160D01*
X138314956Y-101243237D01*
X138314955Y-101243239D01*
X138294318Y-101399998D01*
X135401074Y-101399998D01*
X135413191Y-101397362D01*
X135506762Y-101385044D01*
X135652841Y-101324536D01*
X135778282Y-101228282D01*
X135874536Y-101102841D01*
X135935044Y-100956762D01*
X135955682Y-100800000D01*
X135948603Y-100746233D01*
X135935044Y-100643239D01*
X135935044Y-100643238D01*
X135874536Y-100497159D01*
X135778282Y-100371718D01*
X135652841Y-100275464D01*
X135506762Y-100214956D01*
X135506760Y-100214955D01*
X135350001Y-100194318D01*
X135349999Y-100194318D01*
X135193239Y-100214955D01*
X135193237Y-100214956D01*
X135047160Y-100275463D01*
X134921718Y-100371718D01*
X134825463Y-100497160D01*
X134764956Y-100643238D01*
X134758024Y-100695885D01*
X134729756Y-100759781D01*
X134671431Y-100798251D01*
X134651272Y-100802636D01*
X134557705Y-100814955D01*
X134557704Y-100814955D01*
X134411627Y-100875462D01*
X134286185Y-100971717D01*
X134189930Y-101097159D01*
X134129423Y-101243236D01*
X134129423Y-101243238D01*
X134115206Y-101351219D01*
X134086939Y-101415116D01*
X134028614Y-101453586D01*
X134008453Y-101457972D01*
X133913318Y-101470497D01*
X133900471Y-101472189D01*
X133900470Y-101472189D01*
X133754393Y-101532696D01*
X133628951Y-101628951D01*
X133532696Y-101754393D01*
X133472189Y-101900470D01*
X133472189Y-101900472D01*
X133464631Y-101957878D01*
X133436364Y-102021775D01*
X133378039Y-102060245D01*
X133357878Y-102064631D01*
X133319970Y-102069621D01*
X133300471Y-102072189D01*
X133300470Y-102072189D01*
X133154393Y-102132696D01*
X133154392Y-102132697D01*
X133028951Y-102228951D01*
X133028949Y-102228953D01*
X133026140Y-102231109D01*
X132960970Y-102256303D01*
X132950653Y-102256733D01*
X129490040Y-102256733D01*
X129388177Y-102284026D01*
X129296854Y-102336753D01*
X129296851Y-102336755D01*
X126375008Y-105258597D01*
X126313685Y-105292082D01*
X126303513Y-105293855D01*
X126143238Y-105314956D01*
X126143237Y-105314956D01*
X125997160Y-105375463D01*
X125871718Y-105471718D01*
X125775463Y-105597160D01*
X125714956Y-105743237D01*
X125714955Y-105743239D01*
X125694318Y-105899998D01*
X122850500Y-105899998D01*
X122850500Y-102599998D01*
X124894318Y-102599998D01*
X124894318Y-102600001D01*
X124914955Y-102756760D01*
X124914956Y-102756762D01*
X124975464Y-102902841D01*
X125071718Y-103028282D01*
X125197159Y-103124536D01*
X125343238Y-103185044D01*
X125421619Y-103195363D01*
X125499999Y-103205682D01*
X125500000Y-103205682D01*
X125500001Y-103205682D01*
X125552254Y-103198802D01*
X125656762Y-103185044D01*
X125802841Y-103124536D01*
X125928282Y-103028282D01*
X126024536Y-102902841D01*
X126085044Y-102756762D01*
X126105682Y-102600000D01*
X126085044Y-102443238D01*
X126024536Y-102297159D01*
X125928282Y-102171718D01*
X125802841Y-102075464D01*
X125794934Y-102072189D01*
X125656762Y-102014956D01*
X125656760Y-102014955D01*
X125500001Y-101994318D01*
X125499999Y-101994318D01*
X125343239Y-102014955D01*
X125343237Y-102014956D01*
X125197160Y-102075463D01*
X125071718Y-102171718D01*
X124975463Y-102297160D01*
X124914956Y-102443237D01*
X124914955Y-102443239D01*
X124894318Y-102599998D01*
X122850500Y-102599998D01*
X122850500Y-101049072D01*
X131645242Y-101049072D01*
X131645242Y-101049075D01*
X131665879Y-101205834D01*
X131665880Y-101205836D01*
X131726388Y-101351915D01*
X131822642Y-101477356D01*
X131948083Y-101573610D01*
X132094162Y-101634118D01*
X132172543Y-101644437D01*
X132250923Y-101654756D01*
X132250924Y-101654756D01*
X132250925Y-101654756D01*
X132303178Y-101647876D01*
X132407686Y-101634118D01*
X132553765Y-101573610D01*
X132679206Y-101477356D01*
X132775460Y-101351915D01*
X132835968Y-101205836D01*
X132856606Y-101049074D01*
X132835968Y-100892312D01*
X132775460Y-100746233D01*
X132775459Y-100746232D01*
X132775459Y-100746231D01*
X132701378Y-100649687D01*
X132676184Y-100584518D01*
X132690222Y-100516073D01*
X132739036Y-100466084D01*
X132783566Y-100451262D01*
X132906762Y-100435044D01*
X133052841Y-100374536D01*
X133178282Y-100278282D01*
X133274536Y-100152841D01*
X133335044Y-100006762D01*
X133355682Y-99850000D01*
X133335044Y-99693238D01*
X133274536Y-99547159D01*
X133178282Y-99421718D01*
X133052841Y-99325464D01*
X132906762Y-99264956D01*
X132906760Y-99264955D01*
X132750001Y-99244318D01*
X132749999Y-99244318D01*
X132593239Y-99264955D01*
X132593237Y-99264956D01*
X132447160Y-99325463D01*
X132321718Y-99421718D01*
X132225463Y-99547160D01*
X132164956Y-99693237D01*
X132164955Y-99693239D01*
X132144318Y-99849998D01*
X132144318Y-99850001D01*
X132164955Y-100006760D01*
X132164956Y-100006762D01*
X132225464Y-100152842D01*
X132299545Y-100249386D01*
X132324739Y-100314555D01*
X132310701Y-100383000D01*
X132261887Y-100432989D01*
X132217355Y-100447811D01*
X132094162Y-100464030D01*
X132094161Y-100464030D01*
X131948084Y-100524537D01*
X131822642Y-100620792D01*
X131726387Y-100746234D01*
X131665880Y-100892311D01*
X131665879Y-100892313D01*
X131645242Y-101049072D01*
X122850500Y-101049072D01*
X122850500Y-98971405D01*
X134698999Y-98971405D01*
X134698999Y-98971408D01*
X134719636Y-99128167D01*
X134719637Y-99128169D01*
X134767747Y-99244318D01*
X134780145Y-99274248D01*
X134876399Y-99399689D01*
X135001840Y-99495943D01*
X135147919Y-99556451D01*
X135226300Y-99566770D01*
X135304680Y-99577089D01*
X135304681Y-99577089D01*
X135304682Y-99577089D01*
X135373400Y-99568042D01*
X135461443Y-99556451D01*
X135607522Y-99495943D01*
X135732963Y-99399689D01*
X135829217Y-99274248D01*
X135889725Y-99128169D01*
X135900016Y-99049998D01*
X140344318Y-99049998D01*
X140344318Y-99050001D01*
X140364955Y-99206760D01*
X140364956Y-99206762D01*
X140412402Y-99321308D01*
X140425464Y-99352841D01*
X140521718Y-99478282D01*
X140647159Y-99574536D01*
X140793238Y-99635044D01*
X140871619Y-99645363D01*
X140949999Y-99655682D01*
X140950000Y-99655682D01*
X140950001Y-99655682D01*
X141002254Y-99648802D01*
X141106762Y-99635044D01*
X141252841Y-99574536D01*
X141284820Y-99549998D01*
X142294318Y-99549998D01*
X142294318Y-99550001D01*
X142314955Y-99706760D01*
X142314956Y-99706762D01*
X142374287Y-99850001D01*
X142375464Y-99852841D01*
X142471718Y-99978282D01*
X142597159Y-100074536D01*
X142743238Y-100135044D01*
X142821619Y-100145363D01*
X142899999Y-100155682D01*
X142900000Y-100155682D01*
X142900001Y-100155682D01*
X142952254Y-100148802D01*
X143056762Y-100135044D01*
X143202841Y-100074536D01*
X143328282Y-99978282D01*
X143424536Y-99852841D01*
X143485044Y-99706762D01*
X143503306Y-99568045D01*
X143505682Y-99550001D01*
X143505682Y-99549998D01*
X143485044Y-99393239D01*
X143485044Y-99393238D01*
X143424536Y-99247159D01*
X143328282Y-99121718D01*
X143202841Y-99025464D01*
X143072338Y-98971408D01*
X143056762Y-98964956D01*
X143056760Y-98964955D01*
X142900001Y-98944318D01*
X142899999Y-98944318D01*
X142743239Y-98964955D01*
X142743237Y-98964956D01*
X142597160Y-99025463D01*
X142471718Y-99121718D01*
X142375463Y-99247160D01*
X142314956Y-99393237D01*
X142314955Y-99393239D01*
X142294318Y-99549998D01*
X141284820Y-99549998D01*
X141378282Y-99478282D01*
X141474536Y-99352841D01*
X141535044Y-99206762D01*
X141555682Y-99050000D01*
X141535044Y-98893238D01*
X141474536Y-98747159D01*
X141378282Y-98621718D01*
X141252841Y-98525464D01*
X141106762Y-98464956D01*
X141106760Y-98464955D01*
X140950001Y-98444318D01*
X140949999Y-98444318D01*
X140793239Y-98464955D01*
X140793237Y-98464956D01*
X140647160Y-98525463D01*
X140521718Y-98621718D01*
X140425463Y-98747160D01*
X140364956Y-98893237D01*
X140364955Y-98893239D01*
X140344318Y-99049998D01*
X135900016Y-99049998D01*
X135910363Y-98971407D01*
X135889725Y-98814645D01*
X135829217Y-98668566D01*
X135732963Y-98543125D01*
X135607522Y-98446871D01*
X135461443Y-98386363D01*
X135461441Y-98386362D01*
X135304682Y-98365725D01*
X135304680Y-98365725D01*
X135147920Y-98386362D01*
X135147918Y-98386363D01*
X135001841Y-98446870D01*
X134876399Y-98543125D01*
X134780144Y-98668567D01*
X134719637Y-98814644D01*
X134719636Y-98814646D01*
X134698999Y-98971405D01*
X122850500Y-98971405D01*
X122850500Y-97799998D01*
X136354992Y-97799998D01*
X136354992Y-97800001D01*
X136375629Y-97956760D01*
X136375630Y-97956761D01*
X136375630Y-97956762D01*
X136436138Y-98102841D01*
X136532392Y-98228282D01*
X136657833Y-98324536D01*
X136803912Y-98385044D01*
X136882293Y-98395363D01*
X136960673Y-98405682D01*
X136960674Y-98405682D01*
X136960675Y-98405682D01*
X137012928Y-98398802D01*
X137117436Y-98385044D01*
X137263515Y-98324536D01*
X137373262Y-98240324D01*
X137438429Y-98215130D01*
X137496199Y-98224139D01*
X137592208Y-98263906D01*
X137643238Y-98285044D01*
X137721619Y-98295363D01*
X137799999Y-98305682D01*
X137800000Y-98305682D01*
X137800001Y-98305682D01*
X137852254Y-98298802D01*
X137956762Y-98285044D01*
X138102841Y-98224536D01*
X138228282Y-98128282D01*
X138324536Y-98002841D01*
X138372421Y-97887236D01*
X138416259Y-97832835D01*
X138482553Y-97810770D01*
X138550253Y-97828049D01*
X138597863Y-97879186D01*
X138609919Y-97918504D01*
X138614956Y-97956762D01*
X138675464Y-98102841D01*
X138771718Y-98228282D01*
X138897159Y-98324536D01*
X139043238Y-98385044D01*
X139121619Y-98395363D01*
X139199999Y-98405682D01*
X139200000Y-98405682D01*
X139200001Y-98405682D01*
X139252254Y-98398802D01*
X139356762Y-98385044D01*
X139502841Y-98324536D01*
X139628282Y-98228282D01*
X139724536Y-98102841D01*
X139785044Y-97956762D01*
X139805682Y-97800000D01*
X139799989Y-97756760D01*
X139785044Y-97643239D01*
X139785044Y-97643238D01*
X139767133Y-97599998D01*
X141794318Y-97599998D01*
X141794318Y-97600001D01*
X141814955Y-97756760D01*
X141814956Y-97756762D01*
X141846466Y-97832835D01*
X141875464Y-97902841D01*
X141971718Y-98028282D01*
X142097159Y-98124536D01*
X142243238Y-98185044D01*
X142321619Y-98195363D01*
X142399999Y-98205682D01*
X142400000Y-98205682D01*
X142400001Y-98205682D01*
X142452254Y-98198802D01*
X142556762Y-98185044D01*
X142702841Y-98124536D01*
X142828282Y-98028282D01*
X142924536Y-97902841D01*
X142985044Y-97756762D01*
X143005682Y-97600000D01*
X142985044Y-97443238D01*
X142924536Y-97297159D01*
X142828282Y-97171718D01*
X142702841Y-97075464D01*
X142657690Y-97056762D01*
X142556762Y-97014956D01*
X142556760Y-97014955D01*
X142400001Y-96994318D01*
X142399999Y-96994318D01*
X142243239Y-97014955D01*
X142243237Y-97014956D01*
X142097160Y-97075463D01*
X141971718Y-97171718D01*
X141875463Y-97297160D01*
X141814956Y-97443237D01*
X141814955Y-97443239D01*
X141794318Y-97599998D01*
X139767133Y-97599998D01*
X139724536Y-97497159D01*
X139628282Y-97371718D01*
X139502841Y-97275464D01*
X139493797Y-97271718D01*
X139460054Y-97257741D01*
X139356762Y-97214956D01*
X139332043Y-97211701D01*
X139299354Y-97207398D01*
X139235458Y-97179131D01*
X139196987Y-97120806D01*
X139192601Y-97100644D01*
X139185044Y-97043238D01*
X139124536Y-96897159D01*
X139028282Y-96771718D01*
X138902841Y-96675464D01*
X138848224Y-96652841D01*
X138756762Y-96614956D01*
X138756760Y-96614955D01*
X138600001Y-96594318D01*
X138599999Y-96594318D01*
X138443239Y-96614955D01*
X138443237Y-96614956D01*
X138297160Y-96675463D01*
X138171718Y-96771718D01*
X138075463Y-96897160D01*
X138020188Y-97030607D01*
X137976347Y-97085010D01*
X137910053Y-97107075D01*
X137889442Y-97106093D01*
X137800001Y-97094318D01*
X137799999Y-97094318D01*
X137643239Y-97114955D01*
X137643237Y-97114956D01*
X137497157Y-97175464D01*
X137387411Y-97259675D01*
X137322241Y-97284869D01*
X137264473Y-97275860D01*
X137117439Y-97214957D01*
X137117434Y-97214955D01*
X136960675Y-97194318D01*
X136960673Y-97194318D01*
X136803913Y-97214955D01*
X136803911Y-97214956D01*
X136657834Y-97275463D01*
X136532392Y-97371718D01*
X136436137Y-97497160D01*
X136375630Y-97643237D01*
X136375629Y-97643239D01*
X136354992Y-97799998D01*
X122850500Y-97799998D01*
X122850500Y-96899998D01*
X124444318Y-96899998D01*
X124444318Y-96900001D01*
X124464955Y-97056760D01*
X124464956Y-97056762D01*
X124524999Y-97201720D01*
X124525464Y-97202841D01*
X124621718Y-97328282D01*
X124747159Y-97424536D01*
X124893238Y-97485044D01*
X124971619Y-97495363D01*
X125049999Y-97505682D01*
X125050000Y-97505682D01*
X125050001Y-97505682D01*
X125114739Y-97497159D01*
X125206762Y-97485044D01*
X125352841Y-97424536D01*
X125478282Y-97328282D01*
X125478286Y-97328277D01*
X125484029Y-97322535D01*
X125485474Y-97323980D01*
X125533047Y-97289241D01*
X125602793Y-97285083D01*
X125663715Y-97319292D01*
X125670116Y-97326680D01*
X125671713Y-97328277D01*
X125671715Y-97328279D01*
X125671718Y-97328282D01*
X125797159Y-97424536D01*
X125943238Y-97485044D01*
X126021619Y-97495363D01*
X126099999Y-97505682D01*
X126100000Y-97505682D01*
X126100001Y-97505682D01*
X126164739Y-97497159D01*
X126256762Y-97485044D01*
X126402841Y-97424536D01*
X126528282Y-97328282D01*
X126624536Y-97202841D01*
X126685044Y-97056762D01*
X126705682Y-96900000D01*
X126685044Y-96743238D01*
X126624536Y-96597159D01*
X126528282Y-96471718D01*
X126402841Y-96375464D01*
X126341361Y-96349998D01*
X140044318Y-96349998D01*
X140044318Y-96350001D01*
X140064955Y-96506760D01*
X140064956Y-96506762D01*
X140125464Y-96652841D01*
X140221718Y-96778282D01*
X140347159Y-96874536D01*
X140493238Y-96935044D01*
X140571619Y-96945363D01*
X140649999Y-96955682D01*
X140650000Y-96955682D01*
X140650001Y-96955682D01*
X140702254Y-96948802D01*
X140806762Y-96935044D01*
X140952841Y-96874536D01*
X141078282Y-96778282D01*
X141174536Y-96652841D01*
X141235044Y-96506762D01*
X141255682Y-96350000D01*
X141251068Y-96314956D01*
X141235044Y-96193239D01*
X141235044Y-96193238D01*
X141174536Y-96047159D01*
X141078282Y-95921718D01*
X140952841Y-95825464D01*
X140919761Y-95811762D01*
X140806762Y-95764956D01*
X140806760Y-95764955D01*
X140650001Y-95744318D01*
X140649999Y-95744318D01*
X140493239Y-95764955D01*
X140493237Y-95764956D01*
X140347160Y-95825463D01*
X140221718Y-95921718D01*
X140125463Y-96047160D01*
X140064956Y-96193237D01*
X140064955Y-96193239D01*
X140044318Y-96349998D01*
X126341361Y-96349998D01*
X126256762Y-96314956D01*
X126256760Y-96314955D01*
X126100001Y-96294318D01*
X126099999Y-96294318D01*
X125943239Y-96314955D01*
X125943237Y-96314956D01*
X125797160Y-96375463D01*
X125671713Y-96471722D01*
X125665971Y-96477465D01*
X125664526Y-96476020D01*
X125616940Y-96510763D01*
X125547194Y-96514913D01*
X125486276Y-96480697D01*
X125479881Y-96473317D01*
X125478286Y-96471722D01*
X125478283Y-96471720D01*
X125478282Y-96471718D01*
X125352841Y-96375464D01*
X125206762Y-96314956D01*
X125206760Y-96314955D01*
X125050001Y-96294318D01*
X125049999Y-96294318D01*
X124893239Y-96314955D01*
X124893237Y-96314956D01*
X124747160Y-96375463D01*
X124621718Y-96471718D01*
X124525463Y-96597160D01*
X124464956Y-96743237D01*
X124464955Y-96743239D01*
X124444318Y-96899998D01*
X122850500Y-96899998D01*
X122850500Y-95549998D01*
X133044318Y-95549998D01*
X133044318Y-95550001D01*
X133064955Y-95706760D01*
X133064956Y-95706762D01*
X133123524Y-95848159D01*
X133125464Y-95852841D01*
X133221718Y-95978282D01*
X133347159Y-96074536D01*
X133493238Y-96135044D01*
X133571619Y-96145363D01*
X133649999Y-96155682D01*
X133650000Y-96155682D01*
X133650001Y-96155682D01*
X133702254Y-96148802D01*
X133806762Y-96135044D01*
X133952841Y-96074536D01*
X134078282Y-95978282D01*
X134174536Y-95852841D01*
X134235044Y-95706762D01*
X134255682Y-95550000D01*
X134235044Y-95393238D01*
X134174536Y-95247159D01*
X134078282Y-95121718D01*
X133952841Y-95025464D01*
X133907690Y-95006762D01*
X133806762Y-94964956D01*
X133806760Y-94964955D01*
X133650001Y-94944318D01*
X133649999Y-94944318D01*
X133493239Y-94964955D01*
X133493237Y-94964956D01*
X133347160Y-95025463D01*
X133221718Y-95121718D01*
X133125463Y-95247160D01*
X133064956Y-95393237D01*
X133064955Y-95393239D01*
X133044318Y-95549998D01*
X122850500Y-95549998D01*
X122850500Y-94699998D01*
X130394318Y-94699998D01*
X130394318Y-94700001D01*
X130414955Y-94856760D01*
X130414956Y-94856762D01*
X130475464Y-95002841D01*
X130571718Y-95128282D01*
X130697159Y-95224536D01*
X130843238Y-95285044D01*
X130921619Y-95295363D01*
X130999999Y-95305682D01*
X131000000Y-95305682D01*
X131000001Y-95305682D01*
X131052254Y-95298802D01*
X131156762Y-95285044D01*
X131302841Y-95224536D01*
X131428282Y-95128282D01*
X131524536Y-95002841D01*
X131585044Y-94856762D01*
X131585934Y-94849998D01*
X140543583Y-94849998D01*
X140543583Y-94850001D01*
X140564220Y-95006760D01*
X140564221Y-95006762D01*
X140624729Y-95152841D01*
X140720983Y-95278282D01*
X140846424Y-95374536D01*
X140992503Y-95435044D01*
X141070884Y-95445363D01*
X141149264Y-95455682D01*
X141149265Y-95455682D01*
X141149266Y-95455682D01*
X141201519Y-95448802D01*
X141306027Y-95435044D01*
X141452106Y-95374536D01*
X141577547Y-95278282D01*
X141673801Y-95152841D01*
X141734309Y-95006762D01*
X141754947Y-94850000D01*
X141734309Y-94693238D01*
X141673801Y-94547159D01*
X141577547Y-94421718D01*
X141452106Y-94325464D01*
X141306027Y-94264956D01*
X141306025Y-94264955D01*
X141149266Y-94244318D01*
X141149264Y-94244318D01*
X140992504Y-94264955D01*
X140992502Y-94264956D01*
X140846425Y-94325463D01*
X140720983Y-94421718D01*
X140624728Y-94547160D01*
X140564221Y-94693237D01*
X140564220Y-94693239D01*
X140543583Y-94849998D01*
X131585934Y-94849998D01*
X131605682Y-94700000D01*
X131585044Y-94543238D01*
X131524536Y-94397159D01*
X131428282Y-94271718D01*
X131302841Y-94175464D01*
X131248224Y-94152841D01*
X131156762Y-94114956D01*
X131156760Y-94114955D01*
X131000001Y-94094318D01*
X130999999Y-94094318D01*
X130843239Y-94114955D01*
X130843237Y-94114956D01*
X130697160Y-94175463D01*
X130571718Y-94271718D01*
X130475463Y-94397160D01*
X130414956Y-94543237D01*
X130414955Y-94543239D01*
X130394318Y-94699998D01*
X122850500Y-94699998D01*
X122850500Y-93849998D01*
X127094318Y-93849998D01*
X127094318Y-93850001D01*
X127114955Y-94006760D01*
X127114956Y-94006762D01*
X127175464Y-94152841D01*
X127271718Y-94278282D01*
X127397159Y-94374536D01*
X127543238Y-94435044D01*
X127607673Y-94443527D01*
X127699999Y-94455682D01*
X127700000Y-94455682D01*
X127700001Y-94455682D01*
X127752254Y-94448802D01*
X127856762Y-94435044D01*
X128002841Y-94374536D01*
X128128282Y-94278282D01*
X128224536Y-94152841D01*
X128285044Y-94006762D01*
X128305682Y-93850000D01*
X128285044Y-93693238D01*
X128224536Y-93547159D01*
X128128282Y-93421718D01*
X128002841Y-93325464D01*
X127941361Y-93299998D01*
X135344318Y-93299998D01*
X135344318Y-93300001D01*
X135364955Y-93456760D01*
X135364956Y-93456762D01*
X135425464Y-93602841D01*
X135521718Y-93728282D01*
X135647159Y-93824536D01*
X135793238Y-93885044D01*
X135871619Y-93895363D01*
X135949999Y-93905682D01*
X135950000Y-93905682D01*
X135950001Y-93905682D01*
X136002254Y-93898802D01*
X136106762Y-93885044D01*
X136252841Y-93824536D01*
X136378282Y-93728282D01*
X136474536Y-93602841D01*
X136535044Y-93456762D01*
X136548802Y-93352254D01*
X136555682Y-93300001D01*
X136555682Y-93299998D01*
X136535044Y-93143239D01*
X136535044Y-93143238D01*
X136474536Y-92997159D01*
X136378282Y-92871718D01*
X136252841Y-92775464D01*
X136106762Y-92714956D01*
X136106760Y-92714955D01*
X135950001Y-92694318D01*
X135949999Y-92694318D01*
X135793239Y-92714955D01*
X135793237Y-92714956D01*
X135647160Y-92775463D01*
X135521718Y-92871718D01*
X135425463Y-92997160D01*
X135364956Y-93143237D01*
X135364955Y-93143239D01*
X135344318Y-93299998D01*
X127941361Y-93299998D01*
X127856762Y-93264956D01*
X127856760Y-93264955D01*
X127700001Y-93244318D01*
X127699999Y-93244318D01*
X127543239Y-93264955D01*
X127543237Y-93264956D01*
X127397160Y-93325463D01*
X127271718Y-93421718D01*
X127175463Y-93547160D01*
X127114956Y-93693237D01*
X127114955Y-93693239D01*
X127094318Y-93849998D01*
X122850500Y-93849998D01*
X122850500Y-92004066D01*
X122850765Y-91995956D01*
X122859224Y-91866894D01*
X122865364Y-91773207D01*
X122867479Y-91757153D01*
X122910230Y-91542226D01*
X122914428Y-91526561D01*
X122976349Y-91344148D01*
X122984868Y-91319049D01*
X122991067Y-91304083D01*
X123087995Y-91107533D01*
X123096098Y-91093498D01*
X123217853Y-90911279D01*
X123227710Y-90898433D01*
X123372207Y-90733665D01*
X123383665Y-90722207D01*
X123548433Y-90577710D01*
X123561279Y-90567853D01*
X123743498Y-90446098D01*
X123757533Y-90437995D01*
X123954083Y-90341067D01*
X123969049Y-90334868D01*
X124175945Y-90264637D01*
X124176561Y-90264428D01*
X124192228Y-90260230D01*
X124407153Y-90217479D01*
X124423209Y-90215364D01*
X124628058Y-90201938D01*
X124645958Y-90200765D01*
X124654067Y-90200500D01*
X124689882Y-90200500D01*
X147719512Y-90200500D01*
X147786551Y-90220185D01*
G37*
%TD.AperFunction*%
%TD*%
M02*
