%TF.GenerationSoftware,KiCad,Pcbnew,8.0.5-8.0.5-0~ubuntu24.04.1*%
%TF.CreationDate,2024-09-15T17:00:47-06:00*%
%TF.ProjectId,esp32-s3 single motor & battery controller,65737033-322d-4733-9320-73696e676c65,rev?*%
%TF.SameCoordinates,Original*%
%TF.FileFunction,Copper,L3,Inr*%
%TF.FilePolarity,Positive*%
%FSLAX46Y46*%
G04 Gerber Fmt 4.6, Leading zero omitted, Abs format (unit mm)*
G04 Created by KiCad (PCBNEW 8.0.5-8.0.5-0~ubuntu24.04.1) date 2024-09-15 17:00:47*
%MOMM*%
%LPD*%
G01*
G04 APERTURE LIST*
G04 Aperture macros list*
%AMRoundRect*
0 Rectangle with rounded corners*
0 $1 Rounding radius*
0 $2 $3 $4 $5 $6 $7 $8 $9 X,Y pos of 4 corners*
0 Add a 4 corners polygon primitive as box body*
4,1,4,$2,$3,$4,$5,$6,$7,$8,$9,$2,$3,0*
0 Add four circle primitives for the rounded corners*
1,1,$1+$1,$2,$3*
1,1,$1+$1,$4,$5*
1,1,$1+$1,$6,$7*
1,1,$1+$1,$8,$9*
0 Add four rect primitives between the rounded corners*
20,1,$1+$1,$2,$3,$4,$5,0*
20,1,$1+$1,$4,$5,$6,$7,0*
20,1,$1+$1,$6,$7,$8,$9,0*
20,1,$1+$1,$8,$9,$2,$3,0*%
G04 Aperture macros list end*
%TA.AperFunction,ComponentPad*%
%ADD10R,1.000000X1.000000*%
%TD*%
%TA.AperFunction,ComponentPad*%
%ADD11O,1.000000X1.000000*%
%TD*%
%TA.AperFunction,ComponentPad*%
%ADD12C,0.600000*%
%TD*%
%TA.AperFunction,ComponentPad*%
%ADD13RoundRect,0.250000X0.725000X-0.600000X0.725000X0.600000X-0.725000X0.600000X-0.725000X-0.600000X0*%
%TD*%
%TA.AperFunction,ComponentPad*%
%ADD14O,1.950000X1.700000*%
%TD*%
%TA.AperFunction,ViaPad*%
%ADD15C,0.600000*%
%TD*%
%TA.AperFunction,Conductor*%
%ADD16C,0.200000*%
%TD*%
%TA.AperFunction,Conductor*%
%ADD17C,0.280000*%
%TD*%
G04 APERTURE END LIST*
D10*
%TO.N,/1CSA-A*%
%TO.C,J4*%
X149000000Y-98870000D03*
D11*
%TO.N,/1CSA-B*%
X149000000Y-97600000D03*
%TO.N,/1CSA-C*%
X149000000Y-96330000D03*
%TD*%
D12*
%TO.N,GNDPWR*%
%TO.C,U4*%
X112000000Y-126350000D03*
X113050000Y-127400000D03*
X112000000Y-127400000D03*
X110950000Y-127400000D03*
X112000000Y-128450000D03*
%TD*%
D13*
%TO.N,Net-(J5-Pin_1)*%
%TO.C,J5*%
X143372548Y-125072800D03*
D14*
%TO.N,Net-(J5-Pin_2)*%
X143372548Y-122572800D03*
%TO.N,/PSU/BATT+*%
X143372548Y-120072800D03*
%TD*%
D10*
%TO.N,/1A*%
%TO.C,J3*%
X149000000Y-94000000D03*
D11*
%TO.N,/1B*%
X149000000Y-92730000D03*
%TO.N,/1C*%
X149000000Y-91460000D03*
%TD*%
D15*
%TO.N,VDD*%
X129575000Y-105577817D03*
X140949197Y-103879098D03*
X141149265Y-94850000D03*
X138356629Y-109161887D03*
X131000000Y-94700000D03*
X127700000Y-93850000D03*
%TO.N,GND*%
X123850000Y-100400000D03*
X136300000Y-104350000D03*
X143350000Y-109050000D03*
X145150000Y-102500000D03*
X145100000Y-113400000D03*
X138250000Y-91200000D03*
X125100000Y-93900000D03*
X137500000Y-104300000D03*
X131800000Y-91800000D03*
X138650000Y-95250000D03*
X135900000Y-113600000D03*
X134350000Y-110150000D03*
X123600000Y-106500000D03*
X123600000Y-96600000D03*
X130500000Y-113550000D03*
X145200000Y-108150000D03*
X135000000Y-102750000D03*
X135300000Y-95450000D03*
X126550000Y-112450000D03*
X145850000Y-91700000D03*
%TO.N,/MOTORPWR*%
X134288419Y-119542800D03*
%TO.N,GNDPWR*%
X125600000Y-129400000D03*
X127700000Y-120000000D03*
X125050000Y-128800000D03*
X138500000Y-121400000D03*
X151100000Y-118300000D03*
X150900000Y-98700000D03*
X150100000Y-119200000D03*
X152100000Y-118300000D03*
X110800000Y-121500000D03*
X125600000Y-128200000D03*
X136000000Y-124300000D03*
X150100000Y-117300000D03*
X152100000Y-119200000D03*
X150900000Y-97700000D03*
X112395487Y-123274456D03*
X125600000Y-126900000D03*
X138400000Y-130800000D03*
X109500000Y-123300000D03*
X113700000Y-123300000D03*
X152100000Y-117300000D03*
X151800000Y-97700000D03*
X151800000Y-98700000D03*
X109900000Y-121500000D03*
X138500000Y-122200000D03*
X151100000Y-117300000D03*
X125050000Y-127500000D03*
X151800000Y-96700000D03*
X118900000Y-129200000D03*
X150900000Y-96700000D03*
X125050000Y-130000000D03*
X119700000Y-129400000D03*
X109000000Y-121500000D03*
X135200000Y-124000000D03*
X128873528Y-130925000D03*
X150100000Y-118300000D03*
X151100000Y-119200000D03*
%TO.N,Net-(C19-Pad1)*%
X130500000Y-106300000D03*
%TO.N,/1CSA-B*%
X135100000Y-111300000D03*
%TO.N,/1A*%
X138925001Y-107133076D03*
X142900000Y-99550000D03*
%TO.N,/1CSA-A*%
X133300000Y-111450000D03*
%TO.N,/1CSA-C*%
X136500000Y-110700000D03*
%TO.N,/1C*%
X138900000Y-101400000D03*
X142400000Y-97600000D03*
%TO.N,/CS1*%
X133650000Y-95550000D03*
%TO.N,/1B*%
X140950000Y-99050000D03*
X137401014Y-105825018D03*
%TO.N,/PSU/BATT+*%
X151700000Y-123200000D03*
X122200000Y-123048528D03*
%TO.N,/PSU/IN*%
X112500000Y-118100000D03*
%TO.N,/UART0_TX*%
X139650000Y-110800000D03*
X132750000Y-99850000D03*
%TO.N,/SDA1*%
X136100000Y-109100000D03*
X135288111Y-121904745D03*
X114700000Y-130500000D03*
X126100000Y-96900000D03*
X108778216Y-126909517D03*
%TO.N,/UART0_RX*%
X132250924Y-101049074D03*
X140325000Y-110100000D03*
%TO.N,/SCL1*%
X135372454Y-122795674D03*
X121800000Y-130900000D03*
X137000000Y-109500000D03*
X108800000Y-128000000D03*
X125050000Y-96900000D03*
%TO.N,Net-(U5-MTDI)*%
X134714467Y-101399999D03*
%TO.N,Net-(U5-MTDO)*%
X135350000Y-100800000D03*
%TO.N,Net-(U5-MTCK)*%
X135304681Y-98971407D03*
%TO.N,/NRST*%
X126700000Y-107700000D03*
%TO.N,unconnected-(U5-GPIO12-Pad17)*%
X137650000Y-108550000D03*
%TO.N,/SCK1*%
X135950000Y-93300000D03*
X136960674Y-97800000D03*
%TO.N,/CS0*%
X134057233Y-102057233D03*
%TO.N,Net-(Q4-G)*%
X113625033Y-121772158D03*
X109675735Y-125075735D03*
X114765686Y-118075000D03*
%TO.N,Net-(Q4-S)*%
X109607025Y-129844445D03*
X116045701Y-122164207D03*
%TO.N,Net-(U5-GPIO19{slash}USB_D-)*%
X140550000Y-107500000D03*
X137800000Y-97700000D03*
%TO.N,Net-(U5-GPIO20{slash}USB_D+)*%
X139200000Y-97800000D03*
X140439214Y-106260786D03*
%TO.N,Net-(U5-GPIO21)*%
X140500000Y-105384863D03*
X138600000Y-97200000D03*
%TO.N,Net-(D3-A)*%
X125500000Y-102600000D03*
%TO.N,/LED*%
X133457233Y-102657233D03*
X126300000Y-105900000D03*
%TO.N,Net-(U6-QA)*%
X140650000Y-96350000D03*
%TO.N,Net-(U4-VCC)*%
X118100000Y-125047800D03*
%TO.N,/PSU/REGN*%
X115150000Y-128450000D03*
%TO.N,Net-(U3-BAT)*%
X136776757Y-119248437D03*
%TO.N,/PSU/Low*%
X148200000Y-124100000D03*
X140800000Y-123600000D03*
%TO.N,Net-(Q1-G)*%
X120350000Y-126400000D03*
X115100000Y-126698533D03*
%TO.N,Net-(Q2-G)*%
X114500000Y-129100000D03*
X119575000Y-127500000D03*
%TO.N,Net-(Q7-G)*%
X141500000Y-124440000D03*
X125050000Y-126300000D03*
%TO.N,Net-(U4-ACDRV)*%
X112200000Y-124051471D03*
X108700000Y-125300000D03*
%TO.N,Net-(U4-CMSRC)*%
X113325735Y-124025735D03*
X108696041Y-129736938D03*
%TO.N,Net-(U4-BATSRC)*%
X111300000Y-130500000D03*
X127603298Y-123633643D03*
%TO.N,Net-(U4-BATDRV)*%
X126253064Y-122346936D03*
X112200000Y-130600000D03*
%TO.N,Net-(U3-DSG)*%
X137499873Y-124466433D03*
%TO.N,Net-(U4-ACOK)*%
X111400000Y-124485788D03*
X116800000Y-128700000D03*
%TO.N,Net-(U4-TB_STAT_N)*%
X110600000Y-130900000D03*
%TO.N,Net-(U5-GPIO18)*%
X142650000Y-109650000D03*
X139700000Y-107750000D03*
%TD*%
D16*
%TO.N,VDD*%
X138999265Y-92700000D02*
X141149265Y-94850000D01*
X133000000Y-92700000D02*
X138999265Y-92700000D01*
X132325000Y-93375000D02*
X133000000Y-92700000D01*
X131000000Y-94700000D02*
X132325000Y-93375000D01*
%TO.N,/1CSA-B*%
X146400000Y-99150000D02*
X147950000Y-97600000D01*
X135100000Y-111500000D02*
X135800000Y-112200000D01*
X147950000Y-97600000D02*
X149000000Y-97600000D01*
X135100000Y-111300000D02*
X135100000Y-111500000D01*
X135800000Y-112200000D02*
X144250000Y-112200000D01*
X144250000Y-112200000D02*
X146400000Y-110050000D01*
X146400000Y-110050000D02*
X146400000Y-99150000D01*
%TO.N,/1A*%
X141550000Y-101765686D02*
X138925001Y-104390685D01*
X141550000Y-100900000D02*
X141550000Y-101765686D01*
X138925001Y-104390685D02*
X138925001Y-107133076D01*
X142900000Y-99550000D02*
X141550000Y-100900000D01*
%TO.N,/1CSA-A*%
X147630000Y-98870000D02*
X149000000Y-98870000D01*
X133950000Y-111450000D02*
X135250000Y-112750000D01*
X146800000Y-110215686D02*
X146800000Y-99700000D01*
X144265686Y-112750000D02*
X146800000Y-110215686D01*
X135250000Y-112750000D02*
X144265686Y-112750000D01*
X133300000Y-111450000D02*
X133950000Y-111450000D01*
X146800000Y-99700000D02*
X147630000Y-98870000D01*
%TO.N,/1CSA-C*%
X137200000Y-111400000D02*
X144450000Y-111400000D01*
X148974695Y-96000000D02*
X149000000Y-96000000D01*
X146000000Y-98974695D02*
X148974695Y-96000000D01*
X144450000Y-111400000D02*
X146000000Y-109850000D01*
X146000000Y-109850000D02*
X146000000Y-98974695D01*
X136500000Y-110700000D02*
X137200000Y-111400000D01*
%TO.N,/1C*%
X139950000Y-100350000D02*
X139950000Y-98500000D01*
X140850000Y-97600000D02*
X142400000Y-97600000D01*
X139950000Y-98500000D02*
X140850000Y-97600000D01*
X138900000Y-101400000D02*
X139950000Y-100350000D01*
%TO.N,/1B*%
X137401014Y-105348986D02*
X140400000Y-102350000D01*
X137401014Y-105825018D02*
X137401014Y-105348986D01*
X141150000Y-100000000D02*
X141150000Y-99250000D01*
X140400000Y-100750000D02*
X141150000Y-100000000D01*
X141150000Y-99250000D02*
X140950000Y-99050000D01*
X140400000Y-102350000D02*
X140400000Y-100750000D01*
D17*
%TO.N,/PSU/BATT+*%
X141799748Y-118500000D02*
X143372548Y-120072800D01*
X133694903Y-118500000D02*
X141799748Y-118500000D01*
X127200000Y-122700000D02*
X129494903Y-122700000D01*
X122200000Y-123048528D02*
X122248528Y-123000000D01*
X129494903Y-122700000D02*
X133694903Y-118500000D01*
X122248528Y-123000000D02*
X126900000Y-123000000D01*
X126900000Y-123000000D02*
X127200000Y-122700000D01*
D16*
X143427200Y-120072800D02*
X143372548Y-120072800D01*
%TO.N,/UART0_TX*%
X139650000Y-109606729D02*
X139650000Y-110800000D01*
X131000000Y-102300000D02*
X136650000Y-107950000D01*
X136650000Y-107950000D02*
X137993271Y-107950000D01*
X132601471Y-99850000D02*
X131000000Y-101451471D01*
X131000000Y-101451471D02*
X131000000Y-102300000D01*
X137993271Y-107950000D02*
X139650000Y-109606729D01*
X132750000Y-99850000D02*
X132601471Y-99850000D01*
%TO.N,/SDA1*%
X126100000Y-96900000D02*
X126100000Y-99100000D01*
X135288111Y-121904745D02*
X132959213Y-124233643D01*
X126100000Y-99100000D02*
X136100000Y-109100000D01*
X121000000Y-130600000D02*
X114800000Y-130600000D01*
X132959213Y-124233643D02*
X122266357Y-124233643D01*
X122266357Y-124233643D02*
X121400000Y-125100000D01*
X121400000Y-125100000D02*
X121400000Y-130200000D01*
X121400000Y-130200000D02*
X121000000Y-130600000D01*
X114800000Y-130600000D02*
X114700000Y-130500000D01*
%TO.N,/UART0_RX*%
X137501471Y-107550000D02*
X138300000Y-107550000D01*
X132301850Y-101100000D02*
X132327558Y-101100000D01*
X140325000Y-109575000D02*
X140325000Y-110100000D01*
X138300000Y-107550000D02*
X140325000Y-109575000D01*
X132250924Y-101049074D02*
X132250924Y-102299453D01*
X132250924Y-102299453D02*
X137501471Y-107550000D01*
X132250924Y-101049074D02*
X132301850Y-101100000D01*
%TO.N,/SCL1*%
X125050000Y-98898529D02*
X135951471Y-109800000D01*
X121800000Y-125265686D02*
X121800000Y-130900000D01*
X122432043Y-124633643D02*
X121800000Y-125265686D01*
X134962868Y-122795674D02*
X133124899Y-124633643D01*
X136700000Y-109800000D02*
X137000000Y-109500000D01*
X135951471Y-109800000D02*
X136700000Y-109800000D01*
X133124899Y-124633643D02*
X122432043Y-124633643D01*
X135372454Y-122795674D02*
X134962868Y-122795674D01*
X125050000Y-96900000D02*
X125050000Y-98898529D01*
%TO.N,/SCK1*%
X136960674Y-97800000D02*
X136750000Y-97589326D01*
X136750000Y-94100000D02*
X135950000Y-93300000D01*
X136750000Y-97589326D02*
X136750000Y-94100000D01*
%TO.N,Net-(Q4-G)*%
X114765686Y-120631505D02*
X113625033Y-121772158D01*
X109675735Y-125075735D02*
X109717599Y-125075735D01*
X109717599Y-125075735D02*
X110300000Y-124493334D01*
X111927842Y-121772158D02*
X113625033Y-121772158D01*
X110300000Y-124493334D02*
X110300000Y-123400000D01*
X110300000Y-123400000D02*
X111927842Y-121772158D01*
X114765686Y-118075000D02*
X114765686Y-120631505D01*
%TO.N,Net-(Q4-S)*%
X109607025Y-129844445D02*
X110300000Y-129151470D01*
X110300000Y-129151470D02*
X110300000Y-126815686D01*
X116035793Y-122164207D02*
X116045701Y-122164207D01*
X110300000Y-126815686D02*
X111515686Y-125600000D01*
X112600000Y-125600000D02*
X116035793Y-122164207D01*
X111515686Y-125600000D02*
X112600000Y-125600000D01*
D17*
%TO.N,/PSU/Low*%
X148200000Y-124100000D02*
X147900000Y-123800000D01*
D16*
X141000000Y-123800000D02*
X140800000Y-123600000D01*
D17*
X147900000Y-123800000D02*
X141000000Y-123800000D01*
D16*
%TO.N,Net-(Q1-G)*%
X115398533Y-126400000D02*
X120350000Y-126400000D01*
X115100000Y-126698533D02*
X115398533Y-126400000D01*
%TO.N,Net-(Q2-G)*%
X115500000Y-129100000D02*
X117100000Y-127500000D01*
X114500000Y-129100000D02*
X115500000Y-129100000D01*
X117100000Y-127500000D02*
X119575000Y-127500000D01*
%TO.N,Net-(Q7-G)*%
X140540000Y-125400000D02*
X125950000Y-125400000D01*
X125950000Y-125400000D02*
X125050000Y-126300000D01*
X141500000Y-124440000D02*
X140540000Y-125400000D01*
%TO.N,Net-(U4-ACDRV)*%
X112200000Y-124051471D02*
X111948529Y-123800000D01*
X110084314Y-125900000D02*
X109300000Y-125900000D01*
X110800000Y-124237259D02*
X110800000Y-125184314D01*
X109300000Y-125900000D02*
X108700000Y-125300000D01*
X111948529Y-123800000D02*
X111237259Y-123800000D01*
X111237259Y-123800000D02*
X110800000Y-124237259D01*
X110800000Y-125184314D02*
X110084314Y-125900000D01*
%TO.N,Net-(U4-CMSRC)*%
X109900000Y-126650000D02*
X109900000Y-128532979D01*
X113325735Y-124025735D02*
X113325735Y-124174265D01*
X109900000Y-128532979D02*
X108696041Y-129736938D01*
X113325735Y-124174265D02*
X112300000Y-125200000D01*
X111350000Y-125200000D02*
X109900000Y-126650000D01*
X112300000Y-125200000D02*
X111350000Y-125200000D01*
%TO.N,Net-(U4-BATSRC)*%
X112800000Y-131200000D02*
X111700000Y-131200000D01*
X120950000Y-124950000D02*
X120950000Y-126973529D01*
X120950000Y-126973529D02*
X119823529Y-128100000D01*
X127536941Y-123700000D02*
X122200000Y-123700000D01*
X111700000Y-131200000D02*
X111300000Y-130800000D01*
X122200000Y-123700000D02*
X120950000Y-124950000D01*
X114300000Y-129700000D02*
X112800000Y-131200000D01*
X119823529Y-128100000D02*
X119000000Y-128100000D01*
X119000000Y-128100000D02*
X117400000Y-129700000D01*
X117400000Y-129700000D02*
X114300000Y-129700000D01*
X127603298Y-123633643D02*
X127536941Y-123700000D01*
X111300000Y-130800000D02*
X111300000Y-130500000D01*
%TO.N,Net-(U4-BATDRV)*%
X112200000Y-129900000D02*
X114500000Y-127600000D01*
X112200000Y-130600000D02*
X112200000Y-129900000D01*
X118603067Y-122346936D02*
X126253064Y-122346936D01*
X114500000Y-126450003D02*
X118603067Y-122346936D01*
X114500000Y-127600000D02*
X114500000Y-126450003D01*
%TO.N,Net-(U5-GPIO18)*%
X139700000Y-107750000D02*
X141600000Y-109650000D01*
X141600000Y-109650000D02*
X142650000Y-109650000D01*
%TD*%
%TA.AperFunction,Conductor*%
%TO.N,GNDPWR*%
G36*
X151004043Y-90200765D02*
G01*
X151226790Y-90215364D01*
X151242848Y-90217479D01*
X151428875Y-90254482D01*
X151457771Y-90260230D01*
X151473438Y-90264428D01*
X151626569Y-90316409D01*
X151680944Y-90334867D01*
X151695921Y-90341070D01*
X151886791Y-90435196D01*
X151892460Y-90437992D01*
X151906508Y-90446102D01*
X152088712Y-90567848D01*
X152101573Y-90577716D01*
X152189054Y-90654435D01*
X152266328Y-90722202D01*
X152277797Y-90733671D01*
X152388160Y-90859517D01*
X152422280Y-90898423D01*
X152432154Y-90911291D01*
X152553897Y-91093492D01*
X152562007Y-91107539D01*
X152658926Y-91304071D01*
X152665133Y-91319057D01*
X152735571Y-91526561D01*
X152739769Y-91542228D01*
X152782518Y-91757140D01*
X152784636Y-91773221D01*
X152799235Y-91995956D01*
X152799500Y-92004066D01*
X152799500Y-113900000D01*
X148100000Y-113900000D01*
X148129476Y-99721718D01*
X148149299Y-99654726D01*
X148202198Y-99609081D01*
X148271377Y-99599281D01*
X148323553Y-99619683D01*
X148327232Y-99622203D01*
X148327235Y-99622206D01*
X148430009Y-99667585D01*
X148455135Y-99670500D01*
X149544864Y-99670499D01*
X149544879Y-99670497D01*
X149544882Y-99670497D01*
X149569987Y-99667586D01*
X149569988Y-99667585D01*
X149569991Y-99667585D01*
X149672765Y-99622206D01*
X149752206Y-99542765D01*
X149797585Y-99439991D01*
X149800500Y-99414865D01*
X149800499Y-98325136D01*
X149800497Y-98325117D01*
X149797586Y-98300012D01*
X149797585Y-98300010D01*
X149797585Y-98300009D01*
X149752206Y-98197235D01*
X149710319Y-98155348D01*
X149676834Y-98094025D01*
X149681818Y-98024333D01*
X149693007Y-98001694D01*
X149725788Y-97949524D01*
X149785368Y-97779254D01*
X149785369Y-97779249D01*
X149805565Y-97600003D01*
X149805565Y-97599996D01*
X149785369Y-97420750D01*
X149785368Y-97420745D01*
X149725788Y-97250476D01*
X149629815Y-97097737D01*
X149584759Y-97052681D01*
X149551274Y-96991358D01*
X149556258Y-96921666D01*
X149584759Y-96877319D01*
X149629816Y-96832262D01*
X149725789Y-96679522D01*
X149785368Y-96509255D01*
X149805565Y-96330000D01*
X149785368Y-96150745D01*
X149725789Y-95980478D01*
X149629816Y-95827738D01*
X149502262Y-95700184D01*
X149349523Y-95604211D01*
X149179254Y-95544631D01*
X149179249Y-95544630D01*
X149000004Y-95524435D01*
X148999996Y-95524435D01*
X148820750Y-95544630D01*
X148820745Y-95544631D01*
X148650476Y-95604211D01*
X148497737Y-95700184D01*
X148370184Y-95827737D01*
X148370180Y-95827742D01*
X148366689Y-95833299D01*
X148314353Y-95879588D01*
X148245299Y-95890234D01*
X148181452Y-95861856D01*
X148143082Y-95803465D01*
X148137698Y-95767065D01*
X148137837Y-95700184D01*
X148139586Y-94858646D01*
X148159410Y-94791652D01*
X148212309Y-94746007D01*
X148281488Y-94736207D01*
X148315813Y-94749630D01*
X148316725Y-94747565D01*
X148327234Y-94752205D01*
X148327235Y-94752206D01*
X148430009Y-94797585D01*
X148455135Y-94800500D01*
X149544864Y-94800499D01*
X149544879Y-94800497D01*
X149544882Y-94800497D01*
X149569987Y-94797586D01*
X149569988Y-94797585D01*
X149569991Y-94797585D01*
X149672765Y-94752206D01*
X149752206Y-94672765D01*
X149797585Y-94569991D01*
X149800500Y-94544865D01*
X149800499Y-93455136D01*
X149800497Y-93455117D01*
X149797586Y-93430012D01*
X149797585Y-93430010D01*
X149797585Y-93430009D01*
X149752206Y-93327235D01*
X149710319Y-93285348D01*
X149676834Y-93224025D01*
X149681818Y-93154333D01*
X149693007Y-93131694D01*
X149725788Y-93079524D01*
X149785368Y-92909254D01*
X149785369Y-92909249D01*
X149805565Y-92730003D01*
X149805565Y-92729996D01*
X149785369Y-92550750D01*
X149785368Y-92550745D01*
X149725788Y-92380476D01*
X149629815Y-92227737D01*
X149584759Y-92182681D01*
X149551274Y-92121358D01*
X149556258Y-92051666D01*
X149584759Y-92007319D01*
X149596122Y-91995956D01*
X149629816Y-91962262D01*
X149725789Y-91809522D01*
X149785368Y-91639255D01*
X149785369Y-91639249D01*
X149805565Y-91460003D01*
X149805565Y-91459996D01*
X149785369Y-91280750D01*
X149785368Y-91280745D01*
X149725788Y-91110476D01*
X149632650Y-90962249D01*
X149629816Y-90957738D01*
X149502262Y-90830184D01*
X149349523Y-90734211D01*
X149179254Y-90674631D01*
X149179249Y-90674630D01*
X149000004Y-90654435D01*
X148999996Y-90654435D01*
X148820750Y-90674630D01*
X148820745Y-90674631D01*
X148650476Y-90734211D01*
X148497737Y-90830184D01*
X148370182Y-90957739D01*
X148368796Y-90959478D01*
X148367615Y-90960306D01*
X148365260Y-90962662D01*
X148364847Y-90962249D01*
X148311605Y-90999615D01*
X148241794Y-91002460D01*
X148181526Y-90967111D01*
X148149937Y-90904790D01*
X148147854Y-90881906D01*
X148149014Y-90324242D01*
X148168838Y-90257244D01*
X148221737Y-90211599D01*
X148273014Y-90200500D01*
X150960118Y-90200500D01*
X150995933Y-90200500D01*
X151004043Y-90200765D01*
G37*
%TD.AperFunction*%
%TD*%
%TA.AperFunction,Conductor*%
%TO.N,GNDPWR*%
G36*
X148100000Y-113900000D02*
G01*
X152799500Y-113900000D01*
X152799500Y-129995933D01*
X152799235Y-130004043D01*
X152784636Y-130226778D01*
X152782518Y-130242859D01*
X152739769Y-130457771D01*
X152735571Y-130473438D01*
X152665133Y-130680942D01*
X152658926Y-130695928D01*
X152562007Y-130892460D01*
X152553897Y-130906507D01*
X152432154Y-131088708D01*
X152422280Y-131101576D01*
X152277797Y-131266328D01*
X152266328Y-131277797D01*
X152101576Y-131422280D01*
X152088708Y-131432154D01*
X151906507Y-131553897D01*
X151892460Y-131562007D01*
X151695928Y-131658926D01*
X151680942Y-131665133D01*
X151473438Y-131735571D01*
X151457771Y-131739769D01*
X151242859Y-131782518D01*
X151226778Y-131784636D01*
X151004043Y-131799235D01*
X150995933Y-131799500D01*
X113025412Y-131799500D01*
X112958373Y-131779815D01*
X112912618Y-131727011D01*
X112902674Y-131657853D01*
X112931699Y-131594297D01*
X112963411Y-131568113D01*
X112963850Y-131567859D01*
X113045913Y-131520480D01*
X113923595Y-130642796D01*
X113984916Y-130609313D01*
X114054607Y-130614297D01*
X114110541Y-130656168D01*
X114125834Y-130683025D01*
X114175464Y-130802841D01*
X114271718Y-130928282D01*
X114397159Y-131024536D01*
X114543238Y-131085044D01*
X114621619Y-131095363D01*
X114699999Y-131105682D01*
X114700000Y-131105682D01*
X114700001Y-131105682D01*
X114752254Y-131098802D01*
X114856762Y-131085044D01*
X115002841Y-131024536D01*
X115002845Y-131024532D01*
X115009876Y-131020474D01*
X115010882Y-131022216D01*
X115065932Y-131000931D01*
X115076257Y-131000500D01*
X121052723Y-131000500D01*
X121052727Y-131000500D01*
X121072734Y-130995139D01*
X121142578Y-130996800D01*
X121200442Y-131035960D01*
X121219387Y-131067460D01*
X121275463Y-131202839D01*
X121275464Y-131202841D01*
X121371718Y-131328282D01*
X121497159Y-131424536D01*
X121643238Y-131485044D01*
X121721619Y-131495363D01*
X121799999Y-131505682D01*
X121800000Y-131505682D01*
X121800001Y-131505682D01*
X121852254Y-131498802D01*
X121956762Y-131485044D01*
X122102841Y-131424536D01*
X122228282Y-131328282D01*
X122324536Y-131202841D01*
X122385044Y-131056762D01*
X122405682Y-130900000D01*
X122404689Y-130892460D01*
X122385044Y-130743239D01*
X122385044Y-130743238D01*
X122324536Y-130597159D01*
X122324535Y-130597158D01*
X122324535Y-130597157D01*
X122226124Y-130468905D01*
X122200930Y-130403736D01*
X122200500Y-130393419D01*
X122200500Y-125482940D01*
X122220185Y-125415901D01*
X122236819Y-125395259D01*
X122561616Y-125070462D01*
X122622939Y-125036977D01*
X122649297Y-125034143D01*
X125450102Y-125034143D01*
X125517141Y-125053828D01*
X125562896Y-125106632D01*
X125572840Y-125175790D01*
X125543815Y-125239346D01*
X125537783Y-125245824D01*
X125125008Y-125658597D01*
X125063685Y-125692082D01*
X125053513Y-125693855D01*
X124893238Y-125714956D01*
X124893237Y-125714956D01*
X124747160Y-125775463D01*
X124621718Y-125871718D01*
X124525463Y-125997160D01*
X124464956Y-126143237D01*
X124464955Y-126143239D01*
X124444318Y-126299998D01*
X124444318Y-126300001D01*
X124464955Y-126456760D01*
X124464956Y-126456762D01*
X124523157Y-126597273D01*
X124525464Y-126602841D01*
X124621718Y-126728282D01*
X124747159Y-126824536D01*
X124893238Y-126885044D01*
X124963681Y-126894318D01*
X125049999Y-126905682D01*
X125050000Y-126905682D01*
X125050001Y-126905682D01*
X125102254Y-126898802D01*
X125206762Y-126885044D01*
X125352841Y-126824536D01*
X125478282Y-126728282D01*
X125574536Y-126602841D01*
X125635044Y-126456762D01*
X125655682Y-126300000D01*
X125655681Y-126299997D01*
X125656144Y-126296485D01*
X125684410Y-126232589D01*
X125691389Y-126225002D01*
X126079574Y-125836819D01*
X126140897Y-125803334D01*
X126167255Y-125800500D01*
X140592725Y-125800500D01*
X140592727Y-125800500D01*
X140694588Y-125773207D01*
X140785913Y-125720480D01*
X141424991Y-125081400D01*
X141486312Y-125047917D01*
X141496485Y-125046144D01*
X141499997Y-125045681D01*
X141500000Y-125045682D01*
X141656762Y-125025044D01*
X141802841Y-124964536D01*
X141897563Y-124891852D01*
X141962731Y-124866660D01*
X142031175Y-124880698D01*
X142081165Y-124929512D01*
X142097048Y-124990230D01*
X142097048Y-125715902D01*
X142101187Y-125750367D01*
X142107670Y-125804361D01*
X142163187Y-125945143D01*
X142254625Y-126065722D01*
X142375204Y-126157160D01*
X142375205Y-126157160D01*
X142375206Y-126157161D01*
X142515984Y-126212677D01*
X142604446Y-126223300D01*
X142604451Y-126223300D01*
X144140645Y-126223300D01*
X144140650Y-126223300D01*
X144229112Y-126212677D01*
X144369890Y-126157161D01*
X144490470Y-126065722D01*
X144581909Y-125945142D01*
X144637425Y-125804364D01*
X144648048Y-125715902D01*
X144648048Y-124429698D01*
X144641994Y-124379283D01*
X144653546Y-124310375D01*
X144700519Y-124258651D01*
X144765110Y-124240500D01*
X147525366Y-124240500D01*
X147592405Y-124260185D01*
X147638160Y-124312989D01*
X147639927Y-124317047D01*
X147674613Y-124400788D01*
X147675464Y-124402841D01*
X147771718Y-124528282D01*
X147897159Y-124624536D01*
X148043238Y-124685044D01*
X148113681Y-124694318D01*
X148199999Y-124705682D01*
X148200000Y-124705682D01*
X148200001Y-124705682D01*
X148252254Y-124698802D01*
X148356762Y-124685044D01*
X148502841Y-124624536D01*
X148628282Y-124528282D01*
X148724536Y-124402841D01*
X148785044Y-124256762D01*
X148805682Y-124100000D01*
X148797539Y-124038151D01*
X148785044Y-123943239D01*
X148785044Y-123943238D01*
X148724536Y-123797159D01*
X148628282Y-123671718D01*
X148502841Y-123575464D01*
X148356762Y-123514956D01*
X148311759Y-123509031D01*
X148261629Y-123502431D01*
X148197732Y-123474164D01*
X148190134Y-123467173D01*
X148170475Y-123447514D01*
X148170473Y-123447512D01*
X148120250Y-123418515D01*
X148070028Y-123389519D01*
X148014010Y-123374509D01*
X147957993Y-123359500D01*
X147957992Y-123359500D01*
X144590291Y-123359500D01*
X144523252Y-123339815D01*
X144477497Y-123287011D01*
X144467553Y-123217853D01*
X144473214Y-123199998D01*
X151094318Y-123199998D01*
X151094318Y-123200001D01*
X151114955Y-123356760D01*
X151114956Y-123356762D01*
X151164710Y-123476880D01*
X151175464Y-123502841D01*
X151271718Y-123628282D01*
X151397159Y-123724536D01*
X151543238Y-123785044D01*
X151621619Y-123795363D01*
X151699999Y-123805682D01*
X151700000Y-123805682D01*
X151700001Y-123805682D01*
X151764739Y-123797159D01*
X151856762Y-123785044D01*
X152002841Y-123724536D01*
X152128282Y-123628282D01*
X152224536Y-123502841D01*
X152285044Y-123356762D01*
X152305682Y-123200000D01*
X152302944Y-123179205D01*
X152286261Y-123052485D01*
X152285044Y-123043238D01*
X152224536Y-122897159D01*
X152128282Y-122771718D01*
X152002841Y-122675464D01*
X151914594Y-122638911D01*
X151856762Y-122614956D01*
X151856760Y-122614955D01*
X151700001Y-122594318D01*
X151699999Y-122594318D01*
X151543239Y-122614955D01*
X151543237Y-122614956D01*
X151397160Y-122675463D01*
X151271718Y-122771718D01*
X151175463Y-122897160D01*
X151114956Y-123043237D01*
X151114955Y-123043239D01*
X151094318Y-123199998D01*
X144473214Y-123199998D01*
X144479806Y-123179205D01*
X144563759Y-123014439D01*
X144563760Y-123014436D01*
X144570297Y-122994318D01*
X144619719Y-122842209D01*
X144646129Y-122675464D01*
X144648048Y-122663351D01*
X144648048Y-122482248D01*
X144628242Y-122357202D01*
X144619719Y-122303391D01*
X144577242Y-122172658D01*
X144563760Y-122131163D01*
X144563759Y-122131160D01*
X144519396Y-122044095D01*
X144481544Y-121969806D01*
X144436827Y-121908258D01*
X144375106Y-121823305D01*
X144375102Y-121823300D01*
X144247047Y-121695245D01*
X144247042Y-121695241D01*
X144100545Y-121588806D01*
X144100544Y-121588805D01*
X144100542Y-121588804D01*
X144048848Y-121562464D01*
X143939187Y-121506588D01*
X143939184Y-121506587D01*
X143766958Y-121450629D01*
X143733142Y-121445273D01*
X143670007Y-121415344D01*
X143633076Y-121356032D01*
X143634074Y-121286170D01*
X143672684Y-121227937D01*
X143733142Y-121200327D01*
X143740936Y-121199092D01*
X143766957Y-121194971D01*
X143939187Y-121139011D01*
X144100542Y-121056796D01*
X144247049Y-120950353D01*
X144375101Y-120822301D01*
X144481544Y-120675794D01*
X144563759Y-120514439D01*
X144619719Y-120342209D01*
X144634313Y-120250059D01*
X144648048Y-120163351D01*
X144648048Y-119982248D01*
X144627753Y-119854119D01*
X144619719Y-119803391D01*
X144591739Y-119717276D01*
X144563760Y-119631163D01*
X144563759Y-119631160D01*
X144518737Y-119542801D01*
X144481544Y-119469806D01*
X144438422Y-119410453D01*
X144375106Y-119323305D01*
X144375102Y-119323300D01*
X144247047Y-119195245D01*
X144247042Y-119195241D01*
X144100545Y-119088806D01*
X144100544Y-119088805D01*
X144100542Y-119088804D01*
X144048848Y-119062464D01*
X143939187Y-119006588D01*
X143939184Y-119006587D01*
X143766958Y-118950629D01*
X143588099Y-118922300D01*
X143588094Y-118922300D01*
X143157002Y-118922300D01*
X143156997Y-118922300D01*
X142978138Y-118950629D01*
X142971295Y-118952852D01*
X142901454Y-118954840D01*
X142845307Y-118922598D01*
X142070223Y-118147514D01*
X142070221Y-118147512D01*
X142019998Y-118118515D01*
X141969776Y-118089519D01*
X141913758Y-118074509D01*
X141857741Y-118059500D01*
X133752896Y-118059500D01*
X133636910Y-118059500D01*
X133524874Y-118089519D01*
X133424430Y-118147512D01*
X133424427Y-118147514D01*
X129348761Y-122223181D01*
X129287438Y-122256666D01*
X129261080Y-122259500D01*
X127257993Y-122259500D01*
X127142007Y-122259500D01*
X127029973Y-122289519D01*
X127029972Y-122289519D01*
X127029970Y-122289520D01*
X127029967Y-122289521D01*
X127024527Y-122292662D01*
X126956626Y-122309131D01*
X126890600Y-122286276D01*
X126847412Y-122231353D01*
X126839593Y-122201455D01*
X126838108Y-122190174D01*
X126777600Y-122044095D01*
X126681346Y-121918654D01*
X126555905Y-121822400D01*
X126409826Y-121761892D01*
X126409824Y-121761891D01*
X126253065Y-121741254D01*
X126253063Y-121741254D01*
X126096303Y-121761891D01*
X126096301Y-121761892D01*
X125950224Y-121822399D01*
X125926954Y-121840254D01*
X125824782Y-121918654D01*
X125824780Y-121918656D01*
X125821971Y-121920812D01*
X125756801Y-121946006D01*
X125746484Y-121946436D01*
X118550340Y-121946436D01*
X118448477Y-121973729D01*
X118357154Y-122026456D01*
X118357151Y-122026458D01*
X114179522Y-126204087D01*
X114179518Y-126204093D01*
X114126793Y-126295414D01*
X114126793Y-126295415D01*
X114125566Y-126299998D01*
X114125433Y-126300493D01*
X114125431Y-126300499D01*
X114099500Y-126397276D01*
X114099500Y-127382745D01*
X114079815Y-127449784D01*
X114063181Y-127470426D01*
X111879522Y-129654084D01*
X111879520Y-129654087D01*
X111826793Y-129745411D01*
X111826793Y-129745412D01*
X111804987Y-129826794D01*
X111801200Y-129840929D01*
X111799500Y-129847274D01*
X111799500Y-129874918D01*
X111779815Y-129941957D01*
X111727011Y-129987712D01*
X111657853Y-129997656D01*
X111610845Y-129977858D01*
X111609881Y-129979528D01*
X111602843Y-129975465D01*
X111602838Y-129975463D01*
X111456762Y-129914956D01*
X111456760Y-129914955D01*
X111300001Y-129894318D01*
X111299999Y-129894318D01*
X111143239Y-129914955D01*
X111143237Y-129914956D01*
X110997160Y-129975463D01*
X110871716Y-130071719D01*
X110775464Y-130197158D01*
X110775460Y-130197165D01*
X110764635Y-130223297D01*
X110720792Y-130277699D01*
X110654497Y-130299761D01*
X110633893Y-130298779D01*
X110600004Y-130294318D01*
X110599999Y-130294318D01*
X110443239Y-130314955D01*
X110443237Y-130314956D01*
X110297157Y-130375464D01*
X110215901Y-130437815D01*
X110175652Y-130453375D01*
X110166754Y-130478128D01*
X110164985Y-130480491D01*
X110075464Y-130597157D01*
X110014956Y-130743237D01*
X110014955Y-130743239D01*
X109994318Y-130899998D01*
X109994318Y-130900001D01*
X110014955Y-131056760D01*
X110014956Y-131056762D01*
X110071974Y-131194417D01*
X110075464Y-131202841D01*
X110171718Y-131328282D01*
X110297159Y-131424536D01*
X110443238Y-131485044D01*
X110521619Y-131495363D01*
X110599999Y-131505682D01*
X110600000Y-131505682D01*
X110600001Y-131505682D01*
X110652254Y-131498802D01*
X110756762Y-131485044D01*
X110902841Y-131424536D01*
X111028282Y-131328282D01*
X111043632Y-131308276D01*
X111100060Y-131267074D01*
X111169806Y-131262919D01*
X111229689Y-131296082D01*
X111379519Y-131445912D01*
X111379520Y-131445913D01*
X111454087Y-131520480D01*
X111519789Y-131558413D01*
X111536590Y-131568113D01*
X111584806Y-131618680D01*
X111598028Y-131687287D01*
X111572060Y-131752152D01*
X111515146Y-131792680D01*
X111474590Y-131799500D01*
X110104067Y-131799500D01*
X110095957Y-131799235D01*
X109873221Y-131784636D01*
X109857140Y-131782518D01*
X109642228Y-131739769D01*
X109626561Y-131735571D01*
X109419057Y-131665133D01*
X109404071Y-131658926D01*
X109207539Y-131562007D01*
X109193492Y-131553897D01*
X109011291Y-131432154D01*
X108998423Y-131422280D01*
X108833671Y-131277797D01*
X108822202Y-131266328D01*
X108759138Y-131194417D01*
X108677716Y-131101573D01*
X108667845Y-131088708D01*
X108665396Y-131085043D01*
X108546102Y-130906507D01*
X108537992Y-130892460D01*
X108493796Y-130802839D01*
X108441070Y-130695921D01*
X108434866Y-130680942D01*
X108364428Y-130473438D01*
X108360233Y-130457788D01*
X108359979Y-130456512D01*
X108366197Y-130386920D01*
X108409052Y-130331737D01*
X108474938Y-130308483D01*
X108529044Y-130317742D01*
X108539279Y-130321982D01*
X108613376Y-130331737D01*
X108696040Y-130342620D01*
X108696041Y-130342620D01*
X108696042Y-130342620D01*
X108748295Y-130335740D01*
X108852803Y-130321982D01*
X108998882Y-130261474D01*
X109008275Y-130254265D01*
X109073441Y-130229070D01*
X109141886Y-130243106D01*
X109171672Y-130268296D01*
X109172992Y-130266977D01*
X109178736Y-130272720D01*
X109178739Y-130272723D01*
X109178743Y-130272727D01*
X109304184Y-130368981D01*
X109450263Y-130429489D01*
X109513506Y-130437815D01*
X109607024Y-130450127D01*
X109607025Y-130450127D01*
X109607026Y-130450127D01*
X109700544Y-130437815D01*
X109763787Y-130429489D01*
X109909866Y-130368981D01*
X109991126Y-130306627D01*
X110031372Y-130291068D01*
X110040271Y-130266315D01*
X110041989Y-130264018D01*
X110131561Y-130147286D01*
X110192069Y-130001207D01*
X110212707Y-129844445D01*
X110212706Y-129844441D01*
X110213169Y-129840929D01*
X110241435Y-129777033D01*
X110248405Y-129769456D01*
X110535703Y-129482157D01*
X110535708Y-129482154D01*
X110545911Y-129471950D01*
X110545913Y-129471950D01*
X110620480Y-129397383D01*
X110673207Y-129306057D01*
X110678464Y-129286438D01*
X110679243Y-129283533D01*
X110698302Y-129212402D01*
X110700501Y-129204197D01*
X110700501Y-129098743D01*
X110700501Y-129091148D01*
X110700500Y-129091130D01*
X110700500Y-127032940D01*
X110720185Y-126965901D01*
X110736819Y-126945259D01*
X111645259Y-126036819D01*
X111706582Y-126003334D01*
X111732940Y-126000500D01*
X112652725Y-126000500D01*
X112652727Y-126000500D01*
X112754588Y-125973207D01*
X112845913Y-125920480D01*
X115960184Y-122806207D01*
X116021507Y-122772723D01*
X116037647Y-122770987D01*
X116037643Y-122770950D01*
X116097401Y-122763082D01*
X116202463Y-122749251D01*
X116348542Y-122688743D01*
X116473983Y-122592489D01*
X116570237Y-122467048D01*
X116630745Y-122320969D01*
X116649897Y-122175492D01*
X116651383Y-122164208D01*
X116651383Y-122164205D01*
X116630745Y-122007446D01*
X116630745Y-122007445D01*
X116570237Y-121861366D01*
X116473983Y-121735925D01*
X116348542Y-121639671D01*
X116202463Y-121579163D01*
X116202461Y-121579162D01*
X116045702Y-121558525D01*
X116045700Y-121558525D01*
X115888940Y-121579162D01*
X115888938Y-121579163D01*
X115742861Y-121639670D01*
X115617419Y-121735925D01*
X115521164Y-121861367D01*
X115460657Y-122007444D01*
X115460657Y-122007445D01*
X115441058Y-122156310D01*
X115412791Y-122220206D01*
X115405800Y-122227805D01*
X113976494Y-123657111D01*
X113915171Y-123690596D01*
X113845479Y-123685612D01*
X113790438Y-123644917D01*
X113754019Y-123597455D01*
X113754017Y-123597454D01*
X113754017Y-123597453D01*
X113628576Y-123501199D01*
X113576238Y-123479520D01*
X113482497Y-123440691D01*
X113482495Y-123440690D01*
X113325736Y-123420053D01*
X113325734Y-123420053D01*
X113168974Y-123440690D01*
X113168972Y-123440691D01*
X113022895Y-123501198D01*
X112897450Y-123597455D01*
X112851368Y-123657511D01*
X112794940Y-123698714D01*
X112725194Y-123702868D01*
X112664274Y-123668655D01*
X112654617Y-123657510D01*
X112628283Y-123623190D01*
X112600463Y-123601843D01*
X112502841Y-123526935D01*
X112473921Y-123514956D01*
X112356762Y-123466427D01*
X112356760Y-123466426D01*
X112200001Y-123445789D01*
X112199997Y-123445789D01*
X112189625Y-123447154D01*
X112120590Y-123436385D01*
X112111450Y-123431603D01*
X112103123Y-123426796D01*
X112103119Y-123426794D01*
X112103117Y-123426793D01*
X112001256Y-123399500D01*
X112001255Y-123399500D01*
X111297598Y-123399500D01*
X111297582Y-123399499D01*
X111289986Y-123399499D01*
X111184532Y-123399499D01*
X111184528Y-123399499D01*
X111180896Y-123399977D01*
X111177832Y-123399499D01*
X111176404Y-123399499D01*
X111176404Y-123399276D01*
X111111861Y-123389208D01*
X111059608Y-123342825D01*
X111040726Y-123275555D01*
X111061210Y-123208756D01*
X111077031Y-123189361D01*
X112057416Y-122208977D01*
X112118739Y-122175492D01*
X112145097Y-122172658D01*
X113118453Y-122172658D01*
X113185492Y-122192343D01*
X113193940Y-122198282D01*
X113196749Y-122200437D01*
X113196751Y-122200440D01*
X113322192Y-122296694D01*
X113468271Y-122357202D01*
X113545672Y-122367392D01*
X113625032Y-122377840D01*
X113625033Y-122377840D01*
X113625034Y-122377840D01*
X113677287Y-122370960D01*
X113781795Y-122357202D01*
X113927874Y-122296694D01*
X114053315Y-122200440D01*
X114149569Y-122074999D01*
X114210077Y-121928920D01*
X114230715Y-121772158D01*
X114230714Y-121772155D01*
X114231177Y-121768643D01*
X114259443Y-121704747D01*
X114266422Y-121697160D01*
X115086166Y-120877418D01*
X115138893Y-120786093D01*
X115166186Y-120684232D01*
X115166186Y-120578778D01*
X115166186Y-118581580D01*
X115185871Y-118514541D01*
X115191810Y-118506093D01*
X115193965Y-118503283D01*
X115193968Y-118503282D01*
X115290222Y-118377841D01*
X115350730Y-118231762D01*
X115371368Y-118075000D01*
X115369327Y-118059500D01*
X115350730Y-117918239D01*
X115350730Y-117918238D01*
X115310846Y-117821951D01*
X115303378Y-117752484D01*
X115334653Y-117690004D01*
X115394742Y-117654352D01*
X115425408Y-117650500D01*
X120783108Y-117650500D01*
X120823039Y-117645651D01*
X121047376Y-117618412D01*
X121305852Y-117554703D01*
X121554764Y-117460303D01*
X121790483Y-117336589D01*
X122009570Y-117185363D01*
X122208832Y-117008832D01*
X122385363Y-116809570D01*
X122536589Y-116590483D01*
X122660303Y-116354764D01*
X122754703Y-116105852D01*
X122818412Y-115847376D01*
X122850500Y-115583106D01*
X122850500Y-115450000D01*
X122850500Y-115410118D01*
X122850500Y-114329500D01*
X122870185Y-114262461D01*
X122922989Y-114216706D01*
X122974500Y-114205500D01*
X135890488Y-114205500D01*
X135893265Y-114205682D01*
X135900000Y-114205682D01*
X135906735Y-114205682D01*
X135909512Y-114205500D01*
X147670759Y-114205500D01*
X147670759Y-114205499D01*
X147735386Y-114198585D01*
X147786663Y-114187486D01*
X147812067Y-114180243D01*
X147824579Y-114176676D01*
X147824579Y-114176675D01*
X147824582Y-114176675D01*
X147921613Y-114120198D01*
X147974512Y-114074553D01*
X148016784Y-114029906D01*
X148067878Y-113929935D01*
X148067880Y-113929926D01*
X148068192Y-113929317D01*
X148091118Y-113897875D01*
X148100020Y-113889010D01*
X148100022Y-113889010D01*
X148100000Y-113900000D01*
G37*
%TD.AperFunction*%
%TA.AperFunction,Conductor*%
G36*
X120918833Y-127673601D02*
G01*
X120974767Y-127715473D01*
X120999184Y-127780937D01*
X120999500Y-127789783D01*
X120999500Y-129982745D01*
X120979815Y-130049784D01*
X120963181Y-130070426D01*
X120870426Y-130163181D01*
X120809103Y-130196666D01*
X120782745Y-130199500D01*
X117766255Y-130199500D01*
X117699216Y-130179815D01*
X117653461Y-130127011D01*
X117643517Y-130057853D01*
X117672542Y-129994297D01*
X117678574Y-129987819D01*
X119129573Y-128536819D01*
X119190896Y-128503334D01*
X119217254Y-128500500D01*
X119876254Y-128500500D01*
X119876256Y-128500500D01*
X119978117Y-128473207D01*
X120069442Y-128420480D01*
X120787819Y-127702101D01*
X120849142Y-127668617D01*
X120918833Y-127673601D01*
G37*
%TD.AperFunction*%
%TA.AperFunction,Conductor*%
G36*
X136137660Y-118960185D02*
G01*
X136183415Y-119012989D01*
X136193359Y-119082147D01*
X136192266Y-119087471D01*
X136171075Y-119248435D01*
X136171075Y-119248438D01*
X136191712Y-119405197D01*
X136191713Y-119405199D01*
X136252221Y-119551278D01*
X136348475Y-119676719D01*
X136473916Y-119772973D01*
X136619995Y-119833481D01*
X136698376Y-119843800D01*
X136776756Y-119854119D01*
X136776757Y-119854119D01*
X136776758Y-119854119D01*
X136841169Y-119845639D01*
X136933519Y-119833481D01*
X137079598Y-119772973D01*
X137205039Y-119676719D01*
X137301293Y-119551278D01*
X137361801Y-119405199D01*
X137382439Y-119248437D01*
X137378052Y-119215118D01*
X137360740Y-119083617D01*
X137363438Y-119083261D01*
X137364776Y-119026758D01*
X137403932Y-118968891D01*
X137468157Y-118941379D01*
X137482893Y-118940500D01*
X141565925Y-118940500D01*
X141632964Y-118960185D01*
X141653606Y-118976819D01*
X142160369Y-119483582D01*
X142193854Y-119544905D01*
X142188870Y-119614597D01*
X142183174Y-119627556D01*
X142181335Y-119631164D01*
X142125377Y-119803389D01*
X142097048Y-119982248D01*
X142097048Y-120163351D01*
X142125377Y-120342210D01*
X142181335Y-120514436D01*
X142181336Y-120514439D01*
X142263554Y-120675797D01*
X142369989Y-120822294D01*
X142369993Y-120822299D01*
X142498048Y-120950354D01*
X142498053Y-120950358D01*
X142625835Y-121043196D01*
X142644554Y-121056796D01*
X142750032Y-121110540D01*
X142805908Y-121139011D01*
X142805911Y-121139012D01*
X142883557Y-121164240D01*
X142978139Y-121194971D01*
X143002839Y-121198883D01*
X143011954Y-121200327D01*
X143075088Y-121230257D01*
X143112019Y-121289568D01*
X143111021Y-121359431D01*
X143072411Y-121417663D01*
X143011954Y-121445273D01*
X142978137Y-121450629D01*
X142805911Y-121506587D01*
X142805908Y-121506588D01*
X142644550Y-121588806D01*
X142498053Y-121695241D01*
X142498048Y-121695245D01*
X142369993Y-121823300D01*
X142369989Y-121823305D01*
X142263554Y-121969802D01*
X142181336Y-122131160D01*
X142181335Y-122131163D01*
X142125377Y-122303389D01*
X142097048Y-122482248D01*
X142097048Y-122663351D01*
X142125377Y-122842210D01*
X142181335Y-123014436D01*
X142181336Y-123014439D01*
X142265290Y-123179205D01*
X142278186Y-123247874D01*
X142251910Y-123312614D01*
X142194804Y-123352872D01*
X142154805Y-123359500D01*
X141432120Y-123359500D01*
X141365081Y-123339815D01*
X141330101Y-123303131D01*
X141329483Y-123303606D01*
X141325068Y-123297852D01*
X141324734Y-123297502D01*
X141324535Y-123297158D01*
X141228283Y-123171719D01*
X141228282Y-123171718D01*
X141102841Y-123075464D01*
X141037809Y-123048527D01*
X140956762Y-123014956D01*
X140956760Y-123014955D01*
X140800001Y-122994318D01*
X140799999Y-122994318D01*
X140643239Y-123014955D01*
X140643237Y-123014956D01*
X140497160Y-123075463D01*
X140371718Y-123171718D01*
X140275463Y-123297160D01*
X140214956Y-123443237D01*
X140214955Y-123443239D01*
X140194318Y-123599998D01*
X140194318Y-123600001D01*
X140214955Y-123756760D01*
X140214956Y-123756762D01*
X140275464Y-123902841D01*
X140371718Y-124028282D01*
X140497159Y-124124536D01*
X140643238Y-124185044D01*
X140800000Y-124205682D01*
X140800001Y-124205681D01*
X140800094Y-124205694D01*
X140863991Y-124233960D01*
X140902462Y-124292285D01*
X140906848Y-124344818D01*
X140893855Y-124443512D01*
X140865589Y-124507409D01*
X140858597Y-124515008D01*
X140410426Y-124963181D01*
X140349103Y-124996666D01*
X140322745Y-124999500D01*
X138099198Y-124999500D01*
X138032159Y-124979815D01*
X137986404Y-124927011D01*
X137976460Y-124857853D01*
X138000822Y-124800014D01*
X138024408Y-124769275D01*
X138024407Y-124769275D01*
X138024409Y-124769274D01*
X138084917Y-124623195D01*
X138102362Y-124490690D01*
X138105555Y-124466434D01*
X138105555Y-124466431D01*
X138084917Y-124309672D01*
X138084917Y-124309671D01*
X138024409Y-124163592D01*
X137928155Y-124038151D01*
X137802714Y-123941897D01*
X137656635Y-123881389D01*
X137656633Y-123881388D01*
X137499874Y-123860751D01*
X137499872Y-123860751D01*
X137343112Y-123881388D01*
X137343110Y-123881389D01*
X137197033Y-123941896D01*
X137071591Y-124038151D01*
X136975336Y-124163593D01*
X136914829Y-124309670D01*
X136914828Y-124309672D01*
X136894191Y-124466431D01*
X136894191Y-124466434D01*
X136914828Y-124623193D01*
X136914829Y-124623195D01*
X136975337Y-124769275D01*
X136998924Y-124800014D01*
X137024118Y-124865184D01*
X137010079Y-124933628D01*
X136961265Y-124983618D01*
X136900548Y-124999500D01*
X133624797Y-124999500D01*
X133557758Y-124979815D01*
X133512003Y-124927011D01*
X133502059Y-124857853D01*
X133531084Y-124794297D01*
X133537116Y-124787819D01*
X133888681Y-124436254D01*
X134965144Y-123359789D01*
X135026465Y-123326306D01*
X135096156Y-123331290D01*
X135100273Y-123332910D01*
X135215692Y-123380718D01*
X135280180Y-123389208D01*
X135372453Y-123401356D01*
X135372454Y-123401356D01*
X135372455Y-123401356D01*
X135462365Y-123389519D01*
X135529216Y-123380718D01*
X135675295Y-123320210D01*
X135800736Y-123223956D01*
X135896990Y-123098515D01*
X135957498Y-122952436D01*
X135978136Y-122795674D01*
X135975114Y-122772723D01*
X135957498Y-122638913D01*
X135957498Y-122638912D01*
X135896990Y-122492833D01*
X135896989Y-122492832D01*
X135896989Y-122492831D01*
X135803302Y-122370736D01*
X135778108Y-122305567D01*
X135792146Y-122237122D01*
X135803304Y-122219762D01*
X135803545Y-122219447D01*
X135812647Y-122207586D01*
X135873155Y-122061507D01*
X135893793Y-121904745D01*
X135883070Y-121823299D01*
X135873155Y-121747984D01*
X135873155Y-121747983D01*
X135812647Y-121601904D01*
X135716393Y-121476463D01*
X135590952Y-121380209D01*
X135508446Y-121346034D01*
X135444873Y-121319701D01*
X135444871Y-121319700D01*
X135288112Y-121299063D01*
X135288110Y-121299063D01*
X135131350Y-121319700D01*
X135131348Y-121319701D01*
X134985271Y-121380208D01*
X134859829Y-121476463D01*
X134763574Y-121601905D01*
X134703067Y-121747982D01*
X134703067Y-121747983D01*
X134681966Y-121908258D01*
X134653699Y-121972154D01*
X134646708Y-121979753D01*
X132829639Y-123796824D01*
X132768316Y-123830309D01*
X132741958Y-123833143D01*
X128324110Y-123833143D01*
X128257071Y-123813458D01*
X128211316Y-123760654D01*
X128201171Y-123692957D01*
X128204371Y-123668655D01*
X128208980Y-123633643D01*
X128204793Y-123601843D01*
X128191706Y-123502431D01*
X128188342Y-123476881D01*
X128127834Y-123330802D01*
X128127832Y-123330799D01*
X128125348Y-123326495D01*
X128108879Y-123258594D01*
X128131734Y-123192568D01*
X128186657Y-123149380D01*
X128232738Y-123140500D01*
X129552894Y-123140500D01*
X129552896Y-123140500D01*
X129664930Y-123110481D01*
X129765376Y-123052488D01*
X133486247Y-119331616D01*
X133547568Y-119298133D01*
X133617260Y-119303117D01*
X133673193Y-119344989D01*
X133697610Y-119410453D01*
X133696865Y-119435484D01*
X133682737Y-119542798D01*
X133682737Y-119542801D01*
X133703374Y-119699560D01*
X133703375Y-119699562D01*
X133746381Y-119803389D01*
X133763883Y-119845641D01*
X133860137Y-119971082D01*
X133985578Y-120067336D01*
X134131657Y-120127844D01*
X134210038Y-120138163D01*
X134288418Y-120148482D01*
X134288419Y-120148482D01*
X134288420Y-120148482D01*
X134340673Y-120141602D01*
X134445181Y-120127844D01*
X134591260Y-120067336D01*
X134716701Y-119971082D01*
X134812955Y-119845641D01*
X134873463Y-119699562D01*
X134892985Y-119551276D01*
X134894101Y-119542801D01*
X134894101Y-119542798D01*
X134876633Y-119410118D01*
X134873463Y-119386038D01*
X134812955Y-119239959D01*
X134736241Y-119139984D01*
X134711049Y-119074817D01*
X134725087Y-119006373D01*
X134773901Y-118956383D01*
X134834619Y-118940500D01*
X136070621Y-118940500D01*
X136137660Y-118960185D01*
G37*
%TD.AperFunction*%
%TA.AperFunction,Conductor*%
G36*
X111917672Y-117670185D02*
G01*
X111963427Y-117722989D01*
X111973371Y-117792147D01*
X111965194Y-117821953D01*
X111914956Y-117943237D01*
X111914955Y-117943239D01*
X111894318Y-118099998D01*
X111894318Y-118100001D01*
X111914955Y-118256760D01*
X111914956Y-118256762D01*
X111955454Y-118354534D01*
X111975464Y-118402841D01*
X112071718Y-118528282D01*
X112197159Y-118624536D01*
X112343238Y-118685044D01*
X112421619Y-118695363D01*
X112499999Y-118705682D01*
X112500000Y-118705682D01*
X112500001Y-118705682D01*
X112552254Y-118698802D01*
X112656762Y-118685044D01*
X112802841Y-118624536D01*
X112928282Y-118528282D01*
X113024536Y-118402841D01*
X113085044Y-118256762D01*
X113105682Y-118100000D01*
X113102390Y-118074998D01*
X113085044Y-117943239D01*
X113085044Y-117943238D01*
X113034805Y-117821952D01*
X113027337Y-117752483D01*
X113058612Y-117690004D01*
X113118701Y-117654352D01*
X113149367Y-117650500D01*
X114105964Y-117650500D01*
X114173003Y-117670185D01*
X114218758Y-117722989D01*
X114228702Y-117792147D01*
X114220525Y-117821953D01*
X114180642Y-117918237D01*
X114180641Y-117918239D01*
X114160004Y-118074998D01*
X114160004Y-118075001D01*
X114180641Y-118231760D01*
X114180642Y-118231762D01*
X114190996Y-118256760D01*
X114241150Y-118377841D01*
X114337404Y-118503282D01*
X114337406Y-118503283D01*
X114339562Y-118506093D01*
X114364756Y-118571263D01*
X114365186Y-118581580D01*
X114365186Y-120414249D01*
X114345501Y-120481288D01*
X114328867Y-120501930D01*
X113700041Y-121130755D01*
X113638718Y-121164240D01*
X113628546Y-121166013D01*
X113468271Y-121187114D01*
X113468270Y-121187114D01*
X113322193Y-121247621D01*
X113322192Y-121247622D01*
X113196751Y-121343876D01*
X113196749Y-121343878D01*
X113193940Y-121346034D01*
X113128770Y-121371228D01*
X113118453Y-121371658D01*
X111875115Y-121371658D01*
X111773252Y-121398951D01*
X111681929Y-121451678D01*
X111681926Y-121451680D01*
X109979522Y-123154084D01*
X109979520Y-123154087D01*
X109926791Y-123245413D01*
X109904605Y-123328222D01*
X109904604Y-123328226D01*
X109899500Y-123347272D01*
X109899500Y-124276077D01*
X109879815Y-124343116D01*
X109863181Y-124363758D01*
X109790685Y-124436254D01*
X109729362Y-124469739D01*
X109686819Y-124471512D01*
X109675736Y-124470053D01*
X109675734Y-124470053D01*
X109518974Y-124490690D01*
X109518972Y-124490691D01*
X109372895Y-124551198D01*
X109372894Y-124551199D01*
X109247453Y-124647453D01*
X109170462Y-124747788D01*
X109114036Y-124788990D01*
X109044290Y-124793145D01*
X109011076Y-124777457D01*
X109009881Y-124779528D01*
X109002843Y-124775465D01*
X108929195Y-124744959D01*
X108856762Y-124714956D01*
X108856760Y-124714955D01*
X108700001Y-124694318D01*
X108699999Y-124694318D01*
X108543239Y-124714955D01*
X108543234Y-124714957D01*
X108471952Y-124744483D01*
X108402483Y-124751952D01*
X108340004Y-124720676D01*
X108304352Y-124660587D01*
X108300500Y-124629922D01*
X108300500Y-119454066D01*
X108300765Y-119445956D01*
X108303436Y-119405199D01*
X108315364Y-119223207D01*
X108317479Y-119207153D01*
X108360230Y-118992226D01*
X108364428Y-118976561D01*
X108426349Y-118794148D01*
X108434868Y-118769049D01*
X108441067Y-118754083D01*
X108537995Y-118557533D01*
X108546098Y-118543498D01*
X108667853Y-118361279D01*
X108677710Y-118348433D01*
X108822207Y-118183665D01*
X108833665Y-118172207D01*
X108998433Y-118027710D01*
X109011279Y-118017853D01*
X109193498Y-117896098D01*
X109207533Y-117887995D01*
X109404083Y-117791067D01*
X109419049Y-117784868D01*
X109625945Y-117714637D01*
X109626561Y-117714428D01*
X109642228Y-117710230D01*
X109857153Y-117667479D01*
X109873209Y-117665364D01*
X110078058Y-117651938D01*
X110095958Y-117650765D01*
X110104067Y-117650500D01*
X110139882Y-117650500D01*
X111850633Y-117650500D01*
X111917672Y-117670185D01*
G37*
%TD.AperFunction*%
%TD*%
%TA.AperFunction,Conductor*%
%TO.N,GND*%
G36*
X147786551Y-90220185D02*
G01*
X147832306Y-90272989D01*
X147843512Y-90324758D01*
X147842354Y-90881273D01*
X147843612Y-90909606D01*
X147843612Y-90909612D01*
X147845687Y-90932402D01*
X147845949Y-90935148D01*
X147877442Y-91042908D01*
X147877442Y-91042909D01*
X147909029Y-91105227D01*
X147942208Y-91156999D01*
X147942209Y-91157001D01*
X148026961Y-91230625D01*
X148026962Y-91230626D01*
X148026965Y-91230628D01*
X148061820Y-91251071D01*
X148085570Y-91265002D01*
X148133437Y-91315899D01*
X148146834Y-91372219D01*
X148140604Y-94369237D01*
X148120780Y-94436235D01*
X148078983Y-94476146D01*
X148012730Y-94514709D01*
X148012728Y-94514710D01*
X147959836Y-94560349D01*
X147917560Y-94604999D01*
X147872462Y-94693237D01*
X147866466Y-94704968D01*
X147846642Y-94771962D01*
X147834270Y-94856762D01*
X147834087Y-94858014D01*
X147834086Y-94858017D01*
X147832338Y-95699549D01*
X147832198Y-95766419D01*
X147832199Y-95766438D01*
X147835485Y-95811759D01*
X147840871Y-95848178D01*
X147841717Y-95852841D01*
X147844407Y-95867677D01*
X147867037Y-95921718D01*
X147887774Y-95971239D01*
X147926140Y-96029623D01*
X147926142Y-96029626D01*
X147964903Y-96077348D01*
X148048688Y-96135044D01*
X148058995Y-96142141D01*
X148103045Y-96196375D01*
X148110782Y-96265815D01*
X148079748Y-96328415D01*
X148076349Y-96331950D01*
X145679522Y-98728779D01*
X145679520Y-98728782D01*
X145626794Y-98820104D01*
X145626793Y-98820106D01*
X145626793Y-98820107D01*
X145617688Y-98854087D01*
X145617687Y-98854088D01*
X145599500Y-98921966D01*
X145599500Y-109632745D01*
X145579815Y-109699784D01*
X145563181Y-109720426D01*
X144320426Y-110963181D01*
X144259103Y-110996666D01*
X144232745Y-110999500D01*
X140370812Y-110999500D01*
X140303773Y-110979815D01*
X140258018Y-110927011D01*
X140247873Y-110859315D01*
X140254676Y-110807639D01*
X140282942Y-110743743D01*
X140341266Y-110705271D01*
X140361421Y-110700887D01*
X140481762Y-110685044D01*
X140627841Y-110624536D01*
X140753282Y-110528282D01*
X140849536Y-110402841D01*
X140910044Y-110256762D01*
X140930682Y-110100000D01*
X140910044Y-109943238D01*
X140853880Y-109807648D01*
X140846412Y-109738179D01*
X140877687Y-109675700D01*
X140937776Y-109640048D01*
X141007601Y-109642542D01*
X141056123Y-109672515D01*
X141275179Y-109891571D01*
X141275189Y-109891582D01*
X141279519Y-109895912D01*
X141279520Y-109895913D01*
X141354087Y-109970480D01*
X141354089Y-109970481D01*
X141354090Y-109970482D01*
X141394765Y-109993965D01*
X141394767Y-109993967D01*
X141394768Y-109993967D01*
X141445412Y-110023207D01*
X141547273Y-110050500D01*
X142143420Y-110050500D01*
X142210459Y-110070185D01*
X142218907Y-110076124D01*
X142221716Y-110078279D01*
X142221718Y-110078282D01*
X142347159Y-110174536D01*
X142493238Y-110235044D01*
X142571619Y-110245363D01*
X142649999Y-110255682D01*
X142650000Y-110255682D01*
X142650001Y-110255682D01*
X142702254Y-110248802D01*
X142806762Y-110235044D01*
X142952841Y-110174536D01*
X143078282Y-110078282D01*
X143174536Y-109952841D01*
X143235044Y-109806762D01*
X143255682Y-109650000D01*
X143253410Y-109632745D01*
X143239951Y-109530509D01*
X143235044Y-109493238D01*
X143174536Y-109347159D01*
X143078282Y-109221718D01*
X142952841Y-109125464D01*
X142951979Y-109125107D01*
X142806762Y-109064956D01*
X142806760Y-109064955D01*
X142650001Y-109044318D01*
X142649999Y-109044318D01*
X142493239Y-109064955D01*
X142493237Y-109064956D01*
X142347160Y-109125463D01*
X142347159Y-109125464D01*
X142221718Y-109221718D01*
X142221716Y-109221720D01*
X142218907Y-109223876D01*
X142153737Y-109249070D01*
X142143420Y-109249500D01*
X141817254Y-109249500D01*
X141750215Y-109229815D01*
X141729573Y-109213181D01*
X140763509Y-108247117D01*
X140730024Y-108185794D01*
X140735008Y-108116102D01*
X140776880Y-108060169D01*
X140803738Y-108044875D01*
X140852841Y-108024536D01*
X140978282Y-107928282D01*
X141074536Y-107802841D01*
X141135044Y-107656762D01*
X141155682Y-107500000D01*
X141135044Y-107343238D01*
X141074536Y-107197159D01*
X140978282Y-107071718D01*
X140852841Y-106975464D01*
X140818389Y-106961193D01*
X140763987Y-106917352D01*
X140741923Y-106851058D01*
X140759203Y-106783359D01*
X140790355Y-106748259D01*
X140867496Y-106689068D01*
X140963750Y-106563627D01*
X141024258Y-106417548D01*
X141044896Y-106260786D01*
X141043910Y-106253300D01*
X141026898Y-106124075D01*
X141024258Y-106104024D01*
X140983696Y-106006098D01*
X140963752Y-105957949D01*
X140963750Y-105957945D01*
X140948383Y-105937918D01*
X140923190Y-105872749D01*
X140937229Y-105804304D01*
X140948378Y-105786955D01*
X141024536Y-105687704D01*
X141085044Y-105541625D01*
X141105682Y-105384863D01*
X141104444Y-105375463D01*
X141085044Y-105228102D01*
X141085044Y-105228101D01*
X141024536Y-105082022D01*
X140928282Y-104956581D01*
X140802841Y-104860327D01*
X140656762Y-104799819D01*
X140656760Y-104799818D01*
X140500001Y-104779181D01*
X140499999Y-104779181D01*
X140343239Y-104799818D01*
X140343237Y-104799819D01*
X140197160Y-104860326D01*
X140071718Y-104956581D01*
X139975463Y-105082023D01*
X139914956Y-105228100D01*
X139914955Y-105228102D01*
X139894318Y-105384861D01*
X139894318Y-105384864D01*
X139914955Y-105541623D01*
X139914957Y-105541628D01*
X139975461Y-105687699D01*
X139975464Y-105687705D01*
X139990829Y-105707728D01*
X140016024Y-105772897D01*
X140001986Y-105841342D01*
X139990830Y-105858701D01*
X139914678Y-105957943D01*
X139854170Y-106104023D01*
X139854169Y-106104025D01*
X139833532Y-106260784D01*
X139833532Y-106260787D01*
X139854169Y-106417546D01*
X139854170Y-106417548D01*
X139914678Y-106563627D01*
X140010932Y-106689068D01*
X140136373Y-106785322D01*
X140136374Y-106785322D01*
X140136375Y-106785323D01*
X140170821Y-106799591D01*
X140225225Y-106843432D01*
X140247290Y-106909726D01*
X140230011Y-106977425D01*
X140198856Y-107012527D01*
X140121718Y-107071717D01*
X140121717Y-107071718D01*
X140061448Y-107150262D01*
X140005020Y-107191465D01*
X139935274Y-107195619D01*
X139915620Y-107189336D01*
X139882130Y-107175464D01*
X139856762Y-107164956D01*
X139856760Y-107164955D01*
X139700001Y-107144318D01*
X139699997Y-107144318D01*
X139657960Y-107149852D01*
X139588925Y-107139086D01*
X139536670Y-107092706D01*
X139518837Y-107043098D01*
X139514812Y-107012527D01*
X139510045Y-106976314D01*
X139449537Y-106830235D01*
X139449536Y-106830234D01*
X139449536Y-106830233D01*
X139351125Y-106701981D01*
X139325931Y-106636812D01*
X139325501Y-106626495D01*
X139325501Y-104607940D01*
X139345186Y-104540901D01*
X139361820Y-104520259D01*
X139700142Y-104181937D01*
X140136846Y-103745232D01*
X140198167Y-103711749D01*
X140267858Y-103716733D01*
X140323792Y-103758605D01*
X140348209Y-103824069D01*
X140347464Y-103849100D01*
X140343515Y-103879096D01*
X140343515Y-103879099D01*
X140364152Y-104035858D01*
X140364153Y-104035860D01*
X140424661Y-104181939D01*
X140520915Y-104307380D01*
X140646356Y-104403634D01*
X140792435Y-104464142D01*
X140870816Y-104474461D01*
X140949196Y-104484780D01*
X140949197Y-104484780D01*
X140949198Y-104484780D01*
X141001451Y-104477900D01*
X141105959Y-104464142D01*
X141252038Y-104403634D01*
X141377479Y-104307380D01*
X141473733Y-104181939D01*
X141534241Y-104035860D01*
X141554879Y-103879098D01*
X141534241Y-103722336D01*
X141473733Y-103576257D01*
X141377479Y-103450816D01*
X141252038Y-103354562D01*
X141105959Y-103294054D01*
X141105957Y-103294053D01*
X140949198Y-103273416D01*
X140949196Y-103273416D01*
X140919199Y-103277365D01*
X140850163Y-103266599D01*
X140797908Y-103220219D01*
X140779023Y-103152950D01*
X140799504Y-103086150D01*
X140815328Y-103066750D01*
X141870480Y-102011599D01*
X141923207Y-101920274D01*
X141950500Y-101818413D01*
X141950500Y-101712959D01*
X141950500Y-101117254D01*
X141970185Y-101050215D01*
X141986815Y-101029577D01*
X142824991Y-100191400D01*
X142886312Y-100157917D01*
X142896485Y-100156144D01*
X142899997Y-100155681D01*
X142900000Y-100155682D01*
X143056762Y-100135044D01*
X143202841Y-100074536D01*
X143328282Y-99978282D01*
X143424536Y-99852841D01*
X143485044Y-99706762D01*
X143505682Y-99550000D01*
X143503803Y-99535731D01*
X143485044Y-99393239D01*
X143485044Y-99393238D01*
X143424536Y-99247159D01*
X143328282Y-99121718D01*
X143202841Y-99025464D01*
X143072338Y-98971408D01*
X143056762Y-98964956D01*
X143056760Y-98964955D01*
X142900001Y-98944318D01*
X142899999Y-98944318D01*
X142743239Y-98964955D01*
X142743237Y-98964956D01*
X142597160Y-99025463D01*
X142471718Y-99121718D01*
X142375463Y-99247160D01*
X142314956Y-99393237D01*
X142314956Y-99393238D01*
X142293855Y-99553513D01*
X142265588Y-99617409D01*
X142258597Y-99625008D01*
X141762181Y-100121425D01*
X141700858Y-100154910D01*
X141631167Y-100149926D01*
X141575233Y-100108055D01*
X141550816Y-100042590D01*
X141550500Y-100033744D01*
X141550500Y-99312729D01*
X141550501Y-99312716D01*
X141550501Y-99197275D01*
X141550501Y-99197273D01*
X141547356Y-99185538D01*
X141544193Y-99137265D01*
X141555682Y-99050000D01*
X141535044Y-98893238D01*
X141474536Y-98747159D01*
X141378282Y-98621718D01*
X141252841Y-98525464D01*
X141106762Y-98464956D01*
X141106760Y-98464955D01*
X140950001Y-98444318D01*
X140949999Y-98444318D01*
X140876942Y-98453936D01*
X140807907Y-98443170D01*
X140755651Y-98396790D01*
X140736766Y-98329521D01*
X140757247Y-98262721D01*
X140773071Y-98243321D01*
X140979574Y-98036819D01*
X141040897Y-98003334D01*
X141067255Y-98000500D01*
X141893420Y-98000500D01*
X141960459Y-98020185D01*
X141968907Y-98026124D01*
X141971716Y-98028279D01*
X141971718Y-98028282D01*
X142097159Y-98124536D01*
X142243238Y-98185044D01*
X142321619Y-98195363D01*
X142399999Y-98205682D01*
X142400000Y-98205682D01*
X142400001Y-98205682D01*
X142452254Y-98198802D01*
X142556762Y-98185044D01*
X142702841Y-98124536D01*
X142828282Y-98028282D01*
X142924536Y-97902841D01*
X142985044Y-97756762D01*
X143005682Y-97600000D01*
X142985044Y-97443238D01*
X142924536Y-97297159D01*
X142828282Y-97171718D01*
X142702841Y-97075464D01*
X142657690Y-97056762D01*
X142556762Y-97014956D01*
X142556760Y-97014955D01*
X142400001Y-96994318D01*
X142399999Y-96994318D01*
X142243239Y-97014955D01*
X142243237Y-97014956D01*
X142097160Y-97075463D01*
X142097159Y-97075464D01*
X141971718Y-97171718D01*
X141971716Y-97171720D01*
X141968907Y-97173876D01*
X141903737Y-97199070D01*
X141893420Y-97199500D01*
X140797273Y-97199500D01*
X140695410Y-97226793D01*
X140604087Y-97279520D01*
X140604084Y-97279522D01*
X140015814Y-97867792D01*
X139954491Y-97901277D01*
X139884799Y-97896293D01*
X139828866Y-97854421D01*
X139805194Y-97796296D01*
X139799989Y-97756762D01*
X139785044Y-97643238D01*
X139724536Y-97497159D01*
X139628282Y-97371718D01*
X139502841Y-97275464D01*
X139493797Y-97271718D01*
X139460054Y-97257741D01*
X139356762Y-97214956D01*
X139332043Y-97211701D01*
X139299354Y-97207398D01*
X139235458Y-97179131D01*
X139196987Y-97120806D01*
X139192601Y-97100644D01*
X139186824Y-97056762D01*
X139185044Y-97043238D01*
X139124536Y-96897159D01*
X139028282Y-96771718D01*
X138902841Y-96675464D01*
X138848224Y-96652841D01*
X138756762Y-96614956D01*
X138756760Y-96614955D01*
X138600001Y-96594318D01*
X138599999Y-96594318D01*
X138443239Y-96614955D01*
X138443237Y-96614956D01*
X138297160Y-96675463D01*
X138171718Y-96771718D01*
X138075463Y-96897160D01*
X138020188Y-97030607D01*
X137976347Y-97085010D01*
X137910053Y-97107075D01*
X137889442Y-97106093D01*
X137800001Y-97094318D01*
X137799999Y-97094318D01*
X137643239Y-97114955D01*
X137643237Y-97114956D01*
X137497157Y-97175464D01*
X137387411Y-97259675D01*
X137322241Y-97284869D01*
X137264472Y-97275860D01*
X137227047Y-97260358D01*
X137172644Y-97216517D01*
X137150579Y-97150223D01*
X137150500Y-97145797D01*
X137150500Y-96349998D01*
X140044318Y-96349998D01*
X140044318Y-96350001D01*
X140064955Y-96506760D01*
X140064956Y-96506762D01*
X140125464Y-96652841D01*
X140221718Y-96778282D01*
X140347159Y-96874536D01*
X140493238Y-96935044D01*
X140571619Y-96945363D01*
X140649999Y-96955682D01*
X140650000Y-96955682D01*
X140650001Y-96955682D01*
X140702254Y-96948802D01*
X140806762Y-96935044D01*
X140952841Y-96874536D01*
X141078282Y-96778282D01*
X141174536Y-96652841D01*
X141235044Y-96506762D01*
X141255682Y-96350000D01*
X141252840Y-96328415D01*
X141235044Y-96193239D01*
X141235044Y-96193238D01*
X141174536Y-96047159D01*
X141078282Y-95921718D01*
X140952841Y-95825464D01*
X140919754Y-95811759D01*
X140806762Y-95764956D01*
X140806760Y-95764955D01*
X140650001Y-95744318D01*
X140649999Y-95744318D01*
X140493239Y-95764955D01*
X140493237Y-95764956D01*
X140347160Y-95825463D01*
X140221718Y-95921718D01*
X140125463Y-96047160D01*
X140064956Y-96193237D01*
X140064955Y-96193239D01*
X140044318Y-96349998D01*
X137150500Y-96349998D01*
X137150500Y-94047275D01*
X137150500Y-94047273D01*
X137123207Y-93945413D01*
X137123207Y-93945412D01*
X137070480Y-93854087D01*
X136591402Y-93375009D01*
X136557917Y-93313686D01*
X136556144Y-93303512D01*
X136547873Y-93240684D01*
X136558639Y-93171649D01*
X136605019Y-93119394D01*
X136670812Y-93100500D01*
X138782010Y-93100500D01*
X138849049Y-93120185D01*
X138869691Y-93136819D01*
X140507862Y-94774990D01*
X140541347Y-94836313D01*
X140543120Y-94846485D01*
X140544638Y-94858014D01*
X140564221Y-95006762D01*
X140624729Y-95152841D01*
X140720983Y-95278282D01*
X140846424Y-95374536D01*
X140992503Y-95435044D01*
X141070884Y-95445363D01*
X141149264Y-95455682D01*
X141149265Y-95455682D01*
X141149266Y-95455682D01*
X141201519Y-95448802D01*
X141306027Y-95435044D01*
X141452106Y-95374536D01*
X141577547Y-95278282D01*
X141673801Y-95152841D01*
X141734309Y-95006762D01*
X141754947Y-94850000D01*
X141734309Y-94693238D01*
X141673801Y-94547159D01*
X141577547Y-94421718D01*
X141452106Y-94325464D01*
X141306027Y-94264956D01*
X141249842Y-94257559D01*
X141145750Y-94243855D01*
X141081854Y-94215588D01*
X141074255Y-94208597D01*
X139245180Y-92379522D01*
X139245178Y-92379520D01*
X139199515Y-92353156D01*
X139153854Y-92326793D01*
X139102922Y-92313146D01*
X139051992Y-92299500D01*
X133052727Y-92299500D01*
X132947273Y-92299500D01*
X132845410Y-92326793D01*
X132754087Y-92379520D01*
X132754084Y-92379522D01*
X132079087Y-93054520D01*
X131075008Y-94058597D01*
X131013685Y-94092082D01*
X131003513Y-94093855D01*
X130843238Y-94114956D01*
X130843237Y-94114956D01*
X130697160Y-94175463D01*
X130571718Y-94271718D01*
X130475463Y-94397160D01*
X130414956Y-94543237D01*
X130414955Y-94543239D01*
X130394318Y-94699998D01*
X130394318Y-94700001D01*
X130414955Y-94856760D01*
X130414956Y-94856762D01*
X130475464Y-95002841D01*
X130571718Y-95128282D01*
X130697159Y-95224536D01*
X130843238Y-95285044D01*
X130921619Y-95295363D01*
X130999999Y-95305682D01*
X131000000Y-95305682D01*
X131000001Y-95305682D01*
X131052254Y-95298802D01*
X131156762Y-95285044D01*
X131302841Y-95224536D01*
X131428282Y-95128282D01*
X131524536Y-95002841D01*
X131585044Y-94856762D01*
X131605682Y-94700000D01*
X131605681Y-94699997D01*
X131606144Y-94696485D01*
X131634410Y-94632589D01*
X131641390Y-94625001D01*
X132645480Y-93620913D01*
X133129574Y-93136819D01*
X133190897Y-93103334D01*
X133217255Y-93100500D01*
X135229188Y-93100500D01*
X135296227Y-93120185D01*
X135341982Y-93172989D01*
X135352127Y-93240686D01*
X135344318Y-93300000D01*
X135344318Y-93300001D01*
X135364955Y-93456760D01*
X135364956Y-93456762D01*
X135425464Y-93602841D01*
X135521718Y-93728282D01*
X135647159Y-93824536D01*
X135793238Y-93885044D01*
X135950000Y-93905682D01*
X135950001Y-93905681D01*
X135953513Y-93906144D01*
X136017410Y-93934410D01*
X136025009Y-93941402D01*
X136313181Y-94229574D01*
X136346666Y-94290897D01*
X136349500Y-94317255D01*
X136349500Y-97642052D01*
X136349501Y-97642060D01*
X136360741Y-97684012D01*
X136363905Y-97732286D01*
X136354992Y-97799995D01*
X136354992Y-97800001D01*
X136375629Y-97956760D01*
X136375630Y-97956761D01*
X136375630Y-97956762D01*
X136436138Y-98102841D01*
X136532392Y-98228282D01*
X136657833Y-98324536D01*
X136803912Y-98385044D01*
X136882293Y-98395363D01*
X136960673Y-98405682D01*
X136960674Y-98405682D01*
X136960675Y-98405682D01*
X137028216Y-98396790D01*
X137117436Y-98385044D01*
X137263515Y-98324536D01*
X137373262Y-98240324D01*
X137438429Y-98215130D01*
X137496199Y-98224139D01*
X137568501Y-98254087D01*
X137643238Y-98285044D01*
X137721619Y-98295363D01*
X137799999Y-98305682D01*
X137800000Y-98305682D01*
X137800001Y-98305682D01*
X137852254Y-98298802D01*
X137956762Y-98285044D01*
X138102841Y-98224536D01*
X138228282Y-98128282D01*
X138324536Y-98002841D01*
X138372421Y-97887236D01*
X138416259Y-97832835D01*
X138482553Y-97810770D01*
X138550253Y-97828049D01*
X138597863Y-97879186D01*
X138609919Y-97918504D01*
X138614956Y-97956762D01*
X138675464Y-98102841D01*
X138771718Y-98228282D01*
X138897159Y-98324536D01*
X139043238Y-98385044D01*
X139121619Y-98395363D01*
X139199999Y-98405682D01*
X139200000Y-98405682D01*
X139200001Y-98405682D01*
X139267542Y-98396790D01*
X139356762Y-98385044D01*
X139378048Y-98376226D01*
X139447516Y-98368758D01*
X139509995Y-98400033D01*
X139545648Y-98460122D01*
X139549500Y-98490788D01*
X139549500Y-100132744D01*
X139529815Y-100199783D01*
X139513181Y-100220425D01*
X138975008Y-100758597D01*
X138913685Y-100792082D01*
X138903513Y-100793855D01*
X138743238Y-100814956D01*
X138743237Y-100814956D01*
X138597160Y-100875463D01*
X138471718Y-100971718D01*
X138375463Y-101097160D01*
X138314956Y-101243237D01*
X138314955Y-101243239D01*
X138294318Y-101399998D01*
X138294318Y-101400001D01*
X138314955Y-101556760D01*
X138314956Y-101556761D01*
X138314956Y-101556762D01*
X138375464Y-101702841D01*
X138471718Y-101828282D01*
X138597159Y-101924536D01*
X138743238Y-101985044D01*
X138813681Y-101994318D01*
X138899999Y-102005682D01*
X138900000Y-102005682D01*
X138900001Y-102005682D01*
X138959376Y-101997865D01*
X139056762Y-101985044D01*
X139202841Y-101924536D01*
X139328282Y-101828282D01*
X139424536Y-101702841D01*
X139485044Y-101556762D01*
X139505682Y-101400000D01*
X139505681Y-101399997D01*
X139506144Y-101396485D01*
X139534410Y-101332589D01*
X139541389Y-101325002D01*
X139787820Y-101078572D01*
X139849142Y-101045088D01*
X139918834Y-101050072D01*
X139974767Y-101091944D01*
X139999184Y-101157408D01*
X139999500Y-101166254D01*
X139999500Y-102132745D01*
X139979815Y-102199784D01*
X139963181Y-102220426D01*
X137080536Y-105103070D01*
X137080534Y-105103073D01*
X137027805Y-105194400D01*
X137006218Y-105274972D01*
X137006217Y-105274977D01*
X137000514Y-105296258D01*
X137000514Y-105318437D01*
X136980829Y-105385476D01*
X136974890Y-105393923D01*
X136876478Y-105522175D01*
X136815970Y-105668255D01*
X136815969Y-105668257D01*
X136795332Y-105825016D01*
X136795332Y-105825019D01*
X136816249Y-105983899D01*
X136805483Y-106052934D01*
X136759103Y-106105190D01*
X136691834Y-106124075D01*
X136625034Y-106103594D01*
X136605629Y-106087765D01*
X133825856Y-103307992D01*
X133792371Y-103246669D01*
X133797355Y-103176977D01*
X133838051Y-103121935D01*
X133884687Y-103086150D01*
X133885515Y-103085515D01*
X133981769Y-102960074D01*
X134042277Y-102813995D01*
X134049834Y-102756588D01*
X134078100Y-102692692D01*
X134136424Y-102654220D01*
X134156586Y-102649834D01*
X134213995Y-102642277D01*
X134360074Y-102581769D01*
X134485515Y-102485515D01*
X134581769Y-102360074D01*
X134642277Y-102213995D01*
X134656493Y-102106012D01*
X134684759Y-102042116D01*
X134743084Y-102003645D01*
X134763247Y-101999259D01*
X134871229Y-101985043D01*
X135017308Y-101924535D01*
X135142749Y-101828281D01*
X135239003Y-101702840D01*
X135299511Y-101556761D01*
X135306441Y-101504114D01*
X135334706Y-101440220D01*
X135393030Y-101401748D01*
X135413191Y-101397362D01*
X135506762Y-101385044D01*
X135652841Y-101324536D01*
X135778282Y-101228282D01*
X135874536Y-101102841D01*
X135935044Y-100956762D01*
X135955682Y-100800000D01*
X135948603Y-100746233D01*
X135935044Y-100643239D01*
X135935044Y-100643238D01*
X135874536Y-100497159D01*
X135778282Y-100371718D01*
X135652841Y-100275464D01*
X135506762Y-100214956D01*
X135506760Y-100214955D01*
X135350001Y-100194318D01*
X135349999Y-100194318D01*
X135193239Y-100214955D01*
X135193237Y-100214956D01*
X135047160Y-100275463D01*
X134921718Y-100371718D01*
X134825463Y-100497160D01*
X134764956Y-100643238D01*
X134758024Y-100695885D01*
X134729756Y-100759781D01*
X134671431Y-100798251D01*
X134651272Y-100802636D01*
X134557705Y-100814955D01*
X134557704Y-100814955D01*
X134411627Y-100875462D01*
X134286185Y-100971717D01*
X134189930Y-101097159D01*
X134129423Y-101243236D01*
X134129423Y-101243238D01*
X134115206Y-101351219D01*
X134086939Y-101415116D01*
X134028614Y-101453586D01*
X134008453Y-101457972D01*
X133913318Y-101470497D01*
X133900471Y-101472189D01*
X133900470Y-101472189D01*
X133754393Y-101532696D01*
X133628951Y-101628951D01*
X133532696Y-101754393D01*
X133472189Y-101900470D01*
X133472189Y-101900472D01*
X133464631Y-101957878D01*
X133436364Y-102021775D01*
X133378039Y-102060245D01*
X133357878Y-102064631D01*
X133319970Y-102069621D01*
X133300471Y-102072189D01*
X133300470Y-102072189D01*
X133154393Y-102132696D01*
X133154392Y-102132697D01*
X133028951Y-102228951D01*
X133028949Y-102228952D01*
X133028948Y-102228954D01*
X132992528Y-102276416D01*
X132936100Y-102317618D01*
X132866354Y-102321771D01*
X132806473Y-102288609D01*
X132687743Y-102169879D01*
X132654258Y-102108556D01*
X132651424Y-102082198D01*
X132651424Y-101555654D01*
X132671109Y-101488615D01*
X132677048Y-101480167D01*
X132679203Y-101477357D01*
X132679206Y-101477356D01*
X132775460Y-101351915D01*
X132835968Y-101205836D01*
X132856606Y-101049074D01*
X132835968Y-100892312D01*
X132775460Y-100746233D01*
X132775459Y-100746232D01*
X132775459Y-100746231D01*
X132701378Y-100649687D01*
X132676184Y-100584518D01*
X132690222Y-100516073D01*
X132739036Y-100466084D01*
X132783566Y-100451262D01*
X132906762Y-100435044D01*
X133052841Y-100374536D01*
X133178282Y-100278282D01*
X133274536Y-100152841D01*
X133335044Y-100006762D01*
X133355682Y-99850000D01*
X133335044Y-99693238D01*
X133274536Y-99547159D01*
X133178282Y-99421718D01*
X133052841Y-99325464D01*
X133042805Y-99321307D01*
X132906762Y-99264956D01*
X132906760Y-99264955D01*
X132750001Y-99244318D01*
X132749999Y-99244318D01*
X132593239Y-99264955D01*
X132593237Y-99264956D01*
X132447160Y-99325463D01*
X132321718Y-99421718D01*
X132225463Y-99547160D01*
X132164952Y-99693246D01*
X132163712Y-99697876D01*
X132131621Y-99753455D01*
X130679522Y-101205555D01*
X130679518Y-101205561D01*
X130626792Y-101296883D01*
X130626793Y-101296884D01*
X130599500Y-101398744D01*
X130599500Y-102247273D01*
X130599500Y-102352727D01*
X130611487Y-102397463D01*
X130626793Y-102454589D01*
X130644648Y-102485514D01*
X130679520Y-102545913D01*
X130679521Y-102545914D01*
X130679522Y-102545915D01*
X136325179Y-108191571D01*
X136325189Y-108191582D01*
X136404088Y-108270481D01*
X136429311Y-108285043D01*
X136465059Y-108305682D01*
X136465061Y-108305683D01*
X136495411Y-108323206D01*
X136495412Y-108323206D01*
X136495413Y-108323207D01*
X136597273Y-108350501D01*
X136597275Y-108350501D01*
X136710323Y-108350501D01*
X136710339Y-108350500D01*
X136929188Y-108350500D01*
X136996227Y-108370185D01*
X137041982Y-108422989D01*
X137052127Y-108490686D01*
X137044318Y-108550000D01*
X137044318Y-108550001D01*
X137064955Y-108706760D01*
X137064957Y-108706765D01*
X137073426Y-108727211D01*
X137080895Y-108796680D01*
X137049619Y-108859159D01*
X136989530Y-108894811D01*
X136975051Y-108897602D01*
X136843238Y-108914956D01*
X136843234Y-108914957D01*
X136812772Y-108927575D01*
X136743302Y-108935044D01*
X136680823Y-108903768D01*
X136650759Y-108860467D01*
X136624536Y-108797160D01*
X136624536Y-108797159D01*
X136528282Y-108671718D01*
X136402841Y-108575464D01*
X136256762Y-108514956D01*
X136237789Y-108512458D01*
X136096483Y-108493854D01*
X136032587Y-108465587D01*
X136024988Y-108458596D01*
X126537798Y-98971405D01*
X134698999Y-98971405D01*
X134698999Y-98971408D01*
X134719636Y-99128167D01*
X134719637Y-99128169D01*
X134778592Y-99270500D01*
X134780145Y-99274248D01*
X134876399Y-99399689D01*
X135001840Y-99495943D01*
X135147919Y-99556451D01*
X135226300Y-99566770D01*
X135304680Y-99577089D01*
X135304681Y-99577089D01*
X135304682Y-99577089D01*
X135373377Y-99568045D01*
X135461443Y-99556451D01*
X135607522Y-99495943D01*
X135732963Y-99399689D01*
X135829217Y-99274248D01*
X135889725Y-99128169D01*
X135910363Y-98971407D01*
X135905452Y-98934107D01*
X135889725Y-98814646D01*
X135889725Y-98814645D01*
X135829217Y-98668566D01*
X135732963Y-98543125D01*
X135607522Y-98446871D01*
X135461443Y-98386363D01*
X135461441Y-98386362D01*
X135304682Y-98365725D01*
X135304680Y-98365725D01*
X135147920Y-98386362D01*
X135147918Y-98386363D01*
X135001841Y-98446870D01*
X134876399Y-98543125D01*
X134780144Y-98668567D01*
X134719637Y-98814644D01*
X134719636Y-98814646D01*
X134698999Y-98971405D01*
X126537798Y-98971405D01*
X126536819Y-98970426D01*
X126503334Y-98909103D01*
X126500500Y-98882745D01*
X126500500Y-97406580D01*
X126520185Y-97339541D01*
X126526124Y-97331093D01*
X126528279Y-97328283D01*
X126528282Y-97328282D01*
X126624536Y-97202841D01*
X126685044Y-97056762D01*
X126705682Y-96900000D01*
X126685044Y-96743238D01*
X126624536Y-96597159D01*
X126528282Y-96471718D01*
X126402841Y-96375464D01*
X126256762Y-96314956D01*
X126256760Y-96314955D01*
X126100001Y-96294318D01*
X126099999Y-96294318D01*
X125943239Y-96314955D01*
X125943237Y-96314956D01*
X125797160Y-96375463D01*
X125671713Y-96471722D01*
X125665971Y-96477465D01*
X125664526Y-96476020D01*
X125616940Y-96510763D01*
X125547194Y-96514913D01*
X125486276Y-96480697D01*
X125479881Y-96473317D01*
X125478286Y-96471722D01*
X125478283Y-96471720D01*
X125478282Y-96471718D01*
X125352841Y-96375464D01*
X125206762Y-96314956D01*
X125206760Y-96314955D01*
X125050001Y-96294318D01*
X125049999Y-96294318D01*
X124893239Y-96314955D01*
X124893237Y-96314956D01*
X124747160Y-96375463D01*
X124621718Y-96471718D01*
X124525463Y-96597160D01*
X124464956Y-96743237D01*
X124464955Y-96743239D01*
X124444318Y-96899998D01*
X124444318Y-96900001D01*
X124464955Y-97056760D01*
X124464956Y-97056762D01*
X124524999Y-97201720D01*
X124525464Y-97202841D01*
X124621718Y-97328282D01*
X124621720Y-97328283D01*
X124623876Y-97331093D01*
X124649070Y-97396263D01*
X124649500Y-97406580D01*
X124649500Y-98845802D01*
X124649500Y-98951256D01*
X124654899Y-98971405D01*
X124676793Y-99053118D01*
X124702104Y-99096957D01*
X124729520Y-99144442D01*
X135705558Y-110120480D01*
X135796883Y-110173207D01*
X135898744Y-110200500D01*
X135898745Y-110200500D01*
X135906594Y-110202603D01*
X135905802Y-110205555D01*
X135956410Y-110227924D01*
X135994900Y-110286236D01*
X135995754Y-110356100D01*
X135978911Y-110389762D01*
X135979528Y-110390119D01*
X135975465Y-110397156D01*
X135914956Y-110543237D01*
X135914955Y-110543239D01*
X135894318Y-110699998D01*
X135894318Y-110700001D01*
X135914955Y-110856760D01*
X135914956Y-110856762D01*
X135975464Y-111002841D01*
X136071718Y-111128282D01*
X136197159Y-111224536D01*
X136343238Y-111285044D01*
X136500000Y-111305682D01*
X136500001Y-111305681D01*
X136503513Y-111306144D01*
X136567410Y-111334410D01*
X136575009Y-111341402D01*
X136821426Y-111587819D01*
X136854911Y-111649142D01*
X136849927Y-111718834D01*
X136808055Y-111774767D01*
X136742591Y-111799184D01*
X136733745Y-111799500D01*
X136017255Y-111799500D01*
X135950216Y-111779815D01*
X135929574Y-111763181D01*
X135721083Y-111554690D01*
X135687598Y-111493367D01*
X135685825Y-111450828D01*
X135705682Y-111300000D01*
X135697156Y-111235242D01*
X135685044Y-111143239D01*
X135685044Y-111143238D01*
X135624536Y-110997159D01*
X135528282Y-110871718D01*
X135402841Y-110775464D01*
X135256762Y-110714956D01*
X135256760Y-110714955D01*
X135100001Y-110694318D01*
X135099999Y-110694318D01*
X134943239Y-110714955D01*
X134943237Y-110714956D01*
X134797160Y-110775463D01*
X134671718Y-110871718D01*
X134575463Y-110997160D01*
X134514956Y-111143237D01*
X134514956Y-111143239D01*
X134512256Y-111163747D01*
X134483989Y-111227644D01*
X134425664Y-111266114D01*
X134355800Y-111266945D01*
X134301636Y-111235242D01*
X134195916Y-111129522D01*
X134193768Y-111128282D01*
X134166967Y-111112808D01*
X134104589Y-111076793D01*
X134053657Y-111063146D01*
X134002727Y-111049500D01*
X134002726Y-111049500D01*
X133806580Y-111049500D01*
X133739541Y-111029815D01*
X133731093Y-111023876D01*
X133728283Y-111021720D01*
X133728282Y-111021718D01*
X133602841Y-110925464D01*
X133456762Y-110864956D01*
X133456760Y-110864955D01*
X133300001Y-110844318D01*
X133299999Y-110844318D01*
X133143239Y-110864955D01*
X133143237Y-110864956D01*
X132997160Y-110925463D01*
X132871718Y-111021718D01*
X132775463Y-111147160D01*
X132714956Y-111293237D01*
X132714955Y-111293239D01*
X132694318Y-111449998D01*
X132694318Y-111450001D01*
X132714955Y-111606760D01*
X132714956Y-111606762D01*
X132762059Y-111720480D01*
X132775464Y-111752841D01*
X132871718Y-111878282D01*
X132997159Y-111974536D01*
X133143238Y-112035044D01*
X133221619Y-112045363D01*
X133299999Y-112055682D01*
X133300000Y-112055682D01*
X133300001Y-112055682D01*
X133352254Y-112048802D01*
X133456762Y-112035044D01*
X133602841Y-111974536D01*
X133689315Y-111908181D01*
X133754484Y-111882987D01*
X133822929Y-111897025D01*
X133852483Y-111918876D01*
X134925179Y-112991571D01*
X134925189Y-112991582D01*
X134929519Y-112995912D01*
X134929520Y-112995913D01*
X135004087Y-113070480D01*
X135095413Y-113123207D01*
X135197273Y-113150501D01*
X135197275Y-113150501D01*
X135310323Y-113150501D01*
X135310339Y-113150500D01*
X144318411Y-113150500D01*
X144318413Y-113150500D01*
X144420274Y-113123207D01*
X144511599Y-113070480D01*
X147120480Y-110461599D01*
X147173207Y-110370274D01*
X147200500Y-110268413D01*
X147200500Y-110162959D01*
X147200500Y-99917255D01*
X147220185Y-99850216D01*
X147236819Y-99829574D01*
X147449466Y-99616927D01*
X147674775Y-99391617D01*
X147736096Y-99358134D01*
X147805787Y-99363118D01*
X147861721Y-99404989D01*
X147886138Y-99470454D01*
X147872869Y-99535731D01*
X147856356Y-99568039D01*
X147856354Y-99568045D01*
X147836532Y-99635033D01*
X147823977Y-99721086D01*
X147823976Y-99721089D01*
X147798760Y-111850500D01*
X147794758Y-113776000D01*
X147794757Y-113776258D01*
X147774933Y-113843256D01*
X147722034Y-113888901D01*
X147670757Y-113900000D01*
X122974500Y-113900000D01*
X122907461Y-113880315D01*
X122861706Y-113827511D01*
X122850500Y-113776000D01*
X122850500Y-107699998D01*
X126094318Y-107699998D01*
X126094318Y-107700001D01*
X126114955Y-107856760D01*
X126114956Y-107856762D01*
X126175464Y-108002841D01*
X126271718Y-108128282D01*
X126397159Y-108224536D01*
X126543238Y-108285044D01*
X126621619Y-108295363D01*
X126699999Y-108305682D01*
X126700000Y-108305682D01*
X126700001Y-108305682D01*
X126752254Y-108298802D01*
X126856762Y-108285044D01*
X127002841Y-108224536D01*
X127128282Y-108128282D01*
X127224536Y-108002841D01*
X127285044Y-107856762D01*
X127302573Y-107723616D01*
X127305682Y-107700001D01*
X127305682Y-107699998D01*
X127285044Y-107543239D01*
X127285044Y-107543238D01*
X127224536Y-107397159D01*
X127128282Y-107271718D01*
X127002841Y-107175464D01*
X126995190Y-107172295D01*
X126856762Y-107114956D01*
X126856760Y-107114955D01*
X126700001Y-107094318D01*
X126699999Y-107094318D01*
X126543239Y-107114955D01*
X126543237Y-107114956D01*
X126397160Y-107175463D01*
X126271718Y-107271718D01*
X126175463Y-107397160D01*
X126114956Y-107543237D01*
X126114955Y-107543239D01*
X126094318Y-107699998D01*
X122850500Y-107699998D01*
X122850500Y-105899998D01*
X125694318Y-105899998D01*
X125694318Y-105900001D01*
X125714955Y-106056760D01*
X125714956Y-106056762D01*
X125750775Y-106143238D01*
X125775464Y-106202841D01*
X125871718Y-106328282D01*
X125997159Y-106424536D01*
X126143238Y-106485044D01*
X126176227Y-106489387D01*
X126299999Y-106505682D01*
X126300000Y-106505682D01*
X126300001Y-106505682D01*
X126352254Y-106498802D01*
X126456762Y-106485044D01*
X126602841Y-106424536D01*
X126728282Y-106328282D01*
X126824536Y-106202841D01*
X126885044Y-106056762D01*
X126905682Y-105900000D01*
X126903135Y-105880656D01*
X126885044Y-105743239D01*
X126885044Y-105743238D01*
X126824536Y-105597159D01*
X126809693Y-105577815D01*
X128969318Y-105577815D01*
X128969318Y-105577818D01*
X128989955Y-105734577D01*
X128989956Y-105734579D01*
X129027417Y-105825019D01*
X129050464Y-105880658D01*
X129146718Y-106006099D01*
X129272159Y-106102353D01*
X129418238Y-106162861D01*
X129496619Y-106173180D01*
X129574999Y-106183499D01*
X129575000Y-106183499D01*
X129575001Y-106183499D01*
X129627254Y-106176619D01*
X129731762Y-106162861D01*
X129731765Y-106162859D01*
X129739613Y-106160757D01*
X129740568Y-106164324D01*
X129792877Y-106158286D01*
X129855599Y-106189071D01*
X129891721Y-106248879D01*
X129894756Y-106296666D01*
X129894318Y-106300000D01*
X129894318Y-106300002D01*
X129914955Y-106456760D01*
X129914956Y-106456762D01*
X129975464Y-106602841D01*
X130071718Y-106728282D01*
X130197159Y-106824536D01*
X130343238Y-106885044D01*
X130413681Y-106894318D01*
X130499999Y-106905682D01*
X130500000Y-106905682D01*
X130500001Y-106905682D01*
X130552254Y-106898802D01*
X130656762Y-106885044D01*
X130802841Y-106824536D01*
X130928282Y-106728282D01*
X131024536Y-106602841D01*
X131085044Y-106456762D01*
X131105682Y-106300000D01*
X131105243Y-106296668D01*
X131085044Y-106143239D01*
X131085044Y-106143238D01*
X131024536Y-105997159D01*
X130928282Y-105871718D01*
X130802841Y-105775464D01*
X130661841Y-105717060D01*
X130656762Y-105714956D01*
X130656760Y-105714955D01*
X130500001Y-105694318D01*
X130499999Y-105694318D01*
X130343239Y-105714955D01*
X130335387Y-105717060D01*
X130334482Y-105713684D01*
X130280801Y-105719294D01*
X130218415Y-105687833D01*
X130182943Y-105627638D01*
X130180244Y-105581141D01*
X130180682Y-105577817D01*
X130160044Y-105421055D01*
X130099536Y-105274976D01*
X130003282Y-105149535D01*
X129877841Y-105053281D01*
X129790113Y-105016943D01*
X129731762Y-104992773D01*
X129731760Y-104992772D01*
X129575001Y-104972135D01*
X129574999Y-104972135D01*
X129418239Y-104992772D01*
X129418237Y-104992773D01*
X129272160Y-105053280D01*
X129146718Y-105149535D01*
X129050463Y-105274977D01*
X128989956Y-105421054D01*
X128989955Y-105421056D01*
X128969318Y-105577815D01*
X126809693Y-105577815D01*
X126728282Y-105471718D01*
X126602841Y-105375464D01*
X126593592Y-105371633D01*
X126456762Y-105314956D01*
X126456760Y-105314955D01*
X126300001Y-105294318D01*
X126299999Y-105294318D01*
X126143239Y-105314955D01*
X126143237Y-105314956D01*
X125997160Y-105375463D01*
X125871718Y-105471718D01*
X125775463Y-105597160D01*
X125714956Y-105743237D01*
X125714955Y-105743239D01*
X125694318Y-105899998D01*
X122850500Y-105899998D01*
X122850500Y-102599998D01*
X124894318Y-102599998D01*
X124894318Y-102600001D01*
X124914955Y-102756760D01*
X124914956Y-102756762D01*
X124975464Y-102902841D01*
X125071718Y-103028282D01*
X125197159Y-103124536D01*
X125343238Y-103185044D01*
X125421619Y-103195363D01*
X125499999Y-103205682D01*
X125500000Y-103205682D01*
X125500001Y-103205682D01*
X125552254Y-103198802D01*
X125656762Y-103185044D01*
X125802841Y-103124536D01*
X125928282Y-103028282D01*
X126024536Y-102902841D01*
X126085044Y-102756762D01*
X126105682Y-102600000D01*
X126085044Y-102443238D01*
X126024536Y-102297159D01*
X125928282Y-102171718D01*
X125802841Y-102075464D01*
X125794934Y-102072189D01*
X125656762Y-102014956D01*
X125656760Y-102014955D01*
X125500001Y-101994318D01*
X125499999Y-101994318D01*
X125343239Y-102014955D01*
X125343237Y-102014956D01*
X125197160Y-102075463D01*
X125071718Y-102171718D01*
X124975463Y-102297160D01*
X124914956Y-102443237D01*
X124914955Y-102443239D01*
X124894318Y-102599998D01*
X122850500Y-102599998D01*
X122850500Y-95549998D01*
X133044318Y-95549998D01*
X133044318Y-95550001D01*
X133064955Y-95706760D01*
X133064956Y-95706762D01*
X133123532Y-95848178D01*
X133125464Y-95852841D01*
X133221718Y-95978282D01*
X133347159Y-96074536D01*
X133493238Y-96135044D01*
X133571619Y-96145363D01*
X133649999Y-96155682D01*
X133650000Y-96155682D01*
X133650001Y-96155682D01*
X133702254Y-96148802D01*
X133806762Y-96135044D01*
X133952841Y-96074536D01*
X134078282Y-95978282D01*
X134174536Y-95852841D01*
X134235044Y-95706762D01*
X134255682Y-95550000D01*
X134235044Y-95393238D01*
X134174536Y-95247159D01*
X134078282Y-95121718D01*
X133952841Y-95025464D01*
X133907690Y-95006762D01*
X133806762Y-94964956D01*
X133806760Y-94964955D01*
X133650001Y-94944318D01*
X133649999Y-94944318D01*
X133493239Y-94964955D01*
X133493237Y-94964956D01*
X133347160Y-95025463D01*
X133221718Y-95121718D01*
X133125463Y-95247160D01*
X133064956Y-95393237D01*
X133064955Y-95393239D01*
X133044318Y-95549998D01*
X122850500Y-95549998D01*
X122850500Y-93849998D01*
X127094318Y-93849998D01*
X127094318Y-93850001D01*
X127114955Y-94006760D01*
X127114956Y-94006762D01*
X127175464Y-94152841D01*
X127271718Y-94278282D01*
X127397159Y-94374536D01*
X127543238Y-94435044D01*
X127607673Y-94443527D01*
X127699999Y-94455682D01*
X127700000Y-94455682D01*
X127700001Y-94455682D01*
X127752254Y-94448802D01*
X127856762Y-94435044D01*
X128002841Y-94374536D01*
X128128282Y-94278282D01*
X128224536Y-94152841D01*
X128285044Y-94006762D01*
X128305682Y-93850000D01*
X128285044Y-93693238D01*
X128224536Y-93547159D01*
X128128282Y-93421718D01*
X128002841Y-93325464D01*
X127974406Y-93313686D01*
X127856762Y-93264956D01*
X127856760Y-93264955D01*
X127700001Y-93244318D01*
X127699999Y-93244318D01*
X127543239Y-93264955D01*
X127543237Y-93264956D01*
X127397160Y-93325463D01*
X127271718Y-93421718D01*
X127175463Y-93547160D01*
X127114956Y-93693237D01*
X127114955Y-93693239D01*
X127094318Y-93849998D01*
X122850500Y-93849998D01*
X122850500Y-92004066D01*
X122850765Y-91995956D01*
X122859224Y-91866894D01*
X122865364Y-91773207D01*
X122867479Y-91757153D01*
X122910230Y-91542226D01*
X122914428Y-91526561D01*
X122976349Y-91344148D01*
X122984868Y-91319049D01*
X122991067Y-91304083D01*
X123087995Y-91107533D01*
X123096098Y-91093498D01*
X123217853Y-90911279D01*
X123227710Y-90898433D01*
X123372207Y-90733665D01*
X123383665Y-90722207D01*
X123548433Y-90577710D01*
X123561279Y-90567853D01*
X123743498Y-90446098D01*
X123757533Y-90437995D01*
X123954083Y-90341067D01*
X123969049Y-90334868D01*
X124175945Y-90264637D01*
X124176561Y-90264428D01*
X124192228Y-90260230D01*
X124407153Y-90217479D01*
X124423209Y-90215364D01*
X124628058Y-90201938D01*
X124645958Y-90200765D01*
X124654067Y-90200500D01*
X124689882Y-90200500D01*
X147719512Y-90200500D01*
X147786551Y-90220185D01*
G37*
%TD.AperFunction*%
%TD*%
M02*
