M48
; DRILL file {KiCad 8.0.5-8.0.5-0~ubuntu24.04.1} date 2024-09-15T17:01:06-0600
; FORMAT={-:-/ absolute / metric / decimal}
; #@! TF.CreationDate,2024-09-15T17:01:06-06:00
; #@! TF.GenerationSoftware,Kicad,Pcbnew,8.0.5-8.0.5-0~ubuntu24.04.1
; #@! TF.FileFunction,Plated,1,4,PTH
FMAT,2
METRIC
; #@! TA.AperFunction,Plated,PTH,ViaDrill
T1C0.300
; #@! TA.AperFunction,Plated,PTH,ComponentDrill
T2C0.300
; #@! TA.AperFunction,Plated,PTH,ComponentDrill
T3C0.650
; #@! TA.AperFunction,Plated,PTH,ComponentDrill
T4C0.950
%
G90
G05
T1
X108.696Y-129.737
X108.7Y-125.3
X108.778Y-126.91
X108.8Y-128.0
X109.0Y-121.5
X109.5Y-123.3
X109.607Y-129.844
X109.676Y-125.076
X109.9Y-121.5
X110.6Y-130.9
X110.8Y-121.5
X111.3Y-130.5
X111.4Y-124.486
X112.2Y-124.051
X112.2Y-130.6
X112.395Y-123.274
X112.5Y-118.1
X113.326Y-124.026
X113.625Y-121.772
X113.7Y-123.3
X114.5Y-129.1
X114.7Y-130.5
X114.766Y-118.075
X115.1Y-126.699
X115.15Y-128.45
X116.046Y-122.164
X116.8Y-128.7
X118.1Y-125.048
X118.9Y-129.2
X119.575Y-127.5
X119.7Y-129.4
X120.35Y-126.4
X121.8Y-130.9
X122.2Y-123.049
X123.6Y-96.6
X123.6Y-106.5
X123.85Y-100.4
X125.05Y-96.9
X125.05Y-126.3
X125.05Y-127.5
X125.05Y-128.8
X125.05Y-130.0
X125.1Y-93.9
X125.5Y-102.6
X125.6Y-126.9
X125.6Y-128.2
X125.6Y-129.4
X126.1Y-96.9
X126.253Y-122.347
X126.3Y-105.9
X126.55Y-112.45
X126.7Y-107.7
X127.603Y-123.634
X127.7Y-93.85
X127.7Y-120.0
X128.874Y-130.925
X129.575Y-105.578
X130.5Y-106.3
X130.5Y-113.55
X131.0Y-94.7
X131.8Y-91.8
X132.251Y-101.049
X132.75Y-99.85
X133.3Y-111.45
X133.457Y-102.657
X133.65Y-95.55
X134.057Y-102.057
X134.288Y-119.543
X134.35Y-110.15
X134.714Y-101.4
X135.0Y-102.75
X135.1Y-111.3
X135.2Y-124.0
X135.288Y-121.905
X135.3Y-95.45
X135.305Y-98.971
X135.35Y-100.8
X135.372Y-122.796
X135.9Y-113.6
X135.95Y-93.3
X136.0Y-124.3
X136.1Y-109.1
X136.3Y-104.35
X136.5Y-110.7
X136.777Y-119.248
X136.961Y-97.8
X137.0Y-109.5
X137.401Y-105.825
X137.5Y-124.466
X137.5Y-104.3
X137.65Y-108.55
X137.8Y-97.7
X138.25Y-91.2
X138.357Y-109.162
X138.4Y-130.8
X138.5Y-121.4
X138.5Y-122.2
X138.6Y-97.2
X138.65Y-95.25
X138.9Y-101.4
X138.925Y-107.133
X139.2Y-97.8
X139.65Y-110.8
X139.7Y-107.75
X140.325Y-110.1
X140.439Y-106.261
X140.5Y-105.385
X140.55Y-107.5
X140.65Y-96.35
X140.8Y-123.6
X140.949Y-103.879
X140.95Y-99.05
X141.149Y-94.85
X141.5Y-124.44
X142.4Y-97.6
X142.65Y-109.65
X142.9Y-99.55
X143.35Y-109.05
X145.1Y-113.4
X145.15Y-102.5
X145.2Y-108.15
X145.85Y-91.7
X148.2Y-124.1
X150.1Y-117.3
X150.1Y-118.3
X150.1Y-119.2
X150.9Y-96.7
X150.9Y-97.7
X150.9Y-98.7
X151.1Y-117.3
X151.1Y-118.3
X151.1Y-119.2
X151.7Y-123.2
X151.8Y-96.7
X151.8Y-97.7
X151.8Y-98.7
X152.1Y-117.3
X152.1Y-118.3
X152.1Y-119.2
T2
X110.95Y-127.4
X112.0Y-126.35
X112.0Y-127.4
X112.0Y-128.45
X113.05Y-127.4
T3
X149.0Y-91.46
X149.0Y-92.73
X149.0Y-94.0
X149.0Y-96.33
X149.0Y-97.6
X149.0Y-98.87
T4
X143.373Y-120.073
X143.373Y-122.573
X143.373Y-125.073
M30
