%TF.GenerationSoftware,KiCad,Pcbnew,8.0.5-8.0.5-0~ubuntu24.04.1*%
%TF.CreationDate,2024-09-15T17:00:47-06:00*%
%TF.ProjectId,esp32-s3 single motor & battery controller,65737033-322d-4733-9320-73696e676c65,rev?*%
%TF.SameCoordinates,Original*%
%TF.FileFunction,Paste,Top*%
%TF.FilePolarity,Positive*%
%FSLAX46Y46*%
G04 Gerber Fmt 4.6, Leading zero omitted, Abs format (unit mm)*
G04 Created by KiCad (PCBNEW 8.0.5-8.0.5-0~ubuntu24.04.1) date 2024-09-15 17:00:47*
%MOMM*%
%LPD*%
G01*
G04 APERTURE LIST*
G04 Aperture macros list*
%AMRoundRect*
0 Rectangle with rounded corners*
0 $1 Rounding radius*
0 $2 $3 $4 $5 $6 $7 $8 $9 X,Y pos of 4 corners*
0 Add a 4 corners polygon primitive as box body*
4,1,4,$2,$3,$4,$5,$6,$7,$8,$9,$2,$3,0*
0 Add four circle primitives for the rounded corners*
1,1,$1+$1,$2,$3*
1,1,$1+$1,$4,$5*
1,1,$1+$1,$6,$7*
1,1,$1+$1,$8,$9*
0 Add four rect primitives between the rounded corners*
20,1,$1+$1,$2,$3,$4,$5,0*
20,1,$1+$1,$4,$5,$6,$7,0*
20,1,$1+$1,$6,$7,$8,$9,0*
20,1,$1+$1,$8,$9,$2,$3,0*%
%AMOutline5P*
0 Free polygon, 5 corners , with rotation*
0 The origin of the aperture is its center*
0 number of corners: always 5*
0 $1 to $10 corner X, Y*
0 $11 Rotation angle, in degrees counterclockwise*
0 create outline with 5 corners*
4,1,5,$1,$2,$3,$4,$5,$6,$7,$8,$9,$10,$1,$2,$11*%
%AMOutline6P*
0 Free polygon, 6 corners , with rotation*
0 The origin of the aperture is its center*
0 number of corners: always 6*
0 $1 to $12 corner X, Y*
0 $13 Rotation angle, in degrees counterclockwise*
0 create outline with 6 corners*
4,1,6,$1,$2,$3,$4,$5,$6,$7,$8,$9,$10,$11,$12,$1,$2,$13*%
%AMOutline7P*
0 Free polygon, 7 corners , with rotation*
0 The origin of the aperture is its center*
0 number of corners: always 7*
0 $1 to $14 corner X, Y*
0 $15 Rotation angle, in degrees counterclockwise*
0 create outline with 7 corners*
4,1,7,$1,$2,$3,$4,$5,$6,$7,$8,$9,$10,$11,$12,$13,$14,$1,$2,$15*%
%AMOutline8P*
0 Free polygon, 8 corners , with rotation*
0 The origin of the aperture is its center*
0 number of corners: always 8*
0 $1 to $16 corner X, Y*
0 $17 Rotation angle, in degrees counterclockwise*
0 create outline with 8 corners*
4,1,8,$1,$2,$3,$4,$5,$6,$7,$8,$9,$10,$11,$12,$13,$14,$15,$16,$1,$2,$17*%
G04 Aperture macros list end*
%ADD10C,0.000000*%
%ADD11RoundRect,0.237500X0.237500X-0.300000X0.237500X0.300000X-0.237500X0.300000X-0.237500X-0.300000X0*%
%ADD12R,1.400000X1.200000*%
%ADD13RoundRect,0.225000X-0.225000X-0.250000X0.225000X-0.250000X0.225000X0.250000X-0.225000X0.250000X0*%
%ADD14RoundRect,0.200000X0.200000X0.275000X-0.200000X0.275000X-0.200000X-0.275000X0.200000X-0.275000X0*%
%ADD15RoundRect,0.150000X0.150000X0.625000X-0.150000X0.625000X-0.150000X-0.625000X0.150000X-0.625000X0*%
%ADD16RoundRect,0.250000X0.350000X0.650000X-0.350000X0.650000X-0.350000X-0.650000X0.350000X-0.650000X0*%
%ADD17RoundRect,0.200000X-0.335876X-0.053033X-0.053033X-0.335876X0.335876X0.053033X0.053033X0.335876X0*%
%ADD18RoundRect,0.250001X1.262499X1.974999X-1.262499X1.974999X-1.262499X-1.974999X1.262499X-1.974999X0*%
%ADD19RoundRect,0.237500X0.237500X-0.287500X0.237500X0.287500X-0.237500X0.287500X-0.237500X-0.287500X0*%
%ADD20RoundRect,0.112500X-0.237500X0.112500X-0.237500X-0.112500X0.237500X-0.112500X0.237500X0.112500X0*%
%ADD21RoundRect,0.112500X-0.112500X-0.237500X0.112500X-0.237500X0.112500X0.237500X-0.112500X0.237500X0*%
%ADD22O,0.200000X0.599999*%
%ADD23O,0.599999X0.200000*%
%ADD24R,0.900000X1.000000*%
%ADD25RoundRect,0.225000X-0.335876X-0.017678X-0.017678X-0.335876X0.335876X0.017678X0.017678X0.335876X0*%
%ADD26Outline6P,-2.900000X0.630000X-2.480000X1.050000X2.480000X1.050000X2.900000X0.630000X2.900000X-1.050000X-2.900000X-1.050000X90.000000*%
%ADD27Outline6P,-2.900000X0.630000X-2.480000X1.050000X2.480000X1.050000X2.900000X0.630000X2.900000X-1.050000X-2.900000X-1.050000X270.000000*%
%ADD28RoundRect,0.225000X0.225000X0.250000X-0.225000X0.250000X-0.225000X-0.250000X0.225000X-0.250000X0*%
%ADD29RoundRect,0.112500X0.112500X0.237500X-0.112500X0.237500X-0.112500X-0.237500X0.112500X-0.237500X0*%
%ADD30RoundRect,0.250000X0.550000X-1.500000X0.550000X1.500000X-0.550000X1.500000X-0.550000X-1.500000X0*%
%ADD31RoundRect,0.250000X0.000000X-0.403051X0.403051X0.000000X0.000000X0.403051X-0.403051X0.000000X0*%
%ADD32RoundRect,0.050000X-0.212132X-0.282843X0.282843X0.212132X0.212132X0.282843X-0.282843X-0.212132X0*%
%ADD33RoundRect,0.050000X0.212132X-0.282843X0.282843X-0.212132X-0.212132X0.282843X-0.282843X0.212132X0*%
%ADD34R,0.900000X0.600000*%
%ADD35R,0.600000X0.900000*%
%ADD36RoundRect,0.150000X-0.150000X-0.375000X0.150000X-0.375000X0.150000X0.375000X-0.150000X0.375000X0*%
%ADD37RoundRect,0.200000X0.275000X-0.200000X0.275000X0.200000X-0.275000X0.200000X-0.275000X-0.200000X0*%
%ADD38RoundRect,0.225000X0.017678X-0.335876X0.335876X-0.017678X-0.017678X0.335876X-0.335876X0.017678X0*%
%ADD39RoundRect,0.225000X0.250000X-0.225000X0.250000X0.225000X-0.250000X0.225000X-0.250000X-0.225000X0*%
%ADD40RoundRect,0.147500X-0.147500X-0.172500X0.147500X-0.172500X0.147500X0.172500X-0.147500X0.172500X0*%
%ADD41RoundRect,0.237500X0.300000X0.237500X-0.300000X0.237500X-0.300000X-0.237500X0.300000X-0.237500X0*%
%ADD42RoundRect,0.200000X-0.275000X0.200000X-0.275000X-0.200000X0.275000X-0.200000X0.275000X0.200000X0*%
%ADD43RoundRect,0.202500X-0.202500X0.202500X-0.202500X-0.202500X0.202500X-0.202500X0.202500X0.202500X0*%
%ADD44RoundRect,0.062500X-0.350000X0.062500X-0.350000X-0.062500X0.350000X-0.062500X0.350000X0.062500X0*%
%ADD45RoundRect,0.062500X-0.062500X0.350000X-0.062500X-0.350000X0.062500X-0.350000X0.062500X0.350000X0*%
%ADD46RoundRect,0.225000X-0.250000X0.225000X-0.250000X-0.225000X0.250000X-0.225000X0.250000X0.225000X0*%
%ADD47RoundRect,0.200000X-0.200000X-0.275000X0.200000X-0.275000X0.200000X0.275000X-0.200000X0.275000X0*%
G04 APERTURE END LIST*
D10*
%TO.C,U4*%
G36*
X111900000Y-127300000D02*
G01*
X110752001Y-127300000D01*
X110752001Y-126152001D01*
X111900000Y-126152001D01*
X111900000Y-127300000D01*
G37*
G36*
X111900000Y-128647999D02*
G01*
X110752001Y-128647999D01*
X110752001Y-127500000D01*
X111900000Y-127500000D01*
X111900000Y-128647999D01*
G37*
G36*
X113247999Y-127300000D02*
G01*
X112100000Y-127300000D01*
X112100000Y-126152001D01*
X113247999Y-126152001D01*
X113247999Y-127300000D01*
G37*
G36*
X113247999Y-128647999D02*
G01*
X112100000Y-128647999D01*
X112100000Y-127500000D01*
X113247999Y-127500000D01*
X113247999Y-128647999D01*
G37*
%TD*%
D11*
%TO.C,C3*%
X126050000Y-101162501D03*
X126050000Y-99437499D03*
%TD*%
D12*
%TO.C,Y1*%
X130000000Y-99400000D03*
X127800000Y-99400000D03*
X127800000Y-101100000D03*
X130000000Y-101100000D03*
%TD*%
D13*
%TO.C,C9*%
X115125000Y-123200000D03*
X116675000Y-123200000D03*
%TD*%
D14*
%TO.C,R24*%
X128597548Y-123372800D03*
X126947548Y-123372800D03*
%TD*%
D13*
%TO.C,C21*%
X127425000Y-104600000D03*
X128975000Y-104600000D03*
%TD*%
D14*
%TO.C,R26*%
X117625000Y-129350000D03*
X115975000Y-129350000D03*
%TD*%
D13*
%TO.C,C15*%
X129475000Y-130750000D03*
X131025000Y-130750000D03*
%TD*%
D15*
%TO.C,J1*%
X128650000Y-95450000D03*
X127650000Y-95450000D03*
X126650000Y-95450000D03*
X125650000Y-95450000D03*
D16*
X129950000Y-91575000D03*
X124350000Y-91575000D03*
%TD*%
D17*
%TO.C,R21*%
X132366637Y-108416637D03*
X133533363Y-109583363D03*
%TD*%
D18*
%TO.C,R9*%
X124285048Y-120022800D03*
X119260048Y-120022800D03*
%TD*%
D19*
%TO.C,D3*%
X125150000Y-105575000D03*
X125150000Y-103825000D03*
%TD*%
D14*
%TO.C,R1*%
X117775000Y-130900000D03*
X116125000Y-130900000D03*
%TD*%
D20*
%TO.C,Q1*%
X119500000Y-124750000D03*
X119500000Y-126050000D03*
X121500000Y-125400000D03*
%TD*%
D13*
%TO.C,C16*%
X132650000Y-130750000D03*
X134200000Y-130750000D03*
%TD*%
D21*
%TO.C,Q5*%
X112872548Y-120222800D03*
X114172548Y-120222800D03*
X113522548Y-118222800D03*
%TD*%
D14*
%TO.C,R25*%
X128597548Y-121872800D03*
X126947548Y-121872800D03*
%TD*%
D13*
%TO.C,C10*%
X118125000Y-123272800D03*
X119675000Y-123272800D03*
%TD*%
D22*
%TO.C,U4*%
X113200000Y-125500001D03*
X112800001Y-125500001D03*
X112399999Y-125500001D03*
X112000000Y-125500001D03*
X111600001Y-125500001D03*
X111199999Y-125500001D03*
X110800000Y-125500001D03*
D23*
X110100001Y-126200000D03*
X110100001Y-126599999D03*
X110100001Y-127000001D03*
X110100001Y-127400000D03*
X110100001Y-127799999D03*
X110100001Y-128200001D03*
X110100001Y-128600000D03*
D22*
X110800000Y-129300001D03*
X111199999Y-129300001D03*
X111600001Y-129300001D03*
X112000000Y-129300001D03*
X112399999Y-129300001D03*
X112800001Y-129300001D03*
X113200000Y-129300001D03*
D23*
X113899999Y-128600000D03*
X113899999Y-128200001D03*
X113899999Y-127799999D03*
X113899999Y-127400000D03*
X113899999Y-127000001D03*
X113899999Y-126599999D03*
X113899999Y-126200000D03*
%TD*%
D13*
%TO.C,C5*%
X116125000Y-126300000D03*
X117675000Y-126300000D03*
%TD*%
D24*
%TO.C,SW2*%
X128950000Y-112900000D03*
X124850000Y-112900000D03*
X128950000Y-111300000D03*
X124850000Y-111300000D03*
%TD*%
D25*
%TO.C,C25*%
X138651992Y-108151992D03*
X139748008Y-109248008D03*
%TD*%
D26*
%TO.C,L2*%
X123500000Y-127350000D03*
D27*
X127400000Y-127350000D03*
%TD*%
D13*
%TO.C,C20*%
X127725000Y-103100000D03*
X129275000Y-103100000D03*
%TD*%
D28*
%TO.C,C8*%
X116675000Y-121700000D03*
X115125000Y-121700000D03*
%TD*%
D14*
%TO.C,R23*%
X120825000Y-130850000D03*
X119175000Y-130850000D03*
%TD*%
D29*
%TO.C,Q4*%
X116772548Y-118222800D03*
X115472548Y-118222800D03*
X116122548Y-120222800D03*
%TD*%
D30*
%TO.C,C41*%
X147800000Y-114100000D03*
X147800000Y-108500000D03*
%TD*%
D13*
%TO.C,C11*%
X124014056Y-123314438D03*
X125564056Y-123314438D03*
%TD*%
D24*
%TO.C,SW1*%
X128950000Y-109300000D03*
X124850000Y-109300000D03*
X128950000Y-107700000D03*
X124850000Y-107700000D03*
%TD*%
D31*
%TO.C,U5*%
X133619096Y-104150000D03*
X134559548Y-105090452D03*
X135500000Y-106030904D03*
X134559548Y-103209548D03*
X135500000Y-104150000D03*
X136440452Y-105090452D03*
X135500000Y-102269096D03*
X136440452Y-103209548D03*
X137380904Y-104150000D03*
D32*
X131222004Y-104751041D03*
X131504847Y-105033883D03*
X131787689Y-105316726D03*
X132070532Y-105599569D03*
X132353375Y-105882412D03*
X132636218Y-106165254D03*
X132919060Y-106448097D03*
X133201903Y-106730940D03*
X133484746Y-107013782D03*
X133767588Y-107296625D03*
X134050431Y-107579468D03*
X134333274Y-107862311D03*
X134616117Y-108145153D03*
X134898959Y-108427996D03*
D33*
X136101041Y-108427996D03*
X136383883Y-108145153D03*
X136666726Y-107862311D03*
X136949569Y-107579468D03*
X137232412Y-107296625D03*
X137515254Y-107013782D03*
X137798097Y-106730940D03*
X138080940Y-106448097D03*
X138363782Y-106165254D03*
X138646625Y-105882412D03*
X138929468Y-105599569D03*
X139212311Y-105316726D03*
X139495153Y-105033883D03*
X139777996Y-104751041D03*
D32*
X139777996Y-103548959D03*
X139495153Y-103266117D03*
X139212311Y-102983274D03*
X138929468Y-102700431D03*
X138646625Y-102417588D03*
X138363782Y-102134746D03*
X138080940Y-101851903D03*
X137798097Y-101569060D03*
X137515254Y-101286218D03*
X137232412Y-101003375D03*
X136949569Y-100720532D03*
X136666726Y-100437689D03*
X136383883Y-100154847D03*
X136101041Y-99872004D03*
D33*
X134898959Y-99872004D03*
X134616117Y-100154847D03*
X134333274Y-100437689D03*
X134050431Y-100720532D03*
X133767588Y-101003375D03*
X133484746Y-101286218D03*
X133201903Y-101569060D03*
X132919060Y-101851903D03*
X132636218Y-102134746D03*
X132353375Y-102417588D03*
X132070532Y-102700431D03*
X131787689Y-102983274D03*
X131504847Y-103266117D03*
X131222004Y-103548959D03*
%TD*%
D13*
%TO.C,C14*%
X116075000Y-127800000D03*
X117625000Y-127800000D03*
%TD*%
D34*
%TO.C,Q3*%
X133357548Y-120597800D03*
X132207548Y-120597800D03*
X131057548Y-120597800D03*
X133357548Y-121447800D03*
X132207548Y-121447800D03*
X131057548Y-121447800D03*
X133357548Y-122297800D03*
X132207548Y-122297800D03*
X131057548Y-122297800D03*
X133357548Y-123147800D03*
X132207548Y-123147800D03*
X131057548Y-123147800D03*
D35*
X134112548Y-124147800D03*
X132842548Y-124147800D03*
X131572548Y-124147800D03*
X130302548Y-124147800D03*
D36*
X134112548Y-118422800D03*
X132842548Y-118422800D03*
X131572548Y-118422800D03*
X130302548Y-118422800D03*
%TD*%
D37*
%TO.C,R12*%
X110400000Y-124125000D03*
X110400000Y-122475000D03*
%TD*%
D29*
%TO.C,Q2*%
X121550000Y-127400000D03*
X120250000Y-127400000D03*
X120900000Y-129400000D03*
%TD*%
D38*
%TO.C,C22*%
X133351992Y-99048008D03*
X134448008Y-97951992D03*
%TD*%
D39*
%TO.C,C29*%
X128472548Y-120047800D03*
X128472548Y-118497800D03*
%TD*%
D40*
%TO.C,D5*%
X137915000Y-118600000D03*
X138885000Y-118600000D03*
%TD*%
D41*
%TO.C,C4*%
X129662501Y-97800000D03*
X127937499Y-97800000D03*
%TD*%
D37*
%TO.C,R16*%
X132550000Y-97425000D03*
X132550000Y-95775000D03*
%TD*%
D42*
%TO.C,R31*%
X136100000Y-118475000D03*
X136100000Y-120125000D03*
%TD*%
D13*
%TO.C,C17*%
X135825000Y-130750000D03*
X137375000Y-130750000D03*
%TD*%
D42*
%TO.C,R13*%
X108900000Y-122475000D03*
X108900000Y-124125000D03*
%TD*%
D43*
%TO.C,U6*%
X138912500Y-95200000D03*
X137912500Y-95200000D03*
D44*
X140100000Y-94950000D03*
D45*
X139662500Y-94012500D03*
X139162500Y-94012500D03*
X138662500Y-94012500D03*
X138162500Y-94012500D03*
X137662500Y-94012500D03*
X137162500Y-94012500D03*
D44*
X136725000Y-94950000D03*
X136725000Y-95450000D03*
D45*
X137162500Y-96387500D03*
X137662500Y-96387500D03*
X138162500Y-96387500D03*
X138662500Y-96387500D03*
X139162500Y-96387500D03*
X139662500Y-96387500D03*
D44*
X140100000Y-95450000D03*
%TD*%
D13*
%TO.C,C7*%
X112125000Y-122300000D03*
X113675000Y-122300000D03*
%TD*%
D39*
%TO.C,C30*%
X126972548Y-120072800D03*
X126972548Y-118522800D03*
%TD*%
D18*
%TO.C,R22*%
X135512500Y-127500000D03*
X130487500Y-127500000D03*
%TD*%
D46*
%TO.C,C35*%
X137600000Y-120725000D03*
X137600000Y-122275000D03*
%TD*%
D47*
%TO.C,R36*%
X138225000Y-125950000D03*
X139875000Y-125950000D03*
%TD*%
M02*
