%TF.GenerationSoftware,KiCad,Pcbnew,8.0.5-8.0.5-0~ubuntu24.04.1*%
%TF.CreationDate,2024-09-15T17:00:47-06:00*%
%TF.ProjectId,esp32-s3 single motor & battery controller,65737033-322d-4733-9320-73696e676c65,rev?*%
%TF.SameCoordinates,Original*%
%TF.FileFunction,Legend,Bot*%
%TF.FilePolarity,Positive*%
%FSLAX46Y46*%
G04 Gerber Fmt 4.6, Leading zero omitted, Abs format (unit mm)*
G04 Created by KiCad (PCBNEW 8.0.5-8.0.5-0~ubuntu24.04.1) date 2024-09-15 17:00:47*
%MOMM*%
%LPD*%
G01*
G04 APERTURE LIST*
G04 Aperture macros list*
%AMRoundRect*
0 Rectangle with rounded corners*
0 $1 Rounding radius*
0 $2 $3 $4 $5 $6 $7 $8 $9 X,Y pos of 4 corners*
0 Add a 4 corners polygon primitive as box body*
4,1,4,$2,$3,$4,$5,$6,$7,$8,$9,$2,$3,0*
0 Add four circle primitives for the rounded corners*
1,1,$1+$1,$2,$3*
1,1,$1+$1,$4,$5*
1,1,$1+$1,$6,$7*
1,1,$1+$1,$8,$9*
0 Add four rect primitives between the rounded corners*
20,1,$1+$1,$2,$3,$4,$5,0*
20,1,$1+$1,$4,$5,$6,$7,0*
20,1,$1+$1,$6,$7,$8,$9,0*
20,1,$1+$1,$8,$9,$2,$3,0*%
%AMFreePoly0*
4,1,9,2.350000,2.000000,2.100000,2.000000,2.100000,-1.100000,-2.100000,-1.100000,-2.100000,2.000000,-2.350000,2.000000,-2.350000,3.500000,2.350000,3.500000,2.350000,2.000000,2.350000,2.000000,$1*%
G04 Aperture macros list end*
%ADD10C,0.120000*%
%ADD11C,0.125000*%
%ADD12C,0.150000*%
%ADD13C,0.100000*%
%ADD14C,0.152400*%
%ADD15C,0.000000*%
%ADD16R,1.000000X1.000000*%
%ADD17O,1.000000X1.000000*%
%ADD18C,0.600000*%
%ADD19RoundRect,0.250000X0.725000X-0.600000X0.725000X0.600000X-0.725000X0.600000X-0.725000X-0.600000X0*%
%ADD20O,1.950000X1.700000*%
%ADD21C,1.000000*%
%ADD22RoundRect,0.200000X0.275000X-0.200000X0.275000X0.200000X-0.275000X0.200000X-0.275000X-0.200000X0*%
%ADD23RoundRect,0.200000X0.200000X0.275000X-0.200000X0.275000X-0.200000X-0.275000X0.200000X-0.275000X0*%
%ADD24R,1.500000X1.000000*%
%ADD25RoundRect,0.200000X0.053033X-0.335876X0.335876X-0.053033X-0.053033X0.335876X-0.335876X0.053033X0*%
%ADD26RoundRect,0.200000X-0.200000X-0.275000X0.200000X-0.275000X0.200000X0.275000X-0.200000X0.275000X0*%
%ADD27RoundRect,0.225000X-0.250000X0.225000X-0.250000X-0.225000X0.250000X-0.225000X0.250000X0.225000X0*%
%ADD28RoundRect,0.225000X-0.225000X-0.250000X0.225000X-0.250000X0.225000X0.250000X-0.225000X0.250000X0*%
%ADD29RoundRect,0.225000X0.225000X0.250000X-0.225000X0.250000X-0.225000X-0.250000X0.225000X-0.250000X0*%
%ADD30RoundRect,0.237500X-0.237500X0.300000X-0.237500X-0.300000X0.237500X-0.300000X0.237500X0.300000X0*%
%ADD31RoundRect,0.147500X0.147500X0.172500X-0.147500X0.172500X-0.147500X-0.172500X0.147500X-0.172500X0*%
%ADD32RoundRect,0.175000X-0.400000X0.175000X-0.400000X-0.175000X0.400000X-0.175000X0.400000X0.175000X0*%
%ADD33FreePoly0,270.000000*%
%ADD34RoundRect,0.250000X-0.375000X-0.850000X0.375000X-0.850000X0.375000X0.850000X-0.375000X0.850000X0*%
%ADD35RoundRect,0.237500X0.300000X0.237500X-0.300000X0.237500X-0.300000X-0.237500X0.300000X-0.237500X0*%
%ADD36RoundRect,0.225000X0.250000X-0.225000X0.250000X0.225000X-0.250000X0.225000X-0.250000X-0.225000X0*%
%ADD37RoundRect,0.250001X-1.262499X-1.974999X1.262499X-1.974999X1.262499X1.974999X-1.262499X1.974999X0*%
%ADD38R,3.000000X3.000000*%
%ADD39R,0.230000X0.440000*%
%ADD40R,0.230000X0.340000*%
%ADD41RoundRect,0.218750X-0.218750X-0.256250X0.218750X-0.256250X0.218750X0.256250X-0.218750X0.256250X0*%
%ADD42RoundRect,0.147500X-0.172500X0.147500X-0.172500X-0.147500X0.172500X-0.147500X0.172500X0.147500X0*%
%ADD43RoundRect,0.200000X-0.275000X0.200000X-0.275000X-0.200000X0.275000X-0.200000X0.275000X0.200000X0*%
%ADD44R,0.812800X0.254000*%
%ADD45R,0.254000X0.812800*%
%ADD46R,2.159000X2.159000*%
%ADD47RoundRect,0.150000X0.512500X0.150000X-0.512500X0.150000X-0.512500X-0.150000X0.512500X-0.150000X0*%
G04 APERTURE END LIST*
D10*
X139400000Y-124600000D02*
X137240580Y-125390000D01*
X118500000Y-117900000D02*
X117700000Y-118300000D01*
X115400000Y-121300000D02*
X115072500Y-119800000D01*
X148500000Y-125000000D02*
X147900000Y-124700000D01*
X118700000Y-119900000D02*
X118200000Y-120300000D01*
D11*
X142070331Y-92101023D02*
X142070331Y-92815309D01*
X142546521Y-92101023D02*
X142546521Y-92815309D01*
X143022711Y-92101023D02*
X143022711Y-92815309D01*
X143498901Y-92101023D02*
X143498901Y-92815309D01*
X143975091Y-92101023D02*
X143975091Y-92815309D01*
X144451281Y-92101023D02*
X144451281Y-92815309D01*
X144927471Y-92101023D02*
X144927471Y-92815309D01*
D12*
X110077506Y-121507914D02*
X109887030Y-121507914D01*
X109887030Y-121507914D02*
X109696554Y-121603152D01*
X109696554Y-121603152D02*
X109601316Y-121793628D01*
X109601316Y-121793628D02*
X109601316Y-121984104D01*
X109601316Y-121984104D02*
X109696554Y-122174580D01*
X109696554Y-122174580D02*
X109887030Y-122269819D01*
X109887030Y-122269819D02*
X110077506Y-122269819D01*
X110077506Y-122269819D02*
X110267982Y-122174580D01*
X110267982Y-122174580D02*
X110363220Y-121984104D01*
X110363220Y-121984104D02*
X110363220Y-121793628D01*
X110363220Y-121793628D02*
X110267982Y-121603152D01*
X110267982Y-121603152D02*
X110077506Y-121507914D01*
X110267982Y-121888866D02*
X109696554Y-121888866D01*
X146713220Y-90996009D02*
X146379887Y-90996009D01*
X146237030Y-91519819D02*
X146713220Y-91519819D01*
X146713220Y-91519819D02*
X146713220Y-90519819D01*
X146713220Y-90519819D02*
X146237030Y-90519819D01*
X145808458Y-90853152D02*
X145808458Y-91519819D01*
X145808458Y-90948390D02*
X145760839Y-90900771D01*
X145760839Y-90900771D02*
X145665601Y-90853152D01*
X145665601Y-90853152D02*
X145522744Y-90853152D01*
X145522744Y-90853152D02*
X145427506Y-90900771D01*
X145427506Y-90900771D02*
X145379887Y-90996009D01*
X145379887Y-90996009D02*
X145379887Y-91519819D01*
X144475125Y-91472200D02*
X144570363Y-91519819D01*
X144570363Y-91519819D02*
X144760839Y-91519819D01*
X144760839Y-91519819D02*
X144856077Y-91472200D01*
X144856077Y-91472200D02*
X144903696Y-91424580D01*
X144903696Y-91424580D02*
X144951315Y-91329342D01*
X144951315Y-91329342D02*
X144951315Y-91043628D01*
X144951315Y-91043628D02*
X144903696Y-90948390D01*
X144903696Y-90948390D02*
X144856077Y-90900771D01*
X144856077Y-90900771D02*
X144760839Y-90853152D01*
X144760839Y-90853152D02*
X144570363Y-90853152D01*
X144570363Y-90853152D02*
X144475125Y-90900771D01*
X143903696Y-91519819D02*
X143998934Y-91472200D01*
X143998934Y-91472200D02*
X144046553Y-91424580D01*
X144046553Y-91424580D02*
X144094172Y-91329342D01*
X144094172Y-91329342D02*
X144094172Y-91043628D01*
X144094172Y-91043628D02*
X144046553Y-90948390D01*
X144046553Y-90948390D02*
X143998934Y-90900771D01*
X143998934Y-90900771D02*
X143903696Y-90853152D01*
X143903696Y-90853152D02*
X143760839Y-90853152D01*
X143760839Y-90853152D02*
X143665601Y-90900771D01*
X143665601Y-90900771D02*
X143617982Y-90948390D01*
X143617982Y-90948390D02*
X143570363Y-91043628D01*
X143570363Y-91043628D02*
X143570363Y-91329342D01*
X143570363Y-91329342D02*
X143617982Y-91424580D01*
X143617982Y-91424580D02*
X143665601Y-91472200D01*
X143665601Y-91472200D02*
X143760839Y-91519819D01*
X143760839Y-91519819D02*
X143903696Y-91519819D01*
X142713220Y-91519819D02*
X142713220Y-90519819D01*
X142713220Y-91472200D02*
X142808458Y-91519819D01*
X142808458Y-91519819D02*
X142998934Y-91519819D01*
X142998934Y-91519819D02*
X143094172Y-91472200D01*
X143094172Y-91472200D02*
X143141791Y-91424580D01*
X143141791Y-91424580D02*
X143189410Y-91329342D01*
X143189410Y-91329342D02*
X143189410Y-91043628D01*
X143189410Y-91043628D02*
X143141791Y-90948390D01*
X143141791Y-90948390D02*
X143094172Y-90900771D01*
X143094172Y-90900771D02*
X142998934Y-90853152D01*
X142998934Y-90853152D02*
X142808458Y-90853152D01*
X142808458Y-90853152D02*
X142713220Y-90900771D01*
X141856077Y-91472200D02*
X141951315Y-91519819D01*
X141951315Y-91519819D02*
X142141791Y-91519819D01*
X142141791Y-91519819D02*
X142237029Y-91472200D01*
X142237029Y-91472200D02*
X142284648Y-91376961D01*
X142284648Y-91376961D02*
X142284648Y-90996009D01*
X142284648Y-90996009D02*
X142237029Y-90900771D01*
X142237029Y-90900771D02*
X142141791Y-90853152D01*
X142141791Y-90853152D02*
X141951315Y-90853152D01*
X141951315Y-90853152D02*
X141856077Y-90900771D01*
X141856077Y-90900771D02*
X141808458Y-90996009D01*
X141808458Y-90996009D02*
X141808458Y-91091247D01*
X141808458Y-91091247D02*
X142284648Y-91186485D01*
X141379886Y-91519819D02*
X141379886Y-90853152D01*
X141379886Y-91043628D02*
X141332267Y-90948390D01*
X141332267Y-90948390D02*
X141284648Y-90900771D01*
X141284648Y-90900771D02*
X141189410Y-90853152D01*
X141189410Y-90853152D02*
X141094172Y-90853152D01*
X129617438Y-90910588D02*
X129569819Y-90815350D01*
X129569819Y-90815350D02*
X129569819Y-90672493D01*
X129569819Y-90672493D02*
X129617438Y-90529636D01*
X129617438Y-90529636D02*
X129712676Y-90434398D01*
X129712676Y-90434398D02*
X129807914Y-90386779D01*
X129807914Y-90386779D02*
X129998390Y-90339160D01*
X129998390Y-90339160D02*
X130141247Y-90339160D01*
X130141247Y-90339160D02*
X130331723Y-90386779D01*
X130331723Y-90386779D02*
X130426961Y-90434398D01*
X130426961Y-90434398D02*
X130522200Y-90529636D01*
X130522200Y-90529636D02*
X130569819Y-90672493D01*
X130569819Y-90672493D02*
X130569819Y-90767731D01*
X130569819Y-90767731D02*
X130522200Y-90910588D01*
X130522200Y-90910588D02*
X130474580Y-90958207D01*
X130474580Y-90958207D02*
X130141247Y-90958207D01*
X130141247Y-90958207D02*
X130141247Y-90767731D01*
X130569819Y-91386779D02*
X129569819Y-91386779D01*
X129569819Y-91386779D02*
X130569819Y-91958207D01*
X130569819Y-91958207D02*
X129569819Y-91958207D01*
X130569819Y-92434398D02*
X129569819Y-92434398D01*
X129569819Y-92434398D02*
X129569819Y-92672493D01*
X129569819Y-92672493D02*
X129617438Y-92815350D01*
X129617438Y-92815350D02*
X129712676Y-92910588D01*
X129712676Y-92910588D02*
X129807914Y-92958207D01*
X129807914Y-92958207D02*
X129998390Y-93005826D01*
X129998390Y-93005826D02*
X130141247Y-93005826D01*
X130141247Y-93005826D02*
X130331723Y-92958207D01*
X130331723Y-92958207D02*
X130426961Y-92910588D01*
X130426961Y-92910588D02*
X130522200Y-92815350D01*
X130522200Y-92815350D02*
X130569819Y-92672493D01*
X130569819Y-92672493D02*
X130569819Y-92434398D01*
X151346009Y-98836779D02*
X151346009Y-99170112D01*
X151869819Y-99312969D02*
X151869819Y-98836779D01*
X151869819Y-98836779D02*
X150869819Y-98836779D01*
X150869819Y-98836779D02*
X150869819Y-99312969D01*
X151822200Y-99693922D02*
X151869819Y-99836779D01*
X151869819Y-99836779D02*
X151869819Y-100074874D01*
X151869819Y-100074874D02*
X151822200Y-100170112D01*
X151822200Y-100170112D02*
X151774580Y-100217731D01*
X151774580Y-100217731D02*
X151679342Y-100265350D01*
X151679342Y-100265350D02*
X151584104Y-100265350D01*
X151584104Y-100265350D02*
X151488866Y-100217731D01*
X151488866Y-100217731D02*
X151441247Y-100170112D01*
X151441247Y-100170112D02*
X151393628Y-100074874D01*
X151393628Y-100074874D02*
X151346009Y-99884398D01*
X151346009Y-99884398D02*
X151298390Y-99789160D01*
X151298390Y-99789160D02*
X151250771Y-99741541D01*
X151250771Y-99741541D02*
X151155533Y-99693922D01*
X151155533Y-99693922D02*
X151060295Y-99693922D01*
X151060295Y-99693922D02*
X150965057Y-99741541D01*
X150965057Y-99741541D02*
X150917438Y-99789160D01*
X150917438Y-99789160D02*
X150869819Y-99884398D01*
X150869819Y-99884398D02*
X150869819Y-100122493D01*
X150869819Y-100122493D02*
X150917438Y-100265350D01*
X151869819Y-100693922D02*
X150869819Y-100693922D01*
X150869819Y-100693922D02*
X150869819Y-101074874D01*
X150869819Y-101074874D02*
X150917438Y-101170112D01*
X150917438Y-101170112D02*
X150965057Y-101217731D01*
X150965057Y-101217731D02*
X151060295Y-101265350D01*
X151060295Y-101265350D02*
X151203152Y-101265350D01*
X151203152Y-101265350D02*
X151298390Y-101217731D01*
X151298390Y-101217731D02*
X151346009Y-101170112D01*
X151346009Y-101170112D02*
X151393628Y-101074874D01*
X151393628Y-101074874D02*
X151393628Y-100693922D01*
X150869819Y-101598684D02*
X150869819Y-102217731D01*
X150869819Y-102217731D02*
X151250771Y-101884398D01*
X151250771Y-101884398D02*
X151250771Y-102027255D01*
X151250771Y-102027255D02*
X151298390Y-102122493D01*
X151298390Y-102122493D02*
X151346009Y-102170112D01*
X151346009Y-102170112D02*
X151441247Y-102217731D01*
X151441247Y-102217731D02*
X151679342Y-102217731D01*
X151679342Y-102217731D02*
X151774580Y-102170112D01*
X151774580Y-102170112D02*
X151822200Y-102122493D01*
X151822200Y-102122493D02*
X151869819Y-102027255D01*
X151869819Y-102027255D02*
X151869819Y-101741541D01*
X151869819Y-101741541D02*
X151822200Y-101646303D01*
X151822200Y-101646303D02*
X151774580Y-101598684D01*
X150965057Y-102598684D02*
X150917438Y-102646303D01*
X150917438Y-102646303D02*
X150869819Y-102741541D01*
X150869819Y-102741541D02*
X150869819Y-102979636D01*
X150869819Y-102979636D02*
X150917438Y-103074874D01*
X150917438Y-103074874D02*
X150965057Y-103122493D01*
X150965057Y-103122493D02*
X151060295Y-103170112D01*
X151060295Y-103170112D02*
X151155533Y-103170112D01*
X151155533Y-103170112D02*
X151298390Y-103122493D01*
X151298390Y-103122493D02*
X151869819Y-102551065D01*
X151869819Y-102551065D02*
X151869819Y-103170112D01*
X151488866Y-103598684D02*
X151488866Y-104360589D01*
X151822200Y-104789160D02*
X151869819Y-104884398D01*
X151869819Y-104884398D02*
X151869819Y-105074874D01*
X151869819Y-105074874D02*
X151822200Y-105170112D01*
X151822200Y-105170112D02*
X151726961Y-105217731D01*
X151726961Y-105217731D02*
X151679342Y-105217731D01*
X151679342Y-105217731D02*
X151584104Y-105170112D01*
X151584104Y-105170112D02*
X151536485Y-105074874D01*
X151536485Y-105074874D02*
X151536485Y-104932017D01*
X151536485Y-104932017D02*
X151488866Y-104836779D01*
X151488866Y-104836779D02*
X151393628Y-104789160D01*
X151393628Y-104789160D02*
X151346009Y-104789160D01*
X151346009Y-104789160D02*
X151250771Y-104836779D01*
X151250771Y-104836779D02*
X151203152Y-104932017D01*
X151203152Y-104932017D02*
X151203152Y-105074874D01*
X151203152Y-105074874D02*
X151250771Y-105170112D01*
X150869819Y-105551065D02*
X150869819Y-106170112D01*
X150869819Y-106170112D02*
X151250771Y-105836779D01*
X151250771Y-105836779D02*
X151250771Y-105979636D01*
X151250771Y-105979636D02*
X151298390Y-106074874D01*
X151298390Y-106074874D02*
X151346009Y-106122493D01*
X151346009Y-106122493D02*
X151441247Y-106170112D01*
X151441247Y-106170112D02*
X151679342Y-106170112D01*
X151679342Y-106170112D02*
X151774580Y-106122493D01*
X151774580Y-106122493D02*
X151822200Y-106074874D01*
X151822200Y-106074874D02*
X151869819Y-105979636D01*
X151869819Y-105979636D02*
X151869819Y-105693922D01*
X151869819Y-105693922D02*
X151822200Y-105598684D01*
X151822200Y-105598684D02*
X151774580Y-105551065D01*
X151869819Y-107360589D02*
X151203152Y-107360589D01*
X151298390Y-107360589D02*
X151250771Y-107408208D01*
X151250771Y-107408208D02*
X151203152Y-107503446D01*
X151203152Y-107503446D02*
X151203152Y-107646303D01*
X151203152Y-107646303D02*
X151250771Y-107741541D01*
X151250771Y-107741541D02*
X151346009Y-107789160D01*
X151346009Y-107789160D02*
X151869819Y-107789160D01*
X151346009Y-107789160D02*
X151250771Y-107836779D01*
X151250771Y-107836779D02*
X151203152Y-107932017D01*
X151203152Y-107932017D02*
X151203152Y-108074874D01*
X151203152Y-108074874D02*
X151250771Y-108170113D01*
X151250771Y-108170113D02*
X151346009Y-108217732D01*
X151346009Y-108217732D02*
X151869819Y-108217732D01*
X151869819Y-108836779D02*
X151822200Y-108741541D01*
X151822200Y-108741541D02*
X151774580Y-108693922D01*
X151774580Y-108693922D02*
X151679342Y-108646303D01*
X151679342Y-108646303D02*
X151393628Y-108646303D01*
X151393628Y-108646303D02*
X151298390Y-108693922D01*
X151298390Y-108693922D02*
X151250771Y-108741541D01*
X151250771Y-108741541D02*
X151203152Y-108836779D01*
X151203152Y-108836779D02*
X151203152Y-108979636D01*
X151203152Y-108979636D02*
X151250771Y-109074874D01*
X151250771Y-109074874D02*
X151298390Y-109122493D01*
X151298390Y-109122493D02*
X151393628Y-109170112D01*
X151393628Y-109170112D02*
X151679342Y-109170112D01*
X151679342Y-109170112D02*
X151774580Y-109122493D01*
X151774580Y-109122493D02*
X151822200Y-109074874D01*
X151822200Y-109074874D02*
X151869819Y-108979636D01*
X151869819Y-108979636D02*
X151869819Y-108836779D01*
X151203152Y-109455827D02*
X151203152Y-109836779D01*
X150869819Y-109598684D02*
X151726961Y-109598684D01*
X151726961Y-109598684D02*
X151822200Y-109646303D01*
X151822200Y-109646303D02*
X151869819Y-109741541D01*
X151869819Y-109741541D02*
X151869819Y-109836779D01*
X151869819Y-110312970D02*
X151822200Y-110217732D01*
X151822200Y-110217732D02*
X151774580Y-110170113D01*
X151774580Y-110170113D02*
X151679342Y-110122494D01*
X151679342Y-110122494D02*
X151393628Y-110122494D01*
X151393628Y-110122494D02*
X151298390Y-110170113D01*
X151298390Y-110170113D02*
X151250771Y-110217732D01*
X151250771Y-110217732D02*
X151203152Y-110312970D01*
X151203152Y-110312970D02*
X151203152Y-110455827D01*
X151203152Y-110455827D02*
X151250771Y-110551065D01*
X151250771Y-110551065D02*
X151298390Y-110598684D01*
X151298390Y-110598684D02*
X151393628Y-110646303D01*
X151393628Y-110646303D02*
X151679342Y-110646303D01*
X151679342Y-110646303D02*
X151774580Y-110598684D01*
X151774580Y-110598684D02*
X151822200Y-110551065D01*
X151822200Y-110551065D02*
X151869819Y-110455827D01*
X151869819Y-110455827D02*
X151869819Y-110312970D01*
X151869819Y-111074875D02*
X151203152Y-111074875D01*
X151393628Y-111074875D02*
X151298390Y-111122494D01*
X151298390Y-111122494D02*
X151250771Y-111170113D01*
X151250771Y-111170113D02*
X151203152Y-111265351D01*
X151203152Y-111265351D02*
X151203152Y-111360589D01*
X151203152Y-112455828D02*
X152203152Y-112455828D01*
X151250771Y-112455828D02*
X151203152Y-112551066D01*
X151203152Y-112551066D02*
X151203152Y-112741542D01*
X151203152Y-112741542D02*
X151250771Y-112836780D01*
X151250771Y-112836780D02*
X151298390Y-112884399D01*
X151298390Y-112884399D02*
X151393628Y-112932018D01*
X151393628Y-112932018D02*
X151679342Y-112932018D01*
X151679342Y-112932018D02*
X151774580Y-112884399D01*
X151774580Y-112884399D02*
X151822200Y-112836780D01*
X151822200Y-112836780D02*
X151869819Y-112741542D01*
X151869819Y-112741542D02*
X151869819Y-112551066D01*
X151869819Y-112551066D02*
X151822200Y-112455828D01*
X151822200Y-113789161D02*
X151869819Y-113693923D01*
X151869819Y-113693923D02*
X151869819Y-113503447D01*
X151869819Y-113503447D02*
X151822200Y-113408209D01*
X151822200Y-113408209D02*
X151774580Y-113360590D01*
X151774580Y-113360590D02*
X151679342Y-113312971D01*
X151679342Y-113312971D02*
X151393628Y-113312971D01*
X151393628Y-113312971D02*
X151298390Y-113360590D01*
X151298390Y-113360590D02*
X151250771Y-113408209D01*
X151250771Y-113408209D02*
X151203152Y-113503447D01*
X151203152Y-113503447D02*
X151203152Y-113693923D01*
X151203152Y-113693923D02*
X151250771Y-113789161D01*
X151869819Y-114217733D02*
X150869819Y-114217733D01*
X151250771Y-114217733D02*
X151203152Y-114312971D01*
X151203152Y-114312971D02*
X151203152Y-114503447D01*
X151203152Y-114503447D02*
X151250771Y-114598685D01*
X151250771Y-114598685D02*
X151298390Y-114646304D01*
X151298390Y-114646304D02*
X151393628Y-114693923D01*
X151393628Y-114693923D02*
X151679342Y-114693923D01*
X151679342Y-114693923D02*
X151774580Y-114646304D01*
X151774580Y-114646304D02*
X151822200Y-114598685D01*
X151822200Y-114598685D02*
X151869819Y-114503447D01*
X151869819Y-114503447D02*
X151869819Y-114312971D01*
X151869819Y-114312971D02*
X151822200Y-114217733D01*
X150869819Y-115741543D02*
X151869819Y-116074876D01*
X151869819Y-116074876D02*
X150869819Y-116408209D01*
X150965057Y-116693924D02*
X150917438Y-116741543D01*
X150917438Y-116741543D02*
X150869819Y-116836781D01*
X150869819Y-116836781D02*
X150869819Y-117074876D01*
X150869819Y-117074876D02*
X150917438Y-117170114D01*
X150917438Y-117170114D02*
X150965057Y-117217733D01*
X150965057Y-117217733D02*
X151060295Y-117265352D01*
X151060295Y-117265352D02*
X151155533Y-117265352D01*
X151155533Y-117265352D02*
X151298390Y-117217733D01*
X151298390Y-117217733D02*
X151869819Y-116646305D01*
X151869819Y-116646305D02*
X151869819Y-117265352D01*
X126822200Y-90389160D02*
X126869819Y-90532017D01*
X126869819Y-90532017D02*
X126869819Y-90770112D01*
X126869819Y-90770112D02*
X126822200Y-90865350D01*
X126822200Y-90865350D02*
X126774580Y-90912969D01*
X126774580Y-90912969D02*
X126679342Y-90960588D01*
X126679342Y-90960588D02*
X126584104Y-90960588D01*
X126584104Y-90960588D02*
X126488866Y-90912969D01*
X126488866Y-90912969D02*
X126441247Y-90865350D01*
X126441247Y-90865350D02*
X126393628Y-90770112D01*
X126393628Y-90770112D02*
X126346009Y-90579636D01*
X126346009Y-90579636D02*
X126298390Y-90484398D01*
X126298390Y-90484398D02*
X126250771Y-90436779D01*
X126250771Y-90436779D02*
X126155533Y-90389160D01*
X126155533Y-90389160D02*
X126060295Y-90389160D01*
X126060295Y-90389160D02*
X125965057Y-90436779D01*
X125965057Y-90436779D02*
X125917438Y-90484398D01*
X125917438Y-90484398D02*
X125869819Y-90579636D01*
X125869819Y-90579636D02*
X125869819Y-90817731D01*
X125869819Y-90817731D02*
X125917438Y-90960588D01*
X126869819Y-91389160D02*
X125869819Y-91389160D01*
X125869819Y-91389160D02*
X125869819Y-91627255D01*
X125869819Y-91627255D02*
X125917438Y-91770112D01*
X125917438Y-91770112D02*
X126012676Y-91865350D01*
X126012676Y-91865350D02*
X126107914Y-91912969D01*
X126107914Y-91912969D02*
X126298390Y-91960588D01*
X126298390Y-91960588D02*
X126441247Y-91960588D01*
X126441247Y-91960588D02*
X126631723Y-91912969D01*
X126631723Y-91912969D02*
X126726961Y-91865350D01*
X126726961Y-91865350D02*
X126822200Y-91770112D01*
X126822200Y-91770112D02*
X126869819Y-91627255D01*
X126869819Y-91627255D02*
X126869819Y-91389160D01*
X126584104Y-92341541D02*
X126584104Y-92817731D01*
X126869819Y-92246303D02*
X125869819Y-92579636D01*
X125869819Y-92579636D02*
X126869819Y-92912969D01*
X138891792Y-101424580D02*
X138939411Y-101472200D01*
X138939411Y-101472200D02*
X139082268Y-101519819D01*
X139082268Y-101519819D02*
X139177506Y-101519819D01*
X139177506Y-101519819D02*
X139320363Y-101472200D01*
X139320363Y-101472200D02*
X139415601Y-101376961D01*
X139415601Y-101376961D02*
X139463220Y-101281723D01*
X139463220Y-101281723D02*
X139510839Y-101091247D01*
X139510839Y-101091247D02*
X139510839Y-100948390D01*
X139510839Y-100948390D02*
X139463220Y-100757914D01*
X139463220Y-100757914D02*
X139415601Y-100662676D01*
X139415601Y-100662676D02*
X139320363Y-100567438D01*
X139320363Y-100567438D02*
X139177506Y-100519819D01*
X139177506Y-100519819D02*
X139082268Y-100519819D01*
X139082268Y-100519819D02*
X138939411Y-100567438D01*
X138939411Y-100567438D02*
X138891792Y-100615057D01*
X138510839Y-101472200D02*
X138367982Y-101519819D01*
X138367982Y-101519819D02*
X138129887Y-101519819D01*
X138129887Y-101519819D02*
X138034649Y-101472200D01*
X138034649Y-101472200D02*
X137987030Y-101424580D01*
X137987030Y-101424580D02*
X137939411Y-101329342D01*
X137939411Y-101329342D02*
X137939411Y-101234104D01*
X137939411Y-101234104D02*
X137987030Y-101138866D01*
X137987030Y-101138866D02*
X138034649Y-101091247D01*
X138034649Y-101091247D02*
X138129887Y-101043628D01*
X138129887Y-101043628D02*
X138320363Y-100996009D01*
X138320363Y-100996009D02*
X138415601Y-100948390D01*
X138415601Y-100948390D02*
X138463220Y-100900771D01*
X138463220Y-100900771D02*
X138510839Y-100805533D01*
X138510839Y-100805533D02*
X138510839Y-100710295D01*
X138510839Y-100710295D02*
X138463220Y-100615057D01*
X138463220Y-100615057D02*
X138415601Y-100567438D01*
X138415601Y-100567438D02*
X138320363Y-100519819D01*
X138320363Y-100519819D02*
X138082268Y-100519819D01*
X138082268Y-100519819D02*
X137939411Y-100567438D01*
X137320363Y-100519819D02*
X137225125Y-100519819D01*
X137225125Y-100519819D02*
X137129887Y-100567438D01*
X137129887Y-100567438D02*
X137082268Y-100615057D01*
X137082268Y-100615057D02*
X137034649Y-100710295D01*
X137034649Y-100710295D02*
X136987030Y-100900771D01*
X136987030Y-100900771D02*
X136987030Y-101138866D01*
X136987030Y-101138866D02*
X137034649Y-101329342D01*
X137034649Y-101329342D02*
X137082268Y-101424580D01*
X137082268Y-101424580D02*
X137129887Y-101472200D01*
X137129887Y-101472200D02*
X137225125Y-101519819D01*
X137225125Y-101519819D02*
X137320363Y-101519819D01*
X137320363Y-101519819D02*
X137415601Y-101472200D01*
X137415601Y-101472200D02*
X137463220Y-101424580D01*
X137463220Y-101424580D02*
X137510839Y-101329342D01*
X137510839Y-101329342D02*
X137558458Y-101138866D01*
X137558458Y-101138866D02*
X137558458Y-100900771D01*
X137558458Y-100900771D02*
X137510839Y-100710295D01*
X137510839Y-100710295D02*
X137463220Y-100615057D01*
X137463220Y-100615057D02*
X137415601Y-100567438D01*
X137415601Y-100567438D02*
X137320363Y-100519819D01*
X149407914Y-100646303D02*
X149360295Y-100551064D01*
X149360295Y-100551064D02*
X149360295Y-100360588D01*
X149360295Y-100360588D02*
X149407914Y-100265350D01*
X149407914Y-100265350D02*
X149503152Y-100170112D01*
X149503152Y-100170112D02*
X149598390Y-100122493D01*
X149598390Y-100122493D02*
X149788866Y-100122493D01*
X149788866Y-100122493D02*
X149884104Y-100170112D01*
X149884104Y-100170112D02*
X149979342Y-100265350D01*
X149979342Y-100265350D02*
X150026961Y-100360588D01*
X150026961Y-100360588D02*
X150026961Y-100551064D01*
X150026961Y-100551064D02*
X149979342Y-100646303D01*
X149026961Y-100455826D02*
X149074580Y-100217731D01*
X149074580Y-100217731D02*
X149217438Y-99979636D01*
X149217438Y-99979636D02*
X149455533Y-99836779D01*
X149455533Y-99836779D02*
X149693628Y-99789160D01*
X149693628Y-99789160D02*
X149931723Y-99836779D01*
X149931723Y-99836779D02*
X150169819Y-99979636D01*
X150169819Y-99979636D02*
X150312676Y-100217731D01*
X150312676Y-100217731D02*
X150360295Y-100455826D01*
X150360295Y-100455826D02*
X150312676Y-100693922D01*
X150312676Y-100693922D02*
X150169819Y-100932017D01*
X150169819Y-100932017D02*
X149931723Y-101074874D01*
X149931723Y-101074874D02*
X149693628Y-101122493D01*
X149693628Y-101122493D02*
X149455533Y-101074874D01*
X149455533Y-101074874D02*
X149217438Y-100932017D01*
X149217438Y-100932017D02*
X149074580Y-100693922D01*
X149074580Y-100693922D02*
X149026961Y-100455826D01*
X149265057Y-102265351D02*
X149217438Y-102312970D01*
X149217438Y-102312970D02*
X149169819Y-102408208D01*
X149169819Y-102408208D02*
X149169819Y-102646303D01*
X149169819Y-102646303D02*
X149217438Y-102741541D01*
X149217438Y-102741541D02*
X149265057Y-102789160D01*
X149265057Y-102789160D02*
X149360295Y-102836779D01*
X149360295Y-102836779D02*
X149455533Y-102836779D01*
X149455533Y-102836779D02*
X149598390Y-102789160D01*
X149598390Y-102789160D02*
X150169819Y-102217732D01*
X150169819Y-102217732D02*
X150169819Y-102836779D01*
X149169819Y-103455827D02*
X149169819Y-103551065D01*
X149169819Y-103551065D02*
X149217438Y-103646303D01*
X149217438Y-103646303D02*
X149265057Y-103693922D01*
X149265057Y-103693922D02*
X149360295Y-103741541D01*
X149360295Y-103741541D02*
X149550771Y-103789160D01*
X149550771Y-103789160D02*
X149788866Y-103789160D01*
X149788866Y-103789160D02*
X149979342Y-103741541D01*
X149979342Y-103741541D02*
X150074580Y-103693922D01*
X150074580Y-103693922D02*
X150122200Y-103646303D01*
X150122200Y-103646303D02*
X150169819Y-103551065D01*
X150169819Y-103551065D02*
X150169819Y-103455827D01*
X150169819Y-103455827D02*
X150122200Y-103360589D01*
X150122200Y-103360589D02*
X150074580Y-103312970D01*
X150074580Y-103312970D02*
X149979342Y-103265351D01*
X149979342Y-103265351D02*
X149788866Y-103217732D01*
X149788866Y-103217732D02*
X149550771Y-103217732D01*
X149550771Y-103217732D02*
X149360295Y-103265351D01*
X149360295Y-103265351D02*
X149265057Y-103312970D01*
X149265057Y-103312970D02*
X149217438Y-103360589D01*
X149217438Y-103360589D02*
X149169819Y-103455827D01*
X149265057Y-104170113D02*
X149217438Y-104217732D01*
X149217438Y-104217732D02*
X149169819Y-104312970D01*
X149169819Y-104312970D02*
X149169819Y-104551065D01*
X149169819Y-104551065D02*
X149217438Y-104646303D01*
X149217438Y-104646303D02*
X149265057Y-104693922D01*
X149265057Y-104693922D02*
X149360295Y-104741541D01*
X149360295Y-104741541D02*
X149455533Y-104741541D01*
X149455533Y-104741541D02*
X149598390Y-104693922D01*
X149598390Y-104693922D02*
X150169819Y-104122494D01*
X150169819Y-104122494D02*
X150169819Y-104741541D01*
X149503152Y-105598684D02*
X150169819Y-105598684D01*
X149122200Y-105360589D02*
X149836485Y-105122494D01*
X149836485Y-105122494D02*
X149836485Y-105741541D01*
X149884104Y-106836780D02*
X149884104Y-107312970D01*
X150169819Y-106741542D02*
X149169819Y-107074875D01*
X149169819Y-107074875D02*
X150169819Y-107408208D01*
X150122200Y-107693923D02*
X150169819Y-107789161D01*
X150169819Y-107789161D02*
X150169819Y-107979637D01*
X150169819Y-107979637D02*
X150122200Y-108074875D01*
X150122200Y-108074875D02*
X150026961Y-108122494D01*
X150026961Y-108122494D02*
X149979342Y-108122494D01*
X149979342Y-108122494D02*
X149884104Y-108074875D01*
X149884104Y-108074875D02*
X149836485Y-107979637D01*
X149836485Y-107979637D02*
X149836485Y-107836780D01*
X149836485Y-107836780D02*
X149788866Y-107741542D01*
X149788866Y-107741542D02*
X149693628Y-107693923D01*
X149693628Y-107693923D02*
X149646009Y-107693923D01*
X149646009Y-107693923D02*
X149550771Y-107741542D01*
X149550771Y-107741542D02*
X149503152Y-107836780D01*
X149503152Y-107836780D02*
X149503152Y-107979637D01*
X149503152Y-107979637D02*
X149550771Y-108074875D01*
X150169819Y-108551066D02*
X149169819Y-108551066D01*
X150169819Y-108979637D02*
X149646009Y-108979637D01*
X149646009Y-108979637D02*
X149550771Y-108932018D01*
X149550771Y-108932018D02*
X149503152Y-108836780D01*
X149503152Y-108836780D02*
X149503152Y-108693923D01*
X149503152Y-108693923D02*
X149550771Y-108598685D01*
X149550771Y-108598685D02*
X149598390Y-108551066D01*
X150122200Y-109836780D02*
X150169819Y-109741542D01*
X150169819Y-109741542D02*
X150169819Y-109551066D01*
X150169819Y-109551066D02*
X150122200Y-109455828D01*
X150122200Y-109455828D02*
X150026961Y-109408209D01*
X150026961Y-109408209D02*
X149646009Y-109408209D01*
X149646009Y-109408209D02*
X149550771Y-109455828D01*
X149550771Y-109455828D02*
X149503152Y-109551066D01*
X149503152Y-109551066D02*
X149503152Y-109741542D01*
X149503152Y-109741542D02*
X149550771Y-109836780D01*
X149550771Y-109836780D02*
X149646009Y-109884399D01*
X149646009Y-109884399D02*
X149741247Y-109884399D01*
X149741247Y-109884399D02*
X149836485Y-109408209D01*
X150169819Y-110312971D02*
X149503152Y-110312971D01*
X149693628Y-110312971D02*
X149598390Y-110360590D01*
X149598390Y-110360590D02*
X149550771Y-110408209D01*
X149550771Y-110408209D02*
X149503152Y-110503447D01*
X149503152Y-110503447D02*
X149503152Y-110598685D01*
X149646009Y-111693924D02*
X149646009Y-112027257D01*
X150169819Y-112170114D02*
X150169819Y-111693924D01*
X150169819Y-111693924D02*
X149169819Y-111693924D01*
X149169819Y-111693924D02*
X149169819Y-112170114D01*
X150169819Y-113027257D02*
X149169819Y-113027257D01*
X150122200Y-113027257D02*
X150169819Y-112932019D01*
X150169819Y-112932019D02*
X150169819Y-112741543D01*
X150169819Y-112741543D02*
X150122200Y-112646305D01*
X150122200Y-112646305D02*
X150074580Y-112598686D01*
X150074580Y-112598686D02*
X149979342Y-112551067D01*
X149979342Y-112551067D02*
X149693628Y-112551067D01*
X149693628Y-112551067D02*
X149598390Y-112598686D01*
X149598390Y-112598686D02*
X149550771Y-112646305D01*
X149550771Y-112646305D02*
X149503152Y-112741543D01*
X149503152Y-112741543D02*
X149503152Y-112932019D01*
X149503152Y-112932019D02*
X149550771Y-113027257D01*
X149503152Y-113408210D02*
X150169819Y-113598686D01*
X150169819Y-113598686D02*
X149693628Y-113789162D01*
X149693628Y-113789162D02*
X150169819Y-113979638D01*
X150169819Y-113979638D02*
X149503152Y-114170114D01*
X150169819Y-114979638D02*
X149646009Y-114979638D01*
X149646009Y-114979638D02*
X149550771Y-114932019D01*
X149550771Y-114932019D02*
X149503152Y-114836781D01*
X149503152Y-114836781D02*
X149503152Y-114646305D01*
X149503152Y-114646305D02*
X149550771Y-114551067D01*
X150122200Y-114979638D02*
X150169819Y-114884400D01*
X150169819Y-114884400D02*
X150169819Y-114646305D01*
X150169819Y-114646305D02*
X150122200Y-114551067D01*
X150122200Y-114551067D02*
X150026961Y-114503448D01*
X150026961Y-114503448D02*
X149931723Y-114503448D01*
X149931723Y-114503448D02*
X149836485Y-114551067D01*
X149836485Y-114551067D02*
X149788866Y-114646305D01*
X149788866Y-114646305D02*
X149788866Y-114884400D01*
X149788866Y-114884400D02*
X149741247Y-114979638D01*
X150169819Y-115455829D02*
X149503152Y-115455829D01*
X149693628Y-115455829D02*
X149598390Y-115503448D01*
X149598390Y-115503448D02*
X149550771Y-115551067D01*
X149550771Y-115551067D02*
X149503152Y-115646305D01*
X149503152Y-115646305D02*
X149503152Y-115741543D01*
X150169819Y-116503448D02*
X149169819Y-116503448D01*
X150122200Y-116503448D02*
X150169819Y-116408210D01*
X150169819Y-116408210D02*
X150169819Y-116217734D01*
X150169819Y-116217734D02*
X150122200Y-116122496D01*
X150122200Y-116122496D02*
X150074580Y-116074877D01*
X150074580Y-116074877D02*
X149979342Y-116027258D01*
X149979342Y-116027258D02*
X149693628Y-116027258D01*
X149693628Y-116027258D02*
X149598390Y-116074877D01*
X149598390Y-116074877D02*
X149550771Y-116122496D01*
X149550771Y-116122496D02*
X149503152Y-116217734D01*
X149503152Y-116217734D02*
X149503152Y-116408210D01*
X149503152Y-116408210D02*
X149550771Y-116503448D01*
X150122200Y-116932020D02*
X150169819Y-117027258D01*
X150169819Y-117027258D02*
X150169819Y-117217734D01*
X150169819Y-117217734D02*
X150122200Y-117312972D01*
X150122200Y-117312972D02*
X150026961Y-117360591D01*
X150026961Y-117360591D02*
X149979342Y-117360591D01*
X149979342Y-117360591D02*
X149884104Y-117312972D01*
X149884104Y-117312972D02*
X149836485Y-117217734D01*
X149836485Y-117217734D02*
X149836485Y-117074877D01*
X149836485Y-117074877D02*
X149788866Y-116979639D01*
X149788866Y-116979639D02*
X149693628Y-116932020D01*
X149693628Y-116932020D02*
X149646009Y-116932020D01*
X149646009Y-116932020D02*
X149550771Y-116979639D01*
X149550771Y-116979639D02*
X149503152Y-117074877D01*
X149503152Y-117074877D02*
X149503152Y-117217734D01*
X149503152Y-117217734D02*
X149550771Y-117312972D01*
X127669819Y-90291541D02*
X127669819Y-90910588D01*
X127669819Y-90910588D02*
X128050771Y-90577255D01*
X128050771Y-90577255D02*
X128050771Y-90720112D01*
X128050771Y-90720112D02*
X128098390Y-90815350D01*
X128098390Y-90815350D02*
X128146009Y-90862969D01*
X128146009Y-90862969D02*
X128241247Y-90910588D01*
X128241247Y-90910588D02*
X128479342Y-90910588D01*
X128479342Y-90910588D02*
X128574580Y-90862969D01*
X128574580Y-90862969D02*
X128622200Y-90815350D01*
X128622200Y-90815350D02*
X128669819Y-90720112D01*
X128669819Y-90720112D02*
X128669819Y-90434398D01*
X128669819Y-90434398D02*
X128622200Y-90339160D01*
X128622200Y-90339160D02*
X128574580Y-90291541D01*
X128574580Y-91339160D02*
X128622200Y-91386779D01*
X128622200Y-91386779D02*
X128669819Y-91339160D01*
X128669819Y-91339160D02*
X128622200Y-91291541D01*
X128622200Y-91291541D02*
X128574580Y-91339160D01*
X128574580Y-91339160D02*
X128669819Y-91339160D01*
X127669819Y-91720112D02*
X127669819Y-92339159D01*
X127669819Y-92339159D02*
X128050771Y-92005826D01*
X128050771Y-92005826D02*
X128050771Y-92148683D01*
X128050771Y-92148683D02*
X128098390Y-92243921D01*
X128098390Y-92243921D02*
X128146009Y-92291540D01*
X128146009Y-92291540D02*
X128241247Y-92339159D01*
X128241247Y-92339159D02*
X128479342Y-92339159D01*
X128479342Y-92339159D02*
X128574580Y-92291540D01*
X128574580Y-92291540D02*
X128622200Y-92243921D01*
X128622200Y-92243921D02*
X128669819Y-92148683D01*
X128669819Y-92148683D02*
X128669819Y-91862969D01*
X128669819Y-91862969D02*
X128622200Y-91767731D01*
X128622200Y-91767731D02*
X128574580Y-91720112D01*
X128003152Y-92672493D02*
X128669819Y-92910588D01*
X128669819Y-92910588D02*
X128003152Y-93148683D01*
X147629887Y-129846009D02*
X147487030Y-129893628D01*
X147487030Y-129893628D02*
X147439411Y-129941247D01*
X147439411Y-129941247D02*
X147391792Y-130036485D01*
X147391792Y-130036485D02*
X147391792Y-130179342D01*
X147391792Y-130179342D02*
X147439411Y-130274580D01*
X147439411Y-130274580D02*
X147487030Y-130322200D01*
X147487030Y-130322200D02*
X147582268Y-130369819D01*
X147582268Y-130369819D02*
X147963220Y-130369819D01*
X147963220Y-130369819D02*
X147963220Y-129369819D01*
X147963220Y-129369819D02*
X147629887Y-129369819D01*
X147629887Y-129369819D02*
X147534649Y-129417438D01*
X147534649Y-129417438D02*
X147487030Y-129465057D01*
X147487030Y-129465057D02*
X147439411Y-129560295D01*
X147439411Y-129560295D02*
X147439411Y-129655533D01*
X147439411Y-129655533D02*
X147487030Y-129750771D01*
X147487030Y-129750771D02*
X147534649Y-129798390D01*
X147534649Y-129798390D02*
X147629887Y-129846009D01*
X147629887Y-129846009D02*
X147963220Y-129846009D01*
X147010839Y-130084104D02*
X146534649Y-130084104D01*
X147106077Y-130369819D02*
X146772744Y-129369819D01*
X146772744Y-129369819D02*
X146439411Y-130369819D01*
X146248934Y-129369819D02*
X145677506Y-129369819D01*
X145963220Y-130369819D02*
X145963220Y-129369819D01*
X145487029Y-129369819D02*
X144915601Y-129369819D01*
X145201315Y-130369819D02*
X145201315Y-129369819D01*
X144582267Y-129988866D02*
X143820363Y-129988866D01*
X124922200Y-90439160D02*
X124969819Y-90582017D01*
X124969819Y-90582017D02*
X124969819Y-90820112D01*
X124969819Y-90820112D02*
X124922200Y-90915350D01*
X124922200Y-90915350D02*
X124874580Y-90962969D01*
X124874580Y-90962969D02*
X124779342Y-91010588D01*
X124779342Y-91010588D02*
X124684104Y-91010588D01*
X124684104Y-91010588D02*
X124588866Y-90962969D01*
X124588866Y-90962969D02*
X124541247Y-90915350D01*
X124541247Y-90915350D02*
X124493628Y-90820112D01*
X124493628Y-90820112D02*
X124446009Y-90629636D01*
X124446009Y-90629636D02*
X124398390Y-90534398D01*
X124398390Y-90534398D02*
X124350771Y-90486779D01*
X124350771Y-90486779D02*
X124255533Y-90439160D01*
X124255533Y-90439160D02*
X124160295Y-90439160D01*
X124160295Y-90439160D02*
X124065057Y-90486779D01*
X124065057Y-90486779D02*
X124017438Y-90534398D01*
X124017438Y-90534398D02*
X123969819Y-90629636D01*
X123969819Y-90629636D02*
X123969819Y-90867731D01*
X123969819Y-90867731D02*
X124017438Y-91010588D01*
X124874580Y-92010588D02*
X124922200Y-91962969D01*
X124922200Y-91962969D02*
X124969819Y-91820112D01*
X124969819Y-91820112D02*
X124969819Y-91724874D01*
X124969819Y-91724874D02*
X124922200Y-91582017D01*
X124922200Y-91582017D02*
X124826961Y-91486779D01*
X124826961Y-91486779D02*
X124731723Y-91439160D01*
X124731723Y-91439160D02*
X124541247Y-91391541D01*
X124541247Y-91391541D02*
X124398390Y-91391541D01*
X124398390Y-91391541D02*
X124207914Y-91439160D01*
X124207914Y-91439160D02*
X124112676Y-91486779D01*
X124112676Y-91486779D02*
X124017438Y-91582017D01*
X124017438Y-91582017D02*
X123969819Y-91724874D01*
X123969819Y-91724874D02*
X123969819Y-91820112D01*
X123969819Y-91820112D02*
X124017438Y-91962969D01*
X124017438Y-91962969D02*
X124065057Y-92010588D01*
X124969819Y-92915350D02*
X124969819Y-92439160D01*
X124969819Y-92439160D02*
X123969819Y-92439160D01*
X116354819Y-122057142D02*
X115878628Y-121723809D01*
X116354819Y-121485714D02*
X115354819Y-121485714D01*
X115354819Y-121485714D02*
X115354819Y-121866666D01*
X115354819Y-121866666D02*
X115402438Y-121961904D01*
X115402438Y-121961904D02*
X115450057Y-122009523D01*
X115450057Y-122009523D02*
X115545295Y-122057142D01*
X115545295Y-122057142D02*
X115688152Y-122057142D01*
X115688152Y-122057142D02*
X115783390Y-122009523D01*
X115783390Y-122009523D02*
X115831009Y-121961904D01*
X115831009Y-121961904D02*
X115878628Y-121866666D01*
X115878628Y-121866666D02*
X115878628Y-121485714D01*
X116354819Y-123009523D02*
X116354819Y-122438095D01*
X116354819Y-122723809D02*
X115354819Y-122723809D01*
X115354819Y-122723809D02*
X115497676Y-122628571D01*
X115497676Y-122628571D02*
X115592914Y-122533333D01*
X115592914Y-122533333D02*
X115640533Y-122438095D01*
X116354819Y-123961904D02*
X116354819Y-123390476D01*
X116354819Y-123676190D02*
X115354819Y-123676190D01*
X115354819Y-123676190D02*
X115497676Y-123580952D01*
X115497676Y-123580952D02*
X115592914Y-123485714D01*
X115592914Y-123485714D02*
X115640533Y-123390476D01*
X149554819Y-124457142D02*
X149078628Y-124123809D01*
X149554819Y-123885714D02*
X148554819Y-123885714D01*
X148554819Y-123885714D02*
X148554819Y-124266666D01*
X148554819Y-124266666D02*
X148602438Y-124361904D01*
X148602438Y-124361904D02*
X148650057Y-124409523D01*
X148650057Y-124409523D02*
X148745295Y-124457142D01*
X148745295Y-124457142D02*
X148888152Y-124457142D01*
X148888152Y-124457142D02*
X148983390Y-124409523D01*
X148983390Y-124409523D02*
X149031009Y-124361904D01*
X149031009Y-124361904D02*
X149078628Y-124266666D01*
X149078628Y-124266666D02*
X149078628Y-123885714D01*
X148554819Y-124790476D02*
X148554819Y-125409523D01*
X148554819Y-125409523D02*
X148935771Y-125076190D01*
X148935771Y-125076190D02*
X148935771Y-125219047D01*
X148935771Y-125219047D02*
X148983390Y-125314285D01*
X148983390Y-125314285D02*
X149031009Y-125361904D01*
X149031009Y-125361904D02*
X149126247Y-125409523D01*
X149126247Y-125409523D02*
X149364342Y-125409523D01*
X149364342Y-125409523D02*
X149459580Y-125361904D01*
X149459580Y-125361904D02*
X149507200Y-125314285D01*
X149507200Y-125314285D02*
X149554819Y-125219047D01*
X149554819Y-125219047D02*
X149554819Y-124933333D01*
X149554819Y-124933333D02*
X149507200Y-124838095D01*
X149507200Y-124838095D02*
X149459580Y-124790476D01*
X148554819Y-126314285D02*
X148554819Y-125838095D01*
X148554819Y-125838095D02*
X149031009Y-125790476D01*
X149031009Y-125790476D02*
X148983390Y-125838095D01*
X148983390Y-125838095D02*
X148935771Y-125933333D01*
X148935771Y-125933333D02*
X148935771Y-126171428D01*
X148935771Y-126171428D02*
X148983390Y-126266666D01*
X148983390Y-126266666D02*
X149031009Y-126314285D01*
X149031009Y-126314285D02*
X149126247Y-126361904D01*
X149126247Y-126361904D02*
X149364342Y-126361904D01*
X149364342Y-126361904D02*
X149459580Y-126314285D01*
X149459580Y-126314285D02*
X149507200Y-126266666D01*
X149507200Y-126266666D02*
X149554819Y-126171428D01*
X149554819Y-126171428D02*
X149554819Y-125933333D01*
X149554819Y-125933333D02*
X149507200Y-125838095D01*
X149507200Y-125838095D02*
X149459580Y-125790476D01*
X136239456Y-96203754D02*
X136138441Y-95631335D01*
X136643517Y-95799693D02*
X135936410Y-95092587D01*
X135936410Y-95092587D02*
X135667036Y-95361961D01*
X135667036Y-95361961D02*
X135633364Y-95462976D01*
X135633364Y-95462976D02*
X135633364Y-95530319D01*
X135633364Y-95530319D02*
X135667036Y-95631335D01*
X135667036Y-95631335D02*
X135768051Y-95732350D01*
X135768051Y-95732350D02*
X135869067Y-95766022D01*
X135869067Y-95766022D02*
X135936410Y-95766022D01*
X135936410Y-95766022D02*
X136037425Y-95732350D01*
X136037425Y-95732350D02*
X136306799Y-95462976D01*
X135161960Y-96338441D02*
X135633364Y-96809846D01*
X135060945Y-95900709D02*
X135734380Y-96237426D01*
X135734380Y-96237426D02*
X135296647Y-96675159D01*
X123342857Y-121054819D02*
X123676190Y-120578628D01*
X123914285Y-121054819D02*
X123914285Y-120054819D01*
X123914285Y-120054819D02*
X123533333Y-120054819D01*
X123533333Y-120054819D02*
X123438095Y-120102438D01*
X123438095Y-120102438D02*
X123390476Y-120150057D01*
X123390476Y-120150057D02*
X123342857Y-120245295D01*
X123342857Y-120245295D02*
X123342857Y-120388152D01*
X123342857Y-120388152D02*
X123390476Y-120483390D01*
X123390476Y-120483390D02*
X123438095Y-120531009D01*
X123438095Y-120531009D02*
X123533333Y-120578628D01*
X123533333Y-120578628D02*
X123914285Y-120578628D01*
X122390476Y-121054819D02*
X122961904Y-121054819D01*
X122676190Y-121054819D02*
X122676190Y-120054819D01*
X122676190Y-120054819D02*
X122771428Y-120197676D01*
X122771428Y-120197676D02*
X122866666Y-120292914D01*
X122866666Y-120292914D02*
X122961904Y-120340533D01*
X121771428Y-120054819D02*
X121676190Y-120054819D01*
X121676190Y-120054819D02*
X121580952Y-120102438D01*
X121580952Y-120102438D02*
X121533333Y-120150057D01*
X121533333Y-120150057D02*
X121485714Y-120245295D01*
X121485714Y-120245295D02*
X121438095Y-120435771D01*
X121438095Y-120435771D02*
X121438095Y-120673866D01*
X121438095Y-120673866D02*
X121485714Y-120864342D01*
X121485714Y-120864342D02*
X121533333Y-120959580D01*
X121533333Y-120959580D02*
X121580952Y-121007200D01*
X121580952Y-121007200D02*
X121676190Y-121054819D01*
X121676190Y-121054819D02*
X121771428Y-121054819D01*
X121771428Y-121054819D02*
X121866666Y-121007200D01*
X121866666Y-121007200D02*
X121914285Y-120959580D01*
X121914285Y-120959580D02*
X121961904Y-120864342D01*
X121961904Y-120864342D02*
X122009523Y-120673866D01*
X122009523Y-120673866D02*
X122009523Y-120435771D01*
X122009523Y-120435771D02*
X121961904Y-120245295D01*
X121961904Y-120245295D02*
X121914285Y-120150057D01*
X121914285Y-120150057D02*
X121866666Y-120102438D01*
X121866666Y-120102438D02*
X121771428Y-120054819D01*
X138689456Y-96053754D02*
X138588441Y-95481335D01*
X139093517Y-95649693D02*
X138386410Y-94942587D01*
X138386410Y-94942587D02*
X138117036Y-95211961D01*
X138117036Y-95211961D02*
X138083364Y-95312976D01*
X138083364Y-95312976D02*
X138083364Y-95380319D01*
X138083364Y-95380319D02*
X138117036Y-95481335D01*
X138117036Y-95481335D02*
X138218051Y-95582350D01*
X138218051Y-95582350D02*
X138319067Y-95616022D01*
X138319067Y-95616022D02*
X138386410Y-95616022D01*
X138386410Y-95616022D02*
X138487425Y-95582350D01*
X138487425Y-95582350D02*
X138756799Y-95312976D01*
X137342586Y-95986411D02*
X137679303Y-95649693D01*
X137679303Y-95649693D02*
X138049693Y-95952739D01*
X138049693Y-95952739D02*
X137982349Y-95952739D01*
X137982349Y-95952739D02*
X137881334Y-95986411D01*
X137881334Y-95986411D02*
X137712975Y-96154770D01*
X137712975Y-96154770D02*
X137679303Y-96255785D01*
X137679303Y-96255785D02*
X137679303Y-96323128D01*
X137679303Y-96323128D02*
X137712975Y-96424144D01*
X137712975Y-96424144D02*
X137881334Y-96592502D01*
X137881334Y-96592502D02*
X137982349Y-96626174D01*
X137982349Y-96626174D02*
X138049693Y-96626174D01*
X138049693Y-96626174D02*
X138150708Y-96592502D01*
X138150708Y-96592502D02*
X138319067Y-96424144D01*
X138319067Y-96424144D02*
X138352738Y-96323128D01*
X138352738Y-96323128D02*
X138352738Y-96255785D01*
X135059580Y-121857142D02*
X135107200Y-121809523D01*
X135107200Y-121809523D02*
X135154819Y-121666666D01*
X135154819Y-121666666D02*
X135154819Y-121571428D01*
X135154819Y-121571428D02*
X135107200Y-121428571D01*
X135107200Y-121428571D02*
X135011961Y-121333333D01*
X135011961Y-121333333D02*
X134916723Y-121285714D01*
X134916723Y-121285714D02*
X134726247Y-121238095D01*
X134726247Y-121238095D02*
X134583390Y-121238095D01*
X134583390Y-121238095D02*
X134392914Y-121285714D01*
X134392914Y-121285714D02*
X134297676Y-121333333D01*
X134297676Y-121333333D02*
X134202438Y-121428571D01*
X134202438Y-121428571D02*
X134154819Y-121571428D01*
X134154819Y-121571428D02*
X134154819Y-121666666D01*
X134154819Y-121666666D02*
X134202438Y-121809523D01*
X134202438Y-121809523D02*
X134250057Y-121857142D01*
X134250057Y-122238095D02*
X134202438Y-122285714D01*
X134202438Y-122285714D02*
X134154819Y-122380952D01*
X134154819Y-122380952D02*
X134154819Y-122619047D01*
X134154819Y-122619047D02*
X134202438Y-122714285D01*
X134202438Y-122714285D02*
X134250057Y-122761904D01*
X134250057Y-122761904D02*
X134345295Y-122809523D01*
X134345295Y-122809523D02*
X134440533Y-122809523D01*
X134440533Y-122809523D02*
X134583390Y-122761904D01*
X134583390Y-122761904D02*
X135154819Y-122190476D01*
X135154819Y-122190476D02*
X135154819Y-122809523D01*
X134583390Y-123380952D02*
X134535771Y-123285714D01*
X134535771Y-123285714D02*
X134488152Y-123238095D01*
X134488152Y-123238095D02*
X134392914Y-123190476D01*
X134392914Y-123190476D02*
X134345295Y-123190476D01*
X134345295Y-123190476D02*
X134250057Y-123238095D01*
X134250057Y-123238095D02*
X134202438Y-123285714D01*
X134202438Y-123285714D02*
X134154819Y-123380952D01*
X134154819Y-123380952D02*
X134154819Y-123571428D01*
X134154819Y-123571428D02*
X134202438Y-123666666D01*
X134202438Y-123666666D02*
X134250057Y-123714285D01*
X134250057Y-123714285D02*
X134345295Y-123761904D01*
X134345295Y-123761904D02*
X134392914Y-123761904D01*
X134392914Y-123761904D02*
X134488152Y-123714285D01*
X134488152Y-123714285D02*
X134535771Y-123666666D01*
X134535771Y-123666666D02*
X134583390Y-123571428D01*
X134583390Y-123571428D02*
X134583390Y-123380952D01*
X134583390Y-123380952D02*
X134631009Y-123285714D01*
X134631009Y-123285714D02*
X134678628Y-123238095D01*
X134678628Y-123238095D02*
X134773866Y-123190476D01*
X134773866Y-123190476D02*
X134964342Y-123190476D01*
X134964342Y-123190476D02*
X135059580Y-123238095D01*
X135059580Y-123238095D02*
X135107200Y-123285714D01*
X135107200Y-123285714D02*
X135154819Y-123380952D01*
X135154819Y-123380952D02*
X135154819Y-123571428D01*
X135154819Y-123571428D02*
X135107200Y-123666666D01*
X135107200Y-123666666D02*
X135059580Y-123714285D01*
X135059580Y-123714285D02*
X134964342Y-123761904D01*
X134964342Y-123761904D02*
X134773866Y-123761904D01*
X134773866Y-123761904D02*
X134678628Y-123714285D01*
X134678628Y-123714285D02*
X134631009Y-123666666D01*
X134631009Y-123666666D02*
X134583390Y-123571428D01*
X137016666Y-105709580D02*
X137064285Y-105757200D01*
X137064285Y-105757200D02*
X137207142Y-105804819D01*
X137207142Y-105804819D02*
X137302380Y-105804819D01*
X137302380Y-105804819D02*
X137445237Y-105757200D01*
X137445237Y-105757200D02*
X137540475Y-105661961D01*
X137540475Y-105661961D02*
X137588094Y-105566723D01*
X137588094Y-105566723D02*
X137635713Y-105376247D01*
X137635713Y-105376247D02*
X137635713Y-105233390D01*
X137635713Y-105233390D02*
X137588094Y-105042914D01*
X137588094Y-105042914D02*
X137540475Y-104947676D01*
X137540475Y-104947676D02*
X137445237Y-104852438D01*
X137445237Y-104852438D02*
X137302380Y-104804819D01*
X137302380Y-104804819D02*
X137207142Y-104804819D01*
X137207142Y-104804819D02*
X137064285Y-104852438D01*
X137064285Y-104852438D02*
X137016666Y-104900057D01*
X136635713Y-104900057D02*
X136588094Y-104852438D01*
X136588094Y-104852438D02*
X136492856Y-104804819D01*
X136492856Y-104804819D02*
X136254761Y-104804819D01*
X136254761Y-104804819D02*
X136159523Y-104852438D01*
X136159523Y-104852438D02*
X136111904Y-104900057D01*
X136111904Y-104900057D02*
X136064285Y-104995295D01*
X136064285Y-104995295D02*
X136064285Y-105090533D01*
X136064285Y-105090533D02*
X136111904Y-105233390D01*
X136111904Y-105233390D02*
X136683332Y-105804819D01*
X136683332Y-105804819D02*
X136064285Y-105804819D01*
X126559580Y-121244642D02*
X126607200Y-121197023D01*
X126607200Y-121197023D02*
X126654819Y-121054166D01*
X126654819Y-121054166D02*
X126654819Y-120958928D01*
X126654819Y-120958928D02*
X126607200Y-120816071D01*
X126607200Y-120816071D02*
X126511961Y-120720833D01*
X126511961Y-120720833D02*
X126416723Y-120673214D01*
X126416723Y-120673214D02*
X126226247Y-120625595D01*
X126226247Y-120625595D02*
X126083390Y-120625595D01*
X126083390Y-120625595D02*
X125892914Y-120673214D01*
X125892914Y-120673214D02*
X125797676Y-120720833D01*
X125797676Y-120720833D02*
X125702438Y-120816071D01*
X125702438Y-120816071D02*
X125654819Y-120958928D01*
X125654819Y-120958928D02*
X125654819Y-121054166D01*
X125654819Y-121054166D02*
X125702438Y-121197023D01*
X125702438Y-121197023D02*
X125750057Y-121244642D01*
X125988152Y-122101785D02*
X126654819Y-122101785D01*
X125607200Y-121863690D02*
X126321485Y-121625595D01*
X126321485Y-121625595D02*
X126321485Y-122244642D01*
X125654819Y-122816071D02*
X125654819Y-122911309D01*
X125654819Y-122911309D02*
X125702438Y-123006547D01*
X125702438Y-123006547D02*
X125750057Y-123054166D01*
X125750057Y-123054166D02*
X125845295Y-123101785D01*
X125845295Y-123101785D02*
X126035771Y-123149404D01*
X126035771Y-123149404D02*
X126273866Y-123149404D01*
X126273866Y-123149404D02*
X126464342Y-123101785D01*
X126464342Y-123101785D02*
X126559580Y-123054166D01*
X126559580Y-123054166D02*
X126607200Y-123006547D01*
X126607200Y-123006547D02*
X126654819Y-122911309D01*
X126654819Y-122911309D02*
X126654819Y-122816071D01*
X126654819Y-122816071D02*
X126607200Y-122720833D01*
X126607200Y-122720833D02*
X126559580Y-122673214D01*
X126559580Y-122673214D02*
X126464342Y-122625595D01*
X126464342Y-122625595D02*
X126273866Y-122577976D01*
X126273866Y-122577976D02*
X126035771Y-122577976D01*
X126035771Y-122577976D02*
X125845295Y-122625595D01*
X125845295Y-122625595D02*
X125750057Y-122673214D01*
X125750057Y-122673214D02*
X125702438Y-122720833D01*
X125702438Y-122720833D02*
X125654819Y-122816071D01*
X141942857Y-124959580D02*
X141990476Y-125007200D01*
X141990476Y-125007200D02*
X142133333Y-125054819D01*
X142133333Y-125054819D02*
X142228571Y-125054819D01*
X142228571Y-125054819D02*
X142371428Y-125007200D01*
X142371428Y-125007200D02*
X142466666Y-124911961D01*
X142466666Y-124911961D02*
X142514285Y-124816723D01*
X142514285Y-124816723D02*
X142561904Y-124626247D01*
X142561904Y-124626247D02*
X142561904Y-124483390D01*
X142561904Y-124483390D02*
X142514285Y-124292914D01*
X142514285Y-124292914D02*
X142466666Y-124197676D01*
X142466666Y-124197676D02*
X142371428Y-124102438D01*
X142371428Y-124102438D02*
X142228571Y-124054819D01*
X142228571Y-124054819D02*
X142133333Y-124054819D01*
X142133333Y-124054819D02*
X141990476Y-124102438D01*
X141990476Y-124102438D02*
X141942857Y-124150057D01*
X141609523Y-124054819D02*
X140990476Y-124054819D01*
X140990476Y-124054819D02*
X141323809Y-124435771D01*
X141323809Y-124435771D02*
X141180952Y-124435771D01*
X141180952Y-124435771D02*
X141085714Y-124483390D01*
X141085714Y-124483390D02*
X141038095Y-124531009D01*
X141038095Y-124531009D02*
X140990476Y-124626247D01*
X140990476Y-124626247D02*
X140990476Y-124864342D01*
X140990476Y-124864342D02*
X141038095Y-124959580D01*
X141038095Y-124959580D02*
X141085714Y-125007200D01*
X141085714Y-125007200D02*
X141180952Y-125054819D01*
X141180952Y-125054819D02*
X141466666Y-125054819D01*
X141466666Y-125054819D02*
X141561904Y-125007200D01*
X141561904Y-125007200D02*
X141609523Y-124959580D01*
X140657142Y-124054819D02*
X140038095Y-124054819D01*
X140038095Y-124054819D02*
X140371428Y-124435771D01*
X140371428Y-124435771D02*
X140228571Y-124435771D01*
X140228571Y-124435771D02*
X140133333Y-124483390D01*
X140133333Y-124483390D02*
X140085714Y-124531009D01*
X140085714Y-124531009D02*
X140038095Y-124626247D01*
X140038095Y-124626247D02*
X140038095Y-124864342D01*
X140038095Y-124864342D02*
X140085714Y-124959580D01*
X140085714Y-124959580D02*
X140133333Y-125007200D01*
X140133333Y-125007200D02*
X140228571Y-125054819D01*
X140228571Y-125054819D02*
X140514285Y-125054819D01*
X140514285Y-125054819D02*
X140609523Y-125007200D01*
X140609523Y-125007200D02*
X140657142Y-124959580D01*
X150042857Y-120459580D02*
X150090476Y-120507200D01*
X150090476Y-120507200D02*
X150233333Y-120554819D01*
X150233333Y-120554819D02*
X150328571Y-120554819D01*
X150328571Y-120554819D02*
X150471428Y-120507200D01*
X150471428Y-120507200D02*
X150566666Y-120411961D01*
X150566666Y-120411961D02*
X150614285Y-120316723D01*
X150614285Y-120316723D02*
X150661904Y-120126247D01*
X150661904Y-120126247D02*
X150661904Y-119983390D01*
X150661904Y-119983390D02*
X150614285Y-119792914D01*
X150614285Y-119792914D02*
X150566666Y-119697676D01*
X150566666Y-119697676D02*
X150471428Y-119602438D01*
X150471428Y-119602438D02*
X150328571Y-119554819D01*
X150328571Y-119554819D02*
X150233333Y-119554819D01*
X150233333Y-119554819D02*
X150090476Y-119602438D01*
X150090476Y-119602438D02*
X150042857Y-119650057D01*
X149709523Y-119554819D02*
X149090476Y-119554819D01*
X149090476Y-119554819D02*
X149423809Y-119935771D01*
X149423809Y-119935771D02*
X149280952Y-119935771D01*
X149280952Y-119935771D02*
X149185714Y-119983390D01*
X149185714Y-119983390D02*
X149138095Y-120031009D01*
X149138095Y-120031009D02*
X149090476Y-120126247D01*
X149090476Y-120126247D02*
X149090476Y-120364342D01*
X149090476Y-120364342D02*
X149138095Y-120459580D01*
X149138095Y-120459580D02*
X149185714Y-120507200D01*
X149185714Y-120507200D02*
X149280952Y-120554819D01*
X149280952Y-120554819D02*
X149566666Y-120554819D01*
X149566666Y-120554819D02*
X149661904Y-120507200D01*
X149661904Y-120507200D02*
X149709523Y-120459580D01*
X148233333Y-119888152D02*
X148233333Y-120554819D01*
X148471428Y-119507200D02*
X148709523Y-120221485D01*
X148709523Y-120221485D02*
X148090476Y-120221485D01*
X150042857Y-118854819D02*
X150376190Y-118378628D01*
X150614285Y-118854819D02*
X150614285Y-117854819D01*
X150614285Y-117854819D02*
X150233333Y-117854819D01*
X150233333Y-117854819D02*
X150138095Y-117902438D01*
X150138095Y-117902438D02*
X150090476Y-117950057D01*
X150090476Y-117950057D02*
X150042857Y-118045295D01*
X150042857Y-118045295D02*
X150042857Y-118188152D01*
X150042857Y-118188152D02*
X150090476Y-118283390D01*
X150090476Y-118283390D02*
X150138095Y-118331009D01*
X150138095Y-118331009D02*
X150233333Y-118378628D01*
X150233333Y-118378628D02*
X150614285Y-118378628D01*
X149709523Y-117854819D02*
X149090476Y-117854819D01*
X149090476Y-117854819D02*
X149423809Y-118235771D01*
X149423809Y-118235771D02*
X149280952Y-118235771D01*
X149280952Y-118235771D02*
X149185714Y-118283390D01*
X149185714Y-118283390D02*
X149138095Y-118331009D01*
X149138095Y-118331009D02*
X149090476Y-118426247D01*
X149090476Y-118426247D02*
X149090476Y-118664342D01*
X149090476Y-118664342D02*
X149138095Y-118759580D01*
X149138095Y-118759580D02*
X149185714Y-118807200D01*
X149185714Y-118807200D02*
X149280952Y-118854819D01*
X149280952Y-118854819D02*
X149566666Y-118854819D01*
X149566666Y-118854819D02*
X149661904Y-118807200D01*
X149661904Y-118807200D02*
X149709523Y-118759580D01*
X148757142Y-117854819D02*
X148138095Y-117854819D01*
X148138095Y-117854819D02*
X148471428Y-118235771D01*
X148471428Y-118235771D02*
X148328571Y-118235771D01*
X148328571Y-118235771D02*
X148233333Y-118283390D01*
X148233333Y-118283390D02*
X148185714Y-118331009D01*
X148185714Y-118331009D02*
X148138095Y-118426247D01*
X148138095Y-118426247D02*
X148138095Y-118664342D01*
X148138095Y-118664342D02*
X148185714Y-118759580D01*
X148185714Y-118759580D02*
X148233333Y-118807200D01*
X148233333Y-118807200D02*
X148328571Y-118854819D01*
X148328571Y-118854819D02*
X148614285Y-118854819D01*
X148614285Y-118854819D02*
X148709523Y-118807200D01*
X148709523Y-118807200D02*
X148757142Y-118759580D01*
X113159580Y-122357142D02*
X113207200Y-122309523D01*
X113207200Y-122309523D02*
X113254819Y-122166666D01*
X113254819Y-122166666D02*
X113254819Y-122071428D01*
X113254819Y-122071428D02*
X113207200Y-121928571D01*
X113207200Y-121928571D02*
X113111961Y-121833333D01*
X113111961Y-121833333D02*
X113016723Y-121785714D01*
X113016723Y-121785714D02*
X112826247Y-121738095D01*
X112826247Y-121738095D02*
X112683390Y-121738095D01*
X112683390Y-121738095D02*
X112492914Y-121785714D01*
X112492914Y-121785714D02*
X112397676Y-121833333D01*
X112397676Y-121833333D02*
X112302438Y-121928571D01*
X112302438Y-121928571D02*
X112254819Y-122071428D01*
X112254819Y-122071428D02*
X112254819Y-122166666D01*
X112254819Y-122166666D02*
X112302438Y-122309523D01*
X112302438Y-122309523D02*
X112350057Y-122357142D01*
X113254819Y-123309523D02*
X113254819Y-122738095D01*
X113254819Y-123023809D02*
X112254819Y-123023809D01*
X112254819Y-123023809D02*
X112397676Y-122928571D01*
X112397676Y-122928571D02*
X112492914Y-122833333D01*
X112492914Y-122833333D02*
X112540533Y-122738095D01*
X112254819Y-123642857D02*
X112254819Y-124261904D01*
X112254819Y-124261904D02*
X112635771Y-123928571D01*
X112635771Y-123928571D02*
X112635771Y-124071428D01*
X112635771Y-124071428D02*
X112683390Y-124166666D01*
X112683390Y-124166666D02*
X112731009Y-124214285D01*
X112731009Y-124214285D02*
X112826247Y-124261904D01*
X112826247Y-124261904D02*
X113064342Y-124261904D01*
X113064342Y-124261904D02*
X113159580Y-124214285D01*
X113159580Y-124214285D02*
X113207200Y-124166666D01*
X113207200Y-124166666D02*
X113254819Y-124071428D01*
X113254819Y-124071428D02*
X113254819Y-123785714D01*
X113254819Y-123785714D02*
X113207200Y-123690476D01*
X113207200Y-123690476D02*
X113159580Y-123642857D01*
X129342857Y-99154819D02*
X129676190Y-98678628D01*
X129914285Y-99154819D02*
X129914285Y-98154819D01*
X129914285Y-98154819D02*
X129533333Y-98154819D01*
X129533333Y-98154819D02*
X129438095Y-98202438D01*
X129438095Y-98202438D02*
X129390476Y-98250057D01*
X129390476Y-98250057D02*
X129342857Y-98345295D01*
X129342857Y-98345295D02*
X129342857Y-98488152D01*
X129342857Y-98488152D02*
X129390476Y-98583390D01*
X129390476Y-98583390D02*
X129438095Y-98631009D01*
X129438095Y-98631009D02*
X129533333Y-98678628D01*
X129533333Y-98678628D02*
X129914285Y-98678628D01*
X128390476Y-99154819D02*
X128961904Y-99154819D01*
X128676190Y-99154819D02*
X128676190Y-98154819D01*
X128676190Y-98154819D02*
X128771428Y-98297676D01*
X128771428Y-98297676D02*
X128866666Y-98392914D01*
X128866666Y-98392914D02*
X128961904Y-98440533D01*
X127533333Y-98488152D02*
X127533333Y-99154819D01*
X127771428Y-98107200D02*
X128009523Y-98821485D01*
X128009523Y-98821485D02*
X127390476Y-98821485D01*
X117538094Y-118334819D02*
X117538094Y-117334819D01*
X117538094Y-117334819D02*
X117299999Y-117334819D01*
X117299999Y-117334819D02*
X117157142Y-117382438D01*
X117157142Y-117382438D02*
X117061904Y-117477676D01*
X117061904Y-117477676D02*
X117014285Y-117572914D01*
X117014285Y-117572914D02*
X116966666Y-117763390D01*
X116966666Y-117763390D02*
X116966666Y-117906247D01*
X116966666Y-117906247D02*
X117014285Y-118096723D01*
X117014285Y-118096723D02*
X117061904Y-118191961D01*
X117061904Y-118191961D02*
X117157142Y-118287200D01*
X117157142Y-118287200D02*
X117299999Y-118334819D01*
X117299999Y-118334819D02*
X117538094Y-118334819D01*
X116585713Y-117430057D02*
X116538094Y-117382438D01*
X116538094Y-117382438D02*
X116442856Y-117334819D01*
X116442856Y-117334819D02*
X116204761Y-117334819D01*
X116204761Y-117334819D02*
X116109523Y-117382438D01*
X116109523Y-117382438D02*
X116061904Y-117430057D01*
X116061904Y-117430057D02*
X116014285Y-117525295D01*
X116014285Y-117525295D02*
X116014285Y-117620533D01*
X116014285Y-117620533D02*
X116061904Y-117763390D01*
X116061904Y-117763390D02*
X116633332Y-118334819D01*
X116633332Y-118334819D02*
X116014285Y-118334819D01*
X125125057Y-129104761D02*
X125077438Y-129009523D01*
X125077438Y-129009523D02*
X124982200Y-128914285D01*
X124982200Y-128914285D02*
X124839342Y-128771428D01*
X124839342Y-128771428D02*
X124791723Y-128676190D01*
X124791723Y-128676190D02*
X124791723Y-128580952D01*
X125029819Y-128628571D02*
X124982200Y-128533333D01*
X124982200Y-128533333D02*
X124886961Y-128438095D01*
X124886961Y-128438095D02*
X124696485Y-128390476D01*
X124696485Y-128390476D02*
X124363152Y-128390476D01*
X124363152Y-128390476D02*
X124172676Y-128438095D01*
X124172676Y-128438095D02*
X124077438Y-128533333D01*
X124077438Y-128533333D02*
X124029819Y-128628571D01*
X124029819Y-128628571D02*
X124029819Y-128819047D01*
X124029819Y-128819047D02*
X124077438Y-128914285D01*
X124077438Y-128914285D02*
X124172676Y-129009523D01*
X124172676Y-129009523D02*
X124363152Y-129057142D01*
X124363152Y-129057142D02*
X124696485Y-129057142D01*
X124696485Y-129057142D02*
X124886961Y-129009523D01*
X124886961Y-129009523D02*
X124982200Y-128914285D01*
X124982200Y-128914285D02*
X125029819Y-128819047D01*
X125029819Y-128819047D02*
X125029819Y-128628571D01*
X124029819Y-129390476D02*
X124029819Y-130057142D01*
X124029819Y-130057142D02*
X125029819Y-129628571D01*
X127966666Y-118754819D02*
X128442856Y-118754819D01*
X128442856Y-118754819D02*
X128442856Y-117754819D01*
X127728570Y-117754819D02*
X127109523Y-117754819D01*
X127109523Y-117754819D02*
X127442856Y-118135771D01*
X127442856Y-118135771D02*
X127299999Y-118135771D01*
X127299999Y-118135771D02*
X127204761Y-118183390D01*
X127204761Y-118183390D02*
X127157142Y-118231009D01*
X127157142Y-118231009D02*
X127109523Y-118326247D01*
X127109523Y-118326247D02*
X127109523Y-118564342D01*
X127109523Y-118564342D02*
X127157142Y-118659580D01*
X127157142Y-118659580D02*
X127204761Y-118707200D01*
X127204761Y-118707200D02*
X127299999Y-118754819D01*
X127299999Y-118754819D02*
X127585713Y-118754819D01*
X127585713Y-118754819D02*
X127680951Y-118707200D01*
X127680951Y-118707200D02*
X127728570Y-118659580D01*
X147042857Y-127959580D02*
X147090476Y-128007200D01*
X147090476Y-128007200D02*
X147233333Y-128054819D01*
X147233333Y-128054819D02*
X147328571Y-128054819D01*
X147328571Y-128054819D02*
X147471428Y-128007200D01*
X147471428Y-128007200D02*
X147566666Y-127911961D01*
X147566666Y-127911961D02*
X147614285Y-127816723D01*
X147614285Y-127816723D02*
X147661904Y-127626247D01*
X147661904Y-127626247D02*
X147661904Y-127483390D01*
X147661904Y-127483390D02*
X147614285Y-127292914D01*
X147614285Y-127292914D02*
X147566666Y-127197676D01*
X147566666Y-127197676D02*
X147471428Y-127102438D01*
X147471428Y-127102438D02*
X147328571Y-127054819D01*
X147328571Y-127054819D02*
X147233333Y-127054819D01*
X147233333Y-127054819D02*
X147090476Y-127102438D01*
X147090476Y-127102438D02*
X147042857Y-127150057D01*
X146709523Y-127054819D02*
X146090476Y-127054819D01*
X146090476Y-127054819D02*
X146423809Y-127435771D01*
X146423809Y-127435771D02*
X146280952Y-127435771D01*
X146280952Y-127435771D02*
X146185714Y-127483390D01*
X146185714Y-127483390D02*
X146138095Y-127531009D01*
X146138095Y-127531009D02*
X146090476Y-127626247D01*
X146090476Y-127626247D02*
X146090476Y-127864342D01*
X146090476Y-127864342D02*
X146138095Y-127959580D01*
X146138095Y-127959580D02*
X146185714Y-128007200D01*
X146185714Y-128007200D02*
X146280952Y-128054819D01*
X146280952Y-128054819D02*
X146566666Y-128054819D01*
X146566666Y-128054819D02*
X146661904Y-128007200D01*
X146661904Y-128007200D02*
X146709523Y-127959580D01*
X145614285Y-128054819D02*
X145423809Y-128054819D01*
X145423809Y-128054819D02*
X145328571Y-128007200D01*
X145328571Y-128007200D02*
X145280952Y-127959580D01*
X145280952Y-127959580D02*
X145185714Y-127816723D01*
X145185714Y-127816723D02*
X145138095Y-127626247D01*
X145138095Y-127626247D02*
X145138095Y-127245295D01*
X145138095Y-127245295D02*
X145185714Y-127150057D01*
X145185714Y-127150057D02*
X145233333Y-127102438D01*
X145233333Y-127102438D02*
X145328571Y-127054819D01*
X145328571Y-127054819D02*
X145519047Y-127054819D01*
X145519047Y-127054819D02*
X145614285Y-127102438D01*
X145614285Y-127102438D02*
X145661904Y-127150057D01*
X145661904Y-127150057D02*
X145709523Y-127245295D01*
X145709523Y-127245295D02*
X145709523Y-127483390D01*
X145709523Y-127483390D02*
X145661904Y-127578628D01*
X145661904Y-127578628D02*
X145614285Y-127626247D01*
X145614285Y-127626247D02*
X145519047Y-127673866D01*
X145519047Y-127673866D02*
X145328571Y-127673866D01*
X145328571Y-127673866D02*
X145233333Y-127626247D01*
X145233333Y-127626247D02*
X145185714Y-127578628D01*
X145185714Y-127578628D02*
X145138095Y-127483390D01*
X134942857Y-108889580D02*
X134990476Y-108937200D01*
X134990476Y-108937200D02*
X135133333Y-108984819D01*
X135133333Y-108984819D02*
X135228571Y-108984819D01*
X135228571Y-108984819D02*
X135371428Y-108937200D01*
X135371428Y-108937200D02*
X135466666Y-108841961D01*
X135466666Y-108841961D02*
X135514285Y-108746723D01*
X135514285Y-108746723D02*
X135561904Y-108556247D01*
X135561904Y-108556247D02*
X135561904Y-108413390D01*
X135561904Y-108413390D02*
X135514285Y-108222914D01*
X135514285Y-108222914D02*
X135466666Y-108127676D01*
X135466666Y-108127676D02*
X135371428Y-108032438D01*
X135371428Y-108032438D02*
X135228571Y-107984819D01*
X135228571Y-107984819D02*
X135133333Y-107984819D01*
X135133333Y-107984819D02*
X134990476Y-108032438D01*
X134990476Y-108032438D02*
X134942857Y-108080057D01*
X134561904Y-108080057D02*
X134514285Y-108032438D01*
X134514285Y-108032438D02*
X134419047Y-107984819D01*
X134419047Y-107984819D02*
X134180952Y-107984819D01*
X134180952Y-107984819D02*
X134085714Y-108032438D01*
X134085714Y-108032438D02*
X134038095Y-108080057D01*
X134038095Y-108080057D02*
X133990476Y-108175295D01*
X133990476Y-108175295D02*
X133990476Y-108270533D01*
X133990476Y-108270533D02*
X134038095Y-108413390D01*
X134038095Y-108413390D02*
X134609523Y-108984819D01*
X134609523Y-108984819D02*
X133990476Y-108984819D01*
X133133333Y-107984819D02*
X133323809Y-107984819D01*
X133323809Y-107984819D02*
X133419047Y-108032438D01*
X133419047Y-108032438D02*
X133466666Y-108080057D01*
X133466666Y-108080057D02*
X133561904Y-108222914D01*
X133561904Y-108222914D02*
X133609523Y-108413390D01*
X133609523Y-108413390D02*
X133609523Y-108794342D01*
X133609523Y-108794342D02*
X133561904Y-108889580D01*
X133561904Y-108889580D02*
X133514285Y-108937200D01*
X133514285Y-108937200D02*
X133419047Y-108984819D01*
X133419047Y-108984819D02*
X133228571Y-108984819D01*
X133228571Y-108984819D02*
X133133333Y-108937200D01*
X133133333Y-108937200D02*
X133085714Y-108889580D01*
X133085714Y-108889580D02*
X133038095Y-108794342D01*
X133038095Y-108794342D02*
X133038095Y-108556247D01*
X133038095Y-108556247D02*
X133085714Y-108461009D01*
X133085714Y-108461009D02*
X133133333Y-108413390D01*
X133133333Y-108413390D02*
X133228571Y-108365771D01*
X133228571Y-108365771D02*
X133419047Y-108365771D01*
X133419047Y-108365771D02*
X133514285Y-108413390D01*
X133514285Y-108413390D02*
X133561904Y-108461009D01*
X133561904Y-108461009D02*
X133609523Y-108556247D01*
X129242857Y-110684819D02*
X129576190Y-110208628D01*
X129814285Y-110684819D02*
X129814285Y-109684819D01*
X129814285Y-109684819D02*
X129433333Y-109684819D01*
X129433333Y-109684819D02*
X129338095Y-109732438D01*
X129338095Y-109732438D02*
X129290476Y-109780057D01*
X129290476Y-109780057D02*
X129242857Y-109875295D01*
X129242857Y-109875295D02*
X129242857Y-110018152D01*
X129242857Y-110018152D02*
X129290476Y-110113390D01*
X129290476Y-110113390D02*
X129338095Y-110161009D01*
X129338095Y-110161009D02*
X129433333Y-110208628D01*
X129433333Y-110208628D02*
X129814285Y-110208628D01*
X128861904Y-109780057D02*
X128814285Y-109732438D01*
X128814285Y-109732438D02*
X128719047Y-109684819D01*
X128719047Y-109684819D02*
X128480952Y-109684819D01*
X128480952Y-109684819D02*
X128385714Y-109732438D01*
X128385714Y-109732438D02*
X128338095Y-109780057D01*
X128338095Y-109780057D02*
X128290476Y-109875295D01*
X128290476Y-109875295D02*
X128290476Y-109970533D01*
X128290476Y-109970533D02*
X128338095Y-110113390D01*
X128338095Y-110113390D02*
X128909523Y-110684819D01*
X128909523Y-110684819D02*
X128290476Y-110684819D01*
X127671428Y-109684819D02*
X127576190Y-109684819D01*
X127576190Y-109684819D02*
X127480952Y-109732438D01*
X127480952Y-109732438D02*
X127433333Y-109780057D01*
X127433333Y-109780057D02*
X127385714Y-109875295D01*
X127385714Y-109875295D02*
X127338095Y-110065771D01*
X127338095Y-110065771D02*
X127338095Y-110303866D01*
X127338095Y-110303866D02*
X127385714Y-110494342D01*
X127385714Y-110494342D02*
X127433333Y-110589580D01*
X127433333Y-110589580D02*
X127480952Y-110637200D01*
X127480952Y-110637200D02*
X127576190Y-110684819D01*
X127576190Y-110684819D02*
X127671428Y-110684819D01*
X127671428Y-110684819D02*
X127766666Y-110637200D01*
X127766666Y-110637200D02*
X127814285Y-110589580D01*
X127814285Y-110589580D02*
X127861904Y-110494342D01*
X127861904Y-110494342D02*
X127909523Y-110303866D01*
X127909523Y-110303866D02*
X127909523Y-110065771D01*
X127909523Y-110065771D02*
X127861904Y-109875295D01*
X127861904Y-109875295D02*
X127814285Y-109780057D01*
X127814285Y-109780057D02*
X127766666Y-109732438D01*
X127766666Y-109732438D02*
X127671428Y-109684819D01*
X119459580Y-125057142D02*
X119507200Y-125009523D01*
X119507200Y-125009523D02*
X119554819Y-124866666D01*
X119554819Y-124866666D02*
X119554819Y-124771428D01*
X119554819Y-124771428D02*
X119507200Y-124628571D01*
X119507200Y-124628571D02*
X119411961Y-124533333D01*
X119411961Y-124533333D02*
X119316723Y-124485714D01*
X119316723Y-124485714D02*
X119126247Y-124438095D01*
X119126247Y-124438095D02*
X118983390Y-124438095D01*
X118983390Y-124438095D02*
X118792914Y-124485714D01*
X118792914Y-124485714D02*
X118697676Y-124533333D01*
X118697676Y-124533333D02*
X118602438Y-124628571D01*
X118602438Y-124628571D02*
X118554819Y-124771428D01*
X118554819Y-124771428D02*
X118554819Y-124866666D01*
X118554819Y-124866666D02*
X118602438Y-125009523D01*
X118602438Y-125009523D02*
X118650057Y-125057142D01*
X119554819Y-126009523D02*
X119554819Y-125438095D01*
X119554819Y-125723809D02*
X118554819Y-125723809D01*
X118554819Y-125723809D02*
X118697676Y-125628571D01*
X118697676Y-125628571D02*
X118792914Y-125533333D01*
X118792914Y-125533333D02*
X118840533Y-125438095D01*
X118650057Y-126390476D02*
X118602438Y-126438095D01*
X118602438Y-126438095D02*
X118554819Y-126533333D01*
X118554819Y-126533333D02*
X118554819Y-126771428D01*
X118554819Y-126771428D02*
X118602438Y-126866666D01*
X118602438Y-126866666D02*
X118650057Y-126914285D01*
X118650057Y-126914285D02*
X118745295Y-126961904D01*
X118745295Y-126961904D02*
X118840533Y-126961904D01*
X118840533Y-126961904D02*
X118983390Y-126914285D01*
X118983390Y-126914285D02*
X119554819Y-126342857D01*
X119554819Y-126342857D02*
X119554819Y-126961904D01*
X126042857Y-110509580D02*
X126090476Y-110557200D01*
X126090476Y-110557200D02*
X126233333Y-110604819D01*
X126233333Y-110604819D02*
X126328571Y-110604819D01*
X126328571Y-110604819D02*
X126471428Y-110557200D01*
X126471428Y-110557200D02*
X126566666Y-110461961D01*
X126566666Y-110461961D02*
X126614285Y-110366723D01*
X126614285Y-110366723D02*
X126661904Y-110176247D01*
X126661904Y-110176247D02*
X126661904Y-110033390D01*
X126661904Y-110033390D02*
X126614285Y-109842914D01*
X126614285Y-109842914D02*
X126566666Y-109747676D01*
X126566666Y-109747676D02*
X126471428Y-109652438D01*
X126471428Y-109652438D02*
X126328571Y-109604819D01*
X126328571Y-109604819D02*
X126233333Y-109604819D01*
X126233333Y-109604819D02*
X126090476Y-109652438D01*
X126090476Y-109652438D02*
X126042857Y-109700057D01*
X125090476Y-110604819D02*
X125661904Y-110604819D01*
X125376190Y-110604819D02*
X125376190Y-109604819D01*
X125376190Y-109604819D02*
X125471428Y-109747676D01*
X125471428Y-109747676D02*
X125566666Y-109842914D01*
X125566666Y-109842914D02*
X125661904Y-109890533D01*
X124519047Y-110033390D02*
X124614285Y-109985771D01*
X124614285Y-109985771D02*
X124661904Y-109938152D01*
X124661904Y-109938152D02*
X124709523Y-109842914D01*
X124709523Y-109842914D02*
X124709523Y-109795295D01*
X124709523Y-109795295D02*
X124661904Y-109700057D01*
X124661904Y-109700057D02*
X124614285Y-109652438D01*
X124614285Y-109652438D02*
X124519047Y-109604819D01*
X124519047Y-109604819D02*
X124328571Y-109604819D01*
X124328571Y-109604819D02*
X124233333Y-109652438D01*
X124233333Y-109652438D02*
X124185714Y-109700057D01*
X124185714Y-109700057D02*
X124138095Y-109795295D01*
X124138095Y-109795295D02*
X124138095Y-109842914D01*
X124138095Y-109842914D02*
X124185714Y-109938152D01*
X124185714Y-109938152D02*
X124233333Y-109985771D01*
X124233333Y-109985771D02*
X124328571Y-110033390D01*
X124328571Y-110033390D02*
X124519047Y-110033390D01*
X124519047Y-110033390D02*
X124614285Y-110081009D01*
X124614285Y-110081009D02*
X124661904Y-110128628D01*
X124661904Y-110128628D02*
X124709523Y-110223866D01*
X124709523Y-110223866D02*
X124709523Y-110414342D01*
X124709523Y-110414342D02*
X124661904Y-110509580D01*
X124661904Y-110509580D02*
X124614285Y-110557200D01*
X124614285Y-110557200D02*
X124519047Y-110604819D01*
X124519047Y-110604819D02*
X124328571Y-110604819D01*
X124328571Y-110604819D02*
X124233333Y-110557200D01*
X124233333Y-110557200D02*
X124185714Y-110509580D01*
X124185714Y-110509580D02*
X124138095Y-110414342D01*
X124138095Y-110414342D02*
X124138095Y-110223866D01*
X124138095Y-110223866D02*
X124185714Y-110128628D01*
X124185714Y-110128628D02*
X124233333Y-110081009D01*
X124233333Y-110081009D02*
X124328571Y-110033390D01*
X152189580Y-124757142D02*
X152237200Y-124709523D01*
X152237200Y-124709523D02*
X152284819Y-124566666D01*
X152284819Y-124566666D02*
X152284819Y-124471428D01*
X152284819Y-124471428D02*
X152237200Y-124328571D01*
X152237200Y-124328571D02*
X152141961Y-124233333D01*
X152141961Y-124233333D02*
X152046723Y-124185714D01*
X152046723Y-124185714D02*
X151856247Y-124138095D01*
X151856247Y-124138095D02*
X151713390Y-124138095D01*
X151713390Y-124138095D02*
X151522914Y-124185714D01*
X151522914Y-124185714D02*
X151427676Y-124233333D01*
X151427676Y-124233333D02*
X151332438Y-124328571D01*
X151332438Y-124328571D02*
X151284819Y-124471428D01*
X151284819Y-124471428D02*
X151284819Y-124566666D01*
X151284819Y-124566666D02*
X151332438Y-124709523D01*
X151332438Y-124709523D02*
X151380057Y-124757142D01*
X151284819Y-125090476D02*
X151284819Y-125709523D01*
X151284819Y-125709523D02*
X151665771Y-125376190D01*
X151665771Y-125376190D02*
X151665771Y-125519047D01*
X151665771Y-125519047D02*
X151713390Y-125614285D01*
X151713390Y-125614285D02*
X151761009Y-125661904D01*
X151761009Y-125661904D02*
X151856247Y-125709523D01*
X151856247Y-125709523D02*
X152094342Y-125709523D01*
X152094342Y-125709523D02*
X152189580Y-125661904D01*
X152189580Y-125661904D02*
X152237200Y-125614285D01*
X152237200Y-125614285D02*
X152284819Y-125519047D01*
X152284819Y-125519047D02*
X152284819Y-125233333D01*
X152284819Y-125233333D02*
X152237200Y-125138095D01*
X152237200Y-125138095D02*
X152189580Y-125090476D01*
X151284819Y-126566666D02*
X151284819Y-126376190D01*
X151284819Y-126376190D02*
X151332438Y-126280952D01*
X151332438Y-126280952D02*
X151380057Y-126233333D01*
X151380057Y-126233333D02*
X151522914Y-126138095D01*
X151522914Y-126138095D02*
X151713390Y-126090476D01*
X151713390Y-126090476D02*
X152094342Y-126090476D01*
X152094342Y-126090476D02*
X152189580Y-126138095D01*
X152189580Y-126138095D02*
X152237200Y-126185714D01*
X152237200Y-126185714D02*
X152284819Y-126280952D01*
X152284819Y-126280952D02*
X152284819Y-126471428D01*
X152284819Y-126471428D02*
X152237200Y-126566666D01*
X152237200Y-126566666D02*
X152189580Y-126614285D01*
X152189580Y-126614285D02*
X152094342Y-126661904D01*
X152094342Y-126661904D02*
X151856247Y-126661904D01*
X151856247Y-126661904D02*
X151761009Y-126614285D01*
X151761009Y-126614285D02*
X151713390Y-126566666D01*
X151713390Y-126566666D02*
X151665771Y-126471428D01*
X151665771Y-126471428D02*
X151665771Y-126280952D01*
X151665771Y-126280952D02*
X151713390Y-126185714D01*
X151713390Y-126185714D02*
X151761009Y-126138095D01*
X151761009Y-126138095D02*
X151856247Y-126090476D01*
X146892857Y-103459580D02*
X146940476Y-103507200D01*
X146940476Y-103507200D02*
X147083333Y-103554819D01*
X147083333Y-103554819D02*
X147178571Y-103554819D01*
X147178571Y-103554819D02*
X147321428Y-103507200D01*
X147321428Y-103507200D02*
X147416666Y-103411961D01*
X147416666Y-103411961D02*
X147464285Y-103316723D01*
X147464285Y-103316723D02*
X147511904Y-103126247D01*
X147511904Y-103126247D02*
X147511904Y-102983390D01*
X147511904Y-102983390D02*
X147464285Y-102792914D01*
X147464285Y-102792914D02*
X147416666Y-102697676D01*
X147416666Y-102697676D02*
X147321428Y-102602438D01*
X147321428Y-102602438D02*
X147178571Y-102554819D01*
X147178571Y-102554819D02*
X147083333Y-102554819D01*
X147083333Y-102554819D02*
X146940476Y-102602438D01*
X146940476Y-102602438D02*
X146892857Y-102650057D01*
X146511904Y-102650057D02*
X146464285Y-102602438D01*
X146464285Y-102602438D02*
X146369047Y-102554819D01*
X146369047Y-102554819D02*
X146130952Y-102554819D01*
X146130952Y-102554819D02*
X146035714Y-102602438D01*
X146035714Y-102602438D02*
X145988095Y-102650057D01*
X145988095Y-102650057D02*
X145940476Y-102745295D01*
X145940476Y-102745295D02*
X145940476Y-102840533D01*
X145940476Y-102840533D02*
X145988095Y-102983390D01*
X145988095Y-102983390D02*
X146559523Y-103554819D01*
X146559523Y-103554819D02*
X145940476Y-103554819D01*
X145607142Y-102554819D02*
X144988095Y-102554819D01*
X144988095Y-102554819D02*
X145321428Y-102935771D01*
X145321428Y-102935771D02*
X145178571Y-102935771D01*
X145178571Y-102935771D02*
X145083333Y-102983390D01*
X145083333Y-102983390D02*
X145035714Y-103031009D01*
X145035714Y-103031009D02*
X144988095Y-103126247D01*
X144988095Y-103126247D02*
X144988095Y-103364342D01*
X144988095Y-103364342D02*
X145035714Y-103459580D01*
X145035714Y-103459580D02*
X145083333Y-103507200D01*
X145083333Y-103507200D02*
X145178571Y-103554819D01*
X145178571Y-103554819D02*
X145464285Y-103554819D01*
X145464285Y-103554819D02*
X145559523Y-103507200D01*
X145559523Y-103507200D02*
X145607142Y-103459580D01*
X144042857Y-127354819D02*
X144376190Y-126878628D01*
X144614285Y-127354819D02*
X144614285Y-126354819D01*
X144614285Y-126354819D02*
X144233333Y-126354819D01*
X144233333Y-126354819D02*
X144138095Y-126402438D01*
X144138095Y-126402438D02*
X144090476Y-126450057D01*
X144090476Y-126450057D02*
X144042857Y-126545295D01*
X144042857Y-126545295D02*
X144042857Y-126688152D01*
X144042857Y-126688152D02*
X144090476Y-126783390D01*
X144090476Y-126783390D02*
X144138095Y-126831009D01*
X144138095Y-126831009D02*
X144233333Y-126878628D01*
X144233333Y-126878628D02*
X144614285Y-126878628D01*
X143661904Y-126450057D02*
X143614285Y-126402438D01*
X143614285Y-126402438D02*
X143519047Y-126354819D01*
X143519047Y-126354819D02*
X143280952Y-126354819D01*
X143280952Y-126354819D02*
X143185714Y-126402438D01*
X143185714Y-126402438D02*
X143138095Y-126450057D01*
X143138095Y-126450057D02*
X143090476Y-126545295D01*
X143090476Y-126545295D02*
X143090476Y-126640533D01*
X143090476Y-126640533D02*
X143138095Y-126783390D01*
X143138095Y-126783390D02*
X143709523Y-127354819D01*
X143709523Y-127354819D02*
X143090476Y-127354819D01*
X142614285Y-127354819D02*
X142423809Y-127354819D01*
X142423809Y-127354819D02*
X142328571Y-127307200D01*
X142328571Y-127307200D02*
X142280952Y-127259580D01*
X142280952Y-127259580D02*
X142185714Y-127116723D01*
X142185714Y-127116723D02*
X142138095Y-126926247D01*
X142138095Y-126926247D02*
X142138095Y-126545295D01*
X142138095Y-126545295D02*
X142185714Y-126450057D01*
X142185714Y-126450057D02*
X142233333Y-126402438D01*
X142233333Y-126402438D02*
X142328571Y-126354819D01*
X142328571Y-126354819D02*
X142519047Y-126354819D01*
X142519047Y-126354819D02*
X142614285Y-126402438D01*
X142614285Y-126402438D02*
X142661904Y-126450057D01*
X142661904Y-126450057D02*
X142709523Y-126545295D01*
X142709523Y-126545295D02*
X142709523Y-126783390D01*
X142709523Y-126783390D02*
X142661904Y-126878628D01*
X142661904Y-126878628D02*
X142614285Y-126926247D01*
X142614285Y-126926247D02*
X142519047Y-126973866D01*
X142519047Y-126973866D02*
X142328571Y-126973866D01*
X142328571Y-126973866D02*
X142233333Y-126926247D01*
X142233333Y-126926247D02*
X142185714Y-126878628D01*
X142185714Y-126878628D02*
X142138095Y-126783390D01*
X134739456Y-95503754D02*
X134638441Y-94931335D01*
X135143517Y-95099693D02*
X134436410Y-94392587D01*
X134436410Y-94392587D02*
X134167036Y-94661961D01*
X134167036Y-94661961D02*
X134133364Y-94762976D01*
X134133364Y-94762976D02*
X134133364Y-94830319D01*
X134133364Y-94830319D02*
X134167036Y-94931335D01*
X134167036Y-94931335D02*
X134268051Y-95032350D01*
X134268051Y-95032350D02*
X134369067Y-95066022D01*
X134369067Y-95066022D02*
X134436410Y-95066022D01*
X134436410Y-95066022D02*
X134537425Y-95032350D01*
X134537425Y-95032350D02*
X134806799Y-94762976D01*
X133796647Y-95032350D02*
X133358914Y-95470083D01*
X133358914Y-95470083D02*
X133863990Y-95503754D01*
X133863990Y-95503754D02*
X133762975Y-95604770D01*
X133762975Y-95604770D02*
X133729303Y-95705785D01*
X133729303Y-95705785D02*
X133729303Y-95773128D01*
X133729303Y-95773128D02*
X133762975Y-95874144D01*
X133762975Y-95874144D02*
X133931334Y-96042502D01*
X133931334Y-96042502D02*
X134032349Y-96076174D01*
X134032349Y-96076174D02*
X134099693Y-96076174D01*
X134099693Y-96076174D02*
X134200708Y-96042502D01*
X134200708Y-96042502D02*
X134402738Y-95840472D01*
X134402738Y-95840472D02*
X134436410Y-95739457D01*
X134436410Y-95739457D02*
X134436410Y-95672113D01*
X134366666Y-102809580D02*
X134414285Y-102857200D01*
X134414285Y-102857200D02*
X134557142Y-102904819D01*
X134557142Y-102904819D02*
X134652380Y-102904819D01*
X134652380Y-102904819D02*
X134795237Y-102857200D01*
X134795237Y-102857200D02*
X134890475Y-102761961D01*
X134890475Y-102761961D02*
X134938094Y-102666723D01*
X134938094Y-102666723D02*
X134985713Y-102476247D01*
X134985713Y-102476247D02*
X134985713Y-102333390D01*
X134985713Y-102333390D02*
X134938094Y-102142914D01*
X134938094Y-102142914D02*
X134890475Y-102047676D01*
X134890475Y-102047676D02*
X134795237Y-101952438D01*
X134795237Y-101952438D02*
X134652380Y-101904819D01*
X134652380Y-101904819D02*
X134557142Y-101904819D01*
X134557142Y-101904819D02*
X134414285Y-101952438D01*
X134414285Y-101952438D02*
X134366666Y-102000057D01*
X133414285Y-102904819D02*
X133985713Y-102904819D01*
X133699999Y-102904819D02*
X133699999Y-101904819D01*
X133699999Y-101904819D02*
X133795237Y-102047676D01*
X133795237Y-102047676D02*
X133890475Y-102142914D01*
X133890475Y-102142914D02*
X133985713Y-102190533D01*
X119266666Y-129954819D02*
X119599999Y-129478628D01*
X119838094Y-129954819D02*
X119838094Y-128954819D01*
X119838094Y-128954819D02*
X119457142Y-128954819D01*
X119457142Y-128954819D02*
X119361904Y-129002438D01*
X119361904Y-129002438D02*
X119314285Y-129050057D01*
X119314285Y-129050057D02*
X119266666Y-129145295D01*
X119266666Y-129145295D02*
X119266666Y-129288152D01*
X119266666Y-129288152D02*
X119314285Y-129383390D01*
X119314285Y-129383390D02*
X119361904Y-129431009D01*
X119361904Y-129431009D02*
X119457142Y-129478628D01*
X119457142Y-129478628D02*
X119838094Y-129478628D01*
X118695237Y-129383390D02*
X118790475Y-129335771D01*
X118790475Y-129335771D02*
X118838094Y-129288152D01*
X118838094Y-129288152D02*
X118885713Y-129192914D01*
X118885713Y-129192914D02*
X118885713Y-129145295D01*
X118885713Y-129145295D02*
X118838094Y-129050057D01*
X118838094Y-129050057D02*
X118790475Y-129002438D01*
X118790475Y-129002438D02*
X118695237Y-128954819D01*
X118695237Y-128954819D02*
X118504761Y-128954819D01*
X118504761Y-128954819D02*
X118409523Y-129002438D01*
X118409523Y-129002438D02*
X118361904Y-129050057D01*
X118361904Y-129050057D02*
X118314285Y-129145295D01*
X118314285Y-129145295D02*
X118314285Y-129192914D01*
X118314285Y-129192914D02*
X118361904Y-129288152D01*
X118361904Y-129288152D02*
X118409523Y-129335771D01*
X118409523Y-129335771D02*
X118504761Y-129383390D01*
X118504761Y-129383390D02*
X118695237Y-129383390D01*
X118695237Y-129383390D02*
X118790475Y-129431009D01*
X118790475Y-129431009D02*
X118838094Y-129478628D01*
X118838094Y-129478628D02*
X118885713Y-129573866D01*
X118885713Y-129573866D02*
X118885713Y-129764342D01*
X118885713Y-129764342D02*
X118838094Y-129859580D01*
X118838094Y-129859580D02*
X118790475Y-129907200D01*
X118790475Y-129907200D02*
X118695237Y-129954819D01*
X118695237Y-129954819D02*
X118504761Y-129954819D01*
X118504761Y-129954819D02*
X118409523Y-129907200D01*
X118409523Y-129907200D02*
X118361904Y-129859580D01*
X118361904Y-129859580D02*
X118314285Y-129764342D01*
X118314285Y-129764342D02*
X118314285Y-129573866D01*
X118314285Y-129573866D02*
X118361904Y-129478628D01*
X118361904Y-129478628D02*
X118409523Y-129431009D01*
X118409523Y-129431009D02*
X118504761Y-129383390D01*
X138454819Y-128757142D02*
X137978628Y-128423809D01*
X138454819Y-128185714D02*
X137454819Y-128185714D01*
X137454819Y-128185714D02*
X137454819Y-128566666D01*
X137454819Y-128566666D02*
X137502438Y-128661904D01*
X137502438Y-128661904D02*
X137550057Y-128709523D01*
X137550057Y-128709523D02*
X137645295Y-128757142D01*
X137645295Y-128757142D02*
X137788152Y-128757142D01*
X137788152Y-128757142D02*
X137883390Y-128709523D01*
X137883390Y-128709523D02*
X137931009Y-128661904D01*
X137931009Y-128661904D02*
X137978628Y-128566666D01*
X137978628Y-128566666D02*
X137978628Y-128185714D01*
X137550057Y-129138095D02*
X137502438Y-129185714D01*
X137502438Y-129185714D02*
X137454819Y-129280952D01*
X137454819Y-129280952D02*
X137454819Y-129519047D01*
X137454819Y-129519047D02*
X137502438Y-129614285D01*
X137502438Y-129614285D02*
X137550057Y-129661904D01*
X137550057Y-129661904D02*
X137645295Y-129709523D01*
X137645295Y-129709523D02*
X137740533Y-129709523D01*
X137740533Y-129709523D02*
X137883390Y-129661904D01*
X137883390Y-129661904D02*
X138454819Y-129090476D01*
X138454819Y-129090476D02*
X138454819Y-129709523D01*
X137454819Y-130042857D02*
X137454819Y-130709523D01*
X137454819Y-130709523D02*
X138454819Y-130280952D01*
X150142857Y-123459580D02*
X150190476Y-123507200D01*
X150190476Y-123507200D02*
X150333333Y-123554819D01*
X150333333Y-123554819D02*
X150428571Y-123554819D01*
X150428571Y-123554819D02*
X150571428Y-123507200D01*
X150571428Y-123507200D02*
X150666666Y-123411961D01*
X150666666Y-123411961D02*
X150714285Y-123316723D01*
X150714285Y-123316723D02*
X150761904Y-123126247D01*
X150761904Y-123126247D02*
X150761904Y-122983390D01*
X150761904Y-122983390D02*
X150714285Y-122792914D01*
X150714285Y-122792914D02*
X150666666Y-122697676D01*
X150666666Y-122697676D02*
X150571428Y-122602438D01*
X150571428Y-122602438D02*
X150428571Y-122554819D01*
X150428571Y-122554819D02*
X150333333Y-122554819D01*
X150333333Y-122554819D02*
X150190476Y-122602438D01*
X150190476Y-122602438D02*
X150142857Y-122650057D01*
X149809523Y-122554819D02*
X149190476Y-122554819D01*
X149190476Y-122554819D02*
X149523809Y-122935771D01*
X149523809Y-122935771D02*
X149380952Y-122935771D01*
X149380952Y-122935771D02*
X149285714Y-122983390D01*
X149285714Y-122983390D02*
X149238095Y-123031009D01*
X149238095Y-123031009D02*
X149190476Y-123126247D01*
X149190476Y-123126247D02*
X149190476Y-123364342D01*
X149190476Y-123364342D02*
X149238095Y-123459580D01*
X149238095Y-123459580D02*
X149285714Y-123507200D01*
X149285714Y-123507200D02*
X149380952Y-123554819D01*
X149380952Y-123554819D02*
X149666666Y-123554819D01*
X149666666Y-123554819D02*
X149761904Y-123507200D01*
X149761904Y-123507200D02*
X149809523Y-123459580D01*
X148857142Y-122554819D02*
X148190476Y-122554819D01*
X148190476Y-122554819D02*
X148619047Y-123554819D01*
X145561904Y-108606819D02*
X144990476Y-108606819D01*
X145276190Y-109606819D02*
X145276190Y-108606819D01*
X144657142Y-109606819D02*
X144657142Y-108606819D01*
X144657142Y-108606819D02*
X144276190Y-108606819D01*
X144276190Y-108606819D02*
X144180952Y-108654438D01*
X144180952Y-108654438D02*
X144133333Y-108702057D01*
X144133333Y-108702057D02*
X144085714Y-108797295D01*
X144085714Y-108797295D02*
X144085714Y-108940152D01*
X144085714Y-108940152D02*
X144133333Y-109035390D01*
X144133333Y-109035390D02*
X144180952Y-109083009D01*
X144180952Y-109083009D02*
X144276190Y-109130628D01*
X144276190Y-109130628D02*
X144657142Y-109130628D01*
X143180952Y-108606819D02*
X143657142Y-108606819D01*
X143657142Y-108606819D02*
X143704761Y-109083009D01*
X143704761Y-109083009D02*
X143657142Y-109035390D01*
X143657142Y-109035390D02*
X143561904Y-108987771D01*
X143561904Y-108987771D02*
X143323809Y-108987771D01*
X143323809Y-108987771D02*
X143228571Y-109035390D01*
X143228571Y-109035390D02*
X143180952Y-109083009D01*
X143180952Y-109083009D02*
X143133333Y-109178247D01*
X143133333Y-109178247D02*
X143133333Y-109416342D01*
X143133333Y-109416342D02*
X143180952Y-109511580D01*
X143180952Y-109511580D02*
X143228571Y-109559200D01*
X143228571Y-109559200D02*
X143323809Y-109606819D01*
X143323809Y-109606819D02*
X143561904Y-109606819D01*
X143561904Y-109606819D02*
X143657142Y-109559200D01*
X143657142Y-109559200D02*
X143704761Y-109511580D01*
X111154819Y-125033333D02*
X110678628Y-124700000D01*
X111154819Y-124461905D02*
X110154819Y-124461905D01*
X110154819Y-124461905D02*
X110154819Y-124842857D01*
X110154819Y-124842857D02*
X110202438Y-124938095D01*
X110202438Y-124938095D02*
X110250057Y-124985714D01*
X110250057Y-124985714D02*
X110345295Y-125033333D01*
X110345295Y-125033333D02*
X110488152Y-125033333D01*
X110488152Y-125033333D02*
X110583390Y-124985714D01*
X110583390Y-124985714D02*
X110631009Y-124938095D01*
X110631009Y-124938095D02*
X110678628Y-124842857D01*
X110678628Y-124842857D02*
X110678628Y-124461905D01*
X110250057Y-125414286D02*
X110202438Y-125461905D01*
X110202438Y-125461905D02*
X110154819Y-125557143D01*
X110154819Y-125557143D02*
X110154819Y-125795238D01*
X110154819Y-125795238D02*
X110202438Y-125890476D01*
X110202438Y-125890476D02*
X110250057Y-125938095D01*
X110250057Y-125938095D02*
X110345295Y-125985714D01*
X110345295Y-125985714D02*
X110440533Y-125985714D01*
X110440533Y-125985714D02*
X110583390Y-125938095D01*
X110583390Y-125938095D02*
X111154819Y-125366667D01*
X111154819Y-125366667D02*
X111154819Y-125985714D01*
X132033333Y-102431009D02*
X132366666Y-102431009D01*
X132366666Y-102954819D02*
X132366666Y-101954819D01*
X132366666Y-101954819D02*
X131890476Y-101954819D01*
X131176190Y-102431009D02*
X131033333Y-102478628D01*
X131033333Y-102478628D02*
X130985714Y-102526247D01*
X130985714Y-102526247D02*
X130938095Y-102621485D01*
X130938095Y-102621485D02*
X130938095Y-102764342D01*
X130938095Y-102764342D02*
X130985714Y-102859580D01*
X130985714Y-102859580D02*
X131033333Y-102907200D01*
X131033333Y-102907200D02*
X131128571Y-102954819D01*
X131128571Y-102954819D02*
X131509523Y-102954819D01*
X131509523Y-102954819D02*
X131509523Y-101954819D01*
X131509523Y-101954819D02*
X131176190Y-101954819D01*
X131176190Y-101954819D02*
X131080952Y-102002438D01*
X131080952Y-102002438D02*
X131033333Y-102050057D01*
X131033333Y-102050057D02*
X130985714Y-102145295D01*
X130985714Y-102145295D02*
X130985714Y-102240533D01*
X130985714Y-102240533D02*
X131033333Y-102335771D01*
X131033333Y-102335771D02*
X131080952Y-102383390D01*
X131080952Y-102383390D02*
X131176190Y-102431009D01*
X131176190Y-102431009D02*
X131509523Y-102431009D01*
X129985714Y-102954819D02*
X130557142Y-102954819D01*
X130271428Y-102954819D02*
X130271428Y-101954819D01*
X130271428Y-101954819D02*
X130366666Y-102097676D01*
X130366666Y-102097676D02*
X130461904Y-102192914D01*
X130461904Y-102192914D02*
X130557142Y-102240533D01*
X150142857Y-122154819D02*
X150476190Y-121678628D01*
X150714285Y-122154819D02*
X150714285Y-121154819D01*
X150714285Y-121154819D02*
X150333333Y-121154819D01*
X150333333Y-121154819D02*
X150238095Y-121202438D01*
X150238095Y-121202438D02*
X150190476Y-121250057D01*
X150190476Y-121250057D02*
X150142857Y-121345295D01*
X150142857Y-121345295D02*
X150142857Y-121488152D01*
X150142857Y-121488152D02*
X150190476Y-121583390D01*
X150190476Y-121583390D02*
X150238095Y-121631009D01*
X150238095Y-121631009D02*
X150333333Y-121678628D01*
X150333333Y-121678628D02*
X150714285Y-121678628D01*
X149809523Y-121154819D02*
X149190476Y-121154819D01*
X149190476Y-121154819D02*
X149523809Y-121535771D01*
X149523809Y-121535771D02*
X149380952Y-121535771D01*
X149380952Y-121535771D02*
X149285714Y-121583390D01*
X149285714Y-121583390D02*
X149238095Y-121631009D01*
X149238095Y-121631009D02*
X149190476Y-121726247D01*
X149190476Y-121726247D02*
X149190476Y-121964342D01*
X149190476Y-121964342D02*
X149238095Y-122059580D01*
X149238095Y-122059580D02*
X149285714Y-122107200D01*
X149285714Y-122107200D02*
X149380952Y-122154819D01*
X149380952Y-122154819D02*
X149666666Y-122154819D01*
X149666666Y-122154819D02*
X149761904Y-122107200D01*
X149761904Y-122107200D02*
X149809523Y-122059580D01*
X148333333Y-121488152D02*
X148333333Y-122154819D01*
X148571428Y-121107200D02*
X148809523Y-121821485D01*
X148809523Y-121821485D02*
X148190476Y-121821485D01*
X122354819Y-122061905D02*
X121354819Y-122061905D01*
X121354819Y-122061905D02*
X121354819Y-122300000D01*
X121354819Y-122300000D02*
X121402438Y-122442857D01*
X121402438Y-122442857D02*
X121497676Y-122538095D01*
X121497676Y-122538095D02*
X121592914Y-122585714D01*
X121592914Y-122585714D02*
X121783390Y-122633333D01*
X121783390Y-122633333D02*
X121926247Y-122633333D01*
X121926247Y-122633333D02*
X122116723Y-122585714D01*
X122116723Y-122585714D02*
X122211961Y-122538095D01*
X122211961Y-122538095D02*
X122307200Y-122442857D01*
X122307200Y-122442857D02*
X122354819Y-122300000D01*
X122354819Y-122300000D02*
X122354819Y-122061905D01*
X121688152Y-123490476D02*
X122354819Y-123490476D01*
X121307200Y-123252381D02*
X122021485Y-123014286D01*
X122021485Y-123014286D02*
X122021485Y-123633333D01*
X135059580Y-118757142D02*
X135107200Y-118709523D01*
X135107200Y-118709523D02*
X135154819Y-118566666D01*
X135154819Y-118566666D02*
X135154819Y-118471428D01*
X135154819Y-118471428D02*
X135107200Y-118328571D01*
X135107200Y-118328571D02*
X135011961Y-118233333D01*
X135011961Y-118233333D02*
X134916723Y-118185714D01*
X134916723Y-118185714D02*
X134726247Y-118138095D01*
X134726247Y-118138095D02*
X134583390Y-118138095D01*
X134583390Y-118138095D02*
X134392914Y-118185714D01*
X134392914Y-118185714D02*
X134297676Y-118233333D01*
X134297676Y-118233333D02*
X134202438Y-118328571D01*
X134202438Y-118328571D02*
X134154819Y-118471428D01*
X134154819Y-118471428D02*
X134154819Y-118566666D01*
X134154819Y-118566666D02*
X134202438Y-118709523D01*
X134202438Y-118709523D02*
X134250057Y-118757142D01*
X134250057Y-119138095D02*
X134202438Y-119185714D01*
X134202438Y-119185714D02*
X134154819Y-119280952D01*
X134154819Y-119280952D02*
X134154819Y-119519047D01*
X134154819Y-119519047D02*
X134202438Y-119614285D01*
X134202438Y-119614285D02*
X134250057Y-119661904D01*
X134250057Y-119661904D02*
X134345295Y-119709523D01*
X134345295Y-119709523D02*
X134440533Y-119709523D01*
X134440533Y-119709523D02*
X134583390Y-119661904D01*
X134583390Y-119661904D02*
X135154819Y-119090476D01*
X135154819Y-119090476D02*
X135154819Y-119709523D01*
X134154819Y-120042857D02*
X134154819Y-120709523D01*
X134154819Y-120709523D02*
X135154819Y-120280952D01*
X124359580Y-123957142D02*
X124407200Y-123909523D01*
X124407200Y-123909523D02*
X124454819Y-123766666D01*
X124454819Y-123766666D02*
X124454819Y-123671428D01*
X124454819Y-123671428D02*
X124407200Y-123528571D01*
X124407200Y-123528571D02*
X124311961Y-123433333D01*
X124311961Y-123433333D02*
X124216723Y-123385714D01*
X124216723Y-123385714D02*
X124026247Y-123338095D01*
X124026247Y-123338095D02*
X123883390Y-123338095D01*
X123883390Y-123338095D02*
X123692914Y-123385714D01*
X123692914Y-123385714D02*
X123597676Y-123433333D01*
X123597676Y-123433333D02*
X123502438Y-123528571D01*
X123502438Y-123528571D02*
X123454819Y-123671428D01*
X123454819Y-123671428D02*
X123454819Y-123766666D01*
X123454819Y-123766666D02*
X123502438Y-123909523D01*
X123502438Y-123909523D02*
X123550057Y-123957142D01*
X123454819Y-124290476D02*
X123454819Y-124909523D01*
X123454819Y-124909523D02*
X123835771Y-124576190D01*
X123835771Y-124576190D02*
X123835771Y-124719047D01*
X123835771Y-124719047D02*
X123883390Y-124814285D01*
X123883390Y-124814285D02*
X123931009Y-124861904D01*
X123931009Y-124861904D02*
X124026247Y-124909523D01*
X124026247Y-124909523D02*
X124264342Y-124909523D01*
X124264342Y-124909523D02*
X124359580Y-124861904D01*
X124359580Y-124861904D02*
X124407200Y-124814285D01*
X124407200Y-124814285D02*
X124454819Y-124719047D01*
X124454819Y-124719047D02*
X124454819Y-124433333D01*
X124454819Y-124433333D02*
X124407200Y-124338095D01*
X124407200Y-124338095D02*
X124359580Y-124290476D01*
X123883390Y-125480952D02*
X123835771Y-125385714D01*
X123835771Y-125385714D02*
X123788152Y-125338095D01*
X123788152Y-125338095D02*
X123692914Y-125290476D01*
X123692914Y-125290476D02*
X123645295Y-125290476D01*
X123645295Y-125290476D02*
X123550057Y-125338095D01*
X123550057Y-125338095D02*
X123502438Y-125385714D01*
X123502438Y-125385714D02*
X123454819Y-125480952D01*
X123454819Y-125480952D02*
X123454819Y-125671428D01*
X123454819Y-125671428D02*
X123502438Y-125766666D01*
X123502438Y-125766666D02*
X123550057Y-125814285D01*
X123550057Y-125814285D02*
X123645295Y-125861904D01*
X123645295Y-125861904D02*
X123692914Y-125861904D01*
X123692914Y-125861904D02*
X123788152Y-125814285D01*
X123788152Y-125814285D02*
X123835771Y-125766666D01*
X123835771Y-125766666D02*
X123883390Y-125671428D01*
X123883390Y-125671428D02*
X123883390Y-125480952D01*
X123883390Y-125480952D02*
X123931009Y-125385714D01*
X123931009Y-125385714D02*
X123978628Y-125338095D01*
X123978628Y-125338095D02*
X124073866Y-125290476D01*
X124073866Y-125290476D02*
X124264342Y-125290476D01*
X124264342Y-125290476D02*
X124359580Y-125338095D01*
X124359580Y-125338095D02*
X124407200Y-125385714D01*
X124407200Y-125385714D02*
X124454819Y-125480952D01*
X124454819Y-125480952D02*
X124454819Y-125671428D01*
X124454819Y-125671428D02*
X124407200Y-125766666D01*
X124407200Y-125766666D02*
X124359580Y-125814285D01*
X124359580Y-125814285D02*
X124264342Y-125861904D01*
X124264342Y-125861904D02*
X124073866Y-125861904D01*
X124073866Y-125861904D02*
X123978628Y-125814285D01*
X123978628Y-125814285D02*
X123931009Y-125766666D01*
X123931009Y-125766666D02*
X123883390Y-125671428D01*
X131192857Y-107409580D02*
X131240476Y-107457200D01*
X131240476Y-107457200D02*
X131383333Y-107504819D01*
X131383333Y-107504819D02*
X131478571Y-107504819D01*
X131478571Y-107504819D02*
X131621428Y-107457200D01*
X131621428Y-107457200D02*
X131716666Y-107361961D01*
X131716666Y-107361961D02*
X131764285Y-107266723D01*
X131764285Y-107266723D02*
X131811904Y-107076247D01*
X131811904Y-107076247D02*
X131811904Y-106933390D01*
X131811904Y-106933390D02*
X131764285Y-106742914D01*
X131764285Y-106742914D02*
X131716666Y-106647676D01*
X131716666Y-106647676D02*
X131621428Y-106552438D01*
X131621428Y-106552438D02*
X131478571Y-106504819D01*
X131478571Y-106504819D02*
X131383333Y-106504819D01*
X131383333Y-106504819D02*
X131240476Y-106552438D01*
X131240476Y-106552438D02*
X131192857Y-106600057D01*
X130240476Y-107504819D02*
X130811904Y-107504819D01*
X130526190Y-107504819D02*
X130526190Y-106504819D01*
X130526190Y-106504819D02*
X130621428Y-106647676D01*
X130621428Y-106647676D02*
X130716666Y-106742914D01*
X130716666Y-106742914D02*
X130811904Y-106790533D01*
X129764285Y-107504819D02*
X129573809Y-107504819D01*
X129573809Y-107504819D02*
X129478571Y-107457200D01*
X129478571Y-107457200D02*
X129430952Y-107409580D01*
X129430952Y-107409580D02*
X129335714Y-107266723D01*
X129335714Y-107266723D02*
X129288095Y-107076247D01*
X129288095Y-107076247D02*
X129288095Y-106695295D01*
X129288095Y-106695295D02*
X129335714Y-106600057D01*
X129335714Y-106600057D02*
X129383333Y-106552438D01*
X129383333Y-106552438D02*
X129478571Y-106504819D01*
X129478571Y-106504819D02*
X129669047Y-106504819D01*
X129669047Y-106504819D02*
X129764285Y-106552438D01*
X129764285Y-106552438D02*
X129811904Y-106600057D01*
X129811904Y-106600057D02*
X129859523Y-106695295D01*
X129859523Y-106695295D02*
X129859523Y-106933390D01*
X129859523Y-106933390D02*
X129811904Y-107028628D01*
X129811904Y-107028628D02*
X129764285Y-107076247D01*
X129764285Y-107076247D02*
X129669047Y-107123866D01*
X129669047Y-107123866D02*
X129478571Y-107123866D01*
X129478571Y-107123866D02*
X129383333Y-107076247D01*
X129383333Y-107076247D02*
X129335714Y-107028628D01*
X129335714Y-107028628D02*
X129288095Y-106933390D01*
X111054819Y-129833333D02*
X110578628Y-129500000D01*
X111054819Y-129261905D02*
X110054819Y-129261905D01*
X110054819Y-129261905D02*
X110054819Y-129642857D01*
X110054819Y-129642857D02*
X110102438Y-129738095D01*
X110102438Y-129738095D02*
X110150057Y-129785714D01*
X110150057Y-129785714D02*
X110245295Y-129833333D01*
X110245295Y-129833333D02*
X110388152Y-129833333D01*
X110388152Y-129833333D02*
X110483390Y-129785714D01*
X110483390Y-129785714D02*
X110531009Y-129738095D01*
X110531009Y-129738095D02*
X110578628Y-129642857D01*
X110578628Y-129642857D02*
X110578628Y-129261905D01*
X110054819Y-130166667D02*
X110054819Y-130833333D01*
X110054819Y-130833333D02*
X111054819Y-130404762D01*
X120642857Y-119854819D02*
X120976190Y-119378628D01*
X121214285Y-119854819D02*
X121214285Y-118854819D01*
X121214285Y-118854819D02*
X120833333Y-118854819D01*
X120833333Y-118854819D02*
X120738095Y-118902438D01*
X120738095Y-118902438D02*
X120690476Y-118950057D01*
X120690476Y-118950057D02*
X120642857Y-119045295D01*
X120642857Y-119045295D02*
X120642857Y-119188152D01*
X120642857Y-119188152D02*
X120690476Y-119283390D01*
X120690476Y-119283390D02*
X120738095Y-119331009D01*
X120738095Y-119331009D02*
X120833333Y-119378628D01*
X120833333Y-119378628D02*
X121214285Y-119378628D01*
X120261904Y-118950057D02*
X120214285Y-118902438D01*
X120214285Y-118902438D02*
X120119047Y-118854819D01*
X120119047Y-118854819D02*
X119880952Y-118854819D01*
X119880952Y-118854819D02*
X119785714Y-118902438D01*
X119785714Y-118902438D02*
X119738095Y-118950057D01*
X119738095Y-118950057D02*
X119690476Y-119045295D01*
X119690476Y-119045295D02*
X119690476Y-119140533D01*
X119690476Y-119140533D02*
X119738095Y-119283390D01*
X119738095Y-119283390D02*
X120309523Y-119854819D01*
X120309523Y-119854819D02*
X119690476Y-119854819D01*
X119119047Y-119283390D02*
X119214285Y-119235771D01*
X119214285Y-119235771D02*
X119261904Y-119188152D01*
X119261904Y-119188152D02*
X119309523Y-119092914D01*
X119309523Y-119092914D02*
X119309523Y-119045295D01*
X119309523Y-119045295D02*
X119261904Y-118950057D01*
X119261904Y-118950057D02*
X119214285Y-118902438D01*
X119214285Y-118902438D02*
X119119047Y-118854819D01*
X119119047Y-118854819D02*
X118928571Y-118854819D01*
X118928571Y-118854819D02*
X118833333Y-118902438D01*
X118833333Y-118902438D02*
X118785714Y-118950057D01*
X118785714Y-118950057D02*
X118738095Y-119045295D01*
X118738095Y-119045295D02*
X118738095Y-119092914D01*
X118738095Y-119092914D02*
X118785714Y-119188152D01*
X118785714Y-119188152D02*
X118833333Y-119235771D01*
X118833333Y-119235771D02*
X118928571Y-119283390D01*
X118928571Y-119283390D02*
X119119047Y-119283390D01*
X119119047Y-119283390D02*
X119214285Y-119331009D01*
X119214285Y-119331009D02*
X119261904Y-119378628D01*
X119261904Y-119378628D02*
X119309523Y-119473866D01*
X119309523Y-119473866D02*
X119309523Y-119664342D01*
X119309523Y-119664342D02*
X119261904Y-119759580D01*
X119261904Y-119759580D02*
X119214285Y-119807200D01*
X119214285Y-119807200D02*
X119119047Y-119854819D01*
X119119047Y-119854819D02*
X118928571Y-119854819D01*
X118928571Y-119854819D02*
X118833333Y-119807200D01*
X118833333Y-119807200D02*
X118785714Y-119759580D01*
X118785714Y-119759580D02*
X118738095Y-119664342D01*
X118738095Y-119664342D02*
X118738095Y-119473866D01*
X118738095Y-119473866D02*
X118785714Y-119378628D01*
X118785714Y-119378628D02*
X118833333Y-119331009D01*
X118833333Y-119331009D02*
X118928571Y-119283390D01*
X138661904Y-118054819D02*
X138661904Y-118864342D01*
X138661904Y-118864342D02*
X138614285Y-118959580D01*
X138614285Y-118959580D02*
X138566666Y-119007200D01*
X138566666Y-119007200D02*
X138471428Y-119054819D01*
X138471428Y-119054819D02*
X138280952Y-119054819D01*
X138280952Y-119054819D02*
X138185714Y-119007200D01*
X138185714Y-119007200D02*
X138138095Y-118959580D01*
X138138095Y-118959580D02*
X138090476Y-118864342D01*
X138090476Y-118864342D02*
X138090476Y-118054819D01*
X137709523Y-118054819D02*
X137090476Y-118054819D01*
X137090476Y-118054819D02*
X137423809Y-118435771D01*
X137423809Y-118435771D02*
X137280952Y-118435771D01*
X137280952Y-118435771D02*
X137185714Y-118483390D01*
X137185714Y-118483390D02*
X137138095Y-118531009D01*
X137138095Y-118531009D02*
X137090476Y-118626247D01*
X137090476Y-118626247D02*
X137090476Y-118864342D01*
X137090476Y-118864342D02*
X137138095Y-118959580D01*
X137138095Y-118959580D02*
X137185714Y-119007200D01*
X137185714Y-119007200D02*
X137280952Y-119054819D01*
X137280952Y-119054819D02*
X137566666Y-119054819D01*
X137566666Y-119054819D02*
X137661904Y-119007200D01*
X137661904Y-119007200D02*
X137709523Y-118959580D01*
X140768599Y-120204504D02*
X140768599Y-120442599D01*
X141006694Y-120347361D02*
X140768599Y-120442599D01*
X140768599Y-120442599D02*
X140530504Y-120347361D01*
X140911456Y-120633075D02*
X140768599Y-120442599D01*
X140768599Y-120442599D02*
X140625742Y-120633075D01*
X131261904Y-123954819D02*
X131261904Y-124764342D01*
X131261904Y-124764342D02*
X131214285Y-124859580D01*
X131214285Y-124859580D02*
X131166666Y-124907200D01*
X131166666Y-124907200D02*
X131071428Y-124954819D01*
X131071428Y-124954819D02*
X130880952Y-124954819D01*
X130880952Y-124954819D02*
X130785714Y-124907200D01*
X130785714Y-124907200D02*
X130738095Y-124859580D01*
X130738095Y-124859580D02*
X130690476Y-124764342D01*
X130690476Y-124764342D02*
X130690476Y-123954819D01*
X130261904Y-124050057D02*
X130214285Y-124002438D01*
X130214285Y-124002438D02*
X130119047Y-123954819D01*
X130119047Y-123954819D02*
X129880952Y-123954819D01*
X129880952Y-123954819D02*
X129785714Y-124002438D01*
X129785714Y-124002438D02*
X129738095Y-124050057D01*
X129738095Y-124050057D02*
X129690476Y-124145295D01*
X129690476Y-124145295D02*
X129690476Y-124240533D01*
X129690476Y-124240533D02*
X129738095Y-124383390D01*
X129738095Y-124383390D02*
X130309523Y-124954819D01*
X130309523Y-124954819D02*
X129690476Y-124954819D01*
X127334819Y-104007142D02*
X126858628Y-103673809D01*
X127334819Y-103435714D02*
X126334819Y-103435714D01*
X126334819Y-103435714D02*
X126334819Y-103816666D01*
X126334819Y-103816666D02*
X126382438Y-103911904D01*
X126382438Y-103911904D02*
X126430057Y-103959523D01*
X126430057Y-103959523D02*
X126525295Y-104007142D01*
X126525295Y-104007142D02*
X126668152Y-104007142D01*
X126668152Y-104007142D02*
X126763390Y-103959523D01*
X126763390Y-103959523D02*
X126811009Y-103911904D01*
X126811009Y-103911904D02*
X126858628Y-103816666D01*
X126858628Y-103816666D02*
X126858628Y-103435714D01*
X127334819Y-104959523D02*
X127334819Y-104388095D01*
X127334819Y-104673809D02*
X126334819Y-104673809D01*
X126334819Y-104673809D02*
X126477676Y-104578571D01*
X126477676Y-104578571D02*
X126572914Y-104483333D01*
X126572914Y-104483333D02*
X126620533Y-104388095D01*
X127334819Y-105435714D02*
X127334819Y-105626190D01*
X127334819Y-105626190D02*
X127287200Y-105721428D01*
X127287200Y-105721428D02*
X127239580Y-105769047D01*
X127239580Y-105769047D02*
X127096723Y-105864285D01*
X127096723Y-105864285D02*
X126906247Y-105911904D01*
X126906247Y-105911904D02*
X126525295Y-105911904D01*
X126525295Y-105911904D02*
X126430057Y-105864285D01*
X126430057Y-105864285D02*
X126382438Y-105816666D01*
X126382438Y-105816666D02*
X126334819Y-105721428D01*
X126334819Y-105721428D02*
X126334819Y-105530952D01*
X126334819Y-105530952D02*
X126382438Y-105435714D01*
X126382438Y-105435714D02*
X126430057Y-105388095D01*
X126430057Y-105388095D02*
X126525295Y-105340476D01*
X126525295Y-105340476D02*
X126763390Y-105340476D01*
X126763390Y-105340476D02*
X126858628Y-105388095D01*
X126858628Y-105388095D02*
X126906247Y-105435714D01*
X126906247Y-105435714D02*
X126953866Y-105530952D01*
X126953866Y-105530952D02*
X126953866Y-105721428D01*
X126953866Y-105721428D02*
X126906247Y-105816666D01*
X126906247Y-105816666D02*
X126858628Y-105864285D01*
X126858628Y-105864285D02*
X126763390Y-105911904D01*
X114959580Y-125033333D02*
X115007200Y-124985714D01*
X115007200Y-124985714D02*
X115054819Y-124842857D01*
X115054819Y-124842857D02*
X115054819Y-124747619D01*
X115054819Y-124747619D02*
X115007200Y-124604762D01*
X115007200Y-124604762D02*
X114911961Y-124509524D01*
X114911961Y-124509524D02*
X114816723Y-124461905D01*
X114816723Y-124461905D02*
X114626247Y-124414286D01*
X114626247Y-124414286D02*
X114483390Y-124414286D01*
X114483390Y-124414286D02*
X114292914Y-124461905D01*
X114292914Y-124461905D02*
X114197676Y-124509524D01*
X114197676Y-124509524D02*
X114102438Y-124604762D01*
X114102438Y-124604762D02*
X114054819Y-124747619D01*
X114054819Y-124747619D02*
X114054819Y-124842857D01*
X114054819Y-124842857D02*
X114102438Y-124985714D01*
X114102438Y-124985714D02*
X114150057Y-125033333D01*
X114054819Y-125890476D02*
X114054819Y-125700000D01*
X114054819Y-125700000D02*
X114102438Y-125604762D01*
X114102438Y-125604762D02*
X114150057Y-125557143D01*
X114150057Y-125557143D02*
X114292914Y-125461905D01*
X114292914Y-125461905D02*
X114483390Y-125414286D01*
X114483390Y-125414286D02*
X114864342Y-125414286D01*
X114864342Y-125414286D02*
X114959580Y-125461905D01*
X114959580Y-125461905D02*
X115007200Y-125509524D01*
X115007200Y-125509524D02*
X115054819Y-125604762D01*
X115054819Y-125604762D02*
X115054819Y-125795238D01*
X115054819Y-125795238D02*
X115007200Y-125890476D01*
X115007200Y-125890476D02*
X114959580Y-125938095D01*
X114959580Y-125938095D02*
X114864342Y-125985714D01*
X114864342Y-125985714D02*
X114626247Y-125985714D01*
X114626247Y-125985714D02*
X114531009Y-125938095D01*
X114531009Y-125938095D02*
X114483390Y-125890476D01*
X114483390Y-125890476D02*
X114435771Y-125795238D01*
X114435771Y-125795238D02*
X114435771Y-125604762D01*
X114435771Y-125604762D02*
X114483390Y-125509524D01*
X114483390Y-125509524D02*
X114531009Y-125461905D01*
X114531009Y-125461905D02*
X114626247Y-125414286D01*
X144254819Y-94283333D02*
X143778628Y-93950000D01*
X144254819Y-93711905D02*
X143254819Y-93711905D01*
X143254819Y-93711905D02*
X143254819Y-94092857D01*
X143254819Y-94092857D02*
X143302438Y-94188095D01*
X143302438Y-94188095D02*
X143350057Y-94235714D01*
X143350057Y-94235714D02*
X143445295Y-94283333D01*
X143445295Y-94283333D02*
X143588152Y-94283333D01*
X143588152Y-94283333D02*
X143683390Y-94235714D01*
X143683390Y-94235714D02*
X143731009Y-94188095D01*
X143731009Y-94188095D02*
X143778628Y-94092857D01*
X143778628Y-94092857D02*
X143778628Y-93711905D01*
X143254819Y-95140476D02*
X143254819Y-94950000D01*
X143254819Y-94950000D02*
X143302438Y-94854762D01*
X143302438Y-94854762D02*
X143350057Y-94807143D01*
X143350057Y-94807143D02*
X143492914Y-94711905D01*
X143492914Y-94711905D02*
X143683390Y-94664286D01*
X143683390Y-94664286D02*
X144064342Y-94664286D01*
X144064342Y-94664286D02*
X144159580Y-94711905D01*
X144159580Y-94711905D02*
X144207200Y-94759524D01*
X144207200Y-94759524D02*
X144254819Y-94854762D01*
X144254819Y-94854762D02*
X144254819Y-95045238D01*
X144254819Y-95045238D02*
X144207200Y-95140476D01*
X144207200Y-95140476D02*
X144159580Y-95188095D01*
X144159580Y-95188095D02*
X144064342Y-95235714D01*
X144064342Y-95235714D02*
X143826247Y-95235714D01*
X143826247Y-95235714D02*
X143731009Y-95188095D01*
X143731009Y-95188095D02*
X143683390Y-95140476D01*
X143683390Y-95140476D02*
X143635771Y-95045238D01*
X143635771Y-95045238D02*
X143635771Y-94854762D01*
X143635771Y-94854762D02*
X143683390Y-94759524D01*
X143683390Y-94759524D02*
X143731009Y-94711905D01*
X143731009Y-94711905D02*
X143826247Y-94664286D01*
X120142857Y-131654819D02*
X120476190Y-131178628D01*
X120714285Y-131654819D02*
X120714285Y-130654819D01*
X120714285Y-130654819D02*
X120333333Y-130654819D01*
X120333333Y-130654819D02*
X120238095Y-130702438D01*
X120238095Y-130702438D02*
X120190476Y-130750057D01*
X120190476Y-130750057D02*
X120142857Y-130845295D01*
X120142857Y-130845295D02*
X120142857Y-130988152D01*
X120142857Y-130988152D02*
X120190476Y-131083390D01*
X120190476Y-131083390D02*
X120238095Y-131131009D01*
X120238095Y-131131009D02*
X120333333Y-131178628D01*
X120333333Y-131178628D02*
X120714285Y-131178628D01*
X119190476Y-131654819D02*
X119761904Y-131654819D01*
X119476190Y-131654819D02*
X119476190Y-130654819D01*
X119476190Y-130654819D02*
X119571428Y-130797676D01*
X119571428Y-130797676D02*
X119666666Y-130892914D01*
X119666666Y-130892914D02*
X119761904Y-130940533D01*
X118619047Y-131083390D02*
X118714285Y-131035771D01*
X118714285Y-131035771D02*
X118761904Y-130988152D01*
X118761904Y-130988152D02*
X118809523Y-130892914D01*
X118809523Y-130892914D02*
X118809523Y-130845295D01*
X118809523Y-130845295D02*
X118761904Y-130750057D01*
X118761904Y-130750057D02*
X118714285Y-130702438D01*
X118714285Y-130702438D02*
X118619047Y-130654819D01*
X118619047Y-130654819D02*
X118428571Y-130654819D01*
X118428571Y-130654819D02*
X118333333Y-130702438D01*
X118333333Y-130702438D02*
X118285714Y-130750057D01*
X118285714Y-130750057D02*
X118238095Y-130845295D01*
X118238095Y-130845295D02*
X118238095Y-130892914D01*
X118238095Y-130892914D02*
X118285714Y-130988152D01*
X118285714Y-130988152D02*
X118333333Y-131035771D01*
X118333333Y-131035771D02*
X118428571Y-131083390D01*
X118428571Y-131083390D02*
X118619047Y-131083390D01*
X118619047Y-131083390D02*
X118714285Y-131131009D01*
X118714285Y-131131009D02*
X118761904Y-131178628D01*
X118761904Y-131178628D02*
X118809523Y-131273866D01*
X118809523Y-131273866D02*
X118809523Y-131464342D01*
X118809523Y-131464342D02*
X118761904Y-131559580D01*
X118761904Y-131559580D02*
X118714285Y-131607200D01*
X118714285Y-131607200D02*
X118619047Y-131654819D01*
X118619047Y-131654819D02*
X118428571Y-131654819D01*
X118428571Y-131654819D02*
X118333333Y-131607200D01*
X118333333Y-131607200D02*
X118285714Y-131559580D01*
X118285714Y-131559580D02*
X118238095Y-131464342D01*
X118238095Y-131464342D02*
X118238095Y-131273866D01*
X118238095Y-131273866D02*
X118285714Y-131178628D01*
X118285714Y-131178628D02*
X118333333Y-131131009D01*
X118333333Y-131131009D02*
X118428571Y-131083390D01*
X117459580Y-124957142D02*
X117507200Y-124909523D01*
X117507200Y-124909523D02*
X117554819Y-124766666D01*
X117554819Y-124766666D02*
X117554819Y-124671428D01*
X117554819Y-124671428D02*
X117507200Y-124528571D01*
X117507200Y-124528571D02*
X117411961Y-124433333D01*
X117411961Y-124433333D02*
X117316723Y-124385714D01*
X117316723Y-124385714D02*
X117126247Y-124338095D01*
X117126247Y-124338095D02*
X116983390Y-124338095D01*
X116983390Y-124338095D02*
X116792914Y-124385714D01*
X116792914Y-124385714D02*
X116697676Y-124433333D01*
X116697676Y-124433333D02*
X116602438Y-124528571D01*
X116602438Y-124528571D02*
X116554819Y-124671428D01*
X116554819Y-124671428D02*
X116554819Y-124766666D01*
X116554819Y-124766666D02*
X116602438Y-124909523D01*
X116602438Y-124909523D02*
X116650057Y-124957142D01*
X116554819Y-125290476D02*
X116554819Y-125909523D01*
X116554819Y-125909523D02*
X116935771Y-125576190D01*
X116935771Y-125576190D02*
X116935771Y-125719047D01*
X116935771Y-125719047D02*
X116983390Y-125814285D01*
X116983390Y-125814285D02*
X117031009Y-125861904D01*
X117031009Y-125861904D02*
X117126247Y-125909523D01*
X117126247Y-125909523D02*
X117364342Y-125909523D01*
X117364342Y-125909523D02*
X117459580Y-125861904D01*
X117459580Y-125861904D02*
X117507200Y-125814285D01*
X117507200Y-125814285D02*
X117554819Y-125719047D01*
X117554819Y-125719047D02*
X117554819Y-125433333D01*
X117554819Y-125433333D02*
X117507200Y-125338095D01*
X117507200Y-125338095D02*
X117459580Y-125290476D01*
X117554819Y-126861904D02*
X117554819Y-126290476D01*
X117554819Y-126576190D02*
X116554819Y-126576190D01*
X116554819Y-126576190D02*
X116697676Y-126480952D01*
X116697676Y-126480952D02*
X116792914Y-126385714D01*
X116792914Y-126385714D02*
X116840533Y-126290476D01*
X146792857Y-104959580D02*
X146840476Y-105007200D01*
X146840476Y-105007200D02*
X146983333Y-105054819D01*
X146983333Y-105054819D02*
X147078571Y-105054819D01*
X147078571Y-105054819D02*
X147221428Y-105007200D01*
X147221428Y-105007200D02*
X147316666Y-104911961D01*
X147316666Y-104911961D02*
X147364285Y-104816723D01*
X147364285Y-104816723D02*
X147411904Y-104626247D01*
X147411904Y-104626247D02*
X147411904Y-104483390D01*
X147411904Y-104483390D02*
X147364285Y-104292914D01*
X147364285Y-104292914D02*
X147316666Y-104197676D01*
X147316666Y-104197676D02*
X147221428Y-104102438D01*
X147221428Y-104102438D02*
X147078571Y-104054819D01*
X147078571Y-104054819D02*
X146983333Y-104054819D01*
X146983333Y-104054819D02*
X146840476Y-104102438D01*
X146840476Y-104102438D02*
X146792857Y-104150057D01*
X146411904Y-104150057D02*
X146364285Y-104102438D01*
X146364285Y-104102438D02*
X146269047Y-104054819D01*
X146269047Y-104054819D02*
X146030952Y-104054819D01*
X146030952Y-104054819D02*
X145935714Y-104102438D01*
X145935714Y-104102438D02*
X145888095Y-104150057D01*
X145888095Y-104150057D02*
X145840476Y-104245295D01*
X145840476Y-104245295D02*
X145840476Y-104340533D01*
X145840476Y-104340533D02*
X145888095Y-104483390D01*
X145888095Y-104483390D02*
X146459523Y-105054819D01*
X146459523Y-105054819D02*
X145840476Y-105054819D01*
X144983333Y-104388152D02*
X144983333Y-105054819D01*
X145221428Y-104007200D02*
X145459523Y-104721485D01*
X145459523Y-104721485D02*
X144840476Y-104721485D01*
X135242857Y-125154819D02*
X135576190Y-124678628D01*
X135814285Y-125154819D02*
X135814285Y-124154819D01*
X135814285Y-124154819D02*
X135433333Y-124154819D01*
X135433333Y-124154819D02*
X135338095Y-124202438D01*
X135338095Y-124202438D02*
X135290476Y-124250057D01*
X135290476Y-124250057D02*
X135242857Y-124345295D01*
X135242857Y-124345295D02*
X135242857Y-124488152D01*
X135242857Y-124488152D02*
X135290476Y-124583390D01*
X135290476Y-124583390D02*
X135338095Y-124631009D01*
X135338095Y-124631009D02*
X135433333Y-124678628D01*
X135433333Y-124678628D02*
X135814285Y-124678628D01*
X134909523Y-124154819D02*
X134290476Y-124154819D01*
X134290476Y-124154819D02*
X134623809Y-124535771D01*
X134623809Y-124535771D02*
X134480952Y-124535771D01*
X134480952Y-124535771D02*
X134385714Y-124583390D01*
X134385714Y-124583390D02*
X134338095Y-124631009D01*
X134338095Y-124631009D02*
X134290476Y-124726247D01*
X134290476Y-124726247D02*
X134290476Y-124964342D01*
X134290476Y-124964342D02*
X134338095Y-125059580D01*
X134338095Y-125059580D02*
X134385714Y-125107200D01*
X134385714Y-125107200D02*
X134480952Y-125154819D01*
X134480952Y-125154819D02*
X134766666Y-125154819D01*
X134766666Y-125154819D02*
X134861904Y-125107200D01*
X134861904Y-125107200D02*
X134909523Y-125059580D01*
X133671428Y-124154819D02*
X133576190Y-124154819D01*
X133576190Y-124154819D02*
X133480952Y-124202438D01*
X133480952Y-124202438D02*
X133433333Y-124250057D01*
X133433333Y-124250057D02*
X133385714Y-124345295D01*
X133385714Y-124345295D02*
X133338095Y-124535771D01*
X133338095Y-124535771D02*
X133338095Y-124773866D01*
X133338095Y-124773866D02*
X133385714Y-124964342D01*
X133385714Y-124964342D02*
X133433333Y-125059580D01*
X133433333Y-125059580D02*
X133480952Y-125107200D01*
X133480952Y-125107200D02*
X133576190Y-125154819D01*
X133576190Y-125154819D02*
X133671428Y-125154819D01*
X133671428Y-125154819D02*
X133766666Y-125107200D01*
X133766666Y-125107200D02*
X133814285Y-125059580D01*
X133814285Y-125059580D02*
X133861904Y-124964342D01*
X133861904Y-124964342D02*
X133909523Y-124773866D01*
X133909523Y-124773866D02*
X133909523Y-124535771D01*
X133909523Y-124535771D02*
X133861904Y-124345295D01*
X133861904Y-124345295D02*
X133814285Y-124250057D01*
X133814285Y-124250057D02*
X133766666Y-124202438D01*
X133766666Y-124202438D02*
X133671428Y-124154819D01*
X129442857Y-94574819D02*
X129776190Y-94098628D01*
X130014285Y-94574819D02*
X130014285Y-93574819D01*
X130014285Y-93574819D02*
X129633333Y-93574819D01*
X129633333Y-93574819D02*
X129538095Y-93622438D01*
X129538095Y-93622438D02*
X129490476Y-93670057D01*
X129490476Y-93670057D02*
X129442857Y-93765295D01*
X129442857Y-93765295D02*
X129442857Y-93908152D01*
X129442857Y-93908152D02*
X129490476Y-94003390D01*
X129490476Y-94003390D02*
X129538095Y-94051009D01*
X129538095Y-94051009D02*
X129633333Y-94098628D01*
X129633333Y-94098628D02*
X130014285Y-94098628D01*
X128490476Y-94574819D02*
X129061904Y-94574819D01*
X128776190Y-94574819D02*
X128776190Y-93574819D01*
X128776190Y-93574819D02*
X128871428Y-93717676D01*
X128871428Y-93717676D02*
X128966666Y-93812914D01*
X128966666Y-93812914D02*
X129061904Y-93860533D01*
X127585714Y-93574819D02*
X128061904Y-93574819D01*
X128061904Y-93574819D02*
X128109523Y-94051009D01*
X128109523Y-94051009D02*
X128061904Y-94003390D01*
X128061904Y-94003390D02*
X127966666Y-93955771D01*
X127966666Y-93955771D02*
X127728571Y-93955771D01*
X127728571Y-93955771D02*
X127633333Y-94003390D01*
X127633333Y-94003390D02*
X127585714Y-94051009D01*
X127585714Y-94051009D02*
X127538095Y-94146247D01*
X127538095Y-94146247D02*
X127538095Y-94384342D01*
X127538095Y-94384342D02*
X127585714Y-94479580D01*
X127585714Y-94479580D02*
X127633333Y-94527200D01*
X127633333Y-94527200D02*
X127728571Y-94574819D01*
X127728571Y-94574819D02*
X127966666Y-94574819D01*
X127966666Y-94574819D02*
X128061904Y-94527200D01*
X128061904Y-94527200D02*
X128109523Y-94479580D01*
D10*
%TO.C,TP1*%
X137650000Y-102800000D02*
G75*
G02*
X136250000Y-102800000I-700000J0D01*
G01*
X136250000Y-102800000D02*
G75*
G02*
X137650000Y-102800000I700000J0D01*
G01*
%TO.C,R11*%
X114027500Y-119562742D02*
X114027500Y-120037258D01*
X115072500Y-119562742D02*
X115072500Y-120037258D01*
%TO.C,R35*%
X146312742Y-124177500D02*
X146787258Y-124177500D01*
X146312742Y-125222500D02*
X146787258Y-125222500D01*
%TO.C,L1*%
X127000000Y-112700000D02*
X129000000Y-112700000D01*
X127000000Y-115500000D02*
X127000000Y-112700000D01*
X129000000Y-112700000D02*
X129000000Y-115500000D01*
X129000000Y-115500000D02*
X127000000Y-115500000D01*
%TO.C,R4*%
X133798303Y-97462770D02*
X133462770Y-97798303D01*
X134537230Y-98201697D02*
X134201697Y-98537230D01*
%TO.C,R10*%
X120137258Y-120077500D02*
X119662742Y-120077500D01*
X120137258Y-121122500D02*
X119662742Y-121122500D01*
%TO.C,R5*%
X135998303Y-97362770D02*
X135662770Y-97698303D01*
X136737230Y-98101697D02*
X136401697Y-98437230D01*
%TO.C,C28*%
X132790000Y-122640580D02*
X132790000Y-122359420D01*
X133810000Y-122640580D02*
X133810000Y-122359420D01*
%TO.C,C2*%
X134440580Y-105090000D02*
X134159420Y-105090000D01*
X134440580Y-106110000D02*
X134159420Y-106110000D01*
%TO.C,C40*%
X127190000Y-122028080D02*
X127190000Y-121746920D01*
X128210000Y-122028080D02*
X128210000Y-121746920D01*
%TO.C,C33*%
X137559420Y-125390000D02*
X137840580Y-125390000D01*
X137559420Y-126410000D02*
X137840580Y-126410000D01*
%TO.C,C34*%
X146309420Y-119490000D02*
X146590580Y-119490000D01*
X146309420Y-120510000D02*
X146590580Y-120510000D01*
%TO.C,R33*%
X146212742Y-117977500D02*
X146687258Y-117977500D01*
X146212742Y-119022500D02*
X146687258Y-119022500D01*
%TO.C,C13*%
X112540000Y-120096267D02*
X112540000Y-119803733D01*
X113560000Y-120096267D02*
X113560000Y-119803733D01*
%TO.C,R14*%
X128562742Y-96577500D02*
X129037258Y-96577500D01*
X128562742Y-97622500D02*
X129037258Y-97622500D01*
D13*
%TO.C,D2*%
X117940000Y-119050000D02*
G75*
G02*
X117840000Y-119050000I-50000J0D01*
G01*
X117840000Y-119050000D02*
G75*
G02*
X117940000Y-119050000I50000J0D01*
G01*
D10*
%TO.C,Q7*%
X127170000Y-130950000D02*
X133100000Y-130950000D01*
X133100000Y-125450000D02*
X126300000Y-125450000D01*
X133100000Y-130950000D02*
X133100000Y-125450000D01*
X126900000Y-131050000D02*
X126420000Y-131050000D01*
X126660000Y-130720000D01*
X126900000Y-131050000D01*
G36*
X126900000Y-131050000D02*
G01*
X126420000Y-131050000D01*
X126660000Y-130720000D01*
X126900000Y-131050000D01*
G37*
%TO.C,L3*%
X130861252Y-117827500D02*
X130338748Y-117827500D01*
X130861252Y-120047500D02*
X130338748Y-120047500D01*
%TO.C,C39*%
X146409420Y-125690000D02*
X146690580Y-125690000D01*
X146409420Y-126710000D02*
X146690580Y-126710000D01*
%TO.C,C26*%
X134440580Y-106590000D02*
X134159420Y-106590000D01*
X134440580Y-107610000D02*
X134159420Y-107610000D01*
%TO.C,R20*%
X128837258Y-108277500D02*
X128362742Y-108277500D01*
X128837258Y-109322500D02*
X128362742Y-109322500D01*
%TO.C,C12*%
X118640000Y-122990580D02*
X118640000Y-122709420D01*
X119660000Y-122990580D02*
X119660000Y-122709420D01*
%TO.C,C18*%
X125253733Y-108290000D02*
X125546267Y-108290000D01*
X125253733Y-109310000D02*
X125546267Y-109310000D01*
%TO.C,C36*%
X149890000Y-125259420D02*
X149890000Y-125540580D01*
X150910000Y-125259420D02*
X150910000Y-125540580D01*
%TO.C,C23*%
X143440580Y-102690000D02*
X143159420Y-102690000D01*
X143440580Y-103710000D02*
X143159420Y-103710000D01*
%TO.C,R29*%
X140462742Y-125377500D02*
X140937258Y-125377500D01*
X140462742Y-126422500D02*
X140937258Y-126422500D01*
%TO.C,R3*%
X132298303Y-96762770D02*
X131962770Y-97098303D01*
X133037230Y-97501697D02*
X132701697Y-97837230D01*
%TO.C,C1*%
X134440580Y-103590000D02*
X134159420Y-103590000D01*
X134440580Y-104610000D02*
X134159420Y-104610000D01*
%TO.C,R8*%
X116837258Y-128977500D02*
X116362742Y-128977500D01*
X116837258Y-130022500D02*
X116362742Y-130022500D01*
%TO.C,R27*%
X138697369Y-126990000D02*
X137102631Y-126990000D01*
X138697369Y-131410000D02*
X137102631Y-131410000D01*
%TO.C,H4*%
X108450000Y-117800000D02*
X111850000Y-117800000D01*
X108450000Y-121200000D02*
X108450000Y-117800000D01*
X111850000Y-117800000D02*
X111850000Y-121200000D01*
X111850000Y-121200000D02*
X108450000Y-121200000D01*
%TO.C,C37*%
X146409420Y-122690000D02*
X146690580Y-122690000D01*
X146409420Y-123710000D02*
X146690580Y-123710000D01*
%TO.C,TP5*%
X145000000Y-110600000D02*
G75*
G02*
X143600000Y-110600000I-700000J0D01*
G01*
X143600000Y-110600000D02*
G75*
G02*
X145000000Y-110600000I700000J0D01*
G01*
%TO.C,R2*%
X108677500Y-124962742D02*
X108677500Y-125437258D01*
X109722500Y-124962742D02*
X109722500Y-125437258D01*
%TO.C,FB1*%
X131462779Y-103590000D02*
X131137221Y-103590000D01*
X131462779Y-104610000D02*
X131137221Y-104610000D01*
%TO.C,R34*%
X146312742Y-121177500D02*
X146787258Y-121177500D01*
X146312742Y-122222500D02*
X146787258Y-122222500D01*
D13*
%TO.C,D4*%
X120700000Y-121760000D02*
G75*
G02*
X120600000Y-121760000I-50000J0D01*
G01*
X120600000Y-121760000D02*
G75*
G02*
X120700000Y-121760000I50000J0D01*
G01*
D10*
%TO.C,C27*%
X132790000Y-119259420D02*
X132790000Y-119540580D01*
X133810000Y-119259420D02*
X133810000Y-119540580D01*
%TO.C,C38*%
X126059420Y-123990000D02*
X126340580Y-123990000D01*
X126059420Y-125010000D02*
X126340580Y-125010000D01*
%TO.C,C19*%
X131440580Y-105090000D02*
X131159420Y-105090000D01*
X131440580Y-106110000D02*
X131159420Y-106110000D01*
%TO.C,R7*%
X108577500Y-130037258D02*
X108577500Y-129562742D01*
X109622500Y-130037258D02*
X109622500Y-129562742D01*
%TO.C,R28*%
X117037258Y-120027500D02*
X116562742Y-120027500D01*
X117037258Y-121072500D02*
X116562742Y-121072500D01*
D14*
%TO.C,U3*%
X136044200Y-120044200D02*
X136044200Y-120540008D01*
X136044200Y-123459992D02*
X136044200Y-123955800D01*
X136044200Y-123955800D02*
X136540008Y-123955800D01*
X136540008Y-120044200D02*
X136044200Y-120044200D01*
X139459992Y-123955800D02*
X139955800Y-123955800D01*
X139955800Y-120044200D02*
X139459992Y-120044200D01*
X139955800Y-120540008D02*
X139955800Y-120044200D01*
X139955800Y-123955800D02*
X139955800Y-123459992D01*
D15*
G36*
X137190248Y-124641600D02*
G01*
X136809248Y-124641600D01*
X136809248Y-124387600D01*
X137190248Y-124387600D01*
X137190248Y-124641600D01*
G37*
G36*
X139190752Y-119612400D02*
G01*
X138809752Y-119612400D01*
X138809752Y-119358400D01*
X139190752Y-119358400D01*
X139190752Y-119612400D01*
G37*
D10*
%TO.C,U2*%
X129700000Y-120477500D02*
X130500000Y-120477500D01*
X129700000Y-123597500D02*
X130500000Y-123597500D01*
X131300000Y-120477500D02*
X130500000Y-120477500D01*
X131300000Y-123597500D02*
X130500000Y-123597500D01*
X131800000Y-120527500D02*
X131560000Y-120197500D01*
X132040000Y-120197500D01*
X131800000Y-120527500D01*
G36*
X131800000Y-120527500D02*
G01*
X131560000Y-120197500D01*
X132040000Y-120197500D01*
X131800000Y-120527500D01*
G37*
%TO.C,R19*%
X124927500Y-104412742D02*
X124927500Y-104887258D01*
X125972500Y-104412742D02*
X125972500Y-104887258D01*
%TO.C,C6*%
X114090000Y-122940580D02*
X114090000Y-122659420D01*
X115110000Y-122940580D02*
X115110000Y-122659420D01*
%TO.C,R6*%
X141877500Y-94687258D02*
X141877500Y-94212742D01*
X142922500Y-94687258D02*
X142922500Y-94212742D01*
%TO.C,R18*%
X116362742Y-130477500D02*
X116837258Y-130477500D01*
X116362742Y-131522500D02*
X116837258Y-131522500D01*
%TO.C,C31*%
X116590000Y-122940580D02*
X116590000Y-122659420D01*
X117610000Y-122940580D02*
X117610000Y-122659420D01*
%TO.C,C24*%
X143440580Y-104190000D02*
X143159420Y-104190000D01*
X143440580Y-105210000D02*
X143159420Y-105210000D01*
%TO.C,H2*%
X148500000Y-128300000D02*
X151900000Y-128300000D01*
X148500000Y-131700000D02*
X148500000Y-128300000D01*
X151900000Y-128300000D02*
X151900000Y-131700000D01*
X151900000Y-131700000D02*
X148500000Y-131700000D01*
%TO.C,R30*%
X134937258Y-125377500D02*
X134462742Y-125377500D01*
X134937258Y-126422500D02*
X134462742Y-126422500D01*
%TO.C,R15*%
X128562742Y-95027500D02*
X129037258Y-95027500D01*
X128562742Y-96072500D02*
X129037258Y-96072500D01*
%TD*%
%LPC*%
D16*
%TO.C,J4*%
X149000000Y-98870000D03*
D17*
X149000000Y-97600000D03*
X149000000Y-96330000D03*
%TD*%
D18*
%TO.C,U4*%
X112000000Y-126350000D03*
X113050000Y-127400000D03*
X112000000Y-127400000D03*
X110950000Y-127400000D03*
X112000000Y-128450000D03*
%TD*%
D19*
%TO.C,J5*%
X143372548Y-125072800D03*
D20*
X143372548Y-122572800D03*
X143372548Y-120072800D03*
%TD*%
D16*
%TO.C,J3*%
X149000000Y-94000000D03*
D17*
X149000000Y-92730000D03*
X149000000Y-91460000D03*
%TD*%
D21*
%TO.C,TP1*%
X136950000Y-102800000D03*
%TD*%
D22*
%TO.C,R11*%
X114550000Y-120625000D03*
X114550000Y-118975000D03*
%TD*%
D23*
%TO.C,R35*%
X147375000Y-124700000D03*
X145725000Y-124700000D03*
%TD*%
D24*
%TO.C,L1*%
X128000000Y-113450000D03*
X128000000Y-114750000D03*
%TD*%
D25*
%TO.C,R4*%
X133416637Y-98583363D03*
X134583363Y-97416637D03*
%TD*%
D26*
%TO.C,R10*%
X119075000Y-120600000D03*
X120725000Y-120600000D03*
%TD*%
D25*
%TO.C,R5*%
X135616637Y-98483363D03*
X136783363Y-97316637D03*
%TD*%
D27*
%TO.C,C28*%
X133300000Y-121725000D03*
X133300000Y-123275000D03*
%TD*%
D28*
%TO.C,C2*%
X133525000Y-105600000D03*
X135075000Y-105600000D03*
%TD*%
D27*
%TO.C,C40*%
X127700000Y-121112500D03*
X127700000Y-122662500D03*
%TD*%
D29*
%TO.C,C33*%
X138475000Y-125900000D03*
X136925000Y-125900000D03*
%TD*%
%TO.C,C34*%
X147225000Y-120000000D03*
X145675000Y-120000000D03*
%TD*%
D23*
%TO.C,R33*%
X147275000Y-118500000D03*
X145625000Y-118500000D03*
%TD*%
D30*
%TO.C,C13*%
X113050000Y-119087500D03*
X113050000Y-120812500D03*
%TD*%
D23*
%TO.C,R14*%
X129625000Y-97100000D03*
X127975000Y-97100000D03*
%TD*%
D31*
%TO.C,D2*%
X117285000Y-119050000D03*
X116315000Y-119050000D03*
%TD*%
D32*
%TO.C,Q7*%
X126675000Y-130105000D03*
X126675000Y-128835000D03*
X126675000Y-127565000D03*
X126675000Y-126295000D03*
D33*
X129400000Y-128200000D03*
%TD*%
D34*
%TO.C,L3*%
X129525000Y-118937500D03*
X131675000Y-118937500D03*
%TD*%
D29*
%TO.C,C39*%
X147325000Y-126200000D03*
X145775000Y-126200000D03*
%TD*%
D28*
%TO.C,C26*%
X133525000Y-107100000D03*
X135075000Y-107100000D03*
%TD*%
D26*
%TO.C,R20*%
X127775000Y-108800000D03*
X129425000Y-108800000D03*
%TD*%
D27*
%TO.C,C12*%
X119150000Y-122075000D03*
X119150000Y-123625000D03*
%TD*%
D35*
%TO.C,C18*%
X126262501Y-108800000D03*
X124537499Y-108800000D03*
%TD*%
D36*
%TO.C,C36*%
X150400000Y-126175000D03*
X150400000Y-124625000D03*
%TD*%
D28*
%TO.C,C23*%
X142525000Y-103200000D03*
X144075000Y-103200000D03*
%TD*%
D23*
%TO.C,R29*%
X141525000Y-125900000D03*
X139875000Y-125900000D03*
%TD*%
D25*
%TO.C,R3*%
X131916637Y-97883363D03*
X133083363Y-96716637D03*
%TD*%
D28*
%TO.C,C1*%
X133525000Y-104100000D03*
X135075000Y-104100000D03*
%TD*%
D26*
%TO.C,R8*%
X115775000Y-129500000D03*
X117425000Y-129500000D03*
%TD*%
D37*
%TO.C,R27*%
X135387500Y-129200000D03*
X140412500Y-129200000D03*
%TD*%
D38*
%TO.C,H4*%
X110150000Y-119500000D03*
%TD*%
D29*
%TO.C,C37*%
X147325000Y-123200000D03*
X145775000Y-123200000D03*
%TD*%
D21*
%TO.C,TP5*%
X144300000Y-110600000D03*
%TD*%
D22*
%TO.C,R2*%
X109200000Y-126025000D03*
X109200000Y-124375000D03*
%TD*%
D39*
%TO.C,J2*%
X137650000Y-90650000D03*
D40*
X137950000Y-93410000D03*
D39*
X138250000Y-90650000D03*
D40*
X138550000Y-93410000D03*
D39*
X138850000Y-90650000D03*
D40*
X139150000Y-93410000D03*
D39*
X139450000Y-90650000D03*
%TD*%
D41*
%TO.C,FB1*%
X130512500Y-104100000D03*
X132087500Y-104100000D03*
%TD*%
D23*
%TO.C,R34*%
X147375000Y-121700000D03*
X145725000Y-121700000D03*
%TD*%
D42*
%TO.C,D4*%
X120650000Y-122365000D03*
X120650000Y-123335000D03*
%TD*%
D36*
%TO.C,C27*%
X133300000Y-120175000D03*
X133300000Y-118625000D03*
%TD*%
D29*
%TO.C,C38*%
X126975000Y-124500000D03*
X125425000Y-124500000D03*
%TD*%
D28*
%TO.C,C19*%
X130525000Y-105600000D03*
X132075000Y-105600000D03*
%TD*%
D43*
%TO.C,R7*%
X109100000Y-128975000D03*
X109100000Y-130625000D03*
%TD*%
D26*
%TO.C,R28*%
X115975000Y-120550000D03*
X117625000Y-120550000D03*
%TD*%
D44*
%TO.C,U3*%
X139727200Y-120999748D03*
X139727200Y-121499874D03*
X139727200Y-122000000D03*
X139727200Y-122500126D03*
X139727200Y-123000252D03*
D45*
X139000252Y-123727200D03*
X138500126Y-123727200D03*
X138000000Y-123727200D03*
X137499874Y-123727200D03*
X136999748Y-123727200D03*
D44*
X136272800Y-123000252D03*
X136272800Y-122500126D03*
X136272800Y-122000000D03*
X136272800Y-121499874D03*
X136272800Y-120999748D03*
D45*
X136999748Y-120272800D03*
X137499874Y-120272800D03*
X138000000Y-120272800D03*
X138500126Y-120272800D03*
X139000252Y-120272800D03*
D46*
X138000000Y-122000000D03*
%TD*%
D47*
%TO.C,U2*%
X131637500Y-121087500D03*
X131637500Y-122037500D03*
X131637500Y-122987500D03*
X129362500Y-122987500D03*
X129362500Y-122037500D03*
X129362500Y-121087500D03*
%TD*%
D22*
%TO.C,R19*%
X125450000Y-105475000D03*
X125450000Y-103825000D03*
%TD*%
D27*
%TO.C,C6*%
X114600000Y-122025000D03*
X114600000Y-123575000D03*
%TD*%
D43*
%TO.C,R6*%
X142400000Y-93625000D03*
X142400000Y-95275000D03*
%TD*%
D23*
%TO.C,R18*%
X117425000Y-131000000D03*
X115775000Y-131000000D03*
%TD*%
D27*
%TO.C,C31*%
X117100000Y-122025000D03*
X117100000Y-123575000D03*
%TD*%
D28*
%TO.C,C24*%
X142525000Y-104700000D03*
X144075000Y-104700000D03*
%TD*%
D38*
%TO.C,H2*%
X150200000Y-130000000D03*
%TD*%
D26*
%TO.C,R30*%
X133875000Y-125900000D03*
X135525000Y-125900000D03*
%TD*%
D23*
%TO.C,R15*%
X129625000Y-95550000D03*
X127975000Y-95550000D03*
%TD*%
%LPD*%
M02*
