%TF.GenerationSoftware,KiCad,Pcbnew,8.0.3-8.0.3-0~ubuntu22.04.1*%
%TF.CreationDate,2024-06-15T18:12:37-06:00*%
%TF.ProjectId,MA735 encoder board,4d413733-3520-4656-9e63-6f6465722062,rev?*%
%TF.SameCoordinates,Original*%
%TF.FileFunction,Drillmap*%
%TF.FilePolarity,Positive*%
%FSLAX45Y45*%
G04 Gerber Fmt 4.5, Leading zero omitted, Abs format (unit mm)*
G04 Created by KiCad (PCBNEW 8.0.3-8.0.3-0~ubuntu22.04.1) date 2024-06-15 18:12:37*
%MOMM*%
%LPD*%
G01*
G04 APERTURE LIST*
%ADD10C,0.050000*%
%ADD11C,0.200000*%
G04 APERTURE END LIST*
D10*
X14720000Y-8680000D02*
X14720000Y-8250000D01*
X15760000Y-8680000D02*
X15760000Y-8250000D01*
X14720000Y-8250000D02*
X15760000Y-8250000D01*
X15760000Y-8680000D02*
G75*
G02*
X14720000Y-8680000I-520000J0D01*
G01*
D11*
X14978277Y-9513984D02*
X14978277Y-9313984D01*
X14978277Y-9313984D02*
X15025896Y-9313984D01*
X15025896Y-9313984D02*
X15054467Y-9323508D01*
X15054467Y-9323508D02*
X15073515Y-9342555D01*
X15073515Y-9342555D02*
X15083039Y-9361603D01*
X15083039Y-9361603D02*
X15092562Y-9399698D01*
X15092562Y-9399698D02*
X15092562Y-9428270D01*
X15092562Y-9428270D02*
X15083039Y-9466365D01*
X15083039Y-9466365D02*
X15073515Y-9485412D01*
X15073515Y-9485412D02*
X15054467Y-9504460D01*
X15054467Y-9504460D02*
X15025896Y-9513984D01*
X15025896Y-9513984D02*
X14978277Y-9513984D01*
X15178277Y-9513984D02*
X15178277Y-9380650D01*
X15178277Y-9418746D02*
X15187801Y-9399698D01*
X15187801Y-9399698D02*
X15197324Y-9390174D01*
X15197324Y-9390174D02*
X15216372Y-9380650D01*
X15216372Y-9380650D02*
X15235420Y-9380650D01*
X15302086Y-9513984D02*
X15302086Y-9380650D01*
X15302086Y-9313984D02*
X15292562Y-9323508D01*
X15292562Y-9323508D02*
X15302086Y-9333031D01*
X15302086Y-9333031D02*
X15311610Y-9323508D01*
X15311610Y-9323508D02*
X15302086Y-9313984D01*
X15302086Y-9313984D02*
X15302086Y-9333031D01*
X15425896Y-9513984D02*
X15406848Y-9504460D01*
X15406848Y-9504460D02*
X15397324Y-9485412D01*
X15397324Y-9485412D02*
X15397324Y-9313984D01*
X15530658Y-9513984D02*
X15511610Y-9504460D01*
X15511610Y-9504460D02*
X15502086Y-9485412D01*
X15502086Y-9485412D02*
X15502086Y-9313984D01*
X15759229Y-9513984D02*
X15759229Y-9313984D01*
X15759229Y-9313984D02*
X15825896Y-9456841D01*
X15825896Y-9456841D02*
X15892562Y-9313984D01*
X15892562Y-9313984D02*
X15892562Y-9513984D01*
X16073515Y-9513984D02*
X16073515Y-9409222D01*
X16073515Y-9409222D02*
X16063991Y-9390174D01*
X16063991Y-9390174D02*
X16044943Y-9380650D01*
X16044943Y-9380650D02*
X16006848Y-9380650D01*
X16006848Y-9380650D02*
X15987801Y-9390174D01*
X16073515Y-9504460D02*
X16054467Y-9513984D01*
X16054467Y-9513984D02*
X16006848Y-9513984D01*
X16006848Y-9513984D02*
X15987801Y-9504460D01*
X15987801Y-9504460D02*
X15978277Y-9485412D01*
X15978277Y-9485412D02*
X15978277Y-9466365D01*
X15978277Y-9466365D02*
X15987801Y-9447317D01*
X15987801Y-9447317D02*
X16006848Y-9437793D01*
X16006848Y-9437793D02*
X16054467Y-9437793D01*
X16054467Y-9437793D02*
X16073515Y-9428270D01*
X16168753Y-9380650D02*
X16168753Y-9580650D01*
X16168753Y-9390174D02*
X16187801Y-9380650D01*
X16187801Y-9380650D02*
X16225896Y-9380650D01*
X16225896Y-9380650D02*
X16244943Y-9390174D01*
X16244943Y-9390174D02*
X16254467Y-9399698D01*
X16254467Y-9399698D02*
X16263991Y-9418746D01*
X16263991Y-9418746D02*
X16263991Y-9475889D01*
X16263991Y-9475889D02*
X16254467Y-9494936D01*
X16254467Y-9494936D02*
X16244943Y-9504460D01*
X16244943Y-9504460D02*
X16225896Y-9513984D01*
X16225896Y-9513984D02*
X16187801Y-9513984D01*
X16187801Y-9513984D02*
X16168753Y-9504460D01*
X16349705Y-9494936D02*
X16359229Y-9504460D01*
X16359229Y-9504460D02*
X16349705Y-9513984D01*
X16349705Y-9513984D02*
X16340182Y-9504460D01*
X16340182Y-9504460D02*
X16349705Y-9494936D01*
X16349705Y-9494936D02*
X16349705Y-9513984D01*
X16349705Y-9390174D02*
X16359229Y-9399698D01*
X16359229Y-9399698D02*
X16349705Y-9409222D01*
X16349705Y-9409222D02*
X16340182Y-9399698D01*
X16340182Y-9399698D02*
X16349705Y-9390174D01*
X16349705Y-9390174D02*
X16349705Y-9409222D01*
M02*
