%TF.GenerationSoftware,KiCad,Pcbnew,8.0.3-8.0.3-0~ubuntu22.04.1*%
%TF.CreationDate,2024-06-15T18:12:50-06:00*%
%TF.ProjectId,MA735 encoder board,4d413733-3520-4656-9e63-6f6465722062,rev?*%
%TF.SameCoordinates,Original*%
%TF.FileFunction,Copper,L1,Top*%
%TF.FilePolarity,Positive*%
%FSLAX46Y46*%
G04 Gerber Fmt 4.6, Leading zero omitted, Abs format (unit mm)*
G04 Created by KiCad (PCBNEW 8.0.3-8.0.3-0~ubuntu22.04.1) date 2024-06-15 18:12:50*
%MOMM*%
%LPD*%
G01*
G04 APERTURE LIST*
G04 Aperture macros list*
%AMRoundRect*
0 Rectangle with rounded corners*
0 $1 Rounding radius*
0 $2 $3 $4 $5 $6 $7 $8 $9 X,Y pos of 4 corners*
0 Add a 4 corners polygon primitive as box body*
4,1,4,$2,$3,$4,$5,$6,$7,$8,$9,$2,$3,0*
0 Add four circle primitives for the rounded corners*
1,1,$1+$1,$2,$3*
1,1,$1+$1,$4,$5*
1,1,$1+$1,$6,$7*
1,1,$1+$1,$8,$9*
0 Add four rect primitives between the rounded corners*
20,1,$1+$1,$2,$3,$4,$5,0*
20,1,$1+$1,$4,$5,$6,$7,0*
20,1,$1+$1,$6,$7,$8,$9,0*
20,1,$1+$1,$8,$9,$2,$3,0*%
G04 Aperture macros list end*
%TA.AperFunction,SMDPad,CuDef*%
%ADD10C,2.000000*%
%TD*%
%TA.AperFunction,SMDPad,CuDef*%
%ADD11RoundRect,0.150000X0.150000X0.625000X-0.150000X0.625000X-0.150000X-0.625000X0.150000X-0.625000X0*%
%TD*%
%TA.AperFunction,SMDPad,CuDef*%
%ADD12RoundRect,0.250000X0.350000X0.650000X-0.350000X0.650000X-0.350000X-0.650000X0.350000X-0.650000X0*%
%TD*%
%TA.AperFunction,ViaPad*%
%ADD13C,0.600000*%
%TD*%
%TA.AperFunction,Conductor*%
%ADD14C,0.200000*%
%TD*%
G04 APERTURE END LIST*
D10*
%TO.P,TP1,1,1*%
%TO.N,/PWM*%
X152200000Y-90600000D03*
%TD*%
D11*
%TO.P,J2,1,Pin_1*%
%TO.N,GND*%
X154900000Y-87800000D03*
%TO.P,J2,2,Pin_2*%
%TO.N,+3V3*%
X153900000Y-87800000D03*
%TO.P,J2,3,Pin_3*%
%TO.N,/SCK*%
X152900000Y-87800000D03*
%TO.P,J2,4,Pin_4*%
%TO.N,/MISO*%
X151900000Y-87800000D03*
%TO.P,J2,5,Pin_5*%
%TO.N,/MOSI*%
X150900000Y-87800000D03*
%TO.P,J2,6,Pin_6*%
%TO.N,/CS*%
X149900000Y-87800000D03*
D12*
%TO.P,J2,MP,MountPin*%
%TO.N,GND*%
X156200000Y-83925000D03*
X148600000Y-83925000D03*
%TD*%
D13*
%TO.N,/PWM*%
X153300000Y-89700000D03*
%TO.N,GND*%
X154400000Y-90600000D03*
X156900000Y-85600000D03*
X147800000Y-86000000D03*
%TO.N,+3V3*%
X153200000Y-84500000D03*
%TO.N,/SCK*%
X154900000Y-89600000D03*
%TO.N,/MISO*%
X150717670Y-89588349D03*
%TO.N,/MOSI*%
X150311661Y-86576826D03*
%TO.N,/CS*%
X149500000Y-89000000D03*
%TD*%
D14*
%TO.N,/PWM*%
X153300000Y-89700000D02*
X153100000Y-89700000D01*
X153100000Y-89700000D02*
X152200000Y-90600000D01*
%TO.N,/SCK*%
X154900000Y-89600000D02*
X154284448Y-89600000D01*
X154284448Y-89600000D02*
X152900000Y-88215552D01*
X152900000Y-88215552D02*
X152900000Y-87800000D01*
%TO.N,+3V3*%
X153200000Y-84500000D02*
X153200000Y-85100000D01*
X153200000Y-85100000D02*
X153900000Y-85800000D01*
X153900000Y-85800000D02*
X153900000Y-87800000D01*
%TO.N,/MISO*%
X150717670Y-89588349D02*
X151900000Y-88406019D01*
X151900000Y-88406019D02*
X151900000Y-87800000D01*
%TO.N,/MOSI*%
X150311661Y-86576826D02*
X150900000Y-87165165D01*
X150900000Y-87165165D02*
X150900000Y-87800000D01*
%TO.N,/CS*%
X149900000Y-88600000D02*
X149500000Y-89000000D01*
X149900000Y-87800000D02*
X149900000Y-88600000D01*
%TD*%
%TA.AperFunction,Conductor*%
%TO.N,GND*%
G36*
X155168025Y-82720185D02*
G01*
X155213780Y-82772989D01*
X155223724Y-82842147D01*
X155206525Y-82889597D01*
X155165643Y-82955875D01*
X155165641Y-82955880D01*
X155110494Y-83122302D01*
X155110493Y-83122309D01*
X155100000Y-83225013D01*
X155100000Y-83675000D01*
X156326000Y-83675000D01*
X156393039Y-83694685D01*
X156438794Y-83747489D01*
X156450000Y-83799000D01*
X156450000Y-85324999D01*
X156599972Y-85324999D01*
X156599986Y-85324998D01*
X156702697Y-85314505D01*
X156869119Y-85259358D01*
X156869124Y-85259356D01*
X157018345Y-85167315D01*
X157142315Y-85043345D01*
X157169961Y-84998525D01*
X157221909Y-84951801D01*
X157290872Y-84940578D01*
X157354954Y-84968422D01*
X157393810Y-85026490D01*
X157399500Y-85063622D01*
X157399500Y-86797293D01*
X157399382Y-86802702D01*
X157380711Y-87230328D01*
X157379768Y-87241104D01*
X157324253Y-87662781D01*
X157322375Y-87673434D01*
X157230318Y-88088679D01*
X157227518Y-88099129D01*
X157099620Y-88504769D01*
X157095920Y-88514934D01*
X156933156Y-88907881D01*
X156928584Y-88917685D01*
X156732196Y-89294942D01*
X156726788Y-89304310D01*
X156498257Y-89663032D01*
X156492052Y-89671893D01*
X156233132Y-90009324D01*
X156226178Y-90017611D01*
X155938837Y-90331188D01*
X155931188Y-90338837D01*
X155617611Y-90626178D01*
X155609324Y-90633132D01*
X155271893Y-90892052D01*
X155263032Y-90898257D01*
X154904310Y-91126788D01*
X154894942Y-91132196D01*
X154517685Y-91328584D01*
X154507881Y-91333156D01*
X154114934Y-91495920D01*
X154104769Y-91499620D01*
X153699129Y-91627518D01*
X153688679Y-91630318D01*
X153273434Y-91722375D01*
X153262781Y-91724253D01*
X153224361Y-91729311D01*
X153155326Y-91718545D01*
X153103070Y-91672165D01*
X153084185Y-91604896D01*
X153104666Y-91538096D01*
X153120490Y-91518695D01*
X153200047Y-91439139D01*
X153330568Y-91252734D01*
X153426739Y-91046496D01*
X153485635Y-90826692D01*
X153505468Y-90600000D01*
X153485635Y-90373308D01*
X153485634Y-90373307D01*
X153485163Y-90367914D01*
X153487591Y-90367701D01*
X153494181Y-90308500D01*
X153538225Y-90254261D01*
X153561111Y-90241821D01*
X153570478Y-90237940D01*
X153602841Y-90224536D01*
X153728282Y-90128282D01*
X153824536Y-90002841D01*
X153840320Y-89964733D01*
X153884157Y-89910333D01*
X153950451Y-89888266D01*
X154018151Y-89905544D01*
X154031686Y-89916058D01*
X154032089Y-89915533D01*
X154038530Y-89920475D01*
X154038535Y-89920480D01*
X154129860Y-89973207D01*
X154231721Y-90000500D01*
X154337175Y-90000500D01*
X154393420Y-90000500D01*
X154460459Y-90020185D01*
X154468907Y-90026124D01*
X154471716Y-90028279D01*
X154471718Y-90028282D01*
X154597159Y-90124536D01*
X154743238Y-90185044D01*
X154821619Y-90195363D01*
X154899999Y-90205682D01*
X154900000Y-90205682D01*
X154900001Y-90205682D01*
X154976421Y-90195621D01*
X155056762Y-90185044D01*
X155202841Y-90124536D01*
X155328282Y-90028282D01*
X155424536Y-89902841D01*
X155485044Y-89756762D01*
X155505682Y-89600000D01*
X155485044Y-89443238D01*
X155424536Y-89297159D01*
X155424535Y-89297158D01*
X155424535Y-89297157D01*
X155331046Y-89175320D01*
X155305852Y-89110151D01*
X155319890Y-89041706D01*
X155366302Y-88993102D01*
X155451550Y-88942687D01*
X155451561Y-88942678D01*
X155567678Y-88826561D01*
X155567685Y-88826552D01*
X155651282Y-88685196D01*
X155651283Y-88685193D01*
X155697099Y-88527495D01*
X155697100Y-88527489D01*
X155699999Y-88490649D01*
X155700000Y-88490634D01*
X155700000Y-88050000D01*
X154774000Y-88050000D01*
X154706961Y-88030315D01*
X154661206Y-87977511D01*
X154650000Y-87926000D01*
X154650000Y-87550000D01*
X155150000Y-87550000D01*
X155700000Y-87550000D01*
X155700000Y-87109365D01*
X155699999Y-87109350D01*
X155697100Y-87072510D01*
X155697099Y-87072504D01*
X155651283Y-86914806D01*
X155651282Y-86914803D01*
X155567685Y-86773447D01*
X155567678Y-86773438D01*
X155451561Y-86657321D01*
X155451552Y-86657314D01*
X155310196Y-86573717D01*
X155310193Y-86573716D01*
X155152494Y-86527900D01*
X155152497Y-86527900D01*
X155150000Y-86527703D01*
X155150000Y-87550000D01*
X154650000Y-87550000D01*
X154650000Y-86527703D01*
X154647503Y-86527900D01*
X154489806Y-86573716D01*
X154489799Y-86573719D01*
X154487620Y-86575008D01*
X154485689Y-86575497D01*
X154482646Y-86576815D01*
X154482433Y-86576323D01*
X154419896Y-86592191D01*
X154353634Y-86570031D01*
X154309871Y-86515564D01*
X154300500Y-86468276D01*
X154300500Y-85747275D01*
X154300500Y-85747273D01*
X154273207Y-85645413D01*
X154220480Y-85554087D01*
X154145913Y-85479520D01*
X153690585Y-85024192D01*
X153657100Y-84962869D01*
X153662084Y-84893177D01*
X153679888Y-84861027D01*
X153724536Y-84802841D01*
X153785044Y-84656762D01*
X153789227Y-84624986D01*
X155100001Y-84624986D01*
X155110494Y-84727697D01*
X155165641Y-84894119D01*
X155165643Y-84894124D01*
X155257684Y-85043345D01*
X155381654Y-85167315D01*
X155530875Y-85259356D01*
X155530880Y-85259358D01*
X155697302Y-85314505D01*
X155697309Y-85314506D01*
X155800019Y-85324999D01*
X155949999Y-85324999D01*
X155950000Y-85324998D01*
X155950000Y-84175000D01*
X155100001Y-84175000D01*
X155100001Y-84624986D01*
X153789227Y-84624986D01*
X153805682Y-84500000D01*
X153785044Y-84343238D01*
X153724536Y-84197159D01*
X153628282Y-84071718D01*
X153502841Y-83975464D01*
X153356762Y-83914956D01*
X153356760Y-83914955D01*
X153200001Y-83894318D01*
X153199999Y-83894318D01*
X153043239Y-83914955D01*
X153043237Y-83914956D01*
X152897160Y-83975463D01*
X152771718Y-84071718D01*
X152675463Y-84197160D01*
X152614956Y-84343237D01*
X152614955Y-84343239D01*
X152594318Y-84499998D01*
X152594318Y-84500001D01*
X152614955Y-84656760D01*
X152614956Y-84656762D01*
X152675464Y-84802841D01*
X152771718Y-84928282D01*
X152771720Y-84928283D01*
X152773876Y-84931093D01*
X152799070Y-84996263D01*
X152799500Y-85006580D01*
X152799500Y-85152726D01*
X152826793Y-85254589D01*
X152853156Y-85300250D01*
X152879520Y-85345913D01*
X152879522Y-85345915D01*
X153463181Y-85929574D01*
X153496666Y-85990897D01*
X153499500Y-86017255D01*
X153499500Y-86701208D01*
X153479815Y-86768247D01*
X153427011Y-86814002D01*
X153357853Y-86823946D01*
X153301867Y-86800979D01*
X153262882Y-86772207D01*
X153262880Y-86772206D01*
X153134700Y-86727353D01*
X153104270Y-86724500D01*
X153104266Y-86724500D01*
X152695734Y-86724500D01*
X152695730Y-86724500D01*
X152665300Y-86727353D01*
X152665298Y-86727353D01*
X152537119Y-86772206D01*
X152537118Y-86772207D01*
X152480488Y-86814002D01*
X152473633Y-86819061D01*
X152408004Y-86843031D01*
X152339834Y-86827715D01*
X152326367Y-86819061D01*
X152262882Y-86772207D01*
X152262880Y-86772206D01*
X152134700Y-86727353D01*
X152104270Y-86724500D01*
X152104266Y-86724500D01*
X151695734Y-86724500D01*
X151695730Y-86724500D01*
X151665300Y-86727353D01*
X151665298Y-86727353D01*
X151537119Y-86772206D01*
X151537118Y-86772207D01*
X151480488Y-86814002D01*
X151473633Y-86819061D01*
X151408004Y-86843031D01*
X151339834Y-86827715D01*
X151326367Y-86819061D01*
X151262882Y-86772207D01*
X151262880Y-86772206D01*
X151134700Y-86727353D01*
X151104270Y-86724500D01*
X151104266Y-86724500D01*
X151077090Y-86724500D01*
X151010051Y-86704815D01*
X150989409Y-86688181D01*
X150953063Y-86651835D01*
X150919578Y-86590512D01*
X150917805Y-86580339D01*
X150917342Y-86576824D01*
X150896705Y-86420064D01*
X150836197Y-86273985D01*
X150739943Y-86148544D01*
X150614502Y-86052290D01*
X150468423Y-85991782D01*
X150468421Y-85991781D01*
X150311662Y-85971144D01*
X150311660Y-85971144D01*
X150154900Y-85991781D01*
X150154898Y-85991782D01*
X150008821Y-86052289D01*
X149883379Y-86148544D01*
X149787124Y-86273986D01*
X149726617Y-86420063D01*
X149726616Y-86420065D01*
X149705979Y-86576824D01*
X149705979Y-86576828D01*
X149709975Y-86607182D01*
X149699209Y-86676218D01*
X149652829Y-86728473D01*
X149627992Y-86740408D01*
X149537117Y-86772207D01*
X149427850Y-86852850D01*
X149347207Y-86962117D01*
X149347206Y-86962119D01*
X149302353Y-87090298D01*
X149302353Y-87090300D01*
X149299500Y-87120730D01*
X149299500Y-88350218D01*
X149279815Y-88417257D01*
X149227011Y-88463012D01*
X149222954Y-88464779D01*
X149197159Y-88475463D01*
X149197158Y-88475464D01*
X149071719Y-88571716D01*
X148975463Y-88697160D01*
X148914956Y-88843237D01*
X148914955Y-88843239D01*
X148894318Y-88999998D01*
X148894318Y-89000001D01*
X148914955Y-89156760D01*
X148914956Y-89156762D01*
X148974183Y-89299750D01*
X148975464Y-89302841D01*
X149071718Y-89428282D01*
X149197159Y-89524536D01*
X149343238Y-89585044D01*
X149368350Y-89588350D01*
X149499999Y-89605682D01*
X149500000Y-89605682D01*
X149500001Y-89605682D01*
X149552254Y-89598802D01*
X149656762Y-89585044D01*
X149802841Y-89524536D01*
X149918573Y-89435731D01*
X149983741Y-89410537D01*
X150052186Y-89424575D01*
X150102176Y-89473389D01*
X150117840Y-89541480D01*
X150116998Y-89550292D01*
X150111988Y-89588347D01*
X150111988Y-89588350D01*
X150132625Y-89745109D01*
X150132626Y-89745111D01*
X150193134Y-89891190D01*
X150289388Y-90016631D01*
X150414829Y-90112885D01*
X150560908Y-90173393D01*
X150639289Y-90183712D01*
X150717669Y-90194031D01*
X150717670Y-90194031D01*
X150787359Y-90184856D01*
X150856393Y-90195621D01*
X150908649Y-90242001D01*
X150927535Y-90309270D01*
X150923320Y-90339886D01*
X150914365Y-90373306D01*
X150914364Y-90373313D01*
X150894532Y-90599998D01*
X150894532Y-90600001D01*
X150914364Y-90826686D01*
X150914366Y-90826697D01*
X150973258Y-91046488D01*
X150973261Y-91046497D01*
X151069431Y-91252732D01*
X151069432Y-91252734D01*
X151187778Y-91421752D01*
X151210105Y-91487959D01*
X151193094Y-91555726D01*
X151142146Y-91603538D01*
X151073436Y-91616216D01*
X151048916Y-91611136D01*
X150695231Y-91499620D01*
X150685065Y-91495920D01*
X150665845Y-91487959D01*
X150506008Y-91421752D01*
X150292118Y-91333156D01*
X150282314Y-91328584D01*
X149905057Y-91132196D01*
X149895689Y-91126788D01*
X149536967Y-90898257D01*
X149528106Y-90892052D01*
X149190675Y-90633132D01*
X149182388Y-90626178D01*
X148868811Y-90338837D01*
X148861162Y-90331188D01*
X148573821Y-90017611D01*
X148566867Y-90009324D01*
X148307947Y-89671893D01*
X148301742Y-89663032D01*
X148161718Y-89443239D01*
X148073210Y-89304309D01*
X148067803Y-89294942D01*
X148003657Y-89171718D01*
X147871412Y-88917678D01*
X147866843Y-88907881D01*
X147704073Y-88514919D01*
X147700384Y-88504784D01*
X147572475Y-88099110D01*
X147569686Y-88088698D01*
X147477621Y-87673422D01*
X147475748Y-87662795D01*
X147420229Y-87241084D01*
X147419289Y-87230348D01*
X147400618Y-86802702D01*
X147400500Y-86797293D01*
X147400500Y-85063622D01*
X147420185Y-84996583D01*
X147472989Y-84950828D01*
X147542147Y-84940884D01*
X147605703Y-84969909D01*
X147630039Y-84998525D01*
X147657684Y-85043345D01*
X147781654Y-85167315D01*
X147930875Y-85259356D01*
X147930880Y-85259358D01*
X148097302Y-85314505D01*
X148097309Y-85314506D01*
X148200019Y-85324999D01*
X148349999Y-85324999D01*
X148850000Y-85324999D01*
X148999972Y-85324999D01*
X148999986Y-85324998D01*
X149102697Y-85314505D01*
X149269119Y-85259358D01*
X149269124Y-85259356D01*
X149418345Y-85167315D01*
X149542315Y-85043345D01*
X149634356Y-84894124D01*
X149634358Y-84894119D01*
X149689505Y-84727697D01*
X149689506Y-84727690D01*
X149699999Y-84624986D01*
X149700000Y-84624973D01*
X149700000Y-84175000D01*
X148850000Y-84175000D01*
X148850000Y-85324999D01*
X148349999Y-85324999D01*
X148350000Y-85324998D01*
X148350000Y-83799000D01*
X148369685Y-83731961D01*
X148422489Y-83686206D01*
X148474000Y-83675000D01*
X149699999Y-83675000D01*
X149699999Y-83225028D01*
X149699998Y-83225013D01*
X149689505Y-83122302D01*
X149634358Y-82955880D01*
X149634356Y-82955875D01*
X149593475Y-82889597D01*
X149575035Y-82822204D01*
X149595958Y-82755541D01*
X149649599Y-82710771D01*
X149699014Y-82700500D01*
X155100986Y-82700500D01*
X155168025Y-82720185D01*
G37*
%TD.AperFunction*%
%TD*%
M02*
