%TF.GenerationSoftware,KiCad,Pcbnew,8.0.3-8.0.3-0~ubuntu22.04.1*%
%TF.CreationDate,2024-06-15T18:12:37-06:00*%
%TF.ProjectId,MA735 encoder board,4d413733-3520-4656-9e63-6f6465722062,rev?*%
%TF.SameCoordinates,Original*%
%TF.FileFunction,Drillmap*%
%TF.FilePolarity,Positive*%
%FSLAX45Y45*%
G04 Gerber Fmt 4.5, Leading zero omitted, Abs format (unit mm)*
G04 Created by KiCad (PCBNEW 8.0.3-8.0.3-0~ubuntu22.04.1) date 2024-06-15 18:12:37*
%MOMM*%
%LPD*%
G01*
G04 APERTURE LIST*
%ADD10C,0.050000*%
%ADD11C,0.200000*%
%ADD12C,0.100000*%
G04 APERTURE END LIST*
D10*
X14720000Y-8680000D02*
X14720000Y-8250000D01*
X15760000Y-8680000D02*
X15760000Y-8250000D01*
X14720000Y-8250000D02*
X15760000Y-8250000D01*
X15760000Y-8680000D02*
G75*
G02*
X14720000Y-8680000I-520000J0D01*
G01*
D11*
D12*
X14765000Y-8585000D02*
X14795000Y-8615000D01*
X14795000Y-8585000D02*
X14765000Y-8615000D01*
X14935000Y-8885000D02*
X14965000Y-8915000D01*
X14965000Y-8885000D02*
X14935000Y-8915000D01*
X15016166Y-8642683D02*
X15046166Y-8672683D01*
X15046166Y-8642683D02*
X15016166Y-8672683D01*
X15056767Y-8943835D02*
X15086767Y-8973835D01*
X15086767Y-8943835D02*
X15056767Y-8973835D01*
X15305000Y-8435000D02*
X15335000Y-8465000D01*
X15335000Y-8435000D02*
X15305000Y-8465000D01*
X15315000Y-8955000D02*
X15345000Y-8985000D01*
X15345000Y-8955000D02*
X15315000Y-8985000D01*
X15425000Y-9045000D02*
X15455000Y-9075000D01*
X15455000Y-9045000D02*
X15425000Y-9075000D01*
X15475000Y-8945000D02*
X15505000Y-8975000D01*
X15505000Y-8945000D02*
X15475000Y-8975000D01*
X15675000Y-8545000D02*
X15705000Y-8575000D01*
X15705000Y-8545000D02*
X15675000Y-8575000D01*
D11*
X14978277Y-9513984D02*
X14978277Y-9313984D01*
X14978277Y-9313984D02*
X15025896Y-9313984D01*
X15025896Y-9313984D02*
X15054467Y-9323508D01*
X15054467Y-9323508D02*
X15073515Y-9342555D01*
X15073515Y-9342555D02*
X15083039Y-9361603D01*
X15083039Y-9361603D02*
X15092562Y-9399698D01*
X15092562Y-9399698D02*
X15092562Y-9428270D01*
X15092562Y-9428270D02*
X15083039Y-9466365D01*
X15083039Y-9466365D02*
X15073515Y-9485412D01*
X15073515Y-9485412D02*
X15054467Y-9504460D01*
X15054467Y-9504460D02*
X15025896Y-9513984D01*
X15025896Y-9513984D02*
X14978277Y-9513984D01*
X15178277Y-9513984D02*
X15178277Y-9380650D01*
X15178277Y-9418746D02*
X15187801Y-9399698D01*
X15187801Y-9399698D02*
X15197324Y-9390174D01*
X15197324Y-9390174D02*
X15216372Y-9380650D01*
X15216372Y-9380650D02*
X15235420Y-9380650D01*
X15302086Y-9513984D02*
X15302086Y-9380650D01*
X15302086Y-9313984D02*
X15292562Y-9323508D01*
X15292562Y-9323508D02*
X15302086Y-9333031D01*
X15302086Y-9333031D02*
X15311610Y-9323508D01*
X15311610Y-9323508D02*
X15302086Y-9313984D01*
X15302086Y-9313984D02*
X15302086Y-9333031D01*
X15425896Y-9513984D02*
X15406848Y-9504460D01*
X15406848Y-9504460D02*
X15397324Y-9485412D01*
X15397324Y-9485412D02*
X15397324Y-9313984D01*
X15530658Y-9513984D02*
X15511610Y-9504460D01*
X15511610Y-9504460D02*
X15502086Y-9485412D01*
X15502086Y-9485412D02*
X15502086Y-9313984D01*
X15759229Y-9513984D02*
X15759229Y-9313984D01*
X15759229Y-9313984D02*
X15825896Y-9456841D01*
X15825896Y-9456841D02*
X15892562Y-9313984D01*
X15892562Y-9313984D02*
X15892562Y-9513984D01*
X16073515Y-9513984D02*
X16073515Y-9409222D01*
X16073515Y-9409222D02*
X16063991Y-9390174D01*
X16063991Y-9390174D02*
X16044943Y-9380650D01*
X16044943Y-9380650D02*
X16006848Y-9380650D01*
X16006848Y-9380650D02*
X15987801Y-9390174D01*
X16073515Y-9504460D02*
X16054467Y-9513984D01*
X16054467Y-9513984D02*
X16006848Y-9513984D01*
X16006848Y-9513984D02*
X15987801Y-9504460D01*
X15987801Y-9504460D02*
X15978277Y-9485412D01*
X15978277Y-9485412D02*
X15978277Y-9466365D01*
X15978277Y-9466365D02*
X15987801Y-9447317D01*
X15987801Y-9447317D02*
X16006848Y-9437793D01*
X16006848Y-9437793D02*
X16054467Y-9437793D01*
X16054467Y-9437793D02*
X16073515Y-9428270D01*
X16168753Y-9380650D02*
X16168753Y-9580650D01*
X16168753Y-9390174D02*
X16187801Y-9380650D01*
X16187801Y-9380650D02*
X16225896Y-9380650D01*
X16225896Y-9380650D02*
X16244943Y-9390174D01*
X16244943Y-9390174D02*
X16254467Y-9399698D01*
X16254467Y-9399698D02*
X16263991Y-9418746D01*
X16263991Y-9418746D02*
X16263991Y-9475889D01*
X16263991Y-9475889D02*
X16254467Y-9494936D01*
X16254467Y-9494936D02*
X16244943Y-9504460D01*
X16244943Y-9504460D02*
X16225896Y-9513984D01*
X16225896Y-9513984D02*
X16187801Y-9513984D01*
X16187801Y-9513984D02*
X16168753Y-9504460D01*
X16349705Y-9494936D02*
X16359229Y-9504460D01*
X16359229Y-9504460D02*
X16349705Y-9513984D01*
X16349705Y-9513984D02*
X16340182Y-9504460D01*
X16340182Y-9504460D02*
X16349705Y-9494936D01*
X16349705Y-9494936D02*
X16349705Y-9513984D01*
X16349705Y-9390174D02*
X16359229Y-9399698D01*
X16359229Y-9399698D02*
X16349705Y-9409222D01*
X16349705Y-9409222D02*
X16340182Y-9399698D01*
X16340182Y-9399698D02*
X16349705Y-9390174D01*
X16349705Y-9390174D02*
X16349705Y-9409222D01*
D12*
X14687500Y-9827500D02*
X14717500Y-9857500D01*
X14717500Y-9827500D02*
X14687500Y-9857500D01*
D11*
X15016372Y-9733984D02*
X15035420Y-9733984D01*
X15035420Y-9733984D02*
X15054467Y-9743508D01*
X15054467Y-9743508D02*
X15063991Y-9753031D01*
X15063991Y-9753031D02*
X15073515Y-9772079D01*
X15073515Y-9772079D02*
X15083039Y-9810174D01*
X15083039Y-9810174D02*
X15083039Y-9857793D01*
X15083039Y-9857793D02*
X15073515Y-9895889D01*
X15073515Y-9895889D02*
X15063991Y-9914936D01*
X15063991Y-9914936D02*
X15054467Y-9924460D01*
X15054467Y-9924460D02*
X15035420Y-9933984D01*
X15035420Y-9933984D02*
X15016372Y-9933984D01*
X15016372Y-9933984D02*
X14997324Y-9924460D01*
X14997324Y-9924460D02*
X14987801Y-9914936D01*
X14987801Y-9914936D02*
X14978277Y-9895889D01*
X14978277Y-9895889D02*
X14968753Y-9857793D01*
X14968753Y-9857793D02*
X14968753Y-9810174D01*
X14968753Y-9810174D02*
X14978277Y-9772079D01*
X14978277Y-9772079D02*
X14987801Y-9753031D01*
X14987801Y-9753031D02*
X14997324Y-9743508D01*
X14997324Y-9743508D02*
X15016372Y-9733984D01*
X15168753Y-9914936D02*
X15178277Y-9924460D01*
X15178277Y-9924460D02*
X15168753Y-9933984D01*
X15168753Y-9933984D02*
X15159229Y-9924460D01*
X15159229Y-9924460D02*
X15168753Y-9914936D01*
X15168753Y-9914936D02*
X15168753Y-9933984D01*
X15244943Y-9733984D02*
X15368753Y-9733984D01*
X15368753Y-9733984D02*
X15302086Y-9810174D01*
X15302086Y-9810174D02*
X15330658Y-9810174D01*
X15330658Y-9810174D02*
X15349705Y-9819698D01*
X15349705Y-9819698D02*
X15359229Y-9829222D01*
X15359229Y-9829222D02*
X15368753Y-9848270D01*
X15368753Y-9848270D02*
X15368753Y-9895889D01*
X15368753Y-9895889D02*
X15359229Y-9914936D01*
X15359229Y-9914936D02*
X15349705Y-9924460D01*
X15349705Y-9924460D02*
X15330658Y-9933984D01*
X15330658Y-9933984D02*
X15273515Y-9933984D01*
X15273515Y-9933984D02*
X15254467Y-9924460D01*
X15254467Y-9924460D02*
X15244943Y-9914936D01*
X15492562Y-9733984D02*
X15511610Y-9733984D01*
X15511610Y-9733984D02*
X15530658Y-9743508D01*
X15530658Y-9743508D02*
X15540182Y-9753031D01*
X15540182Y-9753031D02*
X15549705Y-9772079D01*
X15549705Y-9772079D02*
X15559229Y-9810174D01*
X15559229Y-9810174D02*
X15559229Y-9857793D01*
X15559229Y-9857793D02*
X15549705Y-9895889D01*
X15549705Y-9895889D02*
X15540182Y-9914936D01*
X15540182Y-9914936D02*
X15530658Y-9924460D01*
X15530658Y-9924460D02*
X15511610Y-9933984D01*
X15511610Y-9933984D02*
X15492562Y-9933984D01*
X15492562Y-9933984D02*
X15473515Y-9924460D01*
X15473515Y-9924460D02*
X15463991Y-9914936D01*
X15463991Y-9914936D02*
X15454467Y-9895889D01*
X15454467Y-9895889D02*
X15444943Y-9857793D01*
X15444943Y-9857793D02*
X15444943Y-9810174D01*
X15444943Y-9810174D02*
X15454467Y-9772079D01*
X15454467Y-9772079D02*
X15463991Y-9753031D01*
X15463991Y-9753031D02*
X15473515Y-9743508D01*
X15473515Y-9743508D02*
X15492562Y-9733984D01*
X15683039Y-9733984D02*
X15702086Y-9733984D01*
X15702086Y-9733984D02*
X15721134Y-9743508D01*
X15721134Y-9743508D02*
X15730658Y-9753031D01*
X15730658Y-9753031D02*
X15740182Y-9772079D01*
X15740182Y-9772079D02*
X15749705Y-9810174D01*
X15749705Y-9810174D02*
X15749705Y-9857793D01*
X15749705Y-9857793D02*
X15740182Y-9895889D01*
X15740182Y-9895889D02*
X15730658Y-9914936D01*
X15730658Y-9914936D02*
X15721134Y-9924460D01*
X15721134Y-9924460D02*
X15702086Y-9933984D01*
X15702086Y-9933984D02*
X15683039Y-9933984D01*
X15683039Y-9933984D02*
X15663991Y-9924460D01*
X15663991Y-9924460D02*
X15654467Y-9914936D01*
X15654467Y-9914936D02*
X15644943Y-9895889D01*
X15644943Y-9895889D02*
X15635420Y-9857793D01*
X15635420Y-9857793D02*
X15635420Y-9810174D01*
X15635420Y-9810174D02*
X15644943Y-9772079D01*
X15644943Y-9772079D02*
X15654467Y-9753031D01*
X15654467Y-9753031D02*
X15663991Y-9743508D01*
X15663991Y-9743508D02*
X15683039Y-9733984D01*
X15835420Y-9933984D02*
X15835420Y-9800650D01*
X15835420Y-9819698D02*
X15844943Y-9810174D01*
X15844943Y-9810174D02*
X15863991Y-9800650D01*
X15863991Y-9800650D02*
X15892563Y-9800650D01*
X15892563Y-9800650D02*
X15911610Y-9810174D01*
X15911610Y-9810174D02*
X15921134Y-9829222D01*
X15921134Y-9829222D02*
X15921134Y-9933984D01*
X15921134Y-9829222D02*
X15930658Y-9810174D01*
X15930658Y-9810174D02*
X15949705Y-9800650D01*
X15949705Y-9800650D02*
X15978277Y-9800650D01*
X15978277Y-9800650D02*
X15997324Y-9810174D01*
X15997324Y-9810174D02*
X16006848Y-9829222D01*
X16006848Y-9829222D02*
X16006848Y-9933984D01*
X16102086Y-9933984D02*
X16102086Y-9800650D01*
X16102086Y-9819698D02*
X16111610Y-9810174D01*
X16111610Y-9810174D02*
X16130658Y-9800650D01*
X16130658Y-9800650D02*
X16159229Y-9800650D01*
X16159229Y-9800650D02*
X16178277Y-9810174D01*
X16178277Y-9810174D02*
X16187801Y-9829222D01*
X16187801Y-9829222D02*
X16187801Y-9933984D01*
X16187801Y-9829222D02*
X16197324Y-9810174D01*
X16197324Y-9810174D02*
X16216372Y-9800650D01*
X16216372Y-9800650D02*
X16244943Y-9800650D01*
X16244943Y-9800650D02*
X16263991Y-9810174D01*
X16263991Y-9810174D02*
X16273515Y-9829222D01*
X16273515Y-9829222D02*
X16273515Y-9933984D01*
X16663991Y-9724460D02*
X16492563Y-9981603D01*
X16921134Y-9733984D02*
X16940182Y-9733984D01*
X16940182Y-9733984D02*
X16959229Y-9743508D01*
X16959229Y-9743508D02*
X16968753Y-9753031D01*
X16968753Y-9753031D02*
X16978277Y-9772079D01*
X16978277Y-9772079D02*
X16987801Y-9810174D01*
X16987801Y-9810174D02*
X16987801Y-9857793D01*
X16987801Y-9857793D02*
X16978277Y-9895889D01*
X16978277Y-9895889D02*
X16968753Y-9914936D01*
X16968753Y-9914936D02*
X16959229Y-9924460D01*
X16959229Y-9924460D02*
X16940182Y-9933984D01*
X16940182Y-9933984D02*
X16921134Y-9933984D01*
X16921134Y-9933984D02*
X16902087Y-9924460D01*
X16902087Y-9924460D02*
X16892563Y-9914936D01*
X16892563Y-9914936D02*
X16883039Y-9895889D01*
X16883039Y-9895889D02*
X16873515Y-9857793D01*
X16873515Y-9857793D02*
X16873515Y-9810174D01*
X16873515Y-9810174D02*
X16883039Y-9772079D01*
X16883039Y-9772079D02*
X16892563Y-9753031D01*
X16892563Y-9753031D02*
X16902087Y-9743508D01*
X16902087Y-9743508D02*
X16921134Y-9733984D01*
X17073515Y-9914936D02*
X17083039Y-9924460D01*
X17083039Y-9924460D02*
X17073515Y-9933984D01*
X17073515Y-9933984D02*
X17063991Y-9924460D01*
X17063991Y-9924460D02*
X17073515Y-9914936D01*
X17073515Y-9914936D02*
X17073515Y-9933984D01*
X17206848Y-9733984D02*
X17225896Y-9733984D01*
X17225896Y-9733984D02*
X17244944Y-9743508D01*
X17244944Y-9743508D02*
X17254468Y-9753031D01*
X17254468Y-9753031D02*
X17263991Y-9772079D01*
X17263991Y-9772079D02*
X17273515Y-9810174D01*
X17273515Y-9810174D02*
X17273515Y-9857793D01*
X17273515Y-9857793D02*
X17263991Y-9895889D01*
X17263991Y-9895889D02*
X17254468Y-9914936D01*
X17254468Y-9914936D02*
X17244944Y-9924460D01*
X17244944Y-9924460D02*
X17225896Y-9933984D01*
X17225896Y-9933984D02*
X17206848Y-9933984D01*
X17206848Y-9933984D02*
X17187801Y-9924460D01*
X17187801Y-9924460D02*
X17178277Y-9914936D01*
X17178277Y-9914936D02*
X17168753Y-9895889D01*
X17168753Y-9895889D02*
X17159229Y-9857793D01*
X17159229Y-9857793D02*
X17159229Y-9810174D01*
X17159229Y-9810174D02*
X17168753Y-9772079D01*
X17168753Y-9772079D02*
X17178277Y-9753031D01*
X17178277Y-9753031D02*
X17187801Y-9743508D01*
X17187801Y-9743508D02*
X17206848Y-9733984D01*
X17463991Y-9933984D02*
X17349706Y-9933984D01*
X17406848Y-9933984D02*
X17406848Y-9733984D01*
X17406848Y-9733984D02*
X17387801Y-9762555D01*
X17387801Y-9762555D02*
X17368753Y-9781603D01*
X17368753Y-9781603D02*
X17349706Y-9791127D01*
X17654468Y-9933984D02*
X17540182Y-9933984D01*
X17597325Y-9933984D02*
X17597325Y-9733984D01*
X17597325Y-9733984D02*
X17578277Y-9762555D01*
X17578277Y-9762555D02*
X17559229Y-9781603D01*
X17559229Y-9781603D02*
X17540182Y-9791127D01*
X17768753Y-9819698D02*
X17749706Y-9810174D01*
X17749706Y-9810174D02*
X17740182Y-9800650D01*
X17740182Y-9800650D02*
X17730658Y-9781603D01*
X17730658Y-9781603D02*
X17730658Y-9772079D01*
X17730658Y-9772079D02*
X17740182Y-9753031D01*
X17740182Y-9753031D02*
X17749706Y-9743508D01*
X17749706Y-9743508D02*
X17768753Y-9733984D01*
X17768753Y-9733984D02*
X17806849Y-9733984D01*
X17806849Y-9733984D02*
X17825896Y-9743508D01*
X17825896Y-9743508D02*
X17835420Y-9753031D01*
X17835420Y-9753031D02*
X17844944Y-9772079D01*
X17844944Y-9772079D02*
X17844944Y-9781603D01*
X17844944Y-9781603D02*
X17835420Y-9800650D01*
X17835420Y-9800650D02*
X17825896Y-9810174D01*
X17825896Y-9810174D02*
X17806849Y-9819698D01*
X17806849Y-9819698D02*
X17768753Y-9819698D01*
X17768753Y-9819698D02*
X17749706Y-9829222D01*
X17749706Y-9829222D02*
X17740182Y-9838746D01*
X17740182Y-9838746D02*
X17730658Y-9857793D01*
X17730658Y-9857793D02*
X17730658Y-9895889D01*
X17730658Y-9895889D02*
X17740182Y-9914936D01*
X17740182Y-9914936D02*
X17749706Y-9924460D01*
X17749706Y-9924460D02*
X17768753Y-9933984D01*
X17768753Y-9933984D02*
X17806849Y-9933984D01*
X17806849Y-9933984D02*
X17825896Y-9924460D01*
X17825896Y-9924460D02*
X17835420Y-9914936D01*
X17835420Y-9914936D02*
X17844944Y-9895889D01*
X17844944Y-9895889D02*
X17844944Y-9857793D01*
X17844944Y-9857793D02*
X17835420Y-9838746D01*
X17835420Y-9838746D02*
X17825896Y-9829222D01*
X17825896Y-9829222D02*
X17806849Y-9819698D01*
X17921134Y-9733984D02*
X17921134Y-9772079D01*
X17997325Y-9733984D02*
X17997325Y-9772079D01*
X18292563Y-10010174D02*
X18283039Y-10000650D01*
X18283039Y-10000650D02*
X18263991Y-9972079D01*
X18263991Y-9972079D02*
X18254468Y-9953031D01*
X18254468Y-9953031D02*
X18244944Y-9924460D01*
X18244944Y-9924460D02*
X18235420Y-9876841D01*
X18235420Y-9876841D02*
X18235420Y-9838746D01*
X18235420Y-9838746D02*
X18244944Y-9791127D01*
X18244944Y-9791127D02*
X18254468Y-9762555D01*
X18254468Y-9762555D02*
X18263991Y-9743508D01*
X18263991Y-9743508D02*
X18283039Y-9714936D01*
X18283039Y-9714936D02*
X18292563Y-9705412D01*
X18378277Y-9933984D02*
X18416372Y-9933984D01*
X18416372Y-9933984D02*
X18435420Y-9924460D01*
X18435420Y-9924460D02*
X18444944Y-9914936D01*
X18444944Y-9914936D02*
X18463991Y-9886365D01*
X18463991Y-9886365D02*
X18473515Y-9848270D01*
X18473515Y-9848270D02*
X18473515Y-9772079D01*
X18473515Y-9772079D02*
X18463991Y-9753031D01*
X18463991Y-9753031D02*
X18454468Y-9743508D01*
X18454468Y-9743508D02*
X18435420Y-9733984D01*
X18435420Y-9733984D02*
X18397325Y-9733984D01*
X18397325Y-9733984D02*
X18378277Y-9743508D01*
X18378277Y-9743508D02*
X18368753Y-9753031D01*
X18368753Y-9753031D02*
X18359230Y-9772079D01*
X18359230Y-9772079D02*
X18359230Y-9819698D01*
X18359230Y-9819698D02*
X18368753Y-9838746D01*
X18368753Y-9838746D02*
X18378277Y-9848270D01*
X18378277Y-9848270D02*
X18397325Y-9857793D01*
X18397325Y-9857793D02*
X18435420Y-9857793D01*
X18435420Y-9857793D02*
X18454468Y-9848270D01*
X18454468Y-9848270D02*
X18463991Y-9838746D01*
X18463991Y-9838746D02*
X18473515Y-9819698D01*
X18711611Y-9933984D02*
X18711611Y-9733984D01*
X18797325Y-9933984D02*
X18797325Y-9829222D01*
X18797325Y-9829222D02*
X18787801Y-9810174D01*
X18787801Y-9810174D02*
X18768753Y-9800650D01*
X18768753Y-9800650D02*
X18740182Y-9800650D01*
X18740182Y-9800650D02*
X18721134Y-9810174D01*
X18721134Y-9810174D02*
X18711611Y-9819698D01*
X18921134Y-9933984D02*
X18902087Y-9924460D01*
X18902087Y-9924460D02*
X18892563Y-9914936D01*
X18892563Y-9914936D02*
X18883039Y-9895889D01*
X18883039Y-9895889D02*
X18883039Y-9838746D01*
X18883039Y-9838746D02*
X18892563Y-9819698D01*
X18892563Y-9819698D02*
X18902087Y-9810174D01*
X18902087Y-9810174D02*
X18921134Y-9800650D01*
X18921134Y-9800650D02*
X18949706Y-9800650D01*
X18949706Y-9800650D02*
X18968753Y-9810174D01*
X18968753Y-9810174D02*
X18978277Y-9819698D01*
X18978277Y-9819698D02*
X18987801Y-9838746D01*
X18987801Y-9838746D02*
X18987801Y-9895889D01*
X18987801Y-9895889D02*
X18978277Y-9914936D01*
X18978277Y-9914936D02*
X18968753Y-9924460D01*
X18968753Y-9924460D02*
X18949706Y-9933984D01*
X18949706Y-9933984D02*
X18921134Y-9933984D01*
X19102087Y-9933984D02*
X19083039Y-9924460D01*
X19083039Y-9924460D02*
X19073515Y-9905412D01*
X19073515Y-9905412D02*
X19073515Y-9733984D01*
X19254468Y-9924460D02*
X19235420Y-9933984D01*
X19235420Y-9933984D02*
X19197325Y-9933984D01*
X19197325Y-9933984D02*
X19178277Y-9924460D01*
X19178277Y-9924460D02*
X19168753Y-9905412D01*
X19168753Y-9905412D02*
X19168753Y-9829222D01*
X19168753Y-9829222D02*
X19178277Y-9810174D01*
X19178277Y-9810174D02*
X19197325Y-9800650D01*
X19197325Y-9800650D02*
X19235420Y-9800650D01*
X19235420Y-9800650D02*
X19254468Y-9810174D01*
X19254468Y-9810174D02*
X19263992Y-9829222D01*
X19263992Y-9829222D02*
X19263992Y-9848270D01*
X19263992Y-9848270D02*
X19168753Y-9867317D01*
X19340182Y-9924460D02*
X19359230Y-9933984D01*
X19359230Y-9933984D02*
X19397325Y-9933984D01*
X19397325Y-9933984D02*
X19416373Y-9924460D01*
X19416373Y-9924460D02*
X19425896Y-9905412D01*
X19425896Y-9905412D02*
X19425896Y-9895889D01*
X19425896Y-9895889D02*
X19416373Y-9876841D01*
X19416373Y-9876841D02*
X19397325Y-9867317D01*
X19397325Y-9867317D02*
X19368753Y-9867317D01*
X19368753Y-9867317D02*
X19349706Y-9857793D01*
X19349706Y-9857793D02*
X19340182Y-9838746D01*
X19340182Y-9838746D02*
X19340182Y-9829222D01*
X19340182Y-9829222D02*
X19349706Y-9810174D01*
X19349706Y-9810174D02*
X19368753Y-9800650D01*
X19368753Y-9800650D02*
X19397325Y-9800650D01*
X19397325Y-9800650D02*
X19416373Y-9810174D01*
X19492563Y-10010174D02*
X19502087Y-10000650D01*
X19502087Y-10000650D02*
X19521134Y-9972079D01*
X19521134Y-9972079D02*
X19530658Y-9953031D01*
X19530658Y-9953031D02*
X19540182Y-9924460D01*
X19540182Y-9924460D02*
X19549706Y-9876841D01*
X19549706Y-9876841D02*
X19549706Y-9838746D01*
X19549706Y-9838746D02*
X19540182Y-9791127D01*
X19540182Y-9791127D02*
X19530658Y-9762555D01*
X19530658Y-9762555D02*
X19521134Y-9743508D01*
X19521134Y-9743508D02*
X19502087Y-9714936D01*
X19502087Y-9714936D02*
X19492563Y-9705412D01*
M02*
