  0
SECTION
  2
HEADER
  9
$ACADVER
  1
AC1014
  9
$ACADMAINTVER
 70
     9
  9
$DWGCODEPAGE
  3
ANSI_1252
  9
$INSBASE
 10
0.0
 20
0.0
 30
0.0
  9
$EXTMIN
 10
0.038
 20
0.019
 30
0.0
  9
$EXTMAX
 10
11.0
 20
8.481
 30
0.0
  9
$LIMMIN
 10
0.0
 20
0.0
  9
$LIMMAX
 10
12.0
 20
9.0
  9
$ORTHOMODE
 70
     0
  9
$REGENMODE
 70
     1
  9
$FILLMODE
 70
     1
  9
$QTEXTMODE
 70
     0
  9
$MIRRTEXT
 70
     1
  9
$DRAGMODE
 70
     2
  9
$LTSCALE
 40
0.5
  9
$OSMODE
 70
    23
  9
$ATTMODE
 70
     1
  9
$TEXTSIZE
 40
0.12
  9
$TRACEWID
 40
0.05
  9
$TEXTSTYLE
  7
ONSHAPE-STANDARD
  9
$CLAYER
  8
0
  9
$CELTYPE
  6
BYLAYER
  9
$CECOLOR
 62
   256
  9
$CELTSCALE
 40
1.0
  9
$DELOBJ
 70
     1
  9
$DISPSILH
 70
     0
  9
$DIMSCALE
 40
1.0
  9
$DIMASZ
 40
0.18
  9
$DIMEXO
 40
0.0625
  9
$DIMDLI
 40
0.38
  9
$DIMRND
 40
0.0
  9
$DIMDLE
 40
0.0
  9
$DIMEXE
 40
0.08
  9
$DIMTP
 40
0.0
  9
$DIMTM
 40
0.0
  9
$DIMTXT
 40
0.12
  9
$DIMCEN
 40
0.09
  9
$DIMTSZ
 40
0.0
  9
$DIMTOL
 70
     0
  9
$DIMLIM
 70
     0
  9
$DIMTIH
 70
     1
  9
$DIMTOH
 70
     1
  9
$DIMSE1
 70
     0
  9
$DIMSE2
 70
     0
  9
$DIMTAD
 70
     0
  9
$DIMZIN
 70
    11
  9
$DIMBLK
  1

  9
$DIMASO
 70
     1
  9
$DIMSHO
 70
     1
  9
$DIMPOST
  1

  9
$DIMAPOST
  1

  9
$DIMALT
 70
     0
  9
$DIMALTD
 70
     3
  9
$DIMALTF
 40
25.4
  9
$DIMLFAC
 40
3.175
  9
$DIMTOFL
 70
     0
  9
$DIMTVP
 40
0.0
  9
$DIMTIX
 70
     0
  9
$DIMSOXD
 70
     0
  9
$DIMSAH
 70
     0
  9
$DIMBLK1
  1

  9
$DIMBLK2
  1

  9
$DIMSTYLE
  2
ONSHAPE-STANDARD
  9
$DIMCLRD
 70
     7
  9
$DIMCLRE
 70
     7
  9
$DIMCLRT
 70
     7
  9
$DIMTFAC
 40
1.0
  9
$DIMGAP
 40
0.09
  9
$DIMJUST
 70
     0
  9
$DIMSD1
 70
     0
  9
$DIMSD2
 70
     0
  9
$DIMTOLJ
 70
     1
  9
$DIMTZIN
 70
    11
  9
$DIMALTZ
 70
    11
  9
$DIMALTTZ
 70
     0
  9
$DIMFIT
 70
     3
  9
$DIMUPT
 70
     1
  9
$DIMUNIT
 70
     2
  9
$DIMDEC
 70
     2
  9
$DIMTDEC
 70
     2
  9
$DIMALTU
 70
     2
  9
$DIMALTTD
 70
     3
  9
$DIMTXSTY
  7
ONSHAPE-STANDARD-DIMENSION
  9
$DIMAUNIT
 70
     0
  9
$LUNITS
 70
     2
  9
$LUPREC
 70
     4
  9
$SKETCHINC
 40
0.1
  9
$FILLETRAD
 40
0.5
  9
$AUNITS
 70
     0
  9
$AUPREC
 70
     0
  9
$MENU
  1
.
  9
$ELEVATION
 40
0.0
  9
$PELEVATION
 40
0.0
  9
$THICKNESS
 40
0.0
  9
$LIMCHECK
 70
     0
  9
$CHAMFERA
 40
0.0
  9
$CHAMFERB
 40
0.0
  9
$CHAMFERC
 40
0.0
  9
$CHAMFERD
 40
0.0
  9
$SKPOLY
 70
     0
  9
$TDCREATE
 40
2460540.956954086
  9
$TDUPDATE
 40
2460540.956954491
  9
$TDINDWG
 40
0.0
  9
$TDUSRTIMER
 40
0.0
  9
$USRTIMER
 70
     1
  9
$ANGBASE
 50
0.0
  9
$ANGDIR
 70
     0
  9
$PDMODE
 70
    33
  9
$PDSIZE
 40
0.0393700787401575
  9
$PLINEWID
 40
0.0
  9
$COORDS
 70
     1
  9
$SPLFRAME
 70
     0
  9
$SPLINETYPE
 70
     6
  9
$SPLINESEGS
 70
     8
  9
$ATTDIA
 70
     0
  9
$ATTREQ
 70
     1
  9
$HANDLING
 70
     1
  9
$HANDSEED
  5
257
  9
$SURFTAB1
 70
     6
  9
$SURFTAB2
 70
     6
  9
$SURFTYPE
 70
     6
  9
$SURFU
 70
     6
  9
$SURFV
 70
     6
  9
$UCSNAME
  2

  9
$UCSORG
 10
0.0
 20
0.0
 30
0.0
  9
$UCSXDIR
 10
1.0
 20
0.0
 30
0.0
  9
$UCSYDIR
 10
0.0
 20
1.0
 30
0.0
  9
$PUCSNAME
  2

  9
$PUCSORG
 10
0.0
 20
0.0
 30
0.0
  9
$PUCSXDIR
 10
1.0
 20
0.0
 30
0.0
  9
$PUCSYDIR
 10
0.0
 20
1.0
 30
0.0
  9
$USERI1
 70
     0
  9
$USERI2
 70
     0
  9
$USERI3
 70
     0
  9
$USERI4
 70
     0
  9
$USERI5
 70
     0
  9
$USERR1
 40
0.0
  9
$USERR2
 40
0.0
  9
$USERR3
 40
0.0
  9
$USERR4
 40
0.0
  9
$USERR5
 40
0.0
  9
$WORLDVIEW
 70
     1
  9
$SHADEDGE
 70
     3
  9
$SHADEDIF
 70
    70
  9
$TILEMODE
 70
     1
  9
$MAXACTVP
 70
    64
  9
$PINSBASE
 10
0.0
 20
0.0
 30
0.0
  9
$PLIMCHECK
 70
     0
  9
$PEXTMIN
 10
1.000000000000000E+20
 20
1.000000000000000E+20
 30
1.000000000000000E+20
  9
$PEXTMAX
 10
-1.000000000000000E+20
 20
-1.000000000000000E+20
 30
-1.000000000000000E+20
  9
$PLIMMIN
 10
0.0
 20
0.0
  9
$PLIMMAX
 10
12.0
 20
9.0
  9
$UNITMODE
 70
     0
  9
$VISRETAIN
 70
     1
  9
$PLINEGEN
 70
     0
  9
$PSLTSCALE
 70
     1
  9
$TREEDEPTH
 70
  3020
  9
$PICKSTYLE
 70
     1
  9
$CMLSTYLE
  2
STANDARD
  9
$CMLJUST
 70
     0
  9
$CMLSCALE
 40
1.0
  9
$PROXYGRAPHICS
 70
     1
  9
$MEASUREMENT
 70
     0
  0
ENDSEC
  0
SECTION
  2
CLASSES
  0
CLASS
  1
ACDBDICTIONARYWDFLT
  2
AcDbDictionaryWithDefault
  3
ObjectDBX Classes
 90
        0
280
     0
281
     0
  0
CLASS
  1
VISUALSTYLE
  2
AcDbVisualStyle
  3
ObjectDBX Classes
 90
     4095
280
     0
281
     0
  0
CLASS
  1
MATERIAL
  2
AcDbMaterial
  3
ObjectDBX Classes
 90
     1153
280
     0
281
     0
  0
CLASS
  1
SCALE
  2
AcDbScale
  3
ObjectDBX Classes
 90
     1153
280
     0
281
     0
  0
CLASS
  1
TABLESTYLE
  2
AcDbTableStyle
  3
ObjectDBX Classes
 90
     4095
280
     0
281
     0
  0
CLASS
  1
MLEADERSTYLE
  2
AcDbMLeaderStyle
  3
ACDB_MLEADERSTYLE_CLASS
 90
     4095
280
     0
281
     0
  0
CLASS
  1
SUN
  2
AcDbSun
  3
SCENEOE
 90
     1153
280
     0
281
     0
  0
CLASS
  1
DICTIONARYVAR
  2
AcDbDictionaryVar
  3
ObjectDBX Classes
 90
        0
280
     0
281
     0
  0
CLASS
  1
FIELD
  2
AcDbField
  3
ObjectDBX Classes
 90
     1152
280
     0
281
     0
  0
CLASS
  1
FIELDLIST
  2
AcDbFieldList
  3
ObjectDBX Classes
 90
     1152
280
     0
281
     0
  0
CLASS
  1
DIMASSOC
  2
AcDbDimAssoc
  3
"AcDbDimAssoc|Product Desc:     AcDim ARX App For Dimension|Company:          Autodesk, Inc.|WEB Address:      www.autodesk.com"
 90
        0
280
     0
281
     0
  0
CLASS
  1
BREAKDATA
  2
AcDbBreakData
  3
ObjectDBX Classes
 90
     1024
280
     0
281
     0
  0
CLASS
  1
XRECORD
  2
AcDbXrecord
  3
ObjectDBX Classes
 90
        0
280
     0
281
     0
  0
CLASS
  1
LWPOLYLINE
  2
AcDbPolyline
  3
ObjectDBX Classes
 90
        0
280
     0
281
     1
  0
CLASS
  1
HATCH
  2
AcDbHatch
  3
ObjectDBX Classes
 90
        0
280
     0
281
     1
  0
CLASS
  1
ACDBPLACEHOLDER
  2
AcDbPlaceHolder
  3
ObjectDBX Classes
 90
        0
280
     0
281
     0
  0
CLASS
  1
LAYOUT
  2
AcDbLayout
  3
ObjectDBX Classes
 90
        0
280
     0
281
     0
  0
ENDSEC
  0
SECTION
  2
TABLES
  0
TABLE
  2
VPORT
  5
8
102
{ACAD_XDICTIONARY
360
24B
102
}
330
0
100
AcDbSymbolTable
 70
     1
  0
VPORT
  5
29
330
8
100
AcDbSymbolTableRecord
100
AcDbViewportTableRecord
  2
*ACTIVE
 70
     0
 10
0.0
 20
0.0
 11
1.0
 21
1.0
 12
5.519
 22
4.389959809264305
 13
0.0
 23
0.0
 14
0.5
 24
0.5
 15
0.5
 25
0.5
 16
0.0
 26
0.0
 36
1.0
 17
0.0
 27
0.0
 37
0.0
 40
8.916758010899182
 41
1.253957995308708
 42
50.0
 43
0.0
 44
0.0
 50
0.0
 51
0.0
 71
     0
 72
   100
 73
     1
 74
     3
 75
     0
 76
     0
 77
     0
 78
     0
  0
ENDTAB
  0
TABLE
  2
LTYPE
  5
5
330
0
100
AcDbSymbolTable
 70
     2
  0
LTYPE
  5
14
330
5
100
AcDbSymbolTableRecord
100
AcDbLinetypeTableRecord
  2
BYBLOCK
 70
     0
  3

 72
    65
 73
     0
 40
0.0
  0
LTYPE
  5
15
330
5
100
AcDbSymbolTableRecord
100
AcDbLinetypeTableRecord
  2
BYLAYER
 70
     0
  3

 72
    65
 73
     0
 40
0.0
  0
LTYPE
  5
16
330
5
100
AcDbSymbolTableRecord
100
AcDbLinetypeTableRecord
  2
CONTINUOUS
 70
     0
  3
Solid line
 72
    65
 73
     0
 40
0.0
  0
LTYPE
  5
175
330
5
100
AcDbSymbolTableRecord
100
AcDbLinetypeTableRecord
  2
CENTER
 70
     0
  3
Center line ____ _ ____ _ ____ _
 72
    65
 73
     4
 40
0.7199999999999999
 49
0.45
 74
     0
 49
-0.09
 74
     0
 49
0.09
 74
     0
 49
-0.09
 74
     0
  0
ENDTAB
  0
TABLE
  2
LAYER
  5
2
330
0
100
AcDbSymbolTable
 70
     8
  0
LAYER
  5
10
330
2
100
AcDbSymbolTableRecord
100
AcDbLayerTableRecord
  2
0
 70
     0
 62
     7
  6
CONTINUOUS
  0
LAYER
  5
70
330
2
100
AcDbSymbolTableRecord
100
AcDbLayerTableRecord
  2
DEFPOINTS
 70
     0
 62
     7
  6
CONTINUOUS
  0
LAYER
  5
74
330
2
100
AcDbSymbolTableRecord
100
AcDbLayerTableRecord
  2
VISIBLE
 70
     0
 62
     7
  6
CONTINUOUS
  0
LAYER
  5
C3
330
2
100
AcDbSymbolTableRecord
100
AcDbLayerTableRecord
  2
BORDER_FRAME
 70
     0
 62
     7
  6
CONTINUOUS
  0
LAYER
  5
C9
330
2
100
AcDbSymbolTableRecord
100
AcDbLayerTableRecord
  2
BORDER_ZONES
 70
     0
 62
     7
  6
CONTINUOUS
  0
LAYER
  5
D7
330
2
100
AcDbSymbolTableRecord
100
AcDbLayerTableRecord
  2
TITLE_BLOCK
 70
     0
 62
     7
  6
CONTINUOUS
  0
LAYER
  5
16F
330
2
100
AcDbSymbolTableRecord
100
AcDbLayerTableRecord
  2
ANNOTATION_TEXT
 70
     0
 62
     7
  6
CONTINUOUS
  0
LAYER
  5
174
330
2
100
AcDbSymbolTableRecord
100
AcDbLayerTableRecord
  2
CENTERMARKS
 70
     0
 62
     7
  6
CONTINUOUS
  0
ENDTAB
  0
TABLE
  2
STYLE
  5
3
330
0
100
AcDbSymbolTable
 70
    33
  0
STYLE
  5
11
330
3
100
AcDbSymbolTableRecord
100
AcDbTextStyleTableRecord
  2
STANDARD
 70
     0
 40
0.0
 41
1.0
 50
0.0
 71
     0
 42
0.12
  3
txt
  4

  0
STYLE
  5
71
330
3
100
AcDbSymbolTableRecord
100
AcDbTextStyleTableRecord
  2
ONSHAPE-STANDARD
 70
     0
 40
0.0
 41
1.0
 50
0.0
 71
     0
 42
0.12
  3
NotoSans-Regular.ttf
  4

1001
ACAD
1000
Noto Sans
1071
        0
  0
STYLE
  5
73
330
3
100
AcDbSymbolTableRecord
100
AcDbTextStyleTableRecord
  2
ONSHAPE-STANDARD-DIMENSION
 70
     0
 40
0.0
 41
1.0
 50
0.0
 71
     0
 42
0.12
  3

  4

1001
ACAD
1000
Noto Sans
1071
        0
  0
STYLE
  5
10A
330
3
100
AcDbSymbolTableRecord
100
AcDbTextStyleTableRecord
  2
ONSHAPE-STANDARD-FIELDS
 70
     0
 40
0.0
 41
1.0
 50
0.0
 71
     0
 42
0.12
  3

  4

1001
ACAD
1000
Noto Sans
1071
        0
  0
STYLE
  5
171
330
3
100
AcDbSymbolTableRecord
100
AcDbTextStyleTableRecord
  2
ONSHAPE-STANDARD-VIEW-LABE
 70
     0
 40
0.12
 41
1.0
 50
0.0
 71
     0
 42
0.12
  3
NotoSans-Regular.ttf
  4

1001
ACAD
1000
Noto Sans
1071
        0
  0
STYLE
  5
198
330
3
100
AcDbSymbolTableRecord
100
AcDbTextStyleTableRecord
  2
ONSHAPE-STANDARD-NOTESTYLE
 70
     0
 40
0.12
 41
1.0
 50
0.0
 71
     0
 42
0.12
  3
Noto Sans
  4

1001
ACAD
1000
Noto Sans
1071
        0
  0
STYLE
  5
1DE
330
3
100
AcDbSymbolTableRecord
100
AcDbTextStyleTableRecord
  2
ONSHAPE-STANDARD-BOLD
 70
     0
 40
0.0
 41
1.0
 50
0.0
 71
     0
 42
0.12
  3
NotoSans-Bold.ttf
  4

1001
ACAD
1000
Noto Sans
1071
 33554432
  0
STYLE
  5
1E0
330
3
100
AcDbSymbolTableRecord
100
AcDbTextStyleTableRecord
  2
ONSHAPE-STANDARD-TCFIELDS
 70
     0
 40
0.0
 41
1.0
 50
0.0
 71
     0
 42
0.12
  3
NotoSansTC-Regular.otf
  4

1001
ACAD
1000
Noto Sans TC
1071
        0
  0
STYLE
  5
1E1
330
3
100
AcDbSymbolTableRecord
100
AcDbTextStyleTableRecord
  2
ONSHAPE-STANDARD-SCFIELDS
 70
     0
 40
0.0
 41
1.0
 50
0.0
 71
     0
 42
0.12
  3
NotoSansSC-Regular.otf
  4

1001
ACAD
1000
Noto Sans SC
1071
        0
  0
STYLE
  5
1E2
330
3
100
AcDbSymbolTableRecord
100
AcDbTextStyleTableRecord
  2
ONSHAPE-STANDARD-KOREANFIE
 70
     0
 40
0.0
 41
1.0
 50
0.0
 71
     0
 42
0.12
  3
NotoSansKR-Regular.otf
  4

1001
ACAD
1000
Noto Sans KR
1071
        0
  0
STYLE
  5
1E3
330
3
100
AcDbSymbolTableRecord
100
AcDbTextStyleTableRecord
  2
ONSHAPE-STANDARD-JAPANESEF
 70
     0
 40
0.0
 41
1.0
 50
0.0
 71
     0
 42
0.12
  3
NotoSansJP-Regular.otf
  4

1001
ACAD
1000
Noto Sans JP
1071
        0
  0
STYLE
  5
1E4
330
3
100
AcDbSymbolTableRecord
100
AcDbTextStyleTableRecord
  2
TTFSTYLE
 70
     0
 40
0.0
 41
1.0
 50
0.0
 71
     0
 42
0.12
  3
Verdana.ttf
  4

1001
ACAD
1000
Verdana
1071
       34
  0
STYLE
  5
1E5
330
3
100
AcDbSymbolTableRecord
100
AcDbTextStyleTableRecord
  2
ONSHAPE-STANDARD-GTOLERANC
 70
     0
 40
0.0
 41
1.0
 50
0.0
 71
     0
 42
0.12
  3

  4

1001
ACAD
1000
Noto Sans
1071
        0
  0
STYLE
  5
1E6
330
3
100
AcDbSymbolTableRecord
100
AcDbTextStyleTableRecord
  2
ONSHAPE-STANDARD-TABLE-DAT
 70
     0
 40
0.0
 41
1.0
 50
0.0
 71
     0
 42
0.12
  3
NotoSans-Regular.ttf
  4

1001
ACAD
1000
Noto Sans
1071
        0
  0
STYLE
  5
1E7
330
3
100
AcDbSymbolTableRecord
100
AcDbTextStyleTableRecord
  2
ONSHAPE-STANDARD-TABLE-TIT
 70
     0
 40
0.0
 41
1.0
 50
0.0
 71
     0
 42
0.12
  3
NotoSans-Bold.ttf
  4

1001
ACAD
1000
Noto Sans
1071
 33554432
  0
STYLE
  5
1E8
330
3
100
AcDbSymbolTableRecord
100
AcDbTextStyleTableRecord
  2
ONSHAPE-STANDARD-TABLE-HEA
 70
     0
 40
0.0
 41
1.0
 50
0.0
 71
     0
 42
0.12
  3
NotoSans-Bold.ttf
  4

1001
ACAD
1000
Noto Sans
1071
 33554432
  0
STYLE
  5
1E9
330
3
100
AcDbSymbolTableRecord
100
AcDbTextStyleTableRecord
  2
ONSHAPE-STANDARD-BOMTABLE-
 70
     0
 40
0.0
 41
1.0
 50
0.0
 71
     0
 42
0.12
  3
NotoSans-Regular.ttf
  4

1001
ACAD
1000
Noto Sans
1071
        0
  0
STYLE
  5
1EA
330
3
100
AcDbSymbolTableRecord
100
AcDbTextStyleTableRecord
  2
ONSHAPE-STANDARD-BOMTABLE0
 70
     0
 40
0.0
 41
1.0
 50
0.0
 71
     0
 42
0.12
  3
NotoSans-Bold.ttf
  4

1001
ACAD
1000
Noto Sans
1071
 33554432
  0
STYLE
  5
1EB
330
3
100
AcDbSymbolTableRecord
100
AcDbTextStyleTableRecord
  2
ONSHAPE-STANDARD-BOMTABLE1
 70
     0
 40
0.0
 41
1.0
 50
0.0
 71
     0
 42
0.12
  3
NotoSans-Bold.ttf
  4

1001
ACAD
1000
Noto Sans
1071
 33554432
  0
STYLE
  5
1EC
330
3
100
AcDbSymbolTableRecord
100
AcDbTextStyleTableRecord
  2
ONSHAPE-STANDARD-DATUM-DIM
 70
     0
 40
0.12
 41
1.0
 50
0.0
 71
     0
 42
0.12
  3
Noto Sans
  4

1001
ACAD
1000
Noto Sans
1071
        0
  0
STYLE
  5
1EE
330
3
100
AcDbSymbolTableRecord
100
AcDbTextStyleTableRecord
  2
ONSHAPE-DETAIL-VIEW-LEADER
 70
     0
 40
0.12
 41
1.0
 50
0.0
 71
     0
 42
0.12
  3
Noto Sans
  4

1001
ACAD
1000
Noto Sans
1071
        0
  0
STYLE
  5
1EF
330
3
100
AcDbSymbolTableRecord
100
AcDbTextStyleTableRecord
  2
ONSHAPE-STANDARD-HOLE-CALL
 70
     0
 40
0.12
 41
1.0
 50
0.0
 71
     0
 42
0.12
  3
Noto Sans
  4

1001
ACAD
1000
Noto Sans
1071
        0
  0
STYLE
  5
1F0
330
3
100
AcDbSymbolTableRecord
100
AcDbTextStyleTableRecord
  2
ONSHAPE-STANDARD-HOLETABLE
 70
     0
 40
0.0
 41
1.0
 50
0.0
 71
     0
 42
0.12
  3
NotoSans-Regular.ttf
  4

1001
ACAD
1000
Noto Sans
1071
        0
  0
STYLE
  5
1F1
330
3
100
AcDbSymbolTableRecord
100
AcDbTextStyleTableRecord
  2
ONSHAPE-STANDARD-HOLETABL0
 70
     0
 40
0.0
 41
1.0
 50
0.0
 71
     0
 42
0.12
  3
NotoSans-Bold.ttf
  4

1001
ACAD
1000
Noto Sans
1071
 33554432
  0
STYLE
  5
1F2
330
3
100
AcDbSymbolTableRecord
100
AcDbTextStyleTableRecord
  2
ONSHAPE-STANDARD-HOLETABL1
 70
     0
 40
0.0
 41
1.0
 50
0.0
 71
     0
 42
0.12
  3
NotoSans-Bold.ttf
  4

1001
ACAD
1000
Noto Sans
1071
 33554432
  0
STYLE
  5
1F3
330
3
100
AcDbSymbolTableRecord
100
AcDbTextStyleTableRecord
  2
ONSHAPE-STANDARD-HOLE-TAG
 70
     0
 40
0.12
 41
1.0
 50
0.0
 71
     0
 42
0.12
  3
Noto Sans
  4

1001
ACAD
1000
Noto Sans
1071
        0
  0
STYLE
  5
1F4
330
3
100
AcDbSymbolTableRecord
100
AcDbTextStyleTableRecord
  2
ONSHAPE-STANDARD-REVISIONT
 70
     0
 40
0.0
 41
1.0
 50
0.0
 71
     0
 42
0.12
  3
NotoSans-Regular.ttf
  4

1001
ACAD
1000
Noto Sans
1071
        0
  0
STYLE
  5
1F5
330
3
100
AcDbSymbolTableRecord
100
AcDbTextStyleTableRecord
  2
ONSHAPE-STANDARD-REVISION0
 70
     0
 40
0.0
 41
1.0
 50
0.0
 71
     0
 42
0.12
  3
NotoSans-Bold.ttf
  4

1001
ACAD
1000
Noto Sans
1071
 33554432
  0
STYLE
  5
1F6
330
3
100
AcDbSymbolTableRecord
100
AcDbTextStyleTableRecord
  2
ONSHAPE-STANDARD-REVISION1
 70
     0
 40
0.0
 41
1.0
 50
0.0
 71
     0
 42
0.12
  3
NotoSans-Bold.ttf
  4

1001
ACAD
1000
Noto Sans
1071
 33554432
  0
STYLE
  5
1F7
330
3
100
AcDbSymbolTableRecord
100
AcDbTextStyleTableRecord
  2
ONSHAPE-STANDARD-REVISION-
 70
     0
 40
0.12
 41
1.0
 50
0.0
 71
     0
 42
0.12
  3
Noto Sans
  4

1001
ACAD
1000
Noto Sans
1071
        0
  0
STYLE
  5
1F8
330
3
100
AcDbSymbolTableRecord
100
AcDbTextStyleTableRecord
  2
ONSHAPE-STANDARD-CUTLISTTA
 70
     0
 40
0.0
 41
1.0
 50
0.0
 71
     0
 42
0.12
  3
NotoSans-Regular.ttf
  4

1001
ACAD
1000
Noto Sans
1071
        0
  0
STYLE
  5
1F9
330
3
100
AcDbSymbolTableRecord
100
AcDbTextStyleTableRecord
  2
ONSHAPE-STANDARD-CUTLISTT0
 70
     0
 40
0.0
 41
1.0
 50
0.0
 71
     0
 42
0.12
  3
NotoSans-Bold.ttf
  4

1001
ACAD
1000
Noto Sans
1071
 33554432
  0
STYLE
  5
1FA
330
3
100
AcDbSymbolTableRecord
100
AcDbTextStyleTableRecord
  2
ONSHAPE-STANDARD-CUTLISTT1
 70
     0
 40
0.0
 41
1.0
 50
0.0
 71
     0
 42
0.12
  3
NotoSans-Bold.ttf
  4

1001
ACAD
1000
Noto Sans
1071
 33554432
  0
ENDTAB
  0
TABLE
  2
VIEW
  5
6
330
0
100
AcDbSymbolTable
 70
     0
  0
ENDTAB
  0
TABLE
  2
UCS
  5
7
330
0
100
AcDbSymbolTable
 70
     0
  0
ENDTAB
  0
TABLE
  2
APPID
  5
9
330
0
100
AcDbSymbolTable
 70
    10
  0
APPID
  5
12
330
9
100
AcDbSymbolTableRecord
100
AcDbRegAppTableRecord
  2
ACAD
 70
     0
  0
APPID
  5
173
330
9
100
AcDbSymbolTableRecord
100
AcDbRegAppTableRecord
  2
ONSHAPE_NOTES_ANNOTATION_D
 70
     0
  0
APPID
  5
1B0
330
9
100
AcDbSymbolTableRecord
100
AcDbRegAppTableRecord
  2
ACAD_DIMASSOC_CALC_DIMLFAC
 70
     0
  0
APPID
  5
1B1
330
9
100
AcDbSymbolTableRecord
100
AcDbRegAppTableRecord
  2
ACAD_DIMASSOC_DIMLFAC
 70
     0
  0
APPID
  5
1B2
330
9
100
AcDbSymbolTableRecord
100
AcDbRegAppTableRecord
  2
ACAD_DIMASSOC_OVERRIDDEN_D
 70
     0
  0
APPID
  5
1B3
330
9
100
AcDbSymbolTableRecord
100
AcDbRegAppTableRecord
  2
ONSHAPE_DIMENSION_ON_CENTE
 70
     0
  0
APPID
  5
1B4
330
9
100
AcDbSymbolTableRecord
100
AcDbRegAppTableRecord
  2
ONSHAPE_DIMENSION_ON_CENT0
 70
     0
  0
APPID
  5
1A5
330
9
100
AcDbSymbolTableRecord
100
AcDbRegAppTableRecord
  2
INDEX
 70
     0
  0
APPID
  5
1C4
330
9
100
AcDbSymbolTableRecord
100
AcDbRegAppTableRecord
  2
ACAD_DSTYLE_DIMRADIAL_EXTE
 70
     0
  0
APPID
  5
255
330
9
100
AcDbSymbolTableRecord
100
AcDbRegAppTableRecord
  2
ACAD_MLEADERVER
 70
     0
  0
ENDTAB
  0
TABLE
  2
DIMSTYLE
  5
A
330
0
100
AcDbSymbolTable
 70
    17
  0
DIMSTYLE
105
27
330
A
100
AcDbSymbolTableRecord
100
AcDbDimStyleTableRecord
  2
STANDARD
 70
     0
  3

  4

  5

  6

  7

 40
1.0
 41
0.18
 42
0.0625
 43
0.38
 44
0.18
 45
0.0
 46
0.0
 47
0.0
 48
0.0
140
0.18
141
0.09
142
0.0
143
25.4
144
1.0
145
0.0
146
1.0
147
0.09
 71
     0
 72
     0
 73
     1
 74
     1
 75
     0
 76
     0
 77
     0
 78
     0
170
     0
171
     2
172
     0
173
     0
174
     0
175
     0
176
     0
177
     0
178
     0
270
     2
271
     4
272
     4
273
     2
274
     2
340
11
275
     0
280
     0
281
     0
282
     0
283
     1
284
     0
285
     0
286
     0
287
     3
288
     0
  0
DIMSTYLE
105
72
330
A
100
AcDbSymbolTableRecord
100
AcDbDimStyleTableRecord
  2
ONSHAPE-STANDARD
 70
     0
  3

  4

  5

  6

  7

 40
1.0
 41
0.18
 42
0.0625
 43
0.38
 44
0.08
 45
0.0
 46
0.0
 47
0.0
 48
0.0
140
0.12
141
0.09
142
0.0
143
0.0393700787401575
144
25.4
145
0.0
146
1.0
147
0.09
 71
     0
 72
     0
 73
     1
 74
     1
 75
     0
 76
     0
 77
     0
 78
    11
170
     0
171
     3
172
     0
173
     0
174
     0
175
     0
176
     7
177
     7
178
     7
179
     1
270
     2
271
     2
272
     2
273
     2
274
     3
340
73
275
     0
280
     0
281
     0
282
     0
283
     1
284
    11
285
    11
286
     0
287
     3
288
     1
  0
DIMSTYLE
105
1A0
102
{ACAD_REACTORS
330
19A
102
}
330
A
100
AcDbSymbolTableRecord
100
AcDbDimStyleTableRecord
  2
ONSHAPE-STANDARD$0
 70
     0
  3

  4

  5

  6

  7

 40
1.0
 41
0.18
 42
0.0625
 43
0.38
 44
0.08
 45
0.0
 46
0.0
 47
0.0
 48
0.0
140
0.12
141
0.09
142
0.0
143
0.0393700787401575
144
25.4
145
0.0
146
1.0
147
0.09
 71
     0
 72
     0
 73
     1
 74
     1
 75
     0
 76
     0
 77
     0
 78
    11
170
     0
171
     3
172
     0
173
     0
174
     0
175
     0
176
     7
177
     7
178
     7
179
     1
270
     2
271
     2
272
     2
273
     2
274
     3
340
73
275
     0
280
     0
281
     0
282
     0
283
     1
284
    11
285
    11
286
     0
287
     3
288
     1
  0
DIMSTYLE
105
1BA
102
{ACAD_REACTORS
330
1B5
330
1C5
102
}
330
A
100
AcDbSymbolTableRecord
100
AcDbDimStyleTableRecord
  2
ONSHAPE-STANDARD$3
 70
     0
  3

  4

  5

  6

  7

 40
1.0
 41
0.18
 42
0.0625
 43
0.38
 44
0.08
 45
0.0
 46
0.0
 47
0.0
 48
0.0
140
0.12
141
0.0
142
0.0
143
0.0393700787401575
144
25.4
145
0.0
146
1.0
147
0.09
 71
     0
 72
     0
 73
     1
 74
     1
 75
     0
 76
     0
 77
     0
 78
    11
170
     0
171
     3
172
     0
173
     0
174
     0
175
     0
176
     7
177
     7
178
     7
179
     1
270
     2
271
     2
272
     2
273
     2
274
     3
340
73
275
     0
280
     0
281
     0
282
     0
283
     1
284
    11
285
    11
286
     0
287
     3
288
     1
  0
DIMSTYLE
105
1FD
330
A
100
AcDbSymbolTableRecord
100
AcDbDimStyleTableRecord
  2
ANSI
 70
     0
  3

  4
mm
  5

  6

  7

 40
1.0
 41
0.12
 42
0.05
 43
0.5
 44
0.1
 45
0.0
 46
0.0
 47
0.1
 48
0.1
140
0.12
141
0.0
142
0.0
143
0.0393700787401575
144
25.4
145
0.0
146
0.71
147
0.06
 71
     0
 72
     0
 73
     1
 74
     1
 75
     0
 76
     0
 77
     0
 78
    11
170
     0
171
     3
172
     0
173
     0
174
     0
175
     0
176
     7
177
     7
178
     7
270
     2
271
     2
272
     3
273
     2
274
     3
340
11
275
     0
280
     0
281
     0
282
     0
283
     1
284
    11
285
    11
286
     0
287
     3
288
     1
  0
DIMSTYLE
105
1FE
330
A
100
AcDbSymbolTableRecord
100
AcDbDimStyleTableRecord
  2
ANSI$3
 70
     0
  3

  4
mm
  5

  6

  7

 40
1.0
 41
0.12
 42
0.05
 43
0.5
 44
0.1
 45
0.0
 46
0.0
 47
0.1
 48
0.1
140
0.12
141
0.0
142
0.0
143
0.0393700787401575
144
25.4
145
0.0
146
0.71
147
0.06
 71
     0
 72
     0
 73
     1
 74
     1
 75
     0
 76
     0
 77
     0
 78
    11
170
     0
171
     3
172
     0
173
     0
174
     0
175
     0
176
     7
177
     7
178
     7
270
     2
271
     2
272
     3
273
     2
274
     3
340
11
275
     0
280
     0
281
     0
282
     0
283
     1
284
    11
285
    11
286
     0
288
     1
  0
DIMSTYLE
105
1FF
330
A
100
AcDbSymbolTableRecord
100
AcDbDimStyleTableRecord
  2
ANSI$4
 70
     0
  3

  4
mm
  5

  6

  7

 40
1.0
 41
0.12
 42
0.05
 43
0.5
 44
0.1
 45
0.0
 46
0.0
 47
0.1
 48
0.1
140
0.12
141
0.0
142
0.0
143
0.0393700787401575
144
25.4
145
0.0
146
0.71
147
0.06
 71
     0
 72
     0
 73
     1
 74
     1
 75
     0
 76
     0
 77
     0
 78
    11
170
     0
171
     3
172
     0
173
     0
174
     0
175
     0
176
     7
177
     7
178
     7
270
     2
271
     2
272
     3
273
     2
274
     3
340
11
275
     0
280
     0
281
     0
282
     0
283
     1
284
    11
285
    11
286
     0
287
     3
288
     1
  0
DIMSTYLE
105
200
330
A
100
AcDbSymbolTableRecord
100
AcDbDimStyleTableRecord
  2
ANSI$7
 70
     0
  3

  4
mm
  5

  6

  7

 40
1.0
 41
0.12
 42
0.05
 43
0.5
 44
0.1
 45
0.0
 46
0.0
 47
0.1
 48
0.1
140
0.12
141
0.0
142
0.0
143
0.0393700787401575
144
25.4
145
0.0
146
0.71
147
0.06
 71
     0
 72
     0
 73
     1
 74
     1
 75
     0
 76
     0
 77
     0
 78
    11
170
     0
171
     3
172
     0
173
     0
174
     0
175
     0
176
     7
177
     7
178
     7
270
     2
271
     2
272
     3
273
     2
274
     3
340
11
275
     0
280
     0
281
     0
282
     0
283
     1
284
    11
285
    11
286
     0
287
     3
288
     1
  0
DIMSTYLE
105
201
330
A
100
AcDbSymbolTableRecord
100
AcDbDimStyleTableRecord
  2
ANSI$SF
 70
     0
  3

  4
mm
  5

  6

  7

 40
1.0
 41
0.12
 42
0.05
 43
0.5
 44
0.1
 45
0.0
 46
0.0
 47
0.1
 48
0.1
140
0.12
141
0.0
142
0.0
143
0.0393700787401575
144
25.4
145
0.0
146
0.71
147
0.06
 71
     0
 72
     0
 73
     1
 74
     1
 75
     1
 76
     1
 77
     0
 78
    11
170
     0
171
     3
172
     0
173
     0
174
     0
175
     0
176
     7
177
     7
178
     7
270
     2
271
     2
272
     3
273
     2
274
     3
340
11
275
     0
280
     0
281
     0
282
     0
283
     1
284
    11
285
    11
286
     0
287
     3
288
     1
  0
DIMSTYLE
105
202
330
A
100
AcDbSymbolTableRecord
100
AcDbDimStyleTableRecord
  2
ANSI$SH
 70
     0
  3

  4
mm
  5

  6

  7

 40
1.0
 41
0.12
 42
0.05
 43
0.5
 44
0.1
 45
0.0
 46
0.0
 47
0.1
 48
0.1
140
0.12
141
0.0
142
0.0
143
0.0393700787401575
144
25.4
145
0.0
146
0.71
147
0.06
 71
     0
 72
     0
 73
     1
 74
     1
 75
     1
 76
     1
 77
     0
 78
    11
170
     0
171
     3
172
     0
173
     1
174
     0
175
     0
176
     7
177
     7
178
     7
270
     2
271
     2
272
     3
273
     2
274
     3
340
11
275
     0
280
     0
281
     0
282
     0
283
     1
284
    11
285
    11
286
     0
287
     3
288
     1
  0
DIMSTYLE
105
204
330
A
100
AcDbSymbolTableRecord
100
AcDbDimStyleTableRecord
  2
ONSHAPE-STANDARD$2
 70
     0
  3

  4

  5

  6

  7

 40
1.0
 41
0.18
 42
0.0625
 43
0.38
 44
0.08
 45
0.0
 46
0.0
 47
0.0
 48
0.0
140
0.12
141
0.09
142
0.0
143
0.0393700787401575
144
25.4
145
0.0
146
1.0
147
0.09
 71
     0
 72
     0
 73
     1
 74
     1
 75
     0
 76
     0
 77
     0
 78
    11
170
     0
171
     3
172
     0
173
     0
174
     0
175
     0
176
     7
177
     7
178
     7
179
     1
270
     2
271
     2
272
     2
273
     2
274
     3
340
73
275
     0
280
     0
281
     0
282
     0
283
     1
284
    11
285
    11
286
     0
287
     3
288
     1
  0
DIMSTYLE
105
205
330
A
100
AcDbSymbolTableRecord
100
AcDbDimStyleTableRecord
  2
ONSHAPE-STANDARD$4
 70
     0
  3

  4

  5

  6

  7

 40
1.0
 41
0.18
 42
0.0625
 43
0.38
 44
0.08
 45
0.0
 46
0.0
 47
0.0
 48
0.0
140
0.12
141
0.0
142
0.0
143
0.0393700787401575
144
25.4
145
0.0
146
1.0
147
0.09
 71
     0
 72
     0
 73
     1
 74
     1
 75
     0
 76
     0
 77
     0
 78
    11
170
     0
171
     3
172
     0
173
     0
174
     0
175
     0
176
     7
177
     7
178
     7
179
     1
270
     2
271
     2
272
     2
273
     2
274
     3
340
73
275
     0
280
     0
281
     0
282
     0
283
     1
284
    11
285
    11
286
     0
287
     3
288
     1
  0
DIMSTYLE
105
206
330
A
100
AcDbSymbolTableRecord
100
AcDbDimStyleTableRecord
  2
ONSHAPE-STANDARD$6
 70
     0
  3

  4

  5

  6

  7

 40
1.0
 41
0.02
 42
0.0625
 43
0.38
 44
0.08
 45
0.0
 46
0.0
 47
0.0
 48
0.0
140
0.12
141
0.09
142
0.0
143
0.0393700787401575
144
25.4
145
0.0
146
1.0
147
0.09
 71
     0
 72
     0
 73
     1
 74
     1
 75
     0
 76
     0
 77
     0
 78
    11
170
     0
171
     3
172
     0
173
     0
174
     0
175
     0
176
     7
177
     7
178
     7
179
     1
270
     2
271
     2
272
     2
273
     2
274
     3
340
73
275
     0
280
     0
281
     0
282
     0
283
     1
284
    11
285
    11
286
     0
287
     3
288
     1
  0
DIMSTYLE
105
207
330
A
100
AcDbSymbolTableRecord
100
AcDbDimStyleTableRecord
  2
ONSHAPE-STANDARD$7
 70
     0
  3

  4

  5

  6

  7

 40
1.0
 41
0.18
 42
0.0625
 43
0.38
 44
0.08
 45
0.0
 46
0.0
 47
0.0
 48
0.0
140
0.12
141
0.09
142
0.0
143
0.0393700787401575
144
25.4
145
0.0
146
1.0
147
0.09
 71
     0
 72
     0
 73
     1
 74
     1
 75
     0
 76
     0
 77
     0
 78
    11
170
     0
171
     3
172
     0
173
     0
174
     0
175
     0
176
     7
177
     7
178
     7
179
     1
270
     2
271
     2
272
     2
273
     2
274
     3
340
73
275
     0
280
     0
281
     0
282
     0
283
     1
284
    11
285
    11
286
     0
287
     3
288
     1
  0
DIMSTYLE
105
208
330
A
100
AcDbSymbolTableRecord
100
AcDbDimStyleTableRecord
  2
ONSHAPE-STANDARD-GTOLERANC
 70
     0
  3

  4

  5

  6

  7

 40
1.0
 41
0.18
 42
0.0625
 43
0.38
 44
0.08
 45
0.0
 46
0.0
 47
0.0
 48
0.0
140
0.12
141
0.09
142
0.0
143
0.0393700787401575
144
25.4
145
0.0
146
1.0
147
0.09
 71
     0
 72
     0
 73
     1
 74
     1
 75
     0
 76
     0
 77
     0
 78
    11
170
     0
171
     3
172
     0
173
     0
174
     0
175
     0
176
     7
177
     7
178
     7
179
     1
270
     2
271
     2
272
     2
273
     2
274
     3
340
1E5
275
     0
280
     0
281
     0
282
     0
283
     1
284
    11
285
    11
286
     0
287
     3
288
     1
  0
DIMSTYLE
105
20A
330
A
100
AcDbSymbolTableRecord
100
AcDbDimStyleTableRecord
  2
ONSHAPE-ORDINATESTYLE
 70
     0
  3

  4

  5

  6

  7

 40
1.0
 41
0.02
 42
0.0625
 43
0.38
 44
0.08
 45
0.0
 46
0.0
 47
0.0
 48
0.0
140
0.12
141
0.09
142
0.0
143
0.0393700787401575
144
25.4
145
0.0
146
1.0
147
0.09
 71
     0
 72
     0
 73
     1
 74
     1
 75
     0
 76
     0
 77
     0
 78
    11
170
     0
171
     3
172
     0
173
     0
174
     0
175
     0
176
     7
177
     7
178
     7
179
     1
270
     2
271
     2
272
     2
273
     2
274
     3
340
73
275
     0
280
     0
281
     0
282
     0
283
     1
284
    11
285
    11
286
     0
287
     3
288
     1
  0
DIMSTYLE
105
20B
330
A
100
AcDbSymbolTableRecord
100
AcDbDimStyleTableRecord
  2
ONSHAPE-CHAMFERDIMSTYLE
 70
     0
  3

  4

  5

  6

  7

 40
1.0
 41
0.18
 42
0.0625
 43
0.38
 44
0.08
 45
0.0
 46
0.0
 47
0.0
 48
0.0
140
0.12
141
0.09
142
0.0
143
0.0393700787401575
144
25.4
145
0.0
146
1.0
147
0.09
 71
     0
 72
     0
 73
     1
 74
     1
 75
     0
 76
     0
 77
     0
 78
    11
170
     0
171
     3
172
     0
173
     0
174
     0
175
     0
176
     7
177
     7
178
     7
179
     1
270
     2
271
     2
272
     2
273
     2
274
     3
340
73
275
     0
280
     0
281
     0
282
     0
283
     1
284
    11
285
    11
286
     0
287
     3
288
     1
  0
ENDTAB
  0
TABLE
  2
BLOCK_RECORD
  5
1
330
0
100
AcDbSymbolTable
 70
     3
  0
BLOCK_RECORD
  5
1F
330
1
100
AcDbSymbolTableRecord
100
AcDbBlockTableRecord
  2
*MODEL_SPACE
  0
BLOCK_RECORD
  5
1B
330
1
100
AcDbSymbolTableRecord
100
AcDbBlockTableRecord
  2
*PAPER_SPACE
  0
BLOCK_RECORD
  5
1A2
330
1
100
AcDbSymbolTableRecord
100
AcDbBlockTableRecord
  2
*D1
  0
BLOCK_RECORD
  5
1BB
330
1
100
AcDbSymbolTableRecord
100
AcDbBlockTableRecord
  2
*D2
  0
BLOCK_RECORD
  5
1CA
330
1
100
AcDbSymbolTableRecord
100
AcDbBlockTableRecord
  2
*D3
  0
ENDTAB
  0
ENDSEC
  0
SECTION
  2
BLOCKS
  0
BLOCK
  5
20
330
1F
100
AcDbEntity
  8
0
100
AcDbBlockBegin
  2
*MODEL_SPACE
 70
     0
 10
0.0
 20
0.0
 30
0.0
  3
*MODEL_SPACE
  1

  0
ENDBLK
  5
21
330
1F
100
AcDbEntity
  8
0
100
AcDbBlockEnd
  0
BLOCK
  5
1C
330
1B
100
AcDbEntity
 67
     1
  8
0
100
AcDbBlockBegin
  2
*PAPER_SPACE
 70
     0
 10
0.0
 20
0.0
 30
0.0
  3
*PAPER_SPACE
  1

  0
ENDBLK
  5
1D
330
1B
100
AcDbEntity
 67
     1
  8
0
100
AcDbBlockEnd
  0
BLOCK
  5
1A3
330
1A2
100
AcDbEntity
  8
0
100
AcDbBlockBegin
  2
*D1
 70
     1
 10
0.0
 20
0.0
 30
0.0
  3
*D1
  1

  0
LINE
  5
1A4
330
1A2
100
AcDbEntity
  8
ANNOTATION_TEXT
 62
     7
100
AcDbLine
 10
5.607658275232521
 20
4.94718414352792
 30
0.0
 11
5.86646264888487
 21
4.94718414352792
 31
0.0
1001
INDEX
1070
     0
  0
LINE
  5
1A6
330
1A2
100
AcDbEntity
  8
ANNOTATION_TEXT
 62
     7
100
AcDbLine
 10
5.623406306728584
 20
3.907814064787763
 30
0.0
 11
5.86646264888487
 21
3.907814064787763
 31
0.0
1001
INDEX
1070
     1
  0
LINE
  5
1A7
330
1A2
100
AcDbEntity
  8
ANNOTATION_TEXT
 62
     7
100
AcDbLine
 10
5.78646264888487
 20
4.767184143527921
 30
0.0
 11
5.78646264888487
 21
4.719979752783121
 31
0.0
  0
LINE
  5
1A8
330
1A2
100
AcDbEntity
  8
ANNOTATION_TEXT
 62
     7
100
AcDbLine
 10
5.78646264888487
 20
4.087814064787763
 30
0.0
 11
5.78646264888487
 21
4.416383022537889
 31
0.0
  0
SOLID
  5
1A9
330
1A2
100
AcDbEntity
  8
ANNOTATION_TEXT
 62
     7
100
AcDbTrace
 10
5.81646264888487
 20
4.767184143527921
 30
0.0
 11
5.756462648884869
 21
4.767184143527921
 31
0.0
 12
5.78646264888487
 22
4.94718414352792
 32
0.0
 13
5.78646264888487
 23
4.94718414352792
 33
0.0
  0
SOLID
  5
1AA
330
1A2
100
AcDbEntity
  8
ANNOTATION_TEXT
 62
     7
100
AcDbTrace
 10
5.756462648884869
 20
4.087814064787763
 30
0.0
 11
5.81646264888487
 21
4.087814064787763
 31
0.0
 12
5.78646264888487
 22
3.907814064787763
 32
0.0
 13
5.78646264888487
 23
3.907814064787763
 33
0.0
  0
MTEXT
  5
1AB
330
1A2
100
AcDbEntity
  8
ANNOTATION_TEXT
 62
     7
100
AcDbMText
 10
5.78646264888487
 20
4.568181387660505
 30
0.0
 40
0.12
 41
0.0
 71
     5
 72
     1
  1
\A1;3.3
  7
ONSHAPE-STANDARD-DIMENSION
  0
POINT
  5
1AC
330
1A2
100
AcDbEntity
  8
DEFPOINTS
 62
     0
100
AcDbPoint
 10
5.545158275232521
 20
4.94718414352792
 30
0.0
  0
POINT
  5
1AD
330
1A2
100
AcDbEntity
  8
DEFPOINTS
 62
     0
100
AcDbPoint
 10
5.560906306728584
 20
3.907814064787763
 30
0.0
  0
POINT
  5
1AE
330
1A2
100
AcDbEntity
  8
DEFPOINTS
 62
     0
100
AcDbPoint
 10
5.78646264888487
 20
3.907814064787763
 30
0.0
  0
ENDBLK
  5
1AF
330
1A2
100
AcDbEntity
  8
0
100
AcDbBlockEnd
  0
BLOCK
  5
1BC
330
1BB
100
AcDbEntity
  8
0
100
AcDbBlockBegin
  2
*D2
 70
     1
 10
0.0
 20
0.0
 30
0.0
  3
*D2
  1

  0
LINE
  5
1BD
330
1BB
100
AcDbEntity
  8
ANNOTATION_TEXT
 62
     7
100
AcDbLine
 10
5.43402012925847
 20
5.511897165638803
 30
0.0
 11
5.25402012925847
 21
5.511897165638803
 31
0.0
  0
LINE
  5
1BE
330
1BB
100
AcDbEntity
  8
ANNOTATION_TEXT
 62
     7
100
AcDbLine
 10
5.25402012925847
 20
5.511897165638803
 30
0.0
 11
5.252877045278643
 21
5.33190079523369
 31
0.0
  0
MTEXT
  5
1BF
330
1BB
100
AcDbEntity
  8
ANNOTATION_TEXT
 62
     7
100
AcDbMText
 10
5.69727626004866
 20
5.511897165638803
 30
0.0
 40
0.12
 41
0.0
 71
     5
 72
     1
  1
\A1;%%c1.3
  7
ONSHAPE-STANDARD-DIMENSION
  0
SOLID
  5
1C0
330
1BB
100
AcDbEntity
  8
ANNOTATION_TEXT
 62
     7
100
AcDbTrace
 10
5.222877650211124
 20
5.332091309230328
 30
0.0
 11
5.282876440346162
 21
5.331710281237052
 31
0.0
 12
5.251733961298816
 22
5.151904424828575
 32
0.0
 13
5.251733961298816
 23
5.151904424828575
 33
0.0
  0
POINT
  5
1C1
330
1BB
100
AcDbEntity
  8
DEFPOINTS
 62
     0
100
AcDbPoint
 10
5.251733961298816
 20
5.151904424828575
 30
0.0
  0
POINT
  5
1C2
330
1BB
100
AcDbEntity
  8
DEFPOINTS
 62
     0
100
AcDbPoint
 10
5.249133770268589
 20
4.742463862227265
 30
0.0
  0
ENDBLK
  5
1C3
330
1BB
100
AcDbEntity
  8
0
100
AcDbBlockEnd
  0
BLOCK
  5
1CB
330
1CA
100
AcDbEntity
  8
0
100
AcDbBlockBegin
  2
*D3
 70
     1
 10
0.0
 20
0.0
 30
0.0
  3
*D3
  1

  0
LINE
  5
1CC
330
1CA
100
AcDbEntity
  8
ANNOTATION_TEXT
 62
     7
100
AcDbLine
 10
4.975203434770545
 20
5.839724023701379
 30
0.0
 11
4.795203434770537
 21
5.839724023701379
 31
0.0
  0
LINE
  5
1CD
330
1CA
100
AcDbEntity
  8
ANNOTATION_TEXT
 62
     7
100
AcDbLine
 10
4.795203434770537
 20
5.839724023701379
 30
0.0
 11
4.657246354724995
 21
5.724104630581937
 31
0.0
  0
MTEXT
  5
1CE
330
1CA
100
AcDbEntity
  8
ANNOTATION_TEXT
 62
     7
100
AcDbMText
 10
5.241933680002153
 20
5.839724023701379
 30
0.0
 40
0.12
 41
0.0
 71
     5
 72
     1
  1
\A1;%%c1.4
  7
ONSHAPE-STANDARD-DIMENSION
  0
SOLID
  5
1CF
330
1CA
100
AcDbEntity
  8
ANNOTATION_TEXT
 62
     7
100
AcDbTrace
 10
4.637976455871755
 20
5.747097477256195
 30
0.0
 11
4.676516253578235
 21
5.70111178390768
 31
0.0
 12
4.519289274679454
 22
5.608485237462495
 32
0.0
 13
4.519289274679454
 23
5.608485237462495
 33
0.0
  0
POINT
  5
1D0
330
1CA
100
AcDbEntity
  8
DEFPOINTS
 62
     0
100
AcDbPoint
 10
4.519289274679454
 20
5.608485237462495
 30
0.0
  0
POINT
  5
1D1
330
1CA
100
AcDbEntity
  8
DEFPOINTS
 62
     0
100
AcDbPoint
 10
4.181336672643133
 20
5.325253128333503
 30
0.0
  0
ENDBLK
  5
1D2
330
1CA
100
AcDbEntity
  8
0
100
AcDbBlockEnd
  0
ENDSEC
  0
SECTION
  2
ENTITIES
  0
CIRCLE
  5
76
330
1F
100
AcDbEntity
  8
VISIBLE
100
AcDbCircle
 10
5.250433865783703
 20
4.94718414352792
 30
0.0
 40
0.2047244094488189
  0
LINE
  5
77
330
1F
100
AcDbEntity
  8
VISIBLE
100
AcDbLine
 10
5.154772899902836
 20
6.176937926632833
 30
0.0
 11
4.917999956082763
 21
6.090759622802744
 31
0.0
  0
LINE
  5
78
330
1F
100
AcDbEntity
  8
VISIBLE
100
AcDbLine
 10
4.533243922375148
 20
5.950719879078848
 30
0.0
 11
4.479382482481342
 21
6.098702968966393
 31
0.0
  0
LINE
  5
79
330
1F
100
AcDbEntity
  8
VISIBLE
100
AcDbLine
 10
5.154772899902836
 20
6.176937926632833
 30
0.0
 11
5.10091146000903
 21
6.324921016520378
 31
0.0
  0
LINE
  5
7A
330
1F
100
AcDbEntity
  8
VISIBLE
100
AcDbLine
 10
5.456219816129165
 20
5.742797214253567
 30
0.0
 11
5.58286777548464
 21
6.090759622802744
 31
0.0
  0
LINE
  5
7B
330
1F
100
AcDbEntity
  8
VISIBLE
100
AcDbLine
 10
5.967623809192257
 20
5.950719879078848
 30
0.0
 11
6.021485249086062
 21
6.098702968966392
 31
0.0
  0
LINE
  5
7C
330
1F
100
AcDbEntity
  8
VISIBLE
100
AcDbLine
 10
5.967623809192257
 20
5.950719879078848
 30
0.0
 11
5.730850865372185
 21
6.036898182908938
 31
0.0
  0
LINE
  5
7D
330
1F
100
AcDbEntity
  8
VISIBLE
100
AcDbLine
 10
4.869783737121903
 20
5.762790957828231
 30
0.0
 11
4.77001686619522
 21
6.036898182908938
 31
0.0
  0
LINE
  5
7E
330
1F
100
AcDbEntity
  8
VISIBLE
100
AcDbLine
 10
5.346094831664569
 20
6.176937926632833
 30
0.0
 11
5.399956271558375
 21
6.324921016520378
 31
0.0
  0
LINE
  5
7F
330
1F
100
AcDbEntity
  8
VISIBLE
100
AcDbLine
 10
4.77001686619522
 20
6.036898182908938
 30
0.0
 11
4.533243922375148
 21
5.950719879078848
 31
0.0
  0
LINE
  5
80
330
1F
100
AcDbEntity
  8
VISIBLE
100
AcDbLine
 10
5.58286777548464
 20
6.090759622802744
 30
0.0
 11
5.346094831664569
 21
6.176937926632833
 31
0.0
  0
LINE
  5
81
330
1F
100
AcDbEntity
  8
VISIBLE
100
AcDbLine
 10
5.932842133450897
 20
5.432094042797388
 30
0.0
 11
6.240169163833625
 21
5.609529386518105
 31
0.0
  0
LINE
  5
82
330
1F
100
AcDbEntity
  8
VISIBLE
100
AcDbLine
 10
6.360818751322219
 20
5.400558171075634
 30
0.0
 11
6.31890932131394
 21
5.473147433166225
 31
0.0
  0
LINE
  5
83
330
1F
100
AcDbEntity
  8
VISIBLE
100
AcDbLine
 10
6.240169163833625
 20
5.609529386518105
 30
0.0
 11
6.198259733825346
 21
5.682118648608694
 31
0.0
  0
LINE
  5
84
330
1F
100
AcDbEntity
  8
VISIBLE
100
AcDbLine
 10
4.353772580769036
 20
4.869033417752698
 30
0.0
 11
4.066505325024944
 21
4.818380449890936
 31
0.0
  0
LINE
  5
85
330
1F
100
AcDbEntity
  8
VISIBLE
100
AcDbLine
 10
5.581142527201026
 20
3.671499969446423
 30
0.0
 11
5.581142527201026
 21
3.601395295938803
 31
0.0
  0
LINE
  5
86
330
1F
100
AcDbEntity
  8
VISIBLE
100
AcDbLine
 10
5.631083994445502
 20
5.762790957828231
 30
0.0
 11
5.730850865372185
 21
6.036898182908938
 31
0.0
  0
LINE
  5
87
330
1F
100
AcDbEntity
  8
VISIBLE
100
AcDbLine
 10
5.171693708303388
 20
4.113746298340866
 30
0.0
 11
5.171693708303388
 21
3.758875610899433
 31
0.0
  0
LINE
  5
88
330
1F
100
AcDbEntity
  8
VISIBLE
100
AcDbLine
 10
4.022751453486819
 20
5.066520986082988
 30
0.0
 11
4.066505325024944
 21
4.818380449890936
 31
0.0
  0
LINE
  5
89
330
1F
100
AcDbEntity
  8
VISIBLE
100
AcDbLine
 10
6.074582327130196
 20
4.087500193010113
 30
0.0
 11
6.267601399412143
 21
4.249462425372077
 31
0.0
  0
LINE
  5
8A
330
1F
100
AcDbEntity
  8
VISIBLE
100
AcDbLine
 10
6.36326236529301
 20
4.415152078578851
 30
0.0
 11
6.518350200413042
 21
4.387805908867524
 31
0.0
  0
LINE
  5
8B
330
1F
100
AcDbEntity
  8
VISIBLE
100
AcDbLine
 10
4.664305710125078
 20
4.371161747424003
 30
0.0
 11
4.426285404437209
 21
4.087500193010113
 31
0.0
  0
LINE
  5
8C
330
1F
100
AcDbEntity
  8
VISIBLE
100
AcDbLine
 10
5.087874848286831
 20
3.758875610899433
 30
0.0
 11
5.171693708303388
 21
3.758875610899433
 31
0.0
  0
LINE
  5
8D
330
1F
100
AcDbEntity
  8
VISIBLE
100
AcDbLine
 10
4.093851494736272
 20
4.663292614770903
 30
0.0
 11
4.137605366274395
 21
4.41515207857885
 31
0.0
  0
LINE
  5
8E
330
1F
100
AcDbEntity
  8
VISIBLE
100
AcDbLine
 10
4.734422709430835
 20
4.209728055002831
 30
0.0
 11
4.546922324613427
 21
3.986273797783888
 31
0.0
  0
LINE
  5
8F
330
1F
100
AcDbEntity
  8
VISIBLE
100
AcDbLine
 10
5.04464791543824
 20
5.742797214253566
 30
0.0
 11
4.917999956082763
 21
6.090759622802744
 31
0.0
  0
LINE
  5
90
330
1F
100
AcDbEntity
  8
VISIBLE
100
AcDbLine
 10
4.739941396895373
 20
3.824311565421924
 30
0.0
 11
4.638715001669148
 21
3.703674645245707
 31
0.0
  0
LINE
  5
91
330
1F
100
AcDbEntity
  8
VISIBLE
100
AcDbLine
 10
6.14709515079837
 20
4.869033417752698
 30
0.0
 11
6.434362406542461
 21
4.818380449890936
 31
0.0
  0
LINE
  5
92
330
1F
100
AcDbEntity
  8
VISIBLE
100
AcDbLine
 10
4.233266332155262
 20
4.249462425372077
 30
0.0
 11
4.426285404437209
 21
4.087500193010113
 31
0.0
  0
LINE
  5
93
330
1F
100
AcDbEntity
  8
VISIBLE
100
AcDbLine
 10
5.329174023264017
 20
4.113746298340866
 30
0.0
 11
5.329174023264017
 21
3.758875610899433
 31
0.0
  0
LINE
  5
94
330
1F
100
AcDbEntity
  8
VISIBLE
100
AcDbLine
 10
4.546922324613427
 20
3.986273797783888
 30
0.0
 11
4.739941396895373
 21
3.824311565421924
 31
0.0
  0
LINE
  5
95
330
1F
100
AcDbEntity
  8
VISIBLE
100
AcDbLine
 10
3.980304633114694
 20
5.29862412852972
 30
0.0
 11
3.919592204933081
 21
5.33367646528353
 31
0.0
  0
LINE
  5
96
330
1F
100
AcDbEntity
  8
VISIBLE
100
AcDbLine
 10
4.91972520436638
 20
3.671499969446424
 30
0.0
 11
4.91972520436638
 21
3.601395295938802
 31
0.0
  0
LINE
  5
97
330
1F
100
AcDbEntity
  8
VISIBLE
100
AcDbLine
 10
4.458519759779615
 20
4.72759346890619
 30
0.0
 11
4.093851494736272
 21
4.663292614770903
 31
0.0
  0
LINE
  5
98
330
1F
100
AcDbEntity
  8
VISIBLE
100
AcDbLine
 10
4.137605366274395
 20
4.41515207857885
 30
0.0
 11
3.982517531154363
 21
4.387805908867523
 31
0.0
  0
LINE
  5
99
330
1F
100
AcDbEntity
  8
VISIBLE
100
AcDbLine
 10
5.760926334672032
 20
3.824311565421924
 30
0.0
 11
5.953945406953979
 21
3.986273797783887
 31
0.0
  0
LINE
  5
9A
330
1F
100
AcDbEntity
  8
VISIBLE
100
AcDbLine
 10
6.189854437035388
 20
5.871428332607618
 30
0.0
 11
6.250566865217001
 21
5.906480669361428
 31
0.0
  0
LINE
  5
9B
330
1F
100
AcDbEntity
  8
VISIBLE
100
AcDbLine
 10
5.836562021442328
 20
4.371161747424003
 30
0.0
 11
6.074582327130196
 21
4.087500193010113
 31
0.0
  0
LINE
  5
9C
330
1F
100
AcDbEntity
  8
VISIBLE
100
AcDbLine
 10
6.042347971787791
 20
4.72759346890619
 30
0.0
 11
6.407016236831134
 21
4.663292614770903
 31
0.0
  0
LINE
  5
9D
330
1F
100
AcDbEntity
  8
VISIBLE
100
AcDbLine
 10
4.022751453486819
 20
5.066520986082988
 30
0.0
 11
3.867663618366787
 21
5.03917481637166
 31
0.0
  0
LINE
  5
9E
330
1F
100
AcDbEntity
  8
VISIBLE
100
AcDbLine
 10
4.181958410253466
 20
5.473147433166224
 30
0.0
 11
4.140048980245187
 21
5.400558171075634
 31
0.0
  0
LINE
  5
9F
330
1F
100
AcDbEntity
  8
VISIBLE
100
AcDbLine
 10
5.766445022136569
 20
4.209728055002831
 30
0.0
 11
5.953945406953979
 21
3.986273797783887
 31
0.0
  0
LINE
  5
A0
330
1F
100
AcDbEntity
  8
VISIBLE
100
AcDbLine
 10
6.267601399412143
 20
4.249462425372077
 30
0.0
 11
6.36882779463837
 21
4.128825505195859
 31
0.0
  0
LINE
  5
A1
330
1F
100
AcDbEntity
  8
VISIBLE
100
AcDbLine
 10
5.760926334672032
 20
3.824311565421924
 30
0.0
 11
5.862152729898257
 21
3.703674645245707
 31
0.0
  0
LINE
  5
A2
330
1F
100
AcDbEntity
  8
VISIBLE
100
AcDbLine
 10
6.434362406542461
 20
4.818380449890936
 30
0.0
 11
6.478116278080585
 21
5.066520986082988
 31
0.0
  0
LINE
  5
A3
330
1F
100
AcDbEntity
  8
VISIBLE
100
AcDbLine
 10
6.36326236529301
 20
4.415152078578851
 30
0.0
 11
6.407016236831134
 21
4.663292614770903
 31
0.0
  0
LINE
  5
A4
330
1F
100
AcDbEntity
  8
VISIBLE
100
AcDbLine
 10
6.011582290931211
 20
5.295712089445508
 30
0.0
 11
6.31890932131394
 21
5.473147433166225
 31
0.0
  0
LINE
  5
A5
330
1F
100
AcDbEntity
  8
VISIBLE
100
AcDbLine
 10
6.478116278080585
 20
5.066520986082988
 30
0.0
 11
6.633204113200618
 21
5.039174816371661
 31
0.0
  0
LINE
  5
A6
330
1F
100
AcDbEntity
  8
VISIBLE
100
AcDbLine
 10
4.311013294532017
 20
5.871428332607617
 30
0.0
 11
4.250300866350404
 21
5.906480669361427
 31
0.0
  0
LINE
  5
A7
330
1F
100
AcDbEntity
  8
VISIBLE
100
AcDbLine
 10
5.329174023264017
 20
3.758875610899433
 30
0.0
 11
5.412992883280574
 21
3.758875610899433
 31
0.0
  0
LINE
  5
A8
330
1F
100
AcDbEntity
  8
VISIBLE
100
AcDbLine
 10
4.302607997742058
 20
5.682118648608694
 30
0.0
 11
4.260698567733781
 21
5.609529386518104
 31
0.0
  0
LINE
  5
A9
330
1F
100
AcDbEntity
  8
VISIBLE
100
AcDbLine
 10
4.233266332155262
 20
4.249462425372077
 30
0.0
 11
4.132039936929036
 21
4.128825505195859
 31
0.0
  0
LINE
  5
AA
330
1F
100
AcDbEntity
  8
VISIBLE
100
AcDbLine
 10
4.568025598116509
 20
5.432094042797388
 30
0.0
 11
4.260698567733781
 21
5.609529386518104
 31
0.0
  0
LINE
  5
AB
330
1F
100
AcDbEntity
  8
VISIBLE
100
AcDbLine
 10
6.52056309845271
 20
5.298624128529721
 30
0.0
 11
6.581275526634323
 21
5.333676465283531
 31
0.0
  0
LINE
  5
AC
330
1F
100
AcDbEntity
  8
VISIBLE
100
AcDbLine
 10
4.489285440636193
 20
5.295712089445507
 30
0.0
 11
4.181958410253466
 21
5.473147433166224
 31
0.0
  0
ARC
  5
AD
330
1F
100
AcDbEntity
  8
VISIBLE
100
AcDbCircle
 10
5.250433865783704
 20
4.947184143527913
 30
0.0000000000000002
 40
1.38582677165355
100
AcDbArc
 50
96.19392858468471
 51
123.8060714153153
  0
ARC
  5
AE
330
1F
100
AcDbEntity
  8
VISIBLE
100
AcDbCircle
 10
5.250433865783701
 20
4.947184143527916
 30
0.0000000000000002
 40
1.385826771653548
100
AcDbArc
 50
56.1939285846847
 51
83.80607141531536
  0
ARC
  5
AF
330
1F
100
AcDbEntity
  8
VISIBLE
100
AcDbCircle
 10
5.250433865783702
 20
8.317262883685396
 30
0.0
 40
2.582677165354327
100
AcDbArc
 50
252.4744944018694
 51
287.5255055981306
  0
CIRCLE
  5
B0
330
1F
100
AcDbEntity
  8
VISIBLE
100
AcDbCircle
 10
4.350312973661294
 20
5.466869182897999
 30
0.0
 40
0.2204724409448819
  0
ARC
  5
B1
330
1F
100
AcDbEntity
  8
VISIBLE
100
AcDbCircle
 10
4.350312973661294
 20
5.466869182897999
 30
0.0
 40
0.4064634920794649
100
AcDbArc
 50
72.47449440186934
 51
227.5255055981307
  0
CIRCLE
  5
B2
330
1F
100
AcDbEntity
  8
VISIBLE
100
AcDbCircle
 10
6.150554757906112
 20
5.466869182897999
 30
0.0
 40
0.2204724409448819
  0
CIRCLE
  5
B3
330
1F
100
AcDbEntity
  8
VISIBLE
100
AcDbCircle
 10
5.250433865783703
 20
3.907814064787763
 30
0.0
 40
0.2204724409448819
  0
ARC
  5
B4
330
1F
100
AcDbEntity
  8
VISIBLE
100
AcDbCircle
 10
5.250433865783705
 20
4.947184143527922
 30
-0.0000000000000001
 40
1.385826771653546
100
AcDbArc
 50
216.1939285846846
 51
243.8060714153153
  0
ARC
  5
B5
330
1F
100
AcDbEntity
  8
VISIBLE
100
AcDbCircle
 10
6.150554757906111
 20
5.466869182898
 30
0.0
 40
0.4064634920794649
100
AcDbArc
 50
312.4744944018693
 51
107.5255055981306
  0
ARC
  5
B6
330
1F
100
AcDbEntity
  8
VISIBLE
100
AcDbCircle
 10
2.331860064053468
 20
3.26214477344918
 30
0.0
 40
2.582677165354331
100
AcDbArc
 50
12.47449440186944
 51
47.52550559813056
  0
ARC
  5
B7
330
1F
100
AcDbEntity
  8
VISIBLE
100
AcDbCircle
 10
8.169007667513936
 20
3.26214477344918
 30
0.0
 40
2.582677165354329
100
AcDbArc
 50
132.4744944018694
 51
167.5255055981306
  0
ARC
  5
B8
330
1F
100
AcDbEntity
  8
VISIBLE
100
AcDbCircle
 10
5.250433865783704
 20
3.907814064787763
 30
0.0
 40
0.4064634920794649
100
AcDbArc
 50
192.4744944018694
 51
347.5255055981304
  0
ARC
  5
B9
330
1F
100
AcDbEntity
  8
VISIBLE
100
AcDbCircle
 10
5.250433865783703
 20
4.947184143527919
 30
-0.0000000000000002
 40
1.385826771653543
100
AcDbArc
 50
256.1939285846846
 51
259.8392212414167
  0
ARC
  5
BA
330
1F
100
AcDbEntity
  8
VISIBLE
100
AcDbCircle
 10
5.250433865783703
 20
4.947184143527919
 30
-0.0000000000000002
 40
1.385826771653543
100
AcDbArc
 50
280.1607787585833
 51
283.8060714153154
  0
ARC
  5
BB
330
1F
100
AcDbEntity
  8
VISIBLE
100
AcDbCircle
 10
5.250433865783705
 20
4.947184143527919
 30
0.0000000000000001
 40
1.385826771653546
100
AcDbArc
 50
136.1939285846847
 51
139.8392212414167
  0
ARC
  5
BC
330
1F
100
AcDbEntity
  8
VISIBLE
100
AcDbCircle
 10
5.250433865783705
 20
4.947184143527919
 30
0.0000000000000001
 40
1.385826771653546
100
AcDbArc
 50
160.1607787585834
 51
163.8060714153154
  0
ARC
  5
BD
330
1F
100
AcDbEntity
  8
VISIBLE
100
AcDbCircle
 10
5.2504338657837
 20
4.947184143527918
 30
0.0000000000000001
 40
1.385826771653546
100
AcDbArc
 50
16.1939285846847
 51
19.83922124141673
  0
ARC
  5
BE
330
1F
100
AcDbEntity
  8
VISIBLE
100
AcDbCircle
 10
5.2504338657837
 20
4.947184143527918
 30
0.0000000000000001
 40
1.385826771653546
100
AcDbArc
 50
40.16077875858334
 51
43.80607141531533
  0
ARC
  5
BF
330
1F
100
AcDbEntity
  8
VISIBLE
100
AcDbCircle
 10
5.250433865783703
 20
4.947184143527921
 30
0.0
 40
1.385826771653544
100
AcDbArc
 50
176.1939285846847
 51
203.8060714153154
  0
ARC
  5
C0
330
1F
100
AcDbEntity
  8
VISIBLE
100
AcDbCircle
 10
5.250433865783704
 20
4.94718414352792
 30
0.0
 40
1.385826771653542
100
AcDbArc
 50
336.1939285846846
 51
3.806071415315429
  0
ARC
  5
C1
330
1F
100
AcDbEntity
  8
VISIBLE
100
AcDbCircle
 10
5.250433865783701
 20
4.94718414352792
 30
-0.0000000000000001
 40
1.385826771653545
100
AcDbArc
 50
296.1939285846847
 51
323.8060714153154
  0
LINE
  5
C2
330
1F
100
AcDbEntity
  8
BORDER_FRAME
100
AcDbLine
 10
0.399
 20
0.38
 30
0.0
 11
0.399
 21
8.12
 31
0.0
  0
LINE
  5
C5
330
1F
100
AcDbEntity
  8
BORDER_FRAME
100
AcDbLine
 10
0.399
 20
8.12
 30
0.0
 11
10.639
 21
8.12
 31
0.0
  0
LINE
  5
C6
330
1F
100
AcDbEntity
  8
BORDER_FRAME
100
AcDbLine
 10
10.639
 20
8.12
 30
0.0
 11
10.639
 21
0.38
 31
0.0
  0
LINE
  5
C7
330
1F
100
AcDbEntity
  8
BORDER_FRAME
100
AcDbLine
 10
10.639
 20
0.38
 30
0.0
 11
0.399
 21
0.38
 31
0.0
  0
LINE
  5
C8
330
1F
100
AcDbEntity
  8
BORDER_ZONES
100
AcDbLine
 10
5.519
 20
0.38
 30
0.0
 11
5.519
 21
0.019
 31
0.0
  0
LINE
  5
CA
330
1F
100
AcDbEntity
  8
BORDER_ZONES
100
AcDbLine
 10
5.519
 20
8.12
 30
0.0
 11
5.519
 21
8.481
 31
0.0
  0
MTEXT
  5
CB
330
1F
100
AcDbEntity
  8
BORDER_ZONES
100
AcDbMText
 10
2.769
 20
0.19
 30
0.0
 40
0.18
 41
0.0
 71
     5
 72
     1
  1
2
  7
ONSHAPE-STANDARD
  0
MTEXT
  5
CD
330
1F
100
AcDbEntity
  8
BORDER_ZONES
100
AcDbMText
 10
2.769
 20
8.309999999999999
 30
0.0
 40
0.18
 41
0.0
 71
     5
 72
     1
  1
2
  7
ONSHAPE-STANDARD
  0
MTEXT
  5
CE
330
1F
100
AcDbEntity
  8
BORDER_ZONES
100
AcDbMText
 10
8.269
 20
0.19
 30
0.0
 40
0.18
 41
0.0
 71
     5
 72
     1
  1
1
  7
ONSHAPE-STANDARD
  0
MTEXT
  5
CF
330
1F
100
AcDbEntity
  8
BORDER_ZONES
100
AcDbMText
 10
8.269
 20
8.309999999999999
 30
0.0
 40
0.18
 41
0.0
 71
     5
 72
     1
  1
1
  7
ONSHAPE-STANDARD
  0
LINE
  5
D0
330
1F
100
AcDbEntity
  8
BORDER_ZONES
100
AcDbLine
 10
0.399
 20
4.25
 30
0.0
 11
0.038
 21
4.25
 31
0.0
  0
LINE
  5
D1
330
1F
100
AcDbEntity
  8
BORDER_ZONES
100
AcDbLine
 10
10.639
 20
4.25
 30
0.0
 11
11.0
 21
4.25
 31
0.0
  0
MTEXT
  5
D2
330
1F
100
AcDbEntity
  8
BORDER_ZONES
100
AcDbMText
 10
0.209
 20
2.125
 30
0.0
 40
0.18
 41
0.0
 71
     5
 72
     1
  1
A
  7
ONSHAPE-STANDARD
  0
MTEXT
  5
D3
330
1F
100
AcDbEntity
  8
BORDER_ZONES
100
AcDbMText
 10
10.829
 20
2.125
 30
0.0
 40
0.18
 41
0.0
 71
     5
 72
     1
  1
A
  7
ONSHAPE-STANDARD
  0
MTEXT
  5
D4
330
1F
100
AcDbEntity
  8
BORDER_ZONES
100
AcDbMText
 10
0.209
 20
6.375
 30
0.0
 40
0.18
 41
0.0
 71
     5
 72
     1
  1
B
  7
ONSHAPE-STANDARD
  0
MTEXT
  5
D5
330
1F
100
AcDbEntity
  8
BORDER_ZONES
100
AcDbMText
 10
10.829
 20
6.375
 30
0.0
 40
0.18
 41
0.0
 71
     5
 72
     1
  1
B
  7
ONSHAPE-STANDARD
  0
LINE
  5
D6
330
1F
100
AcDbEntity
  8
TITLE_BLOCK
100
AcDbLine
 10
4.563999999999999
 20
0.38
 30
0.0
 11
4.563999999999999
 21
1.88
 31
0.0
  0
LINE
  5
D8
330
1F
100
AcDbEntity
  8
TITLE_BLOCK
100
AcDbLine
 10
4.563999999999999
 20
0.38
 30
0.0
 11
5.763999999999999
 21
0.38
 31
0.0
  0
LINE
  5
D9
330
1F
100
AcDbEntity
  8
TITLE_BLOCK
100
AcDbLine
 10
4.563999999999999
 20
0.6799999999999999
 30
0.0
 11
5.763999999999999
 21
0.6799999999999999
 31
0.0
  0
LINE
  5
DA
330
1F
100
AcDbEntity
  8
TITLE_BLOCK
100
AcDbLine
 10
4.563999999999999
 20
0.8
 30
0.0
 11
5.763999999999999
 21
0.8
 31
0.0
  0
LINE
  5
DB
330
1F
100
AcDbEntity
  8
TITLE_BLOCK
100
AcDbLine
 10
4.563999999999999
 20
1.004
 30
0.0
 11
5.763999999999999
 21
1.004
 31
0.0
  0
LINE
  5
DC
330
1F
100
AcDbEntity
  8
TITLE_BLOCK
100
AcDbLine
 10
4.563999999999999
 20
1.178
 30
0.0
 11
5.763999999999999
 21
1.178
 31
0.0
  0
LINE
  5
DD
330
1F
100
AcDbEntity
  8
TITLE_BLOCK
100
AcDbLine
 10
4.563999999999999
 20
1.88
 30
0.0
 11
5.763999999999999
 21
1.88
 31
0.0
  0
MTEXT
  5
DE
330
1F
100
AcDbEntity
  8
TITLE_BLOCK
100
AcDbMText
 10
4.590399999999999
 20
1.8368
 30
0.0
 40
0.048
 41
1.176
 71
     1
 72
     1
  1
UNLESS OTHERWISE SPECIFIED, DIMENSIONS ARE IN MILLIMETERS
  7
ONSHAPE-STANDARD
  0
MTEXT
  5
DF
330
1F
100
AcDbEntity
  8
TITLE_BLOCK
100
AcDbMText
 10
5.18776
 20
1.66112
 30
0.0
 40
0.0432
 41
0.5879999999999996
 71
     1
 72
     1
  1
^JANGULAR =  ^J
  7
ONSHAPE-STANDARD
  0
MTEXT
  5
E0
330
1F
100
AcDbEntity
  8
TITLE_BLOCK
100
AcDbMText
 10
4.590399999999999
 20
1.3688
 30
0.0
 40
0.048
 41
0.5880000000000005
 71
     1
 72
     1
  1
SURFACE FINISH
  7
ONSHAPE-STANDARD
  0
LINE
  5
E1
330
1F
100
AcDbEntity
  8
TITLE_BLOCK
100
AcDbLine
 10
5.104
 20
1.298
 30
0.0
 11
5.134
 21
1.246038475772934
 31
0.0
  0
LINE
  5
E2
330
1F
100
AcDbEntity
  8
TITLE_BLOCK
100
AcDbLine
 10
5.134
 20
1.246038475772934
 30
0.0
 11
5.197
 21
1.355157676649773
 31
0.0
  0
LINE
  5
E3
330
1F
100
AcDbEntity
  8
TITLE_BLOCK
100
AcDbLine
 10
5.197
 20
1.355157676649773
 30
0.0
 11
5.263
 21
1.355157676649773
 31
0.0
  0
MTEXT
  5
E4
330
1F
100
AcDbEntity
  8
TITLE_BLOCK
100
AcDbMText
 10
5.164
 20
1.12184
 30
0.0
 40
0.0624
 41
1.176
 71
     2
 72
     1
  1
DO NOT SCALE DRAWING
  7
ONSHAPE-STANDARD
  0
MTEXT
  5
E5
330
1F
100
AcDbEntity
  8
TITLE_BLOCK
100
AcDbMText
 10
5.164
 20
0.9608
 30
0.0
 40
0.048
 41
1.176
 71
     2
 72
     1
  1
BREAK ALL SHARP EDGES AND REMOVE BURRS
  7
ONSHAPE-STANDARD
  0
CIRCLE
  5
E6
330
1F
100
AcDbEntity
  8
TITLE_BLOCK
100
AcDbCircle
 10
5.029
 20
0.5287999999999999
 30
0.0
 40
0.054
  0
CIRCLE
  5
E7
330
1F
100
AcDbEntity
  8
TITLE_BLOCK
100
AcDbCircle
 10
5.029
 20
0.5287999999999999
 30
0.0
 40
0.108
  0
LINE
  5
E8
330
1F
100
AcDbEntity
  8
TITLE_BLOCK
100
AcDbLine
 10
5.056
 20
0.5287999999999999
 30
0.0
 11
5.002
 21
0.5287999999999999
 31
0.0
  0
LINE
  5
E9
330
1F
100
AcDbEntity
  8
TITLE_BLOCK
100
AcDbLine
 10
5.029
 20
0.5558
 30
0.0
 11
5.029
 21
0.5017999999999999
 31
0.0
  0
LINE
  5
EA
330
1F
100
AcDbEntity
  8
TITLE_BLOCK
100
AcDbLine
 10
5.083
 20
0.5287999999999999
 30
0.0
 11
5.164
 21
0.5287999999999999
 31
0.0
  0
LINE
  5
EB
330
1F
100
AcDbEntity
  8
TITLE_BLOCK
100
AcDbLine
 10
5.029
 20
0.5828
 30
0.0
 11
5.029
 21
0.6638
 31
0.0
  0
LINE
  5
EC
330
1F
100
AcDbEntity
  8
TITLE_BLOCK
100
AcDbLine
 10
4.975
 20
0.5287999999999999
 30
0.0
 11
4.894
 21
0.5287999999999999
 31
0.0
  0
LINE
  5
ED
330
1F
100
AcDbEntity
  8
TITLE_BLOCK
100
AcDbLine
 10
5.029
 20
0.4747999999999999
 30
0.0
 11
5.029
 21
0.3937999999999999
 31
0.0
  0
LINE
  5
EE
330
1F
100
AcDbEntity
  8
TITLE_BLOCK
100
AcDbLine
 10
5.406999999999999
 20
0.4208
 30
0.0
 11
5.406999999999999
 21
0.6367999999999999
 31
0.0
  0
LINE
  5
EF
330
1F
100
AcDbEntity
  8
TITLE_BLOCK
100
AcDbLine
 10
5.406999999999999
 20
0.6367999999999999
 30
0.0
 11
5.191
 21
0.5828
 31
0.0
  0
LINE
  5
F0
330
1F
100
AcDbEntity
  8
TITLE_BLOCK
100
AcDbLine
 10
5.191
 20
0.5828
 30
0.0
 11
5.191
 21
0.4747999999999999
 31
0.0
  0
LINE
  5
F1
330
1F
100
AcDbEntity
  8
TITLE_BLOCK
100
AcDbLine
 10
5.191
 20
0.4747999999999999
 30
0.0
 11
5.406999999999999
 21
0.4208
 31
0.0
  0
LINE
  5
F2
330
1F
100
AcDbEntity
  8
TITLE_BLOCK
100
AcDbLine
 10
5.326
 20
0.5287999999999999
 30
0.0
 11
5.4205
 21
0.5287999999999999
 31
0.0
  0
LINE
  5
F3
330
1F
100
AcDbEntity
  8
TITLE_BLOCK
100
AcDbLine
 10
5.309799999999999
 20
0.5287999999999999
 30
0.0
 11
5.2882
 21
0.5287999999999999
 31
0.0
  0
LINE
  5
F4
330
1F
100
AcDbEntity
  8
TITLE_BLOCK
100
AcDbLine
 10
5.271999999999999
 20
0.5287999999999999
 30
0.0
 11
5.177499999999999
 21
0.5287999999999999
 31
0.0
  0
MTEXT
  5
F5
330
1F
100
AcDbEntity
  8
TITLE_BLOCK
100
AcDbMText
 10
5.164
 20
0.7568
 30
0.0
 40
0.048
 41
1.176
 71
     2
 72
     1
  1
THIRD ANGLE PROJECTION
  7
ONSHAPE-STANDARD
  0
LINE
  5
F6
330
1F
100
AcDbEntity
  8
TITLE_BLOCK
100
AcDbLine
 10
5.763999999999999
 20
0.38
 30
0.0
 11
5.763999999999999
 21
1.88
 31
0.0
  0
LINE
  5
F7
330
1F
100
AcDbEntity
  8
TITLE_BLOCK
100
AcDbLine
 10
6.364
 20
0.8
 30
0.0
 11
6.364
 21
1.88
 31
0.0
  0
LINE
  5
F8
330
1F
100
AcDbEntity
  8
TITLE_BLOCK
100
AcDbLine
 10
7.113999999999999
 20
0.8
 30
0.0
 11
7.113999999999999
 21
1.88
 31
0.0
  0
LINE
  5
F9
330
1F
100
AcDbEntity
  8
TITLE_BLOCK
100
AcDbLine
 10
6.664
 20
0.38
 30
0.0
 11
6.664
 21
0.8
 31
0.0
  0
LINE
  5
FA
330
1F
100
AcDbEntity
  8
TITLE_BLOCK
100
AcDbLine
 10
5.763999999999999
 20
1.88
 30
0.0
 11
7.564
 21
1.88
 31
0.0
  0
LINE
  5
FB
330
1F
100
AcDbEntity
  8
TITLE_BLOCK
100
AcDbLine
 10
5.763999999999999
 20
1.7
 30
0.0
 11
7.564
 21
1.7
 31
0.0
  0
LINE
  5
FC
330
1F
100
AcDbEntity
  8
TITLE_BLOCK
100
AcDbLine
 10
5.763999999999999
 20
1.52
 30
0.0
 11
7.564
 21
1.52
 31
0.0
  0
LINE
  5
FD
330
1F
100
AcDbEntity
  8
TITLE_BLOCK
100
AcDbLine
 10
5.763999999999999
 20
1.34
 30
0.0
 11
7.564
 21
1.34
 31
0.0
  0
LINE
  5
FE
330
1F
100
AcDbEntity
  8
TITLE_BLOCK
100
AcDbLine
 10
5.763999999999999
 20
1.16
 30
0.0
 11
7.564
 21
1.16
 31
0.0
  0
LINE
  5
FF
330
1F
100
AcDbEntity
  8
TITLE_BLOCK
100
AcDbLine
 10
5.763999999999999
 20
0.98
 30
0.0
 11
7.564
 21
0.98
 31
0.0
  0
LINE
  5
100
330
1F
100
AcDbEntity
  8
TITLE_BLOCK
100
AcDbLine
 10
5.763999999999999
 20
0.8
 30
0.0
 11
7.564
 21
0.8
 31
0.0
  0
MTEXT
  5
101
330
1F
100
AcDbEntity
  8
TITLE_BLOCK
100
AcDbMText
 10
6.3904
 20
1.8368
 30
0.0
 40
0.048
 41
0.7349999999999991
 71
     1
 72
     1
  1
NAME
  7
ONSHAPE-STANDARD
  0
MTEXT
  5
102
330
1F
100
AcDbEntity
  8
TITLE_BLOCK
100
AcDbMText
 10
7.339
 20
1.8368
 30
0.0
 40
0.048
 41
0.4410000000000011
 71
     2
 72
     1
  1
DATE
  7
ONSHAPE-STANDARD
  0
MTEXT
  5
103
330
1F
100
AcDbEntity
  8
TITLE_BLOCK
100
AcDbMText
 10
5.790399999999999
 20
1.6568
 30
0.0
 40
0.048
 41
0.5880000000000005
 71
     1
 72
     1
  1
DRAWN
  7
ONSHAPE-STANDARD
  0
MTEXT
  5
104
102
{ACAD_XDICTIONARY
360
105
102
}
330
1F
100
AcDbEntity
  8
TITLE_BLOCK
100
AcDbMText
 10
6.738999999999999
 20
1.61
 30
0.0
 40
0.04032
 41
0.7499999999999991
 71
     5
 72
     1
  1
ASHER
  7
ONSHAPE-STANDARD-FIELDS
1001
ACAD
1000
ACAD_MTEXT_DEFINED_HEIGHT_BEGIN
1070
    46
1040
0.1800000000000002
1000
ACAD_MTEXT_DEFINED_HEIGHT_END
  0
MTEXT
  5
10B
102
{ACAD_XDICTIONARY
360
10C
102
}
330
1F
100
AcDbEntity
  8
TITLE_BLOCK
100
AcDbMText
 10
7.339
 20
1.61
 30
0.0
 40
0.04032
 41
0.4500000000000011
 71
     5
 72
     1
  1
08/17/2024
  7
ONSHAPE-STANDARD-FIELDS
1001
ACAD
1000
ACAD_MTEXT_DEFINED_HEIGHT_BEGIN
1070
    46
1040
0.1800000000000002
1000
ACAD_MTEXT_DEFINED_HEIGHT_END
  0
MTEXT
  5
111
330
1F
100
AcDbEntity
  8
TITLE_BLOCK
100
AcDbMText
 10
5.790399999999999
 20
1.4768
 30
0.0
 40
0.048
 41
0.5880000000000005
 71
     1
 72
     1
  1
CHECKED
  7
ONSHAPE-STANDARD
  0
MTEXT
  5
112
330
1F
100
AcDbEntity
  8
TITLE_BLOCK
100
AcDbMText
 10
6.738999999999999
 20
1.43
 30
0.0
 40
0.04032
 41
0.7499999999999991
 71
     5
 72
     1
  1
 
  7
ONSHAPE-STANDARD-FIELDS
1001
ACAD
1000
ACAD_MTEXT_DEFINED_HEIGHT_BEGIN
1070
    46
1040
0.1800000000000002
1000
ACAD_MTEXT_DEFINED_HEIGHT_END
  0
MTEXT
  5
113
330
1F
100
AcDbEntity
  8
TITLE_BLOCK
100
AcDbMText
 10
7.339
 20
1.43
 30
0.0
 40
0.04032
 41
0.4500000000000011
 71
     5
 72
     1
  1
 
  7
ONSHAPE-STANDARD-FIELDS
1001
ACAD
1000
ACAD_MTEXT_DEFINED_HEIGHT_BEGIN
1070
    46
1040
0.1800000000000002
1000
ACAD_MTEXT_DEFINED_HEIGHT_END
  0
MTEXT
  5
114
330
1F
100
AcDbEntity
  8
TITLE_BLOCK
100
AcDbMText
 10
5.790399999999999
 20
1.2968
 30
0.0
 40
0.048
 41
0.5880000000000005
 71
     1
 72
     1
  1
APPROVED
  7
ONSHAPE-STANDARD
  0
MTEXT
  5
115
102
{ACAD_XDICTIONARY
360
116
102
}
330
1F
100
AcDbEntity
  8
TITLE_BLOCK
100
AcDbMText
 10
6.738999999999999
 20
1.25
 30
0.0
 40
0.04032
 41
0.7499999999999991
 71
     5
 72
     1
  1
----
  7
ONSHAPE-STANDARD-FIELDS
1001
ACAD
1000
ACAD_MTEXT_DEFINED_HEIGHT_BEGIN
1070
    46
1040
0.1799999999999997
1000
ACAD_MTEXT_DEFINED_HEIGHT_END
  0
MTEXT
  5
11B
102
{ACAD_XDICTIONARY
360
11C
102
}
330
1F
100
AcDbEntity
  8
TITLE_BLOCK
100
AcDbMText
 10
7.339
 20
1.25
 30
0.0
 40
0.04032
 41
0.4500000000000011
 71
     5
 72
     1
  1
----
  7
ONSHAPE-STANDARD-FIELDS
1001
ACAD
1000
ACAD_MTEXT_DEFINED_HEIGHT_BEGIN
1070
    46
1040
0.1799999999999997
1000
ACAD_MTEXT_DEFINED_HEIGHT_END
  0
MTEXT
  5
121
330
1F
100
AcDbEntity
  8
TITLE_BLOCK
100
AcDbMText
 10
6.064
 20
1.07
 30
0.0
 40
0.072
 41
0.6000000000000005
 71
     5
 72
     1
  1
 
  7
ONSHAPE-STANDARD-FIELDS
1001
ACAD
1000
ACAD_MTEXT_DEFINED_HEIGHT_BEGIN
1070
    46
1040
0.1800000000000002
1000
ACAD_MTEXT_DEFINED_HEIGHT_END
  0
MTEXT
  5
122
330
1F
100
AcDbEntity
  8
TITLE_BLOCK
100
AcDbMText
 10
6.738999999999999
 20
1.07
 30
0.0
 40
0.04032
 41
0.7499999999999991
 71
     5
 72
     1
  1
 
  7
ONSHAPE-STANDARD-FIELDS
1001
ACAD
1000
ACAD_MTEXT_DEFINED_HEIGHT_BEGIN
1070
    46
1040
0.1800000000000002
1000
ACAD_MTEXT_DEFINED_HEIGHT_END
  0
MTEXT
  5
123
330
1F
100
AcDbEntity
  8
TITLE_BLOCK
100
AcDbMText
 10
7.339
 20
1.07
 30
0.0
 40
0.04032
 41
0.4500000000000011
 71
     5
 72
     1
  1
 
  7
ONSHAPE-STANDARD-FIELDS
1001
ACAD
1000
ACAD_MTEXT_DEFINED_HEIGHT_BEGIN
1070
    46
1040
0.1800000000000002
1000
ACAD_MTEXT_DEFINED_HEIGHT_END
  0
MTEXT
  5
124
330
1F
100
AcDbEntity
  8
TITLE_BLOCK
100
AcDbMText
 10
6.064
 20
0.89
 30
0.0
 40
0.072
 41
0.6000000000000005
 71
     5
 72
     1
  1
 
  7
ONSHAPE-STANDARD-FIELDS
1001
ACAD
1000
ACAD_MTEXT_DEFINED_HEIGHT_BEGIN
1070
    46
1040
0.1799999999999999
1000
ACAD_MTEXT_DEFINED_HEIGHT_END
  0
MTEXT
  5
125
330
1F
100
AcDbEntity
  8
TITLE_BLOCK
100
AcDbMText
 10
6.738999999999999
 20
0.89
 30
0.0
 40
0.04032
 41
0.7499999999999991
 71
     5
 72
     1
  1
 
  7
ONSHAPE-STANDARD-FIELDS
1001
ACAD
1000
ACAD_MTEXT_DEFINED_HEIGHT_BEGIN
1070
    46
1040
0.1799999999999999
1000
ACAD_MTEXT_DEFINED_HEIGHT_END
  0
MTEXT
  5
126
330
1F
100
AcDbEntity
  8
TITLE_BLOCK
100
AcDbMText
 10
7.339
 20
0.89
 30
0.0
 40
0.04032
 41
0.4500000000000011
 71
     5
 72
     1
  1
 
  7
ONSHAPE-STANDARD-FIELDS
1001
ACAD
1000
ACAD_MTEXT_DEFINED_HEIGHT_BEGIN
1070
    46
1040
0.1799999999999999
1000
ACAD_MTEXT_DEFINED_HEIGHT_END
  0
MTEXT
  5
127
330
1F
100
AcDbEntity
  8
TITLE_BLOCK
100
AcDbMText
 10
5.790399999999999
 20
0.7568
 30
0.0
 40
0.048
 41
0.8820000000000003
 71
     1
 72
     1
  1
MATERIAL
  7
ONSHAPE-STANDARD
  0
MTEXT
  5
128
330
1F
100
AcDbEntity
  8
TITLE_BLOCK
100
AcDbMText
 10
6.214
 20
0.5900000000000001
 30
0.0
 40
0.072
 41
0.9000000000000004
 71
     5
 72
     1
  1
 
  7
ONSHAPE-STANDARD-FIELDS
1001
ACAD
1000
ACAD_MTEXT_DEFINED_HEIGHT_BEGIN
1070
    46
1040
0.42
1000
ACAD_MTEXT_DEFINED_HEIGHT_END
  0
MTEXT
  5
129
330
1F
100
AcDbEntity
  8
TITLE_BLOCK
100
AcDbMText
 10
6.690399999999999
 20
0.7568
 30
0.0
 40
0.048
 41
0.8820000000000003
 71
     1
 72
     1
  1
FINISH
  7
ONSHAPE-STANDARD
  0
MTEXT
  5
12A
330
1F
100
AcDbEntity
  8
TITLE_BLOCK
100
AcDbMText
 10
7.114
 20
0.5900000000000001
 30
0.0
 40
0.072
 41
0.9000000000000004
 71
     5
 72
     1
  1
 
  7
ONSHAPE-STANDARD-FIELDS
1001
ACAD
1000
ACAD_MTEXT_DEFINED_HEIGHT_BEGIN
1070
    46
1040
0.42
1000
ACAD_MTEXT_DEFINED_HEIGHT_END
  0
LINE
  5
12B
330
1F
100
AcDbEntity
  8
TITLE_BLOCK
100
AcDbLine
 10
7.564
 20
0.38
 30
0.0
 11
7.564
 21
1.88
 31
0.0
  0
LINE
  5
12C
330
1F
100
AcDbEntity
  8
TITLE_BLOCK
100
AcDbLine
 10
7.939
 20
0.575
 30
0.0
 11
7.939
 21
0.875
 31
0.0
  0
LINE
  5
12D
330
1F
100
AcDbEntity
  8
TITLE_BLOCK
100
AcDbLine
 10
8.223999999999998
 20
0.38
 30
0.0
 11
8.223999999999998
 21
0.575
 31
0.0
  0
LINE
  5
12E
330
1F
100
AcDbEntity
  8
TITLE_BLOCK
100
AcDbLine
 10
9.588999999999999
 20
0.38
 30
0.0
 11
9.588999999999999
 21
0.575
 31
0.0
  0
LINE
  5
12F
330
1F
100
AcDbEntity
  8
TITLE_BLOCK
100
AcDbLine
 10
10.339
 20
0.575
 30
0.0
 11
10.339
 21
0.875
 31
0.0
  0
LINE
  5
130
330
1F
100
AcDbEntity
  8
TITLE_BLOCK
100
AcDbLine
 10
7.564
 20
0.575
 30
0.0
 11
10.639
 21
0.575
 31
0.0
  0
LINE
  5
131
330
1F
100
AcDbEntity
  8
TITLE_BLOCK
100
AcDbLine
 10
7.564
 20
0.875
 30
0.0
 11
10.639
 21
0.875
 31
0.0
  0
LINE
  5
132
330
1F
100
AcDbEntity
  8
TITLE_BLOCK
100
AcDbLine
 10
7.564
 20
1.505
 30
0.0
 11
10.639
 21
1.505
 31
0.0
  0
LINE
  5
133
330
1F
100
AcDbEntity
  8
TITLE_BLOCK
100
AcDbLine
 10
7.564
 20
1.88
 30
0.0
 11
10.639
 21
1.88
 31
0.0
  0
MTEXT
  5
134
330
1F
100
AcDbEntity
  8
TITLE_BLOCK
100
AcDbMText
 10
7.5904
 20
1.4618
 30
0.0
 40
0.048
 41
0.3675
 71
     1
 72
     1
  1
TITLE
  7
ONSHAPE-STANDARD
  0
MTEXT
  5
135
102
{ACAD_XDICTIONARY
360
136
102
}
330
1F
100
AcDbEntity
  8
TITLE_BLOCK
100
AcDbMText
 10
9.1015
 20
1.385
 30
0.0
 40
0.1152
 41
2.774999999999999
 71
     5
 72
     1
  1
----
  7
ONSHAPE-STANDARD-FIELDS
1001
ACAD
1000
ACAD_MTEXT_DEFINED_HEIGHT_BEGIN
1070
    46
1040
0.189
1000
ACAD_MTEXT_DEFINED_HEIGHT_END
  0
MTEXT
  5
13B
102
{ACAD_XDICTIONARY
360
13C
102
}
330
1F
100
AcDbEntity
  8
TITLE_BLOCK
100
AcDbMText
 10
9.1015
 20
1.196
 30
0.0
 40
0.1152
 41
2.774999999999999
 71
     5
 72
     1
  1
----
  7
ONSHAPE-STANDARD-FIELDS
1001
ACAD
1000
ACAD_MTEXT_DEFINED_HEIGHT_BEGIN
1070
    46
1040
0.189
1000
ACAD_MTEXT_DEFINED_HEIGHT_END
  0
MTEXT
  5
141
102
{ACAD_XDICTIONARY
360
142
102
}
330
1F
100
AcDbEntity
  8
TITLE_BLOCK
100
AcDbMText
 10
9.1015
 20
1.007
 30
0.0
 40
0.1152
 41
2.774999999999999
 71
     5
 72
     1
  1
----
  7
ONSHAPE-STANDARD-FIELDS
1001
ACAD
1000
ACAD_MTEXT_DEFINED_HEIGHT_BEGIN
1070
    46
1040
0.189
1000
ACAD_MTEXT_DEFINED_HEIGHT_END
  0
MTEXT
  5
147
330
1F
100
AcDbEntity
  8
TITLE_BLOCK
100
AcDbMText
 10
7.58512
 20
0.84044
 30
0.0
 40
0.0384
 41
0.3675
 71
     1
 72
     1
  1
SIZE
  7
ONSHAPE-STANDARD
  0
MTEXT
  5
148
102
{ACAD_XDICTIONARY
360
149
102
}
330
1F
100
AcDbEntity
  8
TITLE_BLOCK
100
AcDbMText
 10
7.7515
 20
0.725
 30
0.0
 40
0.144
 41
0.375
 71
     5
 72
     1
  1
A
  7
ONSHAPE-STANDARD-FIELDS
1001
ACAD
1000
ACAD_MTEXT_DEFINED_HEIGHT_BEGIN
1070
    46
1040
0.3
1000
ACAD_MTEXT_DEFINED_HEIGHT_END
  0
MTEXT
  5
14E
330
1F
100
AcDbEntity
  8
TITLE_BLOCK
100
AcDbMText
 10
7.96012
 20
0.84044
 30
0.0
 40
0.0384
 41
2.351999999999999
 71
     1
 72
     1
  1
DWG NO.
  7
ONSHAPE-STANDARD
  0
MTEXT
  5
14F
102
{ACAD_XDICTIONARY
360
150
102
}
330
1F
100
AcDbEntity
  8
TITLE_BLOCK
100
AcDbMText
 10
9.139
 20
0.725
 30
0.0
 40
0.144
 41
2.399999999999999
 71
     5
 72
     1
  1
----
  7
ONSHAPE-STANDARD-FIELDS
1001
ACAD
1000
ACAD_MTEXT_DEFINED_HEIGHT_BEGIN
1070
    46
1040
0.3
1000
ACAD_MTEXT_DEFINED_HEIGHT_END
  0
MTEXT
  5
155
330
1F
100
AcDbEntity
  8
TITLE_BLOCK
100
AcDbMText
 10
10.36012
 20
0.84044
 30
0.0
 40
0.0384
 41
0.2940000000000007
 71
     1
 72
     1
  1
REV.
  7
ONSHAPE-STANDARD
  0
MTEXT
  5
156
102
{ACAD_XDICTIONARY
360
157
102
}
330
1F
100
AcDbEntity
  8
TITLE_BLOCK
100
AcDbMText
 10
10.504
 20
0.725
 30
0.0
 40
0.144
 41
0.2700000000000014
 71
     5
 72
     1
  1
-
  7
ONSHAPE-STANDARD-FIELDS
1001
ACAD
1000
ACAD_MTEXT_DEFINED_HEIGHT_BEGIN
1070
    46
1040
0.3
1000
ACAD_MTEXT_DEFINED_HEIGHT_END
  0
MTEXT
  5
15C
330
1F
100
AcDbEntity
  8
TITLE_BLOCK
100
AcDbMText
 10
7.58512
 20
0.5404399999999999
 30
0.0
 40
0.0384
 41
0.6467999999999984
 71
     1
 72
     1
  1
SCALE
  7
ONSHAPE-STANDARD
  0
MTEXT
  5
15D
102
{ACAD_XDICTIONARY
360
15E
102
}
330
1F
100
AcDbEntity
  8
TITLE_BLOCK
100
AcDbMText
 10
7.923999999999999
 20
0.4775
 30
0.0
 40
0.0864
 41
0.5999999999999988
 71
     5
 72
     1
  1
8:1
  7
ONSHAPE-STANDARD-FIELDS
1001
ACAD
1000
ACAD_MTEXT_DEFINED_HEIGHT_BEGIN
1070
    46
1040
0.195
1000
ACAD_MTEXT_DEFINED_HEIGHT_END
  0
MTEXT
  5
163
330
1F
100
AcDbEntity
  8
TITLE_BLOCK
100
AcDbMText
 10
8.245119999999998
 20
0.5404399999999999
 30
0.0
 40
0.0384
 41
1.3377
 71
     1
 72
     1
  1
WEIGHT
  7
ONSHAPE-STANDARD
  0
MTEXT
  5
164
330
1F
100
AcDbEntity
  8
TITLE_BLOCK
100
AcDbMText
 10
8.9065
 20
0.4775
 30
0.0
 40
0.0864
 41
1.365
 71
     5
 72
     1
  1
 
  7
ONSHAPE-STANDARD-FIELDS
1001
ACAD
1000
ACAD_MTEXT_DEFINED_HEIGHT_BEGIN
1070
    46
1040
0.195
1000
ACAD_MTEXT_DEFINED_HEIGHT_END
  0
MTEXT
  5
165
330
1F
100
AcDbEntity
  8
TITLE_BLOCK
100
AcDbMText
 10
9.610119999999998
 20
0.5404399999999999
 30
0.0
 40
0.0384
 41
1.029000000000001
 71
     1
 72
     1
  1
SHEET
  7
ONSHAPE-STANDARD
  0
MTEXT
  5
166
102
{ACAD_XDICTIONARY
360
167
102
}
330
1F
100
AcDbEntity
  8
TITLE_BLOCK
100
AcDbMText
 10
10.144
 20
0.4775
 30
0.0
 40
0.0864
 41
0.9900000000000002
 71
     5
 72
     1
  1
1 of 1
  7
ONSHAPE-STANDARD-FIELDS
1001
ACAD
1000
ACAD_MTEXT_DEFINED_HEIGHT_BEGIN
1070
    46
1040
0.195
1000
ACAD_MTEXT_DEFINED_HEIGHT_END
  0
MTEXT
  5
16C
102
{ACAD_XDICTIONARY
360
16D
102
}
330
1F
100
AcDbEntity
  8
ANNOTATION_TEXT
 62
     7
 60
     1
100
AcDbMText
 10
5.250433865783703
 20
3.300172050517694
 30
0.0
 40
0.12
 41
0.0
 71
     2
 72
     1
  1

  7
ONSHAPE-STANDARD-VIEW-LABE
1001
ACAD
1000
ACAD_MTEXT_DEFINED_HEIGHT_BEGIN
1070
    46
1040
0.12
1000
ACAD_MTEXT_DEFINED_HEIGHT_END
  0
LINE
  5
176
330
1F
100
AcDbEntity
  8
CENTERMARKS
  6
CONTINUOUS
100
AcDbLine
 10
5.205433865783703
 20
4.94718414352792
 30
0.0
 11
5.295433865783703
 21
4.94718414352792
 31
0.0
  0
LINE
  5
177
330
1F
100
AcDbEntity
  8
CENTERMARKS
  6
CONTINUOUS
100
AcDbLine
 10
5.250433865783703
 20
4.90218414352792
 30
0.0
 11
5.250433865783703
 21
4.99218414352792
 31
0.0
  0
LINE
  5
178
330
1F
100
AcDbEntity
  8
CENTERMARKS
  6
CENTER
100
AcDbLine
 10
5.160433865783703
 20
4.94718414352792
 30
0.0
 11
4.955709456334884
 21
4.94718414352792
 31
0.0
  0
LINE
  5
179
330
1F
100
AcDbEntity
  8
CENTERMARKS
  6
CENTER
100
AcDbLine
 10
5.340433865783702
 20
4.94718414352792
 30
0.0
 11
5.545158275232521
 21
4.94718414352792
 31
0.0
  0
LINE
  5
17A
330
1F
100
AcDbEntity
  8
CENTERMARKS
  6
CENTER
100
AcDbLine
 10
5.250433865783703
 20
5.03718414352792
 30
0.0
 11
5.250433865783703
 21
5.241908552976739
 31
0.0
  0
LINE
  5
17B
330
1F
100
AcDbEntity
  8
CENTERMARKS
  6
CENTER
100
AcDbLine
 10
5.250433865783703
 20
4.85718414352792
 30
0.0
 11
5.250433865783703
 21
4.652459734079102
 31
0.0
  0
LINE
  5
17E
330
1F
100
AcDbEntity
  8
CENTERMARKS
  6
CONTINUOUS
100
AcDbLine
 10
4.305312973661294
 20
5.466869182897999
 30
0.0
 11
4.395312973661293
 21
5.466869182897999
 31
0.0
  0
LINE
  5
17F
330
1F
100
AcDbEntity
  8
CENTERMARKS
  6
CONTINUOUS
100
AcDbLine
 10
4.350312973661294
 20
5.421869182897999
 30
0.0
 11
4.350312973661294
 21
5.511869182897999
 31
0.0
  0
LINE
  5
180
330
1F
100
AcDbEntity
  8
CENTERMARKS
  6
CENTER
100
AcDbLine
 10
4.260312973661294
 20
5.466869182897999
 30
0.0
 11
4.039840532716412
 21
5.466869182897999
 31
0.0
  0
LINE
  5
181
330
1F
100
AcDbEntity
  8
CENTERMARKS
  6
CENTER
100
AcDbLine
 10
4.440312973661293
 20
5.466869182897999
 30
0.0
 11
4.660785414606175
 21
5.466869182897999
 31
0.0
  0
LINE
  5
182
330
1F
100
AcDbEntity
  8
CENTERMARKS
  6
CENTER
100
AcDbLine
 10
4.350312973661294
 20
5.556869182897999
 30
0.0
 11
4.350312973661294
 21
5.77734162384288
 31
0.0
  0
LINE
  5
183
330
1F
100
AcDbEntity
  8
CENTERMARKS
  6
CENTER
100
AcDbLine
 10
4.350312973661294
 20
5.376869182897999
 30
0.0
 11
4.350312973661294
 21
5.156396741953118
 31
0.0
  0
LINE
  5
186
330
1F
100
AcDbEntity
  8
CENTERMARKS
  6
CONTINUOUS
100
AcDbLine
 10
6.105554757906112
 20
5.466869182897999
 30
0.0
 11
6.195554757906112
 21
5.466869182897999
 31
0.0
  0
LINE
  5
187
330
1F
100
AcDbEntity
  8
CENTERMARKS
  6
CONTINUOUS
100
AcDbLine
 10
6.150554757906112
 20
5.421869182897999
 30
0.0
 11
6.150554757906112
 21
5.511869182897999
 31
0.0
  0
LINE
  5
188
330
1F
100
AcDbEntity
  8
CENTERMARKS
  6
CENTER
100
AcDbLine
 10
6.060554757906112
 20
5.466869182897999
 30
0.0
 11
5.84008231696123
 21
5.466869182897999
 31
0.0
  0
LINE
  5
189
330
1F
100
AcDbEntity
  8
CENTERMARKS
  6
CENTER
100
AcDbLine
 10
6.240554757906112
 20
5.466869182897999
 30
0.0
 11
6.461027198850993
 21
5.466869182897999
 31
0.0
  0
LINE
  5
18A
330
1F
100
AcDbEntity
  8
CENTERMARKS
  6
CENTER
100
AcDbLine
 10
6.150554757906112
 20
5.556869182897999
 30
0.0
 11
6.150554757906112
 21
5.77734162384288
 31
0.0
  0
LINE
  5
18B
330
1F
100
AcDbEntity
  8
CENTERMARKS
  6
CENTER
100
AcDbLine
 10
6.150554757906112
 20
5.376869182897999
 30
0.0
 11
6.150554757906112
 21
5.156396741953118
 31
0.0
  0
LINE
  5
18E
330
1F
100
AcDbEntity
  8
CENTERMARKS
  6
CONTINUOUS
100
AcDbLine
 10
5.205433865783703
 20
3.907814064787763
 30
0.0
 11
5.295433865783703
 21
3.907814064787763
 31
0.0
  0
LINE
  5
18F
330
1F
100
AcDbEntity
  8
CENTERMARKS
  6
CONTINUOUS
100
AcDbLine
 10
5.250433865783703
 20
3.862814064787763
 30
0.0
 11
5.250433865783703
 21
3.952814064787763
 31
0.0
  0
LINE
  5
190
330
1F
100
AcDbEntity
  8
CENTERMARKS
  6
CENTER
100
AcDbLine
 10
5.160433865783703
 20
3.907814064787763
 30
0.0
 11
4.939961424838821
 21
3.907814064787763
 31
0.0
  0
LINE
  5
191
330
1F
100
AcDbEntity
  8
CENTERMARKS
  6
CENTER
100
AcDbLine
 10
5.340433865783702
 20
3.907814064787763
 30
0.0
 11
5.560906306728584
 21
3.907814064787763
 31
0.0
  0
LINE
  5
192
330
1F
100
AcDbEntity
  8
CENTERMARKS
  6
CENTER
100
AcDbLine
 10
5.250433865783703
 20
3.997814064787763
 30
0.0
 11
5.250433865783703
 21
4.218286505732644
 31
0.0
  0
LINE
  5
193
330
1F
100
AcDbEntity
  8
CENTERMARKS
  6
CENTER
100
AcDbLine
 10
5.250433865783703
 20
3.817814064787763
 30
0.0
 11
5.250433865783703
 21
3.597341623842881
 31
0.0
  0
MTEXT
  5
194
102
{ACAD_XDICTIONARY
360
249
102
}
330
1F
100
AcDbEntity
  8
ANNOTATION_TEXT
100
AcDbMText
 10
7.161101226922753
 20
5.191051047143655
 30
0.0
 40
0.12
 41
1.211075864992049
 71
     1
 72
     5
  1
Bottom Motor view
  7
ONSHAPE-STANDARD-NOTESTYLE
1001
ACAD
1000
ACAD_MTEXT_DEFINED_HEIGHT_BEGIN
1070
    46
1040
0.3216348773841962
1000
ACAD_MTEXT_DEFINED_HEIGHT_END
  0
DIMENSION
  5
19A
102
{ACAD_REACTORS
102
}
102
{ACAD_XDICTIONARY
360
19B
102
}
330
1F
100
AcDbEntity
  8
ANNOTATION_TEXT
100
AcDbDimension
  2
*D1
 10
5.78646264888487
 20
3.907814064787763
 30
0.0
 11
5.78646264888487
 21
4.568181387660505
 31
0.0
 70
   160
  3
ONSHAPE-STANDARD$0
100
AcDbAlignedDimension
 13
5.545158275232521
 23
4.94718414352792
 33
0.4724409448818898
 14
5.560906306728584
 24
3.907814064787763
 34
0.4724409448818899
 50
90.0
100
AcDbRotatedDimension
1001
ACAD
1000
DSTYLE
1002
{
1070
     4
1000
[]
1070
   144
1040
3.175
1070
     3
1000

1070
   288
1070
     1
1002
}
1001
ACAD_DIMASSOC_CALC_DIMLFAC
1040
-0.125
1001
ACAD_DIMASSOC_DIMLFAC
1040
-3.175
1001
ACAD_DIMASSOC_OVERRIDDEN_D
1040
0.0
1001
ONSHAPE_DIMENSION_ON_CENTE
1070
     1
1013
1.0
1023
0.0
1033
0.0
1001
ONSHAPE_DIMENSION_ON_CENT0
1070
     1
1013
1.0
1023
0.0
1033
0.0
  0
DIMENSION
  5
1B5
102
{ACAD_REACTORS
102
}
102
{ACAD_XDICTIONARY
360
1B6
102
}
330
1F
100
AcDbEntity
  8
ANNOTATION_TEXT
100
AcDbDimension
  2
*D2
 10
5.249133770268589
 20
4.742463862227265
 30
0.4724409448818898
 11
5.69727626004866
 21
5.511897165638803
 31
0.0
 70
   163
  3
ONSHAPE-STANDARD$3
100
AcDbDiametricDimension
 15
5.251733961298816
 25
5.151904424828575
 35
0.4724409448818898
 40
0.0
1001
ACAD
1000
DSTYLE
1002
{
1070
   287
1070
     3
1070
     4
1000
[]
1070
   144
1040
3.175
1070
   289
1070
     3
1070
   279
1070
     0
1070
   172
1070
     0
1070
     3
1000
%%c<>
1002
}
1001
ACAD_DSTYLE_DIMRADIAL_EXTE
1070
   387
1070
     1
1070
   388
1040
0.0
1070
   390
1040
6.283185307179586
1001
ACAD_DIMASSOC_CALC_DIMLFAC
1040
-0.125
1001
ACAD_DIMASSOC_DIMLFAC
1040
-3.175
1001
ACAD_DIMASSOC_OVERRIDDEN_D
1040
0.0
  0
DIMENSION
  5
1C5
102
{ACAD_REACTORS
102
}
102
{ACAD_XDICTIONARY
360
1C6
102
}
330
1F
100
AcDbEntity
  8
ANNOTATION_TEXT
100
AcDbDimension
  2
*D3
 10
4.181336672643133
 20
5.325253128333503
 30
0.4724409448818898
 11
5.241933680002153
 21
5.839724023701379
 31
0.0
 70
   163
  3
ONSHAPE-STANDARD$3
100
AcDbDiametricDimension
 15
4.519289274679454
 25
5.608485237462495
 35
0.4724409448818897
 40
0.0
1001
ACAD
1000
DSTYLE
1002
{
1070
   287
1070
     3
1070
     4
1000
[]
1070
   144
1040
3.175
1070
   289
1070
     3
1070
   279
1070
     0
1070
   172
1070
     0
1070
     3
1000
%%c<>
1002
}
1001
ACAD_DSTYLE_DIMRADIAL_EXTE
1070
   387
1070
     1
1070
   388
1040
0.0
1070
   390
1040
6.283185307179586
1001
ACAD_DIMASSOC_CALC_DIMLFAC
1040
-0.125
1001
ACAD_DIMASSOC_DIMLFAC
1040
-3.175
1001
ACAD_DIMASSOC_OVERRIDDEN_D
1040
0.0
  0
ENDSEC
  0
SECTION
  2
OBJECTS
  0
DICTIONARY
  5
C
330
0
100
AcDbDictionary
  3
ACAD_FIELDLIST
350
172
  3
ACAD_GROUP
350
D
  3
ACAD_LAYOUT
350
1A
  3
ACAD_MATERIAL
350
43
  3
ACAD_MLEADERSTYLE
350
6B
  3
ACAD_MLINESTYLE
350
17
  3
ACAD_PLOTSETTINGS
350
19
  3
ACAD_SCALELIST
350
47
  3
ACAD_VISUALSTYLE
350
2A
  3
ACDB_RECOMPOSE_DATA
350
256
  3
ACDBHEADERROUNDTRIPXREC
350
222
  3
ACDBVARIABLEDICTIONARY
350
6E
  3
ONSHAPE_DATA
350
1D3
  0
DICTIONARY
  5
24B
330
8
100
AcDbDictionary
280
     1
  3
ACAD_XREC_ROUNDTRIP
360
24C
  0
DICTIONARY
  5
105
330
104
100
AcDbDictionary
280
     1
  0
DICTIONARY
  5
10C
330
10B
100
AcDbDictionary
280
     1
  0
DICTIONARY
  5
116
330
115
100
AcDbDictionary
280
     1
  0
DICTIONARY
  5
11C
330
11B
100
AcDbDictionary
280
     1
  0
DICTIONARY
  5
136
330
135
100
AcDbDictionary
280
     1
  0
DICTIONARY
  5
13C
330
13B
100
AcDbDictionary
280
     1
  0
DICTIONARY
  5
142
330
141
100
AcDbDictionary
280
     1
  0
DICTIONARY
  5
149
330
148
100
AcDbDictionary
280
     1
  0
DICTIONARY
  5
150
330
14F
100
AcDbDictionary
280
     1
  0
DICTIONARY
  5
157
330
156
100
AcDbDictionary
280
     1
  0
DICTIONARY
  5
15E
330
15D
100
AcDbDictionary
280
     1
  0
DICTIONARY
  5
167
330
166
100
AcDbDictionary
280
     1
  0
DICTIONARY
  5
16D
330
16C
100
AcDbDictionary
280
     1
  3
ONSHAPE_VIEW_ID
360
16E
  0
DICTIONARY
  5
249
330
194
100
AcDbDictionary
280
     1
  3
ACAD_MTEXT_RT
360
24A
  0
DICTIONARY
  5
19B
330
19A
100
AcDbDictionary
280
     1
  3
ACAD_BREAKDATA
360
19F
  3
OS_DIM_DISPLAY_FLAG_DATA
360
19C
  0
DICTIONARY
  5
1B6
330
1B5
100
AcDbDictionary
280
     1
  3
ACAD_BREAKDATA
360
1B9
  3
OS_DIM_DISPLAY_FLAG_DATA
360
1B7
  0
DICTIONARY
  5
1C6
330
1C5
100
AcDbDictionary
280
     1
  3
ACAD_BREAKDATA
360
1C9
  3
OS_DIM_DISPLAY_FLAG_DATA
360
1C7
  0
ACAD_PROXY_OBJECT
  5
172
102
{ACAD_REACTORS
330
C
102
}
330
C
100
AcDbProxyObject
 90
      499
 91
      509
 93
       11
310
4600
330
108
330
109
330
10F
330
110
330
119
330
11A
330
11F
330
120
330
139
330
13A
330
13F
330
140
330
145
330
146
330
14C
330
14D
330
153
330
154
330
15A
330
15B
330
161
330
162
330
16A
330
16B
 94
        0
  0
DICTIONARY
  5
D
102
{ACAD_REACTORS
330
C
102
}
330
C
100
AcDbDictionary
  0
DICTIONARY
  5
1A
102
{ACAD_REACTORS
330
C
102
}
330
C
100
AcDbDictionary
  0
DICTIONARY
  5
43
102
{ACAD_REACTORS
330
C
102
}
330
C
100
AcDbDictionary
  3
BYBLOCK
350
45
  3
BYLAYER
350
44
  3
GLOBAL
350
46
  0
DICTIONARY
  5
6B
102
{ACAD_REACTORS
330
C
102
}
330
C
100
AcDbDictionary
  3
STANDARD
350
6C
  0
DICTIONARY
  5
17
102
{ACAD_REACTORS
330
C
102
}
330
C
100
AcDbDictionary
  3
STANDARD
350
18
  0
DICTIONARY
  5
19
102
{ACAD_REACTORS
330
C
102
}
330
C
100
AcDbDictionary
  0
DICTIONARY
  5
47
102
{ACAD_REACTORS
330
C
102
}
330
C
100
AcDbDictionary
  3
A0
350
48
  3
A1
350
49
  3
A2
350
4A
  3
A3
350
4B
  3
A4
350
4C
  3
A5
350
4D
  3
A6
350
4E
  3
A7
350
4F
  3
A8
350
50
  3
A9
350
51
  3
B0
350
52
  3
B1
350
53
  3
B2
350
54
  3
B3
350
55
  3
B4
350
56
  3
B5
350
57
  3
B6
350
58
  3
B7
350
59
  3
B8
350
5A
  3
B9
350
5B
  3
C0
350
5C
  3
C1
350
5D
  3
C2
350
5E
  3
C3
350
5F
  3
C4
350
60
  3
C5
350
61
  3
C6
350
62
  3
C7
350
63
  3
C8
350
64
  3
C9
350
65
  3
D0
350
66
  3
D1
350
67
  3
D2
350
68
  0
DICTIONARY
  5
2A
102
{ACAD_REACTORS
330
C
102
}
330
C
100
AcDbDictionary
  3
2DWIREFRAME
350
2F
  3
BASIC
350
32
  3
BRIGHTEN
350
36
  3
COLORCHANGE
350
3A
  3
CONCEPTUAL
350
34
  3
DIM
350
35
  3
EDGECOLOROFF
350
3D
  3
FACEPATTERN
350
39
  3
FLAT
350
2B
  3
FLATWITHEDGES
350
2C
  3
GOURAUD
350
2D
  3
GOURAUDWITHEDGES
350
2E
  3
HIDDEN
350
31
  3
JITTEROFF
350
3B
  3
LINEPATTERN
350
38
  3
OVERHANGOFF
350
3C
  3
REALISTIC
350
33
  3
SHADED
350
42
  3
SHADED_WITH_EDGES
350
41
  3
SHADES_OF_GRAY
350
3E
  3
SKETCHY
350
3F
  3
THICKEN
350
37
  3
WIREFRAME
350
30
  3
X-RAY
350
40
  0
XRECORD
  5
256
102
{ACAD_REACTORS
330
C
102
}
330
C
100
AcDbXrecord
 90
        1
330
194
  0
DICTIONARY
  5
222
102
{ACAD_REACTORS
330
C
102
}
330
C
100
AcDbDictionary
  3
CEPSNID
350
22C
  3
CEPSNTYPE
350
22B
  3
DIMSTYLEDATA
350
242
  3
FINGERPRINTGUID
350
22D
  3
HYPERLINKBASE
350
225
  3
INSUNITS
350
22A
  3
LAYOUTDICT
350
227
  3
LWETCUNION
350
229
  3
PLOTSETDICT
350
228
  3
PSVPSCALE
350
22F
  3
PUCSBASE
350
232
  3
PUCSORGBACK
350
238
  3
PUCSORGBOTTOM
350
234
  3
PUCSORGFRONT
350
237
  3
PUCSORGLEFT
350
235
  3
PUCSORGRIGHT
350
236
  3
PUCSORGTOP
350
233
  3
PUCSORTHOREF
350
230
  3
PUCSORTHOVIEW
350
231
  3
STYLESHEET
350
226
  3
TSTACKALIGN
350
223
  3
TSTACKSIZE
350
224
  3
UCSBASE
350
23B
  3
UCSORGBACK
350
241
  3
UCSORGBOTTOM
350
23D
  3
UCSORGFRONT
350
240
  3
UCSORGLEFT
350
23E
  3
UCSORGRIGHT
350
23F
  3
UCSORGTOP
350
23C
  3
UCSORTHOREF
350
239
  3
UCSORTHOVIEW
350
23A
  3
VERSIONGUID
350
22E
  0
DICTIONARY
  5
6E
102
{ACAD_REACTORS
330
C
102
}
330
C
100
AcDbDictionary
  3
CANNOSCALE
350
24D
  3
CMLEADERSTYLE
350
244
  3
CTABLESTYLE
350
243
  3
DIMASSOC
350
247
  3
HIDETEXT
350
248
  3
MSLTSCALE
350
24E
  3
OLEFRAME
350
6F
  0
DICTIONARY
  5
1D3
102
{ACAD_REACTORS
330
C
102
}
330
C
100
AcDbDictionary
280
     1
  3
DIM_UNITS
360
1D4
  3
ONSHAPE_ANG_TOL_PRECISION
360
1D7
  3
ONSHAPE_DIMENSION_TEXT_HOR
360
1DB
  3
ONSHAPE_JOGDIMENSION_LOCK_
360
1D9
  3
ONSHAPE_SHOWDIMENSIONSLINE
360
1DA
  3
ONSHAPE_UNDERLINEOVERRIDEN
360
1D8
  3
ONSHAPE_VSHARP_EXTENSION
360
1D6
  3
ONSHAPE_WELD_STANDARD
360
1D5
  0
XRECORD
  5
24C
102
{ACAD_REACTORS
330
24B
102
}
330
24B
100
AcDbXrecord
102
VTR_0.000_0.000_1.000_1.000_VISUALSTYLE
340
2F
102
VTR_0.000_0.000_1.000_1.000_GRIDDISPLAY
 70
     3
102
VTR_0.000_0.000_1.000_1.000_GRIDMAJOR
 70
     5
102
VTR_0.000_0.000_1.000_1.000_DEFAULTLIGHTING
280
     1
102
VTR_0.000_0.000_1.000_1.000_DEFAULTLIGHTINGTYPE
 70
     1
102
VTR_0.000_0.000_1.000_1.000_BRIGHTNESS
141
0.0
102
VTR_0.000_0.000_1.000_1.000_CONTRAST
142
0.0
  0
XRECORD
  5
16E
102
{ACAD_REACTORS
330
16D
102
}
330
16D
100
AcDbXrecord
330
0
  0
XRECORD
  5
24A
102
{ACAD_REACTORS
330
249
102
}
330
249
100
AcDbXrecord
 40
15179.0
  1
{\pxql;Bottom Motor view}
  0
BREAKDATA
  5
19F
102
{ACAD_REACTORS
330
19B
102
}
330
19B
100
AcDbBreakData
 70
     0
330
19A
 90
        0
  0
XRECORD
  5
19C
102
{ACAD_REACTORS
330
19B
102
}
330
19B
100
AcDbXrecord
 90
        1
 90
        0
  0
BREAKDATA
  5
1B9
102
{ACAD_REACTORS
330
1B6
102
}
330
1B6
100
AcDbBreakData
 70
     0
330
1B5
 90
        0
  0
XRECORD
  5
1B7
102
{ACAD_REACTORS
330
1B6
102
}
330
1B6
100
AcDbXrecord
 90
        1
 90
        0
  0
BREAKDATA
  5
1C9
102
{ACAD_REACTORS
330
1C6
102
}
330
1C6
100
AcDbBreakData
 70
     0
330
1C5
 90
        0
  0
XRECORD
  5
1C7
102
{ACAD_REACTORS
330
1C6
102
}
330
1C6
100
AcDbXrecord
 90
        1
 90
        0
  0
MATERIAL
  5
45
102
{ACAD_REACTORS
330
43
102
}
102
{ACAD_XDICTIONARY
360
251
102
}
330
43
100
AcDbMaterial
  1
BYBLOCK
  0
MATERIAL
  5
44
102
{ACAD_REACTORS
330
43
102
}
102
{ACAD_XDICTIONARY
360
24F
102
}
330
43
100
AcDbMaterial
  1
BYLAYER
  0
MATERIAL
  5
46
102
{ACAD_REACTORS
330
43
102
}
102
{ACAD_XDICTIONARY
360
253
102
}
330
43
100
AcDbMaterial
  1
GLOBAL
  0
ACAD_PROXY_OBJECT
  5
6C
102
{ACAD_REACTORS
330
6B
102
}
330
6B
100
AcDbProxyObject
 90
      499
 91
      505
 93
      610
310
40901902A4063FBFFFFFE056BD1B81E855B9FC0AD7A3703D0AD73F4214DD185B99185C9900AD7A3703D0AC73F90140501A02B5E8DC0F42B1CFC02B5E8DC0F42B1CFE5764000000000000300FC0
340
14
340
0
340
11
340
0
 94
        0
1001
ACAD_MLEADERVER
1070
     2
  0
MLINESTYLE
  5
18
102
{ACAD_REACTORS
330
17
102
}
330
17
100
AcDbMlineStyle
  2
Standard
 70
     0
  3

 62
   256
 51
90.0
 52
90.0
 71
     2
 49
0.5
 62
   256
  6
BYLAYER
 49
-0.5
 62
   256
  6
BYLAYER
  0
ACAD_PROXY_OBJECT
  5
48
102
{ACAD_REACTORS
330
47
102
}
330
47
100
AcDbProxyObject
 90
      499
 91
      503
 93
       41
310
903313A31580
  0
ACAD_PROXY_OBJECT
  5
49
102
{ACAD_REACTORS
330
47
102
}
330
47
100
AcDbProxyObject
 90
      499
 91
      503
 93
      105
310
903313A324000000000000004000
  0
ACAD_PROXY_OBJECT
  5
4A
102
{ACAD_REACTORS
330
47
102
}
330
47
100
AcDbProxyObject
 90
      499
 91
      503
 93
      105
310
903313A344000000000000104000
  0
ACAD_PROXY_OBJECT
  5
4B
102
{ACAD_REACTORS
330
47
102
}
330
47
100
AcDbProxyObject
 90
      499
 91
      503
 93
      105
310
903313A354000000000000144000
  0
ACAD_PROXY_OBJECT
  5
4C
102
{ACAD_REACTORS
330
47
102
}
330
47
100
AcDbProxyObject
 90
      499
 91
      503
 93
      105
310
903313A384000000000000204000
  0
ACAD_PROXY_OBJECT
  5
4D
102
{ACAD_REACTORS
330
47
102
}
330
47
100
AcDbProxyObject
 90
      499
 91
      503
 93
      113
310
904313A31304000000000000244000
  0
ACAD_PROXY_OBJECT
  5
4E
102
{ACAD_REACTORS
330
47
102
}
330
47
100
AcDbProxyObject
 90
      499
 91
      503
 93
      113
310
904313A31364000000000000304000
  0
ACAD_PROXY_OBJECT
  5
4F
102
{ACAD_REACTORS
330
47
102
}
330
47
100
AcDbProxyObject
 90
      499
 91
      503
 93
      113
310
904313A32304000000000000344000
  0
ACAD_PROXY_OBJECT
  5
50
102
{ACAD_REACTORS
330
47
102
}
330
47
100
AcDbProxyObject
 90
      499
 91
      503
 93
      113
310
904313A333040000000000003E4000
  0
ACAD_PROXY_OBJECT
  5
51
102
{ACAD_REACTORS
330
47
102
}
330
47
100
AcDbProxyObject
 90
      499
 91
      503
 93
      113
310
904313A34304000000000000444000
  0
ACAD_PROXY_OBJECT
  5
52
102
{ACAD_REACTORS
330
47
102
}
330
47
100
AcDbProxyObject
 90
      499
 91
      503
 93
      113
310
904313A35304000000000000494000
  0
ACAD_PROXY_OBJECT
  5
53
102
{ACAD_REACTORS
330
47
102
}
330
47
100
AcDbProxyObject
 90
      499
 91
      503
 93
      121
310
905313A3130304000000000000594000
  0
ACAD_PROXY_OBJECT
  5
54
102
{ACAD_REACTORS
330
47
102
}
330
47
100
AcDbProxyObject
 90
      499
 91
      503
 93
      105
310
903323A310000000000000010100
  0
ACAD_PROXY_OBJECT
  5
55
102
{ACAD_REACTORS
330
47
102
}
330
47
100
AcDbProxyObject
 90
      499
 91
      503
 93
      105
310
903343A310000000000000410100
  0
ACAD_PROXY_OBJECT
  5
56
102
{ACAD_REACTORS
330
47
102
}
330
47
100
AcDbProxyObject
 90
      499
 91
      503
 93
      105
310
903383A310000000000000810100
  0
ACAD_PROXY_OBJECT
  5
57
102
{ACAD_REACTORS
330
47
102
}
330
47
100
AcDbProxyObject
 90
      499
 91
      503
 93
      113
310
90431303A310000000000000910100
  0
ACAD_PROXY_OBJECT
  5
58
102
{ACAD_REACTORS
330
47
102
}
330
47
100
AcDbProxyObject
 90
      499
 91
      503
 93
      121
310
9053130303A310000000000001650100
  0
ACAD_PROXY_OBJECT
  5
59
102
{ACAD_REACTORS
330
47
102
}
330
47
100
AcDbProxyObject
 90
      499
 91
      503
 93
      257
310
90E312F31323822203D2031272D3022000000000000200FC000000000000284000
  0
ACAD_PROXY_OBJECT
  5
5A
102
{ACAD_REACTORS
330
47
102
}
330
47
100
AcDbProxyObject
 90
      499
 91
      503
 93
      249
310
90D312F363422203D2031272D3022000000000000240FC000000000000284000
  0
ACAD_PROXY_OBJECT
  5
5B
102
{ACAD_REACTORS
330
47
102
}
330
47
100
AcDbProxyObject
 90
      499
 91
      503
 93
      249
310
90D312F333222203D2031272D3022000000000000280FC000000000000284000
  0
ACAD_PROXY_OBJECT
  5
5C
102
{ACAD_REACTORS
330
47
102
}
330
47
100
AcDbProxyObject
 90
      499
 91
      503
 93
      249
310
90D312F313622203D2031272D30220000000000002C0FC000000000000284000
  0
ACAD_PROXY_OBJECT
  5
5D
102
{ACAD_REACTORS
330
47
102
}
330
47
100
AcDbProxyObject
 90
      499
 91
      503
 93
      249
310
90D332F333222203D2031272D30220000000000002E0FC000000000000284000
  0
ACAD_PROXY_OBJECT
  5
5E
102
{ACAD_REACTORS
330
47
102
}
330
47
100
AcDbProxyObject
 90
      499
 91
      503
 93
      241
310
90C312F3822203D2031272D3022000000000000300FC000000000000284000
  0
ACAD_PROXY_OBJECT
  5
5F
102
{ACAD_REACTORS
330
47
102
}
330
47
100
AcDbProxyObject
 90
      499
 91
      503
 93
      249
310
90D332F313622203D2031272D3022000000000000320FC000000000000284000
  0
ACAD_PROXY_OBJECT
  5
60
102
{ACAD_REACTORS
330
47
102
}
330
47
100
AcDbProxyObject
 90
      499
 91
      503
 93
      241
310
90C312F3422203D2031272D3022000000000000340FC000000000000284000
  0
ACAD_PROXY_OBJECT
  5
61
102
{ACAD_REACTORS
330
47
102
}
330
47
100
AcDbProxyObject
 90
      499
 91
      503
 93
      241
310
90C332F3822203D2031272D3022000000000000360FC000000000000284000
  0
ACAD_PROXY_OBJECT
  5
62
102
{ACAD_REACTORS
330
47
102
}
330
47
100
AcDbProxyObject
 90
      499
 91
      503
 93
      241
310
90C312F3222203D2031272D3022000000000000380FC000000000000284000
  0
ACAD_PROXY_OBJECT
  5
63
102
{ACAD_REACTORS
330
47
102
}
330
47
100
AcDbProxyObject
 90
      499
 91
      503
 93
      241
310
90C332F3422203D2031272D30220000000000003A0FC000000000000284000
  0
ACAD_PROXY_OBJECT
  5
64
102
{ACAD_REACTORS
330
47
102
}
330
47
100
AcDbProxyObject
 90
      499
 91
      503
 93
      161
310
90A3122203D2031272D30224000000000000284000
  0
ACAD_PROXY_OBJECT
  5
65
102
{ACAD_REACTORS
330
47
102
}
330
47
100
AcDbProxyObject
 90
      499
 91
      503
 93
      257
310
90E312D312F3222203D2031272D30220000000000003E0FC000000000000284000
  0
ACAD_PROXY_OBJECT
  5
66
102
{ACAD_REACTORS
330
47
102
}
330
47
100
AcDbProxyObject
 90
      499
 91
      503
 93
      225
310
90A3322203D2031272D302200000000000002100000000000000284000
  0
ACAD_PROXY_OBJECT
  5
67
102
{ACAD_REACTORS
330
47
102
}
330
47
100
AcDbProxyObject
 90
      499
 91
      503
 93
      225
310
90A3622203D2031272D302200000000000006100000000000000284000
  0
ACAD_PROXY_OBJECT
  5
68
102
{ACAD_REACTORS
330
47
102
}
330
47
100
AcDbProxyObject
 90
      499
 91
      503
 93
      249
310
90D31272D3022203D2031272D30220000000000000A100000000000000284000
  0
ACAD_PROXY_OBJECT
  5
2F
102
{ACAD_REACTORS
330
2A
102
}
330
2A
100
AcDbProxyObject
 90
      499
 91
      501
 93
      436
310
42CC9915DA5C99599C985B595049028333333333333E33F0000000000000F90107901411070040501600405405064090741402480A0340
1001
ACAD
1000
AcDbSavedByObjectVersion
1070
     0
  0
ACAD_PROXY_OBJECT
  5
32
102
{ACAD_REACTORS
330
2A
102
}
330
2A
100
AcDbProxyObject
 90
      499
 91
      501
 93
      388
310
4150985CDA58D07406404333333333333E33F0000000000000F90107A41107004050150841D405064090741402480A0350
1001
ACAD
1000
AcDbSavedByObjectVersion
1070
     0
  0
ACAD_PROXY_OBJECT
  5
36
102
{ACAD_REACTORS
330
2A
102
}
330
2A
100
AcDbProxyObject
 90
      499
 91
      501
 93
      428
310
42109C9A59DA1D195B90C409028333333333333E33F0000000000000F9010790141107004050150841D405064090741402480A029950
1001
ACAD
1000
AcDbSavedByObjectVersion
1070
     0
  0
ACAD_PROXY_OBJECT
  5
3A
102
{ACAD_REACTORS
330
2A
102
}
330
2A
100
AcDbProxyObject
 90
      499
 91
      501
 93
      452
310
42D0DBDB1BDC90DA185B99D95104090240C333333333333E33F0000000000000F90108901411070040501508421405064090741402480A0350
1001
ACAD
1000
AcDbSavedByObjectVersion
1070
     0
  0
ACAD_PROXY_OBJECT
  5
34
102
{ACAD_REACTORS
330
2A
102
}
330
2A
100
AcDbProxyObject
 90
      499
 91
      501
 93
      500
310
4290DBDB98D95C1D1D585B10940D028333333333333E33F0000000000000F90107902409070040501000000000018199010841D405064090740C02480A0340
1001
ACAD
1000
AcDbSavedByObjectVersion
1070
     0
  0
ACAD_PROXY_OBJECT
  5
35
102
{ACAD_REACTORS
330
2A
102
}
330
2A
100
AcDbProxyObject
 90
      499
 91
      501
 93
      412
310
40D11A5B50B409028333333333333E33F0000000000000F9010790141107004050150841D405064090741402480A02677FFFFFD0
1001
ACAD
1000
AcDbSavedByObjectVersion
1070
     0
  0
ACAD_PROXY_OBJECT
  5
3D
102
{ACAD_REACTORS
330
2A
102
}
330
2A
100
AcDbProxyObject
 90
      499
 91
      501
 93
      452
310
43115919D950DBDB1BDC93D999916409028333333333333E33F0000000000000F9010790141107004050150841D405064090741402480A0350
1001
ACAD
1000
AcDbSavedByObjectVersion
1070
     0
  0
ACAD_PROXY_OBJECT
  5
39
102
{ACAD_REACTORS
330
2A
102
}
330
2A
100
AcDbProxyObject
 90
      499
 91
      501
 93
      444
310
42D19858D95C185D1D195C9B90F409028333333333333E33F0000000000000F9010790141107004050150841D405064090741402480A0350
1001
ACAD
1000
AcDbSavedByObjectVersion
1070
     0
  0
ACAD_PROXY_OBJECT
  5
2B
102
{ACAD_REACTORS
330
2A
102
}
330
2A
100
AcDbProxyObject
 90
      499
 91
      501
 93
      380
310
41119B185D240901404333333333333E33F0000000000000F9010740A907004050150841D405064090741402480A1B50
1001
ACAD
1000
AcDbSavedByObjectVersion
1070
     0
  0
ACAD_PROXY_OBJECT
  5
2C
102
{ACAD_REACTORS
330
2A
102
}
330
2A
100
AcDbProxyObject
 90
      499
 91
      501
 93
      468
310
43519B185D15DA5D1A115919D95CD0140901404333333333333E33F0000000000000F90107409019070040501600405405064090741402480A1B50
1001
ACAD
1000
AcDbSavedByObjectVersion
1070
     0
  0
ACAD_PROXY_OBJECT
  5
2D
102
{ACAD_REACTORS
330
2A
102
}
330
2A
100
AcDbProxyObject
 90
      499
 91
      501
 93
      404
310
41D1DBDD5C985D5910240902404333333333333E33F0000000000000F9010740A9070040501641D405064090741402480A1B50
1001
ACAD
1000
AcDbSavedByObjectVersion
1070
     0
  0
ACAD_PROXY_OBJECT
  5
2E
102
{ACAD_REACTORS
330
2A
102
}
330
2A
100
AcDbProxyObject
 90
      499
 91
      501
 93
      492
310
4411DBDD5C985D5915DA5D1A115919D95CD0340902404333333333333E33F0000000000000F90107409019070040501600405405064090741402480A1B50
1001
ACAD
1000
AcDbSavedByObjectVersion
1070
     0
  0
ACAD_PROXY_OBJECT
  5
31
102
{ACAD_REACTORS
330
2A
102
}
330
2A
100
AcDbProxyObject
 90
      499
 91
      501
 93
      476
310
41921A5919195B90640502408333333333333E33F0000000000000F901079024090700405020000000000001110200405405064090740C02480A0340
1001
ACAD
1000
AcDbSavedByObjectVersion
1070
     0
  0
ACAD_PROXY_OBJECT
  5
3B
102
{ACAD_REACTORS
330
2A
102
}
330
2A
100
AcDbProxyObject
 90
      499
 91
      501
 93
      428
310
42529A5D1D195C93D999914409028333333333333E33F0000000000000F9010790141107004050150A41D405064090741402480A0350
1001
ACAD
1000
AcDbSavedByObjectVersion
1070
     0
  0
ACAD_PROXY_OBJECT
  5
38
102
{ACAD_REACTORS
330
2A
102
}
330
2A
100
AcDbProxyObject
 90
      499
 91
      501
 93
      444
310
42D31A5B995C185D1D195C9B90E409028333333333333E33F0000000000000F9010790141107004050750841D405064090741402483A0350
1001
ACAD
1000
AcDbSavedByObjectVersion
1070
     0
  0
ACAD_PROXY_OBJECT
  5
3C
102
{ACAD_REACTORS
330
2A
102
}
330
2A
100
AcDbProxyObject
 90
      499
 91
      501
 93
      444
310
42D3DD995C9A185B99D3D999915409028333333333333E33F0000000000000F9010790141107004050150941D405064090741402480A0350
1001
ACAD
1000
AcDbSavedByObjectVersion
1070
     0
  0
ACAD_PROXY_OBJECT
  5
33
102
{ACAD_REACTORS
330
2A
102
}
330
2A
100
AcDbProxyObject
 90
      499
 91
      501
 93
      428
310
425499585B1A5CDD1A58D08409038333333333333E33F0000000000000F9010740A907004050150800405405064090740C02480A1B40
1001
ACAD
1000
AcDbSavedByObjectVersion
1070
     0
  0
ACAD_PROXY_OBJECT
  5
42
102
{ACAD_REACTORS
330
2A
102
}
330
2A
100
AcDbProxyObject
 90
      499
 91
      501
 93
      420
310
4194DA1859195911B40902404333333333333E33F0000000000000F9010740A41107004050150800405405064090840C02480A0B40
1001
ACAD
1000
AcDbSavedByObjectVersion
1070
     0
  0
ACAD_PROXY_OBJECT
  5
41
102
{ACAD_REACTORS
330
2A
102
}
330
2A
100
AcDbProxyObject
 90
      499
 91
      501
 93
      516
310
4454DA18591959081DDA5D1A08195919D95CD1A40902404333333333333E33F0000000000000F901074090142907004050250800405405064090740C02480A0B40
1001
ACAD
1000
AcDbSavedByObjectVersion
1070
     0
  0
ACAD_PROXY_OBJECT
  5
3E
102
{ACAD_REACTORS
330
2A
102
}
330
2A
100
AcDbProxyObject
 90
      499
 91
      501
 93
      532
310
4394DA1859195CC81BD98811DC985E5174090240C333333333333E33F0000000000000F901079024090741D01000000000000111010841D405064090740C02480A0340
1001
ACAD
1000
AcDbSavedByObjectVersion
1070
     0
  0
ACAD_PROXY_OBJECT
  5
3F
102
{ACAD_REACTORS
330
2A
102
}
330
2A
100
AcDbProxyObject
 90
      499
 91
      501
 93
      476
310
41D4DAD95D18DA1E51840502408333333333333E33F0000000000000F901079024090741D01000000000000111010B41D405064090741802480A0340
1001
ACAD
1000
AcDbSavedByObjectVersion
1070
     0
  0
ACAD_PROXY_OBJECT
  5
37
102
{ACAD_REACTORS
330
2A
102
}
330
2A
100
AcDbProxyObject
 90
      499
 91
      501
 93
      412
310
41D51A1A58DAD95B90D409028333333333333E33F0000000000000F9010790141107004050150C41D405064090741402480A0350
1001
ACAD
1000
AcDbSavedByObjectVersion
1070
     0
  0
ACAD_PROXY_OBJECT
  5
30
102
{ACAD_REACTORS
330
2A
102
}
330
2A
100
AcDbProxyObject
 90
      499
 91
      501
 93
      420
310
4255DA5C99599C985B595059028333333333333E33F0000000000000F90107901411070040501600405405064090740C02480A0340
1001
ACAD
1000
AcDbSavedByObjectVersion
1070
     0
  0
ACAD_PROXY_OBJECT
  5
40
102
{ACAD_REACTORS
330
2A
102
}
330
2A
100
AcDbProxyObject
 90
      499
 91
      501
 93
      404
310
41560B54985E51940902404000000000000E03F0000000000000F9010740501907004050150841D405064090740C02480A1B40
1001
ACAD
1000
AcDbSavedByObjectVersion
1070
     0
  0
XRECORD
  5
22C
102
{ACAD_REACTORS
330
222
102
}
330
222
100
AcDbXrecord
340
0
  0
XRECORD
  5
22B
102
{ACAD_REACTORS
330
222
102
}
330
222
100
AcDbXrecord
 90
        0
  0
XRECORD
  5
242
102
{ACAD_REACTORS
330
222
102
}
330
222
100
AcDbXrecord
1000
DSTYLE
1002
{
1070
   179
 70
     1
1070
   171
 70
     3
1070
   274
 70
     3
1070
   285
 70
    11
1070
   176
 70
     7
1070
   177
 70
     7
1070
   178
 70
     7
1070
   271
 70
     2
1070
    44
 40
0.08
1070
   144
 40
3.175
1070
   371
 70
    13
1070
   372
 70
    13
1070
   272
 70
     2
1070
   340
340
73
1070
   140
 40
0.12
1070
   284
 70
    11
1070
   288
 70
     1
1070
    78
 70
    11
1070
    90
 70
     1
1002
}
  0
XRECORD
  5
22D
102
{ACAD_REACTORS
330
222
102
}
330
222
100
AcDbXrecord
  1
{35383036-3266-7276-f371-333635627276}
  0
XRECORD
  5
225
102
{ACAD_REACTORS
330
222
102
}
330
222
100
AcDbXrecord
  1

  0
XRECORD
  5
22A
102
{ACAD_REACTORS
330
222
102
}
330
222
100
AcDbXrecord
 90
        1
  0
XRECORD
  5
227
102
{ACAD_REACTORS
330
222
102
}
330
222
100
AcDbXrecord
340
1A
  0
XRECORD
  5
229
102
{ACAD_REACTORS
330
222
102
}
330
222
100
AcDbXrecord
 90
    10269
  0
XRECORD
  5
228
102
{ACAD_REACTORS
330
222
102
}
330
222
100
AcDbXrecord
340
19
  0
XRECORD
  5
22F
102
{ACAD_REACTORS
330
222
102
}
330
222
100
AcDbXrecord
 40
0.0
  0
XRECORD
  5
232
102
{ACAD_REACTORS
330
222
102
}
330
222
100
AcDbXrecord
340
0
  0
XRECORD
  5
238
102
{ACAD_REACTORS
330
222
102
}
330
222
100
AcDbXrecord
 10
0.0
 20
0.0
 30
0.0
  0
XRECORD
  5
234
102
{ACAD_REACTORS
330
222
102
}
330
222
100
AcDbXrecord
 10
0.0
 20
0.0
 30
0.0
  0
XRECORD
  5
237
102
{ACAD_REACTORS
330
222
102
}
330
222
100
AcDbXrecord
 10
0.0
 20
0.0
 30
0.0
  0
XRECORD
  5
235
102
{ACAD_REACTORS
330
222
102
}
330
222
100
AcDbXrecord
 10
0.0
 20
0.0
 30
0.0
  0
XRECORD
  5
236
102
{ACAD_REACTORS
330
222
102
}
330
222
100
AcDbXrecord
 10
0.0
 20
0.0
 30
0.0
  0
XRECORD
  5
233
102
{ACAD_REACTORS
330
222
102
}
330
222
100
AcDbXrecord
 10
0.0
 20
0.0
 30
0.0
  0
XRECORD
  5
230
102
{ACAD_REACTORS
330
222
102
}
330
222
100
AcDbXrecord
340
0
  0
XRECORD
  5
231
102
{ACAD_REACTORS
330
222
102
}
330
222
100
AcDbXrecord
 70
     0
  0
XRECORD
  5
226
102
{ACAD_REACTORS
330
222
102
}
330
222
100
AcDbXrecord
  1

  0
XRECORD
  5
223
102
{ACAD_REACTORS
330
222
102
}
330
222
100
AcDbXrecord
 90
        1
  0
XRECORD
  5
224
102
{ACAD_REACTORS
330
222
102
}
330
222
100
AcDbXrecord
 90
       70
  0
XRECORD
  5
23B
102
{ACAD_REACTORS
330
222
102
}
330
222
100
AcDbXrecord
340
0
  0
XRECORD
  5
241
102
{ACAD_REACTORS
330
222
102
}
330
222
100
AcDbXrecord
 10
0.0
 20
0.0
 30
0.0
  0
XRECORD
  5
23D
102
{ACAD_REACTORS
330
222
102
}
330
222
100
AcDbXrecord
 10
0.0
 20
0.0
 30
0.0
  0
XRECORD
  5
240
102
{ACAD_REACTORS
330
222
102
}
330
222
100
AcDbXrecord
 10
0.0
 20
0.0
 30
0.0
  0
XRECORD
  5
23E
102
{ACAD_REACTORS
330
222
102
}
330
222
100
AcDbXrecord
 10
0.0
 20
0.0
 30
0.0
  0
XRECORD
  5
23F
102
{ACAD_REACTORS
330
222
102
}
330
222
100
AcDbXrecord
 10
0.0
 20
0.0
 30
0.0
  0
XRECORD
  5
23C
102
{ACAD_REACTORS
330
222
102
}
330
222
100
AcDbXrecord
 10
0.0
 20
0.0
 30
0.0
  0
XRECORD
  5
239
102
{ACAD_REACTORS
330
222
102
}
330
222
100
AcDbXrecord
340
0
  0
XRECORD
  5
23A
102
{ACAD_REACTORS
330
222
102
}
330
222
100
AcDbXrecord
 70
     0
  0
XRECORD
  5
22E
102
{ACAD_REACTORS
330
222
102
}
330
222
100
AcDbXrecord
  1
{FAEB1C32-E019-11D5-929B-00C0DF256EC4}
  0
DICTIONARYVAR
  5
24D
102
{ACAD_REACTORS
330
6E
102
}
330
6E
100
DictionaryVariables
280
     0
  1
1:1
  0
DICTIONARYVAR
  5
244
102
{ACAD_REACTORS
330
6E
102
}
330
6E
100
DictionaryVariables
280
     0
  1
Standard
  0
DICTIONARYVAR
  5
243
102
{ACAD_REACTORS
330
6E
102
}
330
6E
100
DictionaryVariables
280
     0
  1
Onshape-Standard
  0
DICTIONARYVAR
  5
247
102
{ACAD_REACTORS
330
6E
102
}
330
6E
100
DictionaryVariables
280
     0
  1
2
  0
DICTIONARYVAR
  5
248
102
{ACAD_REACTORS
330
6E
102
}
330
6E
100
DictionaryVariables
280
     0
  1
1
  0
DICTIONARYVAR
  5
24E
102
{ACAD_REACTORS
330
6E
102
}
330
6E
100
DictionaryVariables
280
     0
  1
1
  0
DICTIONARYVAR
  5
6F
102
{ACAD_REACTORS
330
6E
102
}
330
6E
100
DictionaryVariables
280
     0
  1
0
  0
XRECORD
  5
1D4
102
{ACAD_REACTORS
330
1D3
102
}
330
1D3
100
AcDbXrecord
 70
     4
  0
XRECORD
  5
1D7
102
{ACAD_REACTORS
330
1D3
102
}
330
1D3
100
AcDbXrecord
 90
        0
  0
XRECORD
  5
1DB
102
{ACAD_REACTORS
330
1D3
102
}
330
1D3
100
AcDbXrecord
 90
        5
  0
XRECORD
  5
1D9
102
{ACAD_REACTORS
330
1D3
102
}
330
1D3
100
AcDbXrecord
 90
        0
  0
ACAD_PROXY_OBJECT
  5
1DA
102
{ACAD_REACTORS
330
1D3
102
}
330
1D3
100
AcDbProxyObject
 90
      499
 91
      512
 93
       34
310
40C8804000
  0
ACAD_PROXY_OBJECT
  5
1D8
102
{ACAD_REACTORS
330
1D3
102
}
330
1D3
100
AcDbProxyObject
 90
      499
 91
      512
 93
       34
310
40C8804040
  0
XRECORD
  5
1D6
102
{ACAD_REACTORS
330
1D3
102
}
330
1D3
100
AcDbXrecord
 90
        0
  0
XRECORD
  5
1D5
102
{ACAD_REACTORS
330
1D3
102
}
330
1D3
100
AcDbXrecord
 90
        0
  0
DICTIONARY
  5
251
330
45
100
AcDbDictionary
280
     1
  3
ACAD_XREC_ROUNDTRIP
360
252
  0
DICTIONARY
  5
24F
330
44
100
AcDbDictionary
280
     1
  3
ACAD_XREC_ROUNDTRIP
360
250
  0
DICTIONARY
  5
253
330
46
100
AcDbDictionary
280
     1
  3
ACAD_XREC_ROUNDTRIP
360
254
  0
XRECORD
  5
252
102
{ACAD_REACTORS
330
251
102
}
330
251
100
AcDbXrecord
102
MATERIAL
148
0.0
149
0.0
149
0.0
 93
        0
 94
      127
282
     0
 72
     1
 77
     1
171
     1
175
     1
179
     1
273
     0
  0
XRECORD
  5
250
102
{ACAD_REACTORS
330
24F
102
}
330
24F
100
AcDbXrecord
102
MATERIAL
148
0.0
149
0.0
149
0.0
 93
        0
 94
      127
282
     0
 72
     1
 77
     1
171
     1
175
     1
179
     1
273
     0
  0
XRECORD
  5
254
102
{ACAD_REACTORS
330
253
102
}
330
253
100
AcDbXrecord
102
MATERIAL
148
0.0
149
0.0
149
0.0
 93
        0
 94
      127
282
     0
 72
     1
 77
     1
171
     1
175
     1
179
     1
273
     0
  0
ENDSEC
  0
EOF
